<svg id="Layer_1" data-name="Layer 1" xmlns="http://www.w3.org/2000/svg" xmlns:xlink="http://www.w3.org/1999/xlink" viewBox="0 0 841.89 595.28"><defs><style>.cls-1,.cls-19,.cls-23{fill:none;}.cls-2,.cls-7{font-size:22px;}.cls-11,.cls-12,.cls-2,.cls-9{fill:#231f20;}.cls-10,.cls-11,.cls-12,.cls-2,.cls-24,.cls-7,.cls-8{font-family:CorporateS-Bold, Corporate S;font-weight:700;}.cls-3{clip-path:url(#clip-path);}.cls-10,.cls-24,.cls-4,.cls-7,.cls-8{fill:#015a67;}.cls-5{clip-path:url(#clip-path-2);}.cls-6{fill:#4e959e;}.cls-11,.cls-8{font-size:17px;}.cls-12,.cls-9{font-size:12px;}.cls-9{font-family:CorporateS-Regular, Corporate S;}.cls-13{clip-path:url(#clip-path-3);}.cls-14{fill:#fff;}.cls-15{fill:#e73337;}.cls-16{fill:#13100d;}.cls-17{clip-path:url(#clip-path-4);}.cls-18{fill:url(#linear-gradient);}.cls-19{stroke:#1d1d1b;stroke-width:0.17px;}.cls-19,.cls-23{stroke-miterlimit:10;}.cls-20{clip-path:url(#clip-path-5);}.cls-21{fill:url(#linear-gradient-2);}.cls-22{fill:#1d1d1b;}.cls-23{stroke:#231f20;stroke-width:0.74px;}.cls-24{font-size:16.72px;}.cls-25{clip-path:url(#clip-path-6);}.cls-26{fill:url(#linear-gradient-3);}.cls-27{clip-path:url(#clip-path-7);}.cls-28{fill:url(#linear-gradient-4);}.cls-29{clip-path:url(#clip-path-8);}.cls-30{fill:url(#linear-gradient-5);}.cls-31{clip-path:url(#clip-path-9);}.cls-32{fill:url(#linear-gradient-6);}</style><clipPath id="clip-path"><rect class="cls-1" width="841.89" height="595.28"/></clipPath><clipPath id="clip-path-2"><rect class="cls-1" width="841.89" height="594.28"/></clipPath><clipPath id="clip-path-3"><rect class="cls-1" x="720.84" y="19.15" width="112.03" height="101.94"/></clipPath><clipPath id="clip-path-4"><path class="cls-1" d="M605.42,51.55h-.63a33.31,33.31,0,0,0-.21,3.73,32.83,32.83,0,0,0,18.16,29.34,35,35,0,0,0,4.94-3.08,32,32,0,0,1-5.61-3.43A28.17,28.17,0,0,1,614.19,70,27.33,27.33,0,0,1,610,57.54l-.09-1,1-.19a31.75,31.75,0,0,0,8.87-3,20.19,20.19,0,0,1-3.5-3.48l-.4-.49a25.8,25.8,0,0,1-10.43,2.25"/></clipPath><linearGradient id="linear-gradient" x1="84.3" y1="839.68" x2="84.92" y2="839.68" gradientTransform="matrix(0, 56.72, 56.72, 0, -47014.21, -4735.01)" gradientUnits="userSpaceOnUse"><stop offset="0" stop-color="#77cae3"/><stop offset="0.21" stop-color="#7ba2cb"/><stop offset="0.45" stop-color="#7f7ab4"/><stop offset="0.67" stop-color="#825ea3"/><stop offset="0.86" stop-color="#844c99"/><stop offset="1" stop-color="#854695"/></linearGradient><clipPath id="clip-path-5"><path class="cls-1" d="M618.68,47.86a16.37,16.37,0,0,0,4.05,3.71h0l.59.37a32.81,32.81,0,0,0,11.26,4.38l1,.19-.08,1A27.35,27.35,0,0,1,631.28,70a27.89,27.89,0,0,1-5.93,6.61,31.72,31.72,0,0,0,3.69,2.1l1.26.61a32.56,32.56,0,0,0,10.59-24.08,33.31,33.31,0,0,0-.21-3.73h-.63a27.56,27.56,0,0,1-17.31-6.48,31.9,31.9,0,0,1-4.06,2.79"/></clipPath><linearGradient id="linear-gradient-2" x1="84.3" y1="839.53" x2="84.92" y2="839.53" gradientTransform="matrix(0, 56.72, 56.72, 0, -46992.15, -4735.03)" xlink:href="#linear-gradient"/><clipPath id="clip-path-6"><polygon class="cls-1" points="746.96 484.8 771.68 546.52 779.79 534.1 794.25 537.49 769.52 475.76 746.96 484.8"/></clipPath><linearGradient id="linear-gradient-3" x1="-0.28" y1="595.29" x2="0.72" y2="595.29" gradientTransform="matrix(0, -48.95, -48.95, 0, 29911.01, 525.59)" gradientUnits="userSpaceOnUse"><stop offset="0" stop-color="#5d959e"/><stop offset="0.21" stop-color="#6f949e"/><stop offset="0.45" stop-color="#025a67"/><stop offset="0.67" stop-color="#4d959e"/><stop offset="1" stop-color="#64959e"/></linearGradient><clipPath id="clip-path-7"><polygon class="cls-1" points="721.19 539.48 735.64 536.09 743.76 548.52 768.48 486.79 745.91 477.75 721.19 539.48"/></clipPath><linearGradient id="linear-gradient-4" x1="-0.2" y1="595.44" x2="0.8" y2="595.44" gradientTransform="translate(727.21 -30573.46) scale(52.21)" xlink:href="#linear-gradient-3"/><clipPath id="clip-path-8"><path class="cls-1" d="M762.75,429.7a12.33,12.33,0,0,1-9.21,0,6.39,6.39,0,0,0-2.73-.57,7.3,7.3,0,0,0-5.29,2.17,12.3,12.3,0,0,1-8.5,3.52,7.35,7.35,0,0,0-6.81,4.55,12.29,12.29,0,0,1-6.51,6.5,7.34,7.34,0,0,0-4.54,6.81,12.34,12.34,0,0,1-3.52,8.5,7.35,7.35,0,0,0-1.6,8,12.3,12.3,0,0,1,0,9.2,7.35,7.35,0,0,0,1.6,8,12.34,12.34,0,0,1,3.52,8.5,7.34,7.34,0,0,0,4.54,6.81,12.32,12.32,0,0,1,6.51,6.5A7.34,7.34,0,0,0,737,512.8a12.31,12.31,0,0,1,8.5,3.53,7.35,7.35,0,0,0,8,1.59,12.33,12.33,0,0,1,9.21,0,7.36,7.36,0,0,0,8-1.59,12.31,12.31,0,0,1,8.5-3.53,7.33,7.33,0,0,0,6.8-4.55,12.32,12.32,0,0,1,6.51-6.5,7.35,7.35,0,0,0,4.55-6.81,12.3,12.3,0,0,1,3.52-8.5,7.35,7.35,0,0,0,1.6-8,12.3,12.3,0,0,1,0-9.2,7.35,7.35,0,0,0-1.6-8,12.3,12.3,0,0,1-3.52-8.5,7.35,7.35,0,0,0-4.55-6.81,12.29,12.29,0,0,1-6.51-6.5,7.35,7.35,0,0,0-6.8-4.55,12.3,12.3,0,0,1-8.5-3.52,7.32,7.32,0,0,0-5.3-2.17,6.42,6.42,0,0,0-2.73.57"/></clipPath><linearGradient id="linear-gradient-5" x1="-0.13" y1="595.32" x2="0.87" y2="595.32" gradientTransform="translate(-57442.11 511.48) rotate(-90) scale(97.76)" xlink:href="#linear-gradient-3"/><clipPath id="clip-path-9"><path class="cls-1" d="M722.11,473.81a36,36,0,1,1,36,36,36.08,36.08,0,0,1-36-36m-.78,0A36.82,36.82,0,1,0,758.15,437a36.82,36.82,0,0,0-36.82,36.82"/></clipPath><linearGradient id="linear-gradient-6" x1="0.06" y1="595.45" x2="1.06" y2="595.45" gradientTransform="translate(717.02 -43375.38) scale(73.64)" xlink:href="#linear-gradient-3"/></defs><rect class="cls-1" width="841.89" height="595.28"/><text class="cls-2" transform="translate(329.33 242.41)">It Is Hereby Certifed That</text><g class="cls-3"><path class="cls-4" d="M97.12,296.64C97.12,142,214.42,14.75,364.9-1H-7V595.28H376.91c-156.2-10-279.79-139.9-279.79-298.64"/></g><g class="cls-5"><path class="cls-6" d="M0-.26V594.28H342.44C185,569.11,61.53,398,74.87,258a299.18,299.18,0,0,1,7.58-44.18C108,111.51,183,40.48,239.57-.26Z"/><path class="cls-4" d="M0,253.48v340.8H342.44C200.06,564.12,61.53,398,74.87,258a299.18,299.18,0,0,1,7.58-44.18L55,227,21,243.37Z"/><path class="cls-6" d="M0,253.48v340.8H176.87c-31.71-25.09-66.78-61.5-92-112C40.93,394.47,48.53,279,55,227Z"/><path class="cls-4" d="M0,177.39V421.14C55,227,157.16,85.4,279.23-1L246.58-13.7C93.41,94.53,0,177.39,0,177.39"/><path class="cls-4" d="M0-.26V94.82C40.79,37.66,104.66,11.36,146.19-.26Z"/></g><rect class="cls-1" width="841.89" height="595.28"/><polygon class="cls-4" points="243.14 0 0 0 0 196.6 49.62 180.17 243.14 0"/><path class="cls-6" d="M146.19-.26S59.34,32,0,94.82v82.57L239.57-.26Z"/><rect class="cls-1" width="841.89" height="595.28"/><rect class="cls-1" width="841.89" height="595.28"/><rect class="cls-1" width="841.89" height="595.28"/><rect class="cls-1" width="841.89" height="595.28"/><rect class="cls-1" width="841.89" height="595.28"/><text class="cls-7" transform="translate(269.35 275.58)">MF<tspan x="29.13" y="0">2257</tspan><tspan x="79.29" y="0" xml:space="preserve"> Bareen International Hospital</tspan></text><text class="cls-8" transform="translate(181.82 384.92)">Abu Dhabi Healthcare Information and Cyber Security [ADHICS] Standard</text><rect class="cls-4" x="211.36" y="293.98" width="482.71" height="1.03"/><rect class="cls-1" width="841.89" height="595.28"/><rect class="cls-1" width="841.89" height="595.28"/><text class="cls-9" transform="translate(691.84 568.45)"><tspan xml:space="preserve">Issue Date:  </tspan><tspan class="cls-10" x="60.31" y="0">01</tspan><tspan class="cls-10" x="74.9" y="0" xml:space="preserve"> July </tspan><tspan class="cls-10" x="103.44" y="0">2021</tspan></text><text class="cls-9" transform="translate(692.34 585.69)">Expiry Date: <tspan class="cls-10" x="61.14" y="0">30</tspan><tspan class="cls-10" x="74.82" y="0" xml:space="preserve"> June </tspan><tspan class="cls-10" x="104.25" y="0">2024</tspan></text><rect class="cls-1" width="841.89" height="595.28"/><rect class="cls-1" width="841.89" height="595.28"/><text class="cls-11" transform="translate(195.76 330.78)">Has successfully completed the audit and found to be compliant with<tspan x="183.18" y="20.4">the requirements of</tspan></text><text class="cls-12" transform="translate(213.12 424.7)">The use and validity of this certifcate are subject to compliance with the relevant rules and <tspan x="1.19" y="14.4">regulations and continual maintenance of the compliance achieved is as established by the </tspan><tspan x="95.46" y="28.8">certifcation rules of Department of Health – Abu Dhabi</tspan></text><g class="cls-13"><path class="cls-14" d="M792.79,72.07a11.94,11.94,0,0,1-4.61,5,7.5,7.5,0,0,1-6.91.83l.11.25.09.24c.39,1.05.13,2.14-1.29,2.3a3.62,3.62,0,0,0-1.29.29,3.88,3.88,0,0,0-1.15.86,4.72,4.72,0,0,0-.72,1h0a5.52,5.52,0,0,0-.73-1,3.88,3.88,0,0,0-1.15-.86,3.62,3.62,0,0,0-1.29-.29c-1.42-.16-1.68-1.25-1.29-2.3a2.18,2.18,0,0,1,.09-.23l.11-.26a6.71,6.71,0,0,1-4.59.18L768,78a10.1,10.1,0,0,1-4.4-2.45A13.56,13.56,0,0,1,760.92,72c-2.76-5.71-2.37-14.19-2.38-15.09-.1-9.79,2.07-15.27,3.93-17.93-.56-.74-.9-1.18-.93-1.21a1.82,1.82,0,0,0-1.16-.57,22.07,22.07,0,0,0-.67-2.81,15.57,15.57,0,0,0,2.48,1.44,1.75,1.75,0,0,0,.24,1.28l.74,1a10.09,10.09,0,0,1,3.08-2.57,11.64,11.64,0,0,1,1.06-.54,1.85,1.85,0,0,1,.5-1.37,1,1,0,0,1,.58-.79h0a1.22,1.22,0,0,1,1,.28,2.33,2.33,0,0,1,1.39.76,26.4,26.4,0,0,1,3.9-.52,2.27,2.27,0,0,1,1.21-1.52,1.28,1.28,0,0,1,1-.65h0a1.28,1.28,0,0,1,1,.65A2.29,2.29,0,0,1,779,33.37a26.44,26.44,0,0,1,3.89.52,2.33,2.33,0,0,1,1.39-.76,1.22,1.22,0,0,1,1-.28,1,1,0,0,1,.58.79,1.81,1.81,0,0,1,.5,1.37,11.86,11.86,0,0,1,1.07.54,11.63,11.63,0,0,1,3.14,2.61c.49-.65.79-1,.81-1.09a1.71,1.71,0,0,0,.24-1.27,16.46,16.46,0,0,0,2.48-1.44,21.7,21.7,0,0,0-.67,2.8,1.86,1.86,0,0,0-1.16.58s-.42.53-1.05,1.37c1.85,2.67,4,8.11,3.89,17.83,0,.78.38,9.42-2.38,15.13m-6.11-28.69a11.54,11.54,0,0,0-8.14-3c-.25,0-.54.22-.22.64a1.91,1.91,0,0,1-1.45-.28,1.93,1.93,0,0,1-1.46.28c.32-.42,0-.62-.22-.64-1.09-.08-5.46.35-8.1,2.92,1.46,1.92,4.49,5.94,4.56,6a.55.55,0,0,0,.39.18h.07a.74.74,0,0,0,.47-.3c.31-.34.47-.53.78-.85.59-.61,1.16-1.07,1.25-1.16a.89.89,0,0,0,.35-.61c0-.22-.19-.31-.3-.44a.56.56,0,0,0,0,.08,1.33,1.33,0,0,1-.21-.42l-.06.16s-.23-.54-.58-.49a1.33,1.33,0,0,1-.84-.16s0,.16,0,.35h0a1,1,0,0,1,.2-1.48,3.48,3.48,0,0,1,.77-.43.76.76,0,0,0,.26-.22,1.77,1.77,0,0,1,.85-.45,6.21,6.21,0,0,1,1.7-.14,3.58,3.58,0,0,1,1,.22,4,4,0,0,1,1.14,1,9.73,9.73,0,0,1,.81,1.62c.44,1.08.39,1,.69,1.68a8.15,8.15,0,0,0,.88,1.74.53.53,0,0,0,.46.23.81.81,0,0,0,.48-.11.61.61,0,0,0,.2-.19c1-1.48,2.91-3.85,4.33-5.72"/><path class="cls-15" d="M779.58,75.25a.15.15,0,0,1-.05.06h0A1.86,1.86,0,0,1,779,75a19.46,19.46,0,0,1,.49,3.46,1.36,1.36,0,0,1,1.44.2l-1.38-3.4h0"/><path class="cls-15" d="M785.38,46.92h0l.1,0a1.47,1.47,0,0,1,.53.36,12,12,0,0,1,2.1,3.62,10.12,10.12,0,0,1,.47,3.39h0s-.35,6.34-1,12.4c-.62,5.52-1,6.24-1,6.24a4.29,4.29,0,0,1-.65-1.52l-.06,0a4.93,4.93,0,0,1-.57-1.64,26.2,26.2,0,0,1-.27-4.51h0a1.94,1.94,0,0,0-.23-.85,4.1,4.1,0,0,1-.26-.77h0a5.18,5.18,0,0,0-1.49-2.7,8.51,8.51,0,0,1-1-1.44,1.69,1.69,0,0,0-.53.73,7,7,0,0,1,0,2.27c-.07,0-.16-.14-.22-.18.07.68-.25,1.46,0,2.08l-.4,0a.26.26,0,0,0,0,.09.58.58,0,0,0,.2.18l.13.06.41.14a1.19,1.19,0,0,0-.17-1.27c-.19-.23,0-.57.44-.39a5.73,5.73,0,0,1,1.64,1.09c.83.8,1.08,1.56.9,1.71s-.24.1-.41,0a.28.28,0,0,1,0,.09.46.46,0,0,1-.36.31v0a.53.53,0,0,1-.49.16,1.32,1.32,0,0,1-.49-.14,2,2,0,0,1-.17-.12l-.23.19.09.1a1.64,1.64,0,0,1,.39.71,1.3,1.3,0,0,1,0,.17A20.71,20.71,0,0,1,785,70.39a11.37,11.37,0,0,1,.9,1.93,1.61,1.61,0,0,1-.76,0,2.62,2.62,0,0,1,.2,1.08,2.4,2.4,0,0,1-1.22-.27c0,.14,0,.28.07.42.62.4,1.07.78,1.32,1a10.1,10.1,0,0,1-4.92.49l-.44-.06-.09,0s.71,1.68.84,2a6.58,6.58,0,0,0,4.24.66,5.8,5.8,0,0,0,1.07-.29,11.27,11.27,0,0,0,3.41-2.2,13.42,13.42,0,0,0,2.55-3.27c2.2-4.29,2.56-10.65,2.56-13.22V57.21c0-.87-.06-2.16-.09-2.81a25.25,25.25,0,0,1-4.73,3l-.53.31,0-.63a35.58,35.58,0,0,0-2.68-11.83l-1.25,1.65"/><path class="cls-15" d="M774.5,78.44a25.38,25.38,0,0,1,.42-3.38l-.21.16-.16.1h0a.17.17,0,0,1-.06-.08l-1.4,3.41a1.34,1.34,0,0,1,1.44-.2"/><path class="cls-15" d="M779.15,79.2a36.18,36.18,0,0,0-.56-4.6h0l-.18-.07c-.06.14-.11.29-.19.44a1.57,1.57,0,0,1-.37.56,2.79,2.79,0,0,1-.93-1.1,2.67,2.67,0,0,1-.92,1.08,1.68,1.68,0,0,1-.38-.56c-.07-.15-.13-.3-.19-.46,0,0,0,0,0,0a39.59,39.59,0,0,0-.52,4.68c-1.19-.79-1.91,0-1.67.54l.09.13a.77.77,0,0,0,.58.32,3.73,3.73,0,0,1,1.47.33,1.7,1.7,0,0,0,3.33,0,3.73,3.73,0,0,1,1.47-.33.83.83,0,0,0,.58-.32.41.41,0,0,0,.08-.13c.25-.54-.47-1.33-1.66-.54"/><path class="cls-15" d="M761.59,71.71A12.94,12.94,0,0,0,764.08,75a9.65,9.65,0,0,0,3.72,2.17l.32.11a6.6,6.6,0,0,0,5.06-.46l0,0c.11-.32.8-2,.8-2h-.08c-.31.06-.63.11-.94.14a10,10,0,0,1-4.9-.49,18.36,18.36,0,0,1,1.71-1.19c0-.08,0-.17.05-.25a2.24,2.24,0,0,1-1.23.27,2.64,2.64,0,0,1,.21-1.07,1.68,1.68,0,0,1-.76,0,10.6,10.6,0,0,1,.9-1.92A19.19,19.19,0,0,1,770.68,68a.64.64,0,0,1-.06-.28,1.84,1.84,0,0,1,0-.28,1.58,1.58,0,0,1,.39-.71l.12-.13-.23-.19a.74.74,0,0,1-.2.15,1.58,1.58,0,0,1-.49.15.54.54,0,0,1-.48-.17l0,0a.48.48,0,0,1-.36-.31.31.31,0,0,1,0-.1.32.32,0,0,1-.36,0c-.18-.16.06-.92.9-1.71a5.26,5.26,0,0,1,1.65-1.1c.39-.18.62.16.43.39a1.2,1.2,0,0,0-.18,1.28l.37-.13a.66.66,0,0,0,.33-.23.39.39,0,0,0,0-.09l-.34,0c.17-.44-.1-1.51.08-2.21a1,1,0,0,1-.24.14,8.54,8.54,0,0,1-.06-2.12,1.46,1.46,0,0,0-.47-.64,10.2,10.2,0,0,1-.94,1.33,5.11,5.11,0,0,0-1.5,2.7h0a1.17,1.17,0,0,0-.05.2c0,.07,0,.14-.07.21l-.06.14a1.45,1.45,0,0,1-.09.22,2.17,2.17,0,0,0-.23.85h0a25.19,25.19,0,0,1-.26,4.51,5.05,5.05,0,0,1-.58,1.64l0,0a4.16,4.16,0,0,1-.66,1.52s-.34-.72-1-6.23c-.68-6.07-1-12.4-1-12.4h0a9.84,9.84,0,0,1,.48-3.39,11,11,0,0,1,2.1-3.62,1.34,1.34,0,0,1,.57-.37l.2,0h0l-1.29-1.71a35.39,35.39,0,0,0-2.7,11.9l0,.62-.53-.3a25.57,25.57,0,0,1-4.72-3c0,.65-.1,2.79-.1,2.79V58.5c0,2.57.46,8.88,2.56,13.21"/><path class="cls-16" d="M780.93,53c.28.35,0,.88-.29,1.26a11.54,11.54,0,0,1,.29-1.26m-7.23-2.75a14.87,14.87,0,0,1,.89-1.85,1.83,1.83,0,0,0-.89,1.85m5.46,7a2.28,2.28,0,0,0,.57-2.14,4.9,4.9,0,0,0-.57,2.14m1.62-5.74c-.37.08-.24,1.54-.25,1.54s.57-1,.25-1.54m-7.31,2.55c-.21.86.65,1.68.66,1.7a2.72,2.72,0,0,0-.66-1.7m0,1.39a1.77,1.77,0,0,0,.26.91,4.61,4.61,0,0,0,.76,1c-.37-.56-.66-1.59-1-1.87m7-6.16a4.55,4.55,0,0,0,.47,1.52,1.42,1.42,0,0,0-.47-1.52m-7.84,2.05c-.06-.42.46-.81.28-1.5a1.37,1.37,0,0,0-.28,1.5m1.42,1.1a6.08,6.08,0,0,1-.1,1.1,1.34,1.34,0,0,1-.54-.37,4.64,4.64,0,0,0,.85,1.19,3,3,0,0,0-.21-1.92m3.06-8.29c.16.16.67.38,1,.65,0-.44-.42-.68-1-.65m1.56,3.61a1,1,0,0,0-.85-1c-.05.39.61.63.85,1m-3.13-3.85a.47.47,0,0,1,0,.28.44.44,0,0,1-.37.4.45.45,0,0,1-.58-.4.64.64,0,0,1,.05-.24c-.09,0-.09.08-.19.19s-.14.06-.27.15a.75.75,0,0,1,.4-.54,3.26,3.26,0,0,1,2.16.22,5,5,0,0,0-.76,0,4.35,4.35,0,0,0-.48,0m-.14,0s-.27,0-.3,0,.15.13.21.15a.09.09,0,0,0,.1-.06s0-.1,0-.12m1.07.23a1,1,0,0,0,.91.52,1.6,1.6,0,0,0-.91-.52m4,10.57a6.52,6.52,0,0,0-.54,1.85c.13-.11.75-1.59.54-1.85m-2-9.15a1.06,1.06,0,0,0-.78-.55,1.71,1.71,0,0,1,.28.46,2.83,2.83,0,0,1-.47.1,1.08,1.08,0,0,0,1,0m-.07,3.25c-.35.38,0,1.12.18,1.79.18-.32.4-1.43-.18-1.79m1.84,1.71a2.41,2.41,0,0,1-.6,1.26,3.81,3.81,0,0,1-.58-.61,2.54,2.54,0,0,0,.6,1.45,2.26,2.26,0,0,0,.58-2.1m-1-3.16c-.07.41.59,1,.59,1a1,1,0,0,0-.59-1m-1.38-1c.17.17.72.3,1,.58a.73.73,0,0,0-1-.58m9.26,5.16a5.28,5.28,0,0,1-.42,2.13,1.08,1.08,0,0,1-.24-.41,1.24,1.24,0,0,0,.24.94,4.16,4.16,0,0,0,.42-2.66M773,54a4.92,4.92,0,0,0-.43-1.87A3.58,3.58,0,0,0,773,54m11.47,1.67s-.24-.59.31-2.35c-.8,1.8-.7,2.28-.52,2.89a1.13,1.13,0,0,0,.56-.84.92.92,0,0,1-.35.3m-.54-1.53s-.19-.4.3-1.93a3,3,0,0,0-.51,2.47,1.27,1.27,0,0,0,.6-.8.82.82,0,0,1-.39.26m4,1A2.64,2.64,0,0,0,788,53.4a3.31,3.31,0,0,1-.28,1.41.65.65,0,0,1-.17-.17.62.62,0,0,0,.26.5m-.81-1a.72.72,0,0,0,.27.58,3,3,0,0,0,.29-2,4.18,4.18,0,0,1-.34,1.57s-.19-.1-.22-.18m-.18-3.61a5.1,5.1,0,0,1-.67,2.41,1.49,1.49,0,0,1-.25-.53,1.35,1.35,0,0,0,.23,1.06,4.41,4.41,0,0,0,.69-2.94M780,60.63a.73.73,0,0,0-.09-.37,4.44,4.44,0,0,0-.42,1.87c.2-.73.77-.88.92-1.57a.63.63,0,0,0,.36.13,5.14,5.14,0,0,1-.34-1.11,2.42,2.42,0,0,1-.43,1.05m6.42-10.78a5.09,5.09,0,0,1-.8,2.32,2.72,2.72,0,0,1-.11-.94,1.69,1.69,0,0,0,.07,1.52,4.74,4.74,0,0,0,.84-2.9m-1.38,1.33A5,5,0,0,1,785,50a2.38,2.38,0,0,0,0,1.84,4.34,4.34,0,0,0,1-2.69,4.28,4.28,0,0,1-.92,2.06m-7.13,2.76a2.86,2.86,0,0,0,.72-1.89,4.16,4.16,0,0,1-.78,1,3.63,3.63,0,0,1-.65-.6,2.6,2.6,0,0,0,.71,1.51M768,52.17a5.27,5.27,0,0,1-.79-2.32,4.74,4.74,0,0,0,.84,2.9,1.69,1.69,0,0,0,.07-1.52,2.6,2.6,0,0,1-.12.94m1.21,3.5a.92.92,0,0,1-.35-.3,1.13,1.13,0,0,0,.56.84c.18-.61.29-1.09-.52-2.89.55,1.76.31,2.35.31,2.35m-.62-4.49a4.28,4.28,0,0,1-.92-2.06,4.34,4.34,0,0,0,1,2.69,2.38,2.38,0,0,0,0-1.84,5,5,0,0,1,0,1.21m5.22-6.9s-.09.18.08.18.17-.15.17-.15-.18-.07-.25,0m-6.89,9.38a5.28,5.28,0,0,1-.42-2.13,4.16,4.16,0,0,0,.42,2.66,1.24,1.24,0,0,0,.24-.94,1.08,1.08,0,0,1-.24.41m-1,1.15a3.52,3.52,0,0,1-.28-1.41,2.64,2.64,0,0,0,.19,1.74.62.62,0,0,0,.26-.5.65.65,0,0,1-.17.17m.5-.52a4.18,4.18,0,0,1-.34-1.57,3,3,0,0,0,.29,2,.75.75,0,0,0,.27-.58c0,.08-.22.18-.22.18m1.06-1.38a5.3,5.3,0,0,1-.66-2.41,4.41,4.41,0,0,0,.69,2.94,1.35,1.35,0,0,0,.23-1.06s-.12.43-.26.53M774,62.08a4.29,4.29,0,0,0-.42-1.87.73.73,0,0,0-.09.37,2.42,2.42,0,0,1-.43-1,5.14,5.14,0,0,1-.34,1.11.72.72,0,0,0,.36-.13c.15.69.72.84.92,1.57m-4.27-7.94a.82.82,0,0,1-.39-.26,1.27,1.27,0,0,0,.6.8,2.91,2.91,0,0,0-.51-2.47c.49,1.53.3,1.93.3,1.93m8.12,4.25a3.3,3.3,0,0,0,.46-1.78,2.93,2.93,0,0,0-.46,1.78m0,2.34a3.52,3.52,0,0,0,.48-2,3.41,3.41,0,0,0-.48,2M778,55a2.61,2.61,0,0,1-.76,1.23,2.34,2.34,0,0,1-.54-.76,1.64,1.64,0,0,0,.68,1.54,2.55,2.55,0,0,0,.62-2m-.9,6.2a1.64,1.64,0,0,0,0-1.37,1.7,1.7,0,0,0,0,1.37m-.55-1.47a1.9,1.9,0,0,0-.1-1.55,2,2,0,0,0,.1,1.55m16.21,12.34a11.94,11.94,0,0,1-4.61,5,7.5,7.5,0,0,1-6.91.83s.08.19.1.25a1.54,1.54,0,0,1,.1.24c.39,1.05.13,2.14-1.29,2.3a3.62,3.62,0,0,0-1.29.29,3.88,3.88,0,0,0-1.15.86,4.72,4.72,0,0,0-.73,1h0a5.1,5.1,0,0,0-.72-1,3.88,3.88,0,0,0-1.15-.86,3.62,3.62,0,0,0-1.29-.29c-1.42-.16-1.68-1.25-1.29-2.3a2.18,2.18,0,0,1,.09-.23l.11-.26a6.64,6.64,0,0,1-4.58.17L768,78a10.1,10.1,0,0,1-4.4-2.45A13.73,13.73,0,0,1,760.92,72c-2.76-5.72-2.37-14.19-2.38-15.09-.1-9.79,2.07-15.27,3.93-17.93-.56-.74-.9-1.18-.93-1.21a1.82,1.82,0,0,0-1.17-.57,21,21,0,0,0-.66-2.81,15.57,15.57,0,0,0,2.48,1.44,1.75,1.75,0,0,0,.24,1.28l.74,1a10.17,10.17,0,0,1,3.07-2.57c.34-.19.69-.37,1.07-.54a1.85,1.85,0,0,1,.5-1.37,1,1,0,0,1,.58-.79h0a1.22,1.22,0,0,1,1,.28,2.38,2.38,0,0,1,1.39.76,26.4,26.4,0,0,1,3.9-.52,2.27,2.27,0,0,1,1.21-1.52,1.28,1.28,0,0,1,1-.65h0a1.28,1.28,0,0,1,1,.65A2.25,2.25,0,0,1,779,33.37a26.4,26.4,0,0,1,3.9.52,2.38,2.38,0,0,1,1.39-.76,1.22,1.22,0,0,1,1-.28h0a1,1,0,0,1,.57.79,1.85,1.85,0,0,1,.5,1.37,11.86,11.86,0,0,1,1.07.54,11.63,11.63,0,0,1,3.14,2.61c.49-.65.79-1,.81-1.09a1.71,1.71,0,0,0,.24-1.27,16.46,16.46,0,0,0,2.48-1.44,21.7,21.7,0,0,0-.67,2.8,1.86,1.86,0,0,0-1.16.58s-.42.53-1.05,1.37c1.85,2.67,4,8.11,3.89,17.83,0,.78.39,9.42-2.38,15.13m-.88-30.73a8.94,8.94,0,0,1-2.31.23,4.61,4.61,0,0,0-.52,2.32,2.45,2.45,0,0,1-1-.55L787,44.77a36.14,36.14,0,0,1,2.85,12c3.93-2.24,4.5-2.88,4.69-3.17-.29-5.08-1-9-2.63-12.29m-5.35,15a3.88,3.88,0,0,0,.07,1.56,3.88,3.88,0,0,0,.6-1.29,3.64,3.64,0,0,0,.24,1.26,10.34,10.34,0,0,0,.52-2.6s0,0,.19.12a9.09,9.09,0,0,0-.07-3,10.37,10.37,0,0,0-2.17-4.61c-.75-.93-1.38-.51-2,.22-1,1.18-1.23,1.7-2.45,1.94-.12,0,0,.08.21.08,1.46,0,1.92-1.06,2.36-1.58.29-.34.66-.65,1-.46.12.07.52.57.11,1.79a1.11,1.11,0,0,0-.15-.58,7.91,7.91,0,0,1-.75,2,3.92,3.92,0,0,1-.1-.43c-.14,1-1,2-1.09,3.42a.93.93,0,0,1-.17-.62c-.62,1.24-1.27,3.44-.87,4.55a7.49,7.49,0,0,1,1-3.26c-.43,1.45-.93,3.24-.5,4.32a8.71,8.71,0,0,1,.88-3.06c-.59,2.38-.83,3.59-.17,4.51a7.37,7.37,0,0,1,.69-3.35c-.31,1.86-.75,3.48.06,4.29a8.57,8.57,0,0,1,.56-3.4c-.27,1.75-.5,3.45,0,4.33a9.11,9.11,0,0,1,.09-.95,15.16,15.16,0,0,1,.49-2.38s-.17,1.25-.26,2.78a4.45,4.45,0,0,0,.33,2.46,25.55,25.55,0,0,1,.61-4.58s-.21,1.9-.35,4.79c-.22,4.41.33,5.8.5,6.21a2.24,2.24,0,0,1,0-.62,4.26,4.26,0,0,1,0-.93,6.62,6.62,0,0,1-.3-1.94,47,47,0,0,1,.81-7.06c0,.52-.54,6.73-.51,7.52a5.25,5.25,0,0,0,.26,1.33,6.33,6.33,0,0,0,.37,2.89s.16-.58.28-1.31a.25.25,0,0,1-.15.15,5.54,5.54,0,0,1-.16-2.4,4.3,4.3,0,0,1-.2-1.15,57,57,0,0,1,.79-6.72c0,.14-.49,6.26-.5,6.65a4,4,0,0,0,.18,1.19,8.69,8.69,0,0,0,0,1.91,4.5,4.5,0,0,0,.11-.67s.49-3.73.83-8c.18-2.09.39-4.7.46-5.85l-.05,0a8.9,8.9,0,0,1-.74,3,2.89,2.89,0,0,1-.32-1.26,3.81,3.81,0,0,1-.63,1,3.13,3.13,0,0,1-.16-1.17,1.6,1.6,0,0,1-.57.61,2.62,2.62,0,0,1-.22-1.27,1.6,1.6,0,0,1-.51.49c-.07-.17-.44-.8.23-3.12-.27,2.15-.1,2.39-.05,2.57a1.66,1.66,0,0,0,.35-.25c0-.39.09-.88.2-1.51a6.28,6.28,0,0,0,.15,2.57,2.77,2.77,0,0,0,.68-1.17m-5.43,3.37a.07.07,0,0,1,0-.05v0h0a.33.33,0,0,1,.16.07,1.28,1.28,0,0,0,.15.1,2.64,2.64,0,0,1-.13-.84,4.82,4.82,0,0,0-.14-1.06h0v0a1.66,1.66,0,0,1-.3.48,1.7,1.7,0,0,0-.4.79l0,.06,0,0a1.46,1.46,0,0,1-.2-.22l0-.08h0l0,0A7.37,7.37,0,0,1,779,60.67h0a4,4,0,0,0-.48,1.74,7.51,7.51,0,0,0,0,1.85l.31-.34a5.58,5.58,0,0,1,0,.69,2,2,0,0,1-.12.51,1.22,1.22,0,0,0,1.07-.46l.08.22c.07.22.13.48,0,.61s-.32.28-.28.53a.34.34,0,0,0,.17.24h0a.31.31,0,0,0,.19.25.43.43,0,0,1,0-.23.31.31,0,0,1,.27-.22.35.35,0,0,1,.12,0h0v0s.07.68.13,1,.12.58.16.94a1.94,1.94,0,0,0,0,.24c0,.24.17.26.29.28a1.53,1.53,0,0,0,.3,0h0c-.18,0-.17.12-.16.15a.78.78,0,0,1,0,.45l0,0a.54.54,0,0,0,.24-.62v0h0c.2-.12.15-.54-.14-1.17-.14-.29-.2-.79-.11-.84h0s.1,0,.24.2l.32.42a.61.61,0,0,1,.19.4s0,.08,0,.09a.12.12,0,0,1-.09,0,.59.59,0,0,1-.19,0c.06.07.31.36.39.27s0,.13.35.17a.36.36,0,0,0,.37-.4,1.64,1.64,0,0,0,0-.23,1.23,1.23,0,0,0-.33-.58l-.07-.08c-.56-.61-.51-.74-.47-.8s.1-.13.25-.13.45,0,.46,0c.23,0,.6.1.58.22s0,0-.06.06-.2.08-.22,0a.59.59,0,0,0,.21.15c.09,0,.47.15.59,0l0-.08c.07,0,.25,0,.29-.15s-.12-.29-.28-.37a7,7,0,0,0-.82-.31c-.12,0-.28-.06-.4-.1l-.67-.17s-.36-.12-.49-.18l-.15-.07a.78.78,0,0,1-.28-.24,3.21,3.21,0,0,1-.22-.67,1.45,1.45,0,0,0,.52.22,5.35,5.35,0,0,1,0-.6c.11-1.11.13-1.74.13-1.74l.22.23a6.35,6.35,0,0,0-.07-1.11,9.75,9.75,0,0,0-.21-1.29m.79,5.25.52.13a1.49,1.49,0,0,0,.25.07,2.24,2.24,0,0,0,.12-.76c0-.28.64.32,1.08.76.18.18.21.1.11,0a6.39,6.39,0,0,0-1.54-1.32c-.42-.26-.63-.19-.49,0a1.27,1.27,0,0,1-.05,1.12m.57,4.29c.47.56,1.21,1.61,1.49,1.89a1.72,1.72,0,0,0,1.34.71,7.84,7.84,0,0,0-1-1.9c-.36-.56-1-1.36-1.47-2a.16.16,0,0,1,0,.07.49.49,0,0,1-.18.2.55.55,0,0,1-.38.1.51.51,0,0,1-.32-.15.43.43,0,0,1-.24-.06.64.64,0,0,1-.13.53.93.93,0,0,1-.25.65l0,0c.16.29.1.44,0,.53s-.85.94-1,1.1a.33.33,0,0,1-.43,0l-.13-.1-.36.36,0,0h0a3.31,3.31,0,0,0,.88.54c.32.13.93.35,1.57.62h0a12.25,12.25,0,0,1-.52-1.47c.18.25.69,1.12,1,1.68h0l.67.33.64.34a2.37,2.37,0,0,0-.1-.48,8.4,8.4,0,0,1-.66-.75,7.85,7.85,0,0,1-1.06-2c.61.88.77,1.13,1,1.44a3.46,3.46,0,0,0,1.92,1.43c-.12-.55-.32-.67-.32-.67a5.88,5.88,0,0,1-.81-.86,9.59,9.59,0,0,1-1.18-2.1m-2,5.34a12.87,12.87,0,0,0,4.3-.22,17.44,17.44,0,0,0-3.71-1.94,7.51,7.51,0,0,1-1.34-.64,5.57,5.57,0,0,1-.61-.5c-.68-.62-2.46-2.47-2.77-2.82l-1.19,1.09a44.31,44.31,0,0,0,3.92,3.49,24.27,24.27,0,0,0,3.89,1.2,15.4,15.4,0,0,1-3.89-.85c-1-.41-4.21-3.57-4.21-3.57l-.78.72a22.84,22.84,0,0,0,2.65,2.53,6.92,6.92,0,0,0,3.74,1.51m-2.73-.35c-.2-.1-.39-.22-.59-.34h0l.17.36a2.31,2.31,0,0,0,.44.63l0-.09c.06-.13.12-.29.18-.45l-.24-.11M772.05,70A7.82,7.82,0,0,1,771,72a6,6,0,0,1-.66.75,2.56,2.56,0,0,0-.07.32l.23-.11a10.28,10.28,0,0,1,1.16-.54c.34-.57.81-1.35,1-1.59a10.34,10.34,0,0,1-.5,1.4c.53-.21,1-.38,1.21-.48a2.93,2.93,0,0,0,.68-.42l.16-.13-.38-.38-.13.1a.31.31,0,0,1-.43,0c-.17-.16-1-1-1-1.1s-.17-.25,0-.52v0a.9.9,0,0,1-.27-.67.67.67,0,0,1-.13-.53.41.41,0,0,1-.24.06.48.48,0,0,1-.32.15h0a.55.55,0,0,1-.34-.11c-.45.58-.94,1.23-1.25,1.7a8.24,8.24,0,0,0-1,1.9c.47,0,.73-.1,1.35-.71.28-.28,1-1.34,1.49-1.9a10.49,10.49,0,0,1-1.18,2.1,5.07,5.07,0,0,1-.82.86s-.2.13-.31.68A3.47,3.47,0,0,0,771,71.41c.24-.31.4-.56,1-1.44m-.76-3.18-.07.08a1.32,1.32,0,0,0-.32.58.85.85,0,0,0,0,.23c0,.26.16.41.38.4s.15-.39.34-.17.33-.2.4-.27a.66.66,0,0,1-.2,0s-.07,0-.08,0,0-.05,0-.09a.67.67,0,0,1,.19-.4c.13-.16.22-.28.32-.42s.19-.21.24-.2h0a1.22,1.22,0,0,1-.1.84c-.3.63-.35,1.05-.14,1.17h0v0a.54.54,0,0,0,.24.62l0,0a.72.72,0,0,1,0-.45s0-.1-.16-.15h0a1.41,1.41,0,0,0,.29,0c.12,0,.26,0,.29-.28l0-.24a8.1,8.1,0,0,1,.15-.94c.06-.28.13-1,.13-1v0h0a.38.38,0,0,1,.13,0,.3.3,0,0,1,.26.22.4.4,0,0,1,0,.23.3.3,0,0,0,.18-.25h0A.34.34,0,0,0,774,66c0-.25-.25-.51-.28-.53s-.11-.39,0-.61l.1-.27a1.07,1.07,0,0,0,.34.29,1.16,1.16,0,0,0,.81.22,2,2,0,0,1-.12-.51,5.58,5.58,0,0,1,0-.69l.31.34a5,5,0,0,0,.06-1.75,6.72,6.72,0,0,0-.48-2,3.52,3.52,0,0,0-.26-.59.72.72,0,0,1-.24.35,4.9,4.9,0,0,1-.82-1.38,1.42,1.42,0,0,1-.25.32l-.05,0v-.06a1.71,1.71,0,0,0-.41-.79,1.91,1.91,0,0,1-.3-.48,4.29,4.29,0,0,0-.14,1.06,2.36,2.36,0,0,1-.14.84l.16-.1a.35.35,0,0,1,.15-.07h0s0,0,0,0a12,12,0,0,0-.22,1.29,4.44,4.44,0,0,0,0,1.05s.34-.2.34-.2a5.14,5.14,0,0,0-.1,1.77,2.83,2.83,0,0,1,0,.6,1.35,1.35,0,0,0,.49-.19,3.59,3.59,0,0,1-.23.66.71.71,0,0,1-.28.24l-.15.07c-.13.06-.48.17-.49.18l-.67.17c-.12,0-.24.06-.37.09a5.69,5.69,0,0,0-.85.32c-.16.08-.32.25-.28.37s.22.15.29.15l0,.08c.12.18.5.07.59,0a.59.59,0,0,0,.21-.15s-.14,0-.22,0-.06,0-.06-.06.36-.18.58-.22c0,0,.25,0,.47,0a.23.23,0,0,1,.25.13c0,.06.08.19-.48.8m.27-3c.15-.23-.06-.29-.48,0a6.21,6.21,0,0,0-1.54,1.32c-.11.14-.07.22.11,0,.43-.44,1.09-1,1.08-.76a2,2,0,0,0,.12.76l.2,0,.57-.15a1.34,1.34,0,0,1-.06-1.13m-.87-9a7.49,7.49,0,0,1,1,3.26c.4-1.11-.25-3.31-.87-4.55a1,1,0,0,1-.17.62c-.12-1.41-1-2.44-1.09-3.42,0,.17-.06.29-.09.43a7.54,7.54,0,0,1-.76-2,1.11,1.11,0,0,0-.15.58c-.41-1.22,0-1.72.11-1.79.31-.19.68.12,1,.46A2.85,2.85,0,0,0,772,50c.24,0,.34-.06.21-.08-1.22-.24-1.43-.76-2.45-1.94-.63-.73-1.26-1.15-2-.22a10.19,10.19,0,0,0-2.18,4.61,9.09,9.09,0,0,0-.07,3c.18-.07.19-.12.19-.12a10.34,10.34,0,0,0,.52,2.6,3.64,3.64,0,0,0,.24-1.26,3.88,3.88,0,0,0,.6,1.29,3.88,3.88,0,0,0,.07-1.56,2.89,2.89,0,0,0,.68,1.17,6.49,6.49,0,0,0,.15-2.57,13.21,13.21,0,0,1,.2,1.51,2,2,0,0,0,.35.25c.06-.18.22-.42-.05-2.57.67,2.32.3,2.95.23,3.12a1.5,1.5,0,0,1-.51-.49,2.62,2.62,0,0,1-.22,1.27,1.6,1.6,0,0,1-.57-.61,3.28,3.28,0,0,1-.15,1.17,3.56,3.56,0,0,1-.63-1,3.2,3.2,0,0,1-.32,1.26,8.74,8.74,0,0,1-.75-3l0,0c.06,1.15.29,3.76.46,5.85.35,4.25.83,8,.83,8a4.5,4.5,0,0,0,.11.67,8.69,8.69,0,0,0,0-1.91,4,4,0,0,0,.18-1.19c0-.39-.53-6.51-.51-6.65a52.87,52.87,0,0,1,.8,6.72,3.89,3.89,0,0,1-.2,1.15,5.54,5.54,0,0,1-.16,2.4.28.28,0,0,1-.15-.15c.12.73.27,1.31.27,1.31a6.15,6.15,0,0,0,.38-2.89,5.82,5.82,0,0,0,.26-1.33c0-.79-.47-7-.5-7.52a48.68,48.68,0,0,1,.8,7.06,6.62,6.62,0,0,1-.3,1.94,4.26,4.26,0,0,1,0,.93,2.24,2.24,0,0,1,0,.62c.17-.41.72-1.8.51-6.21-.15-2.89-.37-4.79-.37-4.79a25.11,25.11,0,0,1,.63,4.58,4.59,4.59,0,0,0,.32-2.46c-.09-1.53-.26-2.78-.26-2.78a15.16,15.16,0,0,1,.49,2.38,9.11,9.11,0,0,1,.09.95c.5-.88.27-2.58,0-4.33a8.78,8.78,0,0,1,.55,3.4c.81-.81.37-2.43.06-4.29a7.37,7.37,0,0,1,.69,3.35c.67-.92.42-2.13-.17-4.51a8.71,8.71,0,0,1,.88,3.06c.43-1.08-.07-2.87-.5-4.32m16-11.5a11.53,11.53,0,0,0-8.14-3c-.25,0-.54.23-.22.64a1.9,1.9,0,0,1-1.45-.28,1.93,1.93,0,0,1-1.46.28c.32-.41,0-.62-.22-.64-1.09-.08-5.46.35-8.1,2.92l4.56,6a.55.55,0,0,0,.39.17h.07a.68.68,0,0,0,.47-.29c.31-.34.47-.53.78-.85.59-.61,1.16-1.07,1.25-1.16a.8.8,0,0,0,.34-.61c0-.22-.18-.31-.29-.44l-.06.08a1.5,1.5,0,0,1-.2-.42l-.06.16s-.23-.54-.58-.49a1.33,1.33,0,0,1-.84-.16s0,.16,0,.35h0a1,1,0,0,1,.2-1.48,3.48,3.48,0,0,1,.77-.43.76.76,0,0,0,.26-.22,1.77,1.77,0,0,1,.85-.45,6.21,6.21,0,0,1,1.7-.14,3.94,3.94,0,0,1,1,.22,3.89,3.89,0,0,1,1.14,1,9.73,9.73,0,0,1,.81,1.62c.44,1.08.39,1,.69,1.68a8.15,8.15,0,0,0,.88,1.74.53.53,0,0,0,.46.23.81.81,0,0,0,.48-.11.52.52,0,0,0,.2-.19c1-1.47,2.91-3.85,4.33-5.73m-8,17.23a2.79,2.79,0,0,0,.52-1.57.79.79,0,0,1,.25.35,8.71,8.71,0,0,0,.79-2.48c.16.07,0,0,.2.13a8.23,8.23,0,0,0,.53-2.44c.06,0,.16,0,.21.07.08-.58.17-1.52.19-2.18a7.45,7.45,0,0,0-.23-2.39,6.72,6.72,0,0,0-.74-1.64.73.73,0,0,0-.21.16,14.13,14.13,0,0,0-.54-1.38c-.37-.72-.54-1.18-.93-1.42a3,3,0,0,0,.46,0,6,6,0,0,0-.62-.61c.09-.06.25-.06.52,0-.38-.35-.51-.87-1.48-1.24.17,0,.31,0,.54,0a1.68,1.68,0,0,0-.9-.65c-1-.19-2.37-.22-3,.53,0,.06-.22.1-.37.15a.54.54,0,0,0-.18.09c-.12.09-.14.2.08.5-.28,0-.35-.31-.4-.28a1,1,0,0,0-.3.3,1.12,1.12,0,0,0-.15.56.19.19,0,0,0,.31-.14c0-.1.45-.14.6-.14s.42.06.69,0c-.09,0-.4.13-.51.16s-.13.16,0,.17.18,0,.31-.07,0,.17,0,.25c.8-.18.86.68,1.71.51-.4-.31-.74-.84-1-1,.83.13,1.29.89,2.2.93a1.09,1.09,0,0,0-.11-.24c.31,0,.53.24.63.23a1.37,1.37,0,0,1-.73.27c.06.12.4.14.52.16a.83.83,0,0,1-.81.17,3.59,3.59,0,0,1-.91.76,2.66,2.66,0,0,1,0-.28c-.39.23-.65.64-.94.76a5.47,5.47,0,0,0,.22-.53,13.31,13.31,0,0,0-2.37,2.49,5,5,0,0,0-.49,2.8c0,.68.33,2.62.38,3a1.2,1.2,0,0,1,.21-.09,16.4,16.4,0,0,0,1.37,4.06.59.59,0,0,1,.22-.3,2,2,0,0,0,.58,1.09,1.05,1.05,0,0,1,.13-.5c.08.28,0,1.13.52,1.6a2.62,2.62,0,0,1,.13-.75,6.26,6.26,0,0,0,.23.9,1.72,1.72,0,0,0,.53.73,3.17,3.17,0,0,1,.1-.92,2.56,2.56,0,0,1,.39,1.15c.5-.38.69-1.63.69-1.63a1.06,1.06,0,0,1,.25.47,3.29,3.29,0,0,0,.7-1.5,3,3,0,0,1,0,.78m.49,6.64a6.9,6.9,0,0,0,1,0,.81.81,0,0,1,0-.19.59.59,0,0,1,0-.14h0A2.54,2.54,0,0,1,779,67l-.46-.12c-.18,0-.47.24-.7.48l-.55.61s0,0,0,.06l2.83,2.59s.06,0,.12,0l.43-.45-2.48-2.33s0-.09,0-.11l.15-.15s.07,0,.11,0,.8.75.8.75l1,.93.66.59.11-.11c.1-.11.07-.18-.26-.5-.1-.09-1.71-1.71-1.71-1.71-.17-.19,0-.25.14-.25m-3.8.52-2.48,2.33.43.45s.08,0,.12,0L776.27,68a0,0,0,0,0,0-.07l-.56-.61c-.22-.23-.51-.53-.69-.48l-.46.12a2.59,2.59,0,0,1-1.14-.08h0c0,.06,0,.11,0,.17a1.24,1.24,0,0,1,0,.16,5.7,5.7,0,0,0,1,0c.19,0,.32.06.15.25l-1.71,1.71c-.34.32-.36.4-.26.51l.11.1.66-.59,1.05-.93s.77-.71.8-.75a.08.08,0,0,1,.11,0l.14.15a.08.08,0,0,1,0,.11m.24-5.77a.85.85,0,0,0-.09-.33,2.8,2.8,0,0,0-.29-.32.35.35,0,0,1-.08-.12,1.83,1.83,0,0,0,.05.4.49.49,0,0,0,.22.28.53.53,0,0,0,.19.09m0,4.69.22.21a6.18,6.18,0,0,0,.11-1.17,3,3,0,0,0-.33,1m-1-.05.45-.18.1,0a5.9,5.9,0,0,1,.27-.81,5.89,5.89,0,0,0-.82,1m1.82.9c0-.34,0-.7,0-.86a1.49,1.49,0,0,0-.22.58l.27.28m.16-2.21a.79.79,0,0,0-.38-.57,1,1,0,0,0,.38.57m.25-.71h0a.73.73,0,0,1,.22-.24,7.39,7.39,0,0,0,1-.68,1.37,1.37,0,0,0,.18-.44,1.16,1.16,0,0,1-.4.36,3.57,3.57,0,0,0-.87.64.4.4,0,0,0-.07.21.58.58,0,0,0-.05-.16c-.17-.35-.67-.49-1-.84s-.2-.31-.2-.31a.78.78,0,0,0,.14.53,2.83,2.83,0,0,0,.66.55,1.09,1.09,0,0,1,.41.38m-.33-1.25c0-.54-.6-.61-.74-1.15-.07.76.47.78.74,1.15m.28,2.19a1.53,1.53,0,0,0,.25-.14.79.79,0,0,0,.36-.34.56.56,0,0,0,.06-.38.73.73,0,0,1-.24.33,3.57,3.57,0,0,0-.27.28,1.07,1.07,0,0,0-.16.25m.53.32c0,.33.1,1.1.11,1.35h0l.27-.28a2.6,2.6,0,0,0-.38-1.06m-.49,2s.2-.24.29-.33a0,0,0,0,1,0,0,3.51,3.51,0,0,0-.3-1.15c0,.2,0,.94,0,1.5m0,.23c0,.18,0,.33,0,.4l.19-.21a2.68,2.68,0,0,1-.2-.19m.13.65c.34.36.8.84,1.1,1.14l.32-.31-1.18-1.09-.24.26m1.39,1.42.77.76a4.57,4.57,0,0,0,.33-.36l-.77-.72-.33.32m.24-3.66a6.92,6.92,0,0,0-.74-.85,7.3,7.3,0,0,1,.31.85h0l.05,0a.24.24,0,0,1,.15,0l.16,0,.07,0m-.29-4.45a2.31,2.31,0,0,1-.47.55,1.56,1.56,0,0,0,.07-.38,2.69,2.69,0,0,1-.45.6,1.41,1.41,0,0,0-.42.69,2,2,0,0,1,.52-.37,1.78,1.78,0,0,0,.75-1.09m-5.52-4.79a1.62,1.62,0,0,0,.71,1.26,4.27,4.27,0,0,0-.71-1.26m14.11-14.18c.11-.13.2-.26.3-.39a12.68,12.68,0,0,0-5.45-2.83,15,15,0,0,0-3.36-.33c-.6,0-1,.24-1,.62-.38-.07-.48-.54-.52-.63,0,.2-.22.58-.52.63,0-.38-.39-.61-1-.62a14.94,14.94,0,0,0-3.36.33,12.13,12.13,0,0,0-5.43,2.75l.29.39a11.16,11.16,0,0,1,4.47-2.5,14.13,14.13,0,0,1,3.92-.52c.71,0,.81.43.73.65a1.19,1.19,0,0,0,.89-.43,1.14,1.14,0,0,0,.89.43c-.09-.22,0-.62.72-.65a14.09,14.09,0,0,1,3.92.52,11.73,11.73,0,0,1,4.49,2.58m.8-1.43a2.77,2.77,0,0,0,.74,1.44,1.37,1.37,0,0,0,.2.13h0a4.3,4.3,0,0,1,.59-2.1h0a4.35,4.35,0,0,0,1.83,0c-.93-.62-.73-1.33-1.42-2.1a3.13,3.13,0,0,0-.26-.25,1,1,0,0,0-.56-.24.36.36,0,0,0-.32.14c-.09.1-1.07,1.14-1.7,1.86.57,0,.72.51.89,1.12m.64-3.46a10.23,10.23,0,0,0-2.93-1.9,22.83,22.83,0,0,0-8.53-1.43h0a22.89,22.89,0,0,0-8.53,1.43,10.23,10.23,0,0,0-2.93,1.9s1.47,1.65,1.85,2.09a.71.71,0,0,1,.15.78c2.25-1.51,4.81-2.26,9.38-2.29h.2c4.49,0,7.12.8,9.35,2.29a.71.71,0,0,1,.15-.78c.38-.44,1.85-2.09,1.85-2.09m-23.09.48h0c-.09-.1-.32-.3-.89.1-1,.87-.68,1.66-1.72,2.35a4.87,4.87,0,0,0,.92.09l.44,0,.48-.07h0a4.3,4.3,0,0,1,.58,2.1c1.21-.64.72-2.71,1.85-2.69l-1.66-1.86m.78,4.17,1.69,2.25c.31.42,1.37,1.7,1.36,1.53A14.05,14.05,0,0,0,768,45.08l-1.83-2.46-.16.23m4.52,7.82a8.92,8.92,0,0,0,.43,2.47,5,5,0,0,0-.43-2.47m-.55-.94A3.61,3.61,0,0,0,770,51a5,5,0,0,0,.26.71,5.25,5.25,0,0,0-.29-1.94M772.06,57c.14-.46.3-3.41-.8-4.68a23.92,23.92,0,0,1,.8,4.68m-3.3,17.35a12.89,12.89,0,0,0,4.3.22,7.23,7.23,0,0,0,3.39-1.23c-.24-.2-.52-.47-.82-.75a6.42,6.42,0,0,1-1.16.79,15.29,15.29,0,0,1-3.9.84,23,23,0,0,0,3.89-1.2,5.89,5.89,0,0,0,.91-.68c-.38-.36-.74-.72-1-1a5.52,5.52,0,0,1-.53.43,7.86,7.86,0,0,1-1.34.64,17.42,17.42,0,0,0-3.72,1.94m7-.14a2.61,2.61,0,0,0,.11.3s.14.29.15.32a2.59,2.59,0,0,0,.43-.61l.29-.61h0l-.27.19c-.12.09-.25.17-.38.25s-.25.13-.29.15l0,0M781.55,57a24.71,24.71,0,0,1,.8-4.68c-1.1,1.27-.94,4.22-.8,4.68m.26-4.91c.35-1,.06-1.57-.15-1.67,0,.48.13.7.15,1.67m.89,1a8.87,8.87,0,0,0,.42-2.47,5,5,0,0,0-.42,2.47m.68-1.47a4,4,0,0,0,.26-.71,3.37,3.37,0,0,0,0-1.23,5.22,5.22,0,0,0-.3,1.94M786.16,45l1.57-2.09a1.12,1.12,0,0,1-.16-.22L785.86,45a13.86,13.86,0,0,0-1.06,1.56A8.84,8.84,0,0,0,786.16,45m4.77-5.46-.3.39a2.82,2.82,0,0,0,1.26,1.33,19.31,19.31,0,0,0-1-1.72m-.68-.4s.11.2.14.24l3.22-4.28A10.84,10.84,0,0,1,792,36a2,2,0,0,1-.35,1.29l-1.42,1.86m-21.66-5.85h0a.61.61,0,0,0-.28.51,1.3,1.3,0,0,0-.33,1.39,11.2,11.2,0,0,0-4.5,3.31l.25.33a11,11,0,0,1,4.94-3.51,1,1,0,0,1,.2-1.34h0a1.17,1.17,0,0,1,1.14.91,24.27,24.27,0,0,1,5.52-.76,1.86,1.86,0,0,1,1.09-1.78.48.48,0,0,1,.23-.37h0a.47.47,0,0,1,.24.37,1.87,1.87,0,0,1,1.09,1.78,24.18,24.18,0,0,1,5.51.76,1.18,1.18,0,0,1,1.15-.91h0a1,1,0,0,1,.2,1.34,11.29,11.29,0,0,1,5,3.56l.26-.35a11.76,11.76,0,0,0-4.57-3.34,1.29,1.29,0,0,0-.33-1.39.56.56,0,0,0-.28-.5h0a.76.76,0,0,0-.59.24,1.62,1.62,0,0,0-1.27.87,25.74,25.74,0,0,0-4.64-.62,2,2,0,0,0-1.16-1.7.9.9,0,0,0-.61-.52.88.88,0,0,0-.61.52,1.93,1.93,0,0,0-1.16,1.7,25.49,25.49,0,0,0-4.64.62,1.64,1.64,0,0,0-1.28-.87.76.76,0,0,0-.59-.24m-5.21,6a1.72,1.72,0,0,1,.14-.22c-.76-1-1.28-1.67-1.33-1.73a2,2,0,0,1-.34-1.29,11.4,11.4,0,0,1-1.59-.9l3.12,4.14m-1.57,2a3.41,3.41,0,0,0,.92-.81,5,5,0,0,0,.36-.6l-.32-.41a19.69,19.69,0,0,0-1,1.82m-2.64,12.27c.19.28.76.92,4.69,3.16a36.48,36.48,0,0,1,2.87-12.09l-1-1.36a2.36,2.36,0,0,1-1,.59,4.71,4.71,0,0,0-.52-2.32,9.22,9.22,0,0,1-2.35-.22c-1.54,3.31-2.33,7.17-2.62,12.24m14,23.27,0,0c.11-.32.8-2,.8-2h-.08c-.31.06-.63.1-.94.14a9.78,9.78,0,0,1-4.9-.5,19.46,19.46,0,0,1,1.71-1.18,2.21,2.21,0,0,1,.05-.25,2.24,2.24,0,0,1-1.23.27,2.82,2.82,0,0,1,.21-1.07,1.68,1.68,0,0,1-.76,0,10.6,10.6,0,0,1,.9-1.92A19.19,19.19,0,0,1,770.68,68a.82.82,0,0,1-.06-.28,1.84,1.84,0,0,1,0-.28,1.58,1.58,0,0,1,.39-.71l.12-.13-.23-.19a.74.74,0,0,1-.2.15,1.58,1.58,0,0,1-.49.15.54.54,0,0,1-.48-.17l0,0a.5.5,0,0,1-.36-.31.31.31,0,0,1,0-.1.32.32,0,0,1-.36,0c-.18-.16.06-.92.9-1.71a5.37,5.37,0,0,1,1.65-1.1c.39-.18.62.16.43.39a1.22,1.22,0,0,0-.18,1.28l.37-.13a.62.62,0,0,0,.33-.23.39.39,0,0,0,0-.09l-.35,0c.18-.44-.09-1.51.09-2.21a1,1,0,0,1-.24.14,8.54,8.54,0,0,1-.06-2.12,1.46,1.46,0,0,0-.47-.64,11.3,11.3,0,0,1-.94,1.33,5.11,5.11,0,0,0-1.5,2.7h0c0,.06,0,.13-.05.2h0a1.72,1.72,0,0,0-.07.21l-.06.14a1,1,0,0,1-.09.22,2,2,0,0,0-.22.85h0a25.19,25.19,0,0,1-.26,4.51,5.05,5.05,0,0,1-.58,1.64l0,0a4.16,4.16,0,0,1-.66,1.52s-.34-.72-1-6.23c-.67-6.07-1-12.4-1-12.4h0a9.84,9.84,0,0,1,.48-3.39,11,11,0,0,1,2.1-3.62,1.34,1.34,0,0,1,.57-.37l.19,0h0l-1.29-1.71a35.39,35.39,0,0,0-2.7,11.9l0,.62-.53-.3a25.57,25.57,0,0,1-4.72-3c0,.65-.1,2.79-.1,2.79V58.5c0,2.57.46,8.88,2.56,13.21A12.94,12.94,0,0,0,764.08,75a9.65,9.65,0,0,0,3.72,2.17l.32.11a6.64,6.64,0,0,0,5.06-.45m-.12,1.78a1.36,1.36,0,0,1,1.44-.2,25.38,25.38,0,0,1,.42-3.38l-.21.16-.16.1h0a.17.17,0,0,1-.06-.08c-.23.53-1.39,3.39-1.4,3.41m6.09.56a36.18,36.18,0,0,0-.56-4.6h0l-.19-.07a2.78,2.78,0,0,1-.19.44,1.72,1.72,0,0,1-.37.56,2.79,2.79,0,0,1-.93-1.1,2.67,2.67,0,0,1-.92,1.08,1.68,1.68,0,0,1-.38-.56,3.66,3.66,0,0,1-.18-.46l0,0a39.59,39.59,0,0,0-.52,4.68c-1.19-.79-1.91,0-1.67.54l.08.13a.78.78,0,0,0,.6.32,3.72,3.72,0,0,1,1.46.33A4.56,4.56,0,0,1,777,81.89a4.66,4.66,0,0,1,1.67-1.37,3.68,3.68,0,0,1,1.46-.33.78.78,0,0,0,.59-.32.41.41,0,0,0,.08-.13c.25-.54-.47-1.33-1.66-.54m1.82-.56s-1.25-3.07-1.39-3.4h0a.15.15,0,0,1-.05.06h0A1.68,1.68,0,0,1,779,75a19.46,19.46,0,0,1,.49,3.46,1.36,1.36,0,0,1,1.44.2m13.71-21.43c0-.87-.06-2.16-.1-2.81a24.64,24.64,0,0,1-4.72,3l-.53.31,0-.63a35.58,35.58,0,0,0-2.68-11.83l-1.25,1.65h0l.1,0a1.47,1.47,0,0,1,.53.36,12,12,0,0,1,2.1,3.62,10.38,10.38,0,0,1,.47,3.39h0s-.34,6.34-1,12.41c-.62,5.51-1,6.23-1,6.23a4.12,4.12,0,0,1-.65-1.52l-.06,0a4.93,4.93,0,0,1-.57-1.64,26.2,26.2,0,0,1-.27-4.51h0a1.94,1.94,0,0,0-.23-.85,4.1,4.1,0,0,1-.26-.77h0a5.17,5.17,0,0,0-1.51-2.7,8.94,8.94,0,0,1-1-1.44,1.69,1.69,0,0,0-.53.73,7,7,0,0,1,0,2.27l-.22-.18c.07.68-.25,1.46,0,2.08l-.4,0,.05.1a.67.67,0,0,0,.2.17l.13.06.42.15a1.22,1.22,0,0,0-.18-1.28c-.19-.23,0-.57.43-.39a5.63,5.63,0,0,1,1.65,1.09c.83.8,1.08,1.56.9,1.71s-.24.1-.41,0a.28.28,0,0,1,0,.09.48.48,0,0,1-.36.31l0,0a.54.54,0,0,1-.48.17,1.47,1.47,0,0,1-.49-.15,2,2,0,0,1-.17-.12l-.23.19.09.1a1.64,1.64,0,0,1,.39.71,1.3,1.3,0,0,1,0,.17A21.58,21.58,0,0,1,785,70.39a11.37,11.37,0,0,1,.9,1.93,1.61,1.61,0,0,1-.76,0,2.62,2.62,0,0,1,.2,1.08,2.4,2.4,0,0,1-1.22-.27c0,.14,0,.28.07.42.61.4,1.07.78,1.31,1a10.06,10.06,0,0,1-4.91.49l-.44-.06-.09,0s.71,1.68.84,2a6.56,6.56,0,0,0,4.23.66,5.73,5.73,0,0,0,1.08-.29,11.07,11.07,0,0,0,3.41-2.2,13.42,13.42,0,0,0,2.55-3.27c2.2-4.29,2.56-10.65,2.56-13.22V57.21M778.9,55.44a2.88,2.88,0,0,0,.86-1.91,1.86,1.86,0,0,1-.86,1,1.26,1.26,0,0,1-.48-.67,1.79,1.79,0,0,0,.48,1.57m-1.77-6.95a.84.84,0,0,0-.2,1s.64-.69.2-1m-.19,1.95a1.7,1.7,0,0,0,0,1.79s.4-1.22,0-1.79m-1.4-1.26a1.07,1.07,0,0,0-.3,1.58,5.55,5.55,0,0,0,.3-1.58m.21,8a2.53,2.53,0,0,1-.79-.81A3.57,3.57,0,0,0,776,58a2.75,2.75,0,0,0,.15-2.16,4.31,4.31,0,0,1-.42,1.34m-.64-6c-.58.72.31,1.62.31,1.64s.07-1.37-.31-1.64M776,55a2.71,2.71,0,0,0,.35-2,1.63,1.63,0,0,1-.56,1.11,1.29,1.29,0,0,1-.5-.62A1.8,1.8,0,0,0,776,55m-.44,4.84a4.66,4.66,0,0,0-.6-1.61,1.88,1.88,0,0,0,.6,1.61M786.36,37.4a1.28,1.28,0,0,1-.61-.28c.11-.09.27,0,.35.1l.16-.14a.54.54,0,0,0-.79.14,1,1,0,0,1,.24.14,1.26,1.26,0,0,0-.33.16c.42,0,.8.07,1-.12m-.72.35c-.31.14-.36.22-.5.55a12.12,12.12,0,0,1-.52,1.15c.12,0,.28-.05.39-.12a3.8,3.8,0,0,0,1.1-1.71,1.67,1.67,0,0,0-.47.13m-.92.33a1.94,1.94,0,0,1-.43.64,16.28,16.28,0,0,0-3.2-.78,2.18,2.18,0,0,1-1,.7,4.13,4.13,0,0,1-1.28-.37h.42a2.91,2.91,0,0,0,1.37-.4c-.76-.12-.94-.33-.57-.81.17-.22.44-.62.85-.52s.4.53.36.87a15.76,15.76,0,0,1,2.9.72c.06-.25-.1-.37-.21-.55a3.13,3.13,0,0,1,.49-.41,1,1,0,0,1,.26.9m-4.22-1.14a.64.64,0,0,0-.22.24c.06.11.2.15.4.18h.12c.09-.22-.11-.49-.3-.43m1.2,1.27a4.08,4.08,0,0,0-.48.28l.36.36.5-.26-.38-.38m-3.38-2.72c-.16-.12-.27-.21-.44-.32-.15.1-.32.24-.43.33l.42.31.45-.32M771,38.75l.5.22c.13-.16.19-.24.34-.41l-.51-.22a5,5,0,0,0-.33.41m8-1.14a33.74,33.74,0,0,0-8.28.66,3.13,3.13,0,0,0-.39-.72c-.54-.58-.77.05-.77.13.68,0,.8.38.8.38a1.6,1.6,0,0,1-.66.66,2.5,2.5,0,0,1-1.16.4c-1.28.06-.93-1.27-.15-1.81-.1.12-.56.82-.28,1.17s1.5.08,1.79-.28A1.16,1.16,0,0,0,769,38a2,2,0,0,1,.73-1.27,1.82,1.82,0,0,1,1.07.92,33.38,33.38,0,0,1,5.45-.65c0-.32-.15-1.55-.16-1.62s.12-.29.25-.37a.94.94,0,0,0,.59.48,2.92,2.92,0,0,1-.38.32c0,.24,0,.69,0,.87a7.11,7.11,0,0,1,1.25-.43,1.6,1.6,0,0,1,.56-.06,1.08,1.08,0,0,1,.5.21.59.59,0,0,1,.2.39,2.22,2.22,0,0,1-.14.78m-.44-.8c-.26-.43-1.24,0-1.86.22.36,0,.67,0,1,0h.84a.22.22,0,0,0,0-.22m-8.81,2.29a2.9,2.9,0,0,0-.38-.11c-.1.14-.2.32-.27.44l.53.16.19-.3.37.12c.11-.18.16-.26.29-.45L770,38.8a1.89,1.89,0,0,0-.19.3"/><path class="cls-16" d="M733.16,102.78H735a1.63,1.63,0,0,1,1.64.93,6.19,6.19,0,0,1,.27,1.93,5,5,0,0,1-.37,2.46c-.33.53-1,.79-2,.79h-1.41Zm.78,5.43h.74c1.08,0,1.48-.4,1.48-1.82v-1.24c0-1.23-.38-1.69-1.19-1.69h-1Z"/><polygon class="cls-16" points="738.32 108.89 738.32 102.78 741.47 102.78 741.47 103.46 739.1 103.46 739.1 105.42 741.29 105.42 741.29 106.1 739.1 106.1 739.1 108.21 741.51 108.21 741.51 108.89 738.32 108.89"/><path class="cls-16" d="M742.65,108.89v-6.11h1.81a1.53,1.53,0,0,1,1.7,1.74,1.59,1.59,0,0,1-1.71,1.68h-1v2.69Zm.78-3.37h.85a1,1,0,0,0,1.08-1c0-.93-.69-1-.86-1h-1.07Z"/><path class="cls-16" d="M748.21,102.78h1l2,6.11h-.88l-.44-1.46h-2.36l-.45,1.46h-.79Zm.47.72h0l-1,3.26h1.95Z"/><path class="cls-16" d="M752.76,106.08v2.81H752v-6.11h2.11a1.38,1.38,0,0,1,1.46,1.53,1.32,1.32,0,0,1-1.12,1.39v0c.71.11,1,.35,1,1.57a10.37,10.37,0,0,0,.21,1.6h-.81a7.06,7.06,0,0,1-.24-2,.81.81,0,0,0-.92-.78Zm0-.68h1.17c.55,0,.83-.48.83-1a.84.84,0,0,0-.82-.93h-1.18Z"/><polygon class="cls-16" points="760.13 102.78 760.13 103.46 758.52 103.46 758.52 108.89 757.74 108.89 757.74 103.46 756.13 103.46 756.13 102.78 760.13 102.78"/><polygon class="cls-16" points="761.67 108.89 760.94 108.89 760.94 102.78 762.2 102.78 763.74 107.91 763.76 107.91 765.31 102.78 766.6 102.78 766.6 108.89 765.82 108.89 765.82 103.46 765.8 103.46 764.09 108.89 763.36 108.89 761.68 103.46 761.67 103.46 761.67 108.89"/><polygon class="cls-16" points="767.98 108.89 767.98 102.78 771.13 102.78 771.13 103.46 768.76 103.46 768.76 105.42 770.96 105.42 770.96 106.1 768.76 106.1 768.76 108.21 771.17 108.21 771.17 108.89 767.98 108.89"/><polygon class="cls-16" points="776.44 102.78 776.44 108.89 775.37 108.89 772.96 103.59 772.94 103.59 772.94 108.89 772.25 108.89 772.25 102.78 773.35 102.78 775.73 108.01 775.75 108.01 775.75 102.78 776.44 102.78"/><polygon class="cls-16" points="781.28 102.78 781.28 103.46 779.67 103.46 779.67 108.89 778.89 108.89 778.89 103.46 777.28 103.46 777.28 102.78 781.28 102.78"/><path class="cls-16" d="M783.93,106.66v-2a1.92,1.92,0,1,1,3.84,0v2c0,1.69-.62,2.36-1.92,2.36s-1.92-.67-1.92-2.36m3.05,0v-2.06c0-1.28-.88-1.32-1.13-1.32s-1.12,0-1.12,1.32v2.06c0,1.34.39,1.68,1.12,1.68S787,108,787,106.69"/><polygon class="cls-16" points="789.07 108.89 789.07 102.78 792.1 102.78 792.1 103.46 789.85 103.46 789.85 105.42 791.98 105.42 791.98 106.1 789.85 106.1 789.85 108.89 789.07 108.89"/><polygon class="cls-16" points="794.81 108.89 794.81 102.78 795.59 102.78 795.59 105.42 797.73 105.42 797.73 102.78 798.51 102.78 798.51 108.89 797.73 108.89 797.73 106.1 795.59 106.1 795.59 108.89 794.81 108.89"/><polygon class="cls-16" points="799.93 108.89 799.93 102.78 803.08 102.78 803.08 103.46 800.71 103.46 800.71 105.42 802.91 105.42 802.91 106.1 800.71 106.1 800.71 108.21 803.13 108.21 803.13 108.89 799.93 108.89"/><path class="cls-16" d="M805.54,102.78h1l2,6.11h-.87l-.45-1.46h-2.35l-.46,1.46h-.79Zm.47.72h0l-1,3.26h2Z"/><polygon class="cls-16" points="809.33 108.89 809.33 102.78 810.11 102.78 810.11 108.21 812.35 108.21 812.35 108.89 809.33 108.89"/><polygon class="cls-16" points="816.01 102.78 816.01 103.46 814.4 103.46 814.4 108.89 813.62 108.89 813.62 103.46 812.01 103.46 812.01 102.78 816.01 102.78"/><polygon class="cls-16" points="816.86 108.89 816.86 102.78 817.64 102.78 817.64 105.42 819.78 105.42 819.78 102.78 820.56 102.78 820.56 108.89 819.78 108.89 819.78 106.1 817.64 106.1 817.64 108.89 816.86 108.89"/><path class="cls-16" d="M734.52,90.65a.44.44,0,0,0,.34-.14.46.46,0,0,0,.15-.34.47.47,0,0,0-.15-.35.48.48,0,0,0-.68,0,.47.47,0,0,0-.15.35.46.46,0,0,0,.15.34.44.44,0,0,0,.34.14"/><path class="cls-16" d="M736.14,90.65a.44.44,0,0,0,.34-.14.45.45,0,0,0,.14-.34.46.46,0,0,0-.14-.35.48.48,0,0,0-.34-.14.48.48,0,0,0-.49.49.49.49,0,0,0,.14.34.46.46,0,0,0,.35.14"/><path class="cls-16" d="M779.17,89v6.81h-9V91.65l-.4,0a7.49,7.49,0,0,0-1.83.28,6.6,6.6,0,0,0-1.39.58,4.61,4.61,0,0,0-1.72,1.62V92.73h-.74v3.06H752.64a1,1,0,0,1-.26,0,.59.59,0,0,1-.19-.11.36.36,0,0,1-.13-.14,1.14,1.14,0,0,1-.12-.3,4.08,4.08,0,0,1-.1-.54c0-.23-.05-.52-.08-.88-.11-1.47-.79-2.21-2-2.21a2.34,2.34,0,0,0-.85.15,3.05,3.05,0,0,0-.65.35l.46.59a1.86,1.86,0,0,1,1-.34,2.15,2.15,0,0,1,.43,0,1,1,0,0,1,.4.19,1.12,1.12,0,0,1,.31.45,2.74,2.74,0,0,1,.17.84c0,.48.07.88.12,1.19a2.78,2.78,0,0,0,.23.75H736.83c-.12,0-.18-.06-.18-.2V91.37a9.75,9.75,0,0,0-.94.34,5,5,0,0,0-1.15.63,4.14,4.14,0,0,0-1,1,2.27,2.27,0,0,0-.42,1.37,2.7,2.7,0,0,0,.08.62,1.39,1.39,0,0,0,.34.6,1.84,1.84,0,0,0,.69.48,3.29,3.29,0,0,0,1.18.25l.06-.75a2.77,2.77,0,0,1-1.22-.32,1,1,0,0,1-.39-.88,1.59,1.59,0,0,1,.22-.82,3.49,3.49,0,0,1,.52-.63,3.65,3.65,0,0,1,.65-.46c.23-.13.43-.24.6-.32l0,3.13a1,1,0,0,0,.22.7.76.76,0,0,0,.6.25h43.19V89Zm-9.77,6.81h-4.56a6.93,6.93,0,0,1,.33-.82,3.43,3.43,0,0,1,.75-1,5,5,0,0,1,1.36-.93,5.77,5.77,0,0,1,2.12-.53Z"/><rect class="cls-16" x="781.06" y="89.02" width="0.75" height="7.52"/><path class="cls-16" d="M788.56,96.54h-.78a4.54,4.54,0,0,1-.84-.1,3.26,3.26,0,0,1-.87-.33,2.25,2.25,0,0,1-.69-.61,1.52,1.52,0,0,1-.28-.94,2.23,2.23,0,0,1,.2-.94,3,3,0,0,1,.52-.76,3.71,3.71,0,0,1,.71-.59,6.82,6.82,0,0,1,.77-.44,5.67,5.67,0,0,1,.73-.28l.53-.15Zm-.74-.78V92.44l-.6.3a4.18,4.18,0,0,0-.65.45,2.71,2.71,0,0,0-.51.61,1.39,1.39,0,0,0-.22.78.85.85,0,0,0,.19.55,1.46,1.46,0,0,0,.47.38,2.5,2.5,0,0,0,.62.2,4.55,4.55,0,0,0,.61.05Zm-.77-5.59a.46.46,0,0,1-.15.34.48.48,0,0,1-.68,0,.46.46,0,0,1-.15-.34.47.47,0,0,1,.15-.35.48.48,0,0,1,.68,0,.47.47,0,0,1,.15.35m1.62,0a.46.46,0,0,1-.15.34.44.44,0,0,1-.34.14.46.46,0,0,1-.35-.14.49.49,0,0,1-.14-.34.48.48,0,0,1,.49-.49.48.48,0,0,1,.34.14.47.47,0,0,1,.15.35"/><path class="cls-16" d="M812.83,95.79H790.6V92.13h-.75v4.74c0,.25,0,.5,0,.74a1.63,1.63,0,0,1-.15.64,1.13,1.13,0,0,1-.36.45,1.15,1.15,0,0,1-.66.17v.75a1.9,1.9,0,0,0,1.05-.26,1.58,1.58,0,0,0,.58-.65,2.73,2.73,0,0,0,.26-.88,8,8,0,0,0,.06-1v-.33h23V92.13h-.74Z"/><path class="cls-16" d="M812.91,90.94a.41.41,0,0,1-.21-.39.28.28,0,0,1,.11-.26.56.56,0,0,1,.3-.08,1.52,1.52,0,0,1,.62.15l.14-.36a1.93,1.93,0,0,0-.77-.16.9.9,0,0,0-.53.16.59.59,0,0,0-.25.55,1,1,0,0,0,.06.33c0,.11.08.17.12.19h-.62v.37h1.92v-.37h-.36a1,1,0,0,1-.53-.13"/><rect class="cls-16" x="814.73" y="89.02" width="0.75" height="7.52"/><path class="cls-16" d="M816.45,92.27a3.69,3.69,0,0,1,.73-.46,2.44,2.44,0,0,1,1.06-.21,2.14,2.14,0,0,1,1,.23,2.26,2.26,0,0,1,.71.63,2.56,2.56,0,0,1,.42.88,3.79,3.79,0,0,1,.14,1,4.52,4.52,0,0,1-.06.74,4.66,4.66,0,0,1-.15.64c-.07.2-.13.36-.19.5l-.16.31H816.4v-.75h3.08a5.36,5.36,0,0,0,.19-.57,3.59,3.59,0,0,0,.1-.87,2.76,2.76,0,0,0-.11-.77,2.1,2.1,0,0,0-.3-.64,1.45,1.45,0,0,0-.49-.43,1.29,1.29,0,0,0-.65-.17,1.87,1.87,0,0,0-.61.11,2.89,2.89,0,0,0-.72.39Z"/></g><g class="cls-17"><rect class="cls-18" x="604.58" y="49.3" width="23.1" height="35.31"/></g><path class="cls-19" d="M622.77,55.21l0,0,0,0-.66.36A35.9,35.9,0,0,1,613.25,59a24.32,24.32,0,0,0,3.55,9.35,25,25,0,0,0,5.94,6.4l.06,0a25,25,0,0,0,5.87-6.36A24.34,24.34,0,0,0,632.23,59,35.62,35.62,0,0,1,622.77,55.21Z"/><g class="cls-20"><rect class="cls-21" x="618.68" y="45.07" width="22.21" height="34.28"/></g><path class="cls-22" d="M636.42,75.53c.11-.2.31-.21.58,0l2.31,1.26a.36.36,0,0,1,.13.55A16.5,16.5,0,0,0,638,80.18a9.53,9.53,0,0,0-.69,3.6,6.54,6.54,0,0,0,.61,3,5,5,0,0,0,1.57,1.88,6.37,6.37,0,0,0,2.09,1,9.15,9.15,0,0,0,2.22.29,6.79,6.79,0,0,0,4.4-1.38c1.15-.93,1.72-2.42,1.72-4.49V71.84a.37.37,0,0,1,.42-.42H653a.37.37,0,0,1,.42.42v7a2.42,2.42,0,0,0,1,2.13,4.71,4.71,0,0,0,2.75.72h.17a1.87,1.87,0,0,1,1.25.35,1.51,1.51,0,0,1,.42,1.2c0,.72-.13,1.19-.4,1.4a2,2,0,0,1-1.27.31h-.59a4.19,4.19,0,0,1-3.35-1.34v.51a8.9,8.9,0,0,1-2.54,6.74c-1.69,1.62-4.12,2.43-7.31,2.43a12.67,12.67,0,0,1-4.08-.61,8.38,8.38,0,0,1-3.1-1.78,8,8,0,0,1-2-2.87,9.92,9.92,0,0,1-.71-3.91,14.13,14.13,0,0,1,.81-4.76,16.09,16.09,0,0,1,1.91-3.83m7.16-5.16a.37.37,0,0,1-.42-.42v-3a.37.37,0,0,1,.42-.42h2.85a.37.37,0,0,1,.42.42v3a.37.37,0,0,1-.42.42Z"/><path class="cls-22" d="M657.41,85a1.4,1.4,0,0,1-1.13-.35,2,2,0,0,1-.3-1.24,2.19,2.19,0,0,1,.28-1.36,1.52,1.52,0,0,1,1.15-.31H662a2,2,0,0,1,1.25.33,1.48,1.48,0,0,1,.42,1.22,1.79,1.79,0,0,1-.4,1.38A2,2,0,0,1,662,85Z"/><path class="cls-22" d="M674.67,85.25a9.8,9.8,0,0,1-3.48-.57,6.18,6.18,0,0,1-2.55-1.78,3.86,3.86,0,0,1-2.27,1.7,10.11,10.11,0,0,1-2.55.35H662a1.48,1.48,0,0,1-1.68-1.67c0-.7.13-1.14.4-1.32a2.32,2.32,0,0,1,1.28-.27h2.09a2.52,2.52,0,0,0,.92-.19,2.27,2.27,0,0,0,.84-.63,3.48,3.48,0,0,0,.61-1.17,6.33,6.33,0,0,0,.23-1.83,7.57,7.57,0,0,1,0-.81V76.2q0-4.82,2.13-7a9,9,0,0,1,11.73,0q2.15,2.16,2.14,7a13,13,0,0,1-.57,4.1,7.23,7.23,0,0,1-1.59,2.81A6.17,6.17,0,0,1,678,84.72a9.94,9.94,0,0,1-3.33.53m0-14.92a3.87,3.87,0,0,0-3.42,1.55,7.56,7.56,0,0,0-1.06,4.32,7.27,7.27,0,0,0,1.06,4.4,4.92,4.92,0,0,0,6.83,0,7.26,7.26,0,0,0,1.07-4.4,7.56,7.56,0,0,0-1.07-4.32,3.85,3.85,0,0,0-3.41-1.55"/><path class="cls-22" d="M682.59,52.65a3.52,3.52,0,0,1,1.15-2,2.93,2.93,0,0,1,2-.71,6.15,6.15,0,0,1,1.92.33c.67.23,1.35.48,2,.76s1.37.53,2,.75a6.18,6.18,0,0,0,1.92.34,1.26,1.26,0,0,0,1-.32,1.73,1.73,0,0,0,.27-1.11.37.37,0,0,1,.42-.42h.92a.37.37,0,0,1,.42.42,3.86,3.86,0,0,1-.77,2.6,2.72,2.72,0,0,1-2.12.88,7.36,7.36,0,0,1-2.2-.34c-.74-.22-1.45-.46-2.14-.73s-1.34-.51-2-.73a5.12,5.12,0,0,0-1.71-.34,1.54,1.54,0,0,0-.8.23,1.61,1.61,0,0,0-.59.94.39.39,0,0,1-.54.3l-.88-.25a.42.42,0,0,1-.29-.55m8.84,31.88A.37.37,0,0,1,691,85h-2.68a.37.37,0,0,1-.42-.42V56.88a.37.37,0,0,1,.42-.42H691a.37.37,0,0,1,.42.42Z"/><path class="cls-22" d="M654.93,88.8a.12.12,0,0,1,.12-.1h.62a.12.12,0,0,1,.12.1L658,95.08c0,.06,0,.1-.07.1h-.66a.13.13,0,0,1-.13-.1l-.49-1.41H654l-.5,1.41a.13.13,0,0,1-.12.1h-.67c-.06,0-.08,0-.06-.1Zm1.45,4.09-1-2.94h0l-1,2.94Z"/><path class="cls-22" d="M664.69,88.8c0-.07,0-.1.1-.1h.62a.15.15,0,0,1,.15.1l1.93,4.36h0l1.9-4.36a.14.14,0,0,1,.15-.1h.62c.06,0,.09,0,.09.1v6.28c0,.06,0,.1-.09.1h-.6a.09.09,0,0,1-.1-.1v-4.5h0l-1.61,3.56a.18.18,0,0,1-.17.11h-.38a.18.18,0,0,1-.18-.11l-1.61-3.56h0v4.5c0,.06,0,.1-.09.1h-.6a.09.09,0,0,1-.1-.1Z"/><path class="cls-22" d="M671.51,88.8a.09.09,0,0,1,.1-.1h3.89c.07,0,.1,0,.1.1v.6c0,.06,0,.09-.1.09h-3.08a.05.05,0,0,0-.06.06v1.9a.05.05,0,0,0,.06.06H675a.08.08,0,0,1,.09.09v.6c0,.07,0,.1-.09.1h-2.62a.05.05,0,0,0-.06.06v2s0,0,.06,0h3.08a.09.09,0,0,1,.1.1v.6a.09.09,0,0,1-.1.1h-3.89a.09.09,0,0,1-.1-.1Z"/><path class="cls-22" d="M677.31,88.8c0-.07,0-.1.1-.1H678a.16.16,0,0,1,.16.1l2.93,4.85h0V88.8c0-.07,0-.1.09-.1h.6c.07,0,.1,0,.1.1v6.28a.09.09,0,0,1-.1.1h-.61a.18.18,0,0,1-.16-.1l-2.94-4.84h0v4.84c0,.06,0,.1-.09.1h-.6a.09.09,0,0,1-.1-.1Z"/><path class="cls-22" d="M661,88.8a.12.12,0,0,1,.12-.1h.62a.12.12,0,0,1,.12.1l2.22,6.28c0,.06,0,.1-.07.1h-.66a.13.13,0,0,1-.13-.1l-.49-1.41h-2.62l-.5,1.41a.13.13,0,0,1-.12.1h-.67c-.06,0-.08,0-.06-.1Zm1.45,4.09-1-2.94h0l-1,2.94Z"/><line class="cls-23" x1="713.98" y1="36.71" x2="713.98" y2="103.53"/><path class="cls-4" d="M344.7,176.63a33.9,33.9,0,0,1-13.48-2.75,23.93,23.93,0,0,1-10.29-8.07,25.18,25.18,0,0,1-4.64-11.64,45.29,45.29,0,0,1-.36-5.95,59.72,59.72,0,0,1,.81-8.57,46.15,46.15,0,0,1,3.56-11.55,50.78,50.78,0,0,1,6.54-11A45.63,45.63,0,0,1,325.31,106a37.12,37.12,0,0,1,1.17-9.52,1.81,1.81,0,0,1,.59-1,1.25,1.25,0,0,1,.58-.32c.6,0,.78.74.55,2.21a42,42,0,0,0-.36,6.32A58.41,58.41,0,0,0,329,114a43.29,43.29,0,0,1,17-13.53,39.09,39.09,0,0,1,15.69-3.24,45.83,45.83,0,0,1,4.87.27q13.89,1.53,18.76,10.64a16.76,16.76,0,0,1,2,7.85,20.8,20.8,0,0,1-1.9,8.39q-4,8.66-13.62,12.81a33.86,33.86,0,0,1-13.62,2.7,46.55,46.55,0,0,1-6.4-.45q-16.15-2.34-22.37-15.33c-1.45,2-2.93,5.47-4.47,10.28a57.63,57.63,0,0,0-2.66,11.09c-.24,2.59-.36,4.75-.36,6.5a42.36,42.36,0,0,0,.36,5.41,17.91,17.91,0,0,0,3.79,9,16.45,16.45,0,0,0,8.43,5.59,32.76,32.76,0,0,0,9.16,1.58q12.54,0,21.38-5.24a28.12,28.12,0,0,0,8.34-7.17,68.81,68.81,0,0,0,6.45-11c.36-.78.74-1.05,1.13-.81s.37.81-.05,1.72a77.9,77.9,0,0,1-6.36,11,32.73,32.73,0,0,1-8,7.58,37.45,37.45,0,0,1-21.83,7m-13.53-55.38q6.4,16.32,26.7,16.33,11.46,0,18.36-6.41t6.9-14.52a14.22,14.22,0,0,0-7-12.63,23.57,23.57,0,0,0-12.9-3.34,31,31,0,0,0-15.42,4.42,50,50,0,0,0-16.6,16.15"/><path class="cls-4" d="M383.67,153.63a17.91,17.91,0,0,0-1.26,6.86,6.49,6.49,0,0,0,1.12,4,3.78,3.78,0,0,0,3.2,1.49q8.22,0,14.89-15.42c.42-1,.93-1.39,1.53-1.27a.43.43,0,0,1,.36.45,36.84,36.84,0,0,1-2,4.74,38.15,38.15,0,0,1-4.1,7.08q-4.61,6.31-11.37,6.31a8.69,8.69,0,0,1-6.13-2.34,8.34,8.34,0,0,1-2.53-6.41,22.1,22.1,0,0,1,1.94-8.61,33.35,33.35,0,0,1,5.28-8.48,20.42,20.42,0,0,1,7.67-5.73,9.94,9.94,0,0,1,4-.9,6.2,6.2,0,0,1,3.51,1.08,3.62,3.62,0,0,1,1.54,2.8q0,5.42-6.5,10.37a19.11,19.11,0,0,1-5.59,2.75,18.72,18.72,0,0,1-5.5,1.22m15.15-14.43c0-1.2-.48-1.81-1.44-1.81q-2.53,0-7.67,6.23a46.15,46.15,0,0,0-5.41,8.48,14.24,14.24,0,0,0,4.46-1.08,17.33,17.33,0,0,0,5.1-2.89q5-4.24,5-8.93"/><path class="cls-4" d="M414.07,131.35q0,4.07-5.14,7.67c1.2.06,2.8.09,4.82.09s4.56-.15,7.62-.45a3.34,3.34,0,0,1,.18,1.44,9.22,9.22,0,0,1-1.08,3.47c-.72,1.54-1.37,2.86-1.94,4l-1.62,3.16c-.51,1-1.08,2.21-1.72,3.65s-1.16,2.77-1.57,4q-2.26,6.85.72,6.86,3.78,0,11.18-15.07c.42-.78.77-1.08,1-.9a.8.8,0,0,1,.4.68,12.77,12.77,0,0,1-1.17,2.8q-1.17,2.38-2.52,4.91a34.46,34.46,0,0,1-4.24,5.86q-3.43,4.15-6.59,4.15c-2.34,0-4-1.41-4.87-4.24a8.19,8.19,0,0,1-.27-2.43,12.92,12.92,0,0,1,1-4.33,47.57,47.57,0,0,1,3.29-6.59q2.25-3.87,2.53-4.55a3.53,3.53,0,0,0,.27-1.31c0-1.86-2.41-2.86-7.22-3l-1.08,2.89Q400.44,159,395.22,164c-.61.54-.91.36-.91-.55a1.45,1.45,0,0,1,.18-.63,68.81,68.81,0,0,0,8.75-15.78,85.49,85.49,0,0,0,5.14-17.32c.37-1.86,1.21-2.8,2.53-2.8s2.28.84,2.88,2.53a6,6,0,0,1,.28,1.89"/><path class="cls-4" d="M423.09,160.31q0-7.49,7.21-25.08h-4.69a.58.58,0,0,1-.59-.5,1.48,1.48,0,0,1,.1-1,.71.71,0,0,1,.67-.49h5.41q3.26-7.12,6.05-11.91t5.14-6.45c1.56-1.11,2.69-1.67,3.38-1.67a4.4,4.4,0,0,1,1.49.18c1.38.66,2.08,2,2.08,4.11a18.52,18.52,0,0,1-2.08,7.53q-2.07,4.42-4.06,8.21h4.33a.58.58,0,0,1,.59.49,1.42,1.42,0,0,1-.09,1,.72.72,0,0,1-.68.5h-5.23a65.93,65.93,0,0,1-12,14.89l-2.07,9.19a10.3,10.3,0,0,0-.27,2.3,4.88,4.88,0,0,0,.63,2.31,2.1,2.1,0,0,0,2,1.17,7,7,0,0,0,3.43-1.09q4.33-3.24,9.56-13.62a1.7,1.7,0,0,1,.86-1c.33-.12.53,0,.58.23a2.45,2.45,0,0,1-.27,1.31,83.32,83.32,0,0,1-4.69,8.84q-4.86,7.84-10.37,7.84a5.83,5.83,0,0,1-4.6-2.07,7.69,7.69,0,0,1-1.8-5.23m17-25.08H435.8q-1.08,2.52-4.87,12a68.63,68.63,0,0,0,9.11-12m1.18-2q6-10.65,5.95-14.8,0-1.8-.63-1.8c-.66,0-1.67,1-3,2.89s-3.63,6.49-6.81,13.71Z"/><path class="cls-4" d="M446.9,165.54a5.55,5.55,0,0,0,3.61-1.71q3.33-3.35,8.48-13.63.63-1.35,1.26-.81a.82.82,0,0,1,.18.59,7.24,7.24,0,0,1-.72,2l-1.31,2.85q-.58,1.26-2.26,4.1a28.17,28.17,0,0,1-3,4.37q-3.69,4.25-7,4.24t-4.73-2a7.29,7.29,0,0,1-1.44-4.42,14.06,14.06,0,0,1,1.17-5.32l5.77-14.71a4.68,4.68,0,0,0,.18-1.44,4.36,4.36,0,0,0-1.08-2.34l5-.1c1.38,0,2.19.26,2.43.77s.06,1.31-.53,2.39l-7.22,16.87a14.07,14.07,0,0,0-1.54,5.68c0,1.75.93,2.62,2.8,2.62m8.84-33.11a4.16,4.16,0,0,1-2.8,1.09,3,3,0,0,1-2.43-1.09,3.3,3.3,0,0,1-.72-2.61,4.39,4.39,0,0,1,1.53-2.62,4.19,4.19,0,0,1,2.8-1.08,3.14,3.14,0,0,1,2.48,1.08,3,3,0,0,1,.67,2.62,4.36,4.36,0,0,1-1.53,2.61"/><path class="cls-4" d="M448.43,198.91q-5,0-5-5,0-7.12,9.29-29a6.23,6.23,0,0,1-1.08-3c0-2.52.57-4.21,1.71-5.05a3.62,3.62,0,0,1,2.12-1.08,4.43,4.43,0,0,1,1.13.09q10.28-23.19,18.49-38.52a16.06,16.06,0,0,1,3.34-4.78,6.24,6.24,0,0,1,4.33-1.53,14.09,14.09,0,0,1,1.8.27,7.73,7.73,0,0,0,2.17.18q-4.25,4-11.91,17.5t-14.52,29a15,15,0,0,1,2.88,6.77l.27,1.17h.28q2.43,0,5.14-2.84a30.36,30.36,0,0,0,4.42-5.86c1.14-2,2.07-3.79,2.79-5.33a11.52,11.52,0,0,1,1.36-2.48.64.64,0,0,1,.49-.13,1,1,0,0,1,.41.18.53.53,0,0,1,.18.45,1.54,1.54,0,0,1-.18.68q-7.49,17-14.71,17c.06,1,.1,2.54.1,4.74a44.76,44.76,0,0,1-1.63,9.79,32.5,32.5,0,0,1-5.45,11.63q-3.84,5.14-8.26,5.14m-.09-5c0,1.75.48,2.62,1.44,2.62q1.73,0,4.74-4a35.39,35.39,0,0,0,5.14-11,44.22,44.22,0,0,0,2.12-12.67V168H461a6.85,6.85,0,0,1-4.42-1.44q-8.21,20.75-8.21,27.42m12.72-27.69h.54a10.87,10.87,0,0,0-2.16-6.22l-2,4.51c.6,1.14,1.8,1.71,3.61,1.71"/><path class="cls-4" d="M480.45,165.54a5.55,5.55,0,0,0,3.61-1.71q3.35-3.35,8.48-13.63.63-1.35,1.26-.81a.82.82,0,0,1,.18.59,7.24,7.24,0,0,1-.72,2c-.48,1.06-.91,2-1.31,2.85s-1.14,2.21-2.25,4.1a28.88,28.88,0,0,1-3,4.37q-3.71,4.25-7,4.24t-4.74-2a7.35,7.35,0,0,1-1.44-4.42,14.26,14.26,0,0,1,1.17-5.32l5.77-14.71a4.68,4.68,0,0,0,.18-1.44,4.36,4.36,0,0,0-1.08-2.34l5-.1c1.38,0,2.2.26,2.44.77s.06,1.31-.54,2.39l-7.22,16.87a14.19,14.19,0,0,0-1.53,5.68c0,1.75.93,2.62,2.79,2.62m8.84-33.11a4.15,4.15,0,0,1-2.79,1.09,3,3,0,0,1-2.44-1.09,3.3,3.3,0,0,1-.72-2.61,4.39,4.39,0,0,1,1.53-2.62,4.23,4.23,0,0,1,2.8-1.08,3.14,3.14,0,0,1,2.48,1.08,3,3,0,0,1,.68,2.62,4.33,4.33,0,0,1-1.54,2.61"/><path class="cls-4" d="M509.23,146.78c2.1-2.53,3.16-4.66,3.16-6.41s-.73-2.61-2.17-2.61q-4.25,0-9.65,7.75a32.48,32.48,0,0,0-3.34,6.41,19.17,19.17,0,0,0-1.62,7.17,9.33,9.33,0,0,0,1.3,5.19,4.53,4.53,0,0,0,4.07,2,10.19,10.19,0,0,0,5.09-1.31,14.67,14.67,0,0,0,4.47-4.15,49.09,49.09,0,0,0,3.2-4.73q1.08-1.89,3-5.69c.42-.84.79-1.18,1.09-1a.69.69,0,0,1,.45.63,14.77,14.77,0,0,1-1.22,3q-1.21,2.56-2.43,4.82a34.28,34.28,0,0,1-3.48,5.05,13.44,13.44,0,0,1-11.09,5c-3.37,0-5.79-.82-7.27-2.48a8.35,8.35,0,0,1-2.21-5.72,22.84,22.84,0,0,1,1.94-8.66A38.17,38.17,0,0,1,497,142.9q5.24-7.12,12.09-7.13,3.33,0,4.82,1.58a5.13,5.13,0,0,1,1.49,3.65,6.66,6.66,0,0,1-2.53,5.24,3.5,3.5,0,0,1-2.11,1.17,2,2,0,0,1-1.49-.63"/><path class="cls-4" d="M538.91,150.43a37.6,37.6,0,0,0-3.57,8.57,23.83,23.83,0,0,0-.58,4.6c0,1.17.44,1.76,1.35,1.76q1.71,0,4.24-3.16a64.35,64.35,0,0,0,7.3-12c.24-.54.52-.84.82-.9.47-.18.72,0,.72.54a2.88,2.88,0,0,1-.27,1.09q-8.31,16.77-14,16.77a4.87,4.87,0,0,1-4.24-2.52,7,7,0,0,1-.82-3.61,21.2,21.2,0,0,1,.9-5.5q-7.2,11.63-12.44,11.63a4.18,4.18,0,0,1-2.62-.9c-1.8-1.26-2.7-3.43-2.7-6.49q0-8.85,7.66-17.95a19.92,19.92,0,0,1,10.65-6.59,12.76,12.76,0,0,1,3.25-.45,9.55,9.55,0,0,1,7,2.89,1.76,1.76,0,0,1,.54,1.89,1.24,1.24,0,0,1-1.53.72,4.17,4.17,0,0,0-4.33-3.24q-3.88,0-9.56,6.13a49.48,49.48,0,0,0-6.05,8.48q-3.51,5.87-3.51,9.38c0,2.34.75,3.52,2.25,3.52q5.42,0,14.16-16.6a21.11,21.11,0,0,1,2.89-4.56,4,4,0,0,1,3-1.21,15.08,15.08,0,0,1,1.84.27,5.72,5.72,0,0,0,2.21.09q-1.62,1.62-4.59,7.35"/><path class="cls-4" d="M545.4,160.31q0-7.49,7.22-25.08h-4.69a.57.57,0,0,1-.59-.5,1.42,1.42,0,0,1,.09-1,.71.71,0,0,1,.68-.49h5.41q3.24-7.12,6-11.91c1.86-3.19,3.58-5.34,5.14-6.45s2.69-1.67,3.38-1.67a4.4,4.4,0,0,1,1.49.18q2.08,1,2.08,4.11a18.36,18.36,0,0,1-2.08,7.53q-2.07,4.42-4.06,8.21h4.33a.58.58,0,0,1,.59.49,1.42,1.42,0,0,1-.09,1,.72.72,0,0,1-.68.5h-5.23a65.93,65.93,0,0,1-12,14.89l-2.07,9.19a10.3,10.3,0,0,0-.27,2.3,4.88,4.88,0,0,0,.63,2.31,2.1,2.1,0,0,0,2,1.17,7,7,0,0,0,3.43-1.09q4.33-3.24,9.56-13.62a1.7,1.7,0,0,1,.86-1c.33-.12.53,0,.59.23a2.48,2.48,0,0,1-.28,1.31,85.67,85.67,0,0,1-4.68,8.84q-4.87,7.84-10.38,7.84a5.83,5.83,0,0,1-4.6-2.07,7.69,7.69,0,0,1-1.8-5.23m17-25.08h-4.25q-1.08,2.52-4.86,12a69.62,69.62,0,0,0,9.11-12m1.17-2q6-10.65,6-14.8,0-1.8-.63-1.8c-.66,0-1.67,1-3,2.89S562.21,126,559,133.25Z"/><path class="cls-4" d="M569.66,153.63a17.91,17.91,0,0,0-1.26,6.86,6.43,6.43,0,0,0,1.13,4,3.77,3.77,0,0,0,3.2,1.49q8.21,0,14.88-15.42c.42-1,.93-1.39,1.53-1.27a.42.42,0,0,1,.36.45,37.53,37.53,0,0,1-2,4.74,38.13,38.13,0,0,1-4.11,7.08c-3.07,4.21-6.85,6.31-11.37,6.31a8.69,8.69,0,0,1-6.13-2.34,8.34,8.34,0,0,1-2.52-6.41,21.92,21.92,0,0,1,1.94-8.61,33,33,0,0,1,5.27-8.48,20.42,20.42,0,0,1,7.67-5.73,10,10,0,0,1,4-.9,6.26,6.26,0,0,1,3.52,1.08,3.64,3.64,0,0,1,1.53,2.8q0,5.42-6.49,10.37a19.18,19.18,0,0,1-5.6,2.75,18.59,18.59,0,0,1-5.5,1.22m15.15-14.43c0-1.2-.48-1.81-1.44-1.81q-2.52,0-7.67,6.23a46.15,46.15,0,0,0-5.41,8.48,14.35,14.35,0,0,0,4.47-1.08,17.4,17.4,0,0,0,5.09-2.89q5-4.24,5-8.93"/><rect class="cls-4" x="315.98" y="186.38" width="118.92" height="0.82"/><text class="cls-24" transform="translate(466.65 189.34)">of Achievement</text><g class="cls-25"><rect class="cls-26" x="735.6" y="469.54" width="70" height="83.2" transform="translate(-133.98 319.24) rotate(-21.58)"/></g><g class="cls-27"><rect class="cls-28" x="703.23" y="478.13" width="83.2" height="70" transform="translate(-6.27 1017.04) rotate(-68.42)"/></g><g class="cls-29"><rect class="cls-30" x="712.85" y="429.13" width="90.6" height="89.98"/></g><path class="cls-4" d="M797.41,473.81a39.26,39.26,0,1,1-39.26-39.26,39.26,39.26,0,0,1,39.26,39.26"/><g class="cls-31"><rect class="cls-32" x="721.33" y="436.99" width="73.64" height="73.64"/></g></svg>