<?xml version="1.0" encoding="utf-8"?>
<!-- Generator: Adobe Illustrator 24.3.0, SVG Export Plug-In . SVG Version: 6.00 Build 0)  -->
<svg version="1.1" id="Layer_1" xmlns="http://www.w3.org/2000/svg" xmlns:xlink="http://www.w3.org/1999/xlink" x="0px" y="0px"
	 viewBox="0 0 335.7 214" style="enable-background:new 0 0 335.7 214;" xml:space="preserve">
<style type="text/css">
	.st0{clip-path:url(#SVGID_2_);fill:url(#SVGID_3_);}
	.st1{fill:none;stroke:#000000;stroke-width:0.5;stroke-miterlimit:10;}
	.st2{clip-path:url(#SVGID_5_);fill:url(#SVGID_6_);}
	.st3{fill:#F9F7F7;}
</style>
<g>
	<g>
		<g>
			<defs>
				<path id="SVGID_1_" d="M31.6,51c-0.6,0-1.3,0-1.9,0c-0.4,3.7-0.6,7.5-0.6,11.2c0,37.5,20.9,71.2,54.8,88.5
					c5.3-2.7,10.3-5.8,14.9-9.3c-5.7-2.8-11.6-6.2-16.9-10.4c-9.6-6.5-17.6-14.7-23.8-24.3c-7.3-11.3-11.7-24.3-12.8-37.7L45,65.9
					l3.1-0.6c9.2-1.7,18.1-4.8,26.8-9.2c-3.8-2.9-7.3-6.4-10.6-10.5L63,44.2C52.9,48.7,42.3,51,31.6,51"/>
			</defs>
			<clipPath id="SVGID_2_">
				<use xlink:href="#SVGID_1_"  style="overflow:visible;"/>
			</clipPath>
			
				<linearGradient id="SVGID_3_" gradientUnits="userSpaceOnUse" x1="-442.5893" y1="-229.0749" x2="-440.7327" y2="-229.0749" gradientTransform="matrix(0 56.7245 -56.7245 0 -12930.2939 25142.6699)">
				<stop  offset="0" style="stop-color:#77CAE3"/>
				<stop  offset="6.268382e-03" style="stop-color:#77C9E2"/>
				<stop  offset="0.2102" style="stop-color:#7CA8D1"/>
				<stop  offset="0.4055" style="stop-color:#8089BD"/>
				<stop  offset="0.5872" style="stop-color:#836EAC"/>
				<stop  offset="0.7524" style="stop-color:#8559A0"/>
				<stop  offset="0.8954" style="stop-color:#854B98"/>
				<stop  offset="1" style="stop-color:#854695"/>
			</linearGradient>
			<rect x="29" y="44.2" class="st0" width="69.7" height="106.5"/>
		</g>
	</g>
	<g>
		<path class="st1" d="M83.9,62l-0.1,0.1l-0.1,0l-2,1.1c-8.5,4.7-17.4,8.1-26.5,10.3c1.6,10,5.2,19.7,10.7,28.2
			c4.8,7.5,10.8,13.9,17.9,19.3l0.2-0.1c7-5.3,13-11.8,17.7-19.2c5.5-8.5,9.2-18.2,10.7-28.2C102.6,71.1,93,67.3,83.9,62z"/>
	</g>
	<g>
		<g>
			<defs>
				<path id="SVGID_4_" d="M71.6,39.8C74.9,44.1,79,48,83.8,51l0,0l1.8,1.1c10.8,6.6,22.2,11.1,34,13.2l3.1,0.6l-0.3,3.1
					c-1.1,13.3-5.5,26.4-12.8,37.7c-4.9,7.6-10.9,14.3-17.9,19.9c3.3,2.2,7,4.3,11.1,6.3l3.8,1.9c20.2-18.5,31.9-44.6,31.9-72.7
					c0-3.7-0.2-7.5-0.6-11.2c-0.6,0-1.3,0-1.9,0c-18.3,0-36.3-6.8-52.2-19.5C79.8,34.6,75.7,37.4,71.6,39.8"/>
			</defs>
			<clipPath id="SVGID_5_">
				<use xlink:href="#SVGID_4_"  style="overflow:visible;"/>
			</clipPath>
			
				<linearGradient id="SVGID_6_" gradientUnits="userSpaceOnUse" x1="-442.5893" y1="-229.4103" x2="-440.7327" y2="-229.4103" gradientTransform="matrix(0 56.7246 -56.7246 0 -12908.1592 25142.7246)">
				<stop  offset="0" style="stop-color:#77CAE3"/>
				<stop  offset="6.268382e-03" style="stop-color:#77C9E2"/>
				<stop  offset="0.2102" style="stop-color:#7CA8D1"/>
				<stop  offset="0.4055" style="stop-color:#8089BD"/>
				<stop  offset="0.5872" style="stop-color:#836EAC"/>
				<stop  offset="0.7524" style="stop-color:#8559A0"/>
				<stop  offset="0.8954" style="stop-color:#854B98"/>
				<stop  offset="1" style="stop-color:#854695"/>
			</linearGradient>
			<rect x="71.6" y="31.4" class="st2" width="67" height="103.4"/>
		</g>
	</g>
	<path class="st3" d="M125.1,123.3c0.3-0.6,0.9-0.6,1.8-0.1l7,3.8c0.7,0.4,0.8,1,0.4,1.6c-1.5,2.4-3,5.3-4.4,8.7
		c-1.4,3.5-2.1,7.1-2.1,10.9c0,3.6,0.6,6.6,1.8,9c1.2,2.4,2.8,4.3,4.7,5.7s4,2.4,6.3,3c2.3,0.6,4.5,0.9,6.7,0.9
		c5.4,0,9.8-1.4,13.3-4.2c3.4-2.8,5.2-7.3,5.2-13.5v-36.9c0-0.8,0.4-1.3,1.3-1.3h8.1c0.8,0,1.3,0.4,1.3,1.3v21.1c0,2.9,1,5,3.1,6.4
		c2.1,1.4,4.8,2.1,8.3,2.1h0.5c1.7,0,2.9,0.4,3.8,1.1c0.8,0.7,1.3,1.9,1.3,3.6c0,2.2-0.4,3.6-1.2,4.2c-0.8,0.6-2.1,0.9-3.9,0.9h-1.8
		c-4.4,0-7.8-1.4-10.1-4v1.5c0,8.7-2.6,15.5-7.6,20.4c-5.1,4.9-12.4,7.3-22.1,7.3c-4.6,0-8.7-0.6-12.3-1.8c-3.7-1.2-6.8-3-9.3-5.4
		s-4.6-5.2-6-8.7c-1.4-3.4-2.2-7.4-2.2-11.8c0-5,0.8-9.8,2.5-14.3C120.9,130.3,122.9,126.4,125.1,123.3 M146.7,107.8
		c-0.8,0-1.3-0.4-1.3-1.3v-9.2c0-0.8,0.4-1.3,1.3-1.3h8.6c0.8,0,1.3,0.4,1.3,1.3v9.2c0,0.8-0.4,1.3-1.3,1.3H146.7z"/>
	<path class="st3" d="M188.4,151.7c-1.7,0-2.8-0.4-3.4-1.1c-0.6-0.7-0.9-2-0.9-3.7c0-2.1,0.3-3.5,0.8-4.1s1.7-0.9,3.5-0.9h13.9
		c1.7,0,2.9,0.3,3.8,1c0.8,0.7,1.3,1.9,1.3,3.7c0,2.1-0.4,3.5-1.2,4.2c-0.8,0.7-2.1,1-3.9,1L188.4,151.7L188.4,151.7z"/>
	<path class="st3" d="M240.4,152.6c-4,0-7.5-0.6-10.5-1.7c-3-1.1-5.6-2.9-7.7-5.4c-1.8,2.7-4,4.4-6.8,5.1c-2.8,0.7-5.4,1.1-7.7,1.1
		h-5.4c-3.4,0-5.1-1.7-5.1-5.1c0-2.1,0.4-3.4,1.2-4s2.1-0.8,3.9-0.8h6.3c0.9,0,1.9-0.2,2.8-0.6s1.8-1,2.5-1.9
		c0.8-0.9,1.4-2.1,1.8-3.5c0.5-1.5,0.7-3.3,0.7-5.5c-0.1-0.8-0.1-1.7-0.1-2.5v-2.6c0-9.7,2.1-16.7,6.4-21c4.3-4.3,10.2-6.5,17.7-6.5
		s13.4,2.2,17.7,6.5c4.3,4.3,6.4,11.3,6.4,21c0,4.8-0.6,8.9-1.7,12.4c-1.1,3.5-2.7,6.3-4.8,8.5s-4.6,3.8-7.6,4.9
		C247.5,152.1,244.1,152.6,240.4,152.6 M240.4,107.6c-4.7,0-8.1,1.6-10.3,4.7c-2.1,3.1-3.2,7.4-3.2,13c0,6.1,1.1,10.5,3.2,13.3
		s5.6,4.2,10.3,4.2s8.1-1.4,10.3-4.2c2.1-2.8,3.2-7.2,3.2-13.3c0-5.6-1.1-9.9-3.2-13C248.6,109.2,245.1,107.6,240.4,107.6"/>
	<path class="st3" d="M264.3,54.3c0.6-2.7,1.8-4.8,3.5-6.2s3.7-2.2,5.9-2.2c1.9,0,3.8,0.3,5.8,1c2,0.7,4.1,1.4,6.1,2.3
		c2.1,0.8,4.1,1.6,6.1,2.3c2,0.7,4,1,5.8,1c1.4,0,2.4-0.3,3-1s0.8-1.8,0.8-3.3c0-0.8,0.4-1.3,1.3-1.3h2.8c0.8,0,1.3,0.4,1.3,1.3
		c0,3.5-0.8,6.1-2.3,7.8s-3.7,2.7-6.4,2.7c-2.2,0-4.4-0.3-6.6-1s-4.4-1.4-6.4-2.2s-4.1-1.5-6-2.2s-3.7-1-5.2-1
		c-0.8,0-1.6,0.2-2.4,0.7c-0.8,0.5-1.4,1.4-1.8,2.8c-0.2,0.8-0.8,1.1-1.6,0.9l-2.6-0.8C264.4,55.7,264.1,55.2,264.3,54.3 M291,150.5
		c0,0.8-0.4,1.3-1.3,1.3h-8.1c-0.8,0-1.3-0.4-1.3-1.3V67.1c0-0.8,0.4-1.3,1.3-1.3h8.1c0.8,0,1.3,0.4,1.3,1.3V150.5z"/>
	<path class="st3" d="M180.9,163.3c0.1-0.2,0.2-0.3,0.4-0.3h1.9c0.2,0,0.3,0.1,0.4,0.3l6.7,19c0.1,0.2,0,0.3-0.2,0.3h-2
		c-0.2,0-0.3-0.1-0.4-0.3l-1.5-4.2h-7.9l-1.5,4.2c-0.1,0.2-0.2,0.3-0.4,0.3h-2c-0.2,0-0.3-0.1-0.2-0.3L180.9,163.3z M185.3,175.7
		l-3.1-8.9h-0.1l-3.1,8.9H185.3z"/>
	<path class="st3" d="M210.3,163.3c0-0.2,0.1-0.3,0.3-0.3h1.9c0.2,0,0.4,0.1,0.5,0.3l5.8,13.1h0.1l5.7-13.1c0.1-0.2,0.2-0.3,0.5-0.3
		h1.9c0.2,0,0.3,0.1,0.3,0.3v19c0,0.2-0.1,0.3-0.3,0.3h-1.8c-0.2,0-0.3-0.1-0.3-0.3v-13.6h-0.1l-4.9,10.7c-0.1,0.2-0.3,0.4-0.5,0.4
		h-1.1c-0.3,0-0.4-0.1-0.6-0.4l-4.9-10.7h-0.1v13.6c0,0.2-0.1,0.3-0.3,0.3h-1.8c-0.2,0-0.3-0.1-0.3-0.3L210.3,163.3L210.3,163.3z"/>
	<path class="st3" d="M230.9,163.3c0-0.2,0.1-0.3,0.3-0.3h11.8c0.2,0,0.3,0.1,0.3,0.3v1.8c0,0.2-0.1,0.3-0.3,0.3h-9.3
		c-0.1,0-0.2,0.1-0.2,0.2v5.7c0,0.1,0.1,0.2,0.2,0.2h7.9c0.2,0,0.3,0.1,0.3,0.3v1.8c0,0.2-0.1,0.3-0.3,0.3h-7.9
		c-0.1,0-0.2,0.1-0.2,0.2v5.9c0,0.1,0.1,0.2,0.2,0.2h9.3c0.2,0,0.3,0.1,0.3,0.3v1.8c0,0.2-0.1,0.3-0.3,0.3h-11.8
		c-0.2,0-0.3-0.1-0.3-0.3V163.3z"/>
	<path class="st3" d="M248.4,163.3c0-0.2,0.1-0.3,0.3-0.3h1.8c0.2,0,0.4,0.1,0.5,0.3l8.9,14.6h0.1v-14.6c0-0.2,0.1-0.3,0.3-0.3h1.8
		c0.2,0,0.3,0.1,0.3,0.3v19c0,0.2-0.1,0.3-0.3,0.3h-1.8c-0.2,0-0.4-0.1-0.5-0.3l-8.9-14.6h-0.1v14.6c0,0.2-0.1,0.3-0.3,0.3h-1.8
		c-0.2,0-0.3-0.1-0.3-0.3L248.4,163.3L248.4,163.3z"/>
	<path class="st3" d="M199.2,163.3c0.1-0.2,0.2-0.3,0.4-0.3h1.9c0.2,0,0.3,0.1,0.4,0.3l6.7,19c0.1,0.2,0,0.3-0.2,0.3h-2
		c-0.2,0-0.3-0.1-0.4-0.3l-1.5-4.2h-7.9l-1.5,4.2c-0.1,0.2-0.2,0.3-0.4,0.3h-2c-0.2,0-0.3-0.1-0.2-0.3L199.2,163.3z M203.6,175.7
		l-3.1-8.9h-0.1l-3.1,8.9H203.6z"/>
</g>
</svg>
