<?xml version="1.0" encoding="utf-8"?>
<!-- Generator: Adobe Illustrator 24.2.0, SVG Export Plug-In . SVG Version: 6.00 Build 0)  -->
<svg version="1.1" id="Layer_1" xmlns="http://www.w3.org/2000/svg" xmlns:xlink="http://www.w3.org/1999/xlink" x="0px" y="0px"
	 viewBox="0 0 361.41 61.69" style="enable-background:new 0 0 361.41 61.69;" xml:space="preserve">
<style type="text/css">
	.st0{clip-path:url(#SVGID_2_);fill:url(#SVGID_3_);}
	.st1{fill:none;stroke:#000000;stroke-width:0.5;stroke-miterlimit:10;}
	.st2{clip-path:url(#SVGID_5_);fill:url(#SVGID_6_);}
	.st3{fill:#FFFFFF;}
	.st4{fill:#EA0029;}
</style>
<g>
	<g>
		<g>
			<defs>
				<path id="SVGID_1_" d="M1.03,8.06c-0.26,0-0.51,0-0.77-0.01C0.09,9.57,0,11.1,0,12.61c0,15.24,8.52,28.97,22.28,36.01
					c2.16-1.1,4.18-2.37,6.07-3.78c-2.32-1.13-4.73-2.53-6.88-4.21c-3.89-2.64-7.14-5.98-9.67-9.91c-2.95-4.59-4.76-9.89-5.21-15.32
					l-0.11-1.27l1.25-0.23c3.73-0.68,7.38-1.94,10.89-3.75c-1.54-1.19-2.99-2.62-4.3-4.27l-0.48-0.61C9.7,7.11,5.39,8.06,1.03,8.06"
					/>
			</defs>
			<clipPath id="SVGID_2_">
				<use xlink:href="#SVGID_1_"  style="overflow:visible;"/>
			</clipPath>
			
				<linearGradient id="SVGID_3_" gradientUnits="userSpaceOnUse" x1="-328.015" y1="-143.539" x2="-327.2597" y2="-143.539" gradientTransform="matrix(0 56.7245 -56.7245 0 -8128.0044 18608.8594)">
				<stop  offset="0" style="stop-color:#77CAE3"/>
				<stop  offset="6.268382e-03" style="stop-color:#77C9E2"/>
				<stop  offset="0.2102" style="stop-color:#7CA8D1"/>
				<stop  offset="0.4055" style="stop-color:#8089BD"/>
				<stop  offset="0.5872" style="stop-color:#836EAC"/>
				<stop  offset="0.7524" style="stop-color:#8559A0"/>
				<stop  offset="0.8954" style="stop-color:#854B98"/>
				<stop  offset="1" style="stop-color:#854695"/>
			</linearGradient>
			<rect y="5.29" class="st0" width="28.34" height="43.33"/>
		</g>
	</g>
	<g>
		<path class="st1" d="M22.31,12.55l-0.05,0.03l-0.03-0.02L21.43,13c-3.47,1.9-7.1,3.3-10.8,4.19c0.64,4.07,2.13,8,4.37,11.48
			c1.95,3.03,4.4,5.68,7.28,7.86l0.07-0.06c2.85-2.18,5.28-4.8,7.21-7.8c2.24-3.47,3.73-7.4,4.37-11.48
			C29.92,16.24,26.03,14.68,22.31,12.55z"/>
	</g>
	<g>
		<g>
			<defs>
				<path id="SVGID_4_" d="M17.3,3.53c1.37,1.72,3.01,3.32,4.97,4.56l0.01,0l0.73,0.45c4.39,2.7,9.03,4.51,13.82,5.39l1.25,0.23
					l-0.11,1.27c-0.45,5.43-2.25,10.73-5.21,15.32c-1.99,3.09-4.43,5.81-7.27,8.11c1.35,0.9,2.86,1.76,4.52,2.58l1.55,0.75
					c8.2-7.54,12.99-18.12,12.99-29.56c0-1.52-0.09-3.05-0.26-4.57c-0.26,0.01-0.52,0.01-0.77,0.01c-7.45,0-14.77-2.75-21.25-7.95
					C20.67,1.4,19,2.54,17.3,3.53"/>
			</defs>
			<clipPath id="SVGID_5_">
				<use xlink:href="#SVGID_4_"  style="overflow:visible;"/>
			</clipPath>
			
				<linearGradient id="SVGID_6_" gradientUnits="userSpaceOnUse" x1="-328.0151" y1="-143.4437" x2="-327.2598" y2="-143.4437" gradientTransform="matrix(0 56.7246 -56.7246 0 -8105.8613 18608.9023)">
				<stop  offset="0" style="stop-color:#77CAE3"/>
				<stop  offset="6.268382e-03" style="stop-color:#77C9E2"/>
				<stop  offset="0.2102" style="stop-color:#7CA8D1"/>
				<stop  offset="0.4055" style="stop-color:#8089BD"/>
				<stop  offset="0.5872" style="stop-color:#836EAC"/>
				<stop  offset="0.7524" style="stop-color:#8559A0"/>
				<stop  offset="0.8954" style="stop-color:#854B98"/>
				<stop  offset="1" style="stop-color:#854695"/>
			</linearGradient>
			<rect x="17.3" y="0.1" class="st2" width="27.26" height="42.07"/>
		</g>
	</g>
	<path d="M39.06,37.48c0.14-0.24,0.38-0.26,0.72-0.05l2.83,1.54c0.27,0.17,0.33,0.39,0.15,0.67c-0.62,0.96-1.21,2.14-1.77,3.55
		c-0.57,1.41-0.85,2.88-0.85,4.42c0,1.47,0.25,2.7,0.74,3.67c0.5,0.98,1.14,1.75,1.93,2.31s1.64,0.97,2.57,1.21
		c0.92,0.24,1.83,0.36,2.73,0.36c2.19,0,3.99-0.57,5.4-1.7c1.4-1.13,2.11-2.97,2.11-5.5V32.95c0-0.34,0.17-0.51,0.51-0.51h3.29
		c0.34,0,0.51,0.17,0.51,0.51v8.58c0,1.16,0.42,2.04,1.26,2.62c0.84,0.58,1.96,0.87,3.37,0.87h0.21c0.68,0,1.2,0.15,1.54,0.44
		c0.34,0.29,0.51,0.78,0.51,1.46c0,0.89-0.16,1.46-0.49,1.72c-0.33,0.26-0.85,0.39-1.57,0.39h-0.72c-1.78,0-3.15-0.55-4.11-1.64
		v0.61c0,3.53-1.04,6.29-3.11,8.28c-2.07,1.99-5.07,2.98-8.97,2.98c-1.85,0-3.52-0.25-5.01-0.74c-1.49-0.5-2.76-1.22-3.8-2.18
		c-1.05-0.96-1.86-2.14-2.44-3.52c-0.59-1.39-0.87-2.99-0.87-4.81c0-2.02,0.33-3.97,1-5.83C37.4,40.31,38.18,38.75,39.06,37.48
		 M47.86,31.15c-0.34,0-0.51-0.17-0.51-0.51v-3.75c0-0.34,0.17-0.51,0.51-0.51h3.49c0.34,0,0.51,0.17,0.51,0.51v3.75
		c0,0.34-0.17,0.51-0.51,0.51H47.86z"/>
	<path d="M64.82,49.04c-0.68,0-1.15-0.15-1.39-0.44c-0.24-0.29-0.36-0.8-0.36-1.52c0-0.86,0.11-1.42,0.33-1.67
		c0.22-0.26,0.7-0.39,1.42-0.39h5.66c0.69,0,1.2,0.14,1.54,0.41c0.34,0.28,0.51,0.77,0.51,1.49c0,0.86-0.16,1.42-0.49,1.7
		c-0.33,0.28-0.85,0.41-1.57,0.41L64.82,49.04L64.82,49.04z"/>
	<path d="M86,49.41c-1.61,0-3.04-0.23-4.27-0.69c-1.23-0.46-2.28-1.19-3.14-2.18c-0.72,1.1-1.64,1.79-2.77,2.08
		c-1.13,0.29-2.18,0.44-3.14,0.44h-2.21c-1.37,0-2.05-0.68-2.05-2.06c0-0.86,0.16-1.4,0.49-1.62s0.85-0.33,1.57-0.33h2.57
		c0.37,0,0.75-0.08,1.13-0.23c0.38-0.15,0.72-0.41,1.03-0.77c0.31-0.36,0.56-0.84,0.74-1.44c0.19-0.6,0.28-1.34,0.28-2.24
		c-0.04-0.34-0.05-0.68-0.05-1V38.3c0-3.94,0.87-6.79,2.62-8.56c1.75-1.77,4.15-2.65,7.2-2.65s5.45,0.88,7.2,2.65
		c1.75,1.77,2.62,4.62,2.62,8.56c0,1.95-0.23,3.63-0.69,5.04c-0.46,1.41-1.11,2.55-1.95,3.45c-0.84,0.89-1.87,1.55-3.08,1.98
		C88.87,49.19,87.51,49.41,86,49.41 M86,31.1c-1.92,0-3.32,0.63-4.19,1.9c-0.87,1.27-1.31,3.03-1.31,5.3c0,2.47,0.44,4.27,1.31,5.4
		s2.27,1.7,4.19,1.7c1.92,0,3.32-0.57,4.19-1.7c0.87-1.13,1.31-2.93,1.31-5.4c0-2.26-0.44-4.03-1.31-5.3S87.92,31.1,86,31.1"/>
	<path d="M95.72,9.41c0.24-1.09,0.71-1.94,1.42-2.52c0.7-0.58,1.5-0.87,2.39-0.87c0.75,0,1.54,0.14,2.36,0.41
		c0.82,0.28,1.65,0.58,2.49,0.92c0.84,0.34,1.67,0.65,2.49,0.92c0.82,0.28,1.61,0.41,2.36,0.41c0.58,0,0.98-0.13,1.21-0.39
		c0.22-0.26,0.33-0.71,0.33-1.36c0-0.34,0.17-0.51,0.51-0.51h1.13c0.34,0,0.51,0.17,0.51,0.51c0,1.41-0.32,2.47-0.95,3.19
		c-0.63,0.72-1.5,1.08-2.6,1.08c-0.89,0-1.79-0.14-2.7-0.41s-1.78-0.57-2.62-0.9c-0.84-0.33-1.65-0.63-2.44-0.9
		c-0.79-0.27-1.49-0.41-2.11-0.41c-0.34,0-0.67,0.09-0.98,0.28c-0.31,0.19-0.55,0.57-0.72,1.16c-0.1,0.34-0.33,0.46-0.67,0.36
		l-1.08-0.31C95.77,9.97,95.65,9.75,95.72,9.41 M106.57,48.53c0,0.34-0.17,0.51-0.51,0.51h-3.29c-0.34,0-0.51-0.17-0.51-0.51V14.6
		c0-0.34,0.17-0.51,0.51-0.51h3.29c0.34,0,0.51,0.17,0.51,0.51V48.53z"/>
	<path d="M61.79,53.76c0.02-0.08,0.07-0.12,0.14-0.12h0.76c0.08,0,0.13,0.04,0.15,0.12l2.72,7.71c0.02,0.08,0,0.12-0.08,0.12h-0.82
		c-0.08,0-0.13-0.04-0.15-0.12l-0.61-1.73h-3.21l-0.61,1.73c-0.03,0.08-0.08,0.12-0.15,0.12h-0.82c-0.08,0-0.11-0.04-0.08-0.12
		L61.79,53.76z M63.56,58.78l-1.25-3.61h-0.02l-1.26,3.61H63.56z"/>
	<path d="M73.76,53.76c0-0.08,0.04-0.12,0.12-0.12h0.76c0.09,0,0.15,0.04,0.19,0.12l2.37,5.35h0.04l2.32-5.35
		c0.03-0.08,0.09-0.12,0.19-0.12h0.76c0.08,0,0.12,0.04,0.12,0.12v7.71c0,0.08-0.04,0.12-0.12,0.12h-0.74
		c-0.08,0-0.12-0.04-0.12-0.12v-5.53h-0.04l-1.97,4.37c-0.04,0.09-0.11,0.14-0.21,0.14h-0.47c-0.11,0-0.18-0.05-0.22-0.14
		l-1.97-4.37h-0.04v5.53c0,0.08-0.04,0.12-0.12,0.12h-0.74c-0.08,0-0.12-0.04-0.12-0.12L73.76,53.76L73.76,53.76z"/>
	<path d="M82.13,53.76c0-0.08,0.04-0.12,0.12-0.12h4.78c0.08,0,0.12,0.04,0.12,0.12v0.74c0,0.08-0.04,0.12-0.12,0.12h-3.78
		c-0.05,0-0.07,0.02-0.07,0.07v2.34c0,0.05,0.02,0.07,0.07,0.07h3.21c0.08,0,0.12,0.04,0.12,0.12v0.74c0,0.08-0.04,0.12-0.12,0.12
		h-3.21c-0.05,0-0.07,0.02-0.07,0.07v2.42c0,0.05,0.02,0.07,0.07,0.07h3.78c0.08,0,0.12,0.04,0.12,0.12v0.74
		c0,0.08-0.04,0.12-0.12,0.12h-4.78c-0.08,0-0.12-0.04-0.12-0.12V53.76z"/>
	<path d="M89.25,53.76c0-0.08,0.04-0.12,0.12-0.12h0.75c0.09,0,0.16,0.04,0.2,0.12l3.6,5.96h0.04v-5.96c0-0.08,0.04-0.12,0.12-0.12
		h0.74c0.08,0,0.12,0.04,0.12,0.12v7.71c0,0.08-0.04,0.12-0.12,0.12h-0.75c-0.09,0-0.16-0.04-0.2-0.12l-3.61-5.94h-0.04v5.94
		c0,0.08-0.04,0.12-0.12,0.12h-0.74c-0.08,0-0.12-0.04-0.12-0.12L89.25,53.76L89.25,53.76z"/>
	<path d="M69.24,53.76c0.02-0.08,0.07-0.12,0.14-0.12h0.76c0.08,0,0.13,0.04,0.15,0.12l2.72,7.71c0.02,0.08,0,0.12-0.08,0.12h-0.82
		c-0.08,0-0.13-0.04-0.15-0.12l-0.61-1.73h-3.21l-0.61,1.73c-0.03,0.08-0.08,0.12-0.15,0.12h-0.82c-0.08,0-0.11-0.04-0.08-0.12
		L69.24,53.76z M71.01,58.78l-1.25-3.61h-0.02l-1.26,3.61H71.01z"/>
</g>
<g>
	<g>
		<path class="st3" d="M361.38,30.73c0.11-11.61-2.44-18.12-4.65-21.31c0.75-1,1.22-1.61,1.25-1.64c0.23-0.23,0.61-0.57,1.4-0.68
			c0.22-1.53,0.79-3.36,0.79-3.36s-1.53,1.11-2.96,1.72c0.11,0.77-0.09,1.24-0.28,1.52c-0.03,0.04-0.38,0.52-0.97,1.3
			c-0.95-1.12-2.1-2.16-3.75-3.11c-0.4-0.23-0.82-0.44-1.28-0.64c0.03-0.63-0.19-1.22-0.6-1.63c-0.02-0.36-0.32-0.82-0.69-0.94l0,0
			c-0.38-0.1-0.94,0.07-1.22,0.34c-0.62,0.09-1.22,0.41-1.65,0.9c-1.35-0.29-2.89-0.5-4.65-0.61c-0.21-0.86-0.76-1.48-1.45-1.82
			c-0.18-0.37-0.7-0.74-1.13-0.77l0,0l0,0l0,0l0,0c-0.44,0.03-0.96,0.4-1.13,0.77c-0.69,0.34-1.24,0.96-1.45,1.82
			c-1.77,0.11-3.3,0.33-4.66,0.61c-0.44-0.49-1.03-0.82-1.65-0.9c-0.28-0.26-0.84-0.44-1.22-0.34l0,0
			c-0.36,0.14-0.66,0.59-0.68,0.94c-0.42,0.42-0.63,1.01-0.6,1.63c-0.45,0.21-0.88,0.43-1.28,0.64c-1.65,0.95-2.69,1.84-3.67,3.08
			c-0.54-0.71-0.85-1.13-0.88-1.17c-0.19-0.28-0.39-0.75-0.28-1.52c-1.42-0.62-2.96-1.72-2.96-1.72s0.57,1.81,0.79,3.35
			c0.79,0.11,1.17,0.46,1.4,0.68c0.03,0.03,0.44,0.56,1.11,1.45c-2.22,3.17-4.81,9.72-4.7,21.42c0.01,1.08-0.45,11.2,2.85,18.03
			c0.37,0.69,1.36,2.53,3.17,4.22c1.5,1.42,3.27,2.4,5.26,2.93c0.06,0.02,0.18,0.05,0.24,0.06c2.48,0.67,4.62,0.29,5.48-0.21
			l-0.13,0.31c-0.04,0.08-0.08,0.21-0.11,0.27c-0.46,1.25-0.15,2.56,1.54,2.75c0.44,0.05,0.95,0.07,1.53,0.34
			c0.41,0.19,0.87,0.51,1.37,1.03c0.21,0.22,0.65,0.78,0.87,1.22l0,0l0,0l0,0c0.22-0.44,0.65-1.01,0.87-1.22
			c0.51-0.53,0.96-0.83,1.38-1.03c0.59-0.27,1.09-0.29,1.53-0.34c1.7-0.19,2.01-1.49,1.55-2.75c-0.03-0.07-0.08-0.2-0.11-0.28
			c-0.04-0.07-0.13-0.31-0.13-0.31c1.18,0.68,4.79,1.22,8.26-0.99c2.38-1.51,4.11-3.21,5.51-5.96
			C361.83,41.99,361.4,31.67,361.38,30.73z M346.05,21.37c-0.05,0.06-0.08,0.13-0.24,0.23c-0.17,0.11-0.36,0.15-0.56,0.14
			c-0.26-0.02-0.42-0.09-0.54-0.28c-0.39-0.55-0.64-1.1-1.05-2.08c-0.36-0.86-0.3-0.72-0.83-2.01c-0.25-0.62-0.71-1.59-0.96-1.93
			c-0.4-0.53-1.12-1.05-1.37-1.16c-0.32-0.13-0.76-0.24-1.23-0.26c-0.84-0.05-1.68,0.07-2.03,0.16c-0.28,0.07-0.77,0.24-1.02,0.54
			c-0.04,0.05-0.15,0.19-0.31,0.26c-0.36,0.17-0.45,0.16-0.93,0.51c-0.76,0.56-0.64,1.43-0.24,1.77c0.01,0.01,0.02,0.01,0.02,0.01
			c-0.01-0.23,0.01-0.42,0.05-0.41c0.05,0.02,0.42,0.26,1,0.18c0.43-0.05,0.69,0.59,0.69,0.59l0.07-0.19c0,0,0.14,0.41,0.25,0.5
			c0.02-0.03,0.05-0.07,0.06-0.09c0.13,0.16,0.34,0.26,0.35,0.53c-0.01,0.24-0.11,0.45-0.41,0.73c-0.11,0.11-0.79,0.65-1.5,1.39
			c-0.37,0.38-0.55,0.61-0.93,1.02c-0.19,0.21-0.37,0.34-0.56,0.34c-0.03,0-0.05,0-0.08,0c-0.22,0-0.4-0.12-0.47-0.21
			c-0.07-0.1-3.7-4.89-5.44-7.19c3.15-3.08,8.37-3.58,9.68-3.48c0.31,0.03,0.65,0.26,0.26,0.76c0.28,0.13,1.34,0.04,1.74-0.34
			c0.4,0.37,1.45,0.46,1.73,0.34c-0.38-0.5-0.04-0.74,0.26-0.76c1.29-0.09,6.25,0.14,9.72,3.57
			C349.53,16.77,347.27,19.61,346.05,21.37z"/>
		<g>
			<path class="st4" d="M360.68,27.56c-0.97,0.79-1.89,1.58-4.92,3.32l-0.79,0.43l0.01-0.56c0-0.06,0.22-7.74-3.51-14.35
				c-0.24,0.32-1.02,1.32-1.82,2.34c0.47-0.05,0.96,0.07,1.4,0.5c0.77,0.75,2.03,2.58,2.76,4.46c0.4,1.18,0.71,2.8,0.63,4.18l0,0
				c0,0-0.45,7.81-1.34,15.29c-0.81,6.8-1.26,7.69-1.26,7.69c-0.52-0.63-0.73-1.42-0.86-1.88l-0.07,0.06c0,0-0.47-0.68-0.76-2.01
				c-0.33-1.52-0.38-4.25-0.34-5.57v0.01c0,0,0.02-0.38-0.3-1.04c-0.15-0.31-0.26-0.62-0.34-0.95c0-0.01,0-0.01-0.01-0.02
				c-0.49-2.09-1.44-2.68-1.97-3.33c-0.64-0.78-1.1-1.6-1.38-2.27c-0.02,0.02-0.03,0.03-0.05,0.05c-0.34,0.34-0.61,0.67-0.62,0.86
				c0.12,1.22,0.23,2.09,0.05,2.71c-0.07-0.04-0.19-0.16-0.25-0.21c0.08,0.81-0.3,1.74-0.05,2.49l-0.48-0.06
				c0.02,0.05,0.04,0.1,0.05,0.12c0.06,0.09,0.13,0.15,0.24,0.21c0.02,0.01,0.12,0.05,0.15,0.07c0.05,0.02,0.16,0.06,0.49,0.17
				c0.27-0.61,0.06-1.19-0.21-1.52c-0.23-0.27,0.05-0.68,0.52-0.47c0.61,0.26,1.27,0.65,1.97,1.32c1,0.94,1.29,1.86,1.08,2.04
				c-0.16,0.14-0.29,0.11-0.49,0.04c0,0.04-0.01,0.07-0.02,0.11c-0.05,0.18-0.21,0.31-0.43,0.37l-0.02,0.04
				c-0.11,0.15-0.28,0.2-0.58,0.2c-0.25-0.01-0.54-0.15-0.58-0.17c-0.05-0.03-0.12-0.06-0.2-0.15c-0.05,0.05-0.12,0.09-0.18,0.15
				c0.79,1.06,2.3,2.82,3.38,4.74c0.77,1.38,1.13,2.53,1.13,2.53s-0.42,0.14-0.95,0.01c0.19,0.55,0.29,1.03,0.25,1.41
				c-0.42,0.02-0.96-0.04-1.53-0.35c0.02,0.09,0.04,0.18,0.05,0.27c0.49,0.34,1.03,0.75,1.26,0.92c-2.37,1.12-5.81,0.6-5.87,0.59
				c-0.16-0.02-0.31-0.05-0.44-0.06c-0.03,0.06-0.05,0.14-0.08,0.22c0.24,0.55,0.77,1.83,0.89,2.09c1.51,0.69,2.9,1.14,5.06,0.78
				c0,0,0.36-0.04,1.29-0.34c0.94-0.32,2.71-1.35,4.07-2.63c1.7-1.59,2.72-3.26,3.06-3.91c2.62-5.12,3.06-12.72,3.06-15.79
				c0-1.01,0-1.55,0-1.6C360.77,30.03,360.72,28.34,360.68,27.56z"/>
			<path class="st4" d="M335.12,54.48c0.1-0.28,0.58-1.42,0.82-2c-0.04-0.1-0.06-0.2-0.09-0.3c-0.33,0.05-0.65,0.1-0.99,0.14
				c-0.22,0.02-3.48,0.53-5.85-0.59c0.29-0.2,0.83-0.64,1.56-1.12c0.01-0.05,0.02-0.1,0.03-0.15c-0.57,0.32-1.12,0.37-1.53,0.35
				c-0.04-0.37,0.06-0.86,0.25-1.41c-0.54,0.12-0.95-0.01-0.95-0.01s0.35-1.15,1.13-2.53c0.72-1.29,1.73-2.59,2.59-3.66
				c0.09-0.43,0.42-0.78,0.45-0.82c0.02-0.03,0.13-0.14,0.15-0.15c-0.1-0.08-0.19-0.16-0.28-0.23c-0.1,0.1-0.17,0.15-0.24,0.18
				c-0.27,0.13-0.44,0.17-0.58,0.17c-0.3,0.01-0.47-0.05-0.58-0.2l-0.02-0.04c-0.23-0.06-0.37-0.19-0.43-0.37
				c-0.01-0.04-0.02-0.07-0.02-0.11c-0.16,0.05-0.28,0.06-0.44-0.06c-0.21-0.18,0.08-1.1,1.08-2.04c0.7-0.66,1.36-1.04,1.97-1.32
				c0.47-0.21,0.74,0.2,0.52,0.47c-0.27,0.34-0.49,0.92-0.21,1.52c0.29-0.1,0.4-0.15,0.44-0.16c0.11-0.05,0.24-0.08,0.39-0.27
				c0.02-0.02,0.03-0.05,0.05-0.1l-0.42,0.05c0.21-0.53-0.12-1.81,0.1-2.63c-0.05,0.04-0.2,0.14-0.28,0.16
				c-0.15-0.75-0.13-1.95-0.07-2.54c-0.01-0.15-0.23-0.42-0.52-0.72c-0.24,0.6-0.64,1.32-1.32,2.17c-0.53,0.65-1.48,1.24-1.97,3.33
				c0,0.01,0,0.01-0.01,0.02c-0.08,0.34-0.2,0.64-0.34,0.95c-0.32,0.66-0.3,1.04-0.3,1.04v-0.01c0.04,1.32-0.03,4.05-0.34,5.57
				c-0.28,1.33-0.76,2.01-0.76,2.01l-0.07-0.06c-0.12,0.45-0.34,1.25-0.86,1.88c0,0-0.44-0.89-1.26-7.69
				c-0.89-7.48-1.34-15.29-1.34-15.29l0,0c-0.08-1.38,0.23-2.99,0.63-4.18c0.73-1.89,1.99-3.71,2.76-4.46
				c0.48-0.47,1.02-0.58,1.54-0.48c-0.15-0.19-0.31-0.41-0.31-0.41c-0.52-0.68-1.11-1.43-1.61-2.1c-3.66,6.44-3.57,14.12-3.57,14.19
				l0.01,0.82l-0.64-0.34c-2.88-1.63-4.13-2.62-5.06-3.39c-0.04,0.78-0.12,3.43-0.12,3.43c0,0.05,0,0.6,0,1.61
				c0,3.07,0.55,10.61,3.06,15.79c0.34,0.64,1.29,2.38,2.98,3.96c1.28,1.21,2.78,2.07,4.44,2.6c0.1,0.03,0.29,0.1,0.38,0.13
				c1.91,0.61,4,0.48,6.04-0.54L335.12,54.48z"/>
			<path class="st4" d="M336.68,56.42c0.05-0.91,0.19-2.25,0.39-3.45c-0.3,0.29-0.54,0.43-0.57,0.43c-0.05,0-0.1-0.05-0.15-0.13
				c-0.57,1.4-1.38,3.37-1.38,3.38C335.33,56.35,335.93,56.12,336.68,56.42z"/>
			<path class="st4" d="M342.23,57.33c0.05-0.95-0.34-3.51-0.58-4.96c-0.03-0.04-0.05-0.08-0.08-0.12c-0.05-0.06-0.09-0.13-0.14-0.2
				c-0.08,0.29-0.19,0.6-0.33,0.91c-0.16,0.35-0.42,0.73-0.47,0.73c-0.05-0.01-0.73-0.49-1.17-1.44c-0.44,0.93-1.12,1.42-1.16,1.42
				c-0.05,0.01-0.31-0.37-0.47-0.73c-0.07-0.16-0.14-0.33-0.19-0.49c-0.23,1.53-0.56,3.98-0.52,4.89c-1.42-0.93-2.29,0-1.99,0.65
				c0.03,0.05,0.06,0.11,0.1,0.15c0.17,0.23,0.39,0.34,0.71,0.37c0.45,0.03,1.06,0.08,1.75,0.4c0.63,0.29,1.31,0.78,2,1.64
				c0.69-0.86,1.36-1.34,1.99-1.64c0.69-0.32,1.29-0.37,1.75-0.4c0.31-0.03,0.53-0.16,0.71-0.37c0.04-0.05,0.06-0.1,0.1-0.15
				C344.51,57.33,343.65,56.4,342.23,57.33z"/>
			<path class="st4" d="M342.74,53.41c-0.02,0-0.22-0.11-0.47-0.34c0.2,1.05,0.37,2.37,0.43,3.36c0.74-0.31,1.33-0.08,1.71,0.24
				c-0.01-0.02-0.87-2.22-1.39-3.57C342.89,53.28,342.76,53.41,342.74,53.41z"/>
		</g>
		<g>
			<path d="M337.35,25.05L337.35,25.05L337.35,25.05"/>
		</g>
		<g>
			<polyline points="336.56,25.38 336.56,25.38 336.56,25.38 			"/>
		</g>
		<path d="M349.4,29.16c-0.1,0.51-0.28,0.72-0.73,1.04c-0.24-0.75-0.38-1.35,0.69-3.57c-0.73,2.18-0.42,2.89-0.42,2.89
			S349.22,29.4,349.4,29.16z M348.22,27.63c0,0-0.25-0.49,0.4-2.38c-1.2,1.8-0.67,3.06-0.67,3.06s0.63-0.31,0.79-0.99
			C348.55,27.55,348.22,27.63,348.22,27.63z M352.49,24.42c-0.19,1.9-0.35,2.3-0.55,2.63c-0.16-0.12-0.31-0.51-0.31-0.51
			c-0.06,0.34,0.02,0.87,0.32,1.15C352.34,27.2,352.62,26.14,352.49,24.42z M352.12,23.14c-0.3,2.13-0.64,2.62-0.88,2.98
			c-0.17-0.13-0.33-0.65-0.33-0.65c-0.08,0.38-0.02,0.98,0.3,1.31C351.67,26.24,352.18,25.08,352.12,23.14z M350.51,25.21
			c-0.2-0.58-0.15-1.15-0.15-1.15c-0.29,0.83-0.2,1.51,0.09,1.87c0.49-0.51,1.21-2.1,1.11-3.57
			C351.26,24.12,350.77,24.86,350.51,25.21z M349.75,23.99c-0.15-0.6-0.06-1.5-0.06-1.5c-0.37,0.81-0.32,1.9-0.05,2.27
			c0.54-0.46,1.29-1.84,1.33-3.32C350.49,23.19,350.04,23.67,349.75,23.99z M352.34,27.6c-0.03,0.44,0.35,0.72,0.35,0.72
			s0.63-0.89,0.38-2.43c-0.13,1.43-0.44,1.93-0.44,1.93S352.38,27.7,352.34,27.6z M353.07,28.26c-0.01,0.39,0.34,0.63,0.34,0.63
			s0.52-0.8,0.25-2.15c-0.06,1.27-0.36,1.74-0.36,1.74S353.11,28.35,353.07,28.26z M327.06,27.11c-0.2-0.34-0.35-0.73-0.55-2.63
			c-0.14,1.72,0.15,2.78,0.54,3.27c0.3-0.28,0.38-0.81,0.32-1.15C327.37,26.61,327.22,27,327.06,27.11z M327.76,26.19
			c-0.24-0.36-0.57-0.85-0.88-2.98c-0.07,1.94,0.44,3.09,0.91,3.64c0.32-0.33,0.38-0.93,0.3-1.31
			C328.09,25.54,327.93,26.06,327.76,26.19z M328.49,25.27c-0.26-0.34-0.76-1.09-1.05-2.86c-0.09,1.48,0.62,3.07,1.11,3.57
			c0.3-0.34,0.38-1.03,0.09-1.87C328.64,24.12,328.69,24.68,328.49,25.27z M329.25,24.06c-0.29-0.33-0.74-0.81-1.21-2.54
			c0.05,1.48,0.8,2.85,1.33,3.32c0.26-0.37,0.31-1.47-0.06-2.28C329.32,22.56,329.39,23.46,329.25,24.06z M326.36,27.89
			c0,0-0.32-0.5-0.44-1.93c-0.24,1.54,0.38,2.43,0.38,2.43s0.39-0.27,0.35-0.72C326.62,27.77,326.36,27.89,326.36,27.89z
			 M325.71,28.53c0,0-0.3-0.47-0.36-1.74c-0.26,1.35,0.24,2.15,0.24,2.15s0.35-0.24,0.34-0.63
			C325.89,28.41,325.71,28.53,325.71,28.53z M330.06,29.58c0,0-0.29-0.12-0.46-0.37c0.1,0.51,0.28,0.72,0.73,1.04
			c0.24-0.75,0.38-1.35-0.69-3.57C330.38,28.87,330.06,29.58,330.06,29.58z M330.78,27.69c0,0-0.34-0.09-0.52-0.32
			c0.16,0.68,0.79,0.99,0.79,0.99s0.53-1.25-0.67-3.06C331.03,27.21,330.78,27.69,330.78,27.69z M336.12,36.88
			c0.12-0.98-0.42-1.83-0.5-2.23c-0.11,0.12-0.11,0.44-0.11,0.44c-0.35-0.37-0.44-1.03-0.52-1.26c-0.08,0.67-0.32,1.01-0.4,1.33
			c0.15-0.02,0.28-0.05,0.43-0.15C335.21,35.82,335.89,36,336.12,36.88z M343.26,35.15c0,0-0.01-0.33-0.11-0.44
			c-0.08,0.4-0.62,1.25-0.5,2.23c0.24-0.88,0.92-1.06,1.1-1.88c0.15,0.1,0.28,0.14,0.43,0.15c-0.08-0.33-0.33-0.65-0.4-1.32
			C343.7,34.12,343.62,34.78,343.26,35.15z M337.98,34.18c-0.1-0.34-0.28-1.44-0.71-1.92C337.11,33.07,337.64,33.84,337.98,34.18z
			 M340.68,35.26c0.19-0.46,0.59-0.91,0.58-2.37C340.82,33.34,340.63,34.71,340.68,35.26z M339.82,35.82
			c0.23-0.59,0.21-1.32-0.04-1.64C339.58,34.82,339.57,35.38,339.82,35.82z M339.16,34.07c0.22-0.67,0.17-1.49-0.12-1.84
			C338.85,32.91,338.86,33.54,339.16,34.07z M343.85,28.08c-0.41,0.54-0.52,1.79-0.64,2.2C343.35,30.14,344.09,28.38,343.85,28.08z
			 M343.89,26.09c-0.01-0.02,0.67-1.19,0.29-1.83C343.73,24.35,343.9,26.09,343.89,26.09z M341.94,28.95c0-0.01,1.05-1.02,1.02-2.29
			c-0.3,0.85-1.02,1.21-1.02,1.21s-0.4-0.24-0.58-0.8C341.22,28.36,341.95,28.96,341.94,28.95z M344.02,27.5
			c0.28-0.44,0.67-1.09,0.35-1.51C344.22,26.41,344.14,26.89,344.02,27.5z M340.73,32.47c0.18-0.43,0.65-1.22,0.55-2.13
			C340.88,30.68,340.7,31.92,340.73,32.47z M342.25,31.11c0.63-0.77,0.95-1.66,0.68-2.57C342.37,29.42,342.36,30.3,342.25,31.11z
			 M340.9,28.41c-0.17,0.62-0.44,1.02-0.9,1.48c-0.19-0.18-0.38-0.39-0.64-0.92c-0.1,1.02,0.48,1.61,0.82,1.84
			C340.36,30.64,341.05,29.67,340.9,28.41z M338.16,31.01c-0.13-0.04-0.74-0.61-0.93-0.97c0.09,0.58,0.89,1.71,1.26,1.94
			c0.13-0.21,0.59-1.12,0.18-2.59C338.5,30.28,338.33,30.72,338.16,31.01z M334.48,24.05c-0.08-0.51,0.54-0.97,0.34-1.79
			C334.19,22.97,334.31,23.63,334.48,24.05z M335.74,30.04c0.35,0.59,0.63,0.86,0.91,1.14c-0.44-0.66-0.79-1.9-1.22-2.23
			C335.39,29.15,335.54,29.71,335.74,30.04z M335.44,27.3c-0.24,1.03,0.79,2.01,0.79,2.03C336.23,29.34,336.23,28.1,335.44,27.3z
			 M336.17,25.36c-0.02,0.44-0.01,0.83-0.11,1.32c-0.29-0.07-0.43-0.27-0.64-0.45c0.17,0.58,0.9,1.25,1.01,1.42
			C336.52,26.86,336.56,25.9,336.17,25.36z M335.72,22.71c0.28-1.03,0.86-1.61,1.06-2.21C335.75,21.23,335.53,22.34,335.72,22.71z
			 M334.84,27.22c-0.14-0.87-0.08-1.46-0.51-2.23C334.18,25.92,334.74,27.09,334.84,27.22z M337.4,23.82
			c-0.7,0.86,0.37,1.94,0.37,1.96C337.77,25.76,337.86,24.14,337.4,23.82z M337.92,21.46c-1.03,0.77-0.54,1.5-0.35,1.9
			C337.77,22.6,337.86,22.4,337.92,21.46z M338.52,28.39c0.18-0.39,0.67-1.12,0.42-2.34c-0.09,0.92-0.68,1.32-0.67,1.32
			c0,0-0.34-0.18-0.59-0.73C337.75,27.77,338.17,28.08,338.52,28.39z M343.76,21.59c-0.07,0.58,0.6,1.9,0.63,2
			C344.4,23.49,344.77,22.4,343.76,21.59z M342.36,19.29c-0.09,0.5,0.71,1.24,0.71,1.25C343.07,20.54,343.18,19.59,342.36,19.29z
			 M343.54,23.07c-0.24,1.09-0.71,1.51-0.71,1.51s-0.38-0.31-0.7-0.73c-0.02,0.88,0.73,1.74,0.73,1.73
			C342.84,25.57,343.77,24.84,343.54,23.07z M341.34,21.03c-0.42,0.44-0.03,1.33,0.21,2.14C341.77,22.78,342.03,21.45,341.34,21.03z
			 M341.69,19.78c-0.01-0.39-0.13-1.08-1.02-1.21C340.62,19.02,341.4,19.31,341.69,19.78z M340.71,18.11
			c0.2,0.21,0.86,0.36,1.22,0.7C341.88,18.24,341.31,17.9,340.71,18.11z M339.82,20.65c-0.63,0.68-0.24,1.25-0.24,1.24
			C339.58,21.88,340.34,21.06,339.82,20.65z M340.76,27.15c0,0,0.8-0.73,0.86-2.26c-0.44,0.75-0.93,1.17-0.93,1.17
			s-0.43-0.29-0.77-0.72C339.92,26.32,340.77,27.16,340.76,27.15z M339.59,22.97c-0.71,1.05,0,2.15,0,2.14
			C339.58,25.11,340.07,23.65,339.59,22.97z M339.83,15.46c0.19,0.19,0.81,0.45,1.14,0.77C340.93,15.7,340.47,15.42,339.83,15.46z
			 M340.15,16.07c-0.36-0.43-0.84-0.58-1.09-0.62C339.35,15.8,339.65,16.1,340.15,16.07z M341.42,17.14
			c-0.03-0.12-0.32-0.53-0.93-0.65c0.17,0.15,0.27,0.44,0.34,0.54c-0.12,0.06-0.44,0.1-0.55,0.12
			C340.49,17.31,340.9,17.34,341.42,17.14z M335.88,15.61c-0.05,0.04-0.11,0.21,0.09,0.22c0.17,0.01,0.2-0.18,0.2-0.18
			S335.96,15.56,335.88,15.61z M341.24,5.11c-0.19-0.15-0.33-0.24-0.53-0.39c-0.18,0.12-0.38,0.29-0.52,0.4
			c0.18,0.14,0.31,0.24,0.51,0.38C340.91,5.34,341.01,5.27,341.24,5.11z M337.96,15.17c0,0,0.07,0.13,0.04,0.34
			c-0.03,0.21-0.13,0.41-0.44,0.49c-0.34,0.08-0.68-0.13-0.69-0.48c0-0.09,0.02-0.21,0.06-0.29c-0.11,0.01-0.12,0.09-0.23,0.23
			c-0.06,0.08-0.17,0.07-0.33,0.17c0-0.2,0.23-0.53,0.48-0.63c0.37-0.16,1.66-0.23,2.58,0.25c-0.32-0.05-0.6-0.04-0.91-0.05
			C338.16,15.16,337.96,15.17,337.96,15.17z M337.79,15.17c-0.04-0.03-0.33-0.02-0.36,0.04c-0.04,0.05,0.17,0.15,0.24,0.17
			c0.05,0.02,0.1-0.01,0.13-0.06C337.84,15.26,337.83,15.19,337.79,15.17z M342.07,7.64c-2.53-0.14-7.47,0.13-9.89,0.79
			c0,0-0.25-0.63-0.47-0.86c-0.64-0.69-0.91,0.05-0.92,0.15c0.82,0.05,0.95,0.46,0.95,0.46c-0.19,0.35-0.34,0.47-0.79,0.78
			c-0.15,0.1-0.66,0.43-1.39,0.48c-1.53,0.07-1.12-1.51-0.19-2.17c-0.12,0.15-0.66,0.98-0.33,1.41c0.38,0.48,1.79,0.09,2.13-0.34
			c-0.19-0.18-0.54-0.23-1.03-0.18c0.03-0.25,0.14-0.9,0.87-1.52c0.26,0.06,1.01,0.46,1.27,1.1c2.23-0.6,6.32-0.77,6.51-0.78
			c-0.05-0.39-0.18-1.85-0.19-1.93c-0.02-0.24,0.14-0.34,0.29-0.44c0.17,0.3,0.33,0.44,0.71,0.57c-0.15,0.17-0.28,0.25-0.45,0.38
			c0.03,0.29,0.05,0.83,0.05,1.04c0.36-0.15,0.87-0.37,1.49-0.52c0.22-0.05,0.5-0.08,0.67-0.06c0.22,0.03,0.47,0.14,0.59,0.25
			c0.11,0.1,0.24,0.26,0.24,0.47C342.24,7.07,342.16,7.38,342.07,7.64z M341.55,6.69c-0.32-0.52-1.49-0.05-2.23,0.25
			c0.44-0.01,0.8-0.02,1.26-0.01c0.18,0,0.67,0.01,1,0.02C341.59,6.86,341.61,6.79,341.55,6.69z M331.01,9.42
			c-0.15-0.05-0.28-0.09-0.45-0.14c-0.12,0.16-0.24,0.39-0.32,0.53c0.22,0.07,0.39,0.13,0.63,0.2c0.09-0.15,0.15-0.24,0.23-0.36
			c0.15,0.05,0.27,0.09,0.44,0.14c0.14-0.21,0.19-0.31,0.34-0.53c-0.24-0.07-0.4-0.13-0.64-0.2C331.15,9.17,331.08,9.3,331.01,9.42z
			 M349.68,7.54c0.5-0.05,0.96,0.08,1.18-0.15c-0.31-0.09-0.63-0.17-0.73-0.33c0.14-0.11,0.33,0.04,0.43,0.12
			c0.07-0.06,0.11-0.1,0.19-0.17c-0.33-0.26-0.83-0.11-0.94,0.16c0.09,0.05,0.24,0.1,0.28,0.16C349.96,7.37,349.76,7.47,349.68,7.54
			z M349.39,8.46c-0.2,0.47-0.38,0.94-0.62,1.38c0.14,0.05,0.33-0.06,0.46-0.15c0.62-0.38,1.07-1.42,1.31-2.05
			c0.01-0.02-0.36,0.07-0.55,0.16C349.62,7.97,349.56,8.07,349.39,8.46z M344.71,8.69c0.15,0.15,0.27,0.27,0.44,0.44
			c0.24-0.13,0.34-0.19,0.59-0.32c-0.17-0.16-0.27-0.28-0.45-0.44C345.08,8.45,344.85,8.6,344.71,8.69z M348.89,8.2
			c-0.1,0.34-0.35,0.55-0.51,0.76c-0.86-0.34-2.77-0.82-3.82-0.93c-0.28,0.31-0.71,0.73-1.15,0.83c-0.65-0.08-1.07-0.25-1.52-0.44
			c0.25,0.02,0.33,0.02,0.51,0.01c0.64-0.02,1.22-0.22,1.63-0.48c-0.92-0.14-1.12-0.39-0.69-0.97c0.2-0.26,0.54-0.74,1.02-0.62
			c0.38,0.1,0.47,0.63,0.43,1.04c1.07,0.13,2.43,0.5,3.47,0.85c0.07-0.3-0.12-0.44-0.24-0.66c0.15-0.16,0.39-0.35,0.57-0.48
			C348.83,7.28,348.99,7.87,348.89,8.2z M343.85,6.84c-0.02,0-0.18,0.1-0.27,0.29c0.08,0.13,0.24,0.18,0.49,0.21
			c0.04,0.01,0.09,0.01,0.13,0.01C344.32,7.09,344.07,6.77,343.85,6.84z M332.47,9.01c0.21,0.09,0.36,0.16,0.59,0.26
			c0.16-0.19,0.24-0.28,0.42-0.49c-0.23-0.1-0.38-0.17-0.62-0.26C332.72,8.66,332.57,8.87,332.47,9.01z M358.53,48.81
			c-1.4,2.75-3.13,4.45-5.51,5.96c-3.47,2.2-7.08,1.68-8.26,0.99c0,0,0.09,0.23,0.13,0.31c0.04,0.08,0.09,0.21,0.11,0.28
			c0.46,1.25,0.15,2.55-1.55,2.75c-0.44,0.05-0.94,0.07-1.53,0.34c-0.41,0.19-0.87,0.51-1.38,1.03c-0.21,0.22-0.65,0.78-0.87,1.22
			l0,0l0,0l0,0c-0.22-0.44-0.65-1.01-0.87-1.22c-0.5-0.53-0.96-0.83-1.37-1.03c-0.59-0.27-1.09-0.29-1.53-0.34
			c-1.7-0.19-2-1.5-1.54-2.75c0.03-0.07,0.07-0.2,0.11-0.27l0.13-0.31c-0.86,0.5-2.99,0.89-5.48,0.21
			c-0.06-0.02-0.18-0.05-0.24-0.06c-2-0.53-3.76-1.51-5.26-2.93c-1.81-1.7-2.79-3.53-3.17-4.22c-3.3-6.82-2.84-16.95-2.85-18.03
			c-0.11-11.68,2.48-18.24,4.7-21.42c-0.67-0.88-1.08-1.42-1.11-1.45c-0.23-0.23-0.61-0.57-1.4-0.68c-0.22-1.53-0.79-3.35-0.79-3.35
			s1.53,1.1,2.96,1.72c-0.11,0.77,0.09,1.24,0.28,1.52c0.03,0.04,0.34,0.46,0.88,1.17c0.98-1.22,2.03-2.12,3.67-3.08
			c0.4-0.23,0.82-0.44,1.28-0.64c-0.03-0.63,0.18-1.22,0.6-1.63c0.02-0.36,0.32-0.81,0.68-0.94l0,0c0.38-0.1,0.94,0.07,1.22,0.34
			c0.63,0.09,1.22,0.41,1.65,0.9c1.35-0.29,2.89-0.5,4.66-0.61c0.21-0.86,0.76-1.48,1.45-1.82c0.18-0.37,0.7-0.74,1.13-0.77l0,0l0,0
			l0,0c0.44,0.03,0.96,0.4,1.13,0.77c0.69,0.34,1.24,0.96,1.45,1.82c1.77,0.11,3.3,0.33,4.65,0.61c0.44-0.49,1.03-0.82,1.65-0.9
			c0.28-0.26,0.84-0.44,1.22-0.34l0,0c0.36,0.14,0.67,0.59,0.69,0.94c0.41,0.42,0.63,1.01,0.6,1.63c0.45,0.21,0.88,0.43,1.28,0.64
			c1.65,0.95,2.79,1.99,3.75,3.11c0.59-0.78,0.94-1.25,0.97-1.3c0.19-0.28,0.39-0.75,0.28-1.52c1.42-0.62,2.96-1.72,2.96-1.72
			s-0.57,1.81-0.79,3.36c-0.79,0.11-1.17,0.46-1.4,0.68c-0.04,0.04-0.5,0.64-1.25,1.64c2.21,3.19,4.76,9.7,4.65,21.31
			C361.4,31.67,361.83,41.99,358.53,48.81z M357.5,12.11c-1.4,0.3-2.28,0.28-2.8,0.26c-0.35,0.76-0.64,1.47-0.62,2.77
			c-0.57-0.17-0.86-0.34-1.17-0.65c-0.4,0.54-0.63,0.83-1.04,1.38c3.67,6.55,3.66,12.59,3.74,14.3c2.86-1.62,4.66-3.16,5.03-3.46
			C360.28,20.65,359.35,16.07,357.5,12.11z M351.67,30.36c-0.09,0.7-0.09,1.29,0.09,1.93c0.34-0.44,0.55-0.83,0.8-1.6
			c0,0.61,0.18,1.28,0.31,1.55c0.44-0.63,0.69-3.2,0.69-3.2s0.02,0.06,0.24,0.15c0.24-0.92,0.11-2.79-0.09-3.68
			c-0.34-1.56-0.95-3.45-2.86-5.69c-0.98-1.15-1.81-0.63-2.63,0.27c-1.33,1.45-1.62,2.1-3.22,2.39c-0.02,0-0.02,0-0.01,0
			c-0.16,0.03-0.04,0.11,0.27,0.1c1.92-0.04,2.53-1.31,3.1-1.94c0.38-0.43,0.87-0.81,1.29-0.56c0.15,0.09,0.68,0.7,0.14,2.2
			c0-0.34-0.13-0.64-0.2-0.72c-0.25,1-0.59,1.8-0.99,2.48c-0.05-0.16-0.09-0.32-0.12-0.54c-0.19,1.22-1.28,2.49-1.43,4.22
			c-0.11-0.19-0.21-0.31-0.22-0.76c-0.83,1.51-1.68,4.25-1.14,5.61c-0.03-1.39,0.83-3.38,1.27-4.02c-0.56,1.78-1.22,3.99-0.65,5.32
			c0.04-1.13,0.69-2.99,1.16-3.76c-0.78,2.93-1.1,4.43-0.24,5.56c-0.15-1.1,0.3-2.77,0.91-4.13c-0.41,2.29-0.98,4.28,0.09,5.29
			c-0.15-1.5,0.42-3.49,0.73-4.19c-0.35,2.21-0.65,4.35,0.05,5.41c0-0.76,0.14-1.55,0.29-2.3c0.19-0.97,0.47-1.9,0.47-1.9
			s-0.23,1.54-0.34,3.43c-0.02,0.32-0.03,0.63-0.02,0.94c0.01,0.38,0.04,0.77,0.12,1.15c0.06,0.33,0.15,0.66,0.34,0.94
			c0.19-2.49,0.48-4.64,0.82-5.65c0,0-0.28,2.33-0.47,5.91c-0.01,0.13-0.01,0.25-0.02,0.38c-0.24,5.13,0.46,6.78,0.68,7.28
			c0,0-0.05-0.1-0.06-0.75c-0.02-0.55-0.02-0.52,0.05-1.14c0.02-0.18-0.45-1.12-0.39-2.39c0.04-0.76,0.09-1.52,0.15-2.26
			c0.05-0.68,0.12-1.33,0.19-1.97c0.08-0.57,0.14-1.12,0.22-1.71c0.11-0.83,0.27-1.65,0.43-2.48c0.12-0.65,0.05-0.08,0.05,0.08
			c-0.06,0.73-0.19,2.36-0.33,4.02c-0.09,1.24-0.36,3.7-0.31,4.89c0.05,1.03,0.34,1.48,0.34,1.64c-0.05,2,0.15,2.81,0.49,3.57
			c0,0,0.21-0.72,0.36-1.61c-0.04,0.05-0.1,0.15-0.2,0.18c-0.25-0.65-0.38-1.79-0.22-2.97c0.03-0.21-0.28-0.47-0.25-1.42
			c0.04-1.48,0.24-2.95,0.42-4.41c0.06-0.49,0.13-0.96,0.2-1.42c0.05-0.29,0.09-0.58,0.14-0.87c0.06-0.46,0.15-0.93,0.24-1.39
			c0.02-0.07,0.03-0.15,0.05-0.21c0,0.01-0.01,0.34-0.05,0.79c-0.16,1.98-0.61,7.02-0.62,7.43c-0.02,0.99,0.25,1.29,0.24,1.47
			c-0.06,0.72-0.04,2.03,0.06,2.36c0.09-0.29,0.15-0.83,0.15-0.83s0.28-2.05,0.61-4.96c0.05-0.45,0.1-0.9,0.15-1.34
			c0.05-0.42,0.09-0.85,0.14-1.3c0.05-0.52,0.1-1.03,0.15-1.56c0.02-0.23,0.04-0.44,0.06-0.67c0.12-1.37,0.26-2.92,0.37-4.28
			c0,0,0.18-2.22,0.23-2.89c-0.06-0.05-0.11-0.08-0.11-0.08s-0.25,2.74-0.98,3.71c-0.2-0.18-0.44-1.21-0.42-1.55
			c-0.16,0.54-0.83,1.28-0.83,1.28s-0.23-0.54-0.2-1.44c-0.23,0.33-0.42,0.57-0.75,0.75c-0.14-0.31-0.3-0.66-0.28-1.51
			c-0.12,0.15-0.32,0.35-0.62,0.54c-0.09-0.21-0.58-0.99,0.31-3.85c-0.35,2.65-0.15,2.96-0.07,3.17c0.15-0.06,0.3-0.17,0.41-0.26
			c0.04-0.48,0.12-1.1,0.27-1.89c-0.13,2.1,0.04,2.77,0.2,3.17C351,31.67,351.29,31.28,351.67,30.36z M345.21,31.26
			c0.21-2.72,0.68-4.36,1.05-5.77C344.82,27.06,345.03,30.7,345.21,31.26z M345.49,25.33c0.45-1.37,0.07-2.06-0.19-2.2
			C345.29,23.76,345.45,24.05,345.49,25.33z M346.66,26.46c0.35-1.25,0.56-2.01,0.56-3.05C346.88,23.78,346.61,25.13,346.66,26.46z
			 M347.9,23.77c0.11-0.45,0.13-1.04,0.05-1.52c-0.2,0.46-0.44,1.47-0.39,2.39C347.67,24.37,347.82,24.08,347.9,23.77z M344.6,34.05
			c0-0.03,0-0.05,0.02-0.07c0,0,0.01-0.01,0.02-0.01c0.01-0.01,0.03-0.01,0.03-0.01c0.04,0,0.09,0.03,0.18,0.08
			c0.05,0.04,0.11,0.07,0.19,0.11c-0.11-0.24-0.13-0.6-0.15-1c-0.03-0.41-0.04-0.83-0.16-1.24c0,0.01-0.03-0.04-0.03-0.05
			c-0.07,0.2-0.21,0.39-0.35,0.58c-0.21,0.27-0.43,0.56-0.49,0.94l-0.01,0.07l-0.05-0.05c0.11,0.1-0.3-0.36-0.31-0.37
			c-0.16,0.6-1.18,1.89-1.42,2.16l0,0c-0.04,0.05-0.43,0.63-0.58,2.08c-0.15,1.37,0,2.2,0,2.2l0.36-0.39c0,0,0.02,0.38-0.03,0.82
			c-0.04,0.34-0.15,0.61-0.15,0.61s0.72,0.12,1.27-0.55l0.1,0.26c0.09,0.26,0.16,0.57-0.05,0.73c-0.04,0.03-0.38,0.33-0.34,0.63
			c0.02,0.11,0.07,0.2,0.2,0.29l0.01,0.01v0.02c0.01,0.16,0.14,0.25,0.22,0.3c-0.03-0.14-0.01-0.23,0.01-0.28
			c0.07-0.19,0.21-0.24,0.32-0.25c0.08-0.01,0.16,0.02,0.16,0.02s0.09,0.83,0.16,1.17c0.06,0.3,0.15,0.69,0.19,1.12
			c0.01,0.1,0.02,0.19,0.03,0.29c0.04,0.28,0.2,0.31,0.34,0.34c0.08,0.01,0.27,0,0.35-0.01l0.02,0.01l-0.02,0.01
			c-0.22,0.06-0.2,0.15-0.19,0.17c0.03,0.13,0.1,0.28,0.02,0.54l0.04,0.03c0.33-0.18,0.33-0.48,0.29-0.74v-0.02l0.02-0.01
			c0.24-0.15,0.19-0.64-0.16-1.4c-0.16-0.35-0.24-0.94-0.13-1c0.01,0,0.02-0.01,0.02-0.01c0.05-0.01,0.13,0,0.29,0.24
			c0.12,0.17,0.24,0.32,0.38,0.5c0.15,0.17,0.24,0.34,0.24,0.48c0,0.05-0.02,0.09-0.05,0.12c-0.03,0.02-0.05,0.03-0.11,0.04
			c-0.07,0.01-0.16-0.01-0.23-0.02c0.08,0.08,0.38,0.43,0.47,0.32c0.23-0.26,0.02,0.16,0.42,0.2c0.25,0.01,0.44-0.15,0.45-0.47
			c0-0.11-0.02-0.18-0.04-0.27c-0.05-0.29-0.28-0.58-0.39-0.7l-0.09-0.09c-0.66-0.73-0.61-0.89-0.56-0.96
			c0.06-0.12,0.13-0.15,0.3-0.15c0.26-0.01,0.54,0.04,0.55,0.04c0.27,0.05,0.71,0.12,0.7,0.26c0,0.03-0.04,0.06-0.07,0.08
			c-0.09,0.04-0.24,0.09-0.27,0.05c0.03,0.04,0.12,0.11,0.25,0.17c0.11,0.05,0.56,0.18,0.71-0.04l0.05-0.1
			c0.08,0,0.3-0.04,0.34-0.19c0.05-0.15-0.15-0.34-0.34-0.44c-0.15-0.08-0.61-0.26-0.98-0.37c-0.15-0.05-0.34-0.08-0.47-0.12
			l-0.8-0.21c-0.02-0.01-0.44-0.14-0.59-0.21c-0.08-0.04-0.14-0.06-0.17-0.08c-0.14-0.07-0.24-0.15-0.34-0.29
			c-0.09-0.12-0.17-0.44-0.27-0.8c0.1,0.05,0.34,0.22,0.64,0.26c-0.03-0.12-0.05-0.51-0.03-0.72c0.13-1.32,0.15-2.07,0.15-2.07
			s0.23,0.24,0.26,0.27c0.05-0.23-0.04-0.78-0.08-1.32c0-0.01,0-0.01,0-0.01C344.82,35.2,344.71,34.58,344.6,34.05z M345.54,40.32
			l0.62,0.16c0.09,0.03,0.19,0.05,0.3,0.07c0.11-0.29,0.15-0.6,0.15-0.9c-0.02-0.34,0.77,0.38,1.29,0.91
			c0.22,0.22,0.26,0.13,0.14-0.05c-0.52-0.72-1.55-1.4-1.84-1.57c-0.5-0.31-0.74-0.24-0.58,0.04
			C345.8,39.29,345.76,39.8,345.54,40.32z M346.47,45.44c0.59,0.73,1.51,2.11,1.88,2.49c0.77,0.8,1.1,0.89,1.69,0.93
			c-0.19-0.55-0.39-1.08-1.29-2.5c-0.47-0.75-1.26-1.96-2.08-2.87c0,0.14-0.01,0.27-0.05,0.41c-0.02,0.03-0.03,0.06-0.05,0.09
			c-0.05,0.09-0.13,0.17-0.21,0.24c-0.13,0.09-0.29,0.13-0.45,0.12c-0.16-0.02-0.3-0.08-0.39-0.18c-0.09,0.01-0.19-0.02-0.28-0.07
			c0.04,0.28-0.02,0.49-0.15,0.63c0,0.17-0.04,0.52-0.31,0.78c0.03,0.04,0.05,0.06,0.05,0.06c0.19,0.34,0.11,0.52,0.02,0.63
			c-0.08,0.1-1.02,1.13-1.22,1.32c-0.24,0.23-0.51-0.03-0.51-0.03l-0.15-0.13c0,0-0.24,0.24-0.43,0.43
			c0.02,0.02,0.04,0.04,0.05,0.05l0,0c0.3,0.27,0.67,0.48,1.04,0.64c0.34,0.15,1.32,0.51,2,0.79c-0.15-0.49-0.34-1.05-0.54-1.61
			c0.17,0.24,0.65,1.08,1.06,1.83c-0.03-0.01,0.05,0.03,0.03,0.01c0.54,0.24,1.24,0.6,1.78,0.93c-0.05-0.19-0.08-0.31-0.08-0.31
			s-0.49-0.51-0.83-0.99c-0.68-0.98-1.12-2-1.33-2.68c0.77,1.16,0.96,1.49,1.27,1.9c0.97,1.31,2,1.87,2.4,1.88
			c-0.14-0.73-0.4-0.89-0.4-0.89s-0.48-0.4-0.99-1.1c0.12,0.16,0.24,0.33-0.03-0.04c-0.2-0.27-0.12-0.16-0.02-0.03
			C347.49,47.56,346.96,46.64,346.47,45.44z M343.82,51.83c1.32,0.16,4.13,0.13,5.13-0.26c-0.38-0.31-1.99-1.33-4.44-2.32
			c-0.51-0.22-1.16-0.45-1.61-0.77c-0.27-0.19-0.46-0.34-0.73-0.59c-0.81-0.74-2.93-2.96-3.31-3.37l-1.42,1.3
			c0,0,3.74,3.65,4.68,4.16c1.21,0.65,4.65,1.43,4.65,1.43s-2.64-0.2-4.65-1.02c-1.21-0.49-5.03-4.26-5.03-4.26l-0.93,0.85
			c0.47,0.53,1.5,1.68,3.17,3.03C340.51,50.97,341.91,51.6,343.82,51.83z M339.76,50.99c0.01,0.72,0.59,1.44,0.73,1.56
			c0,0,0.22-0.27,0.33-0.97C340.33,51.37,339.99,51.15,339.76,50.99z M333.38,46.38c-0.22,0.68-0.65,1.7-1.33,2.68
			c-0.34,0.48-0.83,0.98-0.83,0.98s-0.03,0.09-0.05,0.23l-0.1,0.05l0.56-0.31c0.09-0.05,0.18-0.09,0.27-0.14
			c0.36-0.2,0.78-0.38,1.18-0.56c0.4-0.72,0.87-1.58,1.03-1.8c-0.05,0.18-0.14,0.66-0.57,1.61l0.31-0.12
			c0.63-0.25,1.19-0.44,1.45-0.57c0.44-0.2,0.64-0.37,0.82-0.5c0.04-0.03,0.1-0.08,0.18-0.16c0.01,0.01-0.45-0.45-0.45-0.45
			l-0.15,0.13c0,0-0.26,0.25-0.51,0.03c-0.21-0.19-1.14-1.22-1.22-1.32c-0.09-0.11-0.2-0.29,0.02-0.63c0,0,0.01-0.01,0.01-0.02
			c-0.29-0.26-0.34-0.63-0.33-0.81c-0.14-0.15-0.18-0.35-0.15-0.63c-0.09,0.05-0.19,0.08-0.28,0.07c-0.1,0.1-0.23,0.17-0.39,0.18
			c-0.03,0-0.05,0-0.05,0c-0.16,0-0.31-0.04-0.42-0.14c-0.13-0.11-0.13-0.1-0.23-0.29c-0.01-0.01-0.01-0.03-0.02-0.04
			c-0.54,0.56-1.04,1.29-1.76,2.44c-0.9,1.42-1.11,1.94-1.3,2.49c0.59-0.04,0.92-0.13,1.69-0.93c0.35-0.37,1.29-1.75,1.88-2.49
			c-0.5,1.22-1.03,2.14-1.49,2.76c-0.53,0.72-1.05,1.15-1.05,1.15s-0.23,0.14-0.36,0.86c0.4-0.01,1.43-0.57,2.4-1.88
			C332.41,47.87,332.61,47.54,333.38,46.38z M332.84,42.51c-0.28,0.3-0.51,0.63-0.51,1.07c0.01,0.31,0.19,0.48,0.44,0.47
			c0.4-0.05,0.19-0.46,0.42-0.2c0.09,0.11,0.39-0.24,0.47-0.32c-0.17,0.03-0.42,0.05-0.37-0.19c0.03-0.19,0.17-0.34,0.28-0.48
			c0.11-0.13,0.43-0.74,0.64-0.66c0.1,0.07,0.04,0.64-0.13,1c-0.35,0.75-0.42,1.25-0.16,1.4l0.02,0.01v0.02
			c-0.04,0.26-0.04,0.56,0.29,0.74l0.03-0.03c-0.08-0.26-0.01-0.42,0.02-0.54c0-0.03,0.02-0.11-0.19-0.17l-0.02-0.01l0.02-0.01
			c0.08,0.01,0.27,0.02,0.35,0.01c0.15-0.03,0.31-0.05,0.34-0.34c0.01-0.1,0.02-0.19,0.03-0.29c0.05-0.43,0.13-0.82,0.19-1.12
			c0.07-0.34,0.16-1.17,0.16-1.17s0.08-0.03,0.16-0.02c0.1,0.01,0.24,0.05,0.32,0.25c0.02,0.05,0.04,0.15,0.01,0.28
			c0.08-0.04,0.21-0.13,0.22-0.3V41.9l0.01-0.01c0.13-0.09,0.19-0.19,0.2-0.29c0.05-0.3-0.3-0.6-0.34-0.63
			c-0.21-0.16-0.14-0.47-0.05-0.73l0.12-0.32c0.11,0.13,0.24,0.25,0.41,0.34c0.48,0.34,0.96,0.26,0.96,0.26s-0.11-0.26-0.15-0.61
			c-0.05-0.44-0.04-0.82-0.04-0.82l0.36,0.39c0,0,0.22-0.73,0.07-2.09c-0.16-1.58-0.5-2.2-0.56-2.42c-0.11-0.35-0.32-0.71-0.32-0.71
			s-0.03,0.19-0.29,0.41c-0.31-0.38-0.84-1.13-0.98-1.64c-0.08,0.15-0.2,0.28-0.3,0.37l-0.05,0.05l-0.01-0.07
			c-0.06-0.38-0.27-0.66-0.49-0.94c-0.15-0.19-0.29-0.38-0.35-0.58c-0.13,0.41-0.15,0.86-0.17,1.27c-0.03,0.4-0.05,0.76-0.15,1
			c0.07-0.05,0.14-0.08,0.19-0.11c0.09-0.05,0.14-0.09,0.17-0.08l0.03,0.01l0.01,0.01c0.02,0.02,0.02,0.05,0.02,0.06
			c-0.12,0.54-0.23,1.16-0.26,1.53c-0.05,0.55,0,1.03,0.04,1.26c0.04-0.04,0.41-0.24,0.41-0.24s-0.24,0.79-0.12,2.1
			c0.02,0.21,0,0.6-0.03,0.72c0.25-0.04,0.46-0.15,0.58-0.23c-0.1,0.34-0.18,0.67-0.26,0.79c-0.33,0.44-1.02,0.56-1.52,0.69
			c-0.63,0.16-1.25,0.3-1.83,0.59c-0.19,0.1-0.38,0.29-0.34,0.44c0.05,0.15,0.26,0.19,0.34,0.19l0.05,0.1
			c0.15,0.21,0.6,0.08,0.71,0.04c0.13-0.06,0.23-0.14,0.24-0.17c-0.03,0.04-0.17-0.02-0.26-0.05c-0.04-0.02-0.06-0.05-0.06-0.08
			c-0.03-0.26,1.09-0.3,1.25-0.3c0.17,0,0.24,0.04,0.3,0.15C333.45,41.62,333.5,41.78,332.84,42.51z M333.17,38.95
			c0.17-0.27-0.08-0.34-0.58-0.04c-0.29,0.18-1.32,0.85-1.84,1.57c-0.13,0.17-0.08,0.27,0.14,0.05c0.52-0.53,1.31-1.24,1.29-0.9
			c-0.01,0.3,0.04,0.61,0.15,0.91c0.08-0.02,0.16-0.04,0.24-0.05l0.68-0.18C333.02,39.78,332.97,39.27,333.17,38.95z M332.04,28.62
			c0.44,0.63,1.3,2.63,1.27,4.02c0.53-1.37-0.33-4.09-1.14-5.61c-0.01,0.44-0.11,0.57-0.22,0.76c-0.15-1.74-1.24-3-1.43-4.23
			c-0.04,0.21-0.07,0.36-0.12,0.54c-0.4-0.68-0.73-1.48-0.99-2.49c-0.07,0.08-0.2,0.37-0.2,0.72c-0.54-1.51-0.02-2.11,0.14-2.2
			c0.42-0.24,0.91,0.15,1.29,0.56c0.57,0.64,1.18,1.91,3.1,1.94c0.32,0.01,0.44-0.07,0.27-0.1c0.02,0,0.01,0-0.01,0
			c-1.6-0.29-1.89-0.93-3.21-2.39c-0.83-0.9-1.65-1.42-2.64-0.27c-1.9,2.24-2.51,4.14-2.86,5.69c-0.19,0.88-0.33,2.77-0.09,3.68
			c0.23-0.08,0.24-0.15,0.24-0.15s0.25,2.56,0.69,3.2c0.13-0.27,0.31-0.94,0.31-1.55c0.24,0.75,0.46,1.16,0.8,1.6
			c0.17-0.64,0.18-1.23,0.09-1.93c0.39,0.92,0.68,1.31,0.89,1.45c0.16-0.41,0.33-1.07,0.2-3.17c0.15,0.8,0.24,1.41,0.27,1.89
			c0.11,0.09,0.25,0.2,0.41,0.26c0.07-0.22,0.28-0.52-0.07-3.17c0.89,2.87,0.39,3.65,0.31,3.85c-0.3-0.17-0.5-0.38-0.62-0.54
			c0.02,0.85-0.15,1.21-0.28,1.51c-0.34-0.18-0.53-0.43-0.75-0.75c0.03,0.9-0.2,1.44-0.2,1.44s-0.67-0.73-0.83-1.28
			c0.02,0.34-0.22,1.37-0.42,1.55c-0.73-0.96-0.98-3.71-0.98-3.71s-0.05,0.04-0.11,0.08c0.04,0.67,0.13,1.71,0.23,2.88v0.01
			c0.12,1.37,0.25,2.91,0.37,4.28c0.29,3.28,0.65,6.57,1.09,9.84c0,0,0.05,0.54,0.15,0.83c0.1-0.33,0.13-1.64,0.06-2.36
			c-0.02-0.18,0.25-0.48,0.24-1.47c-0.01-0.4-0.46-5.45-0.62-7.43c-0.02-0.24-0.05-0.78-0.05-0.78c0.02,0.06,0.03,0.14,0.05,0.21
			c0.15,0.74,0.27,1.51,0.38,2.26c0.06,0.44,0.14,0.93,0.2,1.42c0.2,1.46,0.38,2.94,0.42,4.41c0.03,0.94-0.29,1.21-0.25,1.42
			c0.16,1.17,0.04,2.31-0.22,2.97c-0.1-0.04-0.16-0.13-0.2-0.18c0.16,0.9,0.36,1.61,0.36,1.61c0.34-0.75,0.54-1.56,0.49-3.57
			c-0.01-0.15,0.29-0.61,0.34-1.64c0.02-0.31-0.04-1.27-0.13-2.48c-0.15-2.15-0.34-4.29-0.51-6.43c-0.01-0.1-0.03-0.35-0.03-0.37
			c0.03,0.09,0.05,0.19,0.07,0.3c0.61,2.76,0.84,5.62,0.99,8.42c0.06,1.27-0.41,2.21-0.39,2.39c0.06,0.63,0.06,0.59,0.05,1.14
			c-0.02,0.66-0.06,0.75-0.06,0.75c0.22-0.49,0.91-2.13,0.67-7.28c-0.01-0.13-0.01-0.25-0.02-0.38c-0.19-3.57-0.47-5.91-0.47-5.91
			c0.34,1,0.62,3.16,0.82,5.65c0.03-0.04,0.05-0.08,0.07-0.13c0.35-0.95,0.42-1.9,0.35-2.91c-0.12-1.88-0.34-3.42-0.34-3.42
			s0.05,0.14,0.05,0.15c0.06,0.21,0.24,0.76,0.42,1.73c0.14,0.66,0.23,1.34,0.28,2.01c0.01,0.1,0.01,0.19,0.02,0.28l0,0
			c0.72-1.06,0.41-3.19,0.05-5.41c0.32,0.71,0.88,2.69,0.73,4.19c1.07-1.01,0.49-3,0.08-5.29c0.61,1.36,1.05,3.03,0.91,4.13
			c0.87-1.13,0.54-2.62-0.24-5.55c0.47,0.77,1.12,2.63,1.16,3.76C333.26,32.62,332.6,30.41,332.04,28.62z M341.68,35.12
			c0-0.01,0.46-0.44,0.63-1.88c0.09,0.11,0.25,0.22,0.3,0.42c0.29-0.35,0.87-2.3,0.93-2.96c0.19,0.08,0.02,0.04,0.24,0.15
			c0.15-0.28,0.49-1.39,0.64-2.91c0.07,0.02,0.2,0.02,0.24,0.08c0.1-0.7,0.2-1.82,0.24-2.6c0.03-0.67,0.01-2.07-0.28-2.87
			s-0.42-1.22-0.88-1.95c0,0-0.16,0.08-0.24,0.19c-0.13-0.39-0.48-1.32-0.65-1.66c-0.44-0.85-0.64-1.41-1.1-1.7
			c0.21,0.01,0.29,0.05,0.54,0.05c-0.3-0.28-0.41-0.47-0.74-0.73c0.11-0.07,0.3-0.06,0.62-0.01c-0.45-0.41-0.6-1.03-1.76-1.48
			c0.21-0.04,0.36,0.04,0.64,0.03c-0.15-0.23-0.5-0.6-1.08-0.77c-1.19-0.24-2.83-0.27-3.59,0.63c-0.05,0.06-0.26,0.11-0.44,0.17
			c-0.13,0.05-0.18,0.09-0.22,0.11c-0.14,0.1-0.15,0.24,0.1,0.59c-0.34-0.05-0.42-0.36-0.48-0.34c-0.12,0.08-0.23,0.18-0.35,0.36
			c-0.11,0.16-0.21,0.52-0.18,0.67c0.04,0.04,0.32,0.15,0.37-0.17c0.02-0.11,0.54-0.16,0.72-0.16c0.26,0,0.5,0.06,0.83,0.05
			c-0.12,0.05-0.48,0.15-0.62,0.19c-0.15,0.05-0.16,0.2-0.02,0.21c0.15,0.02,0.22-0.05,0.36-0.08c0.06,0.04,0,0.2,0.05,0.3
			c0.95-0.22,1.03,0.81,2.05,0.61c-0.48-0.37-0.89-1-1.26-1.19c1.01,0.15,1.55,1.06,2.64,1.11c-0.04-0.11-0.04-0.11-0.14-0.29
			c0.37,0,0.63,0.28,0.74,0.27c-0.14,0.15-0.45,0.27-0.87,0.33c0.07,0.14,0.48,0.16,0.62,0.19c-0.22,0.2-0.47,0.29-0.96,0.2
			c-0.16,0.15-0.38,0.49-1.09,0.92c0.01-0.17,0.01-0.17,0.04-0.34c-0.47,0.27-0.77,0.76-1.12,0.9c0.1-0.17,0.19-0.47,0.26-0.63
			c-1.22,1.11-2.39,2.18-2.84,2.98c-0.49,0.9-0.64,1.82-0.58,3.35c0.05,0.82,0.4,3.13,0.45,3.58c0.1-0.04,0.17-0.08,0.25-0.11
			c0.29,1.7,1.17,4.08,1.63,4.85c0.08-0.19,0.14-0.26,0.27-0.36c0.07,0.45,0.31,0.97,0.69,1.3c-0.01-0.31,0.12-0.48,0.15-0.59
			c0.1,0.33,0.05,1.35,0.63,1.91c-0.04-0.28,0.06-0.52,0.15-0.9c0.1,0.33,0.12,0.73,0.28,1.07c0.18,0.39,0.42,0.77,0.63,0.87
			c-0.03-0.81,0.1-0.76,0.13-1.1c0.01,0.07,0.32,0.35,0.46,1.38c0.6-0.45,0.83-1.96,0.83-1.96s0.17,0.15,0.3,0.56
			c0.52-0.54,0.68-1.25,0.83-1.8C341.7,34.56,341.72,34.92,341.68,35.12z M342.27,43.04c0.72-0.01,0.91,0,1.18-0.05
			c-0.02-0.08-0.04-0.16-0.05-0.23c-0.01-0.05-0.02-0.11-0.02-0.17c-0.01,0-0.01,0-0.02,0.01c-0.24,0.05-0.72,0.2-1.35,0.09
			c-0.31-0.06-0.32-0.07-0.55-0.14c-0.22-0.06-0.56,0.29-0.83,0.58c-0.23,0.24-0.53,0.59-0.66,0.73c-0.03,0.03-0.02,0.05,0.01,0.07
			c0.24,0.22,3.19,2.92,3.37,3.08c0.05,0.05,0.08,0.05,0.14-0.01c0.14-0.14,0.33-0.34,0.52-0.54c0,0-2.91-2.74-2.97-2.78
			c-0.05-0.05-0.05-0.1-0.03-0.13c0.02-0.03,0.15-0.15,0.17-0.18c0.02-0.03,0.09-0.03,0.14,0.02c0.05,0.05,0.95,0.9,0.95,0.9
			l1.25,1.12l0.79,0.7c0.11-0.12,0.1-0.09,0.13-0.13c0.12-0.13,0.09-0.22-0.31-0.61c-0.11-0.11-2.04-2.04-2.04-2.04
			C341.89,43.13,342.04,43.04,342.27,43.04z M337.73,43.66c-0.05,0.05-2.96,2.78-2.96,2.78c0.19,0.19,0.38,0.4,0.52,0.54
			c0.05,0.05,0.09,0.05,0.14,0.01c0.18-0.16,3.13-2.87,3.37-3.08c0.03-0.03,0.03-0.05,0.01-0.07c-0.14-0.15-0.44-0.49-0.66-0.73
			c-0.26-0.28-0.61-0.64-0.83-0.58c-0.24,0.07-0.25,0.07-0.55,0.14c-0.63,0.11-1.11-0.03-1.35-0.09c-0.02-0.01-0.05-0.01-0.06-0.02
			c-0.01,0.07-0.02,0.15-0.03,0.21s-0.03,0.13-0.04,0.2c0.31,0.06,0.47,0.05,1.22,0.05c0.23,0,0.37,0.07,0.17,0.3
			c0,0-1.93,1.92-2.04,2.04c-0.41,0.38-0.43,0.47-0.32,0.6c0.04,0.04,0.02,0.01,0.13,0.13l0.79-0.7l1.26-1.12
			c0,0,0.92-0.85,0.95-0.9c0.04-0.05,0.11-0.05,0.14-0.02c0.02,0.03,0.15,0.15,0.17,0.18C337.77,43.56,337.77,43.62,337.73,43.66z
			 M338.01,36.78c0,0,0-0.17-0.11-0.4c-0.06-0.12-0.25-0.26-0.34-0.38c-0.08-0.1-0.09-0.15-0.09-0.15
			c-0.03,0.11,0.03,0.37,0.05,0.48c0.04,0.12,0.12,0.24,0.25,0.34C337.93,36.76,338.01,36.78,338.01,36.78z M337.98,42.38
			c0,0,0.22,0.21,0.25,0.25c0.05-0.3,0.19-1.3,0.14-1.4C338.04,41.87,337.98,42.32,337.98,42.38z M336.8,42.31
			c0.11-0.04,0.39-0.16,0.54-0.2c0.04-0.01,0.09-0.02,0.11-0.03l0,0c0.08-0.3,0.23-0.76,0.33-0.98
			C337.69,41.08,336.96,42.11,336.8,42.31z M338.97,43.39c-0.01-0.4-0.04-0.83-0.05-1.02c-0.13,0.18-0.21,0.44-0.26,0.69
			C338.69,43.09,338.95,43.35,338.97,43.39z M339.17,40.75c0,0-0.07-0.51-0.45-0.67C338.74,40.44,339.17,40.75,339.17,40.75z
			 M339.47,39.9L339.47,39.9L339.47,39.9c0,0,0.06-0.14,0.27-0.29c0.14-0.1,0.96-0.6,1.12-0.82c0.15-0.22,0.23-0.52,0.23-0.52
			s-0.15,0.24-0.48,0.43c-0.27,0.16-0.93,0.56-1.04,0.76c-0.05,0.1-0.08,0.18-0.09,0.25c-0.01-0.05-0.02-0.12-0.05-0.19
			c-0.2-0.42-0.8-0.59-1.16-1c-0.24-0.27-0.24-0.38-0.24-0.38c-0.01,0.28,0.05,0.49,0.15,0.64c0.1,0.14,0.4,0.4,0.8,0.65
			C339.39,39.71,339.47,39.9,339.47,39.9z M339.08,38.42c0-0.65-0.72-0.73-0.88-1.38C338.12,37.95,338.75,37.96,339.08,38.42z
			 M339.42,41.02c0,0,0.09-0.04,0.3-0.16c0.19-0.11,0.34-0.24,0.44-0.41c0.1-0.19,0.08-0.34,0.06-0.45c0,0-0.05,0.17-0.28,0.39
			c-0.11,0.09-0.24,0.24-0.33,0.34C339.48,40.88,339.42,41.02,339.42,41.02z M340.04,41.41c0.06,0.39,0.12,1.31,0.13,1.61l0,0
			c0.11-0.11,0.22-0.22,0.33-0.34C340.49,42.54,340.36,41.82,340.04,41.41z M339.45,43.8c0.02-0.02,0.24-0.28,0.35-0.4
			c0.01-0.01,0.02-0.01,0.02-0.02c-0.07-0.5-0.19-1.13-0.35-1.37C339.44,42.25,339.44,43.13,339.45,43.8z M339.46,44.07
			c0,0.22,0.01,0.39,0.01,0.47c0.02-0.02,0.23-0.24,0.23-0.24S339.52,44.14,339.46,44.07z M339.62,44.85
			c0.41,0.43,0.96,1.01,1.32,1.36c0.24-0.23,0.38-0.37,0.38-0.37l-1.42-1.3C339.84,44.6,339.74,44.71,339.62,44.85z M341.29,46.55
			c0.31,0.3,0.64,0.64,0.92,0.92c0.16-0.17,0.29-0.32,0.4-0.44l-0.93-0.85C341.67,46.16,341.52,46.31,341.29,46.55z M341.56,42.17
			c-0.15-0.2-0.54-0.72-0.88-1.02c0.23,0.54,0.34,0.89,0.37,1.03l0,0c0.02-0.01,0.04-0.03,0.05-0.04c0.05-0.03,0.12-0.04,0.18-0.04
			c0.05,0,0.12,0.02,0.19,0.04C341.48,42.15,341.53,42.16,341.56,42.17z M341.21,36.85c-0.18,0.29-0.34,0.46-0.56,0.66
			c0.07-0.22,0.1-0.45,0.1-0.45c-0.11,0.23-0.37,0.54-0.54,0.72c-0.42,0.42-0.5,0.83-0.5,0.83s0.11-0.15,0.63-0.45
			C340.85,37.84,341.05,37.36,341.21,36.85z M334.62,31.13c0,0.51,0.36,1.22,0.84,1.51C335.18,31.86,334.95,31.6,334.62,31.13z
			 M345.24,21.73c0.2,0.01,0.4-0.03,0.56-0.14c0.16-0.1,0.19-0.16,0.24-0.23c1.22-1.77,3.48-4.61,5.18-6.84
			c-3.47-3.42-8.43-3.66-9.72-3.57c-0.31,0.03-0.65,0.26-0.26,0.76c-0.28,0.13-1.34,0.04-1.73-0.34c-0.4,0.37-1.46,0.46-1.74,0.34
			c0.38-0.5,0.04-0.74-0.26-0.76c-1.31-0.09-6.52,0.41-9.68,3.48c1.74,2.3,5.37,7.09,5.44,7.19c0.07,0.09,0.24,0.21,0.47,0.21
			c0.03,0,0.05,0,0.08,0c0.19-0.01,0.37-0.14,0.56-0.34c0.37-0.41,0.56-0.64,0.93-1.02c0.72-0.73,1.39-1.28,1.5-1.39
			c0.3-0.28,0.4-0.5,0.41-0.73c-0.02-0.26-0.23-0.36-0.35-0.53c-0.01,0.03-0.05,0.06-0.06,0.09c-0.12-0.09-0.25-0.5-0.25-0.5
			l-0.07,0.19c0,0-0.26-0.64-0.69-0.59c-0.58,0.08-0.95-0.17-1-0.18c-0.04-0.01-0.06,0.19-0.05,0.41c-0.01,0-0.02,0-0.02-0.01
			c-0.4-0.34-0.52-1.21,0.24-1.77c0.47-0.34,0.56-0.34,0.93-0.51c0.15-0.07,0.27-0.22,0.31-0.26c0.24-0.3,0.73-0.46,1.02-0.54
			c0.35-0.09,1.2-0.21,2.03-0.16c0.47,0.03,0.92,0.14,1.23,0.26c0.24,0.1,0.97,0.63,1.37,1.16c0.26,0.34,0.72,1.32,0.96,1.93
			c0.53,1.3,0.46,1.15,0.83,2.01c0.41,0.98,0.66,1.52,1.05,2.08C344.83,21.64,344.98,21.72,345.24,21.73z M351.49,14.19
			c0.12-0.15,0.24-0.31,0.35-0.46c-1.59-1.4-3.94-2.82-6.52-3.37c-1.74-0.38-3.14-0.41-4.01-0.4c-0.72,0.01-1.18,0.29-1.18,0.73
			c-0.44-0.08-0.57-0.64-0.63-0.75c-0.05,0.24-0.26,0.69-0.63,0.75c0-0.44-0.46-0.73-1.18-0.73c-0.88-0.01-2.27,0.02-4.02,0.4
			c-2.63,0.57-4.9,1.86-6.48,3.28c0.12,0.15,0.24,0.31,0.35,0.46c1.42-1.33,3.32-2.39,5.34-2.98c1.68-0.49,3.74-0.66,4.68-0.63
			c0.84,0.04,0.96,0.52,0.86,0.78c0.38,0.04,0.94-0.29,1.06-0.51c0.09,0.16,0.6,0.54,1.06,0.51c-0.1-0.26,0.02-0.74,0.86-0.78
			c0.94-0.05,3.01,0.14,4.68,0.63C348.09,11.68,350.07,12.88,351.49,14.19z M352.43,12.47c0.18,0.62,0.37,1.31,0.89,1.72
			c0.07,0.05,0.15,0.11,0.24,0.15l0.01,0.01c-0.01-1.18,0.39-1.82,0.7-2.51l0,0v-0.01c0.44,0.06,1.02,0.23,2.2,0.02
			c-1.12-0.75-0.87-1.6-1.71-2.51c-0.09-0.1-0.19-0.2-0.31-0.3c-0.3-0.21-0.52-0.28-0.67-0.29c-0.21-0.01-0.33,0.1-0.38,0.16
			c-0.11,0.12-1.27,1.37-2.03,2.22C352.05,11.12,352.23,11.76,352.43,12.47z M353.2,8.35c-0.78-0.77-2.01-1.62-3.5-2.27
			c-3.87-1.7-8.79-1.71-10.2-1.71l0,0c0,0,0,0-0.01,0c-1.41,0-6.32,0.01-10.2,1.71c-1.48,0.65-2.72,1.51-3.5,2.27
			c0,0,1.75,1.97,2.2,2.49c0.24,0.28,0.32,0.52,0.18,0.93c2.69-1.81,5.75-2.7,11.2-2.74h0.24c5.36,0.05,8.51,0.95,11.18,2.75
			c-0.14-0.42-0.06-0.65,0.18-0.93C351.45,10.31,353.2,8.35,353.2,8.35z M325.61,8.92L325.61,8.92c-0.11-0.13-0.39-0.36-1.06,0.12
			c-1.2,1.04-0.82,1.99-2.05,2.81c0.44,0.08,0.8,0.11,1.1,0.11c0.2,0,0.37-0.01,0.53-0.03c0.23-0.03,0.41-0.06,0.57-0.09l0,0
			c0.31,0.7,0.71,1.32,0.7,2.51c1.44-0.76,0.85-3.24,2.2-3.21C326.83,10.3,325.74,9.06,325.61,8.92z M326.54,13.9
			c1.06,1.41,1.86,2.48,2.01,2.69c0.37,0.51,1.64,2.03,1.62,1.83c-0.01-0.12-0.78-1.2-1.27-1.86c-0.72-0.96-1.46-1.97-2.19-2.94
			C326.66,13.72,326.6,13.82,326.54,13.9z M331.79,23.48c0,1.03,0.21,1.79,0.56,3.05C332.39,25.19,332.11,23.84,331.79,23.48z
			 M331.05,22.31c-0.07,0.47-0.06,1.07,0.05,1.52c0.08,0.31,0.23,0.6,0.34,0.87C331.5,23.78,331.25,22.78,331.05,22.31z
			 M333.78,31.32c0.18-0.56,0.39-4.2-1.05-5.77C333.1,26.96,333.57,28.61,333.78,31.32z M329.82,51.59
			c1.02,0.39,3.82,0.43,5.13,0.26c1.68-0.21,2.97-0.72,4.05-1.48c-0.28-0.24-0.63-0.55-0.98-0.9c-0.56,0.45-1.07,0.82-1.39,0.94
			c-2,0.81-4.65,1.02-4.65,1.02s3.45-0.78,4.65-1.43c0.23-0.12,0.62-0.43,1.08-0.82c-0.44-0.43-0.88-0.86-1.21-1.19
			c-0.22,0.2-0.4,0.33-0.63,0.5c-0.44,0.32-1.1,0.55-1.61,0.77C331.81,50.26,330.2,51.28,329.82,51.59z M338.04,51.59
			c0.1,0.33,0.28,0.75,0.41,0.96c0,0,0.64-0.53,0.84-1.73c-0.13,0.1-0.33,0.26-0.5,0.37C338.49,51.36,338.23,51.5,338.04,51.59z
			 M350.61,16.51c0.15-0.21,0.88-1.19,1.87-2.49c-0.07-0.08-0.15-0.18-0.19-0.26c-0.68,0.91-1.37,1.83-2.03,2.73
			c-0.49,0.67-1.26,1.75-1.27,1.86C348.97,18.54,350.24,17.02,350.61,16.51z M356.31,9.99c-0.11,0.15-0.35,0.47-0.35,0.47
			c0.31,0.55,0.64,1.13,1.51,1.59C357.11,11.34,356.72,10.65,356.31,9.99z M355.5,9.51c0.03,0.05,0.14,0.24,0.16,0.28
			c2-2.67,3.85-5.11,3.85-5.11s-0.78,0.55-1.9,1.07c0.11,0.6-0.26,1.36-0.42,1.54C357.13,7.37,356.47,8.23,355.5,9.51z M323.51,8.74
			c0.1,0.13,0.19,0.26,0.3,0.4c1.5-1.92,3.49-3.28,5.91-4.19c-0.19-0.28-0.46-0.92,0.24-1.61l0,0c1.04,0.13,1.31,0.76,1.37,1.09
			c1.88-0.51,4.1-0.82,6.59-0.91c0.09-1.71,1.31-2.13,1.31-2.13s0.02-0.33,0.28-0.44h0.01c0.26,0.11,0.28,0.44,0.28,0.44
			s1.22,0.42,1.31,2.13c2.49,0.09,4.71,0.4,6.59,0.91c0.06-0.33,0.33-0.95,1.37-1.09l0,0c0.71,0.69,0.44,1.32,0.24,1.61
			c2.41,0.91,4.47,2.33,5.97,4.25c0.11-0.15,0.21-0.28,0.31-0.41c-1.4-1.73-3.36-3.13-5.45-3.99c0.23-0.68,0-1.25-0.4-1.66
			c0-0.27-0.16-0.52-0.34-0.61l0,0c-0.2-0.03-0.5,0.06-0.71,0.28c-0.61,0.09-1.2,0.4-1.52,1.04c-1.55-0.37-3.3-0.63-5.54-0.74
			c-0.05-1.03-0.65-1.67-1.39-2.03c-0.15-0.36-0.46-0.56-0.73-0.63c-0.26,0.06-0.58,0.26-0.73,0.63c-0.73,0.36-1.33,1-1.39,2.03
			c-2.24,0.12-3.99,0.36-5.54,0.74c-0.33-0.64-0.92-0.95-1.52-1.04c-0.2-0.21-0.5-0.31-0.71-0.28l0,0
			c-0.17,0.09-0.34,0.34-0.34,0.61c-0.4,0.41-0.63,0.98-0.4,1.66C326.77,5.66,324.9,6.99,323.51,8.74z M323.39,9.7
			c0.06-0.11,0.12-0.2,0.17-0.26c-0.91-1.2-1.52-2-1.59-2.07c-0.15-0.18-0.53-0.93-0.42-1.54c-1.12-0.52-1.9-1.07-1.9-1.07
			S321.43,7.09,323.39,9.7z M321.51,12.07c0.17-0.1,0.74-0.46,1.11-0.96c0.18-0.25,0.32-0.5,0.43-0.73
			c-0.02-0.02-0.38-0.49-0.38-0.49C322.24,10.6,321.86,11.33,321.51,12.07z M318.36,26.71c0.36,0.3,2.17,1.83,5.03,3.46
			c0.06-1.71,0.12-7.85,3.78-14.4c-0.42-0.55-0.61-0.8-1.01-1.33c-0.3,0.32-0.69,0.54-1.25,0.71c0.03-1.3-0.26-2.01-0.62-2.77
			c-0.52,0.02-1.41,0.04-2.8-0.26C319.64,16.07,318.71,20.65,318.36,26.71z M335.1,54.54l0.03-0.05c0.1-0.28,0.58-1.42,0.82-2
			c-0.04-0.1-0.06-0.2-0.09-0.3c-0.33,0.05-0.65,0.1-0.99,0.14c-0.22,0.02-3.48,0.53-5.85-0.59c0.29-0.2,0.83-0.64,1.56-1.12
			c0.01-0.05,0.02-0.1,0.03-0.15c-0.57,0.32-1.12,0.37-1.53,0.35c-0.04-0.37,0.06-0.86,0.25-1.41c-0.54,0.12-0.95-0.01-0.95-0.01
			s0.35-1.15,1.13-2.53c0.72-1.29,1.73-2.59,2.59-3.66c0.09-0.43,0.42-0.78,0.45-0.82c0.02-0.03,0.13-0.14,0.15-0.15
			c-0.1-0.08-0.19-0.16-0.28-0.23c-0.1,0.1-0.17,0.15-0.24,0.18c-0.27,0.13-0.44,0.17-0.58,0.17c-0.3,0.01-0.47-0.05-0.58-0.2
			L331,42.14c-0.23-0.06-0.37-0.19-0.43-0.37c-0.01-0.04-0.02-0.07-0.02-0.11c-0.16,0.05-0.28,0.06-0.44-0.06
			c-0.21-0.18,0.08-1.1,1.08-2.04c0.7-0.66,1.36-1.04,1.97-1.32c0.47-0.21,0.74,0.2,0.52,0.47c-0.27,0.34-0.49,0.92-0.21,1.52
			c0.29-0.1,0.4-0.15,0.44-0.16c0.11-0.05,0.24-0.08,0.39-0.27c0.02-0.02,0.03-0.05,0.05-0.1l-0.42,0.05
			c0.21-0.53-0.12-1.81,0.1-2.63c-0.05,0.04-0.2,0.14-0.28,0.16c-0.15-0.75-0.13-1.95-0.07-2.54c-0.01-0.15-0.23-0.42-0.52-0.72
			c-0.24,0.6-0.64,1.32-1.32,2.17c-0.53,0.65-1.48,1.24-1.97,3.33c0,0.01,0,0.01-0.01,0.02c-0.08,0.34-0.2,0.64-0.34,0.95
			c-0.32,0.66-0.3,1.04-0.3,1.04v-0.01c0.04,1.32-0.03,4.05-0.34,5.57c-0.28,1.33-0.76,2.01-0.76,2.01l-0.07-0.06
			c-0.12,0.45-0.34,1.25-0.86,1.88c0,0-0.44-0.89-1.26-7.69c-0.89-7.48-1.34-15.29-1.34-15.29l0,0c-0.08-1.38,0.23-2.99,0.63-4.18
			c0.73-1.89,1.99-3.71,2.76-4.46c0.48-0.47,1.02-0.58,1.54-0.48c-0.15-0.19-0.31-0.41-0.31-0.41c-0.52-0.68-1.11-1.43-1.61-2.1
			c-3.66,6.44-3.57,14.12-3.57,14.19l0.01,0.82l-0.64-0.34c-2.88-1.63-4.13-2.62-5.06-3.39c-0.04,0.78-0.12,3.43-0.12,3.43
			c0,0.05,0,0.6,0,1.61c0,3.07,0.55,10.61,3.06,15.79c0.34,0.64,1.29,2.38,2.98,3.96c1.28,1.21,2.78,2.07,4.44,2.6
			c0.1,0.03,0.29,0.1,0.38,0.13C330.97,55.68,333.05,55.56,335.1,54.54z M334.95,56.67c0.38-0.32,0.97-0.55,1.71-0.24
			c0.05-0.91,0.19-2.25,0.39-3.45c-0.3,0.29-0.54,0.43-0.57,0.43c-0.05,0-0.1-0.05-0.15-0.13
			C335.77,54.68,334.96,56.65,334.95,56.67z M342.23,57.33c0.05-0.95-0.34-3.51-0.58-4.96c-0.03-0.04-0.05-0.08-0.08-0.12
			c-0.05-0.06-0.09-0.13-0.14-0.2c-0.08,0.29-0.19,0.6-0.33,0.91c-0.16,0.35-0.42,0.73-0.47,0.73c-0.05-0.01-0.73-0.49-1.17-1.44
			c-0.44,0.93-1.12,1.42-1.16,1.42c-0.05,0.01-0.31-0.37-0.47-0.73c-0.07-0.16-0.14-0.33-0.19-0.49c-0.23,1.53-0.56,3.98-0.52,4.89
			c-1.42-0.93-2.29,0-1.99,0.65c0.03,0.05,0.06,0.11,0.1,0.15c0.17,0.23,0.39,0.34,0.71,0.37c0.45,0.03,1.06,0.08,1.75,0.4
			c0.63,0.29,1.31,0.78,2,1.64c0.69-0.86,1.36-1.34,1.99-1.64c0.69-0.32,1.29-0.37,1.75-0.4c0.31-0.03,0.53-0.16,0.71-0.37
			c0.04-0.05,0.06-0.1,0.1-0.15C344.51,57.33,343.65,56.4,342.23,57.33z M344.41,56.67c-0.01-0.02-0.87-2.22-1.39-3.57
			c-0.13,0.17-0.25,0.31-0.28,0.31c-0.02,0-0.22-0.11-0.47-0.34c0.2,1.05,0.37,2.37,0.43,3.36
			C343.43,56.12,344.03,56.35,344.41,56.67z M360.79,31.05c-0.02-1.03-0.07-2.72-0.11-3.49c-0.97,0.79-1.89,1.58-4.92,3.32
			l-0.79,0.43l0.01-0.56c0-0.06,0.22-7.74-3.51-14.35c-0.24,0.32-1.02,1.32-1.82,2.34c0.47-0.05,0.96,0.07,1.4,0.5
			c0.77,0.75,2.03,2.58,2.76,4.46c0.4,1.18,0.71,2.8,0.63,4.18l0,0c0,0-0.45,7.81-1.34,15.29c-0.81,6.8-1.26,7.69-1.26,7.69
			c-0.52-0.63-0.73-1.42-0.86-1.88l-0.07,0.06c0,0-0.47-0.68-0.76-2.01c-0.33-1.52-0.38-4.25-0.34-5.57v0.01c0,0,0.02-0.38-0.3-1.04
			c-0.15-0.31-0.26-0.62-0.34-0.95c0-0.01,0-0.01-0.01-0.02c-0.49-2.09-1.44-2.68-1.97-3.33c-0.64-0.78-1.1-1.6-1.38-2.27
			c-0.02,0.02-0.03,0.03-0.05,0.05c-0.34,0.34-0.61,0.67-0.62,0.86c0.12,1.22,0.23,2.09,0.05,2.71c-0.07-0.04-0.19-0.16-0.25-0.21
			c0.08,0.81-0.3,1.74-0.05,2.49l-0.48-0.06c0.02,0.05,0.04,0.1,0.05,0.12c0.06,0.09,0.13,0.15,0.24,0.21
			c0.02,0.01,0.12,0.05,0.15,0.07c0.05,0.02,0.16,0.06,0.49,0.17c0.27-0.61,0.06-1.19-0.21-1.52c-0.23-0.27,0.05-0.68,0.52-0.47
			c0.61,0.26,1.27,0.65,1.97,1.32c1,0.94,1.29,1.86,1.08,2.04c-0.16,0.14-0.29,0.11-0.49,0.04c0,0.04-0.01,0.07-0.02,0.11
			c-0.05,0.18-0.21,0.31-0.43,0.37l-0.02,0.04c-0.11,0.15-0.28,0.2-0.58,0.2c-0.25-0.01-0.54-0.15-0.58-0.17
			c-0.05-0.03-0.12-0.06-0.2-0.15c-0.05,0.05-0.12,0.09-0.18,0.15c0.79,1.06,2.3,2.82,3.38,4.74c0.77,1.38,1.13,2.53,1.13,2.53
			s-0.42,0.14-0.95,0.01c0.19,0.55,0.29,1.03,0.25,1.41c-0.42,0.02-0.96-0.04-1.53-0.35c0.02,0.09,0.04,0.18,0.05,0.27
			c0.49,0.34,1.03,0.75,1.26,0.92c-2.37,1.12-5.81,0.6-5.87,0.59c-0.16-0.02-0.31-0.05-0.44-0.06c-0.03,0.06-0.05,0.14-0.08,0.22
			c0.24,0.55,0.77,1.83,0.89,2.09c1.51,0.69,2.9,1.14,5.06,0.78c0,0,0.36-0.04,1.29-0.34c0.94-0.32,2.71-1.35,4.07-2.63
			c1.7-1.59,2.72-3.26,3.06-3.91c2.62-5.12,3.06-12.72,3.06-15.79C360.79,31.64,360.79,31.11,360.79,31.05z"/>
	</g>
	<g>
		<g>
			<path d="M187.24,36.12h2.62c1.09,0,1.86,0.39,2.29,1.3c0.34,0.72,0.38,2.42,0.38,2.69c0,1.81-0.16,2.87-0.52,3.43
				c-0.46,0.73-1.32,1.1-2.8,1.1h-1.96L187.24,36.12L187.24,36.12z M188.33,43.69h1.03c1.51,0,2.07-0.56,2.07-2.55v-1.72
				c0-1.72-0.54-2.36-1.66-2.36h-1.42L188.33,43.69L188.33,43.69z"/>
			<path d="M194.43,44.63v-8.52h4.39v0.94h-3.3v2.74h3.07v0.94h-3.07v2.95h3.37v0.94H194.43z"/>
			<path d="M200.46,44.63v-8.52h2.52c1.14,0,2.37,0.43,2.37,2.43c0,1.93-1.51,2.33-2.39,2.33h-1.42v3.75L200.46,44.63L200.46,44.63z
				 M201.55,39.94h1.19c0.44,0,1.51-0.12,1.51-1.45c0-1.3-0.97-1.42-1.21-1.42h-1.49V39.94z"/>
			<path d="M208.22,36.12h1.38l2.77,8.52h-1.22l-0.62-2.03h-3.29l-0.63,2.03h-1.1L208.22,36.12z M208.88,37.12h-0.03l-1.33,4.54
				h2.72L208.88,37.12z"/>
			<path d="M214.56,40.72v3.92h-1.09v-8.52h2.94c1.51,0,2.04,1.06,2.04,2.12c0,1-0.55,1.77-1.56,1.94v0.03
				c0.98,0.15,1.33,0.48,1.39,2.2c0.01,0.36,0.13,1.7,0.3,2.23h-1.13c-0.31-0.59-0.24-1.7-0.33-2.83c-0.08-1.03-0.92-1.09-1.29-1.09
				C215.83,40.72,214.56,40.72,214.56,40.72z M214.56,39.78h1.62c0.78,0,1.15-0.67,1.15-1.42c0-0.62-0.31-1.3-1.14-1.3h-1.64
				L214.56,39.78L214.56,39.78z"/>
			<path d="M224.84,36.12v0.94h-2.24v7.57h-1.09v-7.57h-2.24v-0.94H224.84z"/>
			<path d="M226.98,44.63h-1.02v-8.52h1.76l2.15,7.15h0.03l2.17-7.15h1.8v8.52h-1.09v-7.57h-0.03l-2.39,7.57h-1.03L227,37.06h-0.03
				L226.98,44.63L226.98,44.63z"/>
			<path d="M235.78,44.63v-8.52h4.39v0.94h-3.3v2.74h3.07v0.94h-3.07v2.95h3.37v0.94H235.78z"/>
			<path d="M247.57,36.12v8.52h-1.49l-3.37-7.38h-0.03v7.38h-0.97v-8.52h1.53l3.31,7.28h0.03v-7.28H247.57z"/>
			<path d="M254.32,36.12v0.94h-2.24v7.57h-1.09v-7.57h-2.24v-0.94H254.32z"/>
			<path d="M258.02,41.52v-2.79c0-1.7,0.87-2.78,2.68-2.78s2.68,1.09,2.68,2.78v2.79c0,2.36-0.87,3.29-2.68,3.29
				C258.89,44.81,258.02,43.88,258.02,41.52z M262.26,41.56v-2.88c0-1.78-1.22-1.84-1.57-1.84c-0.34,0-1.57,0.06-1.57,1.84v2.88
				c0,1.86,0.54,2.33,1.57,2.33C261.72,43.9,262.26,43.43,262.26,41.56z"/>
			<path d="M265.18,44.63v-8.52h4.22v0.94h-3.14v2.74h2.98v0.94h-2.98v3.89H265.18z"/>
			<path d="M273.18,44.63v-8.52h1.09v3.68h2.98v-3.68h1.09v8.52h-1.09v-3.89h-2.98v3.89H273.18z"/>
			<path d="M280.32,44.63v-8.52h4.39v0.94h-3.3v2.74h3.07v0.94h-3.07v2.95h3.37v0.94H280.32z"/>
			<path d="M288.14,36.12h1.38l2.77,8.52h-1.22l-0.62-2.03h-3.29l-0.64,2.03h-1.1L288.14,36.12z M288.8,37.12h-0.03l-1.33,4.54h2.72
				L288.8,37.12z"/>
			<path d="M293.42,44.63v-8.52h1.09v7.57h3.13v0.94H293.42z"/>
			<path d="M302.72,36.12v0.94h-2.24v7.57h-1.09v-7.57h-2.24v-0.94H302.72z"/>
			<path d="M303.91,44.63v-8.52H305v3.68h2.98v-3.68h1.09v8.52h-1.09v-3.89H305v3.89H303.91z"/>
		</g>
		<g>
			<g>
				<path d="M191.39,19.21c0.19,0,0.34-0.06,0.48-0.2s0.2-0.29,0.2-0.48c0-0.19-0.06-0.34-0.2-0.48c-0.14-0.14-0.29-0.2-0.48-0.2
					c-0.19,0-0.34,0.06-0.48,0.2c-0.14,0.14-0.2,0.29-0.2,0.48c0,0.19,0.06,0.34,0.2,0.48C191.05,19.15,191.21,19.21,191.39,19.21z"
					/>
				<path d="M189.14,19.21c0.19,0,0.34-0.06,0.48-0.2c0.14-0.14,0.2-0.29,0.2-0.48c0-0.19-0.06-0.34-0.2-0.48
					c-0.14-0.14-0.29-0.2-0.48-0.2c-0.19,0-0.34,0.06-0.48,0.2c-0.14,0.14-0.2,0.29-0.2,0.48c0,0.19,0.06,0.34,0.2,0.48
					C188.8,19.15,188.95,19.21,189.14,19.21z"/>
				<path d="M251.38,16.87v9.5h-0.9h-3.59l0,0h-3.59h-3.59c-0.01,0-0.01,0-0.02,0l0,0h-0.9V20.6l-0.56,0.02
					c-0.96,0.04-1.81,0.17-2.54,0.39c-0.73,0.22-1.39,0.49-1.95,0.81c-0.56,0.32-1.03,0.68-1.42,1.07
					c-0.39,0.39-0.72,0.79-0.97,1.19V22.1h-1.03v4.27h-1.2h-3.59h-3.59h-3.59h-3.59h-0.34c-0.15,0-0.27-0.02-0.37-0.05
					c-0.1-0.04-0.19-0.08-0.27-0.15c-0.06-0.04-0.13-0.1-0.18-0.19c-0.05-0.08-0.11-0.23-0.16-0.42c-0.05-0.19-0.1-0.44-0.14-0.76
					c-0.04-0.31-0.08-0.72-0.12-1.22c-0.15-2.05-1.1-3.08-2.86-3.08c-0.43,0-0.82,0.07-1.18,0.21c-0.36,0.14-0.66,0.3-0.92,0.49
					l0.63,0.82c0.49-0.32,0.97-0.48,1.43-0.48c0.2,0,0.4,0.02,0.6,0.06c0.2,0.05,0.38,0.13,0.56,0.27c0.17,0.14,0.32,0.34,0.44,0.63
					c0.12,0.28,0.2,0.66,0.24,1.16c0.04,0.68,0.1,1.23,0.17,1.67s0.17,0.78,0.31,1.05h-5.23l0,0h-3.59h-3.58h-3.59h-3.59h-0.66
					c-0.16,0-0.24-0.09-0.24-0.28v-5.89c-0.34,0.09-0.77,0.24-1.32,0.47c-0.54,0.22-1.08,0.52-1.61,0.89s-0.98,0.83-1.37,1.37
					c-0.39,0.54-0.58,1.17-0.58,1.9c0,0.28,0.04,0.57,0.12,0.87c0.08,0.3,0.24,0.58,0.46,0.83c0.23,0.26,0.55,0.48,0.97,0.67
					c0.42,0.19,0.97,0.3,1.64,0.34l0.08-1.03c-0.77-0.06-1.33-0.22-1.7-0.44c-0.36-0.24-0.54-0.64-0.54-1.22
					c0-0.43,0.1-0.81,0.3-1.13c0.2-0.34,0.44-0.63,0.73-0.88c0.28-0.25,0.58-0.47,0.91-0.64c0.33-0.18,0.61-0.33,0.84-0.45
					l0.02,4.37c0,0.43,0.11,0.75,0.31,0.98c0.21,0.23,0.48,0.34,0.83,0.34h0.8h3.59h3.59h3.59h3.59l0,0h7.37h3.59h3.59h3.59h3.59
					h10.58l0,0c0.01,0,0.01,0,0.02,0h3.59h3.59l0,0h3.59h1.93V16.87H251.38z M237.75,26.38h-6.35c0.08-0.28,0.23-0.66,0.45-1.15
					c0.22-0.49,0.57-0.97,1.05-1.46c0.48-0.49,1.11-0.93,1.89-1.31c0.78-0.38,1.77-0.63,2.96-0.73
					C237.75,21.73,237.75,26.38,237.75,26.38z"/>
			</g>
			<path d="M254.02,16.94h1.03v10.48h-1.03V16.94z"/>
			<path d="M264.47,27.41h-1.1c-0.34,0-0.73-0.05-1.17-0.14s-0.83-0.24-1.22-0.46c-0.38-0.21-0.7-0.5-0.96-0.84
				c-0.26-0.35-0.39-0.79-0.39-1.31c0-0.48,0.09-0.92,0.28-1.31c0.19-0.39,0.43-0.74,0.72-1.06c0.29-0.31,0.62-0.59,0.99-0.83
				c0.36-0.24,0.73-0.44,1.09-0.61c0.36-0.16,0.7-0.3,1.01-0.4c0.31-0.1,0.56-0.17,0.75-0.21V27.41z M263.44,26.33v-4.63
				c-0.24,0.11-0.52,0.24-0.83,0.42c-0.32,0.17-0.62,0.38-0.9,0.63c-0.28,0.24-0.52,0.53-0.72,0.84c-0.2,0.32-0.3,0.68-0.3,1.08
				c0,0.31,0.08,0.56,0.26,0.78c0.17,0.21,0.39,0.38,0.66,0.52c0.26,0.14,0.55,0.23,0.86,0.28c0.31,0.05,0.59,0.08,0.86,0.08H263.44
				z M262.36,18.53c0,0.19-0.06,0.34-0.2,0.48c-0.14,0.14-0.29,0.2-0.48,0.2s-0.34-0.06-0.48-0.2s-0.2-0.29-0.2-0.48
				c0-0.19,0.06-0.34,0.2-0.48s0.29-0.2,0.48-0.2s0.34,0.06,0.48,0.2C262.29,18.19,262.36,18.34,262.36,18.53z M264.61,18.53
				c0,0.19-0.06,0.34-0.2,0.48s-0.29,0.2-0.48,0.2c-0.19,0-0.34-0.06-0.48-0.2s-0.2-0.29-0.2-0.48c0-0.19,0.06-0.34,0.2-0.48
				s0.29-0.2,0.48-0.2c0.19,0,0.34,0.06,0.48,0.2C264.55,18.19,264.61,18.34,264.61,18.53z"/>
			<g>
				<path d="M298.41,19.62c-0.2-0.12-0.3-0.3-0.3-0.55c0-0.17,0.05-0.3,0.16-0.36s0.24-0.1,0.42-0.1c0.26,0,0.55,0.06,0.86,0.2
					l0.2-0.51c-0.36-0.15-0.72-0.23-1.08-0.23c-0.26,0-0.52,0.07-0.73,0.23s-0.34,0.41-0.34,0.77c0,0.16,0.03,0.32,0.08,0.46
					s0.11,0.24,0.16,0.26h-0.86v0.52h2.68v-0.52h-0.5C298.86,19.79,298.61,19.73,298.41,19.62z"/>
				<path d="M298.29,26.38h-2h-3.59h-3.59l0,0h-2.95h-3.59h-3.59h-3.59h-3.59h-3.59l0,0h-0.9v-5.11h-1.03v6.6
					c0,0.36-0.01,0.71-0.04,1.03c-0.03,0.34-0.1,0.63-0.21,0.89s-0.28,0.47-0.51,0.63c-0.23,0.16-0.54,0.24-0.92,0.24v1.03
					c0.61,0,1.1-0.12,1.46-0.34c0.36-0.24,0.63-0.54,0.82-0.91c0.19-0.37,0.31-0.79,0.36-1.23c0.05-0.45,0.08-0.9,0.08-1.33v-0.46
					h0.9l0,0h3.59h3.59h3.59h3.59h3.59h2.95l0,0h3.59h3.59h3.03v-6.15h-1.03v5.12H298.29z"/>
			</g>
			<path d="M300.95,16.94h1.03v10.48h-1.03V16.94z"/>
			<path d="M303.34,21.46c0.26-0.23,0.61-0.44,1.02-0.63s0.91-0.3,1.48-0.3c0.54,0,1,0.11,1.4,0.33c0.4,0.22,0.73,0.51,0.99,0.87
				c0.26,0.36,0.45,0.77,0.59,1.22c0.13,0.46,0.2,0.93,0.2,1.41c0,0.36-0.03,0.71-0.09,1.03c-0.05,0.34-0.13,0.63-0.22,0.9
				c-0.08,0.26-0.17,0.5-0.26,0.69c-0.09,0.19-0.16,0.34-0.22,0.43h-4.94v-1.03h4.29c0.08-0.2,0.16-0.46,0.26-0.8
				c0.09-0.34,0.14-0.73,0.14-1.22c0-0.37-0.05-0.73-0.15-1.07c-0.1-0.34-0.24-0.63-0.42-0.89c-0.18-0.25-0.41-0.45-0.68-0.61
				c-0.27-0.15-0.57-0.23-0.91-0.23c-0.28,0-0.56,0.05-0.86,0.15c-0.29,0.1-0.63,0.28-1,0.54L303.34,21.46z"/>
		</g>
	</g>
</g>
</svg>
