<?xml version="1.0" encoding="utf-8"?>
<!-- Generator: Adobe Illustrator 24.2.0, SVG Export Plug-In . SVG Version: 6.00 Build 0)  -->
<svg version="1.1" id="Layer_1" xmlns="http://www.w3.org/2000/svg" xmlns:xlink="http://www.w3.org/1999/xlink" x="0px" y="0px"
	 viewBox="0 0 595.7 195.1" style="enable-background:new 0 0 595.7 195.1;" xml:space="preserve">
<style type="text/css">
	.st0{fill:#FFFFFF;}
	.st1{fill:#EA0029;}
</style>
<g id="ARTWORK">
	<g>
		<g>
			<path class="st0" d="M526.5,98.2c0.3-31.3-6.6-48.7-12.5-57.3c2-2.6,3.3-4.4,3.4-4.4c0.7-0.7,1.6-1.6,3.7-1.8
				c0.5-4.1,2.1-9,2.1-9s-4.1,3-7.9,4.6c0.3,2.1-0.3,3.3-0.8,4.1c-0.1,0.1-1.1,1.5-2.6,3.4c-2.5-3-5.7-5.8-10-8.3
				c-1.1-0.7-2.2-1.2-3.4-1.7c0.1-1.7-0.5-3.3-1.6-4.4c0-0.9-0.8-2.2-1.8-2.5l0,0c-1.1-0.3-2.5,0.1-3.3,0.9
				c-1.7,0.3-3.3,1.1-4.5,2.4c-3.7-0.8-7.8-1.3-12.5-1.6c-0.5-2.4-2.1-4-4-4.9c-0.5-1.1-1.8-2-3-2.1l0,0l0,0l0,0l0,0
				c-1.2,0.1-2.6,1.1-3,2.1c-1.8,0.9-3.3,2.6-4,4.9c-4.8,0.3-8.8,0.9-12.5,1.6c-1.2-1.3-2.8-2.2-4.5-2.4c-0.8-0.7-2.2-1.2-3.3-0.9
				l0,0c-0.9,0.4-1.7,1.6-1.8,2.5c-1.2,1.2-1.7,2.8-1.6,4.4c-1.2,0.5-2.4,1.2-3.4,1.7c-4.5,2.5-7.3,5-9.9,8.3
				c-1.5-1.8-2.2-3-2.4-3.2c-0.5-0.8-1.1-2-0.8-4.1c-3.8-1.7-7.9-4.6-7.9-4.6s1.6,4.9,2.1,9c2.1,0.3,3.2,1.2,3.7,1.8
				c0.1,0.1,1.2,1.5,3,4c-5.9,8.4-12.9,26.1-12.7,57.5c0,2.9-1.2,30.1,7.7,48.4c1.1,1.8,3.7,6.9,8.4,11.4c4,3.8,8.8,6.5,14.1,7.9
				c0.1,0,0.5,0.1,0.7,0.1c6.6,1.8,12.4,0.8,14.8-0.5l-0.4,0.8c-0.1,0.3-0.3,0.5-0.3,0.8c-1.2,3.4-0.4,6.9,4.1,7.4
				c1.2,0.1,2.5,0.1,4.1,0.9c1.1,0.5,2.4,1.3,3.7,2.8c0.5,0.5,1.7,2.1,2.4,3.3l0,0l0,0l0,0c0.5-1.2,1.7-2.8,2.4-3.3
				c1.3-1.5,2.6-2.2,3.7-2.8c1.6-0.8,2.9-0.8,4.1-0.9c4.6-0.5,5.4-4,4.2-7.4c-0.1-0.1-0.3-0.5-0.3-0.8c-0.1-0.1-0.4-0.8-0.4-0.8
				c3.2,1.8,12.9,3.3,22.2-2.6c6.3-4.1,11.1-8.6,14.8-16C527.7,128.4,526.5,100.7,526.5,98.2z M485.3,73c-0.1,0.1-0.3,0.4-0.7,0.7
				c-0.5,0.3-0.9,0.4-1.5,0.4c-0.7,0-1.2-0.3-1.5-0.8c-1.1-1.5-1.7-2.9-2.8-5.5c-0.9-2.4-0.8-2-2.2-5.4c-0.7-1.7-1.8-4.2-2.6-5.1
				c-1.1-1.5-3-2.8-3.7-3.2c-0.8-0.4-2.1-0.7-3.3-0.7c-2.2-0.1-4.5,0.1-5.4,0.4c-0.8,0.1-2.1,0.7-2.8,1.5c-0.1,0.1-0.4,0.5-0.8,0.7
				c-0.9,0.5-1.2,0.4-2.5,1.3c-2.1,1.5-1.7,3.8-0.7,4.8l0,0c0-0.7,0-1.2,0.1-1.1c0.1,0,1.2,0.7,2.6,0.5c1.2-0.1,1.8,1.6,1.8,1.6
				l0.1-0.5c0,0,0.4,1.1,0.7,1.3c0-0.1,0.1-0.1,0.1-0.3c0.4,0.4,0.9,0.7,0.9,1.5c0,0.7-0.3,1.2-1.1,2c-0.3,0.3-2.1,1.7-4,3.7
				c-1.1,1.1-1.5,1.6-2.5,2.8c-0.5,0.5-1.1,0.9-1.5,0.9c-0.1,0-0.1,0-0.3,0c-0.5,0-1.1-0.3-1.3-0.5c-0.1-0.3-9.9-13.2-14.7-19.4
				c8.4-8.3,22.6-9.6,26-9.4c0.8,0.1,1.7,0.7,0.7,2.1c0.8,0.4,3.6,0.1,4.6-0.9c1.1,1.1,4,1.2,4.6,0.9c-1.1-1.3-0.1-2,0.7-2.1
				c3.4-0.3,16.8,0.4,26.1,9.6C494.7,60.7,488.6,68.4,485.3,73z"/>
			<g>
				<path class="st1" d="M524.7,89.6c-2.6,2.1-5,4.2-13.2,9l-2.1,1.2v-1.5c0-0.1,0.5-20.9-9.5-38.5c-0.7,0.8-2.8,3.6-4.9,6.3
					c1.3-0.1,2.6,0.1,3.7,1.3c2.1,2,5.4,6.9,7.4,12c1.1,3.2,1.8,7.5,1.7,11.2l0,0c0,0-1.2,21-3.6,41.2c-2.1,18.3-3.4,20.7-3.4,20.7
					c-1.5-1.7-2-3.8-2.4-5l-0.1,0.1c0,0-1.3-1.8-2.1-5.4c-0.9-4.1-1.1-11.5-0.9-14.9l0,0c0,0,0-1.1-0.8-2.8
					c-0.4-0.8-0.7-1.7-0.9-2.5l0,0c-1.3-5.7-3.8-7.3-5.3-9c-1.7-2.1-2.9-4.4-3.7-6.1l-0.1,0.1c-0.9,0.9-1.6,1.8-1.7,2.4
					c0.3,3.3,0.7,5.7,0.1,7.3c-0.1-0.1-0.5-0.4-0.7-0.5c0.3,2.1-0.8,4.6-0.1,6.7l-1.3-0.1c0,0.1,0.1,0.3,0.1,0.3
					c0.1,0.3,0.4,0.4,0.7,0.5c0,0,0.3,0.1,0.4,0.1c0.1,0,0.4,0.1,1.3,0.5c0.8-1.6,0.1-3.2-0.5-4.1c-0.7-0.8,0.1-1.8,1.5-1.3
					c1.6,0.7,3.4,1.7,5.3,3.6c2.6,2.5,3.4,5,2.9,5.5c-0.4,0.4-0.8,0.3-1.3,0.1c0,0.1,0,0.1,0,0.3c-0.1,0.5-0.5,0.8-1.2,1.1v0.1
					c-0.3,0.4-0.8,0.5-1.6,0.5c-0.7,0-1.5-0.4-1.6-0.5c-0.1-0.1-0.3-0.1-0.5-0.4c-0.1,0.1-0.3,0.3-0.5,0.4c2.1,2.9,6.2,7.5,9.1,12.8
					c2.1,3.7,3,6.9,3,6.9s-1.2,0.4-2.5,0c0.5,1.5,0.8,2.8,0.7,3.8c-1.2,0-2.6-0.1-4.1-0.9c0,0.3,0.1,0.5,0.1,0.8
					c1.3,0.9,2.8,2,3.4,2.5c-6.3,3-15.6,1.6-15.8,1.6c-0.4,0-0.8-0.1-1.2-0.1c-0.1,0.1-0.1,0.4-0.3,0.5c0.7,1.5,2.1,4.9,2.4,5.7
					c4.1,1.8,7.8,3,13.6,2.1c0,0,0.9-0.1,3.4-0.9c2.5-0.8,7.3-3.7,11-7.1c4.6-4.2,7.3-8.7,8.2-10.6c7-13.7,8.2-34.2,8.2-42.5
					c0-2.8,0-4.2,0-4.4C524.9,96.4,524.7,91.8,524.7,89.6z"/>
				<path class="st1" d="M455.9,162.1c0.3-0.8,1.6-3.8,2.2-5.4c-0.1-0.3-0.1-0.5-0.3-0.8c-0.9,0.1-1.7,0.3-2.6,0.4
					c-0.5,0-9.4,1.5-15.7-1.6c0.8-0.5,2.2-1.7,4.2-3c0-0.1,0-0.3,0.1-0.4c-1.6,0.8-3,1.1-4.1,0.9c-0.1-1.1,0.1-2.4,0.7-3.8
					c-1.5,0.3-2.5,0-2.5,0s0.9-3,3-6.9c2-3.4,4.6-7,7-9.9c0.3-1.2,1.2-2.1,1.2-2.2c0-0.1,0.4-0.4,0.4-0.4c-0.3-0.3-0.5-0.4-0.8-0.7
					c-0.3,0.3-0.5,0.4-0.7,0.5c-0.8,0.4-1.2,0.5-1.6,0.5c-0.8,0-1.3-0.1-1.6-0.5v-0.1c-0.7-0.1-1.1-0.5-1.2-1.1c0-0.1,0-0.1,0-0.3
					c-0.4,0.1-0.8,0.1-1.2-0.1c-0.5-0.5,0.3-2.9,2.9-5.5c1.8-1.7,3.7-2.8,5.3-3.6c1.3-0.5,2,0.5,1.5,1.3c-0.8,0.9-1.3,2.5-0.5,4.1
					c0.8-0.3,1.1-0.4,1.2-0.4c0.3-0.1,0.7-0.3,1.1-0.8c0,0,0.1-0.1,0.1-0.3l-1.2,0.1c0.5-1.5-0.3-4.9,0.3-7.1
					c-0.1,0.1-0.5,0.4-0.8,0.4c-0.4-2-0.4-5.3-0.1-6.9c0-0.4-0.7-1.2-1.5-2c-0.7,1.6-1.7,3.6-3.6,5.8c-1.5,1.7-4,3.3-5.3,9l0,0
					c-0.3,0.9-0.5,1.7-0.9,2.5c-0.8,1.7-0.8,2.8-0.8,2.8l0,0c0.1,3.6-0.1,10.8-0.9,14.9c-0.8,3.6-2.1,5.4-2.1,5.4l-0.1-0.1
					c-0.3,1.2-0.9,3.4-2.4,5c0,0-1.2-2.4-3.4-20.7c-2.4-20.1-3.6-41.2-3.6-41.2l0,0c-0.3-3.7,0.7-8.1,1.7-11.2c2-5,5.3-10,7.4-12
					c1.3-1.3,2.8-1.6,4.1-1.3c-0.4-0.5-0.8-1.1-0.8-1.1c-1.5-1.8-3-3.8-4.4-5.7c-9.8,17.3-9.6,38-9.6,38.1v2.2l-1.7-0.9
					c-7.8-4.4-11.1-7-13.6-9.1c-0.1,2.1-0.3,9.2-0.3,9.2c0,0.1,0,1.6,0,4.4c0,8.2,1.5,28.5,8.2,42.5c0.9,1.7,3.4,6.3,8.1,10.7
					c3.4,3.3,7.5,5.5,11.9,7c0.3,0.1,0.8,0.3,1.1,0.4c5.1,1.6,10.7,1.3,16.2-1.5L455.9,162.1z"/>
				<path class="st1" d="M460.1,167.3c0.1-2.4,0.5-6.1,1.1-9.2c-0.8,0.8-1.5,1.2-1.6,1.2s-0.3-0.1-0.4-0.4c-1.6,3.7-3.7,9.1-3.7,9.1
					C456.4,167.1,458.1,166.5,460.1,167.3z"/>
				<path class="st1" d="M475,169.8c0.1-2.5-0.9-9.5-1.6-13.3c-0.1-0.1-0.1-0.3-0.3-0.3c-0.1-0.1-0.3-0.4-0.4-0.5
					c-0.3,0.8-0.5,1.6-0.9,2.4c-0.4,0.9-1.2,2-1.3,2s-2-1.3-3.2-3.8c-1.2,2.5-3,3.8-3.2,3.8s-0.8-1.1-1.3-2
					c-0.1-0.4-0.4-0.9-0.5-1.3c-0.7,4.1-1.5,10.7-1.5,13.2c-3.8-2.5-6.2,0-5.3,1.7c0.1,0.1,0.1,0.3,0.3,0.4c0.5,0.7,1.1,0.9,1.8,1.1
					c1.2,0.1,2.9,0.3,4.8,1.1c1.7,0.8,3.6,2.1,5.4,4.4c1.8-2.4,3.7-3.6,5.3-4.4c1.8-0.8,3.4-1.1,4.8-1.1c0.8-0.1,1.5-0.4,1.8-1.1
					c0.1-0.1,0.1-0.3,0.3-0.4C481.1,169.8,478.9,167.3,475,169.8z"/>
				<path class="st1" d="M476.3,159.2c0,0-0.5-0.3-1.3-0.9c0.5,2.8,1.1,6.3,1.2,9c2-0.8,3.6-0.3,4.6,0.7c0,0-2.4-5.9-3.7-9.6
					C476.7,158.8,476.5,159.2,476.3,159.2z"/>
			</g>
			<g>
				<path d="M461.8,82.9L461.8,82.9L461.8,82.9"/>
			</g>
			<g>
				<polyline points="459.7,83.8 459.7,83.8 459.7,83.8 				"/>
			</g>
			<path d="M494.3,94c-0.3,1.3-0.8,2-2,2.8c-0.7-2-1.1-3.7,1.8-9.6c-2,5.8-1.2,7.8-1.2,7.8S493.8,94.7,494.3,94z M491.1,89.9
				c0,0-0.7-1.3,1.1-6.3c-3.2,4.9-1.8,8.2-1.8,8.2s1.7-0.8,2.1-2.6C492.1,89.6,491.1,89.9,491.1,89.9z M502.6,81.2
				c-0.5,5.1-0.9,6.2-1.5,7.1c-0.4-0.3-0.8-1.3-0.8-1.3c-0.1,0.9,0,2.4,0.8,3C502.2,88.7,503,85.9,502.6,81.2z M501.6,77.8
				c-0.8,5.7-1.7,7-2.4,8.1c-0.5-0.4-0.9-1.7-0.9-1.7c-0.3,1.1,0,2.6,0.8,3.6C500.4,86.2,501.8,83,501.6,77.8z M497.3,83.4
				c-0.5-1.6-0.4-3-0.4-3c-0.8,2.2-0.5,4.1,0.3,5c1.3-1.3,3.3-5.7,3-9.6C499.3,80.4,498,82.5,497.3,83.4z M495.2,80.1
				c-0.4-1.6-0.1-4-0.1-4c-1.1,2.1-0.8,5.1-0.1,6.1c1.5-1.2,3.4-5,3.6-9C497.2,77.9,496,79.2,495.2,80.1z M502.2,89.8
				c-0.1,1.2,0.9,2,0.9,2s1.7-2.4,1.1-6.6c-0.4,3.8-1.2,5.1-1.2,5.1S502.3,90,502.2,89.8z M504.2,91.6c0,1.1,0.9,1.7,0.9,1.7
				s1.5-2.1,0.7-5.8c-0.1,3.4-0.9,4.6-0.9,4.6S504.2,91.8,504.2,91.6z M434.2,88.5c-0.5-0.9-0.9-2-1.5-7.1c-0.4,4.6,0.4,7.5,1.5,8.8
				c0.8-0.8,1.1-2.1,0.8-3C435,87.1,434.6,88.2,434.2,88.5z M436.1,86.1c-0.7-0.9-1.6-2.2-2.4-8.1c-0.1,5.3,1.2,8.3,2.4,9.8
				c0.8-0.9,1.1-2.5,0.8-3.6C437,84.2,436.6,85.7,436.1,86.1z M438.1,83.6c-0.7-0.9-2.1-2.9-2.8-7.7c-0.3,4,1.7,8.2,3,9.6
				c0.8-0.9,1.1-2.8,0.3-5C438.5,80.4,438.6,82,438.1,83.6z M440.1,80.3c-0.8-0.9-2-2.1-3.3-6.9c0.1,4,2.1,7.7,3.6,9
				c0.7-1.1,0.8-4-0.1-6.1C440.3,76.3,440.4,78.7,440.1,80.3z M432.4,90.6c0,0-0.8-1.3-1.2-5.1c-0.7,4.1,1.1,6.6,1.1,6.6
				s1.1-0.8,0.9-2C433.1,90.3,432.4,90.6,432.4,90.6z M430.5,92.3c0,0-0.8-1.3-0.9-4.6c-0.7,3.7,0.7,5.8,0.7,5.8s0.9-0.7,0.9-1.7
				C431.1,92,430.5,92.3,430.5,92.3z M442.3,95.2c0,0-0.8-0.3-1.2-1.1c0.3,1.3,0.8,2,2,2.8c0.7-2,1.1-3.7-1.8-9.6
				C443.2,93.2,442.3,95.2,442.3,95.2z M444.3,90c0,0-0.9-0.3-1.5-0.8c0.4,1.8,2.1,2.6,2.1,2.6s1.5-3.4-1.8-8.2
				C444.9,88.7,444.3,90,444.3,90z M458.5,114.7c0.3-2.6-1.2-4.9-1.3-5.9c-0.3,0.3-0.3,1.2-0.3,1.2c-0.9-1.1-1.2-2.8-1.5-3.4
				c-0.3,1.8-0.8,2.8-1.1,3.6c0.4,0,0.8-0.1,1.2-0.4C456.2,112,458,112.3,458.5,114.7z M477.8,110.1c0,0,0-0.9-0.3-1.2
				c-0.3,1.1-1.7,3.4-1.3,5.9c0.7-2.4,2.5-2.9,2.9-5c0.4,0.3,0.8,0.4,1.2,0.4c-0.3-0.9-0.9-1.7-1.1-3.6
				C479,107.3,478.7,109.2,477.8,110.1z M463.5,107.5c-0.3-0.9-0.8-3.8-1.8-5.1C461.3,104.6,462.6,106.5,463.5,107.5z M470.8,110.4
				c0.5-1.2,1.6-2.4,1.6-6.3C471.2,105.2,470.7,108.9,470.8,110.4z M468.6,112c0.7-1.6,0.5-3.6-0.1-4.4
				C467.9,109.2,467.9,110.8,468.6,112z M466.7,107.2c0.5-1.8,0.5-4-0.3-5C465.9,104,465.9,105.7,466.7,107.2z M479.4,91.1
				c-1.1,1.5-1.5,4.8-1.7,5.9C478.1,96.6,480,91.9,479.4,91.1z M479.5,85.7c0,0,1.8-3.2,0.8-4.9C479.1,81.1,479.5,85.7,479.5,85.7z
				 M474.2,93.5c0,0,2.8-2.8,2.8-6.2c-0.8,2.2-2.8,3.3-2.8,3.3s-1.1-0.7-1.6-2.1C472.3,91.9,474.2,93.5,474.2,93.5z M479.8,89.5
				c0.8-1.2,1.8-2.9,0.9-4.1C480.3,86.6,480.2,87.9,479.8,89.5z M470.9,102.8c0.5-1.2,1.7-3.3,1.5-5.7
				C471.3,98.1,470.9,101.4,470.9,102.8z M475,99.3c1.7-2.1,2.5-4.5,1.8-6.9C475.4,94.7,475.3,97,475,99.3z M471.5,92
				c-0.5,1.7-1.2,2.8-2.4,4c-0.5-0.5-1.1-1.1-1.7-2.5c-0.3,2.8,1.3,4.4,2.2,5C470,98,471.9,95.3,471.5,92z M464.1,99
				c-0.4-0.1-2-1.6-2.5-2.6c0.3,1.6,2.4,4.6,3.4,5.3c0.4-0.5,1.6-3,0.5-7C465,97,464.5,98.2,464.1,99z M454.2,80.3
				c-0.3-1.3,1.5-2.6,0.9-4.8C453.4,77.4,453.8,79.1,454.2,80.3z M457.6,96.4c0.9,1.6,1.7,2.4,2.4,3c-1.2-1.7-2.1-5.1-3.3-5.9
				C456.7,94,457.1,95.5,457.6,96.4z M456.8,89c-0.7,2.8,2.1,5.4,2.1,5.4C458.9,94.5,458.9,91.2,456.8,89z M458.7,83.8
				c0,1.2,0,2.2-0.3,3.6c-0.8-0.1-1.2-0.8-1.7-1.2c0.5,1.6,2.4,3.4,2.8,3.8C459.7,87.8,459.7,85.3,458.7,83.8z M457.5,76.7
				c0.8-2.8,2.4-4.4,2.9-5.9C457.6,72.6,456.9,75.7,457.5,76.7z M455.1,88.9c-0.4-2.4-0.3-4-1.3-5.9
				C453.4,85.3,454.8,88.5,455.1,88.9z M462.1,79.6c-1.8,2.4,1.1,5.3,1.1,5.3C463,84.9,463.3,80.5,462.1,79.6z M463.4,73.3
				c-2.8,2.1-1.5,4-0.9,5.1C463,76.3,463.3,75.8,463.4,73.3z M465,91.9c0.5-1.1,1.8-3,1.2-6.3c-0.3,2.5-1.8,3.6-1.8,3.6
				s-0.9-0.5-1.6-2C463,90.3,464.1,91.1,465,91.9z M479.1,73.7c-0.1,1.6,1.6,5.1,1.7,5.4C480.8,78.8,481.9,75.8,479.1,73.7z
				 M475.4,67.5c-0.3,1.3,1.8,3.3,1.8,3.4C477.3,70.8,477.5,68.3,475.4,67.5z M478.5,77.6c-0.7,2.9-1.8,4.1-1.8,4.1s-1.1-0.8-1.8-2
				c0,2.4,2,4.6,2,4.6C476.6,84.4,479.1,82.4,478.5,77.6z M472.7,72.1c-1.2,1.2-0.1,3.6,0.5,5.8C473.7,76.8,474.5,73.3,472.7,72.1z
				 M473.6,68.8c0-1.1-0.4-2.9-2.8-3.3C470.7,66.8,472.8,67.5,473.6,68.8z M470.9,64.3c0.5,0.5,2.4,0.9,3.3,1.8
				C474.1,64.7,472.5,63.8,470.9,64.3z M468.6,71.2c-1.7,1.8-0.7,3.4-0.7,3.3C467.9,74.5,469.9,72.2,468.6,71.2z M471.1,88.6
				c0,0,2.1-2,2.4-6.1c-1.2,2-2.5,3.2-2.5,3.2s-1.2-0.8-2.1-2C468.8,86.3,471.1,88.6,471.1,88.6z M467.9,77.4c-1.8,2.8,0,5.8,0,5.8
				S469.2,79.2,467.9,77.4z M468.6,57.2c0.5,0.5,2.1,1.2,3,2.1C471.5,57.8,470.3,57,468.6,57.2z M469.5,58.8
				c-0.9-1.2-2.2-1.6-2.9-1.7C467.2,58.1,468,58.9,469.5,58.8z M472.8,61.7c-0.1-0.3-0.8-1.5-2.5-1.7c0.5,0.4,0.8,1.2,0.9,1.5
				c-0.3,0.1-1.2,0.3-1.5,0.3C470.3,62.2,471.5,62.2,472.8,61.7z M458,57.6c-0.1,0.1-0.3,0.5,0.3,0.5c0.5,0,0.5-0.5,0.5-0.5
				S458.1,57.4,458,57.6z M472.4,29.3c-0.5-0.4-0.9-0.7-1.5-1.1c-0.5,0.3-1.1,0.8-1.5,1.1c0.5,0.4,0.8,0.7,1.3,1.1
				C471.5,30,471.7,29.7,472.4,29.3z M463.5,56.4c0,0,0.1,0.4,0.1,0.9c-0.1,0.5-0.4,1.1-1.2,1.3c-0.9,0.3-1.8-0.4-1.8-1.3
				c0-0.3,0-0.5,0.1-0.8c-0.3,0-0.3,0.3-0.7,0.7c-0.1,0.3-0.5,0.1-0.9,0.5c0-0.5,0.7-1.5,1.3-1.7c1.1-0.4,4.5-0.7,6.9,0.7
				c-0.8-0.1-1.6-0.1-2.4-0.1C464.1,56.4,463.5,56.4,463.5,56.4z M463.1,56.4c-0.1-0.1-0.9,0-0.9,0.1c-0.1,0.1,0.5,0.4,0.7,0.5
				c0.1,0,0.3,0,0.4-0.1C463.1,56.6,463.1,56.5,463.1,56.4z M474.6,36.2c-6.9-0.4-20.1,0.4-26.5,2.1c0,0-0.7-1.7-1.3-2.4
				c-1.7-1.8-2.4,0.1-2.5,0.4c2.2,0.1,2.5,1.2,2.5,1.2c-0.5,0.9-0.9,1.3-2.1,2.1c-0.4,0.3-1.7,1.2-3.7,1.3c-4.1,0.1-3-4.1-0.5-5.8
				c-0.3,0.4-1.7,2.6-0.9,3.8c1.1,1.3,4.8,0.3,5.7-0.9c-0.5-0.5-1.5-0.7-2.8-0.5c0.1-0.7,0.4-2.4,2.4-4.1c0.7,0.1,2.8,1.2,3.4,2.9
				c5.9-1.6,17-2.1,17.6-2.1c-0.1-1.1-0.5-5-0.5-5.1c0-0.7,0.4-0.9,0.8-1.2c0.5,0.8,0.9,1.2,1.8,1.6c-0.4,0.5-0.8,0.7-1.2,1.1
				c0.1,0.8,0.1,2.2,0.1,2.8c0.9-0.4,2.4-1.1,4-1.5c0.5-0.1,1.3-0.3,1.8-0.1c0.5,0.1,1.3,0.4,1.6,0.7c0.3,0.3,0.7,0.7,0.7,1.3
				C475,34.6,474.8,35.4,474.6,36.2z M473.2,33.6c-0.8-1.5-4-0.1-5.9,0.7c1.2,0,2.1,0,3.4,0c0.5,0,1.8,0,2.6,0
				C473.3,34.1,473.3,33.8,473.2,33.6z M444.8,40.9c-0.4-0.1-0.8-0.3-1.2-0.4c-0.3,0.4-0.7,1.1-0.8,1.5c0.5,0.1,1.1,0.4,1.7,0.5
				c0.3-0.4,0.4-0.7,0.7-0.9c0.4,0.1,0.8,0.3,1.2,0.4c0.4-0.5,0.5-0.8,0.9-1.5c-0.7-0.1-1.1-0.4-1.7-0.5
				C445.2,40.3,445.1,40.5,444.8,40.9z M495.1,35.9c1.3-0.1,2.6,0.3,3.2-0.4c-0.8-0.3-1.7-0.5-2-0.9c0.4-0.3,0.9,0.1,1.2,0.3
				c0.1-0.1,0.3-0.3,0.5-0.5c-0.9-0.7-2.2-0.3-2.5,0.4c0.3,0.1,0.7,0.3,0.8,0.4C495.7,35.4,495.2,35.7,495.1,35.9z M494.3,38.3
				c-0.5,1.3-1.1,2.5-1.7,3.7c0.4,0.1,0.9-0.1,1.2-0.4c1.7-1.1,2.9-3.8,3.6-5.5c0,0-0.9,0.1-1.5,0.4C494.8,37,494.7,37.2,494.3,38.3
				z M481.6,39c0.4,0.4,0.8,0.8,1.2,1.2c0.7-0.4,0.9-0.5,1.6-0.8c-0.5-0.4-0.8-0.8-1.2-1.2C482.7,38.3,482,38.7,481.6,39z
				 M492.8,37.6c-0.3,0.9-0.9,1.5-1.3,2.1c-2.4-0.9-7.4-2.2-10.3-2.5c-0.8,0.8-1.8,2-3,2.2c-1.7-0.3-2.9-0.7-4.1-1.2
				c0.7,0,0.9,0,1.3,0c1.7,0,3.3-0.5,4.4-1.3c-2.5-0.4-3-1.1-1.8-2.6c0.5-0.7,1.5-2,2.8-1.7c1.1,0.3,1.3,1.7,1.2,2.8
				c2.9,0.4,6.6,1.3,9.4,2.2c0.1-0.8-0.3-1.2-0.7-1.7c0.4-0.4,1.1-0.9,1.6-1.3C492.7,35.1,493.2,36.7,492.8,37.6z M479.4,33.9
				c0,0-0.5,0.3-0.8,0.8c0.3,0.4,0.7,0.5,1.3,0.5c0.1,0,0.3,0,0.4,0C480.6,34.7,479.9,33.8,479.4,33.9z M448.8,39.9
				c0.5,0.3,0.9,0.4,1.6,0.7c0.4-0.5,0.7-0.8,1.2-1.3c-0.7-0.3-1.1-0.5-1.7-0.7C449.4,39,449,39.5,448.8,39.9z M518.8,146.8
				c-3.7,7.4-8.4,12-14.8,16c-9.4,5.9-19,4.5-22.2,2.6c0,0,0.3,0.7,0.4,0.8c0.1,0.3,0.3,0.5,0.3,0.8c1.2,3.4,0.4,6.9-4.2,7.4
				c-1.2,0.1-2.5,0.1-4.1,0.9c-1.1,0.5-2.4,1.3-3.7,2.8c-0.5,0.5-1.7,2.1-2.4,3.3l0,0l0,0l0,0c-0.5-1.2-1.7-2.8-2.4-3.3
				c-1.3-1.5-2.6-2.2-3.7-2.8c-1.6-0.8-2.9-0.8-4.1-0.9c-4.6-0.5-5.4-4-4.1-7.4c0.1-0.1,0.1-0.5,0.3-0.8l0.4-0.8
				c-2.4,1.3-8.1,2.4-14.8,0.5c-0.1,0-0.5-0.1-0.7-0.1c-5.4-1.5-10.2-4.1-14.1-7.9c-4.9-4.6-7.5-9.5-8.4-11.4
				c-8.8-18.3-7.7-45.5-7.7-48.4c-0.3-31.4,6.6-49.1,12.7-57.5c-1.8-2.4-2.9-3.8-3-4c-0.7-0.7-1.6-1.6-3.7-1.8c-0.5-4.1-2.1-9-2.1-9
				s4.1,2.9,7.9,4.6c-0.3,2.1,0.3,3.3,0.8,4.1c0.1,0.1,0.9,1.2,2.4,3.2c2.6-3.3,5.4-5.7,9.9-8.3c1.1-0.7,2.2-1.2,3.4-1.7
				c-0.1-1.7,0.5-3.3,1.6-4.4c0-0.9,0.8-2.1,1.8-2.5l0,0c1.1-0.3,2.5,0.1,3.3,0.9c1.7,0.3,3.3,1.1,4.5,2.4c3.7-0.8,7.8-1.3,12.5-1.6
				c0.5-2.4,2.1-4,4-4.9c0.5-1.1,1.8-2,3-2.1l0,0l0,0l0,0c1.2,0.1,2.6,1.1,3,2.1c1.8,0.9,3.3,2.6,4,4.9c4.8,0.3,8.8,0.9,12.5,1.6
				c1.2-1.3,2.8-2.2,4.5-2.4c0.8-0.7,2.2-1.2,3.3-0.9l0,0c0.9,0.4,1.8,1.6,1.8,2.5c1.1,1.2,1.7,2.8,1.6,4.4c1.2,0.5,2.4,1.2,3.4,1.7
				c4.5,2.5,7.5,5.3,10,8.3c1.6-2.1,2.5-3.4,2.6-3.4c0.5-0.8,1.1-2,0.8-4.1c3.8-1.7,7.9-4.6,7.9-4.6s-1.6,4.9-2.1,9
				c-2.1,0.3-3.2,1.2-3.7,1.8c-0.1,0.1-1.3,1.7-3.4,4.4c5.9,8.6,12.8,26.1,12.5,57.3C526.5,100.7,527.7,128.4,518.8,146.8z
				 M516.1,48.2c-3.7,0.8-6.1,0.8-7.5,0.7c-0.9,2.1-1.7,4-1.7,7.4c-1.6-0.5-2.4-0.9-3.2-1.7c-1.1,1.5-1.7,2.2-2.8,3.7
				c9.9,17.6,9.9,33.8,10,38.4c7.7-4.4,12.5-8.4,13.5-9.2C523.6,71.2,521.1,58.8,516.1,48.2z M500.4,97.3c-0.3,1.8-0.3,3.4,0.3,5.1
				c0.9-1.2,1.5-2.2,2.1-4.4c0,1.6,0.5,3.4,0.8,4.2c1.2-1.7,1.8-8.6,1.8-8.6s0,0.1,0.7,0.4c0.7-2.5,0.3-7.5-0.3-9.9
				c-0.9-4.2-2.5-9.2-7.7-15.3c-2.6-3-4.9-1.7-7.1,0.8c-3.6,4-4.4,5.7-8.7,6.5l0,0c-0.4,0.1-0.1,0.3,0.8,0.3
				c5.1-0.1,6.9-3.6,8.3-5.3c1.1-1.2,2.4-2.1,3.4-1.5c0.4,0.3,1.8,1.8,0.4,5.9c0-0.9-0.4-1.7-0.5-2c-0.7,2.6-1.6,4.9-2.6,6.6
				c-0.1-0.4-0.3-0.8-0.3-1.5c-0.5,3.3-3.4,6.7-3.8,11.4c-0.3-0.5-0.5-0.8-0.5-2.1c-2.2,4.1-4.5,11.4-3,15
				c-0.1-3.7,2.2-9.1,3.4-10.8c-1.5,4.8-3.3,10.7-1.7,14.3c0.1-3,1.8-8.1,3.2-10.2c-2.1,7.9-2.9,11.9-0.7,14.9
				c-0.4-2.9,0.8-7.4,2.4-11.1c-1.1,6.2-2.6,11.5,0.3,14.3c-0.4-4,1.2-9.4,2-11.2c-0.9,5.9-1.7,11.7,0.1,14.5c0-2.1,0.4-4.2,0.8-6.2
				c0.5-2.6,1.3-5.1,1.3-5.1s-0.7,4.1-0.9,9.2c0,0.8-0.1,1.7,0,2.5c0,1.1,0.1,2.1,0.3,3c0.1,0.9,0.4,1.7,0.9,2.5
				c0.5-6.7,1.3-12.5,2.2-15.2c0,0-0.8,6.2-1.3,15.8c0,0.4,0,0.7,0,1.1c-0.7,13.9,1.2,18.2,1.8,19.5c0,0-0.1-0.3-0.1-2
				c0-1.5,0-1.5,0.1-3c0-0.5-1.2-3-1.1-6.5c0.1-2.1,0.3-4.1,0.4-6.1c0.1-1.8,0.3-3.6,0.5-5.3c0.3-1.6,0.4-3,0.5-4.6
				c0.3-2.2,0.8-4.5,1.2-6.6c0.3-1.7,0.1-0.3,0.1,0.3c-0.1,2-0.5,6.3-0.9,10.8c-0.3,3.3-0.9,9.9-0.8,13.2c0.1,2.8,0.9,4,0.9,4.4
				c-0.1,5.4,0.4,7.5,1.3,9.6c0,0,0.5-2,0.9-4.4c-0.1,0.1-0.3,0.4-0.5,0.5c-0.7-1.7-1.1-4.8-0.5-7.9c0.1-0.5-0.8-1.3-0.7-3.8
				c0.1-4,0.7-7.9,1.2-11.9c0.1-1.3,0.4-2.6,0.5-3.8c0.1-0.8,0.3-1.6,0.4-2.4c0.1-1.2,0.4-2.5,0.7-3.7c0-0.1,0.1-0.4,0.1-0.5
				c0,0,0,0.9-0.1,2.1c-0.4,5.3-1.6,18.9-1.7,19.9c0,2.6,0.7,3.4,0.7,4c-0.1,2-0.1,5.4,0.1,6.3c0.3-0.8,0.4-2.2,0.4-2.2
				s0.8-5.5,1.6-13.3c0.1-1.2,0.3-2.4,0.4-3.6c0.1-1.2,0.3-2.2,0.4-3.4c0.1-1.5,0.3-2.8,0.4-4.2c0-0.7,0.1-1.2,0.1-1.8
				c0.3-3.7,0.7-7.9,1.1-11.5c0,0,0.5-5.9,0.7-7.8c-0.1-0.1-0.3-0.3-0.3-0.3s-0.7,7.4-2.6,10c-0.5-0.5-1.2-3.3-1.2-4.2
				c-0.4,1.5-2.2,3.4-2.2,3.4s-0.7-1.5-0.5-3.8c-0.7,0.9-1.2,1.6-2,2c-0.4-0.8-0.8-1.7-0.8-4.1c-0.3,0.4-0.8,0.9-1.7,1.5
				c-0.3-0.5-1.6-2.6,0.8-10.3c-0.9,7.1-0.4,7.9-0.1,8.4c0.4-0.1,0.8-0.5,1.1-0.7c0.1-1.3,0.3-2.9,0.8-5c-0.4,5.7,0.1,7.4,0.5,8.6
				C498.7,100.7,499.3,99.7,500.4,97.3z M483.1,99.7c0.5-7.3,1.8-11.7,2.8-15.6C482,88.3,482.6,98.1,483.1,99.7z M483.7,83.7
				c1.2-3.7,0.1-5.5-0.5-5.9C483.2,79.5,483.6,80.3,483.7,83.7z M486.9,86.7c0.9-3.4,1.5-5.4,1.5-8.2
				C487.6,79.5,486.8,83.2,486.9,86.7z M490.2,79.5c0.3-1.2,0.4-2.8,0.1-4.1c-0.5,1.2-1.2,4-1.1,6.5
				C489.7,81.1,490.1,80.3,490.2,79.5z M481.4,107.2c0-0.1,0-0.1,0-0.1l0,0h0.1c0.1,0,0.3,0.1,0.5,0.3c0.1,0.1,0.3,0.1,0.5,0.3
				c-0.3-0.7-0.4-1.6-0.4-2.6c-0.1-1.1-0.1-2.2-0.4-3.3l-0.1-0.1c-0.1,0.5-0.5,1.1-0.9,1.6c-0.5,0.8-1.2,1.5-1.3,2.5v0.1l-0.1-0.1
				c0.3,0.3-0.8-0.9-0.8-1.1c-0.4,1.6-3.2,5-3.8,5.8l0,0c-0.1,0.1-1.2,1.7-1.6,5.5c-0.4,3.7,0,5.9,0,5.9l0.9-1.1c0,0,0,1.1-0.1,2.2
				c-0.1,0.9-0.4,1.6-0.4,1.6s2,0.3,3.4-1.5l0.3,0.7c0.3,0.7,0.4,1.6-0.1,2c-0.1,0.1-1.1,0.9-0.9,1.7c0,0.3,0.1,0.5,0.5,0.8l0,0l0,0
				c0,0.4,0.4,0.7,0.5,0.8c-0.1-0.4,0-0.7,0-0.8c0.1-0.5,0.5-0.7,0.8-0.7s0.4,0,0.4,0s0.3,2.2,0.4,3.2c0.1,0.8,0.4,1.8,0.5,3
				c0,0.3,0,0.5,0.1,0.8c0.1,0.8,0.5,0.8,0.9,0.9c0.3,0,0.8,0,0.9,0l0,0l0,0c-0.5,0.1-0.5,0.4-0.5,0.5c0.1,0.4,0.3,0.8,0,1.5
				l0.1,0.1c0.9-0.5,0.9-1.3,0.8-2l0,0l0,0c0.7-0.4,0.5-1.7-0.4-3.7c-0.4-0.9-0.7-2.5-0.4-2.6l0,0c0.1,0,0.4,0,0.8,0.7
				c0.3,0.5,0.7,0.8,1.1,1.3c0.4,0.5,0.7,0.9,0.7,1.3c0,0.1,0,0.3-0.1,0.3c-0.1,0-0.1,0.1-0.3,0.1s-0.4,0-0.7,0
				c0.3,0.3,1.1,1.2,1.3,0.8c0.7-0.7,0,0.4,1.2,0.5c0.7,0,1.2-0.4,1.2-1.3c0-0.3,0-0.5-0.1-0.8c-0.1-0.8-0.8-1.6-1.1-1.8l-0.3-0.3
				c-1.7-2-1.6-2.4-1.5-2.6s0.4-0.4,0.8-0.4c0.7,0,1.5,0.1,1.5,0.1c0.8,0.1,1.8,0.3,1.8,0.7c0,0.1-0.1,0.1-0.1,0.3
				c-0.3,0.1-0.7,0.3-0.8,0.1c0.1,0.1,0.3,0.3,0.7,0.5c0.3,0.1,1.5,0.5,1.8-0.1l0.1-0.3c0.3,0,0.8-0.1,0.9-0.5s-0.4-0.9-0.9-1.2
				c-0.4-0.3-1.6-0.7-2.6-1.1c-0.4-0.1-0.9-0.3-1.3-0.3l-2.1-0.5c0,0-1.2-0.4-1.6-0.5c-0.3-0.1-0.4-0.1-0.5-0.3
				c-0.4-0.1-0.7-0.4-0.9-0.8c-0.3-0.3-0.5-1.2-0.8-2.1c0.3,0.1,0.9,0.5,1.7,0.7c-0.1-0.3-0.1-1.3-0.1-2c0.4-3.6,0.4-5.5,0.4-5.5
				s0.7,0.7,0.7,0.8c0.1-0.7-0.1-2.1-0.3-3.6l0,0C482,110.2,481.6,108.5,481.4,107.2z M483.9,124l1.7,0.4c0.3,0.1,0.5,0.1,0.8,0.1
				c0.3-0.8,0.4-1.6,0.4-2.4c0-0.9,2.1,1.1,3.4,2.4c0.5,0.5,0.7,0.4,0.4-0.1c-1.5-2-4.2-3.7-5-4.2c-1.3-0.8-2-0.7-1.6,0.1
				C484.7,121.2,484.5,122.6,483.9,124z M486.4,137.8c1.6,2,4.1,5.7,5,6.7c2.1,2.1,2.9,2.4,4.5,2.5c-0.5-1.5-1.1-2.9-3.4-6.7
				c-1.3-2-3.4-5.3-5.5-7.7c0,0.4,0,0.8-0.1,1.1c0,0.1-0.1,0.1-0.1,0.3c-0.1,0.3-0.4,0.5-0.5,0.7c-0.4,0.3-0.8,0.4-1.2,0.3
				c-0.4,0-0.8-0.3-1.1-0.5c-0.3,0-0.5,0-0.8-0.1c0.1,0.8,0,1.3-0.4,1.7c0,0.5-0.1,1.5-0.8,2.1c0.1,0.1,0.1,0.1,0.1,0.1
				c0.5,0.9,0.3,1.5,0,1.7s-2.8,3-3.3,3.6c-0.7,0.7-1.3-0.1-1.3-0.1L477,143c0,0-0.7,0.7-1.2,1.2l0.1,0.1l0,0
				c0.8,0.8,1.8,1.3,2.8,1.7s3.6,1.3,5.4,2.1c-0.4-1.3-0.9-2.8-1.5-4.4c0.5,0.7,1.7,2.9,2.9,4.9c-0.1,0,0.1,0.1,0.1,0
				c1.5,0.7,3.3,1.6,4.8,2.5c-0.1-0.5-0.3-0.8-0.3-0.8s-1.3-1.3-2.2-2.6c-1.8-2.6-3-5.4-3.6-7.3c2.1,3.2,2.6,4,3.4,5.1
				c2.6,3.6,5.4,5,6.5,5c-0.4-2-1.1-2.4-1.1-2.4s-1.3-1.1-2.6-2.9c0.3,0.4,0.7,0.9-0.1-0.1c-0.5-0.8-0.3-0.4,0-0.1
				C489.2,143.5,487.7,141,486.4,137.8z M479.3,155c3.6,0.4,11.1,0.4,13.9-0.7c-1.1-0.8-5.3-3.6-11.9-6.2c-1.3-0.5-3.2-1.2-4.4-2.1
				c-0.8-0.5-1.2-0.9-2-1.6c-2.1-2-7.9-7.9-8.8-9.1l-3.8,3.4c0,0,10,9.8,12.5,11.2c3.3,1.7,12.5,3.8,12.5,3.8s-7.1-0.5-12.5-2.8
				c-3.3-1.3-13.6-11.5-13.6-11.5l-2.5,2.2c1.3,1.5,4,4.5,8.4,8.2C470.4,152.6,474.1,154.3,479.3,155z M468.4,152.7
				c0,2,1.6,3.8,2,4.2c0,0,0.5-0.8,0.9-2.6C469.9,153.7,469,153.1,468.4,152.7z M451.3,140.3c-0.5,1.8-1.7,4.6-3.6,7.3
				c-0.9,1.3-2.2,2.6-2.2,2.6s-0.1,0.3-0.1,0.7l-0.3,0.1l1.5-0.8c0.3-0.1,0.5-0.3,0.8-0.4c0.9-0.5,2.1-1.1,3.2-1.5
				c1.1-2,2.4-4.2,2.8-4.9c-0.1,0.5-0.4,1.7-1.6,4.4l0.8-0.3c1.7-0.7,3.2-1.2,4-1.6c1.2-0.5,1.7-1.1,2.2-1.3
				c0.1-0.1,0.3-0.3,0.5-0.4l-1.2-1.2l-0.4,0.4c0,0-0.7,0.7-1.3,0.1c-0.5-0.5-3-3.3-3.3-3.6s-0.5-0.8,0-1.7l0,0
				c-0.8-0.7-0.9-1.7-0.9-2.1c-0.4-0.4-0.5-0.9-0.4-1.7c-0.3,0.1-0.5,0.3-0.8,0.1c-0.3,0.3-0.7,0.5-1.1,0.5c-0.1,0-0.1,0-0.1,0
				c-0.4,0-0.8-0.1-1.2-0.4c-0.4-0.3-0.4-0.3-0.7-0.8v-0.1c-1.5,1.5-2.8,3.4-4.8,6.6c-2.4,3.8-3,5.3-3.4,6.7
				c1.6-0.1,2.5-0.4,4.5-2.5c0.9-1.1,3.4-4.8,5-6.7c-1.3,3.3-2.8,5.8-4,7.4c-1.5,2-2.8,3-2.8,3s-0.7,0.4-0.9,2.4
				c1.1,0,3.8-1.6,6.5-5C448.6,144.3,449.2,143.5,451.3,140.3z M449.8,129.9c-0.8,0.8-1.3,1.7-1.3,2.9c0,0.8,0.5,1.3,1.2,1.3
				c1.1-0.1,0.5-1.2,1.2-0.5c0.3,0.3,1.1-0.7,1.3-0.8c-0.5,0.1-1.2,0.1-1.1-0.5c0.1-0.5,0.5-0.9,0.8-1.3c0.3-0.4,1.2-2,1.7-1.7
				c0.3,0.1,0.1,1.7-0.4,2.6c-0.9,2-1.2,3.4-0.4,3.7l0,0l0,0c-0.1,0.7-0.1,1.5,0.8,2l0.1-0.1c-0.3-0.7,0-1.2,0-1.5
				c0-0.1,0-0.3-0.5-0.5l0,0l0,0c0.3,0,0.8,0,0.9,0c0.4-0.1,0.8-0.1,0.9-0.9c0-0.3,0-0.5,0.1-0.8c0.1-1.2,0.4-2.2,0.5-3
				c0.1-0.9,0.4-3.2,0.4-3.2s0.3-0.1,0.4,0c0.3,0,0.7,0.1,0.8,0.7c0,0.1,0.1,0.4,0,0.8c0.3-0.1,0.5-0.4,0.5-0.8l0,0l0,0
				c0.4-0.3,0.5-0.5,0.5-0.8c0.1-0.8-0.8-1.6-0.9-1.7c-0.5-0.4-0.4-1.3-0.1-2l0.3-0.8c0.3,0.4,0.7,0.7,1.1,0.9
				c1.3,0.9,2.6,0.7,2.6,0.7s-0.3-0.7-0.4-1.6c-0.1-1.2-0.1-2.2-0.1-2.2l0.9,1.1c0,0,0.5-2,0.1-5.7c-0.4-4.2-1.3-5.9-1.5-6.5
				c-0.3-0.9-0.8-1.8-0.8-1.8s-0.1,0.5-0.8,1.1c-0.8-1.1-2.2-3-2.6-4.4c-0.3,0.4-0.5,0.8-0.8,1.1l-0.1,0.1v-0.1
				c-0.1-1.1-0.8-1.7-1.3-2.5c-0.4-0.5-0.8-1.1-0.9-1.6c-0.4,1.1-0.4,2.4-0.5,3.4c-0.1,1.1-0.1,2.1-0.4,2.6c0.1-0.1,0.4-0.3,0.5-0.3
				c0.3-0.1,0.4-0.3,0.5-0.3h0.1l0,0v0.1c-0.3,1.5-0.7,3.2-0.7,4.1c-0.1,1.5,0,2.8,0.1,3.4c0.1-0.1,1.1-0.7,1.1-0.7
				s-0.7,2.1-0.3,5.7c0,0.5,0,1.6-0.1,2c0.7-0.1,1.2-0.4,1.6-0.7c-0.3,0.9-0.5,1.8-0.7,2.1c-0.9,1.2-2.8,1.5-4.1,1.8
				c-1.7,0.4-3.4,0.8-4.9,1.6c-0.5,0.3-1.1,0.8-0.9,1.2c0.1,0.4,0.7,0.5,0.9,0.5l0.1,0.3c0.4,0.5,1.6,0.3,1.8,0.1
				c0.4-0.1,0.7-0.4,0.7-0.5c-0.1,0.1-0.5,0-0.7-0.1c-0.1,0-0.1-0.1-0.1-0.3c-0.1-0.7,2.9-0.8,3.4-0.8s0.7,0.1,0.8,0.4
				C451.4,127.5,451.5,127.9,449.8,129.9z M450.6,120.4c0.5-0.8-0.3-0.9-1.6-0.1c-0.8,0.5-3.6,2.2-5,4.2c-0.4,0.5-0.3,0.8,0.4,0.1
				c1.5-1.5,3.6-3.3,3.4-2.4c0,0.8,0.1,1.6,0.4,2.4c0.3,0,0.4-0.1,0.7-0.1l1.8-0.5C450.2,122.5,450.1,121.2,450.6,120.4z
				 M447.6,92.5c1.2,1.7,3.4,7.1,3.4,10.8c1.5-3.7-0.9-11-3-15c0,1.2-0.3,1.6-0.5,2.1c-0.4-4.6-3.3-8.1-3.8-11.4
				c-0.1,0.5-0.1,0.9-0.3,1.5c-1.1-1.8-2-4-2.6-6.7c-0.1,0.3-0.5,1.1-0.5,2c-1.5-4.1,0-5.7,0.4-5.9c1.2-0.7,2.4,0.4,3.4,1.5
				c1.6,1.7,3.2,5.1,8.3,5.3c0.8,0,1.2-0.1,0.8-0.3l0,0c-4.4-0.8-5-2.5-8.6-6.5c-2.2-2.4-4.5-3.8-7.1-0.8
				c-5.1,6.1-6.7,11.1-7.7,15.3c-0.5,2.4-0.9,7.4-0.3,9.9c0.7-0.3,0.7-0.4,0.7-0.4s0.7,6.9,1.8,8.6c0.4-0.8,0.8-2.5,0.8-4.2
				c0.7,2,1.2,3.2,2.1,4.4c0.5-1.7,0.5-3.3,0.3-5.1c1.1,2.5,1.8,3.6,2.4,4c0.4-1.1,0.9-2.9,0.5-8.6c0.4,2.1,0.7,3.8,0.8,5
				c0.3,0.3,0.7,0.5,1.1,0.7c0.1-0.5,0.8-1.5-0.1-8.4c2.4,7.7,1.1,9.8,0.8,10.3c-0.8-0.5-1.3-1.1-1.7-1.5c0,2.2-0.4,3.3-0.8,4.1
				c-0.9-0.5-1.5-1.2-2-2c0.1,2.4-0.5,3.8-0.5,3.8s-1.8-2-2.2-3.4c0,0.9-0.5,3.7-1.2,4.2c-2-2.6-2.6-10-2.6-10s-0.1,0.1-0.3,0.3
				c0.1,1.8,0.4,4.6,0.7,7.8l0,0c0.3,3.7,0.7,7.8,1.1,11.5c0.8,8.8,1.7,17.7,2.9,26.4c0,0,0.1,1.5,0.4,2.2c0.3-0.9,0.4-4.4,0.1-6.3
				c0-0.5,0.7-1.3,0.7-4c0-1.1-1.2-14.7-1.7-19.9c0-0.7-0.1-2.1-0.1-2.1c0,0.1,0.1,0.4,0.1,0.5c0.4,2,0.8,4.1,1.1,6.1
				c0.1,1.2,0.4,2.5,0.5,3.8c0.5,4,1.1,7.9,1.2,11.9c0.1,2.5-0.8,3.3-0.7,3.8c0.4,3.2,0.1,6.2-0.5,7.9c-0.3-0.1-0.4-0.4-0.5-0.5
				c0.4,2.4,0.9,4.4,0.9,4.4c0.9-2,1.5-4.2,1.3-9.6c0-0.4,0.8-1.6,0.9-4.4c0-0.8-0.1-3.4-0.4-6.6c-0.4-5.8-0.9-11.5-1.3-17.3
				c0-0.3-0.1-0.9-0.1-1.1c0.1,0.3,0.1,0.5,0.1,0.8c1.6,7.4,2.2,15.2,2.6,22.6c0.1,3.4-1.1,5.9-1.1,6.5c0.1,1.7,0.1,1.6,0.1,3
				c0,1.7-0.1,2-0.1,2c0.5-1.3,2.4-5.7,1.8-19.5c0-0.4,0-0.7,0-1.1c-0.5-9.6-1.3-15.8-1.3-15.8c0.9,2.6,1.7,8.4,2.2,15.2
				c0.1-0.1,0.1-0.3,0.1-0.4c0.9-2.5,1.2-5.1,0.9-7.8c-0.3-5-0.9-9.2-0.9-9.2l0.1,0.4c0.1,0.5,0.7,2.1,1.2,4.6
				c0.4,1.7,0.7,3.6,0.8,5.4c0,0.3,0,0.5,0,0.8l0,0c2-2.9,1.1-8.6,0.1-14.5c0.8,1.8,2.4,7.3,2,11.2c2.9-2.8,1.3-8.1,0.3-14.3
				c1.6,3.7,2.8,8.2,2.4,11.1c2.4-3,1.5-7-0.7-14.9c1.3,2.1,3,7.1,3.2,10.2C450.9,103.4,449.2,97.3,447.6,92.5z M473.6,110
				c0,0,1.2-1.2,1.7-5c0.3,0.3,0.7,0.5,0.8,1.2c0.8-0.9,2.4-6.2,2.5-7.9c0.5,0.3,0,0.1,0.7,0.4c0.4-0.8,1.3-3.7,1.7-7.8
				c0.1,0,0.5,0,0.7,0.3c0.3-1.8,0.5-4.9,0.7-7c0.1-1.8,0-5.5-0.8-7.7c-0.8-2.1-1.2-3.3-2.4-5.3c0,0-0.4,0.3-0.7,0.5
				c-0.4-1.1-1.3-3.6-1.7-4.5c-1.2-2.2-1.7-3.8-2.9-4.6c0.5,0,0.8,0.1,1.5,0.1c-0.8-0.8-1.1-1.3-2-2c0.3-0.1,0.8-0.1,1.7,0
				c-1.2-1.1-1.6-2.8-4.8-4c0.5-0.1,0.9,0.1,1.7,0.1c-0.4-0.7-1.3-1.6-2.9-2.1c-3.2-0.7-7.7-0.8-9.6,1.7c-0.1,0.1-0.7,0.3-1.2,0.5
				c-0.4,0.1-0.5,0.3-0.5,0.3c-0.4,0.3-0.4,0.7,0.3,1.6c-0.9-0.1-1.2-0.9-1.3-0.9c-0.3,0.3-0.7,0.5-0.9,0.9
				c-0.3,0.4-0.5,1.5-0.5,1.8c0.1,0.1,0.8,0.4,1.1-0.5c0-0.3,1.5-0.4,2-0.4c0.7,0,1.3,0.1,2.2,0.1c-0.3,0.1-1.3,0.4-1.7,0.5
				s-0.4,0.5,0,0.5s0.5-0.1,0.9-0.3c0.1,0.1,0,0.5,0.1,0.8c2.5-0.5,2.8,2.1,5.5,1.6c-1.3-1.1-2.4-2.6-3.4-3.2c2.8,0.4,4.2,2.9,7.1,3
				c-0.1-0.3-0.1-0.3-0.4-0.8c1.1,0,1.7,0.8,2,0.8c-0.4,0.4-1.2,0.8-2.4,0.9c0.1,0.4,1.3,0.4,1.7,0.5c-0.5,0.5-1.3,0.8-2.6,0.5
				c-0.4,0.4-1.1,1.3-2.9,2.5c0-0.5,0-0.5,0.1-0.9c-1.3,0.8-2.1,2.1-3,2.4c0.3-0.5,0.5-1.3,0.7-1.7c-3.3,3-6.5,5.8-7.7,8.1
				c-1.3,2.4-1.7,4.9-1.6,9c0.1,2.2,1.1,8.4,1.2,9.6c0.3-0.1,0.5-0.3,0.7-0.3c0.8,4.6,3.2,11,4.4,13.1c0.3-0.5,0.4-0.7,0.8-0.9
				c0.1,1.2,0.8,2.6,1.8,3.4c0-0.8,0.3-1.3,0.4-1.6c0.3,0.9,0.1,3.7,1.7,5.1c-0.1-0.8,0.1-1.5,0.4-2.4c0.3,0.9,0.3,2,0.8,2.9
				c0.5,1.1,1.2,2.1,1.7,2.4c-0.1-2.1,0.3-2.1,0.4-2.9c0,0.1,0.8,0.9,1.2,3.7c1.6-1.2,2.2-5.3,2.2-5.3s0.5,0.4,0.8,1.5
				c1.5-1.5,1.8-3.4,2.2-4.9C473.6,108.5,473.7,109.4,473.6,110z M475.2,131.4c2,0,2.4,0,3.2-0.1c0-0.3-0.1-0.4-0.1-0.7
				c0-0.1,0-0.3,0-0.5l0,0c-0.7,0.1-2,0.5-3.7,0.3c-0.8-0.1-0.8-0.1-1.5-0.4c-0.5-0.1-1.5,0.8-2.2,1.6c-0.7,0.7-1.5,1.6-1.7,2
				c-0.1,0.1,0,0.1,0,0.1c0.7,0.5,8.6,7.9,9.1,8.3c0.1,0.1,0.3,0.1,0.4,0c0.4-0.4,0.9-0.9,1.5-1.5c0,0-7.8-7.4-7.9-7.5
				c-0.1-0.1-0.1-0.3-0.1-0.4s0.4-0.4,0.5-0.5c0-0.1,0.3-0.1,0.4,0c0.1,0.1,2.5,2.4,2.5,2.4l3.4,3l2.1,1.8c0.3-0.3,0.3-0.3,0.4-0.4
				c0.3-0.4,0.3-0.5-0.8-1.6c-0.3-0.3-5.5-5.5-5.5-5.5C474.1,131.6,474.5,131.4,475.2,131.4z M462.9,132.9c-0.1,0.1-7.9,7.5-7.9,7.5
				c0.5,0.5,1.1,1.1,1.5,1.5c0.1,0.1,0.3,0.1,0.4,0c0.5-0.4,8.4-7.7,9.1-8.3c0.1-0.1,0.1-0.1,0-0.1c-0.4-0.4-1.2-1.3-1.7-2
				c-0.7-0.8-1.6-1.7-2.2-1.6c-0.7,0.1-0.7,0.1-1.5,0.4c-1.7,0.3-3-0.1-3.7-0.3h-0.1c0,0.1,0,0.4-0.1,0.5c0,0.1-0.1,0.4-0.1,0.5
				c0.8,0.1,1.3,0.1,3.3,0.1c0.7,0,1.1,0.1,0.5,0.8c0,0-5.1,5.1-5.5,5.5c-1.1,1.1-1.2,1.3-0.8,1.6c0.1,0.1,0,0,0.4,0.4l2.1-1.8
				l3.4-3c0,0,2.5-2.2,2.5-2.4c0.1-0.1,0.3-0.1,0.4,0c0,0.1,0.4,0.4,0.5,0.5C463,132.7,463,132.8,462.9,132.9z M463.7,114.5
				c0,0,0-0.5-0.3-1.1c-0.1-0.3-0.7-0.7-0.9-1.1c-0.3-0.3-0.3-0.4-0.3-0.4c-0.1,0.3,0.1,1.1,0.1,1.3c0.1,0.3,0.3,0.7,0.7,0.9
				C463.4,114.5,463.7,114.5,463.7,114.5z M463.5,129.5c0,0,0.5,0.5,0.7,0.7c0.1-0.8,0.5-3.4,0.4-3.7
				C463.7,128.2,463.5,129.4,463.5,129.5z M460.4,129.4c0.3-0.1,1.1-0.4,1.5-0.5c0.1,0,0.3,0,0.3-0.1l0,0c0.3-0.8,0.7-2.1,0.9-2.6
				C462.8,126.1,460.9,128.8,460.4,129.4z M466.3,132.3c0-1.1-0.1-2.2-0.1-2.8c-0.4,0.5-0.5,1.2-0.7,1.8
				C465.5,131.5,466.2,132.1,466.3,132.3z M466.8,125.1c0,0-0.1-1.3-1.2-1.8C465.7,124.4,466.8,125.1,466.8,125.1z M467.6,122.9
				L467.6,122.9L467.6,122.9c0,0,0.1-0.4,0.8-0.8c0.4-0.3,2.6-1.6,3-2.2c0.4-0.5,0.7-1.5,0.7-1.5s-0.4,0.7-1.3,1.2
				c-0.8,0.4-2.5,1.5-2.8,2.1c-0.1,0.3-0.3,0.5-0.3,0.7c0-0.1,0-0.3-0.1-0.5c-0.5-1.2-2.1-1.6-3.2-2.6c-0.7-0.8-0.7-1.1-0.7-1.1
				c0,0.8,0.1,1.3,0.4,1.7c0.3,0.4,1.1,1.1,2.1,1.7C467.4,122.4,467.6,122.9,467.6,122.9z M466.6,118.9c0-1.7-2-2-2.4-3.7
				C463.9,117.6,465.7,117.6,466.6,118.9z M467.5,125.9c0,0,0.3-0.1,0.8-0.4c0.5-0.3,0.9-0.7,1.2-1.1c0.3-0.5,0.3-0.9,0.1-1.2
				c0,0-0.1,0.5-0.8,1.1c-0.3,0.3-0.7,0.7-0.9,0.9C467.6,125.5,467.5,125.9,467.5,125.9z M469.1,127c0.1,1.1,0.3,3.6,0.4,4.4l0,0
				c0.3-0.3,0.5-0.5,0.9-0.9C470.3,130,470,128.1,469.1,127z M467.5,133.3c0,0,0.7-0.8,0.9-1.1l0,0c-0.1-1.3-0.5-3-0.9-3.7
				C467.5,129.2,467.5,131.6,467.5,133.3z M467.6,134.1c0,0.5,0,1.1,0,1.3l0.7-0.7C468.3,134.8,467.8,134.3,467.6,134.1z M468,136.2
				c1.1,1.2,2.6,2.8,3.6,3.7c0.7-0.7,1.1-1.1,1.1-1.1l-3.8-3.4C468.6,135.6,468.3,135.8,468,136.2z M472.5,140.7
				c0.8,0.8,1.7,1.7,2.5,2.5c0.4-0.5,0.8-0.8,1.1-1.2l-2.5-2.2C473.4,139.7,473,140.1,472.5,140.7z M473.2,129
				c-0.4-0.5-1.5-2-2.4-2.8c0.7,1.5,0.9,2.4,1.1,2.8l0,0l0.1-0.1c0.1-0.1,0.3-0.1,0.5-0.1c0.1,0,0.3,0,0.5,0.1
				C473,129,473.2,129,473.2,129z M472.3,114.7c-0.5,0.8-0.9,1.2-1.5,1.7c0.1-0.5,0.3-1.2,0.3-1.2c-0.3,0.7-1.1,1.5-1.5,2
				c-1.2,1.2-1.3,2.2-1.3,2.2s0.3-0.4,1.7-1.2C471.3,117.4,471.9,116,472.3,114.7z M454.6,99.3c0,1.3,0.9,3.3,2.2,4.1
				C456,101.3,455.5,100.6,454.6,99.3z M483.1,74.1c0.5,0,1.1-0.1,1.5-0.4c0.4-0.3,0.5-0.4,0.7-0.7c3.3-4.8,9.4-12.4,14-18.3
				c-9.4-9.2-22.7-9.8-26.1-9.6c-0.8,0.1-1.7,0.7-0.7,2.1c-0.8,0.4-3.6,0.1-4.6-0.9c-1.1,1.1-4,1.2-4.6,0.9c1.1-1.3,0.1-2-0.7-2.1
				c-3.6-0.3-17.6,1.1-26,9.4c4.6,6.2,14.4,19.1,14.7,19.4c0.1,0.3,0.7,0.5,1.3,0.5c0.1,0,0.1,0,0.3,0c0.5,0,1.1-0.4,1.5-0.9
				c1.1-1.1,1.5-1.7,2.5-2.8c2-2,3.7-3.4,4-3.7c0.8-0.8,1.1-1.3,1.1-2c0-0.7-0.7-0.9-0.9-1.5c0,0.1-0.1,0.1-0.1,0.3
				c-0.3-0.3-0.7-1.3-0.7-1.3l-0.1,0.5c0,0-0.7-1.7-1.8-1.6c-1.6,0.3-2.5-0.5-2.6-0.5s-0.1,0.5-0.1,1.1l0,0
				c-1.1-0.9-1.5-3.3,0.7-4.8c1.3-0.9,1.5-0.9,2.5-1.3c0.4-0.1,0.8-0.5,0.8-0.7c0.7-0.8,2-1.2,2.8-1.5c0.9-0.3,3.2-0.5,5.4-0.4
				c1.3,0.1,2.5,0.4,3.3,0.7c0.7,0.3,2.6,1.7,3.7,3.2c0.7,0.9,2,3.6,2.6,5.1c1.5,3.4,1.2,3,2.2,5.4c1.1,2.6,1.7,4.1,2.8,5.5
				C482,73.8,482.4,73.9,483.1,74.1z M500,53.7c0.3-0.4,0.7-0.8,0.9-1.2c-4.2-3.7-10.6-7.5-17.6-9.1c-4.6-1.1-8.4-1.1-10.8-1.1
				c-2,0-3.2,0.8-3.2,2c-1.2-0.3-1.6-1.7-1.7-2c-0.1,0.7-0.7,1.8-1.7,2c0-1.2-1.2-2-3.2-2c-2.4,0-6.1,0-10.8,1.1
				c-7.1,1.6-13.2,5-17.4,8.8c0.3,0.4,0.7,0.8,0.9,1.2c3.8-3.6,9-6.5,14.4-8.1c4.5-1.3,10-1.7,12.5-1.7c2.2,0.1,2.6,1.5,2.4,2.1
				c1.1,0.1,2.5-0.8,2.9-1.3c0.3,0.4,1.6,1.5,2.9,1.3c-0.3-0.7,0-2,2.4-2.1c2.5-0.1,8.1,0.4,12.5,1.7C490.7,47,496.1,50.2,500,53.7z
				 M502.5,49.1c0.5,1.7,1.1,3.6,2.4,4.6c0.1,0.1,0.4,0.3,0.7,0.4l0,0c0-3.2,1.1-4.9,1.8-6.7l0,0l0,0c1.2,0.1,2.8,0.7,5.9,0
				c-3-2-2.4-4.4-4.6-6.7c-0.3-0.3-0.5-0.5-0.8-0.8c-0.8-0.5-1.5-0.8-1.8-0.8c-0.5,0-0.9,0.3-1.1,0.4c-0.3,0.3-3.4,3.7-5.4,5.9
				C501.4,45.6,502,47.3,502.5,49.1z M504.5,38c-2.1-2.1-5.4-4.4-9.4-6.1c-10.4-4.6-23.6-4.6-27.5-4.6l0,0l0,0c-3.8,0-17,0-27.5,4.6
				c-4,1.7-7.3,4.1-9.4,6.1c0,0,4.8,5.3,5.9,6.7c0.7,0.8,0.8,1.5,0.5,2.5c7.3-4.9,15.4-7.3,30.1-7.4h0.7c14.4,0.1,22.8,2.5,30.1,7.4
				c-0.4-1.2-0.1-1.7,0.5-2.5C499.8,43.3,504.5,38,504.5,38z M430.3,39.6L430.3,39.6c-0.3-0.4-1.1-0.9-2.9,0.3
				c-3.2,2.8-2.2,5.3-5.5,7.5c1.2,0.3,2.1,0.3,2.9,0.3c0.5,0,1.1,0,1.5-0.1c0.7-0.1,1.1-0.1,1.6-0.3l0,0c0.8,1.8,1.8,3.6,1.8,6.7
				c3.8-2.1,2.2-8.7,5.9-8.6C433.6,43.3,430.7,40,430.3,39.6z M432.8,53c2.9,3.8,5,6.6,5.4,7.3c1.1,1.3,4.4,5.4,4.4,4.9
				c0-0.3-2.1-3.2-3.4-5c-2-2.6-4-5.3-5.9-7.9C433.2,52.6,432.9,52.7,432.8,53z M446.9,78.7c0,2.8,0.5,4.8,1.5,8.2
				C448.5,83.3,447.8,79.7,446.9,78.7z M444.9,75.5c-0.1,1.3-0.1,2.9,0.1,4.1c0.3,0.8,0.7,1.6,0.9,2.4
				C446.1,79.5,445.5,76.8,444.9,75.5z M452.3,99.8c0.5-1.5,1.1-11.4-2.8-15.6C450.5,88.1,451.8,92.5,452.3,99.8z M441.6,154.3
				c2.8,1.1,10.3,1.2,13.9,0.7c4.5-0.5,7.9-2,10.8-4c-0.8-0.7-1.7-1.5-2.6-2.4c-1.5,1.2-2.9,2.2-3.7,2.5c-5.4,2.1-12.5,2.8-12.5,2.8
				s9.2-2.1,12.5-3.8c0.7-0.3,1.7-1.2,2.9-2.2c-1.2-1.2-2.4-2.4-3.3-3.2c-0.5,0.5-1.1,0.9-1.7,1.3c-1.2,0.8-2.9,1.5-4.4,2.1
				C447,150.8,442.7,153.5,441.6,154.3z M463.7,154.3c0.3,0.9,0.8,2,1.1,2.6c0,0,1.7-1.5,2.2-4.6c-0.4,0.3-0.9,0.7-1.3,1.1
				C465,153.7,464.2,154.1,463.7,154.3z M497.6,59.9c0.4-0.5,2.4-3.2,5-6.7c-0.1-0.3-0.4-0.5-0.5-0.7c-1.8,2.4-3.7,4.9-5.4,7.4
				c-1.3,1.8-3.4,4.8-3.4,5C493.1,65.5,496.5,61.4,497.6,59.9z M512.9,42.4c-0.3,0.4-0.9,1.3-0.9,1.3c0.8,1.5,1.7,3,4.1,4.2
				C515,46.1,514,44.2,512.9,42.4z M510.7,41.2c0.1,0.1,0.4,0.7,0.4,0.8c5.4-7.1,10.3-13.7,10.3-13.7s-2.1,1.5-5.1,2.9
				c0.3,1.6-0.7,3.7-1.2,4.1C515,35.4,513.3,37.8,510.7,41.2z M424.6,39.1c0.3,0.4,0.5,0.7,0.8,1.1c4-5.1,9.4-8.8,15.8-11.2
				c-0.5-0.8-1.2-2.5,0.7-4.4l0,0c2.8,0.4,3.6,2.1,3.7,2.9c5-1.3,11.1-2.2,17.7-2.4c0.3-4.6,3.6-5.7,3.6-5.7s0-0.9,0.8-1.2l0,0
				c0.7,0.3,0.8,1.2,0.8,1.2s3.3,1.2,3.6,5.7c6.7,0.3,12.7,1.1,17.7,2.4c0.1-0.9,0.9-2.5,3.7-2.9l0,0c1.8,1.8,1.2,3.6,0.7,4.4
				c6.5,2.4,12,6.2,16.1,11.4c0.3-0.4,0.5-0.8,0.8-1.1c-3.7-4.6-9-8.4-14.7-10.7c0.7-1.8,0-3.4-1.1-4.5c0-0.8-0.4-1.5-0.9-1.6l0,0
				c-0.5-0.1-1.3,0.1-1.8,0.8c-1.6,0.3-3.2,1.1-4.1,2.8c-4.2-1.1-8.8-1.7-14.9-2c-0.1-2.8-1.7-4.5-3.7-5.4c-0.4-0.9-1.2-1.5-2-1.7
				c-0.7,0.1-1.6,0.7-2,1.7c-2,0.9-3.6,2.6-3.7,5.4c-6.1,0.3-10.7,0.9-14.9,2c-0.9-1.7-2.5-2.5-4.1-2.8c-0.5-0.5-1.3-0.8-1.8-0.8
				l0,0c-0.5,0.3-0.9,0.9-0.9,1.6c-1.1,1.1-1.7,2.6-1.1,4.5C433.5,30.8,428.4,34.5,424.6,39.1z M424.3,41.7c0.1-0.3,0.3-0.5,0.5-0.7
				c-2.4-3.2-4.1-5.4-4.2-5.5c-0.4-0.5-1.5-2.5-1.2-4.1c-3-1.5-5.1-2.9-5.1-2.9S419.1,34.7,424.3,41.7z M419.3,48.1
				c0.5-0.3,2-1.2,3-2.6c0.5-0.7,0.8-1.3,1.2-2l-1.1-1.3C421.3,44.1,420.3,46.1,419.3,48.1z M410.9,87.4c0.9,0.8,5.8,4.9,13.5,9.2
				c0.1-4.6,0.3-21.1,10.2-38.7c-1.2-1.5-1.6-2.1-2.8-3.6c-0.8,0.8-1.8,1.5-3.4,1.8c0.1-3.4-0.7-5.4-1.7-7.4c-1.5,0-3.8,0.1-7.5-0.7
				C414.3,58.8,411.8,71.2,410.9,87.4z M455.9,162.2l0.1-0.1c0.3-0.8,1.6-3.8,2.2-5.4c-0.1-0.3-0.1-0.5-0.3-0.8
				c-0.9,0.1-1.7,0.3-2.6,0.4c-0.5,0-9.4,1.5-15.7-1.6c0.8-0.5,2.2-1.7,4.2-3c0-0.1,0-0.3,0.1-0.4c-1.6,0.8-3,1.1-4.1,0.9
				c-0.1-1.1,0.1-2.4,0.7-3.8c-1.5,0.3-2.5,0-2.5,0s0.9-3,3-6.9c2-3.4,4.6-7,7-9.9c0.3-1.2,1.2-2.1,1.2-2.2c0-0.1,0.4-0.4,0.4-0.4
				c-0.3-0.3-0.5-0.4-0.8-0.7c-0.3,0.3-0.5,0.4-0.7,0.5c-0.8,0.4-1.2,0.5-1.6,0.5c-0.8,0-1.3-0.1-1.6-0.5v-0.1
				c-0.7-0.1-1.1-0.5-1.2-1.1c0-0.1,0-0.1,0-0.3c-0.4,0.1-0.8,0.1-1.2-0.1c-0.5-0.5,0.3-2.9,2.9-5.5c1.8-1.7,3.7-2.8,5.3-3.6
				c1.3-0.5,2,0.5,1.5,1.3c-0.8,0.9-1.3,2.5-0.5,4.1c0.8-0.3,1.1-0.4,1.2-0.4c0.3-0.1,0.7-0.3,1.1-0.8c0,0,0.1-0.1,0.1-0.3l-1.2,0.1
				c0.5-1.5-0.3-4.9,0.3-7.1c-0.1,0.1-0.5,0.4-0.8,0.4c-0.4-2-0.4-5.3-0.1-6.9c0-0.4-0.7-1.2-1.5-2c-0.7,1.6-1.7,3.6-3.6,5.8
				c-1.5,1.7-4,3.3-5.3,9l0,0c-0.3,0.9-0.5,1.7-0.9,2.5c-0.8,1.7-0.8,2.8-0.8,2.8l0,0c0.1,3.6-0.1,10.8-0.9,14.9
				c-0.8,3.6-2.1,5.4-2.1,5.4l-0.1-0.1c-0.3,1.2-0.9,3.4-2.4,5c0,0-1.2-2.4-3.4-20.7c-2.4-20.1-3.6-41.2-3.6-41.2l0,0
				c-0.3-3.7,0.7-8.1,1.7-11.2c2-5,5.3-10,7.4-12c1.3-1.3,2.8-1.6,4.1-1.3c-0.4-0.5-0.8-1.1-0.8-1.1c-1.5-1.8-3-3.8-4.4-5.7
				c-9.8,17.3-9.6,38-9.6,38.1v2.2l-1.7-0.9c-7.8-4.4-11.1-7-13.6-9.1c-0.1,2.1-0.3,9.2-0.3,9.2c0,0.1,0,1.6,0,4.4
				c0,8.2,1.5,28.5,8.2,42.5c0.9,1.7,3.4,6.3,8.1,10.7c3.4,3.3,7.5,5.5,11.9,7c0.3,0.1,0.8,0.3,1.1,0.4
				C444.8,165.3,450.3,165,455.9,162.2z M455.5,167.9c1.1-0.8,2.6-1.5,4.6-0.7c0.1-2.4,0.5-6.1,1.1-9.2c-0.8,0.8-1.5,1.2-1.6,1.2
				s-0.3-0.1-0.4-0.4C457.6,162.6,455.5,167.9,455.5,167.9z M475,169.8c0.1-2.5-0.9-9.5-1.6-13.3c-0.1-0.1-0.1-0.3-0.3-0.3
				c-0.1-0.1-0.3-0.4-0.4-0.5c-0.3,0.8-0.5,1.6-0.9,2.4c-0.4,0.9-1.2,2-1.3,2s-2-1.3-3.2-3.8c-1.2,2.5-3,3.8-3.2,3.8s-0.8-1.1-1.3-2
				c-0.1-0.4-0.4-0.9-0.5-1.3c-0.7,4.1-1.5,10.7-1.5,13.2c-3.8-2.5-6.2,0-5.3,1.7c0.1,0.1,0.1,0.3,0.3,0.4c0.5,0.7,1.1,0.9,1.8,1.1
				c1.2,0.1,2.9,0.3,4.8,1.1c1.7,0.8,3.6,2.1,5.4,4.4c1.8-2.4,3.7-3.6,5.3-4.4c1.8-0.8,3.4-1.1,4.8-1.1c0.8-0.1,1.5-0.4,1.8-1.1
				c0.1-0.1,0.1-0.3,0.3-0.4C481.1,169.8,478.9,167.3,475,169.8z M480.8,167.9c0,0-2.4-5.9-3.7-9.6c-0.4,0.5-0.7,0.8-0.8,0.8
				c0,0-0.5-0.3-1.3-0.9c0.5,2.8,1.1,6.3,1.2,9C478.2,166.5,479.8,167.1,480.8,167.9z M524.9,99.1c0-2.8-0.1-7.3-0.3-9.4
				c-2.6,2.1-5,4.2-13.2,9l-2.1,1.2v-1.5c0-0.1,0.5-20.9-9.5-38.5c-0.7,0.8-2.8,3.6-4.9,6.3c1.3-0.1,2.6,0.1,3.7,1.3
				c2.1,2,5.4,6.9,7.4,12c1.1,3.2,1.8,7.5,1.7,11.2l0,0c0,0-1.2,21-3.6,41.2c-2.1,18.3-3.4,20.7-3.4,20.7c-1.5-1.7-2-3.8-2.4-5
				l-0.1,0.1c0,0-1.3-1.8-2.1-5.4c-0.9-4.1-1.1-11.5-0.9-14.9l0,0c0,0,0-1.1-0.8-2.8c-0.4-0.8-0.7-1.7-0.9-2.5l0,0
				c-1.3-5.7-3.8-7.3-5.3-9c-1.7-2.1-2.9-4.4-3.7-6.1l-0.1,0.1c-0.9,0.9-1.6,1.8-1.7,2.4c0.3,3.3,0.7,5.7,0.1,7.3
				c-0.1-0.1-0.5-0.4-0.7-0.5c0.3,2.1-0.8,4.6-0.1,6.7l-1.3-0.1c0,0.1,0.1,0.3,0.1,0.3c0.1,0.3,0.4,0.4,0.7,0.5c0,0,0.3,0.1,0.4,0.1
				c0.1,0,0.4,0.1,1.3,0.5c0.8-1.6,0.1-3.2-0.5-4.1c-0.7-0.8,0.1-1.8,1.5-1.3c1.6,0.7,3.4,1.7,5.3,3.6c2.6,2.5,3.4,5,2.9,5.5
				c-0.4,0.4-0.8,0.3-1.3,0.1c0,0.1,0,0.1,0,0.3c-0.1,0.5-0.5,0.8-1.2,1.1v0.1c-0.3,0.4-0.8,0.5-1.6,0.5c-0.7,0-1.5-0.4-1.6-0.5
				c-0.1-0.1-0.3-0.1-0.5-0.4c-0.1,0.1-0.3,0.3-0.5,0.4c2.1,2.9,6.2,7.5,9.1,12.8c2.1,3.7,3,6.9,3,6.9s-1.2,0.4-2.5,0
				c0.5,1.5,0.8,2.8,0.7,3.8c-1.2,0-2.6-0.1-4.1-0.9c0,0.3,0.1,0.5,0.1,0.8c1.3,0.9,2.8,2,3.4,2.5c-6.3,3-15.6,1.6-15.8,1.6
				c-0.4,0-0.8-0.1-1.2-0.1c-0.1,0.1-0.1,0.4-0.3,0.5c0.7,1.5,2.1,4.9,2.4,5.7c4.1,1.8,7.8,3,13.6,2.1c0,0,0.9-0.1,3.4-0.9
				c2.5-0.8,7.3-3.7,11-7.1c4.6-4.2,7.3-8.7,8.2-10.6c7-13.7,8.2-34.2,8.2-42.5C524.9,100.7,524.9,99.3,524.9,99.1z"/>
		</g>
		<g>
			<g>
				<path class="st0" d="M58.4,112.7h7c2.9,0,5,1.1,6.2,3.4c0.9,2,1.1,6.5,1.1,7.3c0,4.9-0.4,7.7-1.5,9.2c-1.2,2-3.6,2.9-7.5,2.9
					h-5.3V112.7L58.4,112.7z M61.3,133.1H64c4.1,0,5.5-1.5,5.5-6.9v-4.6c0-4.6-1.5-6.3-4.5-6.3h-3.8V133.1L61.3,133.1z"/>
				<path class="st0" d="M77.6,135.6v-23h11.7v2.5h-8.8v7.4h8.2v2.5h-8.2v7.9h9.1v2.5h-12V135.6z"/>
				<path class="st0" d="M93.9,135.6v-23h6.7c3,0,6.3,1.2,6.3,6.6c0,5.1-4.1,6.2-6.5,6.2h-3.8v10L93.9,135.6L93.9,135.6z M96.8,123
					h3.2c1.2,0,4.1-0.3,4.1-4c0-3.4-2.6-3.8-3.3-3.8h-4V123z"/>
				<path class="st0" d="M114.7,112.7h3.7l7.4,23h-3.3l-1.7-5.4h-8.8l-1.7,5.4h-2.8L114.7,112.7z M116.4,115.4L116.4,115.4
					l-3.7,12.1h7.3L116.4,115.4z"/>
				<path class="st0" d="M131.7,125.1v10.6h-2.9v-23h7.9c4.1,0,5.5,2.9,5.5,5.7c0,2.6-1.5,4.8-4.2,5.3v0.1c2.6,0.4,3.6,1.3,3.7,5.9
					c0,0.9,0.4,4.6,0.8,5.9h-3c-0.8-1.6-0.7-4.6-0.9-7.7c-0.3-2.8-2.5-2.9-3.4-2.9H131.7z M131.7,122.5h4.4c2.1,0,3-1.8,3-3.8
					c0-1.7-0.8-3.4-3-3.4h-4.4V122.5L131.7,122.5z"/>
				<path class="st0" d="M159.5,112.7v2.5h-6.1v20.3h-2.9v-20.3h-6.1v-2.5H159.5z"/>
				<path class="st0" d="M165.1,135.6h-2.8v-23h4.8l5.8,19.3h0.1l5.8-19.3h4.9v23h-2.9v-20.3h-0.1l-6.5,20.3h-2.8l-6.2-20.3h-0.1
					L165.1,135.6L165.1,135.6z"/>
				<path class="st0" d="M188.8,135.6v-23h11.7v2.5h-8.8v7.4h8.2v2.5h-8.2v7.9h9.1v2.5h-12V135.6z"/>
				<path class="st0" d="M220.6,112.7v23h-4l-9.1-19.8h-0.1v19.8h-2.6v-23h4.1l8.8,19.5h0.1v-19.5H220.6z"/>
				<path class="st0" d="M238.6,112.7v2.5h-6.1v20.3h-2.9v-20.3h-6.1v-2.5H238.6z"/>
				<path class="st0" d="M248.5,127.3v-7.5c0-4.6,2.4-7.5,7.3-7.5c4.9,0,7.3,2.9,7.3,7.5v7.5c0,6.3-2.4,8.8-7.3,8.8
					C250.9,136.1,248.5,133.6,248.5,127.3z M260,127.4v-7.8c0-4.8-3.3-5-4.2-5c-0.9,0-4.2,0.1-4.2,5v7.8c0,5,1.5,6.2,4.2,6.2
					C258.6,133.6,260,132.4,260,127.4z"/>
				<path class="st0" d="M267.8,135.6v-23h11.4v2.5h-8.4v7.4h8.1v2.5h-8.1v10.4h-2.9V135.6z"/>
				<path class="st0" d="M289.3,135.6v-23h2.9v9.9h8.1v-9.9h2.9v23h-2.9v-10.4h-8.1v10.4H289.3z"/>
				<path class="st0" d="M308.6,135.6v-23h11.7v2.5h-8.8v7.4h8.2v2.5h-8.2v7.9h9.1v2.5h-12V135.6z"/>
				<path class="st0" d="M329.6,112.7h3.7l7.4,23h-3.3l-1.7-5.4h-8.8l-1.7,5.4h-2.9L329.6,112.7z M331.3,115.4L331.3,115.4
					l-3.7,12.1h7.3L331.3,115.4z"/>
				<path class="st0" d="M343.8,135.6v-23h2.9v20.3h8.4v2.5h-11.4V135.6z"/>
				<path class="st0" d="M368.8,112.7v2.5h-6.1v20.3h-2.9v-20.3h-6.1v-2.5H368.8z"/>
				<path class="st0" d="M371.9,135.6v-23h2.9v9.9h8.1v-9.9h2.9v23h-2.9v-10.4h-8.1v10.4H371.9z"/>
			</g>
			<g>
				<g>
					<path class="st0" d="M69.4,67.2c0.5,0,0.9-0.1,1.3-0.5c0.4-0.4,0.5-0.8,0.5-1.3c0-0.5-0.1-0.9-0.5-1.3
						c-0.4-0.4-0.8-0.5-1.3-0.5c-0.5,0-0.9,0.1-1.3,0.5c-0.4,0.4-0.5,0.8-0.5,1.3c0,0.5,0.1,0.9,0.5,1.3
						C68.5,67.1,68.9,67.2,69.4,67.2z"/>
					<path class="st0" d="M63.4,67.2c0.5,0,0.9-0.1,1.3-0.5c0.4-0.4,0.5-0.8,0.5-1.3c0-0.5-0.1-0.9-0.5-1.3
						c-0.4-0.4-0.8-0.5-1.3-0.5c-0.5,0-0.9,0.1-1.3,0.5c-0.4,0.4-0.5,0.8-0.5,1.3c0,0.5,0.1,0.9,0.5,1.3
						C62.4,67.1,62.8,67.2,63.4,67.2z"/>
					<path class="st0" d="M230.7,61v25.5h-2.4h-9.6l0,0h-9.6h-9.6l0,0l0,0h-2.4V71h-1.5c-2.6,0.1-4.9,0.5-6.9,1.1s-3.7,1.3-5.3,2.1
						c-1.6,0.8-2.8,1.8-3.8,2.9c-1.1,1.1-2,2.1-2.6,3.2V75h-2.8v11.5h-3.2h-9.6h-9.6h-9.6h-9.6h-0.9c-0.4,0-0.8,0-1.1-0.1
						c-0.3-0.1-0.5-0.3-0.8-0.4c-0.1-0.1-0.4-0.3-0.5-0.5c-0.1-0.3-0.3-0.7-0.4-1.2c-0.1-0.5-0.3-1.2-0.4-2.1
						c-0.1-0.8-0.3-2-0.3-3.3c-0.4-5.5-2.9-8.3-7.7-8.3c-1.2,0-2.2,0.1-3.2,0.5s-1.7,0.8-2.5,1.3l1.7,2.2c1.3-0.8,2.6-1.3,3.8-1.3
						c0.5,0,1.1,0,1.6,0.1s1.1,0.4,1.5,0.8c0.5,0.4,0.8,0.9,1.2,1.7c0.3,0.8,0.5,1.7,0.7,3.2c0.1,1.8,0.3,3.3,0.5,4.5
						c0.3,1.2,0.5,2.1,0.8,2.8h-14l0,0H103h-9.6h-9.6h-9.6h-1.7c-0.4,0-0.7-0.3-0.7-0.8V69.7c-0.9,0.3-2.1,0.7-3.6,1.3
						c-1.5,0.5-2.9,1.5-4.4,2.4c-1.5,1.1-2.6,2.2-3.7,3.7c-1.1,1.5-1.6,3.2-1.6,5.1c0,0.8,0.1,1.6,0.3,2.4c0.3,0.8,0.7,1.6,1.2,2.2
						c0.7,0.7,1.5,1.3,2.6,1.8c1.2,0.5,2.6,0.8,4.4,0.9l0.3-2.8c-2.1-0.1-3.6-0.5-4.6-1.2c-0.9-0.7-1.5-1.7-1.5-3.3
						c0-1.2,0.3-2.1,0.8-3c0.5-0.9,1.2-1.7,2-2.4c0.8-0.7,1.6-1.3,2.4-1.7c0.9-0.5,1.6-0.9,2.2-1.2v11.7c0,1.2,0.3,2,0.8,2.6
						c0.5,0.7,1.3,0.9,2.2,0.9h2.1h9.6h9.6h9.6h9.6l0,0H132h9.6h9.6h9.6h9.6h28.4l0,0l0,0h9.6h9.6l0,0h9.6h5.1V61H230.7z
						 M194.2,86.5h-17c0.3-0.8,0.7-1.7,1.2-3c0.5-1.3,1.6-2.6,2.8-4c1.3-1.3,3-2.5,5-3.6c2.1-1.1,4.8-1.7,7.9-2
						C194.2,74.1,194.2,86.5,194.2,86.5z"/>
				</g>
				<path class="st0" d="M237.9,61.1h2.8v28.1h-2.8L237.9,61.1L237.9,61.1z"/>
				<path class="st0" d="M266,89.2h-2.9c-0.9,0-2-0.1-3.2-0.4c-1.2-0.3-2.2-0.7-3.3-1.2s-1.8-1.3-2.6-2.2c-0.7-0.9-1.1-2.1-1.1-3.6
					c0-1.3,0.3-2.5,0.8-3.6c0.5-1.1,1.2-2,2-2.9c0.8-0.8,1.7-1.6,2.6-2.2c0.9-0.7,2-1.2,2.9-1.6c0.9-0.4,1.8-0.8,2.8-1.1
					c0.8-0.3,1.5-0.5,2-0.5L266,89.2L266,89.2z M263.2,86.3V73.9c-0.7,0.3-1.5,0.7-2.2,1.2s-1.7,1.1-2.4,1.7c-0.7,0.7-1.5,1.5-2,2.2
					c-0.5,0.8-0.8,1.8-0.8,2.9c0,0.8,0.3,1.5,0.7,2.1c0.5,0.5,1.1,1.1,1.7,1.5c0.7,0.4,1.5,0.7,2.4,0.8c0.8,0.1,1.6,0.3,2.4,0.3h0.3
					V86.3z M260.3,65.5c0,0.5-0.1,0.9-0.5,1.3s-0.8,0.5-1.3,0.5s-0.9-0.1-1.3-0.5s-0.5-0.8-0.5-1.3c0-0.5,0.1-0.9,0.5-1.3
					s0.8-0.5,1.3-0.5s0.9,0.1,1.3,0.5C260.2,64.6,260.3,65,260.3,65.5z M266.4,65.5c0,0.5-0.1,0.9-0.5,1.3s-0.8,0.5-1.3,0.5
					s-0.9-0.1-1.3-0.5c-0.4-0.4-0.5-0.8-0.5-1.3c0-0.5,0.1-0.9,0.5-1.3c0.4-0.4,0.8-0.5,1.3-0.5s0.9,0.1,1.3,0.5
					S266.4,65,266.4,65.5z"/>
				<g>
					<path class="st0" d="M357.2,68.4c-0.5-0.3-0.8-0.8-0.8-1.5c0-0.5,0.1-0.8,0.4-0.9c0.3-0.1,0.7-0.3,1.2-0.3
						c0.7,0,1.5,0.1,2.4,0.5l0.5-1.3c-0.9-0.4-2-0.7-2.9-0.7c-0.7,0-1.5,0.1-2,0.7c-0.5,0.4-0.9,1.1-0.9,2.1c0,0.4,0.1,0.8,0.3,1.2
						c0.1,0.4,0.3,0.7,0.4,0.7h-2.4v1.5h7.3v-1.6h-1.3C358.4,68.8,357.7,68.7,357.2,68.4z"/>
					<path class="st0" d="M356.9,86.5h-5.4h-9.6h-9.6l0,0h-7.9h-9.6H305h-9.6h-9.8H276l0,0h-2.4V72.8h-2.8v17.8c0,0.9,0,1.8-0.1,2.8
						s-0.3,1.7-0.5,2.4s-0.8,1.3-1.3,1.7c-0.7,0.4-1.5,0.7-2.5,0.7v2.8c1.6,0,2.9-0.3,4-0.9c0.9-0.7,1.7-1.5,2.2-2.4
						c0.5-1.1,0.8-2.1,0.9-3.3c0.1-1.2,0.3-2.4,0.3-3.6v-1.2h2.4l0,0h9.6h9.6h9.6h9.6h9.6h7.9l0,0h9.6h9.6h8.2V72.8h-2.8V86.5
						L356.9,86.5z"/>
				</g>
				<path class="st0" d="M364,61.1h2.8v28.1H364V61.1z"/>
				<path class="st0" d="M370.5,73.3c0.7-0.7,1.6-1.2,2.8-1.7c1.2-0.5,2.4-0.8,4-0.8c1.5,0,2.6,0.3,3.7,0.9c1.1,0.5,2,1.3,2.6,2.4
					c0.7,0.9,1.2,2.1,1.6,3.3c0.4,1.2,0.5,2.5,0.5,3.8c0,0.9-0.1,1.8-0.3,2.8s-0.4,1.7-0.5,2.4c-0.3,0.7-0.5,1.3-0.7,1.8
					c-0.1,0.5-0.4,0.9-0.5,1.2h-13.3v-2.8h11.5c0.3-0.5,0.4-1.2,0.7-2.1c0.3-0.9,0.4-2,0.4-3.3c0-1.1-0.1-2-0.4-2.9
					c-0.3-0.9-0.7-1.7-1.2-2.4c-0.5-0.7-1.1-1.2-1.8-1.6c-0.8-0.4-1.6-0.7-2.4-0.7c-0.8,0-1.5,0.1-2.4,0.4c-0.8,0.3-1.7,0.8-2.6,1.5
					L370.5,73.3z"/>
			</g>
		</g>
	</g>
</g>
</svg>
