<?xml version="1.0" encoding="utf-8"?>
<!-- Generator: Adobe Illustrator 24.2.0, SVG Export Plug-In . SVG Version: 6.00 Build 0)  -->
<svg version="1.1" id="Layer_1" xmlns="http://www.w3.org/2000/svg" xmlns:xlink="http://www.w3.org/1999/xlink" x="0px" y="0px"
	 viewBox="0 0 229.5 105.6" style="enable-background:new 0 0 229.5 105.6;" xml:space="preserve">
<style type="text/css">
	.st0{fill:#5CB947;fill-opacity:0;}
	.st1{fill:#FFFFFF;}
	.st2{fill:#EA0029;}
</style>
<g id="CLEAR_SPACE">
</g>
<g id="ARTWORK">
	<g>
		<rect class="st0" width="229.5" height="105.6"/>
		<g>
			<path class="st1" d="M210.7,52.7c0.1-12.8-2.7-20-5.1-23.5c0.8-1.1,1.4-1.8,1.4-1.8c0.3-0.3,0.7-0.6,1.5-0.8
				c0.2-1.7,0.9-3.7,0.9-3.7s-1.7,1.2-3.3,1.9c0.1,0.9-0.1,1.4-0.3,1.7c0,0-0.4,0.6-1.1,1.4c-1.1-1.2-2.3-2.4-4.1-3.4
				c-0.4-0.3-0.9-0.5-1.4-0.7c0-0.7-0.2-1.3-0.7-1.8c0-0.4-0.4-0.9-0.8-1l0,0c-0.4-0.1-1,0.1-1.4,0.4c-0.7,0.1-1.3,0.5-1.8,1
				c-1.5-0.3-3.2-0.5-5.1-0.7c-0.2-1-0.8-1.6-1.6-2c-0.2-0.4-0.8-0.8-1.3-0.9l0,0l0,0l0,0l0,0c-0.5,0-1.1,0.4-1.3,0.9
				c-0.8,0.4-1.4,1.1-1.6,2c-1.9,0.1-3.6,0.4-5.1,0.7c-0.5-0.5-1.1-0.9-1.8-1c-0.3-0.3-0.9-0.5-1.4-0.4l0,0c-0.4,0.1-0.7,0.6-0.8,1
				c-0.5,0.5-0.7,1.1-0.7,1.8c-0.5,0.2-1,0.5-1.4,0.7c-1.8,1-3,2-4.1,3.4c-0.6-0.8-0.9-1.3-1-1.3c-0.2-0.3-0.4-0.8-0.3-1.7
				c-1.6-0.7-3.3-1.9-3.3-1.9s0.6,2,0.9,3.7c0.9,0.1,1.3,0.5,1.5,0.8c0,0,0.5,0.6,1.2,1.6c-2.4,3.5-5.3,10.7-5.2,23.6
				c0,1.2-0.5,12.3,3.1,19.9c0.4,0.8,1.5,2.8,3.5,4.7c1.6,1.6,3.6,2.7,5.8,3.2c0.1,0,0.2,0.1,0.3,0.1c2.7,0.7,5.1,0.3,6-0.2
				l-0.1,0.3c0,0.1-0.1,0.2-0.1,0.3c-0.5,1.4-0.2,2.8,1.7,3c0.5,0.1,1.1,0.1,1.7,0.4c0.4,0.2,1,0.6,1.5,1.1c0.2,0.2,0.7,0.9,1,1.3
				l0,0l0,0l0,0c0.2-0.5,0.7-1.1,1-1.3c0.6-0.6,1.1-0.9,1.5-1.1c0.6-0.3,1.2-0.3,1.7-0.4c1.9-0.2,2.2-1.6,1.7-3
				c0-0.1-0.1-0.2-0.1-0.3c0-0.1-0.1-0.3-0.1-0.3c1.3,0.8,5.3,1.3,9.1-1.1c2.6-1.7,4.5-3.5,6.1-6.6
				C211.2,65.1,210.7,53.7,210.7,52.7z M193.8,42.3c-0.1,0.1-0.1,0.1-0.3,0.3c-0.2,0.1-0.4,0.2-0.6,0.2c-0.3,0-0.5-0.1-0.6-0.3
				c-0.4-0.6-0.7-1.2-1.2-2.3c-0.4-1-0.3-0.8-0.9-2.2c-0.3-0.7-0.8-1.8-1.1-2.1c-0.4-0.6-1.2-1.2-1.5-1.3c-0.4-0.1-0.8-0.3-1.4-0.3
				c-0.9,0-1.9,0.1-2.2,0.2c-0.3,0.1-0.9,0.3-1.1,0.6c0,0-0.2,0.2-0.3,0.3c-0.4,0.2-0.5,0.2-1,0.6c-0.8,0.6-0.7,1.6-0.3,2
				c0,0,0,0,0,0c0-0.3,0-0.5,0.1-0.5c0.1,0,0.5,0.3,1.1,0.2c0.5-0.1,0.8,0.7,0.8,0.7l0.1-0.2c0,0,0.1,0.5,0.3,0.5
				c0,0,0.1-0.1,0.1-0.1c0.1,0.2,0.4,0.3,0.4,0.6c0,0.3-0.1,0.5-0.4,0.8c-0.1,0.1-0.9,0.7-1.6,1.5c-0.4,0.4-0.6,0.7-1,1.1
				c-0.2,0.2-0.4,0.4-0.6,0.4c0,0-0.1,0-0.1,0c-0.2,0-0.4-0.1-0.5-0.2c-0.1-0.1-4.1-5.4-6-7.9c3.5-3.4,9.2-4,10.7-3.8
				c0.3,0,0.7,0.3,0.3,0.8c0.3,0.1,1.5,0,1.9-0.4c0.4,0.4,1.6,0.5,1.9,0.4c-0.4-0.5,0-0.8,0.3-0.8c1.4-0.1,6.9,0.1,10.7,3.9
				C197.6,37.3,195.1,40.4,193.8,42.3z"/>
			<g>
				<path class="st2" d="M209.9,49.2c-1.1,0.9-2.1,1.7-5.4,3.7l-0.9,0.5l0-0.6c0-0.1,0.2-8.5-3.9-15.8c-0.3,0.3-1.1,1.5-2,2.6
					c0.5-0.1,1.1,0.1,1.5,0.5c0.9,0.8,2.2,2.8,3,4.9c0.4,1.3,0.8,3.1,0.7,4.6l0,0c0,0-0.5,8.6-1.5,16.9c-0.9,7.5-1.4,8.5-1.4,8.5
					c-0.6-0.7-0.8-1.6-0.9-2.1l-0.1,0.1c0,0-0.5-0.8-0.8-2.2c-0.4-1.7-0.4-4.7-0.4-6.1v0c0,0,0-0.4-0.3-1.2c-0.2-0.3-0.3-0.7-0.4-1
					c0,0,0,0,0,0c-0.5-2.3-1.6-3-2.2-3.7c-0.7-0.9-1.2-1.8-1.5-2.5c0,0,0,0-0.1,0c-0.4,0.4-0.7,0.7-0.7,1c0.1,1.3,0.3,2.3,0.1,3
					c-0.1,0-0.2-0.2-0.3-0.2c0.1,0.9-0.3,1.9-0.1,2.7l-0.5-0.1c0,0.1,0,0.1,0.1,0.1c0.1,0.1,0.1,0.2,0.3,0.2c0,0,0.1,0.1,0.2,0.1
					c0.1,0,0.2,0.1,0.5,0.2c0.3-0.7,0.1-1.3-0.2-1.7c-0.3-0.3,0.1-0.8,0.6-0.5c0.7,0.3,1.4,0.7,2.2,1.5c1.1,1,1.4,2.1,1.2,2.3
					c-0.2,0.2-0.3,0.1-0.5,0c0,0,0,0.1,0,0.1c-0.1,0.2-0.2,0.3-0.5,0.4l0,0c-0.1,0.2-0.3,0.2-0.6,0.2c-0.3,0-0.6-0.2-0.6-0.2
					c-0.1,0-0.1-0.1-0.2-0.2c-0.1,0.1-0.1,0.1-0.2,0.2c0.9,1.2,2.5,3.1,3.7,5.2c0.9,1.5,1.3,2.8,1.3,2.8s-0.5,0.2-1.1,0
					c0.2,0.6,0.3,1.1,0.3,1.6c-0.5,0-1.1,0-1.7-0.4c0,0.1,0,0.2,0.1,0.3c0.5,0.4,1.1,0.8,1.4,1c-2.6,1.2-6.4,0.7-6.5,0.7
					c-0.2,0-0.3-0.1-0.5-0.1c0,0.1-0.1,0.2-0.1,0.2c0.3,0.6,0.9,2,1,2.3c1.7,0.8,3.2,1.3,5.6,0.9c0,0,0.4,0,1.4-0.4
					c1-0.3,3-1.5,4.5-2.9c1.9-1.8,3-3.6,3.4-4.3c2.9-5.6,3.4-14,3.4-17.4c0-1.1,0-1.7,0-1.8C210,51.9,210,50,209.9,49.2z"/>
				<path class="st2" d="M181.7,78.8c0.1-0.3,0.6-1.6,0.9-2.2c0-0.1-0.1-0.2-0.1-0.3c-0.4,0.1-0.7,0.1-1.1,0.2
					c-0.2,0-3.8,0.6-6.4-0.7c0.3-0.2,0.9-0.7,1.7-1.2c0-0.1,0-0.1,0-0.2c-0.6,0.3-1.2,0.4-1.7,0.4c0-0.4,0.1-0.9,0.3-1.6
					c-0.6,0.1-1.1,0-1.1,0s0.4-1.3,1.3-2.8c0.8-1.4,1.9-2.8,2.9-4c0.1-0.5,0.5-0.9,0.5-0.9c0,0,0.1-0.2,0.2-0.2
					c-0.1-0.1-0.2-0.2-0.3-0.3c-0.1,0.1-0.2,0.2-0.3,0.2c-0.3,0.1-0.5,0.2-0.6,0.2c-0.3,0-0.5-0.1-0.6-0.2l0,0
					c-0.3-0.1-0.4-0.2-0.5-0.4c0,0,0-0.1,0-0.1c-0.2,0.1-0.3,0.1-0.5-0.1c-0.2-0.2,0.1-1.2,1.2-2.3c0.8-0.7,1.5-1.2,2.2-1.5
					c0.5-0.2,0.8,0.2,0.6,0.5c-0.3,0.4-0.5,1-0.2,1.7c0.3-0.1,0.4-0.2,0.5-0.2c0.1,0,0.3-0.1,0.4-0.3c0,0,0-0.1,0.1-0.1l-0.5,0
					c0.2-0.6-0.1-2,0.1-2.9c-0.1,0-0.2,0.2-0.3,0.2c-0.2-0.8-0.1-2.2-0.1-2.8c0-0.2-0.3-0.5-0.6-0.8c-0.3,0.7-0.7,1.5-1.5,2.4
					c-0.6,0.7-1.6,1.4-2.2,3.7c0,0,0,0,0,0c-0.1,0.4-0.2,0.7-0.4,1c-0.4,0.7-0.3,1.2-0.3,1.2v0c0,1.4,0,4.5-0.4,6.1
					c-0.3,1.5-0.8,2.2-0.8,2.2l-0.1-0.1c-0.1,0.5-0.4,1.4-0.9,2.1c0,0-0.5-1-1.4-8.5c-1-8.3-1.5-16.9-1.5-16.9l0,0
					c-0.1-1.5,0.3-3.3,0.7-4.6c0.8-2.1,2.2-4.1,3-4.9c0.5-0.5,1.1-0.6,1.7-0.5c-0.2-0.2-0.3-0.5-0.3-0.5c-0.6-0.8-1.2-1.6-1.8-2.3
					c-4,7.1-3.9,15.6-3.9,15.6l0,0.9l-0.7-0.4c-3.2-1.8-4.6-2.9-5.6-3.7c0,0.9-0.1,3.8-0.1,3.8c0,0,0,0.7,0,1.8
					c0,3.4,0.6,11.7,3.4,17.4c0.4,0.7,1.4,2.6,3.3,4.4c1.4,1.3,3.1,2.3,4.9,2.9c0.1,0,0.3,0.1,0.4,0.1
					C177.1,80.2,179.4,80,181.7,78.8L181.7,78.8z"/>
				<path class="st2" d="M183.5,81c0.1-1,0.2-2.5,0.4-3.8c-0.3,0.3-0.6,0.5-0.6,0.5c-0.1,0-0.1-0.1-0.2-0.1
					c-0.6,1.5-1.5,3.7-1.5,3.7C182,80.9,182.6,80.7,183.5,81z"/>
				<path class="st2" d="M189.6,82c0.1-1.1-0.4-3.9-0.6-5.5c0,0-0.1-0.1-0.1-0.1c-0.1-0.1-0.1-0.1-0.1-0.2c-0.1,0.3-0.2,0.7-0.4,1
					c-0.2,0.4-0.5,0.8-0.5,0.8c-0.1,0-0.8-0.5-1.3-1.6c-0.5,1-1.2,1.6-1.3,1.6c-0.1,0-0.3-0.4-0.5-0.8c-0.1-0.2-0.1-0.4-0.2-0.5
					c-0.3,1.7-0.6,4.4-0.6,5.4c-1.6-1-2.5,0-2.2,0.7c0,0.1,0.1,0.1,0.1,0.2c0.2,0.3,0.4,0.4,0.8,0.4c0.5,0,1.2,0.1,1.9,0.4
					c0.7,0.3,1.4,0.9,2.2,1.8c0.8-0.9,1.5-1.5,2.2-1.8c0.8-0.3,1.4-0.4,1.9-0.4c0.3,0,0.6-0.2,0.8-0.4c0-0.1,0.1-0.1,0.1-0.2
					C192.1,82,191.1,81,189.6,82z"/>
				<path class="st2" d="M190.1,77.7c0,0-0.2-0.1-0.5-0.4c0.2,1.2,0.4,2.6,0.5,3.7c0.8-0.3,1.5-0.1,1.9,0.3c0,0-1-2.4-1.5-3.9
					C190.3,77.5,190.2,77.7,190.1,77.7z"/>
			</g>
			<g>
				<path d="M184.2,46.4L184.2,46.4L184.2,46.4"/>
			</g>
			<g>
				<polyline points="183.3,46.8 183.3,46.8 183.3,46.8 				"/>
			</g>
			<path d="M197.5,50.9c-0.1,0.6-0.3,0.8-0.8,1.2c-0.3-0.8-0.4-1.5,0.8-3.9c-0.8,2.4-0.5,3.2-0.5,3.2S197.3,51.2,197.5,50.9z
				 M196.2,49.3c0,0-0.3-0.5,0.4-2.6c-1.3,2-0.7,3.4-0.7,3.4s0.7-0.3,0.9-1.1C196.6,49.2,196.2,49.3,196.2,49.3z M200.9,45.7
				c-0.2,2.1-0.4,2.5-0.6,2.9c-0.2-0.1-0.3-0.6-0.3-0.6c-0.1,0.4,0,1,0.4,1.3C200.7,48.8,201,47.6,200.9,45.7z M200.5,44.3
				c-0.3,2.3-0.7,2.9-1,3.3c-0.2-0.1-0.4-0.7-0.4-0.7c-0.1,0.4,0,1.1,0.3,1.4C200,47.7,200.6,46.4,200.5,44.3z M198.7,46.6
				c-0.2-0.6-0.2-1.3-0.2-1.3c-0.3,0.9-0.2,1.7,0.1,2.1c0.5-0.6,1.3-2.3,1.2-3.9C199.5,45.4,199,46.2,198.7,46.6z M197.9,45.2
				c-0.2-0.7-0.1-1.7-0.1-1.7c-0.4,0.9-0.4,2.1-0.1,2.5c0.6-0.5,1.4-2,1.5-3.7C198.7,44.3,198.2,44.9,197.9,45.2z M200.7,49.2
				c0,0.5,0.4,0.8,0.4,0.8s0.7-1,0.4-2.7c-0.1,1.6-0.5,2.1-0.5,2.1S200.8,49.3,200.7,49.2z M201.5,49.9c0,0.4,0.4,0.7,0.4,0.7
				s0.6-0.9,0.3-2.4c-0.1,1.4-0.4,1.9-0.4,1.9S201.6,50,201.5,49.9z M172.9,48.7c-0.2-0.4-0.4-0.8-0.6-2.9c-0.1,1.9,0.2,3.1,0.6,3.6
				c0.3-0.3,0.4-0.9,0.4-1.3C173.2,48.1,173,48.5,172.9,48.7z M173.6,47.7c-0.3-0.4-0.6-0.9-1-3.3c-0.1,2.1,0.5,3.4,1,4
				c0.4-0.4,0.4-1,0.3-1.4C174,46.9,173.8,47.5,173.6,47.7z M174.4,46.7c-0.3-0.4-0.8-1.2-1.2-3.2c-0.1,1.6,0.7,3.4,1.2,3.9
				c0.3-0.4,0.4-1.1,0.1-2.1C174.6,45.4,174.6,46,174.4,46.7z M175.3,45.3c-0.3-0.4-0.8-0.9-1.3-2.8c0.1,1.6,0.9,3.1,1.5,3.7
				c0.3-0.4,0.3-1.6-0.1-2.5C175.4,43.7,175.4,44.7,175.3,45.3z M172.1,49.5c0,0-0.4-0.5-0.5-2.1c-0.3,1.7,0.4,2.7,0.4,2.7
				s0.4-0.3,0.4-0.8C172.4,49.4,172.1,49.5,172.1,49.5z M171.4,50.2c0,0-0.3-0.5-0.4-1.9c-0.3,1.5,0.3,2.4,0.3,2.4s0.4-0.3,0.4-0.7
				C171.6,50.1,171.4,50.2,171.4,50.2z M176.2,51.4c0,0-0.3-0.1-0.5-0.4c0.1,0.6,0.3,0.8,0.8,1.2c0.3-0.8,0.4-1.5-0.8-3.9
				C176.5,50.6,176.2,51.4,176.2,51.4z M177,49.3c0,0-0.4-0.1-0.6-0.3c0.2,0.8,0.9,1.1,0.9,1.1s0.6-1.4-0.7-3.4
				C177.2,48.8,177,49.3,177,49.3z M182.9,59.5c0.1-1.1-0.5-2-0.6-2.5c-0.1,0.1-0.1,0.5-0.1,0.5c-0.4-0.4-0.5-1.1-0.6-1.4
				c-0.1,0.7-0.4,1.1-0.4,1.5c0.2,0,0.3-0.1,0.5-0.2C181.8,58.3,182.6,58.5,182.9,59.5z M190.7,57.5c0,0,0-0.4-0.1-0.5
				c-0.1,0.4-0.7,1.4-0.6,2.5c0.3-1,1-1.2,1.2-2.1c0.2,0.1,0.3,0.2,0.5,0.2c-0.1-0.4-0.4-0.7-0.4-1.5
				C191.2,56.4,191.1,57.1,190.7,57.5z M184.9,56.5c-0.1-0.4-0.3-1.6-0.8-2.1C183.9,55.2,184.5,56.1,184.9,56.5z M187.9,57.7
				c0.2-0.5,0.6-1,0.6-2.6C188,55.5,187.8,57,187.9,57.7z M186.9,58.3c0.3-0.7,0.2-1.5,0-1.8C186.7,57.2,186.6,57.8,186.9,58.3z
				 M186.2,56.3c0.2-0.7,0.2-1.6-0.1-2C185.9,55.1,185.9,55.8,186.2,56.3z M191.4,49.7c-0.4,0.6-0.6,2-0.7,2.4
				C190.8,52,191.6,50.1,191.4,49.7z M191.4,47.5c0,0,0.7-1.3,0.3-2C191.2,45.6,191.4,47.5,191.4,47.5z M189.3,50.7
				c0,0,1.2-1.1,1.1-2.5c-0.3,0.9-1.1,1.3-1.1,1.3s-0.4-0.3-0.6-0.9C188.5,50,189.3,50.7,189.3,50.7z M191.6,49.1
				c0.3-0.5,0.7-1.2,0.4-1.7C191.8,47.9,191.7,48.4,191.6,49.1z M187.9,54.6c0.2-0.5,0.7-1.3,0.6-2.3
				C188.1,52.6,187.9,54,187.9,54.6z M189.6,53.1c0.7-0.8,1.1-1.8,0.8-2.8C189.7,51.2,189.7,52.2,189.6,53.1z M188.1,50.1
				c-0.2,0.7-0.5,1.1-1,1.6c-0.2-0.2-0.4-0.4-0.7-1c-0.1,1.1,0.5,1.8,0.9,2C187.5,52.6,188.3,51.5,188.1,50.1z M185.1,53
				c-0.1,0-0.8-0.7-1-1.1c0.1,0.6,1,1.9,1.4,2.1c0.1-0.2,0.6-1.2,0.2-2.8C185.5,52.2,185.3,52.7,185.1,53z M181,45.3
				c-0.1-0.6,0.6-1.1,0.4-2C180.7,44.1,180.9,44.8,181,45.3z M182.4,51.9c0.4,0.7,0.7,1,1,1.3c-0.5-0.7-0.9-2.1-1.4-2.5
				C182,50.9,182.2,51.5,182.4,51.9z M182.1,48.9c-0.3,1.1,0.9,2.2,0.9,2.2C183,51.1,183,49.8,182.1,48.9z M182.9,46.8
				c0,0.5,0,0.9-0.1,1.5c-0.3-0.1-0.5-0.3-0.7-0.5c0.2,0.6,1,1.4,1.1,1.6C183.3,48.4,183.3,47.3,182.9,46.8z M182.4,43.8
				c0.3-1.1,0.9-1.8,1.2-2.4C182.4,42.2,182.2,43.4,182.4,43.8z M181.4,48.8c-0.1-1-0.1-1.6-0.6-2.5
				C180.7,47.4,181.3,48.7,181.4,48.8z M184.3,45c-0.8,1,0.4,2.1,0.4,2.2C184.7,47.2,184.8,45.4,184.3,45z M184.8,42.5
				c-1.1,0.8-0.6,1.7-0.4,2.1C184.7,43.7,184.8,43.5,184.8,42.5z M185.5,50.1c0.2-0.4,0.7-1.2,0.5-2.6c-0.1,1-0.8,1.5-0.7,1.5
				c0,0-0.4-0.2-0.6-0.8C184.6,49.4,185.1,49.8,185.5,50.1z M191.3,42.6c-0.1,0.6,0.7,2.1,0.7,2.2C192,44.7,192.4,43.5,191.3,42.6z
				 M189.7,40c-0.1,0.5,0.8,1.4,0.8,1.4C190.5,41.4,190.6,40.4,189.7,40z M191,44.2c-0.3,1.2-0.8,1.7-0.8,1.7s-0.4-0.3-0.8-0.8
				c0,1,0.8,1.9,0.8,1.9C190.3,47,191.3,46.2,191,44.2z M188.6,42c-0.5,0.5,0,1.5,0.2,2.4C189.1,43.9,189.4,42.4,188.6,42z
				 M189,40.6c0-0.4-0.1-1.2-1.1-1.3C187.8,39.8,188.7,40.1,189,40.6z M187.9,38.8c0.2,0.2,0.9,0.4,1.4,0.8
				C189.2,38.9,188.6,38.5,187.9,38.8z M186.9,41.5c-0.7,0.8-0.3,1.4-0.3,1.4C186.7,42.9,187.5,42,186.9,41.5z M188,48.7
				c0,0,0.9-0.8,0.9-2.5c-0.5,0.8-1,1.3-1,1.3s-0.5-0.3-0.9-0.8C187,47.8,188,48.7,188,48.7z M186.7,44.1c-0.8,1.2,0,2.4,0,2.4
				C186.7,46.5,187.2,44.9,186.7,44.1z M186.9,35.8c0.2,0.2,0.9,0.5,1.3,0.8C188.1,36.1,187.6,35.8,186.9,35.8z M187.3,36.5
				c-0.4-0.5-0.9-0.6-1.2-0.7C186.4,36.2,186.7,36.5,187.3,36.5z M188.7,37.7c0-0.1-0.4-0.6-1-0.7c0.2,0.2,0.3,0.5,0.4,0.6
				c-0.1,0.1-0.5,0.1-0.6,0.1C187.7,37.9,188.1,37.9,188.7,37.7z M182.6,36c-0.1,0-0.1,0.2,0.1,0.2c0.2,0,0.2-0.2,0.2-0.2
				S182.7,35.9,182.6,36z M188.5,24.4c-0.2-0.2-0.4-0.3-0.6-0.4c-0.2,0.1-0.4,0.3-0.6,0.4c0.2,0.1,0.3,0.3,0.6,0.4
				C188.1,24.7,188.2,24.6,188.5,24.4z M184.9,35.5c0,0,0.1,0.1,0,0.4c0,0.2-0.1,0.5-0.5,0.5c-0.4,0.1-0.8-0.1-0.8-0.5
				c0-0.1,0-0.2,0.1-0.3c-0.1,0-0.1,0.1-0.3,0.3c-0.1,0.1-0.2,0.1-0.4,0.2c0-0.2,0.3-0.6,0.5-0.7c0.4-0.2,1.8-0.3,2.8,0.3
				c-0.4-0.1-0.7,0-1-0.1C185.1,35.5,184.9,35.5,184.9,35.5z M184.7,35.5c0,0-0.4,0-0.4,0s0.2,0.2,0.3,0.2c0.1,0,0.1,0,0.1-0.1
				C184.7,35.6,184.7,35.5,184.7,35.5z M189.4,27.2c-2.8-0.1-8.2,0.1-10.9,0.9c0,0-0.3-0.7-0.5-1c-0.7-0.8-1,0.1-1,0.2
				c0.9,0,1.1,0.5,1.1,0.5c-0.2,0.4-0.4,0.5-0.9,0.9c-0.2,0.1-0.7,0.5-1.5,0.5c-1.7,0.1-1.2-1.7-0.2-2.4c-0.1,0.2-0.7,1.1-0.4,1.5
				c0.4,0.5,2,0.1,2.4-0.4c-0.2-0.2-0.6-0.3-1.1-0.2c0-0.3,0.1-1,1-1.7c0.3,0.1,1.1,0.5,1.4,1.2c2.5-0.7,7-0.9,7.2-0.9
				c-0.1-0.4-0.2-2-0.2-2.1c0-0.3,0.1-0.4,0.3-0.5c0.2,0.3,0.4,0.5,0.8,0.6c-0.2,0.2-0.3,0.3-0.5,0.4c0,0.3,0.1,0.9,0.1,1.1
				c0.4-0.2,1-0.4,1.6-0.6c0.2-0.1,0.6-0.1,0.7-0.1c0.2,0,0.5,0.1,0.6,0.3c0.1,0.1,0.3,0.3,0.3,0.5
				C189.6,26.6,189.5,26.9,189.4,27.2z M188.8,26.2c-0.4-0.6-1.6-0.1-2.5,0.3c0.5,0,0.9,0,1.4,0c0.2,0,0.7,0,1.1,0
				C188.9,26.4,188.9,26.3,188.8,26.2z M177.2,29.2c-0.2,0-0.3-0.1-0.5-0.1c-0.1,0.2-0.3,0.4-0.4,0.6c0.2,0.1,0.4,0.1,0.7,0.2
				c0.1-0.2,0.2-0.3,0.3-0.4c0.2,0,0.3,0.1,0.5,0.1c0.1-0.2,0.2-0.3,0.4-0.6c-0.3-0.1-0.4-0.1-0.7-0.2
				C177.4,28.9,177.3,29,177.2,29.2z M197.8,27.1c0.6,0,1.1,0.1,1.3-0.2c-0.3-0.1-0.7-0.2-0.8-0.4c0.1-0.1,0.4,0,0.5,0.1
				c0.1-0.1,0.1-0.1,0.2-0.2c-0.4-0.3-0.9-0.1-1,0.2c0.1,0,0.3,0.1,0.3,0.2C198.1,26.9,197.9,27,197.8,27.1z M197.5,28.1
				c-0.2,0.5-0.4,1-0.7,1.5c0.1,0.1,0.4-0.1,0.5-0.2c0.7-0.4,1.2-1.6,1.4-2.3c0,0-0.4,0.1-0.6,0.2C197.7,27.6,197.7,27.7,197.5,28.1
				z M192.3,28.4c0.2,0.2,0.3,0.3,0.5,0.5c0.3-0.1,0.4-0.2,0.6-0.4c-0.2-0.2-0.3-0.3-0.5-0.5C192.7,28.1,192.5,28.3,192.3,28.4z
				 M196.9,27.8c-0.1,0.4-0.4,0.6-0.6,0.8c-0.9-0.4-3.1-0.9-4.2-1c-0.3,0.3-0.8,0.8-1.3,0.9c-0.7-0.1-1.2-0.3-1.7-0.5
				c0.3,0,0.4,0,0.6,0c0.7,0,1.3-0.2,1.8-0.5c-1-0.1-1.2-0.4-0.8-1.1c0.2-0.3,0.6-0.8,1.1-0.7c0.4,0.1,0.5,0.7,0.5,1.1
				c1.2,0.1,2.7,0.5,3.8,0.9c0.1-0.3-0.1-0.5-0.3-0.7c0.2-0.2,0.4-0.4,0.6-0.5C196.9,26.8,197,27.5,196.9,27.8z M191.4,26.3
				c0,0-0.2,0.1-0.3,0.3c0.1,0.1,0.3,0.2,0.5,0.2c0,0,0.1,0,0.1,0C191.9,26.6,191.6,26.3,191.4,26.3z M178.8,28.7
				c0.2,0.1,0.4,0.2,0.6,0.3c0.2-0.2,0.3-0.3,0.5-0.5c-0.3-0.1-0.4-0.2-0.7-0.3C179.1,28.3,178.9,28.6,178.8,28.7z M207.6,72.6
				c-1.5,3-3.4,4.9-6.1,6.6c-3.8,2.4-7.8,1.8-9.1,1.1c0,0,0.1,0.3,0.1,0.3s0.1,0.2,0.1,0.3c0.5,1.4,0.2,2.8-1.7,3
				c-0.5,0.1-1,0.1-1.7,0.4c-0.4,0.2-1,0.6-1.5,1.1c-0.2,0.2-0.7,0.9-1,1.3l0,0l0,0l0,0c-0.2-0.5-0.7-1.1-1-1.3
				c-0.6-0.6-1.1-0.9-1.5-1.1c-0.6-0.3-1.2-0.3-1.7-0.4c-1.9-0.2-2.2-1.7-1.7-3c0-0.1,0.1-0.2,0.1-0.3l0.1-0.3c-0.9,0.6-3.3,1-6,0.2
				c-0.1,0-0.2-0.1-0.3-0.1c-2.2-0.6-4.1-1.7-5.8-3.2c-2-1.9-3.1-3.9-3.5-4.7c-3.6-7.5-3.1-18.7-3.1-19.9
				c-0.1-12.9,2.7-20.1,5.2-23.6c-0.7-1-1.2-1.6-1.2-1.6c-0.3-0.3-0.7-0.6-1.5-0.8C164.6,25,164,23,164,23s1.7,1.2,3.3,1.9
				c-0.1,0.9,0.1,1.4,0.3,1.7c0,0,0.4,0.5,1,1.3c1.1-1.4,2.2-2.3,4.1-3.4c0.4-0.3,0.9-0.5,1.4-0.7c0-0.7,0.2-1.3,0.7-1.8
				c0-0.4,0.4-0.9,0.8-1l0,0c0.4-0.1,1,0.1,1.4,0.4c0.7,0.1,1.3,0.5,1.8,1c1.5-0.3,3.2-0.5,5.1-0.7c0.2-1,0.8-1.6,1.6-2
				c0.2-0.4,0.8-0.8,1.3-0.9l0,0l0,0l0,0c0.5,0,1.1,0.4,1.3,0.9c0.8,0.4,1.4,1.1,1.6,2c1.9,0.1,3.6,0.4,5.1,0.7
				c0.5-0.5,1.1-0.9,1.8-1c0.3-0.3,0.9-0.5,1.4-0.4l0,0c0.4,0.1,0.7,0.6,0.8,1c0.4,0.5,0.7,1.1,0.7,1.8c0.5,0.2,1,0.5,1.4,0.7
				c1.8,1,3.1,2.2,4.1,3.4c0.6-0.9,1-1.4,1.1-1.4c0.2-0.3,0.4-0.8,0.3-1.7c1.6-0.7,3.3-1.9,3.3-1.9s-0.6,2-0.9,3.7
				c-0.9,0.1-1.3,0.5-1.5,0.8c0,0-0.6,0.7-1.4,1.8c2.4,3.5,5.3,10.7,5.1,23.5C210.7,53.7,211.2,65.1,207.6,72.6z M206.4,32.1
				c-1.5,0.3-2.5,0.3-3.1,0.3c-0.4,0.8-0.7,1.6-0.7,3c-0.6-0.2-0.9-0.4-1.3-0.7c-0.4,0.6-0.7,0.9-1.1,1.5c4.1,7.2,4,13.9,4.1,15.8
				c3.1-1.8,5.1-3.5,5.5-3.8C209.5,41.5,208.4,36.5,206.4,32.1z M200,52.3c-0.1,0.8-0.1,1.4,0.1,2.1c0.4-0.5,0.6-0.9,0.9-1.8
				c0,0.7,0.2,1.4,0.3,1.7c0.5-0.7,0.8-3.5,0.8-3.5s0,0.1,0.3,0.2c0.3-1,0.1-3.1-0.1-4.1c-0.4-1.7-1.1-3.8-3.1-6.3
				c-1.1-1.3-2-0.7-2.9,0.3c-1.5,1.6-1.8,2.3-3.6,2.6c0,0,0,0,0,0c-0.2,0,0,0.1,0.3,0.1c2.1,0,2.8-1.4,3.4-2.1
				c0.4-0.5,1-0.9,1.4-0.6c0.2,0.1,0.8,0.8,0.1,2.4c0-0.4-0.1-0.7-0.2-0.8c-0.3,1.1-0.6,2-1.1,2.7c-0.1-0.2-0.1-0.3-0.1-0.6
				c-0.2,1.3-1.4,2.7-1.6,4.7c-0.1-0.2-0.2-0.3-0.2-0.8c-0.9,1.7-1.9,4.7-1.3,6.2c0-1.5,0.9-3.7,1.4-4.4c-0.6,2-1.4,4.4-0.7,5.9
				c0-1.3,0.8-3.3,1.3-4.2c-0.9,3.2-1.2,4.9-0.3,6.1c-0.2-1.2,0.3-3,1-4.5c-0.4,2.5-1.1,4.7,0.1,5.8c-0.2-1.7,0.5-3.8,0.8-4.6
				c-0.4,2.4-0.7,4.8,0.1,6c0-0.8,0.1-1.7,0.3-2.5c0.2-1.1,0.5-2.1,0.5-2.1s-0.3,1.7-0.4,3.8c0,0.3,0,0.7,0,1c0,0.4,0,0.8,0.1,1.3
				c0.1,0.4,0.2,0.7,0.4,1c0.2-2.8,0.5-5.1,0.9-6.2c0,0-0.3,2.6-0.5,6.5c0,0.1,0,0.3,0,0.4c-0.3,5.7,0.5,7.5,0.8,8
				c0,0-0.1-0.1-0.1-0.8c0-0.6,0-0.6,0.1-1.3c0-0.2-0.5-1.2-0.4-2.6c0-0.8,0.1-1.7,0.2-2.5c0.1-0.8,0.1-1.5,0.2-2.2
				c0.1-0.6,0.1-1.2,0.2-1.9c0.1-0.9,0.3-1.8,0.5-2.7c0.1-0.7,0.1-0.1,0.1,0.1c-0.1,0.8-0.2,2.6-0.4,4.4c-0.1,1.4-0.4,4.1-0.3,5.4
				c0.1,1.1,0.4,1.6,0.4,1.8c-0.1,2.2,0.2,3.1,0.5,3.9c0,0,0.2-0.8,0.4-1.8c0,0.1-0.1,0.2-0.2,0.2c-0.3-0.7-0.4-2-0.2-3.3
				c0-0.2-0.3-0.5-0.3-1.6c0-1.6,0.3-3.3,0.5-4.9c0.1-0.5,0.1-1.1,0.2-1.6c0.1-0.3,0.1-0.6,0.1-1c0.1-0.5,0.2-1,0.3-1.5
				c0-0.1,0-0.2,0.1-0.2c0,0,0,0.4-0.1,0.9c-0.2,2.2-0.7,7.7-0.7,8.2c0,1.1,0.3,1.4,0.3,1.6c-0.1,0.8,0,2.2,0.1,2.6
				c0.1-0.3,0.2-0.9,0.2-0.9s0.3-2.3,0.7-5.5c0.1-0.5,0.1-1,0.2-1.5c0.1-0.5,0.1-0.9,0.1-1.4c0.1-0.6,0.1-1.1,0.2-1.7
				c0-0.3,0-0.5,0.1-0.7c0.1-1.5,0.3-3.2,0.4-4.7c0,0,0.2-2.5,0.3-3.2c-0.1,0-0.1-0.1-0.1-0.1s-0.3,3-1.1,4.1
				c-0.2-0.2-0.5-1.3-0.5-1.7c-0.2,0.6-0.9,1.4-0.9,1.4s-0.3-0.6-0.2-1.6c-0.3,0.4-0.5,0.6-0.8,0.8c-0.1-0.3-0.3-0.7-0.3-1.7
				c-0.1,0.2-0.4,0.4-0.7,0.6c-0.1-0.2-0.6-1.1,0.3-4.2c-0.4,2.9-0.2,3.3-0.1,3.5c0.2-0.1,0.3-0.2,0.4-0.3c0-0.5,0.1-1.2,0.3-2.1
				c-0.1,2.3,0,3,0.2,3.5C199.3,53.7,199.6,53.3,200,52.3z M192.9,53.3c0.2-3,0.8-4.8,1.2-6.4C192.4,48.6,192.7,52.6,192.9,53.3z
				 M193.2,46.7c0.5-1.5,0.1-2.3-0.2-2.4C192.9,45,193.1,45.3,193.2,46.7z M194.5,48c0.4-1.4,0.6-2.2,0.6-3.4
				C194.7,45,194.4,46.5,194.5,48z M195.8,45c0.1-0.5,0.1-1.2,0.1-1.7c-0.2,0.5-0.5,1.6-0.4,2.6C195.6,45.7,195.7,45.3,195.8,45z
				 M192.2,56.3C192.2,56.3,192.2,56.3,192.2,56.3C192.2,56.3,192.2,56.2,192.2,56.3C192.2,56.2,192.3,56.2,192.2,56.3
				c0.1-0.1,0.2-0.1,0.3,0c0.1,0,0.1,0.1,0.2,0.1c-0.1-0.3-0.1-0.7-0.2-1.1c0-0.5,0-0.9-0.2-1.4c0,0,0,0,0-0.1
				c-0.1,0.2-0.2,0.4-0.4,0.6c-0.2,0.3-0.5,0.6-0.5,1l0,0.1l-0.1-0.1c0.1,0.1-0.3-0.4-0.3-0.4c-0.2,0.7-1.3,2.1-1.6,2.4l0,0
				c0,0-0.5,0.7-0.6,2.3c-0.2,1.5,0,2.4,0,2.4l0.4-0.4c0,0,0,0.4,0,0.9c0,0.4-0.2,0.7-0.2,0.7s0.8,0.1,1.4-0.6l0.1,0.3
				c0.1,0.3,0.2,0.6-0.1,0.8c0,0-0.4,0.4-0.4,0.7c0,0.1,0.1,0.2,0.2,0.3l0,0v0c0,0.2,0.1,0.3,0.2,0.3c0-0.2,0-0.3,0-0.3
				c0.1-0.2,0.2-0.3,0.4-0.3c0.1,0,0.2,0,0.2,0s0.1,0.9,0.2,1.3c0.1,0.3,0.2,0.8,0.2,1.2c0,0.1,0,0.2,0,0.3c0,0.3,0.2,0.3,0.4,0.4
				c0.1,0,0.3,0,0.4,0l0,0l0,0c-0.2,0.1-0.2,0.2-0.2,0.2c0,0.1,0.1,0.3,0,0.6l0,0c0.4-0.2,0.4-0.5,0.3-0.8v0l0,0
				c0.3-0.2,0.2-0.7-0.2-1.5c-0.2-0.4-0.3-1-0.1-1.1c0,0,0,0,0,0c0.1,0,0.1,0,0.3,0.3c0.1,0.2,0.3,0.3,0.4,0.6
				c0.2,0.2,0.3,0.4,0.3,0.5c0,0.1,0,0.1-0.1,0.1c0,0-0.1,0-0.1,0c-0.1,0-0.2,0-0.3,0c0.1,0.1,0.4,0.5,0.5,0.3
				c0.3-0.3,0,0.2,0.5,0.2c0.3,0,0.5-0.2,0.5-0.5c0-0.1,0-0.2,0-0.3c-0.1-0.3-0.3-0.6-0.4-0.8l-0.1-0.1c-0.7-0.8-0.7-1-0.6-1.1
				c0.1-0.1,0.1-0.2,0.3-0.2c0.3,0,0.6,0,0.6,0c0.3,0.1,0.8,0.1,0.8,0.3c0,0,0,0.1-0.1,0.1c-0.1,0-0.3,0.1-0.3,0.1
				c0,0,0.1,0.1,0.3,0.2c0.1,0.1,0.6,0.2,0.8,0l0.1-0.1c0.1,0,0.3,0,0.4-0.2c0.1-0.2-0.2-0.4-0.4-0.5c-0.2-0.1-0.7-0.3-1.1-0.4
				c-0.2,0-0.4-0.1-0.5-0.1l-0.9-0.2c0,0-0.5-0.2-0.6-0.2c-0.1,0-0.1-0.1-0.2-0.1c-0.1-0.1-0.3-0.2-0.4-0.3
				c-0.1-0.1-0.2-0.5-0.3-0.9c0.1,0.1,0.4,0.2,0.7,0.3c0-0.1-0.1-0.6,0-0.8c0.1-1.5,0.2-2.3,0.2-2.3s0.3,0.3,0.3,0.3
				c0.1-0.3,0-0.9-0.1-1.5c0,0,0,0,0,0C192.4,57.6,192.3,56.9,192.2,56.3z M193.2,63.2l0.7,0.2c0.1,0,0.2,0.1,0.3,0.1
				c0.1-0.3,0.2-0.7,0.2-1c0-0.4,0.9,0.4,1.4,1c0.2,0.2,0.3,0.1,0.1,0c-0.6-0.8-1.7-1.5-2-1.7c-0.6-0.3-0.8-0.3-0.6,0
				C193.5,62.1,193.5,62.7,193.2,63.2z M194.3,68.9c0.6,0.8,1.7,2.3,2.1,2.7c0.9,0.9,1.2,1,1.9,1c-0.2-0.6-0.4-1.2-1.4-2.8
				c-0.5-0.8-1.4-2.2-2.3-3.2c0,0.2,0,0.3-0.1,0.4c0,0,0,0.1-0.1,0.1c-0.1,0.1-0.1,0.2-0.2,0.3c-0.1,0.1-0.3,0.1-0.5,0.1
				c-0.2,0-0.3-0.1-0.4-0.2c-0.1,0-0.2,0-0.3-0.1c0,0.3,0,0.5-0.2,0.7c0,0.2,0,0.6-0.3,0.9c0,0,0.1,0.1,0.1,0.1
				c0.2,0.4,0.1,0.6,0,0.7c-0.1,0.1-1.1,1.3-1.4,1.4c-0.3,0.3-0.6,0-0.6,0l-0.2-0.1c0,0-0.3,0.3-0.5,0.5c0,0,0,0,0.1,0.1l0,0
				c0.3,0.3,0.7,0.5,1.1,0.7c0.4,0.2,1.5,0.6,2.2,0.9c-0.2-0.5-0.4-1.2-0.6-1.8c0.2,0.3,0.7,1.2,1.2,2c0,0,0.1,0,0,0
				c0.6,0.3,1.4,0.7,2,1c-0.1-0.2-0.1-0.3-0.1-0.3s-0.5-0.6-0.9-1.1c-0.8-1.1-1.2-2.2-1.5-2.9c0.9,1.3,1.1,1.6,1.4,2.1
				c1.1,1.4,2.2,2.1,2.6,2.1c-0.1-0.8-0.4-1-0.4-1s-0.5-0.4-1.1-1.2c0.1,0.2,0.3,0.4,0,0c-0.2-0.3-0.1-0.2,0,0
				C195.4,71.2,194.8,70.2,194.3,68.9z M191.3,75.9c1.4,0.2,4.6,0.1,5.7-0.3c-0.4-0.3-2.2-1.5-4.9-2.6c-0.6-0.2-1.3-0.5-1.8-0.8
				c-0.3-0.2-0.5-0.4-0.8-0.7c-0.9-0.8-3.2-3.3-3.6-3.7l-1.6,1.4c0,0,4.1,4,5.2,4.6c1.3,0.7,5.1,1.6,5.1,1.6s-2.9-0.2-5.1-1.1
				c-1.3-0.5-5.6-4.7-5.6-4.7l-1,0.9c0.5,0.6,1.6,1.8,3.5,3.3C187.7,75,189.2,75.7,191.3,75.9z M186.9,75c0,0.8,0.6,1.6,0.8,1.7
				c0,0,0.2-0.3,0.4-1.1C187.5,75.4,187.1,75.2,186.9,75z M179.8,69.9c-0.2,0.8-0.7,1.9-1.5,2.9c-0.4,0.5-0.9,1.1-0.9,1.1
				s0,0.1-0.1,0.3l-0.1,0.1l0.6-0.3c0.1-0.1,0.2-0.1,0.3-0.2c0.4-0.2,0.9-0.4,1.3-0.6c0.4-0.8,1-1.7,1.1-2c-0.1,0.2-0.1,0.7-0.6,1.8
				l0.3-0.1c0.7-0.3,1.3-0.5,1.6-0.6c0.5-0.2,0.7-0.4,0.9-0.6c0,0,0.1-0.1,0.2-0.2c0,0-0.5-0.5-0.5-0.5l-0.2,0.1c0,0-0.3,0.3-0.6,0
				c-0.2-0.2-1.3-1.3-1.4-1.4c-0.1-0.1-0.2-0.3,0-0.7c0,0,0,0,0,0c-0.3-0.3-0.4-0.7-0.4-0.9c-0.1-0.2-0.2-0.4-0.2-0.7
				c-0.1,0.1-0.2,0.1-0.3,0.1c-0.1,0.1-0.3,0.2-0.4,0.2c0,0-0.1,0-0.1,0c-0.2,0-0.3,0-0.5-0.2c-0.1-0.1-0.1-0.1-0.3-0.3c0,0,0,0,0,0
				c-0.6,0.6-1.1,1.4-1.9,2.7c-1,1.6-1.2,2.1-1.4,2.8c0.6,0,1-0.1,1.9-1c0.4-0.4,1.4-1.9,2.1-2.7c-0.6,1.3-1.1,2.4-1.6,3
				c-0.6,0.8-1.2,1.3-1.2,1.3s-0.3,0.2-0.4,0.9c0.4,0,1.6-0.6,2.6-2.1C178.8,71.6,179,71.2,179.8,69.9z M179.2,65.7
				c-0.3,0.3-0.6,0.7-0.6,1.2c0,0.3,0.2,0.5,0.5,0.5c0.4-0.1,0.2-0.5,0.5-0.2c0.1,0.1,0.4-0.3,0.5-0.3c-0.2,0-0.5,0.1-0.4-0.2
				c0-0.2,0.2-0.4,0.3-0.5c0.1-0.1,0.5-0.8,0.7-0.7c0.1,0.1,0,0.7-0.1,1.1c-0.4,0.8-0.5,1.4-0.2,1.5l0,0v0c0,0.3,0,0.6,0.3,0.8l0,0
				c-0.1-0.3,0-0.5,0-0.6c0,0,0-0.1-0.2-0.2l0,0l0,0c0.1,0,0.3,0,0.4,0c0.2,0,0.3-0.1,0.4-0.4c0-0.1,0-0.2,0-0.3
				c0.1-0.5,0.1-0.9,0.2-1.2c0.1-0.4,0.2-1.3,0.2-1.3s0.1,0,0.2,0c0.1,0,0.3,0.1,0.4,0.3c0,0.1,0,0.2,0,0.3c0.1,0,0.2-0.1,0.2-0.3v0
				l0,0c0.1-0.1,0.2-0.2,0.2-0.3c0.1-0.3-0.3-0.7-0.4-0.7c-0.2-0.2-0.1-0.5-0.1-0.8l0.1-0.3c0.1,0.1,0.3,0.3,0.4,0.4
				c0.5,0.4,1.1,0.3,1.1,0.3s-0.1-0.3-0.2-0.7c-0.1-0.5,0-0.9,0-0.9l0.4,0.4c0,0,0.2-0.8,0.1-2.3c-0.2-1.7-0.6-2.4-0.6-2.7
				c-0.1-0.4-0.4-0.8-0.4-0.8s0,0.2-0.3,0.5c-0.3-0.4-0.9-1.3-1.1-1.8c-0.1,0.2-0.2,0.3-0.3,0.4l-0.1,0.1l0-0.1
				c-0.1-0.4-0.3-0.7-0.5-1c-0.2-0.2-0.3-0.4-0.4-0.6c-0.1,0.5-0.2,1-0.2,1.4c0,0.4-0.1,0.8-0.2,1.1c0.1,0,0.1-0.1,0.2-0.1
				c0.1-0.1,0.1-0.1,0.2-0.1l0,0l0,0c0,0,0,0,0,0.1c-0.1,0.6-0.3,1.3-0.3,1.7c-0.1,0.6,0,1.1,0,1.4c0,0,0.4-0.3,0.4-0.3
				s-0.3,0.9-0.1,2.3c0,0.2,0,0.7,0,0.8c0.3,0,0.5-0.2,0.6-0.3c-0.1,0.4-0.2,0.7-0.3,0.9c-0.4,0.5-1.1,0.6-1.7,0.8
				c-0.7,0.2-1.4,0.3-2,0.7c-0.2,0.1-0.4,0.3-0.4,0.5c0.1,0.2,0.3,0.2,0.4,0.2l0.1,0.1c0.2,0.2,0.7,0.1,0.8,0
				c0.1-0.1,0.3-0.2,0.3-0.2c0,0-0.2,0-0.3-0.1c0,0-0.1-0.1-0.1-0.1c0-0.3,1.2-0.3,1.4-0.3c0.2,0,0.3,0,0.3,0.2
				C179.9,64.7,180,64.8,179.2,65.7z M179.6,61.7c0.2-0.3-0.1-0.4-0.6,0c-0.3,0.2-1.5,0.9-2,1.7c-0.1,0.2-0.1,0.3,0.1,0
				c0.6-0.6,1.4-1.4,1.4-1c0,0.3,0,0.7,0.2,1c0.1,0,0.2,0,0.3-0.1l0.8-0.2C179.4,62.6,179.4,62.1,179.6,61.7z M178.4,50.3
				c0.5,0.7,1.4,2.9,1.4,4.4c0.6-1.5-0.4-4.5-1.3-6.2c0,0.5-0.1,0.6-0.2,0.8c-0.2-1.9-1.4-3.3-1.6-4.7c0,0.2-0.1,0.4-0.1,0.6
				c-0.4-0.8-0.8-1.6-1.1-2.7c-0.1,0.1-0.2,0.4-0.2,0.8c-0.6-1.7,0-2.3,0.1-2.4c0.5-0.3,1,0.2,1.4,0.6c0.6,0.7,1.3,2.1,3.4,2.1
				c0.4,0,0.5-0.1,0.3-0.1c0,0,0,0,0,0c-1.8-0.3-2.1-1-3.5-2.6c-0.9-1-1.8-1.6-2.9-0.3c-2.1,2.5-2.8,4.6-3.1,6.3
				c-0.2,1-0.4,3-0.1,4.1c0.3-0.1,0.3-0.2,0.3-0.2s0.3,2.8,0.8,3.5c0.1-0.3,0.3-1,0.3-1.7c0.3,0.8,0.5,1.3,0.9,1.8
				c0.2-0.7,0.2-1.4,0.1-2.1c0.4,1,0.8,1.4,1,1.6c0.2-0.5,0.4-1.2,0.2-3.5c0.2,0.9,0.3,1.5,0.3,2.1c0.1,0.1,0.3,0.2,0.4,0.3
				c0.1-0.2,0.3-0.6-0.1-3.5c1,3.2,0.4,4,0.3,4.2c-0.3-0.2-0.6-0.4-0.7-0.6c0,0.9-0.2,1.3-0.3,1.7c-0.4-0.2-0.6-0.5-0.8-0.8
				c0,1-0.2,1.6-0.2,1.6s-0.7-0.8-0.9-1.4c0,0.4-0.2,1.5-0.5,1.7c-0.8-1.1-1.1-4.1-1.1-4.1s-0.1,0-0.1,0.1c0,0.7,0.1,1.9,0.3,3.2v0
				c0.1,1.5,0.3,3.2,0.4,4.7c0.3,3.6,0.7,7.2,1.2,10.9c0,0,0.1,0.6,0.2,0.9c0.1-0.4,0.1-1.8,0.1-2.6c0-0.2,0.3-0.5,0.3-1.6
				c0-0.4-0.5-6-0.7-8.2c0-0.3-0.1-0.9-0.1-0.9c0,0.1,0,0.2,0.1,0.2c0.2,0.8,0.3,1.7,0.4,2.5c0.1,0.5,0.1,1,0.2,1.6
				c0.2,1.6,0.4,3.2,0.5,4.9c0,1-0.3,1.3-0.3,1.6c0.2,1.3,0,2.6-0.2,3.3c-0.1,0-0.2-0.1-0.2-0.2c0.2,1,0.4,1.8,0.4,1.8
				c0.4-0.8,0.6-1.7,0.5-3.9c0-0.2,0.3-0.7,0.4-1.8c0-0.3,0-1.4-0.1-2.7c-0.2-2.4-0.4-4.7-0.6-7.1c0-0.1,0-0.4,0-0.4
				c0,0.1,0.1,0.2,0.1,0.3c0.7,3,0.9,6.2,1.1,9.3c0.1,1.4-0.4,2.4-0.4,2.6c0.1,0.7,0.1,0.7,0.1,1.3c0,0.7-0.1,0.8-0.1,0.8
				c0.2-0.5,1-2.3,0.7-8c0-0.1,0-0.3,0-0.4c-0.2-3.9-0.5-6.5-0.5-6.5c0.4,1.1,0.7,3.5,0.9,6.2c0,0,0.1-0.1,0.1-0.1
				c0.4-1,0.5-2.1,0.4-3.2c-0.1-2.1-0.4-3.8-0.4-3.8s0.1,0.2,0.1,0.2c0.1,0.2,0.3,0.8,0.5,1.9c0.1,0.7,0.3,1.5,0.3,2.2
				c0,0.1,0,0.2,0,0.3l0,0c0.8-1.2,0.4-3.5,0.1-6c0.4,0.8,1,3,0.8,4.6c1.2-1.1,0.5-3.3,0.1-5.8c0.7,1.5,1.2,3.3,1,4.5
				c1-1.3,0.6-2.9-0.3-6.1c0.5,0.8,1.2,2.9,1.3,4.2C179.7,54.8,179,52.3,178.4,50.3z M189,57.5c0,0,0.5-0.5,0.7-2.1
				c0.1,0.1,0.3,0.2,0.3,0.5c0.3-0.4,1-2.5,1-3.3c0.2,0.1,0,0,0.3,0.2c0.2-0.3,0.5-1.5,0.7-3.2c0.1,0,0.2,0,0.3,0.1
				c0.1-0.8,0.2-2,0.3-2.9c0-0.7,0-2.3-0.3-3.2c-0.3-0.9-0.5-1.3-1-2.2c0,0-0.2,0.1-0.3,0.2c-0.1-0.4-0.5-1.5-0.7-1.8
				c-0.5-0.9-0.7-1.5-1.2-1.9c0.2,0,0.3,0.1,0.6,0c-0.3-0.3-0.4-0.5-0.8-0.8c0.1-0.1,0.3-0.1,0.7,0c-0.5-0.5-0.7-1.1-1.9-1.6
				c0.2,0,0.4,0,0.7,0c-0.2-0.3-0.6-0.7-1.2-0.8c-1.3-0.3-3.1-0.3-4,0.7c-0.1,0.1-0.3,0.1-0.5,0.2c-0.1,0-0.2,0.1-0.2,0.1
				c-0.1,0.1-0.2,0.3,0.1,0.7c-0.4,0-0.5-0.4-0.5-0.4c-0.1,0.1-0.3,0.2-0.4,0.4c-0.1,0.2-0.2,0.6-0.2,0.7c0,0,0.4,0.2,0.4-0.2
				c0-0.1,0.6-0.2,0.8-0.2c0.3,0,0.6,0.1,0.9,0c-0.1,0-0.5,0.2-0.7,0.2c-0.2,0-0.2,0.2,0,0.2c0.2,0,0.2,0,0.4-0.1
				c0.1,0,0,0.2,0.1,0.3c1.1-0.2,1.1,0.9,2.3,0.7c-0.5-0.4-1-1.1-1.4-1.3c1.1,0.2,1.7,1.2,2.9,1.2c0-0.1,0-0.1-0.1-0.3
				c0.4,0,0.7,0.3,0.8,0.3c-0.1,0.2-0.5,0.3-1,0.4c0.1,0.2,0.5,0.2,0.7,0.2c-0.2,0.2-0.5,0.3-1.1,0.2c-0.2,0.2-0.4,0.5-1.2,1
				c0-0.2,0-0.2,0-0.4c-0.5,0.3-0.9,0.8-1.2,1c0.1-0.2,0.2-0.5,0.3-0.7c-1.4,1.2-2.6,2.4-3.1,3.3c-0.5,1-0.7,2-0.6,3.7
				c0.1,0.9,0.4,3.5,0.5,4c0.1,0,0.2-0.1,0.3-0.1c0.3,1.9,1.3,4.5,1.8,5.3c0.1-0.2,0.1-0.3,0.3-0.4c0.1,0.5,0.3,1.1,0.8,1.4
				c0-0.3,0.1-0.5,0.2-0.7c0.1,0.4,0.1,1.5,0.7,2.1c0-0.3,0.1-0.6,0.2-1c0.1,0.4,0.1,0.8,0.3,1.2c0.2,0.4,0.5,0.8,0.7,1
				c0-0.9,0.1-0.8,0.1-1.2c0,0.1,0.4,0.4,0.5,1.5c0.7-0.5,0.9-2.2,0.9-2.2s0.2,0.2,0.3,0.6c0.6-0.6,0.8-1.4,0.9-2
				C189,56.9,189,57.3,189,57.5z M189.6,66.2c0.8,0,1,0,1.3-0.1c0-0.1,0-0.2-0.1-0.3c0-0.1,0-0.1,0-0.2c0,0,0,0,0,0
				c-0.3,0.1-0.8,0.2-1.5,0.1c-0.3-0.1-0.4-0.1-0.6-0.2c-0.2-0.1-0.6,0.3-0.9,0.6c-0.3,0.3-0.6,0.7-0.7,0.8c0,0,0,0.1,0,0.1
				c0.3,0.2,3.5,3.2,3.7,3.4c0.1,0.1,0.1,0.1,0.1,0c0.1-0.2,0.4-0.4,0.6-0.6c0,0-3.2-3-3.3-3.1c-0.1-0.1-0.1-0.1,0-0.1
				s0.2-0.2,0.2-0.2c0,0,0.1,0,0.1,0c0.1,0.1,1.1,1,1.1,1l1.4,1.2l0.9,0.8c0.1-0.1,0.1-0.1,0.1-0.1c0.1-0.1,0.1-0.2-0.3-0.7
				c-0.1-0.1-2.3-2.3-2.3-2.3C189.2,66.3,189.4,66.2,189.6,66.2z M184.6,66.9c-0.1,0.1-3.3,3.1-3.3,3.1c0.2,0.2,0.4,0.4,0.6,0.6
				c0.1,0.1,0.1,0.1,0.1,0c0.2-0.2,3.4-3.2,3.7-3.4c0,0,0-0.1,0-0.1c-0.1-0.2-0.5-0.5-0.7-0.8c-0.3-0.3-0.7-0.7-0.9-0.6
				c-0.3,0.1-0.3,0.1-0.6,0.2c-0.7,0.1-1.2,0-1.5-0.1c0,0-0.1,0-0.1,0c0,0.1,0,0.2,0,0.2s0,0.1,0,0.2c0.3,0.1,0.5,0.1,1.4,0.1
				c0.3,0,0.4,0.1,0.2,0.3c0,0-2.1,2.1-2.3,2.3c-0.4,0.4-0.5,0.5-0.4,0.7c0,0,0,0,0.1,0.1l0.9-0.8l1.4-1.2c0,0,1-0.9,1.1-1
				c0-0.1,0.1-0.1,0.1,0c0,0,0.2,0.2,0.2,0.2C184.7,66.8,184.7,66.9,184.6,66.9z M184.9,59.3c0,0,0-0.2-0.1-0.4
				c-0.1-0.1-0.3-0.3-0.4-0.4c-0.1-0.1-0.1-0.2-0.1-0.2c0,0.1,0,0.4,0.1,0.5c0,0.1,0.1,0.3,0.3,0.4
				C184.8,59.3,184.9,59.3,184.9,59.3z M184.9,65.5c0,0,0.2,0.2,0.3,0.3c0.1-0.3,0.2-1.4,0.1-1.5C185,64.9,184.9,65.4,184.9,65.5z
				 M183.6,65.4c0.1,0,0.4-0.2,0.6-0.2c0,0,0.1,0,0.1,0l0,0c0.1-0.3,0.3-0.8,0.4-1.1C184.6,64.1,183.8,65.2,183.6,65.4z M186,66.6
				c0-0.4,0-0.9-0.1-1.1c-0.1,0.2-0.2,0.5-0.3,0.8C185.7,66.3,186,66.6,186,66.6z M186.2,63.7c0,0-0.1-0.6-0.5-0.7
				C185.7,63.4,186.2,63.7,186.2,63.7z M186.5,62.8L186.5,62.8L186.5,62.8c0,0,0.1-0.2,0.3-0.3c0.1-0.1,1.1-0.7,1.2-0.9
				c0.2-0.2,0.3-0.6,0.3-0.6s-0.2,0.3-0.5,0.5c-0.3,0.2-1,0.6-1.1,0.8c-0.1,0.1-0.1,0.2-0.1,0.3c0-0.1,0-0.1-0.1-0.2
				c-0.2-0.5-0.9-0.7-1.3-1.1c-0.3-0.3-0.3-0.4-0.3-0.4c0,0.3,0.1,0.5,0.2,0.7c0.1,0.2,0.4,0.4,0.9,0.7
				C186.4,62.6,186.5,62.8,186.5,62.8z M186.1,61.1c0-0.7-0.8-0.8-1-1.5C185.1,60.6,185.8,60.6,186.1,61.1z M186.5,64
				c0,0,0.1,0,0.3-0.2c0.2-0.1,0.4-0.3,0.5-0.5c0.1-0.2,0.1-0.4,0.1-0.5c0,0-0.1,0.2-0.3,0.4c-0.1,0.1-0.3,0.3-0.4,0.4
				C186.6,63.9,186.5,64,186.5,64z M187.2,64.4c0.1,0.4,0.1,1.4,0.1,1.8l0,0c0.1-0.1,0.2-0.2,0.4-0.4
				C187.7,65.7,187.5,64.9,187.2,64.4z M186.5,67.1c0,0,0.3-0.3,0.4-0.4c0,0,0,0,0,0c-0.1-0.6-0.2-1.3-0.4-1.5
				C186.5,65.4,186.5,66.3,186.5,67.1z M186.5,67.4c0,0.2,0,0.4,0,0.5c0,0,0.3-0.3,0.3-0.3S186.6,67.4,186.5,67.4z M186.7,68.2
				c0.4,0.5,1.1,1.1,1.5,1.5c0.3-0.3,0.4-0.4,0.4-0.4l-1.6-1.4C186.9,68,186.8,68.1,186.7,68.2z M188.5,70.1c0.3,0.3,0.7,0.7,1,1
				c0.2-0.2,0.3-0.3,0.4-0.5l-1-0.9C189,69.7,188.8,69.8,188.5,70.1z M188.8,65.3c-0.2-0.2-0.6-0.8-1-1.1c0.3,0.6,0.4,1,0.4,1.1l0,0
				c0,0,0,0,0.1,0c0.1,0,0.1,0,0.2,0C188.6,65.2,188.7,65.2,188.8,65.3C188.8,65.3,188.8,65.3,188.8,65.3z M188.5,59.4
				c-0.2,0.3-0.4,0.5-0.6,0.7c0.1-0.2,0.1-0.5,0.1-0.5c-0.1,0.3-0.4,0.6-0.6,0.8c-0.5,0.5-0.6,0.9-0.6,0.9s0.1-0.2,0.7-0.5
				C188.1,60.5,188.3,60,188.5,59.4z M181.2,53.1c0,0.6,0.4,1.3,0.9,1.7C181.8,53.9,181.6,53.6,181.2,53.1z M192.9,42.8
				c0.2,0,0.4,0,0.6-0.2c0.2-0.1,0.2-0.2,0.3-0.3c1.3-2,3.8-5.1,5.7-7.5c-3.8-3.8-9.3-4-10.7-3.9c-0.3,0-0.7,0.3-0.3,0.8
				c-0.3,0.1-1.5,0-1.9-0.4c-0.4,0.4-1.6,0.5-1.9,0.4c0.4-0.5,0-0.8-0.3-0.8c-1.4-0.1-7.2,0.5-10.7,3.8c1.9,2.5,5.9,7.8,6,7.9
				c0.1,0.1,0.3,0.2,0.5,0.2c0,0,0.1,0,0.1,0c0.2,0,0.4-0.2,0.6-0.4c0.4-0.5,0.6-0.7,1-1.1c0.8-0.8,1.5-1.4,1.6-1.5
				c0.3-0.3,0.4-0.5,0.4-0.8c0-0.3-0.3-0.4-0.4-0.6c0,0-0.1,0.1-0.1,0.1c-0.1-0.1-0.3-0.5-0.3-0.5l-0.1,0.2c0,0-0.3-0.7-0.8-0.7
				c-0.6,0.1-1.1-0.2-1.1-0.2c0,0-0.1,0.2-0.1,0.5c0,0,0,0,0,0c-0.4-0.4-0.6-1.3,0.3-2c0.5-0.4,0.6-0.4,1-0.6
				c0.2-0.1,0.3-0.2,0.3-0.3c0.3-0.3,0.8-0.5,1.1-0.6c0.4-0.1,1.3-0.2,2.2-0.2c0.5,0,1,0.2,1.4,0.3c0.3,0.1,1.1,0.7,1.5,1.3
				c0.3,0.4,0.8,1.5,1.1,2.1c0.6,1.4,0.5,1.3,0.9,2.2c0.4,1.1,0.7,1.7,1.2,2.3C192.4,42.7,192.6,42.7,192.9,42.8z M199.8,34.4
				c0.1-0.2,0.3-0.3,0.4-0.5c-1.8-1.5-4.3-3.1-7.2-3.7c-1.9-0.4-3.5-0.5-4.4-0.4c-0.8,0-1.3,0.3-1.3,0.8c-0.5-0.1-0.6-0.7-0.7-0.8
				c-0.1,0.3-0.3,0.8-0.7,0.8c0-0.5-0.5-0.8-1.3-0.8c-1,0-2.5,0-4.4,0.4c-2.9,0.6-5.4,2.1-7.1,3.6c0.1,0.2,0.3,0.3,0.4,0.5
				c1.6-1.5,3.7-2.6,5.9-3.3c1.9-0.5,4.1-0.7,5.2-0.7c0.9,0,1.1,0.6,0.9,0.9c0.4,0,1-0.3,1.2-0.6c0.1,0.2,0.7,0.6,1.2,0.6
				c-0.1-0.3,0-0.8,0.9-0.9c1,0,3.3,0.1,5.2,0.7C196,31.7,198.2,33,199.8,34.4z M200.8,32.5c0.2,0.7,0.4,1.4,1,1.9
				c0.1,0.1,0.2,0.1,0.3,0.2l0,0c0-1.3,0.4-2,0.8-2.8l0,0v0c0.5,0.1,1.1,0.2,2.4,0c-1.2-0.8-1-1.8-1.9-2.8c-0.1-0.1-0.2-0.2-0.3-0.3
				c-0.3-0.2-0.6-0.3-0.7-0.3c-0.2,0-0.4,0.1-0.4,0.2c-0.1,0.1-1.4,1.5-2.2,2.5C200.4,31,200.6,31.8,200.8,32.5z M201.7,28
				c-0.9-0.9-2.2-1.8-3.9-2.5c-4.3-1.9-9.7-1.9-11.2-1.9l0,0c0,0,0,0,0,0c-1.6,0-7,0-11.2,1.9c-1.6,0.7-3,1.7-3.9,2.5
				c0,0,1.9,2.2,2.4,2.8c0.3,0.3,0.4,0.6,0.2,1c3-2,6.3-3,12.4-3h0.3c5.9,0.1,9.4,1,12.3,3c-0.1-0.5-0.1-0.7,0.2-1
				C199.7,30.2,201.7,28,201.7,28z M171.3,28.6L171.3,28.6c-0.1-0.1-0.4-0.4-1.2,0.1c-1.3,1.1-0.9,2.2-2.3,3.1
				c0.5,0.1,0.9,0.1,1.2,0.1c0.2,0,0.4,0,0.6,0c0.3,0,0.4-0.1,0.6-0.1l0,0c0.3,0.8,0.8,1.5,0.8,2.8c1.6-0.8,0.9-3.6,2.4-3.5
				C172.6,30.1,171.4,28.8,171.3,28.6z M172.3,34.1c1.2,1.5,2.1,2.7,2.2,3c0.4,0.6,1.8,2.2,1.8,2c0-0.1-0.9-1.3-1.4-2
				c-0.8-1.1-1.6-2.2-2.4-3.2C172.4,33.9,172.4,34,172.3,34.1z M178.1,44.7c0,1.1,0.2,2,0.6,3.4C178.7,46.6,178.4,45.1,178.1,44.7z
				 M177.3,43.4c-0.1,0.5-0.1,1.2,0.1,1.7c0.1,0.3,0.3,0.7,0.4,1C177.8,45,177.5,43.9,177.3,43.4z M180.3,53.3
				c0.2-0.6,0.4-4.6-1.2-6.4C179.5,48.5,180,50.3,180.3,53.3z M175.9,75.7c1.1,0.4,4.2,0.5,5.7,0.3c1.9-0.2,3.3-0.8,4.5-1.6
				c-0.3-0.3-0.7-0.6-1.1-1c-0.6,0.5-1.2,0.9-1.5,1c-2.2,0.9-5.1,1.1-5.1,1.1s3.8-0.9,5.1-1.6c0.3-0.1,0.7-0.5,1.2-0.9
				c-0.5-0.5-1-0.9-1.3-1.3c-0.2,0.2-0.4,0.4-0.7,0.6c-0.5,0.3-1.2,0.6-1.8,0.8C178.1,74.2,176.3,75.3,175.9,75.7z M185,75.7
				c0.1,0.4,0.3,0.8,0.4,1.1c0,0,0.7-0.6,0.9-1.9c-0.1,0.1-0.4,0.3-0.6,0.4C185.5,75.4,185.2,75.6,185,75.7z M198.8,37
				c0.2-0.2,1-1.3,2.1-2.8c-0.1-0.1-0.2-0.2-0.2-0.3c-0.8,1-1.5,2-2.2,3c-0.5,0.7-1.4,1.9-1.4,2C197,39.2,198.4,37.5,198.8,37z
				 M205.1,29.8c-0.1,0.2-0.4,0.5-0.4,0.5c0.3,0.6,0.7,1.3,1.7,1.8C206,31.3,205.6,30.5,205.1,29.8z M204.2,29.3
				c0,0,0.1,0.3,0.2,0.3c2.2-2.9,4.2-5.6,4.2-5.6s-0.9,0.6-2.1,1.2c0.1,0.7-0.3,1.5-0.5,1.7C206,26.9,205.3,27.9,204.2,29.3z
				 M168.9,28.4c0.1,0.1,0.2,0.3,0.3,0.4c1.6-2.1,3.9-3.6,6.5-4.6c-0.2-0.3-0.5-1,0.3-1.8l0,0c1.1,0.1,1.4,0.8,1.5,1.2
				c2.1-0.6,4.5-0.9,7.3-1c0.1-1.9,1.4-2.4,1.4-2.4s0-0.4,0.3-0.5h0c0.3,0.1,0.3,0.5,0.3,0.5s1.3,0.5,1.4,2.4c2.7,0.1,5.2,0.4,7.3,1
				c0.1-0.4,0.4-1,1.5-1.2l0,0c0.8,0.8,0.5,1.5,0.3,1.8c2.7,1,4.9,2.6,6.6,4.7c0.1-0.2,0.2-0.3,0.3-0.5c-1.5-1.9-3.7-3.5-6-4.4
				c0.3-0.8,0-1.4-0.4-1.8c0-0.3-0.2-0.6-0.4-0.7l0,0c-0.2,0-0.6,0.1-0.8,0.3c-0.7,0.1-1.3,0.4-1.7,1.1c-1.7-0.4-3.6-0.7-6.1-0.8
				c-0.1-1.1-0.7-1.8-1.5-2.2c-0.2-0.4-0.5-0.6-0.8-0.7c-0.3,0.1-0.6,0.3-0.8,0.7c-0.8,0.4-1.5,1.1-1.5,2.2
				c-2.5,0.1-4.4,0.4-6.1,0.8c-0.4-0.7-1-1-1.7-1.1c-0.2-0.2-0.6-0.3-0.8-0.3l0,0c-0.2,0.1-0.4,0.4-0.4,0.7
				c-0.4,0.5-0.7,1.1-0.4,1.8C172.5,25,170.5,26.5,168.9,28.4z M168.8,29.5c0.1-0.1,0.1-0.2,0.2-0.3c-1-1.3-1.7-2.2-1.8-2.3
				c-0.2-0.2-0.6-1-0.5-1.7c-1.2-0.6-2.1-1.2-2.1-1.2S166.6,26.6,168.8,29.5z M166.7,32.1c0.2-0.1,0.8-0.5,1.2-1.1
				c0.2-0.3,0.4-0.5,0.5-0.8c0,0-0.4-0.5-0.4-0.5C167.6,30.5,167.1,31.3,166.7,32.1z M163.3,48.2c0.4,0.3,2.4,2,5.5,3.8
				c0.1-1.9,0.1-8.7,4.2-15.9c-0.5-0.6-0.7-0.9-1.1-1.5c-0.3,0.3-0.8,0.6-1.4,0.8c0-1.4-0.3-2.2-0.7-3c-0.6,0-1.6,0-3.1-0.3
				C164.7,36.5,163.6,41.5,163.3,48.2z M181.7,78.9L181.7,78.9c0.1-0.4,0.7-1.6,0.9-2.3c0-0.1-0.1-0.2-0.1-0.3
				c-0.4,0.1-0.7,0.1-1.1,0.2c-0.2,0-3.8,0.6-6.4-0.7c0.3-0.2,0.9-0.7,1.7-1.2c0-0.1,0-0.1,0-0.2c-0.6,0.3-1.2,0.4-1.7,0.4
				c0-0.4,0.1-0.9,0.3-1.6c-0.6,0.1-1.1,0-1.1,0s0.4-1.3,1.3-2.8c0.8-1.4,1.9-2.8,2.9-4c0.1-0.5,0.5-0.9,0.5-0.9
				c0,0,0.1-0.2,0.2-0.2c-0.1-0.1-0.2-0.2-0.3-0.3c-0.1,0.1-0.2,0.2-0.3,0.2c-0.3,0.1-0.5,0.2-0.6,0.2c-0.3,0-0.5-0.1-0.6-0.2l0,0
				c-0.3-0.1-0.4-0.2-0.5-0.4c0,0,0-0.1,0-0.1c-0.2,0.1-0.3,0.1-0.5-0.1c-0.2-0.2,0.1-1.2,1.2-2.3c0.8-0.7,1.5-1.2,2.2-1.5
				c0.5-0.2,0.8,0.2,0.6,0.5c-0.3,0.4-0.5,1-0.2,1.7c0.3-0.1,0.4-0.2,0.5-0.2c0.1,0,0.3-0.1,0.4-0.3c0,0,0-0.1,0.1-0.1l-0.5,0
				c0.2-0.6-0.1-2,0.1-2.9c-0.1,0-0.2,0.2-0.3,0.2c-0.2-0.8-0.1-2.2-0.1-2.8c0-0.2-0.3-0.5-0.6-0.8c-0.3,0.7-0.7,1.5-1.5,2.4
				c-0.6,0.7-1.6,1.4-2.2,3.7c0,0,0,0,0,0c-0.1,0.4-0.2,0.7-0.4,1c-0.4,0.7-0.3,1.2-0.3,1.2v0c0,1.4,0,4.5-0.4,6.1
				c-0.3,1.5-0.8,2.2-0.8,2.2l-0.1-0.1c-0.1,0.5-0.4,1.4-0.9,2.1c0,0-0.5-1-1.4-8.5c-1-8.3-1.5-16.9-1.5-16.9l0,0
				c-0.1-1.5,0.3-3.3,0.7-4.6c0.8-2.1,2.2-4.1,3-4.9c0.5-0.5,1.1-0.6,1.7-0.5c-0.2-0.2-0.3-0.5-0.3-0.5c-0.6-0.8-1.2-1.6-1.8-2.3
				c-4,7.1-3.9,15.6-3.9,15.6l0,0.9l-0.7-0.4c-3.2-1.8-4.6-2.9-5.6-3.7c0,0.9-0.1,3.8-0.1,3.8c0,0,0,0.7,0,1.8
				c0,3.4,0.6,11.7,3.4,17.4c0.4,0.7,1.4,2.6,3.3,4.4c1.4,1.3,3.1,2.3,4.9,2.9c0.1,0,0.3,0.1,0.4,0.1
				C177.2,80.2,179.5,80,181.7,78.9z M181.6,81.3c0.4-0.3,1.1-0.6,1.9-0.3c0.1-1,0.2-2.5,0.4-3.8c-0.3,0.3-0.6,0.5-0.6,0.5
				c-0.1,0-0.1-0.1-0.2-0.1C182.5,79.1,181.6,81.2,181.6,81.3z M189.6,82c0.1-1.1-0.4-3.9-0.6-5.5c0,0-0.1-0.1-0.1-0.1
				c-0.1-0.1-0.1-0.1-0.1-0.2c-0.1,0.3-0.2,0.7-0.4,1c-0.2,0.4-0.5,0.8-0.5,0.8c-0.1,0-0.8-0.5-1.3-1.6c-0.5,1-1.2,1.6-1.3,1.6
				c-0.1,0-0.3-0.4-0.5-0.8c-0.1-0.2-0.1-0.4-0.2-0.5c-0.3,1.7-0.6,4.4-0.6,5.4c-1.6-1-2.5,0-2.2,0.7c0,0.1,0.1,0.1,0.1,0.2
				c0.2,0.3,0.4,0.4,0.8,0.4c0.5,0,1.2,0.1,1.9,0.4c0.7,0.3,1.4,0.9,2.2,1.8c0.8-0.9,1.5-1.5,2.2-1.8c0.8-0.3,1.4-0.4,1.9-0.4
				c0.3,0,0.6-0.2,0.8-0.4c0-0.1,0.1-0.1,0.1-0.2C192.1,82,191.1,81,189.6,82z M192,81.3c0,0-1-2.4-1.5-3.9
				c-0.1,0.2-0.3,0.3-0.3,0.3c0,0-0.2-0.1-0.5-0.4c0.2,1.2,0.4,2.6,0.5,3.7C190.9,80.7,191.6,80.9,192,81.3z M210,53
				c0-1.1-0.1-3-0.1-3.8c-1.1,0.9-2.1,1.7-5.4,3.7l-0.9,0.5l0-0.6c0-0.1,0.2-8.5-3.9-15.8c-0.3,0.3-1.1,1.5-2,2.6
				c0.5-0.1,1.1,0.1,1.5,0.5c0.9,0.8,2.2,2.8,3,4.9c0.4,1.3,0.8,3.1,0.7,4.6l0,0c0,0-0.5,8.6-1.5,16.9c-0.9,7.5-1.4,8.5-1.4,8.5
				c-0.6-0.7-0.8-1.6-0.9-2.1l-0.1,0.1c0,0-0.5-0.8-0.8-2.2c-0.4-1.7-0.4-4.7-0.4-6.1v0c0,0,0-0.4-0.3-1.2c-0.2-0.3-0.3-0.7-0.4-1
				c0,0,0,0,0,0c-0.5-2.3-1.6-3-2.2-3.7c-0.7-0.9-1.2-1.8-1.5-2.5c0,0,0,0-0.1,0c-0.4,0.4-0.7,0.7-0.7,1c0.1,1.3,0.3,2.3,0.1,3
				c-0.1,0-0.2-0.2-0.3-0.2c0.1,0.9-0.3,1.9-0.1,2.7l-0.5-0.1c0,0.1,0,0.1,0.1,0.1c0.1,0.1,0.1,0.2,0.3,0.2c0,0,0.1,0.1,0.2,0.1
				c0.1,0,0.2,0.1,0.5,0.2c0.3-0.7,0.1-1.3-0.2-1.7c-0.3-0.3,0.1-0.8,0.6-0.5c0.7,0.3,1.4,0.7,2.2,1.5c1.1,1,1.4,2.1,1.2,2.3
				c-0.2,0.2-0.3,0.1-0.5,0c0,0,0,0.1,0,0.1c-0.1,0.2-0.2,0.3-0.5,0.4l0,0c-0.1,0.2-0.3,0.2-0.6,0.2c-0.3,0-0.6-0.2-0.6-0.2
				c-0.1,0-0.1-0.1-0.2-0.2c-0.1,0.1-0.1,0.1-0.2,0.2c0.9,1.2,2.5,3.1,3.7,5.2c0.9,1.5,1.3,2.8,1.3,2.8s-0.5,0.2-1.1,0
				c0.2,0.6,0.3,1.1,0.3,1.6c-0.5,0-1.1,0-1.7-0.4c0,0.1,0,0.2,0.1,0.3c0.5,0.4,1.1,0.8,1.4,1c-2.6,1.2-6.4,0.7-6.5,0.7
				c-0.2,0-0.3-0.1-0.5-0.1c0,0.1-0.1,0.2-0.1,0.2c0.3,0.6,0.9,2,1,2.3c1.7,0.8,3.2,1.3,5.6,0.9c0,0,0.4,0,1.4-0.4
				c1-0.3,3-1.5,4.5-2.9c1.9-1.8,3-3.6,3.4-4.3c2.9-5.6,3.4-14,3.4-17.4C210,53.7,210,53.1,210,53z"/>
		</g>
		<g>
			<g>
				<path class="st1" d="M18.7,58.6h2.9c1.2,0,2,0.4,2.5,1.4c0.4,0.8,0.4,2.7,0.4,3c0,2-0.2,3.2-0.6,3.8c-0.5,0.8-1.5,1.2-3.1,1.2
					h-2.2L18.7,58.6L18.7,58.6z M19.9,66.9h1.1c1.7,0,2.3-0.6,2.3-2.8v-1.9c0-1.9-0.6-2.6-1.8-2.6h-1.6L19.9,66.9L19.9,66.9z"/>
				<path class="st1" d="M26.6,68v-9.4h4.8v1h-3.6v3h3.4v1h-3.4v3.2h3.7v1H26.6z"/>
				<path class="st1" d="M33.3,68v-9.4h2.8c1.3,0,2.6,0.5,2.6,2.7c0,2.1-1.7,2.6-2.6,2.6h-1.6V68L33.3,68L33.3,68z M34.5,62.8h1.3
					c0.5,0,1.7-0.1,1.7-1.6c0-1.4-1.1-1.6-1.3-1.6h-1.6V62.8z"/>
				<path class="st1" d="M41.8,58.6h1.5l3,9.4h-1.3l-0.7-2.2h-3.6L40.1,68h-1.2L41.8,58.6z M42.6,59.7L42.6,59.7l-1.5,5h3L42.6,59.7
					z"/>
				<path class="st1" d="M48.8,63.7V68h-1.2v-9.4h3.2c1.7,0,2.3,1.2,2.3,2.3c0,1.1-0.6,2-1.7,2.1v0c1.1,0.2,1.5,0.5,1.5,2.4
					c0,0.4,0.1,1.9,0.3,2.5H52c-0.3-0.7-0.3-1.9-0.4-3.1c-0.1-1.1-1-1.2-1.4-1.2C50.2,63.7,48.8,63.7,48.8,63.7z M48.8,62.6h1.8
					c0.9,0,1.3-0.7,1.3-1.6c0-0.7-0.3-1.4-1.3-1.4h-1.8L48.8,62.6L48.8,62.6z"/>
				<path class="st1" d="M60.2,58.6v1h-2.5V68h-1.2v-8.3H54v-1H60.2z"/>
				<path class="st1" d="M62.5,68h-1.1v-9.4h1.9l2.4,7.9h0l2.4-7.9h2V68h-1.2v-8.3h0L66.3,68h-1.1l-2.6-8.3h0L62.5,68L62.5,68z"/>
				<path class="st1" d="M72.2,68v-9.4h4.8v1h-3.6v3h3.4v1h-3.4v3.2h3.7v1H72.2z"/>
				<path class="st1" d="M85.2,58.6V68h-1.6l-3.7-8.1h0V68h-1.1v-9.4h1.7l3.7,8h0v-8H85.2z"/>
				<path class="st1" d="M92.7,58.6v1h-2.5V68H89v-8.3h-2.5v-1H92.7z"/>
				<path class="st1" d="M96.8,64.6v-3.1c0-1.9,1-3.1,2.9-3.1s2.9,1.2,2.9,3.1v3.1c0,2.6-1,3.6-2.9,3.6
					C97.7,68.2,96.8,67.2,96.8,64.6z M101.4,64.6v-3.2c0-2-1.3-2-1.7-2s-1.7,0.1-1.7,2v3.2c0,2.1,0.6,2.6,1.7,2.6
					S101.4,66.7,101.4,64.6z"/>
				<path class="st1" d="M104.6,68v-9.4h4.7v1h-3.5v3h3.3v1h-3.3V68H104.6z"/>
				<path class="st1" d="M113.5,68v-9.4h1.2v4.1h3.3v-4.1h1.2V68h-1.2v-4.3h-3.3V68H113.5z"/>
				<path class="st1" d="M121.3,68v-9.4h4.8v1h-3.6v3h3.4v1h-3.4v3.2h3.7v1H121.3z"/>
				<path class="st1" d="M129.9,58.6h1.5l3.1,9.4h-1.3l-0.7-2.2h-3.6l-0.7,2.2H127L129.9,58.6z M130.7,59.7L130.7,59.7l-1.5,5h3
					L130.7,59.7z"/>
				<path class="st1" d="M135.8,68v-9.4h1.2v8.3h3.4v1H135.8z"/>
				<path class="st1" d="M146,58.6v1h-2.5V68h-1.2v-8.3h-2.5v-1H146z"/>
				<path class="st1" d="M147.3,68v-9.4h1.2v4.1h3.3v-4.1h1.2V68h-1.2v-4.3h-3.3V68H147.3z"/>
			</g>
			<g>
				<g>
					<path class="st1" d="M23.3,40c0.2,0,0.4-0.1,0.5-0.2s0.2-0.3,0.2-0.5s-0.1-0.4-0.2-0.5s-0.3-0.2-0.5-0.2
						c-0.2,0-0.4,0.1-0.5,0.2s-0.2,0.3-0.2,0.5s0.1,0.4,0.2,0.5S23.1,40,23.3,40z"/>
					<path class="st1" d="M20.8,40c0.2,0,0.4-0.1,0.5-0.2c0.1-0.2,0.2-0.3,0.2-0.5s-0.1-0.4-0.2-0.5c-0.1-0.2-0.3-0.2-0.5-0.2
						c-0.2,0-0.4,0.1-0.5,0.2s-0.2,0.3-0.2,0.5s0.1,0.4,0.2,0.5S20.6,40,20.8,40z"/>
					<path class="st1" d="M89.4,37.4v10.5h-1h-4l0,0h-4h-4c0,0,0,0,0,0l0,0h-1v-6.4l-0.6,0c-1.1,0-2,0.2-2.8,0.4s-1.5,0.5-2.2,0.9
						s-1.1,0.8-1.6,1.2s-0.8,0.9-1.1,1.3v-2.2h-1.1v4.7h-1.3h-4h-4h-4h-4h-0.4c-0.2,0-0.3,0-0.4-0.1s-0.2-0.1-0.3-0.2
						c-0.1,0-0.1-0.1-0.2-0.2c-0.1-0.1-0.1-0.3-0.2-0.5s-0.1-0.5-0.2-0.8c0-0.3-0.1-0.8-0.1-1.3c-0.2-2.3-1.2-3.4-3.2-3.4
						c-0.5,0-0.9,0.1-1.3,0.2c-0.4,0.2-0.7,0.3-1,0.5l0.7,0.9c0.5-0.3,1.1-0.5,1.6-0.5c0.2,0,0.4,0,0.7,0.1s0.4,0.1,0.6,0.3
						c0.2,0.2,0.3,0.4,0.5,0.7c0.1,0.3,0.2,0.7,0.3,1.3c0,0.8,0.1,1.4,0.2,1.8s0.2,0.9,0.3,1.2h-5.8l0,0h-4H33h-4h-4h-0.7
						c-0.2,0-0.3-0.1-0.3-0.3v-6.5c-0.4,0.1-0.9,0.3-1.5,0.5c-0.6,0.2-1.2,0.6-1.8,1s-1.1,0.9-1.5,1.5c-0.4,0.6-0.6,1.3-0.6,2.1
						c0,0.3,0,0.6,0.1,1c0.1,0.3,0.3,0.6,0.5,0.9c0.3,0.3,0.6,0.5,1.1,0.7c0.5,0.2,1.1,0.3,1.8,0.4l0.1-1.1
						c-0.9-0.1-1.5-0.2-1.9-0.5c-0.4-0.3-0.6-0.7-0.6-1.3c0-0.5,0.1-0.9,0.3-1.3c0.2-0.4,0.5-0.7,0.8-1c0.3-0.3,0.6-0.5,1-0.7
						c0.4-0.2,0.7-0.4,0.9-0.5l0,4.8c0,0.5,0.1,0.8,0.3,1.1c0.2,0.3,0.5,0.4,0.9,0.4h0.9h4h4h4h4l0,0H49h4h4h4h4h11.7l0,0
						c0,0,0,0,0,0h4h4l0,0h4h2.1V37.4H89.4z M74.4,47.9h-7c0.1-0.3,0.3-0.7,0.5-1.3c0.2-0.5,0.6-1.1,1.2-1.6c0.5-0.5,1.2-1,2.1-1.4
						s1.9-0.7,3.3-0.8C74.4,42.7,74.4,47.9,74.4,47.9z"/>
				</g>
				<path class="st1" d="M92.3,37.5h1.1V49h-1.1V37.5z"/>
				<path class="st1" d="M103.9,49h-1.2c-0.4,0-0.8,0-1.3-0.2s-0.9-0.3-1.3-0.5c-0.4-0.2-0.8-0.5-1.1-0.9c-0.3-0.4-0.4-0.9-0.4-1.4
					c0-0.5,0.1-1,0.3-1.4s0.5-0.8,0.8-1.2c0.3-0.3,0.7-0.7,1.1-0.9c0.4-0.3,0.8-0.5,1.2-0.7c0.4-0.2,0.8-0.3,1.1-0.4
					c0.3-0.1,0.6-0.2,0.8-0.2V49z M102.7,47.8v-5.1c-0.3,0.1-0.6,0.3-0.9,0.5s-0.7,0.4-1,0.7s-0.6,0.6-0.8,0.9s-0.3,0.8-0.3,1.2
					c0,0.3,0.1,0.6,0.3,0.9c0.2,0.2,0.4,0.4,0.7,0.6c0.3,0.2,0.6,0.3,0.9,0.3s0.7,0.1,0.9,0.1H102.7z M101.5,39.2
					c0,0.2-0.1,0.4-0.2,0.5c-0.2,0.2-0.3,0.2-0.5,0.2s-0.4-0.1-0.5-0.2s-0.2-0.3-0.2-0.5s0.1-0.4,0.2-0.5s0.3-0.2,0.5-0.2
					s0.4,0.1,0.5,0.2C101.5,38.8,101.5,39,101.5,39.2z M104,39.2c0,0.2-0.1,0.4-0.2,0.5s-0.3,0.2-0.5,0.2s-0.4-0.1-0.5-0.2
					s-0.2-0.3-0.2-0.5s0.1-0.4,0.2-0.5s0.3-0.2,0.5-0.2s0.4,0.1,0.5,0.2S104,39,104,39.2z"/>
				<g>
					<path class="st1" d="M141.3,40.4c-0.2-0.1-0.3-0.3-0.3-0.6c0-0.2,0.1-0.3,0.2-0.4s0.3-0.1,0.5-0.1c0.3,0,0.6,0.1,0.9,0.2
						l0.2-0.6c-0.4-0.2-0.8-0.3-1.2-0.3c-0.3,0-0.6,0.1-0.8,0.3s-0.4,0.5-0.4,0.8c0,0.2,0,0.3,0.1,0.5s0.1,0.3,0.2,0.3h-0.9v0.6h2.9
						v-0.6h-0.6C141.8,40.6,141.5,40.5,141.3,40.4z"/>
					<path class="st1" d="M141.1,47.9h-2.2h-4h-4l0,0h-3.3h-4h-4h-4h-4h-4l0,0h-1v-5.6h-1.1v7.3c0,0.4,0,0.8,0,1.1
						c0,0.4-0.1,0.7-0.2,1s-0.3,0.5-0.6,0.7c-0.3,0.2-0.6,0.3-1,0.3v1.1c0.7,0,1.2-0.1,1.6-0.4c0.4-0.3,0.7-0.6,0.9-1
						c0.2-0.4,0.3-0.9,0.4-1.4c0.1-0.5,0.1-1,0.1-1.5V49h1l0,0h4h4h4h4h4h3.2l0,0h4h4h3.3v-6.8h-1.1L141.1,47.9L141.1,47.9z"/>
				</g>
				<path class="st1" d="M144.1,37.5h1.1V49h-1.1V37.5z"/>
				<path class="st1" d="M146.7,42.5c0.3-0.3,0.7-0.5,1.1-0.7s1-0.3,1.6-0.3c0.6,0,1.1,0.1,1.5,0.4c0.4,0.2,0.8,0.6,1.1,1
					c0.3,0.4,0.5,0.8,0.6,1.3c0.1,0.5,0.2,1,0.2,1.5c0,0.4,0,0.8-0.1,1.1c-0.1,0.4-0.1,0.7-0.2,1c-0.1,0.3-0.2,0.5-0.3,0.8
					c-0.1,0.2-0.2,0.4-0.2,0.5h-5.4v-1.1h4.7c0.1-0.2,0.2-0.5,0.3-0.9c0.1-0.4,0.1-0.8,0.1-1.3c0-0.4-0.1-0.8-0.2-1.2
					c-0.1-0.4-0.3-0.7-0.5-1s-0.4-0.5-0.8-0.7s-0.6-0.3-1-0.3c-0.3,0-0.6,0-0.9,0.2c-0.3,0.1-0.7,0.3-1.1,0.6L146.7,42.5z"/>
			</g>
		</g>
	</g>
</g>
</svg>
