<?xml version="1.0" encoding="utf-8"?>
<!-- Generator: Adobe Illustrator 24.1.2, SVG Export Plug-In . SVG Version: 6.00 Build 0)  -->
<svg version="1.1" id="Layer_1" xmlns="http://www.w3.org/2000/svg" xmlns:xlink="http://www.w3.org/1999/xlink" x="0px" y="0px"
	 viewBox="0 0 195.1 195.1" style="enable-background:new 0 0 195.1 195.1;" xml:space="preserve">
<style type="text/css">
	.st0{fill:url(#SVGID_1_);}
	.st1{fill:url(#SVGID_2_);}
	.st2{fill:url(#SVGID_3_);}
</style>
<g>
	<linearGradient id="SVGID_1_" gradientUnits="userSpaceOnUse" x1="121.9313" y1="46.8455" x2="65.8643" y2="143.9565">
		<stop  offset="0" style="stop-color:#DD2576"/>
		<stop  offset="1" style="stop-color:#9D227E"/>
	</linearGradient>
	<polygon class="st0" points="139.6,121.8 97.5,146.1 55.5,121.8 55.5,73.3 55.5,73.3 41.5,65.2 41.5,129.9 97.5,162.2 153.6,129.9 
		153.6,65.2 69.2,16.4 55.3,24.4 139.6,73.3 	"/>
	<linearGradient id="SVGID_2_" gradientUnits="userSpaceOnUse" x1="86.4811" y1="59.1144" x2="58.8074" y2="107.0468">
		<stop  offset="0" style="stop-color:#DD2576"/>
		<stop  offset="1" style="stop-color:#9D227E"/>
	</linearGradient>
	<polygon class="st1" points="41,48.8 111.2,89.7 111.2,105.4 97.5,113.3 83.9,105.4 83.9,89.7 69.9,81.6 69.9,113.5 97.5,129.4 
		125.1,113.5 125.1,81.6 83.1,57.3 83.1,57.3 69.2,49.2 69.2,49.2 54.8,40.8 54.8,40.8 40.8,32.7 27.1,40.7 41,48.8 	"/>
	<linearGradient id="SVGID_3_" gradientUnits="userSpaceOnUse" x1="139.776" y1="24.3847" x2="55.3038" y2="170.6949">
		<stop  offset="0" style="stop-color:#DD2576"/>
		<stop  offset="1" style="stop-color:#9D227E"/>
	</linearGradient>
	<polygon class="st2" points="97.5,0 83.5,8.1 97.5,16.2 97.5,16.1 168,56.8 168,138.2 97.5,178.9 27,138.2 27,56.8 27,56.8 
		13.1,48.8 13.1,146.3 97.5,195.1 182,146.3 182,48.8 	"/>
</g>
</svg>
