<?xml version="1.0" encoding="utf-8"?>
<!-- Generator: Adobe Illustrator 24.2.0, SVG Export Plug-In . SVG Version: 6.00 Build 0)  -->
<svg version="1.1" id="Layer_1" xmlns="http://www.w3.org/2000/svg" xmlns:xlink="http://www.w3.org/1999/xlink" x="0px" y="0px"
	 viewBox="0 0 195.1 195.1" style="enable-background:new 0 0 195.1 195.1;" xml:space="preserve">
<style type="text/css">
	.st0{fill:#FFFFFF;}
	.st1{fill:#EA0029;}
</style>
<g>
	<path class="st0" d="M154.6,103.4c0.2-30.2-6.4-47.2-12-55.5c1.9-2.6,3.3-4.2,3.3-4.2c0.7-0.7,1.7-1.4,3.5-1.9
		c0.5-4,2.1-8.7,2.1-8.7s-4,2.8-7.8,4.5c0.2,2.1-0.2,3.3-0.7,4c0,0-0.9,1.4-2.6,3.3c-2.6-2.8-5.4-5.7-9.7-8
		c-0.9-0.7-2.1-1.2-3.3-1.7c0-1.7-0.5-3.1-1.7-4.2c0-0.9-0.9-2.1-1.9-2.4l0,0c-0.9-0.2-2.4,0.2-3.3,0.9c-1.7,0.2-3.1,1.2-4.2,2.4
		c-3.5-0.7-7.6-1.2-12-1.7c-0.5-2.4-1.9-3.8-3.8-4.7c-0.5-0.9-1.9-1.9-3.1-2.1l0,0l0,0l0,0l0,0c-1.2,0-2.6,0.9-3.1,2.1
		c-1.9,0.9-3.3,2.6-3.8,4.7c-4.5,0.2-8.5,0.9-12,1.7c-1.2-1.2-2.6-2.1-4.2-2.4c-0.7-0.7-2.1-1.2-3.3-0.9l0,0
		c-0.9,0.2-1.7,1.4-1.9,2.4c-1.2,1.2-1.7,2.6-1.7,4.2c-1.2,0.5-2.4,1.2-3.3,1.7c-4.2,2.4-7.1,4.7-9.7,8c-1.4-1.9-2.1-3.1-2.4-3.1
		c-0.5-0.7-0.9-1.9-0.7-4c-3.8-1.7-7.8-4.5-7.8-4.5S45,38,45.8,42c2.1,0.2,3.1,1.2,3.5,1.9c0,0,1.2,1.4,2.8,3.8
		c-5.7,8.3-12.5,25.3-12.3,55.7c0,2.8-1.2,29,7.3,47c0.9,1.9,3.5,6.6,8.3,11.1c3.8,3.8,8.5,6.4,13.7,7.6c0.2,0,0.5,0.2,0.7,0.2
		c6.4,1.7,12,0.7,14.2-0.5l-0.2,0.7c0,0.2-0.2,0.5-0.2,0.7c-1.2,3.3-0.5,6.6,4,7.1c1.2,0.2,2.6,0.2,4,0.9c0.9,0.5,2.4,1.4,3.5,2.6
		c0.5,0.5,1.7,2.1,2.4,3.1l0,0l0,0l0,0c0.5-1.2,1.7-2.6,2.4-3.1c1.4-1.4,2.6-2.1,3.5-2.6c1.4-0.7,2.8-0.7,4-0.9
		c4.5-0.5,5.2-3.8,4-7.1c0-0.2-0.2-0.5-0.2-0.7c0-0.2-0.2-0.7-0.2-0.7c3.1,1.9,12.5,3.1,21.5-2.6c6.1-4,10.6-8.3,14.4-15.6
		C155.7,132.7,154.6,105.7,154.6,103.4z M114.7,78.8c-0.2,0.2-0.2,0.2-0.7,0.7c-0.5,0.2-0.9,0.5-1.4,0.5c-0.7,0-1.2-0.2-1.4-0.7
		c-0.9-1.4-1.7-2.8-2.8-5.4c-0.9-2.4-0.7-1.9-2.1-5.2c-0.7-1.7-1.9-4.2-2.6-5c-0.9-1.4-2.8-2.8-3.5-3.1c-0.9-0.2-1.9-0.7-3.3-0.7
		c-2.1,0-4.5,0.2-5.2,0.5c-0.7,0.2-2.1,0.7-2.6,1.4c0,0-0.5,0.5-0.7,0.7C87.3,63,87.1,63,85.9,64c-1.9,1.4-1.7,3.8-0.7,4.7l0,0
		c0-0.7,0-1.2,0.2-1.2s1.2,0.7,2.6,0.5c1.2-0.2,1.9,1.7,1.9,1.7l0.2-0.5c0,0,0.2,1.2,0.7,1.2l0.2-0.2c0.2,0.5,0.9,0.7,0.9,1.4
		c0,0.7-0.2,1.2-0.9,1.9c-0.2,0.2-2.1,1.7-3.8,3.5c-0.9,0.9-1.4,1.7-2.4,2.6c-0.5,0.5-0.9,0.9-1.4,0.9h-0.2c-0.5,0-0.9-0.2-1.2-0.5
		c-0.2-0.2-9.7-12.7-14.2-18.6c8.3-8,21.7-9.4,25.3-9c0.7,0,1.7,0.7,0.7,1.9c0.7,0.2,3.5,0,4.5-0.9c0.9,0.9,3.8,1.2,4.5,0.9
		c-0.9-1.2,0-1.9,0.7-1.9c3.3-0.2,16.3,0.2,25.3,9.2C123.6,67,117.7,74.4,114.7,78.8z"/>
	<g>
		<path class="st1" d="M152.7,95.1c-2.6,2.1-5,4-12.7,8.7l-2.1,1.2v-1.4c0-0.2,0.5-20.1-9.2-37.3c-0.7,0.7-2.6,3.5-4.7,6.1
			c1.2-0.2,2.6,0.2,3.5,1.2c2.1,1.9,5.2,6.6,7.1,11.6c0.9,3.1,1.9,7.3,1.7,10.9l0,0c0,0-1.2,20.3-3.5,39.9
			c-2.1,17.7-3.3,20.1-3.3,20.1c-1.4-1.7-1.9-3.8-2.1-5l-0.2,0.2c0,0-1.2-1.9-1.9-5.2c-0.9-4-0.9-11.1-0.9-14.4l0,0
			c0,0,0-0.9-0.7-2.8c-0.5-0.7-0.7-1.7-0.9-2.4l0,0c-1.2-5.4-3.8-7.1-5.2-8.7c-1.7-2.1-2.8-4.2-3.5-5.9c0,0,0,0-0.2,0
			c-0.9,0.9-1.7,1.7-1.7,2.4c0.2,3.1,0.7,5.4,0.2,7.1c-0.2,0-0.5-0.5-0.7-0.5c0.2,2.1-0.7,4.5-0.2,6.4L110,127c0,0.2,0,0.2,0.2,0.2
			c0.2,0.2,0.2,0.5,0.7,0.5c0,0,0.2,0.2,0.5,0.2c0.2,0,0.5,0.2,1.2,0.5c0.7-1.7,0.2-3.1-0.5-4c-0.7-0.7,0.2-1.9,1.4-1.2
			c1.7,0.7,3.3,1.7,5.2,3.5c2.6,2.4,3.3,5,2.8,5.4c-0.5,0.5-0.7,0.2-1.2,0v0.2c-0.2,0.5-0.5,0.7-1.2,0.9l0,0
			c-0.2,0.5-0.7,0.5-1.4,0.5c-0.7,0-1.4-0.5-1.4-0.5c-0.2,0-0.2-0.2-0.5-0.5c-0.2,0.2-0.2,0.2-0.5,0.5c2.1,2.8,5.9,7.3,8.7,12.3
			c2.1,3.5,3.1,6.6,3.1,6.6s-1.2,0.5-2.6,0c0.5,1.4,0.7,2.6,0.7,3.8c-1.2,0-2.6,0-4-0.9c0,0.2,0,0.5,0.2,0.7
			c1.2,0.9,2.6,1.9,3.3,2.4c-6.1,2.8-15.1,1.7-15.3,1.7c-0.5,0-0.7-0.2-1.2-0.2c0,0.2-0.2,0.5-0.2,0.5c0.7,1.4,2.1,4.7,2.4,5.4
			c4,1.9,7.6,3.1,13.2,2.1c0,0,0.9,0,3.3-0.9c2.4-0.7,7.1-3.5,10.6-6.8c4.5-4.2,7.1-8.5,8-10.1c6.8-13.2,8-33,8-41.1
			c0-2.6,0-4,0-4.2C152.9,101.5,152.9,97,152.7,95.1z"/>
		<path class="st1" d="M86.1,165c0.2-0.7,1.4-3.8,2.1-5.2c0-0.2-0.2-0.5-0.2-0.7c-0.9,0.2-1.7,0.2-2.6,0.5c-0.5,0-9,1.4-15.1-1.7
			c0.7-0.5,2.1-1.7,4-2.8c0-0.2,0-0.2,0-0.5c-1.4,0.7-2.8,0.9-4,0.9c0-0.9,0.2-2.1,0.7-3.8c-1.4,0.2-2.6,0-2.6,0s0.9-3.1,3.1-6.6
			c1.9-3.3,4.5-6.6,6.8-9.4c0.2-1.2,1.2-2.1,1.2-2.1s0.2-0.5,0.5-0.5c-0.2-0.2-0.5-0.5-0.7-0.7c-0.2,0.2-0.5,0.5-0.7,0.5
			c-0.7,0.2-1.2,0.5-1.4,0.5c-0.7,0-1.2-0.2-1.4-0.5l0,0c-0.7-0.2-0.9-0.5-1.2-0.9v-0.2c-0.5,0.2-0.7,0.2-1.2-0.2
			c-0.5-0.5,0.2-2.8,2.8-5.4c1.9-1.7,3.5-2.8,5.2-3.5c1.2-0.5,1.9,0.5,1.4,1.2c-0.7,0.9-1.2,2.4-0.5,4c0.7-0.2,0.9-0.5,1.2-0.5
			s0.7-0.2,0.9-0.7c0,0,0-0.2,0.2-0.2h-1.2c0.5-1.4-0.2-4.7,0.2-6.8c-0.2,0-0.5,0.5-0.7,0.5c-0.5-1.9-0.2-5.2-0.2-6.6
			c0-0.5-0.7-1.2-1.4-1.9c-0.7,1.7-1.7,3.5-3.5,5.7c-1.4,1.7-3.8,3.3-5.2,8.7l0,0c-0.2,0.9-0.5,1.7-0.9,2.4
			c-0.9,1.7-0.7,2.8-0.7,2.8l0,0c0,3.3,0,10.6-0.9,14.4c-0.7,3.5-1.9,5.2-1.9,5.2l-0.2-0.2c-0.2,1.2-0.9,3.3-2.1,5
			c0,0-1.2-2.4-3.3-20.1C60.2,115.7,59,95.4,59,95.4l0,0c-0.2-3.5,0.7-7.8,1.7-10.9c1.9-5,5.2-9.7,7.1-11.6c1.2-1.2,2.6-1.4,4-1.2
			c-0.5-0.5-0.7-1.2-0.7-1.2c-1.4-1.9-2.8-3.8-4.2-5.4c-9.4,16.8-9.2,36.8-9.2,36.8v2.1l-1.7-0.9c-7.6-4.2-10.9-6.8-13.2-8.7
			c0,2.1-0.2,9-0.2,9s0,1.7,0,4.2c0,8,1.4,27.6,8,41.1c0.9,1.7,3.3,6.1,7.8,10.4c3.3,3.1,7.3,5.4,11.6,6.8c0.2,0,0.7,0.2,0.9,0.2
			C75.3,168.3,80.7,167.8,86.1,165L86.1,165z"/>
		<path class="st1" d="M90.4,170.2c0.2-2.4,0.5-5.9,0.9-9c-0.7,0.7-1.4,1.2-1.4,1.2c-0.2,0-0.2-0.2-0.5-0.2
			c-1.4,3.5-3.5,8.7-3.5,8.7C86.8,169.9,88.2,169.5,90.4,170.2z"/>
		<path class="st1" d="M104.8,172.5c0.2-2.6-0.9-9.2-1.4-13l-0.2-0.2c-0.2-0.2-0.2-0.2-0.2-0.5c-0.2,0.7-0.5,1.7-0.9,2.4
			c-0.5,0.9-1.2,1.9-1.2,1.9c-0.2,0-1.9-1.2-3.1-3.8c-1.2,2.4-2.8,3.8-3.1,3.8s-0.7-0.9-1.2-1.9c-0.2-0.5-0.2-0.9-0.5-1.2
			c-0.7,4-1.4,10.4-1.4,12.7c-3.8-2.4-5.9,0-5.2,1.7c0,0.2,0.2,0.2,0.2,0.5c0.5,0.7,0.9,0.9,1.9,0.9c1.2,0,2.8,0.2,4.5,0.9
			c1.7,0.7,3.3,2.1,5.2,4.2c1.9-2.1,3.5-3.5,5.2-4.2c1.9-0.7,3.3-0.9,4.5-0.9c0.7,0,1.4-0.5,1.9-0.9c0-0.2,0.2-0.2,0.2-0.5
			C110.7,172.5,108.3,170.2,104.8,172.5z"/>
		<path class="st1" d="M105.9,162.4c0,0-0.5-0.2-1.2-0.9c0.5,2.8,0.9,6.1,1.2,8.7c1.9-0.7,3.5-0.2,4.5,0.7c0,0-2.4-5.7-3.5-9.2
			C106.4,161.9,106.2,162.4,105.9,162.4z"/>
	</g>
	<g>
		<path d="M92,88.5L92,88.5L92,88.5"/>
	</g>
	<g>
		<polyline points="89.9,89.5 89.9,89.5 89.9,89.5 		"/>
	</g>
	<path d="M123.4,99.1c-0.2,1.4-0.7,1.9-1.9,2.8c-0.7-1.9-0.9-3.5,1.9-9.2c-1.9,5.7-1.2,7.6-1.2,7.6S122.9,99.8,123.4,99.1z
		 M120.3,95.4c0,0-0.7-1.2,0.9-6.1c-3.1,4.7-1.7,8-1.7,8s1.7-0.7,2.1-2.6C121.3,95.1,120.3,95.4,120.3,95.4z M131.4,86.9
		c-0.5,5-0.9,5.9-1.4,6.8c-0.5-0.2-0.7-1.4-0.7-1.4c-0.2,0.9,0,2.4,0.9,3.1C131,94.2,131.7,91.4,131.4,86.9z M130.5,83.6
		c-0.7,5.4-1.7,6.8-2.4,7.8c-0.5-0.2-0.9-1.7-0.9-1.7c-0.2,0.9,0,2.6,0.7,3.3C129.3,91.6,130.7,88.5,130.5,83.6z M126.2,89
		c-0.5-1.4-0.5-3.1-0.5-3.1c-0.7,2.1-0.5,4,0.2,5c1.2-1.4,3.1-5.4,2.8-9.2C128.1,86.2,127,88,126.2,89z M124.4,85.7
		c-0.5-1.7-0.2-4-0.2-4c-0.9,2.1-0.9,5-0.2,5.9c1.4-1.2,3.3-4.7,3.5-8.7C126.2,83.6,125.1,85,124.4,85.7z M131,95.1
		c0,1.2,0.9,1.9,0.9,1.9s1.7-2.4,0.9-6.4c-0.2,3.8-1.2,5-1.2,5S131.2,95.4,131,95.1z M132.9,96.8c0,0.9,0.9,1.7,0.9,1.7
		s1.4-2.1,0.7-5.7c-0.2,3.3-0.9,4.5-0.9,4.5S133.1,97,132.9,96.8z M65.3,93.9c-0.5-0.9-0.9-1.9-1.4-6.8c-0.2,4.5,0.5,7.3,1.4,8.5
		c0.7-0.7,0.9-2.1,0.9-3.1C66.1,92.5,65.6,93.5,65.3,93.9z M67,91.6c-0.7-0.9-1.4-2.1-2.4-7.8c-0.2,5,1.2,8,2.4,9.4
		c0.9-0.9,0.9-2.4,0.7-3.3C67.9,89.7,67.5,91.1,67,91.6z M68.9,89.2c-0.7-0.9-1.9-2.8-2.8-7.6c-0.2,3.8,1.7,8,2.8,9.2
		c0.7-0.9,0.9-2.6,0.2-5C69.4,86.2,69.4,87.6,68.9,89.2z M71,85.9c-0.7-0.9-1.9-2.1-3.1-6.6c0.2,3.8,2.1,7.3,3.5,8.7
		c0.7-0.9,0.7-3.8-0.2-5.9C71.2,82.1,71.2,84.5,71,85.9z M63.5,95.8c0,0-0.9-1.2-1.2-5c-0.7,4,0.9,6.4,0.9,6.4s0.9-0.7,0.9-1.9
		C64.2,95.6,63.5,95.8,63.5,95.8z M61.8,97.5c0,0-0.7-1.2-0.9-4.5c-0.7,3.5,0.7,5.7,0.7,5.7s0.9-0.7,0.9-1.7
		C62.3,97.3,61.8,97.5,61.8,97.5z M73.1,100.3c0,0-0.7-0.2-1.2-0.9c0.2,1.4,0.7,1.9,1.9,2.8c0.7-1.9,0.9-3.5-1.9-9.2
		C73.8,98.4,73.1,100.3,73.1,100.3z M75,95.4c0,0-0.9-0.2-1.4-0.7c0.5,1.9,2.1,2.6,2.1,2.6s1.4-3.3-1.7-8C75.5,94.2,75,95.4,75,95.4
		z M89,119.4c0.2-2.6-1.2-4.7-1.4-5.9c-0.2,0.2-0.2,1.2-0.2,1.2c-0.9-0.9-1.2-2.6-1.4-3.3c-0.2,1.7-0.9,2.6-0.9,3.5
		c0.5,0,0.7-0.2,1.2-0.5C86.4,116.6,88.2,117.1,89,119.4z M107.4,114.7c0,0,0-0.9-0.2-1.2c-0.2,0.9-1.7,3.3-1.4,5.9
		c0.7-2.4,2.4-2.8,2.8-5c0.5,0.2,0.7,0.5,1.2,0.5c-0.2-0.9-0.9-1.7-0.9-3.5C108.5,112.1,108.3,113.8,107.4,114.7z M93.7,112.4
		c-0.2-0.9-0.7-3.8-1.9-5C91.3,109.3,92.7,111.4,93.7,112.4z M100.8,115.2c0.5-1.2,1.4-2.4,1.4-6.1C101,110,100.5,113.5,100.8,115.2
		z M98.4,116.6c0.7-1.7,0.5-3.5,0-4.2C97.9,114,97.7,115.4,98.4,116.6z M96.7,111.9c0.5-1.7,0.5-3.8-0.2-4.7
		C96,109.1,96,110.7,96.7,111.9z M109,96.3c-0.9,1.4-1.4,4.7-1.7,5.7C107.6,101.7,109.5,97.3,109,96.3z M109,91.1
		c0,0,1.7-3.1,0.7-4.7C108.5,86.6,109,91.1,109,91.1z M104.1,98.7c0,0,2.8-2.6,2.6-5.9c-0.7,2.1-2.6,3.1-2.6,3.1s-0.9-0.7-1.4-2.1
		C102.2,97,104.1,98.7,104.1,98.7z M109.5,94.9c0.7-1.2,1.7-2.8,0.9-4C110,92.1,109.7,93.2,109.5,94.9z M100.8,107.9
		c0.5-1.2,1.7-3.1,1.4-5.4C101.2,103.2,100.8,106.5,100.8,107.9z M104.8,104.3c1.7-1.9,2.6-4.2,1.9-6.6
		C105,99.8,105,102.2,104.8,104.3z M101.2,97.3c-0.5,1.7-1.2,2.6-2.4,3.8c-0.5-0.5-0.9-0.9-1.7-2.4c-0.2,2.6,1.2,4.2,2.1,4.7
		C99.8,103.2,101.7,100.6,101.2,97.3z M94.1,104.1c-0.2,0-1.9-1.7-2.4-2.6c0.2,1.4,2.4,4.5,3.3,5c0.2-0.5,1.4-2.8,0.5-6.6
		C95.1,102.2,94.6,103.4,94.1,104.1z M84.5,85.9c-0.2-1.4,1.4-2.6,0.9-4.7C83.8,83.1,84.2,84.7,84.5,85.9z M87.8,101.5
		c0.9,1.7,1.7,2.4,2.4,3.1c-1.2-1.7-2.1-5-3.3-5.9C86.8,99.1,87.3,100.6,87.8,101.5z M87.1,94.4c-0.7,2.6,2.1,5.2,2.1,5.2
		C89.2,99.6,89.2,96.5,87.1,94.4z M89,89.5c0,1.2,0,2.1-0.2,3.5c-0.7-0.2-1.2-0.7-1.7-1.2c0.5,1.4,2.4,3.3,2.6,3.8
		C89.9,93.2,89.9,90.6,89,89.5z M87.8,82.4c0.7-2.6,2.1-4.2,2.8-5.7C87.8,78.6,87.3,81.4,87.8,82.4z M85.4,94.2
		c-0.2-2.4-0.2-3.8-1.4-5.9C83.8,90.9,85.2,93.9,85.4,94.2z M92.3,85.2c-1.9,2.4,0.9,5,0.9,5.2C93.2,90.4,93.4,86.2,92.3,85.2z
		 M93.4,79.3c-2.6,1.9-1.4,4-0.9,5C93.2,82.1,93.4,81.7,93.4,79.3z M95.1,97.3c0.5-0.9,1.7-2.8,1.2-6.1c-0.2,2.4-1.9,3.5-1.7,3.5
		c0,0-0.9-0.5-1.4-1.9C93,95.6,94.1,96.5,95.1,97.3z M108.8,79.5c-0.2,1.4,1.7,5,1.7,5.2C110.4,84.5,111.4,81.7,108.8,79.5z
		 M105,73.4c-0.2,1.2,1.9,3.3,1.9,3.3S107.1,74.4,105,73.4z M108.1,83.3c-0.7,2.8-1.9,4-1.9,4s-0.9-0.7-1.9-1.9
		c0,2.4,1.9,4.5,1.9,4.5C106.4,89.9,108.8,88,108.1,83.3z M102.4,78.1c-1.2,1.2,0,3.5,0.5,5.7C103.6,82.6,104.3,79.1,102.4,78.1z
		 M103.3,74.8c0-0.9-0.2-2.8-2.6-3.1C100.5,72.9,102.6,73.6,103.3,74.8z M100.8,70.6c0.5,0.5,2.1,0.9,3.3,1.9
		C103.8,70.8,102.4,69.9,100.8,70.6z M98.4,77c-1.7,1.9-0.7,3.3-0.7,3.3C97.9,80.3,99.8,78.1,98.4,77z M101,93.9
		c0,0,2.1-1.9,2.1-5.9c-1.2,1.9-2.4,3.1-2.4,3.1s-1.2-0.7-2.1-1.9C98.6,91.8,101,93.9,101,93.9z M97.9,83.1c-1.9,2.8,0,5.7,0,5.7
		S99.1,85,97.9,83.1z M98.4,63.5c0.5,0.5,2.1,1.2,3.1,1.9C101.2,64.2,100,63.5,98.4,63.5z M99.3,65.2c-0.9-1.2-2.1-1.4-2.8-1.7
		C97.2,64.4,97.9,65.2,99.3,65.2z M102.6,68c0-0.2-0.9-1.4-2.4-1.7c0.5,0.5,0.7,1.2,0.9,1.4C101,68,100,68,99.8,68
		C100.3,68.5,101.2,68.5,102.6,68z M88.2,64c-0.2,0-0.2,0.5,0.2,0.5C89,64.4,89,64,89,64S88.5,63.7,88.2,64z M102.2,36.6
		c-0.5-0.5-0.9-0.7-1.4-0.9c-0.5,0.2-0.9,0.7-1.4,0.9c0.5,0.2,0.7,0.7,1.4,0.9C101.2,37.3,101.5,37.1,102.2,36.6z M93.7,62.8
		c0,0,0.2,0.2,0,0.9c0,0.5-0.2,1.2-1.2,1.2c-0.9,0.2-1.9-0.2-1.9-1.2c0-0.2,0-0.5,0.2-0.7c-0.2,0-0.2,0.2-0.7,0.7
		c-0.2,0.2-0.5,0.2-0.9,0.5c0-0.5,0.7-1.4,1.2-1.7c0.9-0.5,4.2-0.7,6.6,0.7c-0.9-0.2-1.7,0-2.4-0.2C94.1,62.8,93.7,62.8,93.7,62.8z
		 M93.2,62.8h-0.9c0,0,0.5,0.5,0.7,0.5s0.2,0,0.2-0.2C93.2,63,93.2,62.8,93.2,62.8z M104.3,43.2c-6.6-0.2-19.4,0.2-25.7,2.1
		c0,0-0.7-1.7-1.2-2.4c-1.7-1.9-2.4,0.2-2.4,0.5c2.1,0,2.6,1.2,2.6,1.2c-0.5,0.9-0.9,1.2-2.1,2.1C75,47,73.8,47.9,72,47.9
		c-4,0.2-2.8-4-0.5-5.7c-0.2,0.5-1.7,2.6-0.9,3.5c0.9,1.2,4.7,0.2,5.7-0.9c-0.5-0.5-1.4-0.7-2.6-0.5c0-0.7,0.2-2.4,2.4-4
		c0.7,0.2,2.6,1.2,3.3,2.8c5.9-1.7,16.5-2.1,17-2.1c-0.2-0.9-0.5-4.7-0.5-5c0-0.7,0.2-0.9,0.7-1.2c0.5,0.7,0.9,1.2,1.9,1.4
		c-0.5,0.5-0.7,0.7-1.2,0.9c0,0.7,0.2,2.1,0.2,2.6c0.9-0.5,2.4-0.9,3.8-1.4c0.5-0.2,1.4-0.2,1.7-0.2c0.5,0,1.2,0.2,1.4,0.7
		c0.2,0.2,0.7,0.7,0.7,1.2C104.8,41.8,104.5,42.5,104.3,43.2z M102.9,40.8c-0.9-1.4-3.8-0.2-5.9,0.7c1.2,0,2.1,0,3.3,0
		c0.5,0,1.7,0,2.6,0C103.1,41.3,103.1,41.1,102.9,40.8z M75.5,47.9c-0.5,0-0.7-0.2-1.2-0.2c-0.2,0.5-0.7,0.9-0.9,1.4
		c0.5,0.2,0.9,0.2,1.7,0.5c0.2-0.5,0.5-0.7,0.7-0.9c0.5,0,0.7,0.2,1.2,0.2c0.2-0.5,0.5-0.7,0.9-1.4c-0.7-0.2-0.9-0.2-1.7-0.5
		C76,47.2,75.7,47.4,75.5,47.9z M124.1,43c1.4,0,2.6,0.2,3.1-0.5c-0.7-0.2-1.7-0.5-1.9-0.9c0.2-0.2,0.9,0,1.2,0.2
		c0.2-0.2,0.2-0.2,0.5-0.5c-0.9-0.7-2.1-0.2-2.4,0.5c0.2,0,0.7,0.2,0.7,0.5C124.8,42.5,124.4,42.7,124.1,43z M123.4,45.3
		c-0.5,1.2-0.9,2.4-1.7,3.5c0.2,0.2,0.9-0.2,1.2-0.5c1.7-0.9,2.8-3.8,3.3-5.4c0,0-0.9,0.2-1.4,0.5C123.9,44.1,123.9,44.4,123.4,45.3
		z M111.1,46c0.5,0.5,0.7,0.7,1.2,1.2c0.7-0.2,0.9-0.5,1.4-0.9c-0.5-0.5-0.7-0.7-1.2-1.2C112.1,45.3,111.6,45.8,111.1,46z M122,44.6
		c-0.2,0.9-0.9,1.4-1.4,1.9c-2.1-0.9-7.3-2.1-9.9-2.4c-0.7,0.7-1.9,1.9-3.1,2.1c-1.7-0.2-2.8-0.7-4-1.2c0.7,0,0.9,0,1.4,0
		c1.7,0,3.1-0.5,4.2-1.2c-2.4-0.2-2.8-0.9-1.9-2.6c0.5-0.7,1.4-1.9,2.6-1.7c0.9,0.2,1.2,1.7,1.2,2.6c2.8,0.2,6.4,1.2,9,2.1
		c0.2-0.7-0.2-1.2-0.7-1.7c0.5-0.5,0.9-0.9,1.4-1.2C122,42.3,122.2,43.9,122,44.6z M109,41.1c0,0-0.5,0.2-0.7,0.7
		c0.2,0.2,0.7,0.5,1.2,0.5h0.2C110.2,41.8,109.5,41.1,109,41.1z M79.3,46.7c0.5,0.2,0.9,0.5,1.4,0.7c0.5-0.5,0.7-0.7,1.2-1.2
		c-0.7-0.2-0.9-0.5-1.7-0.7C80,45.8,79.5,46.5,79.3,46.7z M147.3,150.4c-3.5,7.1-8,11.6-14.4,15.6c-9,5.7-18.4,4.2-21.5,2.6l0.2,0.7
		c0,0,0.2,0.5,0.2,0.7c1.2,3.3,0.5,6.6-4,7.1c-1.2,0.2-2.4,0.2-4,0.9c-0.9,0.5-2.4,1.4-3.5,2.6c-0.5,0.5-1.7,2.1-2.4,3.1l0,0l0,0
		l0,0c-0.5-1.2-1.7-2.6-2.4-3.1c-1.4-1.4-2.6-2.1-3.5-2.6c-1.4-0.7-2.8-0.7-4-0.9c-4.5-0.5-5.2-4-4-7.1c0-0.2,0.2-0.5,0.2-0.7
		l0.2-0.7c-2.1,1.4-7.8,2.4-14.2,0.5c-0.2,0-0.5-0.2-0.7-0.2c-5.2-1.4-9.7-4-13.7-7.6c-4.7-4.5-7.3-9.2-8.3-11.1
		c-8.5-17.7-7.3-44.1-7.3-47c-0.2-30.4,6.4-47.4,12.3-55.7c-1.7-2.4-2.8-3.8-2.8-3.8c-0.7-0.7-1.7-1.4-3.5-1.9
		c-0.5-3.8-1.9-8.5-1.9-8.5s4,2.8,7.8,4.5c-0.2,2.1,0.2,3.3,0.7,4c0,0,0.9,1.2,2.4,3.1c2.6-3.3,5.2-5.4,9.7-8
		c0.9-0.7,2.1-1.2,3.3-1.7c0-1.7,0.5-3.1,1.7-4.2c0-0.9,0.9-2.1,1.9-2.4l0,0c0.9-0.2,2.4,0.2,3.3,0.9c1.7,0.2,3.1,1.2,4.2,2.4
		c3.5-0.7,7.6-1.2,12-1.7c0.5-2.4,1.9-3.8,3.8-4.7c0.5-0.9,1.9-1.9,3.1-2.1l0,0l0,0l0,0c1.2,0,2.6,0.9,3.1,2.1
		c1.9,0.9,3.3,2.6,3.8,4.7c4.5,0.2,8.5,0.9,12,1.7c1.2-1.2,2.6-2.1,4.2-2.4c0.7-0.7,2.1-1.2,3.3-0.9l0,0c0.9,0.2,1.7,1.4,1.9,2.4
		c0.9,1.2,1.7,2.6,1.7,4.2c1.2,0.5,2.4,1.2,3.3,1.7c4.2,2.4,7.3,5.2,9.7,8c1.4-2.1,2.4-3.3,2.6-3.3c0.5-0.7,0.9-1.9,0.7-4
		c3.8-1.7,7.8-4.5,7.8-4.5s-1.4,4.7-2.1,8.7c-2.1,0.2-3.1,1.2-3.5,1.9c0,0-1.4,1.7-3.3,4.2c5.7,8.3,12.5,25.3,12,55.5
		C154.6,105.7,155.7,132.7,147.3,150.4z M144.4,54.8c-3.5,0.7-5.9,0.7-7.3,0.7c-0.9,1.9-1.7,3.8-1.7,7.1c-1.4-0.5-2.1-0.9-3.1-1.7
		c-0.9,1.4-1.7,2.1-2.6,3.5c9.7,17,9.4,32.8,9.7,37.3c7.3-4.2,12-8.3,13-9C151.7,77,149.1,65.2,144.4,54.8z M129.3,102.4
		c-0.2,1.9-0.2,3.3,0.2,5c0.9-1.2,1.4-2.1,2.1-4.2c0,1.7,0.5,3.3,0.7,4c1.2-1.7,1.9-8.3,1.9-8.3s0,0.2,0.7,0.5
		c0.7-2.4,0.2-7.3-0.2-9.7c-0.9-4-2.6-9-7.3-14.9c-2.6-3.1-4.7-1.7-6.8,0.7c-3.5,3.8-4.2,5.4-8.5,6.1l0,0c-0.5,0,0,0.2,0.7,0.2
		c5,0,6.6-3.3,8-5c0.9-1.2,2.4-2.1,3.3-1.4c0.5,0.2,1.9,1.9,0.2,5.7c0-0.9-0.2-1.7-0.5-1.9c-0.7,2.6-1.4,4.7-2.6,6.4
		c-0.2-0.5-0.2-0.7-0.2-1.4c-0.5,3.1-3.3,6.4-3.8,11.1c-0.2-0.5-0.5-0.7-0.5-1.9c-2.1,4-4.5,11.1-3.1,14.6c0-3.5,2.1-8.7,3.3-10.4
		c-1.4,4.7-3.3,10.4-1.7,13.9c0-3.1,1.9-7.8,3.1-9.9c-2.1,7.6-2.8,11.6-0.7,14.4c-0.5-2.8,0.7-7.1,2.4-10.6
		c-0.9,5.9-2.6,11.1,0.2,13.7c-0.5-4,1.2-9,1.9-10.9c-0.9,5.7-1.7,11.3,0.2,14.2c0-1.9,0.2-4,0.7-5.9c0.5-2.6,1.2-5,1.2-5
		s-0.7,4-0.9,9c0,0.7,0,1.7,0,2.4c0,0.9,0,1.9,0.2,3.1c0.2,0.9,0.5,1.7,0.9,2.4c0.5-6.6,1.2-12,2.1-14.6c0,0-0.7,6.1-1.2,15.3
		c0,0.2,0,0.7,0,0.9c-0.7,13.5,1.2,17.7,1.9,18.9c0,0-0.2-0.2-0.2-1.9c0-1.4,0-1.4,0.2-3.1c0-0.5-1.2-2.8-0.9-6.1
		c0-1.9,0.2-4,0.5-5.9c0.2-1.9,0.2-3.5,0.5-5.2c0.2-1.4,0.2-2.8,0.5-4.5c0.2-2.1,0.7-4.2,1.2-6.4c0.2-1.7,0.2-0.2,0.2,0.2
		c-0.2,1.9-0.5,6.1-0.9,10.4c-0.2,3.3-0.9,9.7-0.7,12.7c0.2,2.6,0.9,3.8,0.9,4.2c-0.2,5.2,0.5,7.3,1.2,9.2c0,0,0.5-1.9,0.9-4.2
		c0,0.2-0.2,0.5-0.5,0.5c-0.7-1.7-0.9-4.7-0.5-7.8c0-0.5-0.7-1.2-0.7-3.8c0-3.8,0.7-7.8,1.2-11.6c0.2-1.2,0.2-2.6,0.5-3.8
		c0.2-0.7,0.2-1.4,0.2-2.4c0.2-1.2,0.5-2.4,0.7-3.5c0-0.2,0-0.5,0.2-0.5c0,0,0,0.9-0.2,2.1c-0.5,5.2-1.7,18.2-1.7,19.4
		c0,2.6,0.7,3.3,0.7,3.8c-0.2,1.9,0,5.2,0.2,6.1c0.2-0.7,0.5-2.1,0.5-2.1s0.7-5.4,1.7-13c0.2-1.2,0.2-2.4,0.5-3.5
		c0.2-1.2,0.2-2.1,0.2-3.3c0.2-1.4,0.2-2.6,0.5-4c0-0.7,0-1.2,0.2-1.7c0.2-3.5,0.7-7.6,0.9-11.1c0,0,0.5-5.9,0.7-7.6
		c-0.2,0-0.2-0.2-0.2-0.2s-0.7,7.1-2.6,9.7c-0.5-0.5-1.2-3.1-1.2-4c-0.5,1.4-2.1,3.3-2.1,3.3s-0.7-1.4-0.5-3.8
		c-0.7,0.9-1.2,1.4-1.9,1.9c-0.2-0.7-0.7-1.7-0.7-4c-0.2,0.5-0.9,0.9-1.7,1.4c-0.2-0.5-1.4-2.6,0.7-9.9c-0.9,6.8-0.5,7.8-0.2,8.3
		c0.5-0.2,0.7-0.5,0.9-0.7c0-1.2,0.2-2.8,0.7-5c-0.2,5.4,0,7.1,0.5,8.3C127.7,105.7,128.4,104.8,129.3,102.4z M112.6,104.8
		c0.5-7.1,1.9-11.3,2.8-15.1C111.4,93.7,112.1,103.2,112.6,104.8z M113.3,89.2c1.2-3.5,0.2-5.4-0.5-5.7
		C112.6,85.2,113,85.9,113.3,89.2z M116.3,92.3c0.9-3.3,1.4-5.2,1.4-8C116.8,85.2,116.1,88.8,116.3,92.3z M119.4,85.2
		c0.2-1.2,0.2-2.8,0.2-4c-0.5,1.2-1.2,3.8-0.9,6.1C118.9,86.9,119.2,85.9,119.4,85.2z M110.9,111.9L110.9,111.9
		C110.9,111.9,110.9,111.6,110.9,111.9C110.9,111.6,111.1,111.6,110.9,111.9c0.2-0.2,0.5-0.2,0.7,0c0.2,0,0.2,0.2,0.5,0.2
		c-0.2-0.7-0.2-1.7-0.5-2.6c0-1.2,0-2.1-0.5-3.3c0,0,0,0,0-0.2c-0.2,0.5-0.5,0.9-0.9,1.4c-0.5,0.7-1.2,1.4-1.2,2.4v0.2l-0.2-0.2
		c0.2,0.2-0.7-0.9-0.7-0.9c-0.5,1.7-3.1,5-3.8,5.7l0,0c0,0-1.2,1.7-1.4,5.4c-0.5,3.5,0,5.7,0,5.7l0.9-0.9c0,0,0,0.9,0,2.1
		c0,0.9-0.5,1.7-0.5,1.7s1.9,0.2,3.3-1.4l0.2,0.7c0.2,0.7,0.5,1.4-0.2,1.9c0,0-0.9,0.9-0.9,1.7c0,0.2,0.2,0.5,0.5,0.7l0,0l0,0
		c0,0.5,0.2,0.7,0.5,0.7c0-0.5,0-0.7,0-0.7c0.2-0.5,0.5-0.7,0.9-0.7c0.2,0,0.5,0,0.5,0s0.2,2.1,0.5,3.1c0.2,0.7,0.5,1.9,0.5,2.8
		c0,0.2,0,0.5,0,0.7c0,0.7,0.5,0.7,0.9,0.9c0.2,0,0.7,0,0.9,0l0,0l0,0c-0.5,0.2-0.5,0.5-0.5,0.5c0,0.2,0.2,0.7,0,1.4l0,0
		c0.9-0.5,0.9-1.2,0.7-1.9l0,0l0,0c0.7-0.5,0.5-1.7-0.5-3.5c-0.5-0.9-0.7-2.4-0.2-2.6l0,0c0.2,0,0.2,0,0.7,0.7
		c0.2,0.5,0.7,0.7,0.9,1.4c0.5,0.5,0.7,0.9,0.7,1.2s0,0.2-0.2,0.2h-0.2c-0.2,0-0.5,0-0.7,0c0.2,0.2,0.9,1.2,1.2,0.7
		c0.7-0.7,0,0.5,1.2,0.5c0.7,0,1.2-0.5,1.2-1.2c0-0.2,0-0.5,0-0.7c-0.2-0.7-0.7-1.4-0.9-1.9l-0.2-0.2c-1.7-1.9-1.7-2.4-1.4-2.6
		c0.2-0.2,0.2-0.5,0.7-0.5c0.7,0,1.4,0,1.4,0c0.7,0.2,1.9,0.2,1.9,0.7c0,0,0,0.2-0.2,0.2c-0.2,0-0.7,0.2-0.7,0.2s0.2,0.2,0.7,0.5
		c0.2,0.2,1.4,0.5,1.9,0l0.2-0.2c0.2,0,0.7,0,0.9-0.5c0.2-0.5-0.5-0.9-0.9-1.2s-1.7-0.7-2.6-0.9c-0.5,0-0.9-0.2-1.2-0.2l-2.1-0.5
		c0,0-1.2-0.5-1.4-0.5s-0.2-0.2-0.5-0.2c-0.2-0.2-0.7-0.5-0.9-0.7c-0.2-0.2-0.5-1.2-0.7-2.1c0.2,0.2,0.9,0.5,1.7,0.7
		c0-0.2-0.2-1.4,0-1.9c0.2-3.5,0.5-5.4,0.5-5.4l0.7,0.7c0.2-0.7,0-2.1-0.2-3.5l0,0C111.4,115,111.1,113.3,110.9,111.9z M113.3,128.2
		l1.7,0.5c0.2,0,0.5,0.2,0.7,0.2c0.2-0.7,0.5-1.7,0.5-2.4c0-0.9,2.1,0.9,3.3,2.4c0.5,0.5,0.7,0.2,0.2,0c-1.4-1.9-4-3.5-4.7-4
		c-1.4-0.7-1.9-0.7-1.4,0C114,125.6,114,127,113.3,128.2z M115.9,141.6c1.4,1.9,4,5.4,5,6.4c2.1,2.1,2.8,2.4,4.5,2.4
		c-0.5-1.4-0.9-2.8-3.3-6.6c-1.2-1.9-3.3-5.2-5.4-7.6c0,0.5,0,0.7-0.2,0.9c0,0,0,0.2-0.2,0.2c-0.2,0.2-0.2,0.5-0.5,0.7
		c-0.2,0.2-0.7,0.2-1.2,0.2c-0.5,0-0.7-0.2-0.9-0.5c-0.2,0-0.5,0-0.7-0.2c0,0.7,0,1.2-0.5,1.7c0,0.5,0,1.4-0.7,2.1l0.2,0.2
		c0.5,0.9,0.2,1.4,0,1.7c-0.2,0.2-2.6,3.1-3.3,3.3c-0.7,0.7-1.4,0-1.4,0l-0.5-0.2c0,0-0.7,0.7-1.2,1.2c0,0,0,0,0.2,0.2l0,0
		c0.7,0.7,1.7,1.2,2.6,1.7c0.9,0.5,3.5,1.4,5.2,2.1c-0.5-1.2-0.9-2.8-1.4-4.2c0.5,0.7,1.7,2.8,2.8,4.7c0,0,0.2,0,0,0
		c1.4,0.7,3.3,1.7,4.7,2.4c-0.2-0.5-0.2-0.7-0.2-0.7s-1.2-1.4-2.1-2.6c-1.9-2.6-2.8-5.2-3.5-6.8c2.1,3.1,2.6,3.8,3.3,5
		c2.6,3.3,5.2,5,6.1,5c-0.2-1.9-0.9-2.4-0.9-2.4s-1.2-0.9-2.6-2.8c0.2,0.5,0.7,0.9,0,0c-0.5-0.7-0.2-0.5,0,0
		C118.5,147.1,117,144.7,115.9,141.6z M108.8,158.1c3.3,0.5,10.9,0.2,13.5-0.7c-0.9-0.7-5.2-3.5-11.6-6.1c-1.4-0.5-3.1-1.2-4.2-1.9
		c-0.7-0.5-1.2-0.9-1.9-1.7c-2.1-1.9-7.6-7.8-8.5-8.7l-3.8,3.3c0,0,9.7,9.4,12.3,10.9c3.1,1.7,12,3.8,12,3.8s-6.8-0.5-12-2.6
		c-3.1-1.2-13.2-11.1-13.2-11.1l-2.4,2.1c1.2,1.4,3.8,4.2,8.3,7.8C100.3,156,103.8,157.7,108.8,158.1z M98.4,156
		c0,1.9,1.4,3.8,1.9,4c0,0,0.5-0.7,0.9-2.6C99.8,157,98.9,156.5,98.4,156z M81.6,144c-0.5,1.9-1.7,4.5-3.5,6.8
		c-0.9,1.2-2.1,2.6-2.1,2.6s0,0.2-0.2,0.7l-0.2,0.2l1.4-0.7c0.2-0.2,0.5-0.2,0.7-0.5c0.9-0.5,2.1-0.9,3.1-1.4c0.9-1.9,2.4-4,2.6-4.7
		c-0.2,0.5-0.2,1.7-1.4,4.2l0.7-0.2c1.7-0.7,3.1-1.2,3.8-1.4c1.2-0.5,1.7-0.9,2.1-1.4c0,0,0.2-0.2,0.5-0.5l-1.2-1.2l-0.5,0.2
		c0,0-0.7,0.7-1.4,0c-0.5-0.5-3.1-3.1-3.3-3.3c-0.2-0.2-0.5-0.7,0-1.7l0,0c-0.7-0.7-0.9-1.7-0.9-2.1c-0.2-0.5-0.5-0.9-0.5-1.7
		c-0.2,0.2-0.5,0.2-0.7,0.2c-0.2,0.2-0.7,0.5-0.9,0.5h-0.2c-0.5,0-0.7,0-1.2-0.5c-0.2-0.2-0.2-0.2-0.7-0.7l0,0
		c-1.4,1.4-2.6,3.3-4.5,6.4c-2.4,3.8-2.8,5-3.3,6.6c1.4,0,2.4-0.2,4.5-2.4c0.9-0.9,3.3-4.5,5-6.4c-1.4,3.1-2.6,5.7-3.8,7.1
		c-1.4,1.9-2.8,3.1-2.8,3.1s-0.7,0.5-0.9,2.1c0.9,0,3.8-1.4,6.1-5C79.3,148,79.7,147.1,81.6,144z M80.2,134.1
		c-0.7,0.7-1.4,1.7-1.4,2.8c0,0.7,0.5,1.2,1.2,1.2c0.9-0.2,0.5-1.2,1.2-0.5c0.2,0.2,0.9-0.7,1.2-0.7c-0.5,0-1.2,0.2-0.9-0.5
		c0-0.5,0.5-0.9,0.7-1.2c0.2-0.2,1.2-1.9,1.7-1.7c0.2,0.2,0,1.7-0.2,2.6c-0.9,1.9-1.2,3.3-0.5,3.5l0,0l0,0c0,0.7,0,1.4,0.7,1.9l0,0
		c-0.2-0.7,0-1.2,0-1.4c0,0,0-0.2-0.5-0.5l0,0l0,0c0.2,0,0.7,0,0.9,0c0.5,0,0.7-0.2,0.9-0.9c0-0.2,0-0.5,0-0.7
		c0.2-1.2,0.2-2.1,0.5-2.8c0.2-0.9,0.5-3.1,0.5-3.1s0.2,0,0.5,0c0.2,0,0.7,0.2,0.9,0.7c0,0.2,0,0.5,0,0.7c0.2,0,0.5-0.2,0.5-0.7l0,0
		l0,0c0.2-0.2,0.5-0.5,0.5-0.7c0.2-0.7-0.7-1.7-0.9-1.7c-0.5-0.5-0.2-1.2-0.2-1.9l0.2-0.7c0.2,0.2,0.7,0.7,0.9,0.9
		c1.2,0.9,2.6,0.7,2.6,0.7s-0.2-0.7-0.5-1.7c-0.2-1.2,0-2.1,0-2.1l0.9,0.9c0,0,0.5-1.9,0.2-5.4c-0.5-4-1.4-5.7-1.4-6.4
		c-0.2-0.9-0.9-1.9-0.9-1.9s0,0.5-0.7,1.2c-0.7-0.9-2.1-3.1-2.6-4.2c-0.2,0.5-0.5,0.7-0.7,0.9l-0.2,0.2v-0.2
		c-0.2-0.9-0.7-1.7-1.2-2.4c-0.5-0.5-0.7-0.9-0.9-1.4c-0.2,1.2-0.5,2.4-0.5,3.3s-0.2,1.9-0.5,2.6c0.2,0,0.2-0.2,0.5-0.2
		c0.2-0.2,0.2-0.2,0.5-0.2l0,0l0,0c0,0,0,0,0,0.2c-0.2,1.4-0.7,3.1-0.7,4c-0.2,1.4,0,2.6,0,3.3l0.9-0.7c0,0-0.7,2.1-0.2,5.4
		c0,0.5,0,1.7,0,1.9c0.7,0,1.2-0.5,1.4-0.7c-0.2,0.9-0.5,1.7-0.7,2.1c-0.9,1.2-2.6,1.4-4,1.9c-1.7,0.5-3.3,0.7-4.7,1.7
		c-0.5,0.2-0.9,0.7-0.9,1.2c0.2,0.5,0.7,0.5,0.9,0.5l0.2,0.2c0.5,0.5,1.7,0.2,1.9,0s0.7-0.5,0.7-0.5s-0.5,0-0.7-0.2l-0.2-0.2
		c0-0.7,2.8-0.7,3.3-0.7c0.5,0,0.7,0,0.7,0.5C81.9,131.7,82.1,131.9,80.2,134.1z M81.2,124.6c0.5-0.7-0.2-0.9-1.4,0
		c-0.7,0.5-3.5,2.1-4.7,4c-0.2,0.5-0.2,0.7,0.2,0c1.4-1.4,3.3-3.3,3.3-2.4c0,0.7,0,1.7,0.5,2.4c0.2,0,0.5,0,0.7-0.2l1.9-0.5
		C80.7,126.8,80.7,125.6,81.2,124.6z M78.3,97.7c1.2,1.7,3.3,6.8,3.3,10.4c1.4-3.5-0.9-10.6-3.1-14.6c0,1.2-0.2,1.4-0.5,1.9
		c-0.5-4.5-3.3-7.8-3.8-11.1c0,0.5-0.2,0.9-0.2,1.4c-0.9-1.9-1.9-3.8-2.6-6.4c-0.2,0.2-0.5,0.9-0.5,1.9c-1.4-4,0-5.4,0.2-5.7
		c1.2-0.7,2.4,0.5,3.3,1.4c1.4,1.7,3.1,5,8,5c0.9,0,1.2-0.2,0.7-0.2l0,0c-4.2-0.7-5-2.4-8.3-6.1c-2.1-2.4-4.2-3.8-6.8-0.7
		c-5,5.9-6.6,10.9-7.3,14.9c-0.5,2.4-0.9,7.1-0.2,9.7c0.7-0.2,0.7-0.5,0.7-0.5s0.7,6.6,1.9,8.3c0.2-0.7,0.7-2.4,0.7-4
		c0.7,1.9,1.2,3.1,2.1,4.2c0.5-1.7,0.5-3.3,0.2-5c0.9,2.4,1.9,3.3,2.4,3.8c0.5-1.2,0.9-2.8,0.5-8.3c0.5,2.1,0.7,3.5,0.7,5
		c0.2,0.2,0.7,0.5,0.9,0.7c0.2-0.5,0.7-1.4-0.2-8.3c2.4,7.6,0.9,9.4,0.7,9.9c-0.7-0.5-1.4-0.9-1.7-1.4c0,2.1-0.5,3.1-0.7,4
		c-0.9-0.5-1.4-1.2-1.9-1.9c0,2.4-0.5,3.8-0.5,3.8s-1.7-1.9-2.1-3.3c0,0.9-0.5,3.5-1.2,4c-1.9-2.6-2.6-9.7-2.6-9.7s-0.2,0-0.2,0.2
		c0,1.7,0.2,4.5,0.7,7.6l0,0c0.2,3.5,0.7,7.6,0.9,11.1c0.7,8.5,1.7,17,2.8,25.7c0,0,0.2,1.4,0.5,2.1c0.2-0.9,0.2-4.2,0.2-6.1
		c0-0.5,0.7-1.2,0.7-3.8c0-0.9-1.2-14.2-1.7-19.4c0-0.7-0.2-2.1-0.2-2.1c0,0.2,0,0.5,0.2,0.5c0.5,1.9,0.7,4,0.9,5.9
		c0.2,1.2,0.2,2.4,0.5,3.8c0.5,3.8,0.9,7.6,1.2,11.6c0,2.4-0.7,3.1-0.7,3.8c0.5,3.1,0,6.1-0.5,7.8c-0.2,0-0.5-0.2-0.5-0.5
		c0.5,2.4,0.9,4.2,0.9,4.2c0.9-1.9,1.4-4,1.2-9.2c0-0.5,0.7-1.7,0.9-4.2c0-0.7,0-3.3-0.2-6.4c-0.5-5.7-0.9-11.1-1.4-16.8
		c0-0.2,0-0.9,0-0.9c0,0.2,0.2,0.5,0.2,0.7c1.7,7.1,2.1,14.6,2.6,22c0.2,3.3-0.9,5.7-0.9,6.1c0.2,1.7,0.2,1.7,0.2,3.1
		c0,1.7-0.2,1.9-0.2,1.9c0.5-1.2,2.4-5.4,1.7-18.9c0-0.2,0-0.7,0-0.9c-0.5-9.2-1.2-15.3-1.2-15.3c0.9,2.6,1.7,8.3,2.1,14.6l0.2-0.2
		c0.9-2.4,1.2-5,0.9-7.6c-0.2-5-0.9-9-0.9-9l0.2,0.5c0.2,0.5,0.7,1.9,1.2,4.5c0.2,1.7,0.7,3.5,0.7,5.2c0,0.2,0,0.5,0,0.7l0,0
		c1.9-2.8,0.9-8.3,0.2-14.2c0.9,1.9,2.4,7.1,1.9,10.9c2.8-2.6,1.2-7.8,0.2-13.7c1.7,3.5,2.8,7.8,2.4,10.6c2.4-3.1,1.4-6.8-0.7-14.4
		c1.2,1.9,2.8,6.8,3.1,9.9C81.4,108.3,79.7,102.4,78.3,97.7z M103.3,114.7c0,0,1.2-1.2,1.7-5c0.2,0.2,0.7,0.5,0.7,1.2
		c0.7-0.9,2.4-5.9,2.4-7.8c0.5,0.2,0,0,0.7,0.5c0.5-0.7,1.2-3.5,1.7-7.6c0.2,0,0.5,0,0.7,0.2c0.2-1.9,0.5-4.7,0.7-6.8
		c0-1.7,0-5.4-0.7-7.6c-0.7-2.1-1.2-3.1-2.4-5.2c0,0-0.5,0.2-0.7,0.5c-0.2-0.9-1.2-3.5-1.7-4.2c-1.2-2.1-1.7-3.5-2.8-4.5
		c0.5,0,0.7,0.2,1.4,0c-0.7-0.7-0.9-1.2-1.9-1.9c0.2-0.2,0.7-0.2,1.7,0c-1.2-1.2-1.7-2.6-4.5-3.8c0.5,0,0.9,0,1.7,0
		c-0.5-0.7-1.4-1.7-2.8-1.9c-3.1-0.7-7.3-0.7-9.4,1.7c-0.2,0.2-0.7,0.2-1.2,0.5c-0.2,0-0.5,0.2-0.5,0.2c-0.2,0.2-0.5,0.7,0.2,1.7
		c-0.9,0-1.2-0.9-1.2-0.9c-0.2,0.2-0.7,0.5-0.9,0.9c-0.2,0.5-0.5,1.4-0.5,1.7c0,0,0.9,0.5,0.9-0.5c0-0.2,1.4-0.5,1.9-0.5
		c0.7,0,1.4,0.2,2.1,0c-0.2,0-1.2,0.5-1.7,0.5s-0.5,0.5,0,0.5s0.5,0,0.9-0.2c0.2,0,0,0.5,0.2,0.7c2.6-0.5,2.6,2.1,5.4,1.7
		c-1.2-0.9-2.4-2.6-3.3-3.1c2.6,0.5,4,2.8,6.8,2.8c0-0.2,0-0.2-0.2-0.7c0.9,0,1.7,0.7,1.9,0.7c-0.2,0.5-1.2,0.7-2.4,0.9
		c0.2,0.5,1.2,0.5,1.7,0.5c-0.5,0.5-1.2,0.7-2.6,0.5c-0.5,0.5-0.9,1.2-2.8,2.4c0-0.5,0-0.5,0-0.9c-1.2,0.7-2.1,1.9-2.8,2.4
		c0.2-0.5,0.5-1.2,0.7-1.7c-3.3,2.8-6.1,5.7-7.3,7.8C84,82.6,83.5,85,83.8,89c0.2,2.1,0.9,8.3,1.2,9.4c0.2,0,0.5-0.2,0.7-0.2
		c0.7,4.5,3.1,10.6,4.2,12.5c0.2-0.5,0.2-0.7,0.7-0.9c0.2,1.2,0.7,2.6,1.9,3.3c0-0.7,0.2-1.2,0.5-1.7c0.2,0.9,0.2,3.5,1.7,5
		c0-0.7,0.2-1.4,0.5-2.4c0.2,0.9,0.2,1.9,0.7,2.8c0.5,0.9,1.2,1.9,1.7,2.4c0-2.1,0.2-1.9,0.2-2.8c0,0.2,0.9,0.9,1.2,3.5
		c1.7-1.2,2.1-5.2,2.1-5.2s0.5,0.5,0.7,1.4c1.4-1.4,1.9-3.3,2.1-4.7C103.3,113.3,103.3,114.2,103.3,114.7z M104.8,135.3
		c1.9,0,2.4,0,3.1-0.2c0-0.2,0-0.5-0.2-0.7c0-0.2,0-0.2,0-0.5l0,0c-0.7,0.2-1.9,0.5-3.5,0.2c-0.7-0.2-0.9-0.2-1.4-0.5
		c-0.5-0.2-1.4,0.7-2.1,1.4c-0.7,0.7-1.4,1.7-1.7,1.9v0.2c0.7,0.5,8.3,7.6,8.7,8c0.2,0.2,0.2,0.2,0.2,0c0.2-0.5,0.9-0.9,1.4-1.4
		c0,0-7.6-7.1-7.8-7.3s-0.2-0.2,0-0.2s0.5-0.5,0.5-0.5h0.2c0.2,0.2,2.6,2.4,2.6,2.4l3.3,2.8l2.1,1.9c0.2-0.2,0.2-0.2,0.2-0.2
		c0.2-0.2,0.2-0.5-0.7-1.7c-0.2-0.2-5.4-5.4-5.4-5.4C103.8,135.5,104.3,135.3,104.8,135.3z M93,136.9c-0.2,0.2-7.8,7.3-7.8,7.3
		c0.5,0.5,0.9,0.9,1.4,1.4c0.2,0.2,0.2,0.2,0.2,0c0.5-0.5,8-7.6,8.7-8v-0.2c-0.2-0.5-1.2-1.2-1.7-1.9c-0.7-0.7-1.7-1.7-2.1-1.4
		c-0.7,0.2-0.7,0.2-1.4,0.5c-1.7,0.2-2.8,0-3.5-0.2h-0.2c0,0.2,0,0.5,0,0.5s0,0.2,0,0.5c0.7,0.2,1.2,0.2,3.3,0.2
		c0.7,0,0.9,0.2,0.5,0.7c0,0-5,5-5.4,5.4c-0.9,0.9-1.2,1.2-0.9,1.7c0,0,0,0,0.2,0.2l2.1-1.9l3.3-2.8c0,0,2.4-2.1,2.6-2.4
		c0-0.2,0.2-0.2,0.2,0L93,136.9C93.2,136.7,93.2,136.9,93,136.9z M93.7,119c0,0,0-0.5-0.2-0.9c-0.2-0.2-0.7-0.7-0.9-0.9
		c-0.2-0.2-0.2-0.5-0.2-0.5c0,0.2,0,0.9,0.2,1.2c0,0.2,0.2,0.7,0.7,0.9C93.4,119,93.7,119,93.7,119z M93.7,133.6
		c0,0,0.5,0.5,0.7,0.7c0.2-0.7,0.5-3.3,0.2-3.5C93.9,132.2,93.7,133.4,93.7,133.6z M90.6,133.4c0.2,0,0.9-0.5,1.4-0.5h0.2l0,0
		c0.2-0.7,0.7-1.9,0.9-2.6C93,130.3,91.1,132.9,90.6,133.4z M96.3,136.2c0-0.9,0-2.1-0.2-2.6c-0.2,0.5-0.5,1.2-0.7,1.9
		C95.6,135.5,96.3,136.2,96.3,136.2z M96.7,129.4c0,0-0.2-1.4-1.2-1.7C95.6,128.6,96.7,129.4,96.7,129.4z M97.4,127.2L97.4,127.2
		L97.4,127.2c0,0,0.2-0.5,0.7-0.7c0.2-0.2,2.6-1.7,2.8-2.1c0.5-0.5,0.7-1.4,0.7-1.4s-0.5,0.7-1.2,1.2c-0.7,0.5-2.4,1.4-2.6,1.9
		c-0.2,0.2-0.2,0.5-0.2,0.7c0-0.2,0-0.2-0.2-0.5c-0.5-1.2-2.1-1.7-3.1-2.6c-0.7-0.7-0.7-0.9-0.7-0.9c0,0.7,0.2,1.2,0.5,1.7
		c0.2,0.5,0.9,0.9,2.1,1.7C97.2,126.8,97.4,127.2,97.4,127.2z M96.5,123.2c0-1.7-1.9-1.9-2.4-3.5C94.1,122,95.8,122,96.5,123.2z
		 M97.4,130.1c0,0,0.2,0,0.7-0.5c0.5-0.2,0.9-0.7,1.2-1.2c0.2-0.5,0.2-0.9,0.2-1.2c0,0-0.2,0.5-0.7,0.9c-0.2,0.2-0.7,0.7-0.9,0.9
		C97.7,129.8,97.4,130.1,97.4,130.1z M99.1,131c0.2,0.9,0.2,3.3,0.2,4.2l0,0c0.2-0.2,0.5-0.5,0.9-0.9
		C100.3,134.1,99.8,132.2,99.1,131z M97.4,137.4c0,0,0.7-0.7,0.9-0.9l0,0c-0.2-1.4-0.5-3.1-0.9-3.5
		C97.4,133.4,97.4,135.5,97.4,137.4z M97.4,138.1c0,0.5,0,0.9,0,1.2l0.7-0.7C98.2,138.6,97.7,138.1,97.4,138.1z M97.9,140
		c0.9,1.2,2.6,2.6,3.5,3.5c0.7-0.7,0.9-0.9,0.9-0.9l-3.8-3.3C98.4,139.5,98.2,139.7,97.9,140z M102.2,144.5c0.7,0.7,1.7,1.7,2.4,2.4
		c0.5-0.5,0.7-0.7,0.9-1.2l-2.4-2.1C103.3,143.5,102.9,143.7,102.2,144.5z M102.9,133.1c-0.5-0.5-1.4-1.9-2.4-2.6
		c0.7,1.4,0.9,2.4,0.9,2.6l0,0c0,0,0,0,0.2,0s0.2,0,0.5,0C102.4,132.9,102.6,132.9,102.9,133.1L102.9,133.1z M102.2,119.2
		c-0.5,0.7-0.9,1.2-1.4,1.7c0.2-0.5,0.2-1.2,0.2-1.2c-0.2,0.7-0.9,1.4-1.4,1.9c-1.2,1.2-1.4,2.1-1.4,2.1s0.2-0.5,1.7-1.2
		C101.2,121.8,101.7,120.6,102.2,119.2z M84.9,104.3c0,1.4,0.9,3.1,2.1,4C86.4,106.2,85.9,105.5,84.9,104.3z M112.6,80
		c0.5,0,0.9,0,1.4-0.5c0.5-0.2,0.5-0.5,0.7-0.7c3.1-4.7,9-12,13.5-17.7c-9-9-22-9.4-25.3-9.2c-0.7,0-1.7,0.7-0.7,1.9
		c-0.7,0.2-3.5,0-4.5-0.9c-0.9,0.9-3.8,1.2-4.5,0.9c0.9-1.2,0-1.9-0.7-1.9c-3.3-0.2-17,1.2-25.3,9c4.5,5.9,13.9,18.4,14.2,18.6
		c0.2,0.2,0.7,0.5,1.2,0.5h0.2c0.5,0,0.9-0.5,1.4-0.9c0.9-1.2,1.4-1.7,2.4-2.6c1.9-1.9,3.5-3.3,3.8-3.5c0.7-0.7,0.9-1.2,0.9-1.9
		s-0.7-0.9-0.9-1.4l-0.2,0.2c-0.2-0.2-0.7-1.2-0.7-1.2l-0.2,0.5c0,0-0.7-1.7-1.9-1.7c-1.4,0.2-2.6-0.5-2.6-0.5s-0.2,0.5-0.2,1.2l0,0
		c-0.9-0.9-1.4-3.1,0.7-4.7c1.2-0.9,1.4-0.9,2.4-1.4c0.5-0.2,0.7-0.5,0.7-0.7c0.7-0.7,1.9-1.2,2.6-1.4c0.9-0.2,3.1-0.5,5.2-0.5
		c1.2,0,2.4,0.5,3.3,0.7c0.7,0.2,2.6,1.7,3.5,3.1c0.7,0.9,1.9,3.5,2.6,5c1.4,3.3,1.2,3.1,2.1,5.2c0.9,2.6,1.7,4,2.8,5.4
		C111.4,79.8,111.8,79.8,112.6,80z M128.8,60.2c0.2-0.5,0.7-0.7,0.9-1.2c-4.2-3.5-10.1-7.3-17-8.7c-4.5-0.9-8.3-1.2-10.4-0.9
		c-1.9,0-3.1,0.7-3.1,1.9c-1.2-0.2-1.4-1.7-1.7-1.9C97.4,50,97,51.2,96,51.2c0-1.2-1.2-1.9-3.1-1.9c-2.4,0-5.9,0-10.4,0.9
		c-6.8,1.4-12.7,5-16.8,8.5c0.2,0.5,0.7,0.7,0.9,1.2c3.8-3.5,8.7-6.1,13.9-7.8c4.5-1.2,9.7-1.7,12.3-1.7c2.1,0,2.6,1.4,2.1,2.1
		c0.9,0,2.4-0.7,2.8-1.4c0.2,0.5,1.7,1.4,2.8,1.4c-0.2-0.7,0-1.9,2.1-2.1c2.4,0,7.8,0.2,12.3,1.7C119.9,53.8,125.1,56.9,128.8,60.2z
		 M131.2,55.7c0.5,1.7,0.9,3.3,2.4,4.5c0.2,0.2,0.5,0.2,0.7,0.5l0,0c0-3.1,0.9-4.7,1.9-6.6l0,0l0,0c1.2,0.2,2.6,0.5,5.7,0
		c-2.8-1.9-2.4-4.2-4.5-6.6c-0.2-0.2-0.5-0.5-0.7-0.7c-0.7-0.5-1.4-0.7-1.7-0.7c-0.5,0-0.9,0.2-0.9,0.5c-0.2,0.2-3.3,3.5-5.2,5.9
		C130.3,52.2,130.7,54.1,131.2,55.7z M133.3,45.1c-2.1-2.1-5.2-4.2-9.2-5.9c-10.1-4.5-22.9-4.5-26.4-4.5l0,0l0,0
		c-3.8,0-16.5,0-26.4,4.5c-3.8,1.7-7.1,4-9.2,5.9c0,0,4.5,5.2,5.7,6.6c0.7,0.7,0.9,1.4,0.5,2.4c7.1-4.7,14.9-7.1,29.3-7.1h0.7
		c13.9,0.2,22.2,2.4,29,7.1c-0.2-1.2-0.2-1.7,0.5-2.4C128.6,50.3,133.3,45.1,133.3,45.1z M61.6,46.5L61.6,46.5
		c-0.2-0.2-0.9-0.9-2.8,0.2c-3.1,2.6-2.1,5.2-5.4,7.3c1.2,0.2,2.1,0.2,2.8,0.2c0.5,0,0.9,0,1.4,0c0.7,0,0.9-0.2,1.4-0.2l0,0
		c0.7,1.9,1.9,3.5,1.9,6.6c3.8-1.9,2.1-8.5,5.7-8.3C64.6,50,61.8,47,61.6,46.5z M63.9,59.5c2.8,3.5,5,6.4,5.2,7.1
		c0.9,1.4,4.2,5.2,4.2,4.7c0-0.2-2.1-3.1-3.3-4.7c-1.9-2.6-3.8-5.2-5.7-7.6C64.2,59,64.2,59.3,63.9,59.5z M77.6,84.5
		c0,2.6,0.5,4.7,1.4,8C79,89,78.3,85.5,77.6,84.5z M75.7,81.4c-0.2,1.2-0.2,2.8,0.2,4c0.2,0.7,0.7,1.7,0.9,2.4
		C76.9,85.2,76.2,82.6,75.7,81.4z M82.8,104.8c0.5-1.4,0.9-10.9-2.8-15.1C80.9,93.5,82.1,97.7,82.8,104.8z M72.4,157.7
		c2.6,0.9,9.9,1.2,13.5,0.7c4.5-0.5,7.8-1.9,10.6-3.8c-0.7-0.7-1.7-1.4-2.6-2.4c-1.4,1.2-2.8,2.1-3.5,2.4c-5.2,2.1-12,2.6-12,2.6
		s9-2.1,12-3.8c0.7-0.2,1.7-1.2,2.8-2.1c-1.2-1.2-2.4-2.1-3.1-3.1c-0.5,0.5-0.9,0.9-1.7,1.4c-1.2,0.7-2.8,1.4-4.2,1.9
		C77.6,154.1,73.4,156.7,72.4,157.7z M93.9,157.7c0.2,0.9,0.7,1.9,0.9,2.6c0,0,1.7-1.4,2.1-4.5c-0.2,0.2-0.9,0.7-1.4,0.9
		C95.1,157,94.4,157.4,93.9,157.7z M126.5,66.3c0.5-0.5,2.4-3.1,5-6.6c-0.2-0.2-0.5-0.5-0.5-0.7c-1.9,2.4-3.5,4.7-5.2,7.1
		c-1.2,1.7-3.3,4.5-3.3,4.7C122.2,71.5,125.5,67.5,126.5,66.3z M141.3,49.3c-0.2,0.5-0.9,1.2-0.9,1.2c0.7,1.4,1.7,3.1,4,4.2
		C143.5,52.9,142.5,51,141.3,49.3z M139.2,48.2c0,0,0.2,0.7,0.5,0.7c5.2-6.8,9.9-13.2,9.9-13.2s-2.1,1.4-5,2.8
		c0.2,1.7-0.7,3.5-1.2,4C143.5,42.5,141.8,44.9,139.2,48.2z M55.9,46c0.2,0.2,0.5,0.7,0.7,0.9c3.8-5,9.2-8.5,15.3-10.9
		c-0.5-0.7-1.2-2.4,0.7-4.2l0,0c2.6,0.2,3.3,1.9,3.5,2.8c5-1.4,10.6-2.1,17.2-2.4c0.2-4.5,3.3-5.7,3.3-5.7s0-0.9,0.7-1.2l0,0
		c0.7,0.2,0.7,1.2,0.7,1.2s3.1,1.2,3.3,5.7c6.4,0.2,12.3,0.9,17.2,2.4c0.2-0.9,0.9-2.4,3.5-2.8l0,0c1.9,1.9,1.2,3.5,0.7,4.2
		c6.4,2.4,11.6,6.1,15.6,11.1c0.2-0.5,0.5-0.7,0.7-1.2c-3.5-4.5-8.7-8.3-14.2-10.4c0.7-1.9,0-3.3-0.9-4.2c0-0.7-0.5-1.4-0.9-1.7l0,0
		c-0.5,0-1.4,0.2-1.9,0.7c-1.7,0.2-3.1,0.9-4,2.6c-4-0.9-8.5-1.7-14.4-1.9c-0.2-2.6-1.7-4.2-3.5-5.2c-0.5-0.9-1.2-1.4-1.9-1.7
		C96.7,24.6,96,25,95.6,26c-1.9,0.9-3.5,2.6-3.5,5.2c-5.9,0.2-10.4,0.9-14.4,1.9c-0.9-1.7-2.4-2.4-4-2.6c-0.5-0.5-1.4-0.7-1.9-0.7
		l0,0c-0.5,0.2-0.9,0.9-0.9,1.7c-0.9,1.2-1.7,2.6-0.9,4.2C64.4,38,59.7,41.5,55.9,46z M55.7,48.6c0.2-0.2,0.2-0.5,0.5-0.7
		c-2.4-3.1-4-5.2-4.2-5.4c-0.5-0.5-1.4-2.4-1.2-4c-2.8-1.4-5-2.8-5-2.8S50.5,41.8,55.7,48.6z M50.7,54.8c0.5-0.2,1.9-1.2,2.8-2.6
		c0.5-0.7,0.9-1.2,1.2-1.9l-0.9-1.2C52.8,51,51.7,52.9,50.7,54.8z M42.7,92.8c0.9,0.7,5.7,4.7,13,9c0.2-4.5,0.2-20.5,9.9-37.5
		c-1.2-1.4-1.7-2.1-2.6-3.5c-0.7,0.7-1.9,1.4-3.3,1.9c0-3.3-0.7-5.2-1.7-7.1c-1.4,0-3.8,0-7.3-0.7C46,65.2,43.4,77,42.7,92.8z
		 M86.1,165.2L86.1,165.2c0.2-0.9,1.7-3.8,2.1-5.4c0-0.2-0.2-0.5-0.2-0.7c-0.9,0.2-1.7,0.2-2.6,0.5c-0.5,0-9,1.4-15.1-1.7
		c0.7-0.5,2.1-1.7,4-2.8c0-0.2,0-0.2,0-0.5c-1.4,0.7-2.8,0.9-4,0.9c0-0.9,0.2-2.1,0.7-3.8c-1.4,0.2-2.6,0-2.6,0s0.9-3.1,3.1-6.6
		c1.9-3.3,4.5-6.6,6.8-9.4c0.2-1.2,1.2-2.1,1.2-2.1s0.2-0.5,0.5-0.5c-0.2-0.2-0.5-0.5-0.7-0.7c-0.2,0.2-0.5,0.5-0.7,0.5
		c-0.7,0.2-1.2,0.5-1.4,0.5c-0.7,0-1.2-0.2-1.4-0.5l0,0c-0.7-0.2-0.9-0.5-1.2-0.9v-0.2c-0.5,0.2-0.7,0.2-1.2-0.2s0.2-2.8,2.8-5.4
		c1.9-1.7,3.5-2.8,5.2-3.5c1.2-0.5,1.9,0.5,1.4,1.2c-0.7,0.9-1.2,2.4-0.5,4c0.7-0.2,0.9-0.5,1.2-0.5s0.7-0.2,0.9-0.7
		c0,0,0-0.2,0.2-0.2h-1.2c0.5-1.4-0.2-4.7,0.2-6.8c-0.2,0-0.5,0.5-0.7,0.5c-0.5-1.9-0.2-5.2-0.2-6.6c0-0.5-0.7-1.2-1.4-1.9
		c-0.7,1.7-1.7,3.5-3.5,5.7c-1.4,1.7-3.8,3.3-5.2,8.7l0,0c-0.2,0.9-0.5,1.7-0.9,2.4c-0.9,1.7-0.7,2.8-0.7,2.8l0,0
		c0,3.3,0,10.6-0.9,14.4c-0.7,3.5-1.9,5.2-1.9,5.2l-0.2-0.2c-0.2,1.2-0.9,3.3-2.1,5c0,0-1.2-2.4-3.3-20.1
		C60.2,115.7,59,95.4,59,95.4l0,0c-0.2-3.5,0.7-7.8,1.7-10.9c1.9-5,5.2-9.7,7.1-11.6c1.2-1.2,2.6-1.4,4-1.2
		c-0.5-0.5-0.7-1.2-0.7-1.2c-1.4-1.9-2.8-3.8-4.2-5.4c-9.4,16.8-9.2,36.8-9.2,36.8v2.1l-1.7-0.9c-7.6-4.2-10.9-6.8-13.2-8.7
		c0,2.1-0.2,9-0.2,9s0,1.7,0,4.2c0,8,1.4,27.6,8,41.1c0.9,1.7,3.3,6.1,7.8,10.4c3.3,3.1,7.3,5.4,11.6,6.8c0.2,0,0.7,0.2,0.9,0.2
		C75.5,168.3,80.9,167.8,86.1,165.2z M85.9,170.9c0.9-0.7,2.6-1.4,4.5-0.7c0.2-2.4,0.5-5.9,0.9-9c-0.7,0.7-1.4,1.2-1.4,1.2
		c-0.2,0-0.2-0.2-0.5-0.2C88,165.7,85.9,170.7,85.9,170.9z M104.8,172.5c0.2-2.6-0.9-9.2-1.4-13l-0.2-0.2c-0.2-0.2-0.2-0.2-0.2-0.5
		c-0.2,0.7-0.5,1.7-0.9,2.4c-0.5,0.9-1.2,1.9-1.2,1.9c-0.2,0-1.9-1.2-3.1-3.8c-1.2,2.4-2.8,3.8-3.1,3.8s-0.7-0.9-1.2-1.9
		c-0.2-0.5-0.2-0.9-0.5-1.2c-0.7,4-1.4,10.4-1.4,12.7c-3.8-2.4-5.9,0-5.2,1.7c0,0.2,0.2,0.2,0.2,0.5c0.5,0.7,0.9,0.9,1.9,0.9
		c1.2,0,2.8,0.2,4.5,0.9c1.7,0.7,3.3,2.1,5.2,4.2c1.9-2.1,3.5-3.5,5.2-4.2c1.9-0.7,3.3-0.9,4.5-0.9c0.7,0,1.4-0.5,1.9-0.9
		c0-0.2,0.2-0.2,0.2-0.5C110.7,172.5,108.3,170.2,104.8,172.5z M110.4,170.9c0,0-2.4-5.7-3.5-9.2c-0.2,0.5-0.7,0.7-0.7,0.7
		s-0.5-0.2-1.2-0.9c0.5,2.8,0.9,6.1,1.2,8.7C107.8,169.5,109.5,169.9,110.4,170.9z M152.9,104.1c0-2.6-0.2-7.1-0.2-9
		c-2.6,2.1-5,4-12.7,8.7l-2.1,1.2v-1.4c0-0.2,0.5-20.1-9.2-37.3c-0.7,0.7-2.6,3.5-4.7,6.1c1.2-0.2,2.6,0.2,3.5,1.2
		c2.1,1.9,5.2,6.6,7.1,11.6c0.9,3.1,1.9,7.3,1.7,10.9l0,0c0,0-1.2,20.3-3.5,39.9c-2.1,17.7-3.3,20.1-3.3,20.1
		c-1.4-1.7-1.9-3.8-2.1-5l-0.2,0.2c0,0-1.2-1.9-1.9-5.2c-0.9-4-0.9-11.1-0.9-14.4l0,0c0,0,0-0.9-0.7-2.8c-0.5-0.7-0.7-1.7-0.9-2.4
		l0,0c-1.2-5.4-3.8-7.1-5.2-8.7c-1.7-2.1-2.8-4.2-3.5-5.9c0,0,0,0-0.2,0c-0.9,0.9-1.7,1.7-1.7,2.4c0.2,3.1,0.7,5.4,0.2,7.1
		c-0.2,0-0.5-0.5-0.7-0.5c0.2,2.1-0.7,4.5-0.2,6.4L110,127c0,0.2,0,0.2,0.2,0.2c0.2,0.2,0.2,0.5,0.7,0.5c0,0,0.2,0.2,0.5,0.2
		c0.2,0,0.5,0.2,1.2,0.5c0.7-1.7,0.2-3.1-0.5-4c-0.7-0.7,0.2-1.9,1.4-1.2c1.7,0.7,3.3,1.7,5.2,3.5c2.6,2.4,3.3,5,2.8,5.4
		c-0.5,0.5-0.7,0.2-1.2,0v0.2c-0.2,0.5-0.5,0.7-1.2,0.9l0,0c-0.2,0.5-0.7,0.5-1.4,0.5c-0.7,0-1.4-0.5-1.4-0.5
		c-0.2,0-0.2-0.2-0.5-0.5c-0.2,0.2-0.2,0.2-0.5,0.5c2.1,2.8,5.9,7.3,8.7,12.3c2.1,3.5,3.1,6.6,3.1,6.6s-1.2,0.5-2.6,0
		c0.5,1.4,0.7,2.6,0.7,3.8c-1.2,0-2.6,0-4-0.9c0,0.2,0,0.5,0.2,0.7c1.2,0.9,2.6,1.9,3.3,2.4c-6.1,2.8-15.1,1.7-15.3,1.7
		c-0.5,0-0.7-0.2-1.2-0.2c0,0.2-0.2,0.5-0.2,0.5c0.7,1.4,2.1,4.7,2.4,5.4c4,1.9,7.6,3.1,13.2,2.1c0,0,0.9,0,3.3-0.9
		c2.4-0.7,7.1-3.5,10.6-6.8c4.5-4.2,7.1-8.5,8-10.1c6.8-13.2,8-33,8-41.1C152.9,105.7,152.9,104.3,152.9,104.1z"/>
</g>
</svg>
