<?xml version="1.0" encoding="utf-8"?>
<!-- Generator: Adobe Illustrator 24.2.0, SVG Export Plug-In . SVG Version: 6.00 Build 0)  -->
<svg version="1.1" id="Layer_1" xmlns="http://www.w3.org/2000/svg" xmlns:xlink="http://www.w3.org/1999/xlink" x="0px" y="0px"
	 viewBox="0 0 595.7 195.1" style="enable-background:new 0 0 595.7 195.1;" xml:space="preserve">
<style type="text/css">
	.st0{fill:#5CB947;fill-opacity:0;}
	.st1{fill:#FFFFFF;}
	.st2{fill:#EA0029;}
</style>
<g id="ARTWORK">
	<g>
		<rect x="85.2" y="0" class="st0" width="424.1" height="195.1"/>
		<g>
			<path class="st1" d="M474.5,97.3c0.2-23.7-5-36.9-9.5-43.4c1.5-2,2.5-3.3,2.6-3.3c0.5-0.5,1.2-1.2,2.8-1.4
				c0.4-3.1,1.6-6.8,1.6-6.8s-3.1,2.3-6,3.5c0.2,1.6-0.2,2.5-0.6,3.1c-0.1,0.1-0.8,1.1-2,2.6c-1.9-2.3-4.3-4.4-7.6-6.3
				c-0.8-0.5-1.7-0.9-2.6-1.3c0.1-1.3-0.4-2.5-1.2-3.3c0-0.7-0.6-1.7-1.4-1.9l0,0c-0.8-0.2-1.9,0.1-2.5,0.7
				c-1.3,0.2-2.5,0.8-3.4,1.8c-2.8-0.6-5.9-1-9.5-1.2c-0.4-1.8-1.6-3-3-3.7c-0.4-0.8-1.4-1.5-2.3-1.6l0,0l0,0l0,0l0,0
				c-0.9,0.1-2,0.8-2.3,1.6c-1.4,0.7-2.5,2-3,3.7c-3.6,0.2-6.7,0.7-9.5,1.2c-0.9-1-2.1-1.7-3.4-1.8c-0.6-0.5-1.7-0.9-2.5-0.7l0,0
				c-0.7,0.3-1.3,1.2-1.4,1.9c-0.9,0.9-1.3,2.1-1.2,3.3c-0.9,0.4-1.8,0.9-2.6,1.3c-3.4,1.9-5.5,3.8-7.5,6.3
				c-1.1-1.4-1.7-2.3-1.8-2.4c-0.4-0.6-0.8-1.5-0.6-3.1c-2.9-1.3-6-3.5-6-3.5s1.2,3.7,1.6,6.8c1.6,0.2,2.4,0.9,2.8,1.4
				c0.1,0.1,0.9,1.1,2.3,3c-4.5,6.4-9.8,19.8-9.6,43.6c0,2.2-0.9,22.8,5.8,36.7c0.8,1.4,2.8,5.2,6.4,8.6c3,2.9,6.7,4.9,10.7,6
				c0.1,0,0.4,0.1,0.5,0.1c5,1.4,9.4,0.6,11.2-0.4l-0.3,0.6c-0.1,0.2-0.2,0.4-0.2,0.6c-0.9,2.6-0.3,5.2,3.1,5.6
				c0.9,0.1,1.9,0.1,3.1,0.7c0.8,0.4,1.8,1,2.8,2.1c0.4,0.4,1.3,1.6,1.8,2.5l0,0l0,0l0,0c0.4-0.9,1.3-2.1,1.8-2.5
				c1-1.1,2-1.7,2.8-2.1c1.2-0.6,2.2-0.6,3.1-0.7c3.5-0.4,4.1-3,3.2-5.6c-0.1-0.1-0.2-0.4-0.2-0.6c-0.1-0.1-0.3-0.6-0.3-0.6
				c2.4,1.4,9.8,2.5,16.8-2c4.8-3.1,8.4-6.5,11.2-12.1C475.4,120.2,474.5,99.2,474.5,97.3z M443.3,78.2c-0.1,0.1-0.2,0.3-0.5,0.5
				c-0.4,0.2-0.7,0.3-1.1,0.3c-0.5,0-0.9-0.2-1.1-0.6c-0.8-1.1-1.3-2.2-2.1-4.2c-0.7-1.8-0.6-1.5-1.7-4.1c-0.5-1.3-1.4-3.2-2-3.9
				c-0.8-1.1-2.3-2.1-2.8-2.4c-0.6-0.3-1.6-0.5-2.5-0.5c-1.7-0.1-3.4,0.1-4.1,0.3c-0.6,0.1-1.6,0.5-2.1,1.1
				c-0.1,0.1-0.3,0.4-0.6,0.5c-0.7,0.4-0.9,0.3-1.9,1c-1.6,1.1-1.3,2.9-0.5,3.6c0,0,0,0,0,0c0-0.5,0-0.9,0.1-0.8
				c0.1,0,0.9,0.5,2,0.4c0.9-0.1,1.4,1.2,1.4,1.2l0.1-0.4c0,0,0.3,0.8,0.5,1c0-0.1,0.1-0.1,0.1-0.2c0.3,0.3,0.7,0.5,0.7,1.1
				c0,0.5-0.2,0.9-0.8,1.5c-0.2,0.2-1.6,1.3-3,2.8c-0.8,0.8-1.1,1.2-1.9,2.1c-0.4,0.4-0.8,0.7-1.1,0.7c-0.1,0-0.1,0-0.2,0
				c-0.4,0-0.8-0.2-1-0.4c-0.1-0.2-7.5-10-11.1-14.7c6.4-6.3,17.1-7.3,19.7-7.1c0.6,0.1,1.3,0.5,0.5,1.6c0.6,0.3,2.7,0.1,3.5-0.7
				c0.8,0.8,3,0.9,3.5,0.7c-0.8-1-0.1-1.5,0.5-1.6c2.6-0.2,12.7,0.3,19.8,7.3C450.4,68.9,445.8,74.7,443.3,78.2z"/>
			<g>
				<path class="st2" d="M473.1,90.8c-2,1.6-3.8,3.2-10,6.8l-1.6,0.9l0-1.1c0-0.1,0.4-15.8-7.2-29.2c-0.5,0.6-2.1,2.7-3.7,4.8
					c1-0.1,2,0.1,2.8,1c1.6,1.5,4.1,5.2,5.6,9.1c0.8,2.4,1.4,5.7,1.3,8.5l0,0c0,0-0.9,15.9-2.7,31.2c-1.6,13.9-2.6,15.7-2.6,15.7
					c-1.1-1.3-1.5-2.9-1.8-3.8l-0.1,0.1c0,0-1-1.4-1.6-4.1c-0.7-3.1-0.8-8.7-0.7-11.3v0c0,0,0-0.8-0.6-2.1c-0.3-0.6-0.5-1.3-0.7-1.9
					c0,0,0,0,0,0c-1-4.3-2.9-5.5-4-6.8c-1.3-1.6-2.2-3.3-2.8-4.6c0,0-0.1,0.1-0.1,0.1c-0.7,0.7-1.2,1.4-1.3,1.8
					c0.2,2.5,0.5,4.3,0.1,5.5c-0.1-0.1-0.4-0.3-0.5-0.4c0.2,1.6-0.6,3.5-0.1,5.1l-1-0.1c0,0.1,0.1,0.2,0.1,0.2
					c0.1,0.2,0.3,0.3,0.5,0.4c0,0,0.2,0.1,0.3,0.1c0.1,0,0.3,0.1,1,0.4c0.6-1.2,0.1-2.4-0.4-3.1c-0.5-0.6,0.1-1.4,1.1-1
					c1.2,0.5,2.6,1.3,4,2.7c2,1.9,2.6,3.8,2.2,4.2c-0.3,0.3-0.6,0.2-1,0.1c0,0.1,0,0.1,0,0.2c-0.1,0.4-0.4,0.6-0.9,0.8l0,0.1
					c-0.2,0.3-0.6,0.4-1.2,0.4c-0.5,0-1.1-0.3-1.2-0.4c-0.1-0.1-0.2-0.1-0.4-0.3c-0.1,0.1-0.2,0.2-0.4,0.3c1.6,2.2,4.7,5.7,6.9,9.7
					c1.6,2.8,2.3,5.2,2.3,5.2s-0.9,0.3-1.9,0c0.4,1.1,0.6,2.1,0.5,2.9c-0.9,0-2-0.1-3.1-0.7c0,0.2,0.1,0.4,0.1,0.6
					c1,0.7,2.1,1.5,2.6,1.9c-4.8,2.3-11.8,1.2-12,1.2c-0.3,0-0.6-0.1-0.9-0.1c-0.1,0.1-0.1,0.3-0.2,0.4c0.5,1.1,1.6,3.7,1.8,4.3
					c3.1,1.4,5.9,2.3,10.3,1.6c0,0,0.7-0.1,2.6-0.7c1.9-0.6,5.5-2.8,8.3-5.4c3.5-3.2,5.5-6.6,6.2-8c5.3-10.4,6.2-25.9,6.2-32.2
					c0-2.1,0-3.2,0-3.3C473.3,95.9,473.1,92.4,473.1,90.8z"/>
				<path class="st2" d="M421,145.7c0.2-0.6,1.2-2.9,1.7-4.1c-0.1-0.2-0.1-0.4-0.2-0.6c-0.7,0.1-1.3,0.2-2,0.3
					c-0.4,0-7.1,1.1-11.9-1.2c0.6-0.4,1.7-1.3,3.2-2.3c0-0.1,0-0.2,0.1-0.3c-1.2,0.6-2.3,0.8-3.1,0.7c-0.1-0.8,0.1-1.8,0.5-2.9
					c-1.1,0.2-1.9,0-1.9,0s0.7-2.3,2.3-5.2c1.5-2.6,3.5-5.3,5.3-7.5c0.2-0.9,0.9-1.6,0.9-1.7c0-0.1,0.3-0.3,0.3-0.3
					c-0.2-0.2-0.4-0.3-0.6-0.5c-0.2,0.2-0.4,0.3-0.5,0.4c-0.6,0.3-0.9,0.4-1.2,0.4c-0.6,0-1-0.1-1.2-0.4l0-0.1
					c-0.5-0.1-0.8-0.4-0.9-0.8c0-0.1,0-0.1,0-0.2c-0.3,0.1-0.6,0.1-0.9-0.1c-0.4-0.4,0.2-2.2,2.2-4.2c1.4-1.3,2.8-2.1,4-2.7
					c1-0.4,1.5,0.4,1.1,1c-0.6,0.7-1,1.9-0.4,3.1c0.6-0.2,0.8-0.3,0.9-0.3c0.2-0.1,0.5-0.2,0.8-0.6c0,0,0.1-0.1,0.1-0.2l-0.9,0.1
					c0.4-1.1-0.2-3.7,0.2-5.4c-0.1,0.1-0.4,0.3-0.6,0.3c-0.3-1.5-0.3-4-0.1-5.2c0-0.3-0.5-0.9-1.1-1.5c-0.5,1.2-1.3,2.7-2.7,4.4
					c-1.1,1.3-3,2.5-4,6.8c0,0,0,0,0,0c-0.2,0.7-0.4,1.3-0.7,1.9c-0.6,1.3-0.6,2.1-0.6,2.1v0c0.1,2.7-0.1,8.2-0.7,11.3
					c-0.6,2.7-1.6,4.1-1.6,4.1l-0.1-0.1c-0.2,0.9-0.7,2.6-1.8,3.8c0,0-0.9-1.8-2.6-15.7c-1.8-15.2-2.7-31.2-2.7-31.2l0,0
					c-0.2-2.8,0.5-6.1,1.3-8.5c1.5-3.8,4-7.6,5.6-9.1c1-1,2.1-1.2,3.1-1c-0.3-0.4-0.6-0.8-0.6-0.8c-1.1-1.4-2.3-2.9-3.3-4.3
					c-7.4,13.1-7.3,28.8-7.3,28.9l0,1.7l-1.3-0.7c-5.9-3.3-8.4-5.3-10.3-6.9c-0.1,1.6-0.2,7-0.2,7c0,0.1,0,1.2,0,3.3
					c0,6.2,1.1,21.6,6.2,32.2c0.7,1.3,2.6,4.8,6.1,8.1c2.6,2.5,5.7,4.2,9,5.3c0.2,0.1,0.6,0.2,0.8,0.3c3.9,1.2,8.1,1,12.3-1.1
					L421,145.7z"/>
				<path class="st2" d="M424.2,149.6c0.1-1.8,0.4-4.6,0.8-7c-0.6,0.6-1.1,0.9-1.2,0.9c-0.1,0-0.2-0.1-0.3-0.3
					c-1.2,2.8-2.8,6.9-2.8,6.9C421.4,149.5,422.7,149,424.2,149.6z"/>
				<path class="st2" d="M435.5,151.5c0.1-1.9-0.7-7.2-1.2-10.1c-0.1-0.1-0.1-0.2-0.2-0.2c-0.1-0.1-0.2-0.3-0.3-0.4
					c-0.2,0.6-0.4,1.2-0.7,1.8c-0.3,0.7-0.9,1.5-1,1.5c-0.1,0-1.5-1-2.4-2.9c-0.9,1.9-2.3,2.9-2.4,2.9c-0.1,0-0.6-0.8-1-1.5
					c-0.1-0.3-0.3-0.7-0.4-1c-0.5,3.1-1.1,8.1-1.1,10c-2.9-1.9-4.7,0-4,1.3c0.1,0.1,0.1,0.2,0.2,0.3c0.4,0.5,0.8,0.7,1.4,0.8
					c0.9,0.1,2.2,0.2,3.6,0.8c1.3,0.6,2.7,1.6,4.1,3.3c1.4-1.8,2.8-2.7,4-3.3c1.4-0.6,2.6-0.8,3.6-0.8c0.6-0.1,1.1-0.3,1.4-0.8
					c0.1-0.1,0.1-0.2,0.2-0.3C440.1,151.5,438.4,149.6,435.5,151.5z"/>
				<path class="st2" d="M436.5,143.5c0,0-0.4-0.2-1-0.7c0.4,2.1,0.8,4.8,0.9,6.8c1.5-0.6,2.7-0.2,3.5,0.5c0,0-1.8-4.5-2.8-7.3
					C436.8,143.2,436.6,143.5,436.5,143.5z"/>
			</g>
			<g>
				<path d="M425.5,85.7L425.5,85.7L425.5,85.7"/>
			</g>
			<g>
				<polyline points="423.9,86.4 423.9,86.4 423.9,86.4 				"/>
			</g>
			<path d="M450.1,94.1c-0.2,1-0.6,1.5-1.5,2.1c-0.5-1.5-0.8-2.8,1.4-7.3c-1.5,4.4-0.9,5.9-0.9,5.9S449.7,94.6,450.1,94.1z
				 M447.7,91c0,0-0.5-1,0.8-4.8c-2.4,3.7-1.4,6.2-1.4,6.2s1.3-0.6,1.6-2C448.4,90.8,447.7,91,447.7,91z M456.4,84.4
				c-0.4,3.9-0.7,4.7-1.1,5.4c-0.3-0.2-0.6-1-0.6-1c-0.1,0.7,0,1.8,0.6,2.3C456.1,90.1,456.7,88,456.4,84.4z M455.6,81.8
				c-0.6,4.3-1.3,5.3-1.8,6.1c-0.4-0.3-0.7-1.3-0.7-1.3c-0.2,0.8,0,2,0.6,2.7C454.7,88.2,455.8,85.8,455.6,81.8z M452.4,86.1
				c-0.4-1.2-0.3-2.3-0.3-2.3c-0.6,1.7-0.4,3.1,0.2,3.8c1-1,2.5-4.3,2.3-7.3C453.9,83.8,452.9,85.4,452.4,86.1z M450.8,83.6
				c-0.3-1.2-0.1-3-0.1-3c-0.8,1.6-0.6,3.9-0.1,4.6c1.1-0.9,2.6-3.8,2.7-6.8C452.3,81.9,451.4,82.9,450.8,83.6z M456.1,90.9
				c-0.1,0.9,0.7,1.5,0.7,1.5s1.3-1.8,0.8-5c-0.3,2.9-0.9,3.9-0.9,3.9S456.2,91.1,456.1,90.9z M457.6,92.3c0,0.8,0.7,1.3,0.7,1.3
				s1.1-1.6,0.5-4.4c-0.1,2.6-0.7,3.5-0.7,3.5S457.6,92.4,457.6,92.3z M404.6,89.9c-0.4-0.7-0.7-1.5-1.1-5.4
				c-0.3,3.5,0.3,5.7,1.1,6.7c0.6-0.6,0.8-1.6,0.6-2.3C405.2,88.9,404.9,89.7,404.6,89.9z M406,88.1c-0.5-0.7-1.2-1.7-1.8-6.1
				c-0.1,4,0.9,6.3,1.8,7.4c0.6-0.7,0.8-1.9,0.6-2.7C406.7,86.7,406.4,87.8,406,88.1z M407.5,86.2c-0.5-0.7-1.6-2.2-2.1-5.8
				c-0.2,3,1.3,6.2,2.3,7.3c0.6-0.7,0.8-2.1,0.2-3.8C407.8,83.8,407.9,85,407.5,86.2z M409,83.7c-0.6-0.7-1.5-1.6-2.5-5.2
				c0.1,3,1.6,5.8,2.7,6.8c0.5-0.8,0.6-3-0.1-4.6C409.2,80.7,409.3,82.5,409,83.7z M403.2,91.5c0,0-0.6-1-0.9-3.9
				c-0.5,3.1,0.8,5,0.8,5s0.8-0.6,0.7-1.5C403.7,91.3,403.2,91.5,403.2,91.5z M401.8,92.8c0,0-0.6-1-0.7-3.5
				c-0.5,2.8,0.5,4.4,0.5,4.4s0.7-0.5,0.7-1.3C402.2,92.6,401.8,92.8,401.8,92.8z M410.7,95c0,0-0.6-0.2-0.9-0.8
				c0.2,1,0.6,1.5,1.5,2.1c0.5-1.5,0.8-2.8-1.4-7.3C411.4,93.5,410.7,95,410.7,95z M412.2,91.1c0,0-0.7-0.2-1.1-0.6
				c0.3,1.4,1.6,2,1.6,2s1.1-2.6-1.4-6.2C412.7,90.1,412.2,91.1,412.2,91.1z M423,109.8c0.2-2-0.9-3.7-1-4.5
				c-0.2,0.2-0.2,0.9-0.2,0.9c-0.7-0.8-0.9-2.1-1.1-2.6c-0.2,1.4-0.6,2.1-0.8,2.7c0.3,0,0.6-0.1,0.9-0.3
				C421.2,107.7,422.6,108,423,109.8z M437.6,106.3c0,0,0-0.7-0.2-0.9c-0.2,0.8-1.3,2.6-1,4.5c0.5-1.8,1.9-2.2,2.2-3.8
				c0.3,0.2,0.6,0.3,0.9,0.3c-0.2-0.7-0.7-1.3-0.8-2.7C438.5,104.2,438.3,105.6,437.6,106.3z M426.8,104.3c-0.2-0.7-0.6-2.9-1.4-3.9
				C425.1,102.1,426.1,103.6,426.8,104.3z M432.3,106.5c0.4-0.9,1.2-1.8,1.2-4.8C432.6,102.6,432.2,105.4,432.3,106.5z M430.6,107.7
				c0.5-1.2,0.4-2.7-0.1-3.3C430.1,105.6,430.1,106.8,430.6,107.7z M429.2,104.1c0.4-1.4,0.4-3-0.2-3.8
				C428.6,101.7,428.6,103,429.2,104.1z M438.8,91.9c-0.8,1.1-1.1,3.6-1.3,4.5C437.8,96.1,439.3,92.5,438.8,91.9z M438.9,87.8
				c0,0,1.4-2.4,0.6-3.7C438.6,84.3,438.9,87.8,438.9,87.8z M434.9,93.7c0,0,2.1-2.1,2.1-4.7c-0.6,1.7-2.1,2.5-2.1,2.5
				s-0.8-0.5-1.2-1.6C433.4,92.5,434.9,93.7,434.9,93.7z M439.1,90.7c0.6-0.9,1.4-2.2,0.7-3.1C439.5,88.5,439.4,89.5,439.1,90.7z
				 M432.4,100.8c0.4-0.9,1.3-2.5,1.1-4.3C432.7,97.2,432.4,99.7,432.4,100.8z M435.5,98.1c1.3-1.6,1.9-3.4,1.4-5.2
				C435.8,94.6,435.7,96.4,435.5,98.1z M432.8,92.6c-0.4,1.3-0.9,2.1-1.8,3c-0.4-0.4-0.8-0.8-1.3-1.9c-0.2,2.1,1,3.3,1.7,3.8
				C431.7,97.1,433.1,95.1,432.8,92.6z M427.2,97.9c-0.3-0.1-1.5-1.2-1.9-2c0.2,1.2,1.8,3.5,2.6,4c0.3-0.4,1.2-2.3,0.4-5.3
				C427.9,96.4,427.5,97.3,427.2,97.9z M419.7,83.7c-0.2-1,1.1-2,0.7-3.6C419.1,81.5,419.4,82.8,419.7,83.7z M422.3,95.9
				c0.7,1.2,1.3,1.8,1.8,2.3c-0.9-1.3-1.6-3.9-2.5-4.5C421.6,94.1,421.9,95.2,422.3,95.9z M421.7,90.3c-0.5,2.1,1.6,4.1,1.6,4.1
				C423.3,94.5,423.3,92,421.7,90.3z M423.1,86.4c0,0.9,0,1.7-0.2,2.7c-0.6-0.1-0.9-0.6-1.3-0.9c0.4,1.2,1.8,2.6,2.1,2.9
				C423.9,89.4,423.9,87.5,423.1,86.4z M422.2,81c0.6-2.1,1.8-3.3,2.2-4.5C422.3,77.9,421.8,80.2,422.2,81z M420.4,90.2
				c-0.3-1.8-0.2-3-1-4.5C419.1,87.5,420.2,89.9,420.4,90.2z M425.7,83.2c-1.4,1.8,0.8,4,0.8,4C426.4,87.2,426.6,83.9,425.7,83.2z
				 M426.7,78.4c-2.1,1.6-1.1,3-0.7,3.9C426.4,80.7,426.6,80.3,426.7,78.4z M427.9,92.5c0.4-0.8,1.4-2.3,0.9-4.8
				c-0.2,1.9-1.4,2.7-1.4,2.7c0,0-0.7-0.4-1.2-1.5C426.4,91.3,427.2,91.9,427.9,92.5z M438.6,78.7c-0.1,1.2,1.2,3.9,1.3,4.1
				C439.9,82.6,440.7,80.3,438.6,78.7z M435.8,74c-0.2,1,1.4,2.5,1.4,2.6C437.2,76.5,437.4,74.6,435.8,74z M438.1,81.7
				c-0.5,2.2-1.4,3.1-1.4,3.1s-0.8-0.6-1.4-1.5c0,1.8,1.5,3.5,1.5,3.5C436.7,86.8,438.6,85.3,438.1,81.7z M433.7,77.5
				c-0.9,0.9-0.1,2.7,0.4,4.4C434.5,81.1,435.1,78.4,433.7,77.5z M434.4,75c0-0.8-0.3-2.2-2.1-2.5C432.2,73.5,433.8,74,434.4,75z
				 M432.4,71.6c0.4,0.4,1.8,0.7,2.5,1.4C434.8,71.9,433.6,71.2,432.4,71.6z M430.6,76.8c-1.3,1.4-0.5,2.6-0.5,2.5
				C430.1,79.3,431.6,77.6,430.6,76.8z M432.5,90c0,0,1.6-1.5,1.8-4.6c-0.9,1.5-1.9,2.4-1.9,2.4s-0.9-0.6-1.6-1.5
				C430.8,88.3,432.5,90,432.5,90z M430.1,81.5c-1.4,2.1,0,4.4,0,4.4C430.1,85.9,431.1,82.9,430.1,81.5z M430.6,66.2
				c0.4,0.4,1.6,0.9,2.3,1.6C432.8,66.7,431.9,66.1,430.6,66.2z M431.3,67.4c-0.7-0.9-1.7-1.2-2.2-1.3
				C429.6,66.9,430.2,67.5,431.3,67.4z M433.8,69.6c-0.1-0.2-0.6-1.1-1.9-1.3c0.4,0.3,0.6,0.9,0.7,1.1c-0.2,0.1-0.9,0.2-1.1,0.2
				C431.9,70,432.8,70,433.8,69.6z M422.6,66.5c-0.1,0.1-0.2,0.4,0.2,0.4c0.4,0,0.4-0.4,0.4-0.4S422.7,66.4,422.6,66.5z M433.5,45.1
				c-0.4-0.3-0.7-0.5-1.1-0.8c-0.4,0.2-0.8,0.6-1.1,0.8c0.4,0.3,0.6,0.5,1,0.8C432.8,45.6,433,45.4,433.5,45.1z M426.8,65.6
				c0,0,0.1,0.3,0.1,0.7c-0.1,0.4-0.3,0.8-0.9,1c-0.7,0.2-1.4-0.3-1.4-1c0-0.2,0-0.4,0.1-0.6c-0.2,0-0.2,0.2-0.5,0.5
				c-0.1,0.2-0.4,0.1-0.7,0.4c0-0.4,0.5-1.1,1-1.3c0.8-0.3,3.4-0.5,5.2,0.5c-0.6-0.1-1.2-0.1-1.8-0.1
				C427.2,65.6,426.8,65.6,426.8,65.6z M426.5,65.6c-0.1-0.1-0.7,0-0.7,0.1c-0.1,0.1,0.4,0.3,0.5,0.4c0.1,0,0.2,0,0.3-0.1
				C426.5,65.8,426.5,65.7,426.5,65.6z M435.2,50.3c-5.2-0.3-15.2,0.3-20.1,1.6c0,0-0.5-1.3-1-1.8c-1.3-1.4-1.8,0.1-1.9,0.3
				c1.7,0.1,1.9,0.9,1.9,0.9c-0.4,0.7-0.7,1-1.6,1.6c-0.3,0.2-1.3,0.9-2.8,1c-3.1,0.1-2.3-3.1-0.4-4.4c-0.2,0.3-1.3,2-0.7,2.9
				c0.8,1,3.6,0.2,4.3-0.7c-0.4-0.4-1.1-0.5-2.1-0.4c0.1-0.5,0.3-1.8,1.8-3.1c0.5,0.1,2.1,0.9,2.6,2.2c4.5-1.2,12.9-1.6,13.3-1.6
				c-0.1-0.8-0.4-3.8-0.4-3.9c0-0.5,0.3-0.7,0.6-0.9c0.4,0.6,0.7,0.9,1.4,1.2c-0.3,0.4-0.6,0.5-0.9,0.8c0.1,0.6,0.1,1.7,0.1,2.1
				c0.7-0.3,1.8-0.8,3-1.1c0.4-0.1,1-0.2,1.4-0.1c0.4,0.1,1,0.3,1.2,0.5c0.2,0.2,0.5,0.5,0.5,1C435.5,49.1,435.3,49.7,435.2,50.3z
				 M434.1,48.3c-0.6-1.1-3-0.1-4.5,0.5c0.9,0,1.6,0,2.6,0c0.4,0,1.4,0,2,0C434.2,48.7,434.2,48.5,434.1,48.3z M412.6,53.9
				c-0.3-0.1-0.6-0.2-0.9-0.3c-0.2,0.3-0.5,0.8-0.6,1.1c0.4,0.1,0.8,0.3,1.3,0.4c0.2-0.3,0.3-0.5,0.5-0.7c0.3,0.1,0.6,0.2,0.9,0.3
				c0.3-0.4,0.4-0.6,0.7-1.1c-0.5-0.1-0.8-0.3-1.3-0.4C412.9,53.4,412.8,53.6,412.6,53.9z M450.7,50.1c1-0.1,2,0.2,2.4-0.3
				c-0.6-0.2-1.3-0.4-1.5-0.7c0.3-0.2,0.7,0.1,0.9,0.2c0.1-0.1,0.2-0.2,0.4-0.4c-0.7-0.5-1.7-0.2-1.9,0.3c0.2,0.1,0.5,0.2,0.6,0.3
				C451.2,49.7,450.8,49.9,450.7,50.1z M450.1,51.9c-0.4,1-0.8,1.9-1.3,2.8c0.3,0.1,0.7-0.1,0.9-0.3c1.3-0.8,2.2-2.9,2.7-4.2
				c0,0-0.7,0.1-1.1,0.3C450.5,50.9,450.4,51.1,450.1,51.9z M440.5,52.4c0.3,0.3,0.6,0.6,0.9,0.9c0.5-0.3,0.7-0.4,1.2-0.6
				c-0.4-0.3-0.6-0.6-0.9-0.9C441.3,51.9,440.8,52.2,440.5,52.4z M449,51.4c-0.2,0.7-0.7,1.1-1,1.6c-1.8-0.7-5.6-1.7-7.8-1.9
				c-0.6,0.6-1.4,1.5-2.3,1.7c-1.3-0.2-2.2-0.5-3.1-0.9c0.5,0,0.7,0,1,0c1.3,0,2.5-0.4,3.3-1c-1.9-0.3-2.3-0.8-1.4-2
				c0.4-0.5,1.1-1.5,2.1-1.3c0.8,0.2,1,1.3,0.9,2.1c2.2,0.3,5,1,7.1,1.7c0.1-0.6-0.2-0.9-0.5-1.3c0.3-0.3,0.8-0.7,1.2-1
				C448.9,49.5,449.3,50.7,449,51.4z M438.8,48.6c0,0-0.4,0.2-0.6,0.6c0.2,0.3,0.5,0.4,1,0.4c0.1,0,0.2,0,0.3,0
				C439.7,49.2,439.2,48.5,438.8,48.6z M415.6,53.1c0.4,0.2,0.7,0.3,1.2,0.5c0.3-0.4,0.5-0.6,0.9-1c-0.5-0.2-0.8-0.4-1.3-0.5
				C416.1,52.4,415.8,52.8,415.6,53.1z M468.7,134.1c-2.8,5.6-6.4,9.1-11.2,12.1c-7.1,4.5-14.4,3.4-16.8,2c0,0,0.2,0.5,0.3,0.6
				c0.1,0.2,0.2,0.4,0.2,0.6c0.9,2.6,0.3,5.2-3.2,5.6c-0.9,0.1-1.9,0.1-3.1,0.7c-0.8,0.4-1.8,1-2.8,2.1c-0.4,0.4-1.3,1.6-1.8,2.5
				l0,0l0,0l0,0c-0.4-0.9-1.3-2.1-1.8-2.5c-1-1.1-2-1.7-2.8-2.1c-1.2-0.6-2.2-0.6-3.1-0.7c-3.5-0.4-4.1-3-3.1-5.6
				c0.1-0.1,0.1-0.4,0.2-0.6l0.3-0.6c-1.8,1-6.1,1.8-11.2,0.4c-0.1,0-0.4-0.1-0.5-0.1c-4.1-1.1-7.7-3.1-10.7-6
				c-3.7-3.5-5.7-7.2-6.4-8.6c-6.7-13.9-5.8-34.5-5.8-36.7c-0.2-23.8,5-37.2,9.6-43.6c-1.4-1.8-2.2-2.9-2.3-3
				c-0.5-0.5-1.2-1.2-2.8-1.4c-0.4-3.1-1.6-6.8-1.6-6.8s3.1,2.2,6,3.5c-0.2,1.6,0.2,2.5,0.6,3.1c0.1,0.1,0.7,0.9,1.8,2.4
				c2-2.5,4.1-4.3,7.5-6.3c0.8-0.5,1.7-0.9,2.6-1.3c-0.1-1.3,0.4-2.5,1.2-3.3c0-0.7,0.6-1.6,1.4-1.9l0,0c0.8-0.2,1.9,0.1,2.5,0.7
				c1.3,0.2,2.5,0.8,3.4,1.8c2.8-0.6,5.9-1,9.5-1.2c0.4-1.8,1.6-3,3-3.7c0.4-0.8,1.4-1.5,2.3-1.6l0,0l0,0l0,0c0.9,0.1,2,0.8,2.3,1.6
				c1.4,0.7,2.5,2,3,3.7c3.6,0.2,6.7,0.7,9.5,1.2c0.9-1,2.1-1.7,3.4-1.8c0.6-0.5,1.7-0.9,2.5-0.7l0,0c0.7,0.3,1.4,1.2,1.4,1.9
				c0.8,0.9,1.3,2.1,1.2,3.3c0.9,0.4,1.8,0.9,2.6,1.3c3.4,1.9,5.7,4,7.6,6.3c1.2-1.6,1.9-2.6,2-2.6c0.4-0.6,0.8-1.5,0.6-3.1
				c2.9-1.3,6-3.5,6-3.5s-1.2,3.7-1.6,6.8c-1.6,0.2-2.4,0.9-2.8,1.4c-0.1,0.1-1,1.3-2.6,3.3c4.5,6.5,9.7,19.8,9.5,43.4
				C474.5,99.2,475.4,120.2,468.7,134.1z M466.6,59.4c-2.8,0.6-4.6,0.6-5.7,0.5c-0.7,1.6-1.3,3-1.3,5.6c-1.2-0.4-1.8-0.7-2.4-1.3
				c-0.8,1.1-1.3,1.7-2.1,2.8c7.5,13.3,7.5,25.6,7.6,29.1c5.8-3.3,9.5-6.4,10.2-7C472.3,76.8,470.4,67.4,466.6,59.4z M454.7,96.6
				c-0.2,1.4-0.2,2.6,0.2,3.9c0.7-0.9,1.1-1.7,1.6-3.3c0,1.2,0.4,2.6,0.6,3.2c0.9-1.3,1.4-6.5,1.4-6.5s0,0.1,0.5,0.3
				c0.5-1.9,0.2-5.7-0.2-7.5c-0.7-3.2-1.9-7-5.8-11.6c-2-2.3-3.7-1.3-5.4,0.6c-2.7,3-3.3,4.3-6.6,4.9c0,0,0,0,0,0
				c-0.3,0.1-0.1,0.2,0.6,0.2c3.9-0.1,5.2-2.7,6.3-4c0.8-0.9,1.8-1.6,2.6-1.1c0.3,0.2,1.4,1.4,0.3,4.5c0-0.7-0.3-1.3-0.4-1.5
				c-0.5,2-1.2,3.7-2,5c-0.1-0.3-0.2-0.6-0.2-1.1c-0.4,2.5-2.6,5.1-2.9,8.6c-0.2-0.4-0.4-0.6-0.4-1.6c-1.7,3.1-3.4,8.6-2.3,11.4
				c-0.1-2.8,1.7-6.9,2.6-8.2c-1.1,3.6-2.5,8.1-1.3,10.8c0.1-2.3,1.4-6.1,2.4-7.7c-1.6,6-2.2,9-0.5,11.3c-0.3-2.2,0.6-5.6,1.8-8.4
				c-0.8,4.7-2,8.7,0.2,10.8c-0.3-3,0.9-7.1,1.5-8.5c-0.7,4.5-1.3,8.9,0.1,11c0-1.6,0.3-3.2,0.6-4.7c0.4-2,1-3.9,1-3.9
				s-0.5,3.1-0.7,7c0,0.6-0.1,1.3,0,1.9c0,0.8,0.1,1.6,0.2,2.3c0.1,0.7,0.3,1.3,0.7,1.9c0.4-5.1,1-9.5,1.7-11.5c0,0-0.6,4.7-1,12
				c0,0.3,0,0.5,0,0.8c-0.5,10.5,0.9,13.8,1.4,14.8c0,0-0.1-0.2-0.1-1.5c0-1.1,0-1.1,0.1-2.3c0-0.4-0.9-2.3-0.8-4.9
				c0.1-1.6,0.2-3.1,0.3-4.6c0.1-1.4,0.2-2.7,0.4-4c0.2-1.2,0.3-2.3,0.4-3.5c0.2-1.7,0.6-3.4,0.9-5c0.2-1.3,0.1-0.2,0.1,0.2
				c-0.1,1.5-0.4,4.8-0.7,8.2c-0.2,2.5-0.7,7.5-0.6,10c0.1,2.1,0.7,3,0.7,3.3c-0.1,4.1,0.3,5.7,1,7.3c0,0,0.4-1.5,0.7-3.3
				c-0.1,0.1-0.2,0.3-0.4,0.4c-0.5-1.3-0.8-3.6-0.4-6c0.1-0.4-0.6-1-0.5-2.9c0.1-3,0.5-6,0.9-9c0.1-1,0.3-2,0.4-2.9
				c0.1-0.6,0.2-1.2,0.3-1.8c0.1-0.9,0.3-1.9,0.5-2.8c0-0.1,0.1-0.3,0.1-0.4c0,0,0,0.7-0.1,1.6c-0.3,4-1.2,14.3-1.3,15.1
				c0,2,0.5,2.6,0.5,3c-0.1,1.5-0.1,4.1,0.1,4.8c0.2-0.6,0.3-1.7,0.3-1.7s0.6-4.2,1.2-10.1c0.1-0.9,0.2-1.8,0.3-2.7
				c0.1-0.9,0.2-1.7,0.3-2.6c0.1-1.1,0.2-2.1,0.3-3.2c0-0.5,0.1-0.9,0.1-1.4c0.2-2.8,0.5-6,0.8-8.7c0,0,0.4-4.5,0.5-5.9
				c-0.1-0.1-0.2-0.2-0.2-0.2s-0.5,5.6-2,7.6c-0.4-0.4-0.9-2.5-0.9-3.2c-0.3,1.1-1.7,2.6-1.7,2.6s-0.5-1.1-0.4-2.9
				c-0.5,0.7-0.9,1.2-1.5,1.5c-0.3-0.6-0.6-1.3-0.6-3.1c-0.2,0.3-0.6,0.7-1.3,1.1c-0.2-0.4-1.2-2,0.6-7.8c-0.7,5.4-0.3,6-0.1,6.4
				c0.3-0.1,0.6-0.4,0.8-0.5c0.1-1,0.2-2.2,0.6-3.8c-0.3,4.3,0.1,5.6,0.4,6.5C453.4,99.2,453.9,98.4,454.7,96.6z M441.6,98.4
				c0.4-5.5,1.4-8.9,2.1-11.8C440.8,89.8,441.2,97.2,441.6,98.4z M442.1,86.3c0.9-2.8,0.1-4.2-0.4-4.5
				C441.7,83.1,442,83.7,442.1,86.3z M444.5,88.6c0.7-2.6,1.1-4.1,1.1-6.2C445,83.1,444.4,85.9,444.5,88.6z M447,83.1
				c0.2-0.9,0.3-2.1,0.1-3.1c-0.4,0.9-0.9,3-0.8,4.9C446.6,84.3,446.9,83.7,447,83.1z M440.3,104.1c0-0.1,0-0.1,0-0.1c0,0,0,0,0,0
				c0,0,0.1,0,0.1,0c0.1,0,0.2,0.1,0.4,0.2c0.1,0.1,0.2,0.1,0.4,0.2c-0.2-0.5-0.3-1.2-0.3-2c-0.1-0.8-0.1-1.7-0.3-2.5
				c0,0-0.1-0.1-0.1-0.1c-0.1,0.4-0.4,0.8-0.7,1.2c-0.4,0.6-0.9,1.1-1,1.9l0,0.1l-0.1-0.1c0.2,0.2-0.6-0.7-0.6-0.8
				c-0.3,1.2-2.4,3.8-2.9,4.4l0,0c-0.1,0.1-0.9,1.3-1.2,4.2c-0.3,2.8,0,4.5,0,4.5l0.7-0.8c0,0,0,0.8-0.1,1.7
				c-0.1,0.7-0.3,1.2-0.3,1.2s1.5,0.2,2.6-1.1l0.2,0.5c0.2,0.5,0.3,1.2-0.1,1.5c-0.1,0.1-0.8,0.7-0.7,1.3c0,0.2,0.1,0.4,0.4,0.6l0,0
				v0c0,0.3,0.3,0.5,0.4,0.6c-0.1-0.3,0-0.5,0-0.6c0.1-0.4,0.4-0.5,0.6-0.5c0.2,0,0.3,0,0.3,0s0.2,1.7,0.3,2.4
				c0.1,0.6,0.3,1.4,0.4,2.3c0,0.2,0,0.4,0.1,0.6c0.1,0.6,0.4,0.6,0.7,0.7c0.2,0,0.6,0,0.7,0l0,0l0,0c-0.4,0.1-0.4,0.3-0.4,0.4
				c0.1,0.3,0.2,0.6,0,1.1l0.1,0.1c0.7-0.4,0.7-1,0.6-1.5v0l0,0c0.5-0.3,0.4-1.3-0.3-2.8c-0.3-0.7-0.5-1.9-0.3-2c0,0,0,0,0,0
				c0.1,0,0.3,0,0.6,0.5c0.2,0.4,0.5,0.6,0.8,1c0.3,0.4,0.5,0.7,0.5,1c0,0.1,0,0.2-0.1,0.2c-0.1,0-0.1,0.1-0.2,0.1
				c-0.1,0-0.3,0-0.5,0c0.2,0.2,0.8,0.9,1,0.6c0.5-0.5,0,0.3,0.9,0.4c0.5,0,0.9-0.3,0.9-1c0-0.2,0-0.4-0.1-0.6
				c-0.1-0.6-0.6-1.2-0.8-1.4l-0.2-0.2c-1.3-1.5-1.2-1.8-1.1-2c0.1-0.2,0.3-0.3,0.6-0.3c0.5,0,1.1,0.1,1.1,0.1
				c0.6,0.1,1.4,0.2,1.4,0.5c0,0.1-0.1,0.1-0.1,0.2c-0.2,0.1-0.5,0.2-0.6,0.1c0.1,0.1,0.2,0.2,0.5,0.4c0.2,0.1,1.1,0.4,1.4-0.1
				l0.1-0.2c0.2,0,0.6-0.1,0.7-0.4c0.1-0.3-0.3-0.7-0.7-0.9c-0.3-0.2-1.2-0.5-2-0.8c-0.3-0.1-0.7-0.2-1-0.2l-1.6-0.4
				c0,0-0.9-0.3-1.2-0.4c-0.2-0.1-0.3-0.1-0.4-0.2c-0.3-0.1-0.5-0.3-0.7-0.6c-0.2-0.2-0.4-0.9-0.6-1.6c0.2,0.1,0.7,0.4,1.3,0.5
				c-0.1-0.2-0.1-1-0.1-1.5c0.3-2.7,0.3-4.2,0.3-4.2s0.5,0.5,0.5,0.6c0.1-0.5-0.1-1.6-0.2-2.7c0,0,0,0,0,0
				C440.8,106.4,440.5,105.1,440.3,104.1z M442.2,116.8l1.3,0.3c0.2,0.1,0.4,0.1,0.6,0.1c0.2-0.6,0.3-1.2,0.3-1.8
				c0-0.7,1.6,0.8,2.6,1.8c0.4,0.4,0.5,0.3,0.3-0.1c-1.1-1.5-3.2-2.8-3.8-3.2c-1-0.6-1.5-0.5-1.2,0.1
				C442.8,114.7,442.7,115.8,442.2,116.8z M444.1,127.3c1.2,1.5,3.1,4.3,3.8,5.1c1.6,1.6,2.2,1.8,3.4,1.9c-0.4-1.1-0.8-2.2-2.6-5.1
				c-1-1.5-2.6-4-4.2-5.8c0,0.3,0,0.6-0.1,0.8c0,0.1-0.1,0.1-0.1,0.2c-0.1,0.2-0.3,0.4-0.4,0.5c-0.3,0.2-0.6,0.3-0.9,0.2
				c-0.3,0-0.6-0.2-0.8-0.4c-0.2,0-0.4,0-0.6-0.1c0.1,0.6,0,1-0.3,1.3c0,0.4-0.1,1.1-0.6,1.6c0.1,0.1,0.1,0.1,0.1,0.1
				c0.4,0.7,0.2,1.1,0,1.3c-0.2,0.2-2.1,2.3-2.5,2.7c-0.5,0.5-1-0.1-1-0.1l-0.3-0.3c0,0-0.5,0.5-0.9,0.9c0,0,0.1,0.1,0.1,0.1l0,0
				c0.6,0.6,1.4,1,2.1,1.3c0.7,0.3,2.7,1,4.1,1.6c-0.3-1-0.7-2.1-1.1-3.3c0.4,0.5,1.3,2.2,2.2,3.7c-0.1,0,0.1,0.1,0.1,0
				c1.1,0.5,2.5,1.2,3.6,1.9c-0.1-0.4-0.2-0.6-0.2-0.6s-1-1-1.7-2c-1.4-2-2.3-4.1-2.7-5.5c1.6,2.4,2,3,2.6,3.9
				c2,2.7,4.1,3.8,4.9,3.8c-0.3-1.5-0.8-1.8-0.8-1.8s-1-0.8-2-2.2c0.2,0.3,0.5,0.7-0.1-0.1c-0.4-0.6-0.2-0.3,0-0.1
				C446.2,131.6,445.1,129.7,444.1,127.3z M438.7,140.3c2.7,0.3,8.4,0.3,10.5-0.5c-0.8-0.6-4-2.7-9-4.7c-1-0.4-2.4-0.9-3.3-1.6
				c-0.6-0.4-0.9-0.7-1.5-1.2c-1.6-1.5-6-6-6.7-6.9l-2.9,2.6c0,0,7.6,7.4,9.5,8.5c2.5,1.3,9.5,2.9,9.5,2.9s-5.4-0.4-9.5-2.1
				c-2.5-1-10.3-8.7-10.3-8.7l-1.9,1.7c1,1.1,3,3.4,6.4,6.2C432,138.5,434.8,139.8,438.7,140.3z M430.5,138.6c0,1.5,1.2,2.9,1.5,3.2
				c0,0,0.4-0.6,0.7-2C431.6,139.3,430.9,138.9,430.5,138.6z M417.5,129.2c-0.4,1.4-1.3,3.5-2.7,5.5c-0.7,1-1.7,2-1.7,2
				s-0.1,0.2-0.1,0.5l-0.2,0.1l1.1-0.6c0.2-0.1,0.4-0.2,0.6-0.3c0.7-0.4,1.6-0.8,2.4-1.1c0.8-1.5,1.8-3.2,2.1-3.7
				c-0.1,0.4-0.3,1.3-1.2,3.3l0.6-0.2c1.3-0.5,2.4-0.9,3-1.2c0.9-0.4,1.3-0.8,1.7-1c0.1-0.1,0.2-0.2,0.4-0.3c0,0-0.9-0.9-0.9-0.9
				l-0.3,0.3c0,0-0.5,0.5-1,0.1c-0.4-0.4-2.3-2.5-2.5-2.7c-0.2-0.2-0.4-0.6,0-1.3c0,0,0,0,0,0c-0.6-0.5-0.7-1.3-0.7-1.6
				c-0.3-0.3-0.4-0.7-0.3-1.3c-0.2,0.1-0.4,0.2-0.6,0.1c-0.2,0.2-0.5,0.4-0.8,0.4c-0.1,0-0.1,0-0.1,0c-0.3,0-0.6-0.1-0.9-0.3
				c-0.3-0.2-0.3-0.2-0.5-0.6c0,0,0-0.1,0-0.1c-1.1,1.1-2.1,2.6-3.6,5c-1.8,2.9-2.3,4-2.6,5.1c1.2-0.1,1.9-0.3,3.4-1.9
				c0.7-0.8,2.6-3.6,3.8-5.1c-1,2.5-2.1,4.4-3,5.6c-1.1,1.5-2.1,2.3-2.1,2.3s-0.5,0.3-0.7,1.8c0.8,0,2.9-1.2,4.9-3.8
				C415.5,132.2,415.9,131.6,417.5,129.2z M416.4,121.3c-0.6,0.6-1,1.3-1,2.2c0,0.6,0.4,1,0.9,1c0.8-0.1,0.4-0.9,0.9-0.4
				c0.2,0.2,0.8-0.5,1-0.6c-0.4,0.1-0.9,0.1-0.8-0.4c0.1-0.4,0.4-0.7,0.6-1c0.2-0.3,0.9-1.5,1.3-1.3c0.2,0.1,0.1,1.3-0.3,2
				c-0.7,1.5-0.9,2.6-0.3,2.8l0,0v0c-0.1,0.5-0.1,1.1,0.6,1.5l0.1-0.1c-0.2-0.5,0-0.9,0-1.1c0-0.1,0-0.2-0.4-0.4l0,0l0,0
				c0.2,0,0.6,0,0.7,0c0.3-0.1,0.6-0.1,0.7-0.7c0-0.2,0-0.4,0.1-0.6c0.1-0.9,0.3-1.7,0.4-2.3c0.1-0.7,0.3-2.4,0.3-2.4s0.2-0.1,0.3,0
				c0.2,0,0.5,0.1,0.6,0.5c0,0.1,0.1,0.3,0,0.6c0.2-0.1,0.4-0.3,0.4-0.6v0l0,0c0.3-0.2,0.4-0.4,0.4-0.6c0.1-0.6-0.6-1.2-0.7-1.3
				c-0.4-0.3-0.3-1-0.1-1.5l0.2-0.6c0.2,0.3,0.5,0.5,0.8,0.7c1,0.7,2,0.5,2,0.5s-0.2-0.5-0.3-1.2c-0.1-0.9-0.1-1.7-0.1-1.7l0.7,0.8
				c0,0,0.4-1.5,0.1-4.3c-0.3-3.2-1-4.5-1.1-4.9c-0.2-0.7-0.6-1.4-0.6-1.4s-0.1,0.4-0.6,0.8c-0.6-0.8-1.7-2.3-2-3.3
				c-0.2,0.3-0.4,0.6-0.6,0.8l-0.1,0.1l0-0.1c-0.1-0.8-0.6-1.3-1-1.9c-0.3-0.4-0.6-0.8-0.7-1.2c-0.3,0.8-0.3,1.8-0.4,2.6
				c-0.1,0.8-0.1,1.6-0.3,2c0.1-0.1,0.3-0.2,0.4-0.2c0.2-0.1,0.3-0.2,0.4-0.2l0.1,0l0,0c0,0,0,0.1,0,0.1c-0.2,1.1-0.5,2.4-0.5,3.1
				c-0.1,1.1,0,2.1,0.1,2.6c0.1-0.1,0.8-0.5,0.8-0.5s-0.5,1.6-0.2,4.3c0,0.4,0,1.2-0.1,1.5c0.5-0.1,0.9-0.3,1.2-0.5
				c-0.2,0.7-0.4,1.4-0.5,1.6c-0.7,0.9-2.1,1.1-3.1,1.4c-1.3,0.3-2.6,0.6-3.7,1.2c-0.4,0.2-0.8,0.6-0.7,0.9c0.1,0.3,0.5,0.4,0.7,0.4
				l0.1,0.2c0.3,0.4,1.2,0.2,1.4,0.1c0.3-0.1,0.5-0.3,0.5-0.4c-0.1,0.1-0.4,0-0.5-0.1c-0.1,0-0.1-0.1-0.1-0.2
				c-0.1-0.5,2.2-0.6,2.6-0.6c0.4,0,0.5,0.1,0.6,0.3C417.6,119.5,417.7,119.8,416.4,121.3z M417,114.1c0.4-0.6-0.2-0.7-1.2-0.1
				c-0.6,0.4-2.7,1.7-3.8,3.2c-0.3,0.4-0.2,0.6,0.3,0.1c1.1-1.1,2.7-2.5,2.6-1.8c0,0.6,0.1,1.2,0.3,1.8c0.2,0,0.3-0.1,0.5-0.1
				l1.4-0.4C416.7,115.7,416.6,114.7,417,114.1z M414.7,93c0.9,1.3,2.6,5.4,2.6,8.2c1.1-2.8-0.7-8.3-2.3-11.4c0,0.9-0.2,1.2-0.4,1.6
				c-0.3-3.5-2.5-6.1-2.9-8.6c-0.1,0.4-0.1,0.7-0.2,1.1c-0.8-1.4-1.5-3-2-5.1c-0.1,0.2-0.4,0.8-0.4,1.5c-1.1-3.1,0-4.3,0.3-4.5
				c0.9-0.5,1.8,0.3,2.6,1.1c1.2,1.3,2.4,3.9,6.3,4c0.6,0,0.9-0.1,0.6-0.2c0,0,0,0,0,0c-3.3-0.6-3.8-1.9-6.5-4.9
				c-1.7-1.8-3.4-2.9-5.4-0.6c-3.9,4.6-5.1,8.4-5.8,11.6c-0.4,1.8-0.7,5.6-0.2,7.5c0.5-0.2,0.5-0.3,0.5-0.3s0.5,5.2,1.4,6.5
				c0.3-0.6,0.6-1.9,0.6-3.2c0.5,1.5,0.9,2.4,1.6,3.3c0.4-1.3,0.4-2.5,0.2-3.9c0.8,1.9,1.4,2.7,1.8,3c0.3-0.8,0.7-2.2,0.4-6.5
				c0.3,1.6,0.5,2.9,0.6,3.8c0.2,0.2,0.5,0.4,0.8,0.5c0.1-0.4,0.6-1.1-0.1-6.4c1.8,5.8,0.8,7.4,0.6,7.8c-0.6-0.4-1-0.8-1.3-1.1
				c0,1.7-0.3,2.5-0.6,3.1c-0.7-0.4-1.1-0.9-1.5-1.5c0.1,1.8-0.4,2.9-0.4,2.9s-1.4-1.5-1.7-2.6c0,0.7-0.4,2.8-0.9,3.2
				c-1.5-2-2-7.6-2-7.6s-0.1,0.1-0.2,0.2c0.1,1.4,0.3,3.5,0.5,5.9v0c0.2,2.8,0.5,5.9,0.8,8.7c0.6,6.7,1.3,13.4,2.2,20
				c0,0,0.1,1.1,0.3,1.7c0.2-0.7,0.3-3.3,0.1-4.8c0-0.4,0.5-1,0.5-3c0-0.8-0.9-11.1-1.3-15.1c0-0.5-0.1-1.6-0.1-1.6
				c0,0.1,0.1,0.3,0.1,0.4c0.3,1.5,0.6,3.1,0.8,4.6c0.1,0.9,0.3,1.9,0.4,2.9c0.4,3,0.8,6,0.9,9c0.1,1.9-0.6,2.5-0.5,2.9
				c0.3,2.4,0.1,4.7-0.4,6c-0.2-0.1-0.3-0.3-0.4-0.4c0.3,1.8,0.7,3.3,0.7,3.3c0.7-1.5,1.1-3.2,1-7.3c0-0.3,0.6-1.2,0.7-3.3
				c0-0.6-0.1-2.6-0.3-5c-0.3-4.4-0.7-8.7-1-13.1c0-0.2-0.1-0.7-0.1-0.8c0.1,0.2,0.1,0.4,0.1,0.6c1.2,5.6,1.7,11.5,2,17.1
				c0.1,2.6-0.8,4.5-0.8,4.9c0.1,1.3,0.1,1.2,0.1,2.3c0,1.3-0.1,1.5-0.1,1.5c0.4-1,1.8-4.3,1.4-14.8c0-0.3,0-0.5,0-0.8
				c-0.4-7.3-1-12-1-12c0.7,2,1.3,6.4,1.7,11.5c0.1-0.1,0.1-0.2,0.1-0.3c0.7-1.9,0.9-3.9,0.7-5.9c-0.2-3.8-0.7-7-0.7-7
				s0.1,0.3,0.1,0.3c0.1,0.4,0.5,1.6,0.9,3.5c0.3,1.3,0.5,2.7,0.6,4.1c0,0.2,0,0.4,0,0.6l0,0c1.5-2.2,0.8-6.5,0.1-11
				c0.6,1.4,1.8,5.5,1.5,8.5c2.2-2.1,1-6.1,0.2-10.8c1.2,2.8,2.1,6.2,1.8,8.4c1.8-2.3,1.1-5.3-0.5-11.3c1,1.6,2.3,5.4,2.4,7.7
				C417.2,101.2,415.9,96.6,414.7,93z M434.4,106.2c0,0,0.9-0.9,1.3-3.8c0.2,0.2,0.5,0.4,0.6,0.9c0.6-0.7,1.8-4.7,1.9-6
				c0.4,0.2,0,0.1,0.5,0.3c0.3-0.6,1-2.8,1.3-5.9c0.1,0,0.4,0,0.5,0.2c0.2-1.4,0.4-3.7,0.5-5.3c0.1-1.4,0-4.2-0.6-5.8
				c-0.6-1.6-0.9-2.5-1.8-4c0,0-0.3,0.2-0.5,0.4c-0.3-0.8-1-2.7-1.3-3.4c-0.9-1.7-1.3-2.9-2.2-3.5c0.4,0,0.6,0.1,1.1,0.1
				c-0.6-0.6-0.8-1-1.5-1.5c0.2-0.1,0.6-0.1,1.3,0c-0.9-0.8-1.2-2.1-3.6-3c0.4-0.1,0.7,0.1,1.3,0.1c-0.3-0.5-1-1.2-2.2-1.6
				c-2.4-0.5-5.8-0.6-7.3,1.3c-0.1,0.1-0.5,0.2-0.9,0.4c-0.3,0.1-0.4,0.2-0.4,0.2c-0.3,0.2-0.3,0.5,0.2,1.2c-0.7-0.1-0.9-0.7-1-0.7
				c-0.2,0.2-0.5,0.4-0.7,0.7c-0.2,0.3-0.4,1.1-0.4,1.4c0.1,0.1,0.6,0.3,0.8-0.4c0-0.2,1.1-0.3,1.5-0.3c0.5,0,1,0.1,1.7,0.1
				c-0.2,0.1-1,0.3-1.3,0.4c-0.3,0.1-0.3,0.4,0,0.4c0.3,0,0.4-0.1,0.7-0.2c0.1,0.1,0,0.4,0.1,0.6c1.9-0.4,2.1,1.6,4.2,1.2
				c-1-0.8-1.8-2-2.6-2.4c2.1,0.3,3.2,2.2,5.4,2.3c-0.1-0.2-0.1-0.2-0.3-0.6c0.8,0,1.3,0.6,1.5,0.6c-0.3,0.3-0.9,0.6-1.8,0.7
				c0.1,0.3,1,0.3,1.3,0.4c-0.4,0.4-1,0.6-2,0.4c-0.3,0.3-0.8,1-2.2,1.9c0-0.4,0-0.4,0.1-0.7c-1,0.6-1.6,1.6-2.3,1.8
				c0.2-0.4,0.4-1,0.5-1.3c-2.5,2.3-4.9,4.4-5.8,6.1c-1,1.8-1.3,3.7-1.2,6.8c0.1,1.7,0.8,6.4,0.9,7.3c0.2-0.1,0.4-0.2,0.5-0.2
				c0.6,3.5,2.4,8.3,3.3,9.9c0.2-0.4,0.3-0.5,0.6-0.7c0.1,0.9,0.6,2,1.4,2.6c0-0.6,0.2-1,0.3-1.2c0.2,0.7,0.1,2.8,1.3,3.9
				c-0.1-0.6,0.1-1.1,0.3-1.8c0.2,0.7,0.2,1.5,0.6,2.2c0.4,0.8,0.9,1.6,1.3,1.8c-0.1-1.6,0.2-1.6,0.3-2.2c0,0.1,0.6,0.7,0.9,2.8
				c1.2-0.9,1.7-4,1.7-4s0.4,0.3,0.6,1.1c1.1-1.1,1.4-2.6,1.7-3.7C434.4,105.1,434.5,105.8,434.4,106.2z M435.6,122.4
				c1.5,0,1.8,0,2.4-0.1c0-0.2-0.1-0.3-0.1-0.5c0-0.1,0-0.2,0-0.4c0,0,0,0,0,0c-0.5,0.1-1.5,0.4-2.8,0.2c-0.6-0.1-0.6-0.1-1.1-0.3
				c-0.4-0.1-1.1,0.6-1.7,1.2c-0.5,0.5-1.1,1.2-1.3,1.5c-0.1,0.1,0,0.1,0,0.1c0.5,0.4,6.5,6,6.9,6.3c0.1,0.1,0.2,0.1,0.3,0
				c0.3-0.3,0.7-0.7,1.1-1.1c0,0-5.9-5.6-6-5.7c-0.1-0.1-0.1-0.2-0.1-0.3s0.3-0.3,0.4-0.4c0-0.1,0.2-0.1,0.3,0
				c0.1,0.1,1.9,1.8,1.9,1.8l2.6,2.3l1.6,1.4c0.2-0.2,0.2-0.2,0.3-0.3c0.2-0.3,0.2-0.4-0.6-1.2c-0.2-0.2-4.2-4.2-4.2-4.2
				C434.8,122.6,435.1,122.4,435.6,122.4z M426.3,123.6c-0.1,0.1-6,5.7-6,5.7c0.4,0.4,0.8,0.8,1.1,1.1c0.1,0.1,0.2,0.1,0.3,0
				c0.4-0.3,6.4-5.8,6.9-6.3c0.1-0.1,0.1-0.1,0-0.1c-0.3-0.3-0.9-1-1.3-1.5c-0.5-0.6-1.2-1.3-1.7-1.2c-0.5,0.1-0.5,0.1-1.1,0.3
				c-1.3,0.2-2.3-0.1-2.8-0.2c0,0-0.1,0-0.1,0c0,0.1,0,0.3-0.1,0.4c0,0.1-0.1,0.3-0.1,0.4c0.6,0.1,1,0.1,2.5,0.1
				c0.5,0,0.8,0.1,0.4,0.6c0,0-3.9,3.9-4.2,4.2c-0.8,0.8-0.9,1-0.6,1.2c0.1,0.1,0,0,0.3,0.3l1.6-1.4l2.6-2.3c0,0,1.9-1.7,1.9-1.8
				c0.1-0.1,0.2-0.1,0.3,0c0,0.1,0.3,0.3,0.4,0.4C426.4,123.4,426.4,123.5,426.3,123.6z M426.9,109.6c0,0,0-0.4-0.2-0.8
				c-0.1-0.2-0.5-0.5-0.7-0.8c-0.2-0.2-0.2-0.3-0.2-0.3c-0.1,0.2,0.1,0.8,0.1,1c0.1,0.2,0.2,0.5,0.5,0.7
				C426.7,109.6,426.9,109.6,426.9,109.6z M426.8,121c0,0,0.4,0.4,0.5,0.5c0.1-0.6,0.4-2.6,0.3-2.8C426.9,120,426.8,120.9,426.8,121
				z M424.4,120.9c0.2-0.1,0.8-0.3,1.1-0.4c0.1,0,0.2,0,0.2-0.1l0,0c0.2-0.6,0.5-1.6,0.7-2C426.2,118.4,424.8,120.5,424.4,120.9z
				 M428.9,123.1c0-0.8-0.1-1.7-0.1-2.1c-0.3,0.4-0.4,0.9-0.5,1.4C428.3,122.5,428.8,123,428.9,123.1z M429.3,117.7
				c0,0-0.1-1-0.9-1.4C428.4,117.1,429.3,117.7,429.3,117.7z M429.9,116L429.9,116L429.9,116c0,0,0.1-0.3,0.6-0.6
				c0.3-0.2,2-1.2,2.3-1.7c0.3-0.4,0.5-1.1,0.5-1.1s-0.3,0.5-1,0.9c-0.6,0.3-1.9,1.1-2.1,1.6c-0.1,0.2-0.2,0.4-0.2,0.5
				c0-0.1,0-0.2-0.1-0.4c-0.4-0.9-1.6-1.2-2.4-2c-0.5-0.6-0.5-0.8-0.5-0.8c0,0.6,0.1,1,0.3,1.3c0.2,0.3,0.8,0.8,1.6,1.3
				C429.7,115.6,429.9,116,429.9,116z M429.1,113c0-1.3-1.5-1.5-1.8-2.8C427.1,112,428.4,112,429.1,113z M429.8,118.3
				c0,0,0.2-0.1,0.6-0.3c0.4-0.2,0.7-0.5,0.9-0.8c0.2-0.4,0.2-0.7,0.1-0.9c0,0-0.1,0.4-0.6,0.8c-0.2,0.2-0.5,0.5-0.7,0.7
				C429.9,118,429.8,118.3,429.8,118.3z M431,119.1c0.1,0.8,0.2,2.7,0.3,3.3l0,0c0.2-0.2,0.4-0.4,0.7-0.7
				C431.9,121.4,431.7,119.9,431,119.1z M429.8,123.9c0,0,0.5-0.6,0.7-0.8c0,0,0,0,0,0c-0.1-1-0.4-2.3-0.7-2.8
				C429.8,120.8,429.8,122.6,429.8,123.9z M429.9,124.5c0,0.4,0,0.8,0,1c0,0,0.5-0.5,0.5-0.5S430,124.6,429.9,124.5z M430.2,126.1
				c0.8,0.9,2,2.1,2.7,2.8c0.5-0.5,0.8-0.8,0.8-0.8l-2.9-2.6C430.6,125.6,430.4,125.8,430.2,126.1z M433.6,129.5
				c0.6,0.6,1.3,1.3,1.9,1.9c0.3-0.4,0.6-0.6,0.8-0.9l-1.9-1.7C434.3,128.7,434,129,433.6,129.5z M434.1,120.6
				c-0.3-0.4-1.1-1.5-1.8-2.1c0.5,1.1,0.7,1.8,0.8,2.1l0,0c0,0,0.1-0.1,0.1-0.1c0.1-0.1,0.2-0.1,0.4-0.1c0.1,0,0.2,0,0.4,0.1
				C434,120.6,434.1,120.6,434.1,120.6z M433.4,109.8c-0.4,0.6-0.7,0.9-1.1,1.3c0.1-0.4,0.2-0.9,0.2-0.9c-0.2,0.5-0.8,1.1-1.1,1.5
				c-0.9,0.9-1,1.7-1,1.7s0.2-0.3,1.3-0.9C432.7,111.8,433.1,110.8,433.4,109.8z M420,98.1c0,1,0.7,2.5,1.7,3.1
				C421.1,99.6,420.7,99.1,420,98.1z M441.6,79c0.4,0,0.8-0.1,1.1-0.3c0.3-0.2,0.4-0.3,0.5-0.5c2.5-3.6,7.1-9.4,10.6-13.9
				c-7.1-7-17.2-7.4-19.8-7.3c-0.6,0.1-1.3,0.5-0.5,1.6c-0.6,0.3-2.7,0.1-3.5-0.7c-0.8,0.8-3,0.9-3.5,0.7c0.8-1,0.1-1.5-0.5-1.6
				c-2.7-0.2-13.3,0.8-19.7,7.1c3.5,4.7,10.9,14.5,11.1,14.7c0.1,0.2,0.5,0.4,1,0.4c0.1,0,0.1,0,0.2,0c0.4,0,0.8-0.3,1.1-0.7
				c0.8-0.8,1.1-1.3,1.9-2.1c1.5-1.5,2.8-2.6,3-2.8c0.6-0.6,0.8-1,0.8-1.5c0-0.5-0.5-0.7-0.7-1.1c0,0.1-0.1,0.1-0.1,0.2
				c-0.2-0.2-0.5-1-0.5-1l-0.1,0.4c0,0-0.5-1.3-1.4-1.2c-1.2,0.2-1.9-0.4-2-0.4c-0.1,0-0.1,0.4-0.1,0.8c0,0,0,0,0,0
				c-0.8-0.7-1.1-2.5,0.5-3.6c1-0.7,1.1-0.7,1.9-1c0.3-0.1,0.6-0.4,0.6-0.5c0.5-0.6,1.5-0.9,2.1-1.1c0.7-0.2,2.4-0.4,4.1-0.3
				c1,0.1,1.9,0.3,2.5,0.5c0.5,0.2,2,1.3,2.8,2.4c0.5,0.7,1.5,2.7,2,3.9c1.1,2.6,0.9,2.3,1.7,4.1c0.8,2,1.3,3.1,2.1,4.2
				C440.8,78.8,441.1,78.9,441.6,79z M454.4,63.6c0.2-0.3,0.5-0.6,0.7-0.9c-3.2-2.8-8-5.7-13.3-6.9c-3.5-0.8-6.4-0.8-8.2-0.8
				c-1.5,0-2.4,0.6-2.4,1.5c-0.9-0.2-1.2-1.3-1.3-1.5c-0.1,0.5-0.5,1.4-1.3,1.5c0-0.9-0.9-1.5-2.4-1.5c-1.8,0-4.6,0-8.2,0.8
				c-5.4,1.2-10,3.8-13.2,6.7c0.2,0.3,0.5,0.6,0.7,0.9c2.9-2.7,6.8-4.9,10.9-6.1c3.4-1,7.6-1.3,9.5-1.3c1.7,0.1,2,1.1,1.8,1.6
				c0.8,0.1,1.9-0.6,2.2-1c0.2,0.3,1.2,1.1,2.2,1c-0.2-0.5,0-1.5,1.8-1.6c1.9-0.1,6.1,0.3,9.5,1.3C447.4,58.5,451.5,60.9,454.4,63.6
				z M456.3,60.1c0.4,1.3,0.8,2.7,1.8,3.5c0.1,0.1,0.3,0.2,0.5,0.3l0,0c0-2.4,0.8-3.7,1.4-5.1l0,0v0c0.9,0.1,2.1,0.5,4.5,0
				c-2.3-1.5-1.8-3.3-3.5-5.1c-0.2-0.2-0.4-0.4-0.6-0.6c-0.6-0.4-1.1-0.6-1.4-0.6c-0.4,0-0.7,0.2-0.8,0.3c-0.2,0.2-2.6,2.8-4.1,4.5
				C455.5,57.4,455.9,58.7,456.3,60.1z M457.8,51.7c-1.6-1.6-4.1-3.3-7.1-4.6c-7.9-3.5-17.9-3.5-20.8-3.5l0,0c0,0,0,0,0,0
				c-2.9,0-12.9,0-20.8,3.5c-3,1.3-5.5,3.1-7.1,4.6c0,0,3.6,4,4.5,5.1c0.5,0.6,0.6,1.1,0.4,1.9c5.5-3.7,11.7-5.5,22.8-5.6h0.5
				c10.9,0.1,17.3,1.9,22.8,5.6c-0.3-0.9-0.1-1.3,0.4-1.9C454.3,55.7,457.8,51.7,457.8,51.7z M401.6,52.9L401.6,52.9
				c-0.2-0.3-0.8-0.7-2.2,0.2c-2.4,2.1-1.7,4-4.2,5.7c0.9,0.2,1.6,0.2,2.2,0.2c0.4,0,0.8,0,1.1-0.1c0.5-0.1,0.8-0.1,1.2-0.2l0,0
				c0.6,1.4,1.4,2.7,1.4,5.1c2.9-1.6,1.7-6.6,4.5-6.5C404.1,55.7,401.9,53.2,401.6,52.9z M403.5,63c2.2,2.9,3.8,5,4.1,5.5
				c0.8,1,3.3,4.1,3.3,3.7c0-0.2-1.6-2.4-2.6-3.8c-1.5-2-3-4-4.5-6C403.8,62.7,403.6,62.8,403.5,63z M414.2,82.5
				c0,2.1,0.4,3.6,1.1,6.2C415.4,86,414.9,83.3,414.2,82.5z M412.7,80.1c-0.1,1-0.1,2.2,0.1,3.1c0.2,0.6,0.5,1.2,0.7,1.8
				C413.6,83.1,413.1,81.1,412.7,80.1z M418.3,98.5c0.4-1.1,0.8-8.6-2.1-11.8C416.9,89.6,417.9,93,418.3,98.5z M410.2,139.8
				c2.1,0.8,7.8,0.9,10.5,0.5c3.4-0.4,6-1.5,8.2-3c-0.6-0.5-1.3-1.1-2-1.8c-1.1,0.9-2.2,1.7-2.8,1.9c-4.1,1.6-9.5,2.1-9.5,2.1
				s7-1.6,9.5-2.9c0.5-0.2,1.3-0.9,2.2-1.7c-0.9-0.9-1.8-1.8-2.5-2.4c-0.4,0.4-0.8,0.7-1.3,1c-0.9,0.6-2.2,1.1-3.3,1.6
				C414.3,137.1,411,139.2,410.2,139.8z M426.9,139.8c0.2,0.7,0.6,1.5,0.8,2c0,0,1.3-1.1,1.7-3.5c-0.3,0.2-0.7,0.5-1,0.8
				C427.9,139.3,427.3,139.6,426.9,139.8z M452.6,68.3c0.3-0.4,1.8-2.4,3.8-5.1c-0.1-0.2-0.3-0.4-0.4-0.5c-1.4,1.8-2.8,3.7-4.1,5.6
				c-1,1.4-2.6,3.6-2.6,3.8C449.2,72.5,451.8,69.4,452.6,68.3z M464.2,55c-0.2,0.3-0.7,1-0.7,1c0.6,1.1,1.3,2.3,3.1,3.2
				C465.8,57.8,465,56.4,464.2,55z M462.5,54.1c0.1,0.1,0.3,0.5,0.3,0.6c4.1-5.4,7.8-10.4,7.8-10.4s-1.6,1.1-3.9,2.2
				c0.2,1.2-0.5,2.8-0.9,3.1C465.8,49.7,464.5,51.5,462.5,54.1z M397.3,52.5c0.2,0.3,0.4,0.5,0.6,0.8c3-3.9,7.1-6.7,12-8.5
				c-0.4-0.6-0.9-1.9,0.5-3.3l0,0c2.1,0.3,2.7,1.6,2.8,2.2c3.8-1,8.4-1.7,13.4-1.8c0.2-3.5,2.7-4.3,2.7-4.3s0-0.7,0.6-0.9h0
				c0.5,0.2,0.6,0.9,0.6,0.9s2.5,0.9,2.7,4.3c5.1,0.2,9.6,0.8,13.4,1.8c0.1-0.7,0.7-1.9,2.8-2.2l0,0c1.4,1.4,0.9,2.7,0.5,3.3
				c4.9,1.8,9.1,4.7,12.2,8.6c0.2-0.3,0.4-0.6,0.6-0.8c-2.8-3.5-6.8-6.4-11.1-8.1c0.5-1.4,0-2.6-0.8-3.4c0-0.6-0.3-1.1-0.7-1.2l0,0
				c-0.4-0.1-1,0.1-1.4,0.6c-1.2,0.2-2.4,0.8-3.1,2.1c-3.2-0.8-6.7-1.3-11.3-1.5c-0.1-2.1-1.3-3.4-2.8-4.1c-0.3-0.7-0.9-1.1-1.5-1.3
				c-0.5,0.1-1.2,0.5-1.5,1.3c-1.5,0.7-2.7,2-2.8,4.1c-4.6,0.2-8.1,0.7-11.3,1.5c-0.7-1.3-1.9-1.9-3.1-2.1c-0.4-0.4-1-0.6-1.4-0.6
				l0,0c-0.4,0.2-0.7,0.7-0.7,1.2c-0.8,0.8-1.3,2-0.8,3.4C404,46.2,400.2,49,397.3,52.5z M397.1,54.5c0.1-0.2,0.2-0.4,0.4-0.5
				c-1.8-2.4-3.1-4.1-3.2-4.2c-0.3-0.4-1.1-1.9-0.9-3.1c-2.3-1.1-3.9-2.2-3.9-2.2S393.1,49.2,397.1,54.5z M393.3,59.3
				c0.4-0.2,1.5-0.9,2.3-2c0.4-0.5,0.6-1,0.9-1.5c0,0-0.8-1-0.8-1C394.8,56.3,394,57.8,393.3,59.3z M386.9,89.1
				c0.7,0.6,4.4,3.7,10.2,7c0.1-3.5,0.2-16,7.7-29.3c-0.9-1.1-1.2-1.6-2.1-2.7c-0.6,0.6-1.4,1.1-2.6,1.4c0.1-2.6-0.5-4.1-1.3-5.6
				c-1.1,0-2.9,0.1-5.7-0.5C389.5,67.4,387.6,76.8,386.9,89.1z M421,145.8l0.1-0.1c0.2-0.6,1.2-2.9,1.7-4.1
				c-0.1-0.2-0.1-0.4-0.2-0.6c-0.7,0.1-1.3,0.2-2,0.3c-0.4,0-7.1,1.1-11.9-1.2c0.6-0.4,1.7-1.3,3.2-2.3c0-0.1,0-0.2,0.1-0.3
				c-1.2,0.6-2.3,0.8-3.1,0.7c-0.1-0.8,0.1-1.8,0.5-2.9c-1.1,0.2-1.9,0-1.9,0s0.7-2.3,2.3-5.2c1.5-2.6,3.5-5.3,5.3-7.5
				c0.2-0.9,0.9-1.6,0.9-1.7c0-0.1,0.3-0.3,0.3-0.3c-0.2-0.2-0.4-0.3-0.6-0.5c-0.2,0.2-0.4,0.3-0.5,0.4c-0.6,0.3-0.9,0.4-1.2,0.4
				c-0.6,0-1-0.1-1.2-0.4l0-0.1c-0.5-0.1-0.8-0.4-0.9-0.8c0-0.1,0-0.1,0-0.2c-0.3,0.1-0.6,0.1-0.9-0.1c-0.4-0.4,0.2-2.2,2.2-4.2
				c1.4-1.3,2.8-2.1,4-2.7c1-0.4,1.5,0.4,1.1,1c-0.6,0.7-1,1.9-0.4,3.1c0.6-0.2,0.8-0.3,0.9-0.3c0.2-0.1,0.5-0.2,0.8-0.6
				c0,0,0.1-0.1,0.1-0.2l-0.9,0.1c0.4-1.1-0.2-3.7,0.2-5.4c-0.1,0.1-0.4,0.3-0.6,0.3c-0.3-1.5-0.3-4-0.1-5.2c0-0.3-0.5-0.9-1.1-1.5
				c-0.5,1.2-1.3,2.7-2.7,4.4c-1.1,1.3-3,2.5-4,6.8c0,0,0,0,0,0c-0.2,0.7-0.4,1.3-0.7,1.9c-0.6,1.3-0.6,2.1-0.6,2.1v0
				c0.1,2.7-0.1,8.2-0.7,11.3c-0.6,2.7-1.6,4.1-1.6,4.1l-0.1-0.1c-0.2,0.9-0.7,2.6-1.8,3.8c0,0-0.9-1.8-2.6-15.7
				c-1.8-15.2-2.7-31.2-2.7-31.2l0,0c-0.2-2.8,0.5-6.1,1.3-8.5c1.5-3.8,4-7.6,5.6-9.1c1-1,2.1-1.2,3.1-1c-0.3-0.4-0.6-0.8-0.6-0.8
				c-1.1-1.4-2.3-2.9-3.3-4.3c-7.4,13.1-7.3,28.8-7.3,28.9l0,1.7l-1.3-0.7c-5.9-3.3-8.4-5.3-10.3-6.9c-0.1,1.6-0.2,7-0.2,7
				c0,0.1,0,1.2,0,3.3c0,6.2,1.1,21.6,6.2,32.2c0.7,1.3,2.6,4.8,6.1,8.1c2.6,2.5,5.7,4.2,9,5.3c0.2,0.1,0.6,0.2,0.8,0.3
				C412.6,148.1,416.8,147.9,421,145.8z M420.7,150.1c0.8-0.6,2-1.1,3.5-0.5c0.1-1.8,0.4-4.6,0.8-7c-0.6,0.6-1.1,0.9-1.2,0.9
				c-0.1,0-0.2-0.1-0.3-0.3C422.3,146.1,420.7,150.1,420.7,150.1z M435.5,151.5c0.1-1.9-0.7-7.2-1.2-10.1c-0.1-0.1-0.1-0.2-0.2-0.2
				c-0.1-0.1-0.2-0.3-0.3-0.4c-0.2,0.6-0.4,1.2-0.7,1.8c-0.3,0.7-0.9,1.5-1,1.5c-0.1,0-1.5-1-2.4-2.9c-0.9,1.9-2.3,2.9-2.4,2.9
				c-0.1,0-0.6-0.8-1-1.5c-0.1-0.3-0.3-0.7-0.4-1c-0.5,3.1-1.1,8.1-1.1,10c-2.9-1.9-4.7,0-4,1.3c0.1,0.1,0.1,0.2,0.2,0.3
				c0.4,0.5,0.8,0.7,1.4,0.8c0.9,0.1,2.2,0.2,3.6,0.8c1.3,0.6,2.7,1.6,4.1,3.3c1.4-1.8,2.8-2.7,4-3.3c1.4-0.6,2.6-0.8,3.6-0.8
				c0.6-0.1,1.1-0.3,1.4-0.8c0.1-0.1,0.1-0.2,0.2-0.3C440.1,151.5,438.4,149.6,435.5,151.5z M439.9,150.1c0,0-1.8-4.5-2.8-7.3
				c-0.3,0.4-0.5,0.6-0.6,0.6c0,0-0.4-0.2-1-0.7c0.4,2.1,0.8,4.8,0.9,6.8C437.9,149,439.1,149.5,439.9,150.1z M473.3,98
				c0-2.1-0.1-5.5-0.2-7.1c-2,1.6-3.8,3.2-10,6.8l-1.6,0.9l0-1.1c0-0.1,0.4-15.8-7.2-29.2c-0.5,0.6-2.1,2.7-3.7,4.8
				c1-0.1,2,0.1,2.8,1c1.6,1.5,4.1,5.2,5.6,9.1c0.8,2.4,1.4,5.7,1.3,8.5l0,0c0,0-0.9,15.9-2.7,31.2c-1.6,13.9-2.6,15.7-2.6,15.7
				c-1.1-1.3-1.5-2.9-1.8-3.8l-0.1,0.1c0,0-1-1.4-1.6-4.1c-0.7-3.1-0.8-8.7-0.7-11.3v0c0,0,0-0.8-0.6-2.1c-0.3-0.6-0.5-1.3-0.7-1.9
				c0,0,0,0,0,0c-1-4.3-2.9-5.5-4-6.8c-1.3-1.6-2.2-3.3-2.8-4.6c0,0-0.1,0.1-0.1,0.1c-0.7,0.7-1.2,1.4-1.3,1.8
				c0.2,2.5,0.5,4.3,0.1,5.5c-0.1-0.1-0.4-0.3-0.5-0.4c0.2,1.6-0.6,3.5-0.1,5.1l-1-0.1c0,0.1,0.1,0.2,0.1,0.2
				c0.1,0.2,0.3,0.3,0.5,0.4c0,0,0.2,0.1,0.3,0.1c0.1,0,0.3,0.1,1,0.4c0.6-1.2,0.1-2.4-0.4-3.1c-0.5-0.6,0.1-1.4,1.1-1
				c1.2,0.5,2.6,1.3,4,2.7c2,1.9,2.6,3.8,2.2,4.2c-0.3,0.3-0.6,0.2-1,0.1c0,0.1,0,0.1,0,0.2c-0.1,0.4-0.4,0.6-0.9,0.8l0,0.1
				c-0.2,0.3-0.6,0.4-1.2,0.4c-0.5,0-1.1-0.3-1.2-0.4c-0.1-0.1-0.2-0.1-0.4-0.3c-0.1,0.1-0.2,0.2-0.4,0.3c1.6,2.2,4.7,5.7,6.9,9.7
				c1.6,2.8,2.3,5.2,2.3,5.2s-0.9,0.3-1.9,0c0.4,1.1,0.6,2.1,0.5,2.9c-0.9,0-2-0.1-3.1-0.7c0,0.2,0.1,0.4,0.1,0.6
				c1,0.7,2.1,1.5,2.6,1.9c-4.8,2.3-11.8,1.2-12,1.2c-0.3,0-0.6-0.1-0.9-0.1c-0.1,0.1-0.1,0.3-0.2,0.4c0.5,1.1,1.6,3.7,1.8,4.3
				c3.1,1.4,5.9,2.3,10.3,1.6c0,0,0.7-0.1,2.6-0.7c1.9-0.6,5.5-2.8,8.3-5.4c3.5-3.2,5.5-6.6,6.2-8c5.3-10.4,6.2-25.9,6.2-32.2
				C473.3,99.2,473.3,98.1,473.3,98z"/>
		</g>
		<g>
			<g>
				<path d="M119.8,108.3h5.3c2.2,0,3.8,0.8,4.7,2.6c0.7,1.5,0.8,4.9,0.8,5.5c0,3.7-0.3,5.8-1.1,7c-0.9,1.5-2.7,2.2-5.7,2.2h-4
					L119.8,108.3L119.8,108.3z M122,123.7h2.1c3.1,0,4.2-1.1,4.2-5.2V115c0-3.5-1.1-4.8-3.4-4.8H122L122,123.7L122,123.7z"/>
				<path d="M134.4,125.6v-17.4h8.9v1.9h-6.7v5.6h6.2v1.9h-6.2v6h6.9v1.9H134.4z"/>
				<path d="M146.7,125.6v-17.4h5.1c2.3,0,4.8,0.9,4.8,5c0,3.9-3.1,4.7-4.9,4.7h-2.9v7.6L146.7,125.6L146.7,125.6z M148.9,116.1h2.4
					c0.9,0,3.1-0.2,3.1-3c0-2.6-2-2.9-2.5-2.9h-3V116.1z"/>
				<path d="M162.5,108.3h2.8l5.6,17.4h-2.5l-1.3-4.1h-6.7l-1.3,4.1H157L162.5,108.3z M163.8,110.3L163.8,110.3l-2.8,9.2h5.5
					L163.8,110.3z"/>
				<path d="M175.4,117.7v8h-2.2v-17.4h6c3.1,0,4.2,2.2,4.2,4.3c0,2-1.1,3.6-3.2,4v0.1c2,0.3,2.7,1,2.8,4.5c0,0.7,0.3,3.5,0.6,4.5
					h-2.3c-0.6-1.2-0.5-3.5-0.7-5.8c-0.2-2.1-1.9-2.2-2.6-2.2C178,117.7,175.4,117.7,175.4,117.7z M175.4,115.7h3.3
					c1.6,0,2.3-1.4,2.3-2.9c0-1.3-0.6-2.6-2.3-2.6h-3.3L175.4,115.7L175.4,115.7z"/>
				<path d="M196.4,108.3v1.9h-4.6v15.4h-2.2v-15.4H185v-1.9H196.4z"/>
				<path d="M200.7,125.6h-2.1v-17.4h3.6l4.4,14.6h0.1l4.4-14.6h3.7v17.4h-2.2v-15.4h-0.1l-4.9,15.4h-2.1l-4.7-15.4h-0.1
					L200.7,125.6L200.7,125.6z"/>
				<path d="M218.6,125.6v-17.4h8.9v1.9h-6.7v5.6h6.2v1.9h-6.2v6h6.9v1.9H218.6z"/>
				<path d="M242.7,108.3v17.4h-3l-6.9-15h-0.1v15h-2v-17.4h3.1l6.7,14.8h0.1v-14.8H242.7z"/>
				<path d="M256.4,108.3v1.9h-4.6v15.4h-2.2v-15.4h-4.6v-1.9H256.4z"/>
				<path d="M263.9,119.3v-5.7c0-3.5,1.8-5.7,5.5-5.7c3.7,0,5.5,2.2,5.5,5.7v5.7c0,4.8-1.8,6.7-5.5,6.7
					C265.7,126,263.9,124.1,263.9,119.3z M272.6,119.4v-5.9c0-3.6-2.5-3.8-3.2-3.8c-0.7,0-3.2,0.1-3.2,3.8v5.9
					c0,3.8,1.1,4.7,3.2,4.7C271.5,124.1,272.6,123.2,272.6,119.4z"/>
				<path d="M278.5,125.6v-17.4h8.6v1.9h-6.4v5.6h6.1v1.9h-6.1v7.9H278.5z"/>
				<path d="M294.8,125.6v-17.4h2.2v7.5h6.1v-7.5h2.2v17.4h-2.2v-7.9H297v7.9H294.8z"/>
				<path d="M309.4,125.6v-17.4h8.9v1.9h-6.7v5.6h6.2v1.9h-6.2v6h6.9v1.9H309.4z"/>
				<path d="M325.3,108.3h2.8l5.6,17.4h-2.5l-1.3-4.1h-6.7l-1.3,4.1h-2.2L325.3,108.3z M326.6,110.3L326.6,110.3l-2.8,9.2h5.5
					L326.6,110.3z"/>
				<path d="M336.1,125.6v-17.4h2.2v15.4h6.4v1.9H336.1z"/>
				<path d="M355,108.3v1.9h-4.6v15.4h-2.2v-15.4h-4.6v-1.9H355z"/>
				<path d="M357.4,125.6v-17.4h2.2v7.5h6.1v-7.5h2.2v17.4h-2.2v-7.9h-6.1v7.9H357.4z"/>
			</g>
			<g>
				<g>
					<path d="M128.2,73.8c0.4,0,0.7-0.1,1-0.4s0.4-0.6,0.4-1s-0.1-0.7-0.4-1s-0.6-0.4-1-0.4c-0.4,0-0.7,0.1-1,0.4s-0.4,0.6-0.4,1
						s0.1,0.7,0.4,1C127.5,73.7,127.8,73.8,128.2,73.8z"/>
					<path d="M123.6,73.8c0.4,0,0.7-0.1,1-0.4s0.4-0.6,0.4-1s-0.1-0.7-0.4-1c-0.3-0.3-0.6-0.4-1-0.4s-0.7,0.1-1,0.4
						c-0.3,0.3-0.4,0.6-0.4,1s0.1,0.7,0.4,1C122.9,73.7,123.2,73.8,123.6,73.8z"/>
					<path d="M250.4,69.1v19.3h-1.8h-7.3l0,0H234h-7.3c0,0,0,0,0,0l0,0h-1.8V76.7l-1.1,0c-2,0.1-3.7,0.4-5.2,0.8s-2.8,1-4,1.6
						s-2.1,1.4-2.9,2.2c-0.8,0.8-1.5,1.6-2,2.4v-4h-2.1v8.7h-2.4h-7.3h-7.3h-7.3h-7.3h-0.7c-0.3,0-0.6,0-0.8-0.1
						c-0.2-0.1-0.4-0.2-0.6-0.3c-0.1-0.1-0.3-0.2-0.4-0.4c-0.1-0.2-0.2-0.5-0.3-0.9c-0.1-0.4-0.2-0.9-0.3-1.6
						c-0.1-0.6-0.2-1.5-0.2-2.5c-0.3-4.2-2.2-6.3-5.8-6.3c-0.9,0-1.7,0.1-2.4,0.4s-1.3,0.6-1.9,1l1.3,1.7c1-0.6,2-1,2.9-1
						c0.4,0,0.8,0,1.2,0.1s0.8,0.3,1.1,0.6c0.4,0.3,0.6,0.7,0.9,1.3c0.2,0.6,0.4,1.3,0.5,2.4c0.1,1.4,0.2,2.5,0.4,3.4
						s0.4,1.6,0.6,2.1h-10.6l0,0h-7.3h-7.3h-7.3h-7.3h-1.3c-0.3,0-0.5-0.2-0.5-0.6v-12c-0.7,0.2-1.6,0.5-2.7,1
						c-1.1,0.4-2.2,1.1-3.3,1.8c-1.1,0.8-2,1.7-2.8,2.8c-0.8,1.1-1.2,2.4-1.2,3.9c0,0.6,0.1,1.2,0.2,1.8c0.2,0.6,0.5,1.2,0.9,1.7
						c0.5,0.5,1.1,1,2,1.4c0.9,0.4,2,0.6,3.3,0.7l0.2-2.1c-1.6-0.1-2.7-0.4-3.5-0.9c-0.7-0.5-1.1-1.3-1.1-2.5c0-0.9,0.2-1.6,0.6-2.3
						c0.4-0.7,0.9-1.3,1.5-1.8c0.6-0.5,1.2-1,1.8-1.3c0.7-0.4,1.2-0.7,1.7-0.9l0,8.9c0,0.9,0.2,1.5,0.6,2c0.4,0.5,1,0.7,1.7,0.7h1.6
						h7.3h7.3h7.3h7.3l0,0h15h7.3h7.3h7.3h7.3h21.5l0,0c0,0,0,0,0,0h7.3h7.3l0,0h7.3h3.9V69.1H250.4z M222.7,88.4h-12.9
						c0.2-0.6,0.5-1.3,0.9-2.3c0.4-1,1.2-2,2.1-3c1-1,2.3-1.9,3.8-2.7c1.6-0.8,3.6-1.3,6-1.5C222.7,79,222.7,88.4,222.7,88.4z"/>
				</g>
				<path d="M255.8,69.2h2.1v21.3h-2.1V69.2z"/>
				<path d="M277.1,90.5h-2.2c-0.7,0-1.5-0.1-2.4-0.3s-1.7-0.5-2.5-0.9c-0.8-0.4-1.4-1-2-1.7c-0.5-0.7-0.8-1.6-0.8-2.7
					c0-1,0.2-1.9,0.6-2.7c0.4-0.8,0.9-1.5,1.5-2.2c0.6-0.6,1.3-1.2,2-1.7c0.7-0.5,1.5-0.9,2.2-1.2c0.7-0.3,1.4-0.6,2.1-0.8
					c0.6-0.2,1.1-0.4,1.5-0.4V90.5z M275,88.3v-9.4c-0.5,0.2-1.1,0.5-1.7,0.9s-1.3,0.8-1.8,1.3s-1.1,1.1-1.5,1.7
					c-0.4,0.6-0.6,1.4-0.6,2.2c0,0.6,0.2,1.1,0.5,1.6c0.4,0.4,0.8,0.8,1.3,1.1c0.5,0.3,1.1,0.5,1.8,0.6c0.6,0.1,1.2,0.2,1.8,0.2H275
					z M272.8,72.5c0,0.4-0.1,0.7-0.4,1c-0.3,0.3-0.6,0.4-1,0.4c-0.4,0-0.7-0.1-1-0.4s-0.4-0.6-0.4-1s0.1-0.7,0.4-1s0.6-0.4,1-0.4
					c0.4,0,0.7,0.1,1,0.4C272.7,71.8,272.8,72.1,272.8,72.5z M277.4,72.5c0,0.4-0.1,0.7-0.4,1c-0.3,0.3-0.6,0.4-1,0.4
					c-0.4,0-0.7-0.1-1-0.4c-0.3-0.3-0.4-0.6-0.4-1s0.1-0.7,0.4-1c0.3-0.3,0.6-0.4,1-0.4c0.4,0,0.7,0.1,1,0.4S277.4,72.1,277.4,72.5z
					"/>
				<g>
					<path d="M346.2,74.7c-0.4-0.2-0.6-0.6-0.6-1.1c0-0.4,0.1-0.6,0.3-0.7c0.2-0.1,0.5-0.2,0.9-0.2c0.5,0,1.1,0.1,1.8,0.4l0.4-1
						c-0.7-0.3-1.5-0.5-2.2-0.5c-0.5,0-1.1,0.1-1.5,0.5c-0.4,0.3-0.7,0.8-0.7,1.6c0,0.3,0.1,0.6,0.2,0.9s0.2,0.5,0.3,0.5h-1.8v1.1
						h5.5V75h-1C347.1,75,346.6,74.9,346.2,74.7z"/>
					<path d="M346,88.4h-4.1h-7.3h-7.3l0,0h-6H314h-7.3h-7.3H292h-7.3l0,0h-1.8V78h-2.1v13.5c0,0.7,0,1.4-0.1,2.1
						c-0.1,0.7-0.2,1.3-0.4,1.8s-0.6,1-1,1.3c-0.5,0.3-1.1,0.5-1.9,0.5v2.1c1.2,0,2.2-0.2,3-0.7c0.7-0.5,1.3-1.1,1.7-1.8
						c0.4-0.8,0.6-1.6,0.7-2.5c0.1-0.9,0.2-1.8,0.2-2.7v-0.9h1.8l0,0h7.3h7.3h7.3h7.3h7.3h6l0,0h7.3h7.3h6.2V78H346L346,88.4
						L346,88.4z"/>
				</g>
				<path d="M351.4,69.2h2.1v21.3h-2.1V69.2z"/>
				<path d="M356.3,78.4c0.5-0.5,1.2-0.9,2.1-1.3s1.8-0.6,3-0.6c1.1,0,2,0.2,2.8,0.7c0.8,0.4,1.5,1,2,1.8c0.5,0.7,0.9,1.6,1.2,2.5
					c0.3,0.9,0.4,1.9,0.4,2.9c0,0.7-0.1,1.4-0.2,2.1c-0.1,0.7-0.3,1.3-0.4,1.8c-0.2,0.5-0.4,1-0.5,1.4s-0.3,0.7-0.4,0.9h-10.1v-2.1
					h8.7c0.2-0.4,0.3-0.9,0.5-1.6c0.2-0.7,0.3-1.5,0.3-2.5c0-0.8-0.1-1.5-0.3-2.2c-0.2-0.7-0.5-1.3-0.9-1.8
					c-0.4-0.5-0.8-0.9-1.4-1.2c-0.6-0.3-1.2-0.5-1.8-0.5c-0.6,0-1.1,0.1-1.8,0.3c-0.6,0.2-1.3,0.6-2,1.1L356.3,78.4z"/>
			</g>
		</g>
	</g>
</g>
</svg>
