<svg xmlns="http://www.w3.org/2000/svg" viewBox="0 0 273.59 103.82"><defs><style>.cls-1,.cls-2{fill:#015a67;}.cls-2{font-size:16.72px;font-family:CorporateS-Bold, Corporate S;font-weight:700;}</style></defs><g id="Layer_2" data-name="Layer 2"><g id="Layer_1-2" data-name="Layer 1"><path class="cls-1" d="M28.78,81.54a33.91,33.91,0,0,1-13.49-2.75A23.84,23.84,0,0,1,5,70.72,25.09,25.09,0,0,1,.36,59.08,45.29,45.29,0,0,1,0,53.13a59.72,59.72,0,0,1,.81-8.57A46.15,46.15,0,0,1,4.37,33a50.57,50.57,0,0,1,6.55-11A45.19,45.19,0,0,1,9.38,10.87a37.12,37.12,0,0,1,1.17-9.52,1.81,1.81,0,0,1,.59-1A1.26,1.26,0,0,1,11.73,0c.6,0,.78.74.54,2.21a42,42,0,0,0-.36,6.32,59.35,59.35,0,0,0,1.17,10.41A43.29,43.29,0,0,1,30,5.41,39.09,39.09,0,0,1,45.73,2.17a48.39,48.39,0,0,1,4.87.26Q64.49,4,69.37,13.08a16.75,16.75,0,0,1,2,7.85,21,21,0,0,1-1.89,8.39q-4,8.66-13.62,12.8a33.7,33.7,0,0,1-13.62,2.71,46.7,46.7,0,0,1-6.41-.45Q19.67,42,13.44,29,11.28,32.12,9,39.33A56.15,56.15,0,0,0,6.32,50.42C6.07,53,6,55.17,6,56.92a40.66,40.66,0,0,0,.37,5.41,17.83,17.83,0,0,0,3.78,9,16.39,16.39,0,0,0,8.44,5.6,32.7,32.7,0,0,0,9.15,1.58q12.54,0,21.38-5.24a28.12,28.12,0,0,0,8.34-7.17,68.07,68.07,0,0,0,6.45-11c.37-.78.74-1.05,1.13-.81s.38.81,0,1.72a79.91,79.91,0,0,1-6.36,11,33,33,0,0,1-8,7.58,37.42,37.42,0,0,1-21.82,7M15.25,26.16Q21.64,42.48,42,42.49q11.44,0,18.35-6.41t6.9-14.52a14.21,14.21,0,0,0-7-12.63,23.57,23.57,0,0,0-12.9-3.34A31,31,0,0,0,31.84,10,49.84,49.84,0,0,0,15.25,26.16"/><path class="cls-1" d="M67.74,58.54a17.91,17.91,0,0,0-1.26,6.86,6.43,6.43,0,0,0,1.13,4,3.78,3.78,0,0,0,3.2,1.49q8.2,0,14.88-15.43.63-1.44,1.53-1.26a.43.43,0,0,1,.37.45,38.68,38.68,0,0,1-2,4.74,38.13,38.13,0,0,1-4.11,7.08q-4.61,6.31-11.36,6.31A8.7,8.7,0,0,1,64,70.45,8.34,8.34,0,0,1,61.43,64a21.92,21.92,0,0,1,1.94-8.61A33,33,0,0,1,68.64,47a20.31,20.31,0,0,1,7.67-5.73,10,10,0,0,1,4-.9A6.26,6.26,0,0,1,83.8,41.4a3.64,3.64,0,0,1,1.53,2.8q0,5.41-6.49,10.37a19.18,19.18,0,0,1-5.6,2.75,18.59,18.59,0,0,1-5.5,1.22M82.89,44.11c0-1.2-.48-1.81-1.44-1.81q-2.52,0-7.67,6.23A46.15,46.15,0,0,0,68.37,57a14.29,14.29,0,0,0,4.47-1.08A17.4,17.4,0,0,0,77.93,53q5-4.24,5-8.93"/><path class="cls-1" d="M98.14,36.26q0,4.07-5.14,7.67c1.2.06,2.81.09,4.82.09s4.56-.15,7.63-.45a3.41,3.41,0,0,1,.17,1.44,9,9,0,0,1-1.08,3.47c-.72,1.54-1.36,2.86-1.93,4L101,55.61c-.51,1-1.08,2.21-1.71,3.65s-1.16,2.77-1.58,4q-2.26,6.85.72,6.86,3.8,0,11.18-15.07c.42-.78.77-1.08,1-.9a.81.81,0,0,1,.41.68,12.35,12.35,0,0,1-1.18,2.79q-1.17,2.4-2.52,4.92a33.91,33.91,0,0,1-4.24,5.86c-2.28,2.77-4.48,4.15-6.58,4.15q-3.52,0-4.87-4.24a7.81,7.81,0,0,1-.28-2.43,12.92,12.92,0,0,1,1-4.33,47.57,47.57,0,0,1,3.29-6.59q2.26-3.87,2.53-4.55a3.53,3.53,0,0,0,.27-1.31c0-1.86-2.41-2.86-7.22-3L90.2,49Q84.51,63.86,79.29,68.91c-.6.55-.91.37-.91-.54a1.35,1.35,0,0,1,.19-.63A69.17,69.17,0,0,0,87.31,52a85.49,85.49,0,0,0,5.14-17.32c.37-1.86,1.21-2.8,2.53-2.8s2.29.84,2.89,2.53a6,6,0,0,1,.27,1.89"/><path class="cls-1" d="M107.16,65.22q0-7.5,7.22-25.08h-4.69a.58.58,0,0,1-.59-.5,1.42,1.42,0,0,1,.09-1,.71.71,0,0,1,.67-.49h5.42q3.24-7.12,6-11.91c1.86-3.19,3.58-5.34,5.14-6.45s2.69-1.67,3.38-1.67a4.4,4.4,0,0,1,1.49.18q2.08,1,2.08,4.11A18.36,18.36,0,0,1,131.33,30q-2.07,4.41-4.05,8.21h4.32a.57.57,0,0,1,.59.49,1.42,1.42,0,0,1-.09,1,.73.73,0,0,1-.68.5h-5.23a65.38,65.38,0,0,1-12,14.88l-2.07,9.2a10.3,10.3,0,0,0-.27,2.3,4.81,4.81,0,0,0,.63,2.3,2.09,2.09,0,0,0,2,1.18,7,7,0,0,0,3.43-1.09q4.33-3.24,9.56-13.62a1.7,1.7,0,0,1,.86-1c.33-.12.53,0,.59.23a2.57,2.57,0,0,1-.27,1.31,85.74,85.74,0,0,1-4.69,8.83q-4.87,7.86-10.38,7.85a5.83,5.83,0,0,1-4.6-2.07,7.69,7.69,0,0,1-1.8-5.23m17-25.08h-4.24q-1.09,2.52-4.87,12a69.62,69.62,0,0,0,9.11-12m1.17-2q6-10.65,6-14.8,0-1.8-.63-1.8c-.66,0-1.67,1-3,2.89s-3.62,6.49-6.81,13.71Z"/><path class="cls-1" d="M131,70.45a5.55,5.55,0,0,0,3.61-1.71q3.34-3.34,8.48-13.63.63-1.35,1.26-.81a.82.82,0,0,1,.18.59,7.24,7.24,0,0,1-.72,2c-.48,1.06-.92,2-1.31,2.84s-1.14,2.21-2.25,4.11a28.88,28.88,0,0,1-3,4.37q-3.7,4.25-7,4.24t-4.74-2A7.35,7.35,0,0,1,124,66a14.26,14.26,0,0,1,1.17-5.32L131,46a4.68,4.68,0,0,0,.18-1.44,4.41,4.41,0,0,0-1.08-2.35l5-.09c1.38,0,2.2.26,2.44.77s.06,1.31-.54,2.39l-7.22,16.87a14.15,14.15,0,0,0-1.53,5.68c0,1.75.93,2.62,2.79,2.62m8.84-33.11a4.16,4.16,0,0,1-2.8,1.09,3,3,0,0,1-2.43-1.09,3.3,3.3,0,0,1-.72-2.61,4.39,4.39,0,0,1,1.53-2.62,4.21,4.21,0,0,1,2.8-1.08,3.14,3.14,0,0,1,2.48,1.08,3,3,0,0,1,.68,2.62,4.38,4.38,0,0,1-1.54,2.61"/><path class="cls-1" d="M132.5,103.82c-3.3,0-5-1.65-5-5q0-7.12,9.29-29a6.27,6.27,0,0,1-1.08-3q0-3.8,1.71-5.05a3.62,3.62,0,0,1,2.13-1.08,4.34,4.34,0,0,1,1.12.09Q151,37.61,159.2,22.28a16.25,16.25,0,0,1,3.34-4.78A6.26,6.26,0,0,1,166.87,16a14.4,14.4,0,0,1,1.81.27,7.66,7.66,0,0,0,2.16.18q-4.25,4-11.9,17.5T144.41,62.87a15,15,0,0,1,2.89,6.77l.27,1.17h.27q2.43,0,5.14-2.84a30.11,30.11,0,0,0,4.42-5.87q1.71-3,2.79-5.32a11.52,11.52,0,0,1,1.36-2.48.67.67,0,0,1,.5-.13,1,1,0,0,1,.4.18.53.53,0,0,1,.18.45,1.57,1.57,0,0,1-.18.68q-7.48,17-14.7,17,.09,1.44.09,4.74a44.69,44.69,0,0,1-1.62,9.79,32.68,32.68,0,0,1-5.46,11.63q-3.84,5.14-8.26,5.14m-.09-5c0,1.75.48,2.62,1.45,2.62q1.71,0,4.73-4a35.17,35.17,0,0,0,5.14-11,43.88,43.88,0,0,0,2.12-12.68v-.9H145a6.86,6.86,0,0,1-4.42-1.44q-8.2,20.75-8.21,27.42m12.72-27.69h.54A10.84,10.84,0,0,0,143.51,65l-2,4.51c.59,1.14,1.8,1.71,3.6,1.71"/><path class="cls-1" d="M164.53,70.45a5.53,5.53,0,0,0,3.6-1.71q3.35-3.34,8.48-13.63c.43-.9.85-1.17,1.27-.81a.86.86,0,0,1,.18.59,7.43,7.43,0,0,1-.73,2c-.48,1.06-.91,2-1.3,2.84s-1.14,2.21-2.26,4.11a28.88,28.88,0,0,1-3,4.37c-2.47,2.83-4.79,4.24-7,4.24s-3.78-.66-4.73-2A7.3,7.3,0,0,1,157.58,66a14.26,14.26,0,0,1,1.17-5.32L164.53,46a4.72,4.72,0,0,0,.17-1.44,4.33,4.33,0,0,0-1.08-2.35l5-.09c1.38,0,2.19.26,2.43.77s.06,1.31-.54,2.39l-7.22,16.87a14.15,14.15,0,0,0-1.53,5.68c0,1.75.93,2.62,2.8,2.62m8.84-33.11a4.19,4.19,0,0,1-2.8,1.09,3,3,0,0,1-2.44-1.09,3.3,3.3,0,0,1-.72-2.61A4.35,4.35,0,0,1,169,32.11,4.19,4.19,0,0,1,171.74,31a3.14,3.14,0,0,1,2.48,1.08,3,3,0,0,1,.68,2.62,4.36,4.36,0,0,1-1.53,2.61"/><path class="cls-1" d="M193.3,51.69c2.11-2.53,3.16-4.66,3.16-6.41s-.72-2.61-2.17-2.61q-4.24,0-9.65,7.75a33.59,33.59,0,0,0-3.34,6.41A19.17,19.17,0,0,0,179.68,64,9.25,9.25,0,0,0,181,69.19a4.51,4.51,0,0,0,4.06,2,10.36,10.36,0,0,0,5.1-1.31,14.53,14.53,0,0,0,4.46-4.15,49.09,49.09,0,0,0,3.2-4.73c.72-1.27,1.72-3.16,3-5.69.42-.84.78-1.18,1.08-1a.69.69,0,0,1,.45.63,13.92,13.92,0,0,1-1.22,3q-1.22,2.58-2.43,4.83a34.28,34.28,0,0,1-3.48,5,13.44,13.44,0,0,1-11.09,5.05c-3.37,0-5.79-.82-7.26-2.48a8.31,8.31,0,0,1-2.21-5.73,22.64,22.64,0,0,1,1.94-8.65A38.16,38.16,0,0,1,181,47.81q5.24-7.12,12.09-7.13,3.33,0,4.83,1.58a5.17,5.17,0,0,1,1.49,3.65,6.66,6.66,0,0,1-2.53,5.23,3.52,3.52,0,0,1-2.12,1.18,2,2,0,0,1-1.49-.63"/><path class="cls-1" d="M223,55.34a37,37,0,0,0-3.56,8.57,23.19,23.19,0,0,0-.59,4.6c0,1.17.45,1.76,1.35,1.76q1.71,0,4.24-3.16a64.35,64.35,0,0,0,7.3-12c.25-.54.52-.84.82-.9q.72-.27.72.54a2.92,2.92,0,0,1-.27,1.09q-8.31,16.77-14,16.77a4.87,4.87,0,0,1-4.24-2.52,7,7,0,0,1-.81-3.61,21.2,21.2,0,0,1,.9-5.5q-7.22,11.63-12.45,11.63a4.16,4.16,0,0,1-2.61-.9c-1.81-1.26-2.71-3.43-2.71-6.49q0-8.85,7.67-17.95a19.86,19.86,0,0,1,10.64-6.59,12.76,12.76,0,0,1,3.25-.45,9.55,9.55,0,0,1,7,2.89,1.78,1.78,0,0,1,.55,1.89,1.26,1.26,0,0,1-1.54.72,4.16,4.16,0,0,0-4.33-3.24q-3.87,0-9.56,6.13a49.45,49.45,0,0,0-6,8.48q-3.52,5.86-3.52,9.38c0,2.34.75,3.52,2.26,3.52q5.4,0,14.16-16.6a21.17,21.17,0,0,1,2.88-4.56,4,4,0,0,1,3-1.21,15.4,15.4,0,0,1,1.85.27,5.72,5.72,0,0,0,2.21.09c-1.08,1.08-2.62,3.53-4.6,7.35"/><path class="cls-1" d="M229.47,65.22q0-7.5,7.22-25.08H232a.59.59,0,0,1-.59-.5,1.42,1.42,0,0,1,.09-1,.72.72,0,0,1,.68-.49h5.41q3.25-7.12,6-11.91c1.86-3.19,3.58-5.34,5.14-6.45s2.7-1.67,3.39-1.67a4.44,4.44,0,0,1,1.49.18q2.07,1,2.07,4.11A18.48,18.48,0,0,1,253.65,30q-2.09,4.41-4.06,8.21h4.32a.57.57,0,0,1,.59.49,1.42,1.42,0,0,1-.09,1,.72.72,0,0,1-.67.5H248.5a65.61,65.61,0,0,1-12,14.88l-2.07,9.2a9.77,9.77,0,0,0-.28,2.3,4.81,4.81,0,0,0,.63,2.3,2.1,2.1,0,0,0,2,1.18,7,7,0,0,0,3.42-1.09q4.34-3.24,9.57-13.62a1.67,1.67,0,0,1,.86-1c.32-.12.52,0,.58.23a2.57,2.57,0,0,1-.27,1.31,85.74,85.74,0,0,1-4.69,8.83q-4.87,7.86-10.37,7.85a5.82,5.82,0,0,1-4.6-2.07,7.65,7.65,0,0,1-1.81-5.23m17-25.08h-4.24q-1.08,2.52-4.87,12a69.12,69.12,0,0,0,9.11-12m1.17-2q6-10.65,6-14.8c0-1.2-.22-1.8-.64-1.8-.66,0-1.66,1-3,2.89s-3.62,6.49-6.81,13.71Z"/><path class="cls-1" d="M253.73,58.54a17.91,17.91,0,0,0-1.26,6.86,6.43,6.43,0,0,0,1.13,4,3.78,3.78,0,0,0,3.2,1.49q8.2,0,14.89-15.43.63-1.44,1.53-1.26a.43.43,0,0,1,.36.45,38.68,38.68,0,0,1-2,4.74,38.15,38.15,0,0,1-4.1,7.08q-4.6,6.31-11.37,6.31a8.72,8.72,0,0,1-6.14-2.34A8.34,8.34,0,0,1,247.42,64a22.1,22.1,0,0,1,1.94-8.61A33,33,0,0,1,254.63,47a20.39,20.39,0,0,1,7.67-5.73,10,10,0,0,1,4-.9,6.21,6.21,0,0,1,3.52,1.08,3.64,3.64,0,0,1,1.53,2.8q0,5.41-6.49,10.37a19.24,19.24,0,0,1-5.59,2.75,18.7,18.7,0,0,1-5.51,1.22m15.16-14.43c0-1.2-.48-1.81-1.44-1.81q-2.54,0-7.67,6.23A46.18,46.18,0,0,0,254.36,57a14.29,14.29,0,0,0,4.47-1.08,17.59,17.59,0,0,0,5.1-2.89q4.95-4.24,5-8.93"/><rect class="cls-1" x="0.06" y="91.29" width="118.92" height="0.82"/><text class="cls-2" transform="translate(150.73 94.25)">of Achievement</text></g></g></svg>