<?xml version="1.0" encoding="utf-8"?>
<!-- Generator: Adobe Illustrator 24.2.0, SVG Export Plug-In . SVG Version: 6.00 Build 0)  -->
<svg version="1.1" id="Layer_1" xmlns="http://www.w3.org/2000/svg" xmlns:xlink="http://www.w3.org/1999/xlink" x="0px" y="0px"
	 viewBox="0 0 118.59 99.36" style="enable-background:new 0 0 118.59 99.36;" xml:space="preserve">
<style type="text/css">
	.st0{clip-path:url(#SVGID_2_);fill:#FFFFFF;}
	.st1{clip-path:url(#SVGID_4_);fill:#ED3F42;}
	.st2{clip-path:url(#SVGID_6_);fill:#ED3F42;}
	.st3{clip-path:url(#SVGID_8_);fill:#ED3F42;}
	.st4{clip-path:url(#SVGID_10_);fill:#ED3F42;}
	.st5{clip-path:url(#SVGID_12_);fill:#ED3F42;}
	.st6{clip-path:url(#SVGID_14_);}
	.st7{clip-path:url(#SVGID_16_);}
	.st8{clip-path:url(#SVGID_18_);}
	.st9{clip-path:url(#SVGID_20_);}
	.st10{clip-path:url(#SVGID_22_);}
	.st11{clip-path:url(#SVGID_24_);}
	.st12{clip-path:url(#SVGID_26_);}
	.st13{clip-path:url(#SVGID_28_);}
	.st14{clip-path:url(#SVGID_30_);}
	.st15{clip-path:url(#SVGID_32_);}
	.st16{clip-path:url(#SVGID_34_);}
	.st17{clip-path:url(#SVGID_36_);}
	.st18{clip-path:url(#SVGID_38_);}
	.st19{clip-path:url(#SVGID_40_);}
	.st20{clip-path:url(#SVGID_42_);}
	.st21{clip-path:url(#SVGID_44_);}
	.st22{clip-path:url(#SVGID_46_);}
	.st23{clip-path:url(#SVGID_48_);}
	.st24{clip-path:url(#SVGID_50_);}
	.st25{clip-path:url(#SVGID_52_);}
	.st26{clip-path:url(#SVGID_54_);}
	.st27{clip-path:url(#SVGID_56_);}
	.st28{clip-path:url(#SVGID_58_);}
	.st29{clip-path:url(#SVGID_60_);}
	.st30{clip-path:url(#SVGID_62_);}
	.st31{clip-path:url(#SVGID_64_);}
	.st32{clip-path:url(#SVGID_66_);}
	.st33{clip-path:url(#SVGID_68_);}
</style>
<g>
	<defs>
		<rect id="SVGID_1_" x="-867.75" y="-131.05" width="1405.17" height="993.56"/>
	</defs>
	<clipPath id="SVGID_2_">
		<use xlink:href="#SVGID_1_"  style="overflow:visible;"/>
	</clipPath>
	<path class="st0" d="M72.46,48.68c-1.11,2.18-2.49,3.54-4.38,4.74c-2.76,1.75-5.63,1.33-6.57,0.79c0,0,0.08,0.18,0.1,0.24
		c0.03,0.06,0.07,0.17,0.09,0.23c0.37,1,0.12,2.03-1.23,2.18c-0.35,0.04-0.75,0.06-1.22,0.27c-0.33,0.16-0.69,0.4-1.09,0.82
		c-0.17,0.17-0.52,0.62-0.69,0.97v0v0c-0.17-0.35-0.52-0.8-0.69-0.97c-0.4-0.42-0.76-0.66-1.09-0.82c-0.47-0.22-0.87-0.23-1.22-0.27
		c-1.35-0.16-1.59-1.19-1.23-2.19c0.02-0.06,0.06-0.16,0.09-0.22l0.1-0.25c-0.68,0.4-2.38,0.7-4.35,0.17
		c-0.05-0.01-0.15-0.04-0.19-0.05c-1.59-0.42-2.99-1.21-4.18-2.33c-1.44-1.35-2.22-2.8-2.52-3.36c-2.62-5.43-2.25-13.48-2.26-14.34
		c-0.09-9.3,1.97-14.51,3.74-17.03c-0.53-0.7-0.86-1.13-0.88-1.15c-0.18-0.18-0.48-0.46-1.11-0.54c-0.17-1.22-0.63-2.67-0.63-2.67
		s1.22,0.88,2.35,1.37c-0.09,0.61,0.07,0.99,0.23,1.21c0.02,0.03,0.28,0.37,0.7,0.93c0.78-0.97,1.61-1.69,2.92-2.44
		c0.32-0.18,0.65-0.35,1.02-0.52c-0.02-0.5,0.15-0.96,0.47-1.3c0.02-0.29,0.26-0.65,0.54-0.75l0,0c0.3-0.08,0.75,0.06,0.97,0.27
		c0.49,0.07,0.97,0.33,1.31,0.72c1.08-0.23,2.3-0.4,3.71-0.49c0.17-0.68,0.61-1.18,1.15-1.45c0.14-0.29,0.55-0.59,0.9-0.61h0h0h0
		c0.35,0.02,0.76,0.32,0.9,0.61c0.55,0.27,0.99,0.77,1.15,1.45c1.41,0.09,2.63,0.26,3.71,0.49c0.35-0.39,0.82-0.65,1.31-0.72
		c0.23-0.21,0.68-0.35,0.98-0.27h0c0.29,0.11,0.53,0.47,0.55,0.75c0.33,0.33,0.5,0.8,0.47,1.3c0.36,0.16,0.7,0.34,1.02,0.52
		c1.31,0.76,2.22,1.58,2.98,2.48c0.47-0.62,0.75-1,0.77-1.03c0.16-0.22,0.31-0.6,0.23-1.21c1.14-0.49,2.36-1.37,2.36-1.37
		s-0.46,1.45-0.63,2.67c-0.63,0.09-0.93,0.37-1.11,0.54c-0.03,0.03-0.4,0.51-1,1.31c1.76,2.54,3.79,7.71,3.7,16.95
		C74.73,35.04,75.08,43.25,72.46,48.68 M66.65,21.41c-2.76-2.72-6.71-2.91-7.73-2.83c-0.24,0.02-0.52,0.21-0.21,0.61
		c-0.22,0.1-1.06,0.03-1.38-0.27c-0.32,0.29-1.16,0.37-1.38,0.27c0.31-0.4,0.03-0.59-0.21-0.61c-1.04-0.08-5.19,0.33-7.69,2.77
		c1.38,1.83,4.27,5.64,4.33,5.72c0.06,0.07,0.2,0.17,0.37,0.17c0.02,0,0.05,0,0.07,0c0.15-0.01,0.29-0.11,0.44-0.28
		c0.3-0.33,0.45-0.51,0.74-0.81c0.57-0.58,1.1-1.02,1.19-1.1c0.24-0.22,0.32-0.4,0.33-0.58c-0.02-0.21-0.18-0.29-0.28-0.42
		c0,0.02-0.04,0.05-0.05,0.07c-0.09-0.07-0.2-0.39-0.2-0.39l-0.05,0.15c0,0-0.21-0.51-0.55-0.47c-0.46,0.06-0.76-0.14-0.8-0.15
		c-0.03-0.01-0.05,0.15-0.04,0.33c-0.01,0-0.01,0-0.02-0.01c-0.32-0.27-0.41-0.96,0.2-1.41c0.38-0.28,0.45-0.27,0.73-0.4
		c0.12-0.06,0.22-0.18,0.25-0.21c0.2-0.24,0.59-0.37,0.81-0.43c0.28-0.08,0.95-0.17,1.62-0.13c0.38,0.02,0.73,0.11,0.98,0.21
		c0.2,0.08,0.77,0.5,1.09,0.92c0.21,0.27,0.57,1.05,0.77,1.54c0.42,1.03,0.37,0.92,0.66,1.6c0.33,0.78,0.52,1.21,0.84,1.65
		c0.11,0.15,0.23,0.21,0.44,0.22c0.16,0.01,0.32-0.02,0.45-0.11c0.13-0.08,0.15-0.13,0.19-0.18C63.5,25.45,65.3,23.19,66.65,21.41"
		/>
</g>
<g>
	<defs>
		<rect id="SVGID_3_" x="-867.75" y="-131.05" width="1405.17" height="993.56"/>
	</defs>
	<clipPath id="SVGID_4_">
		<use xlink:href="#SVGID_3_"  style="overflow:visible;"/>
	</clipPath>
	<path class="st1" d="M59.9,51.7c-0.02,0.02-0.03,0.05-0.05,0.06c-0.01,0.01-0.01,0.01-0.02,0.01c0,0-0.01,0-0.01-0.01
		c-0.06-0.03-0.23-0.13-0.43-0.32c0.22,0.83,0.41,2.18,0.46,3.29c0.59-0.25,1.06-0.06,1.37,0.19C61.21,54.91,60.03,52.01,59.9,51.7
		C59.9,51.7,59.9,51.7,59.9,51.7"/>
</g>
<g>
	<defs>
		<rect id="SVGID_5_" x="-867.75" y="-131.05" width="1405.17" height="993.56"/>
	</defs>
	<clipPath id="SVGID_6_">
		<use xlink:href="#SVGID_5_"  style="overflow:visible;"/>
	</clipPath>
	<path class="st2" d="M65.42,24.78c0.01,0,0.02,0.01,0.02,0.01c0.03,0.01,0.07,0.02,0.1,0.03c0.19,0.07,0.36,0.19,0.5,0.34
		c0.56,0.58,1.47,1.99,2,3.44c0.29,0.91,0.51,2.16,0.45,3.22l0,0c0,0-0.33,6.02-0.97,11.78c-0.59,5.24-0.91,5.93-0.91,5.93
		c-0.38-0.48-0.53-1.1-0.62-1.45l-0.06,0.05c0,0-0.34-0.52-0.55-1.56c-0.23-1.17-0.28-3.27-0.25-4.29l0,0.01c0,0,0.02-0.3-0.22-0.81
		c-0.11-0.24-0.19-0.48-0.25-0.73c0,0-0.01-0.01-0.01-0.01c-0.36-1.61-1.05-2.07-1.43-2.57c-0.48-0.63-0.77-1-0.94-1.37
		c-0.28,0.27-0.5,0.54-0.51,0.69c0.1,0.97,0.18,1.66,0.04,2.16c-0.06-0.03-0.15-0.13-0.2-0.17c0.06,0.64-0.24,1.39-0.05,1.98
		l-0.38-0.05c0.02,0.04,0.03,0.08,0.04,0.09c0.05,0.07,0.1,0.12,0.19,0.16c0.02,0.01,0.09,0.05,0.12,0.06
		c0.04,0.02,0.13,0.05,0.39,0.14c0.22-0.48,0.05-0.95-0.17-1.21c-0.18-0.22,0.04-0.54,0.41-0.38c0.48,0.21,1.01,0.52,1.56,1.04
		c0.79,0.75,1.03,1.48,0.86,1.62c-0.13,0.11-0.23,0.09-0.38,0.03c0,0.03,0,0.06-0.01,0.09c-0.04,0.14-0.16,0.25-0.34,0.29
		l-0.02,0.03c-0.08,0.12-0.22,0.16-0.46,0.16c-0.2,0-0.43-0.12-0.46-0.14c-0.04-0.02-0.09-0.05-0.16-0.11
		c-0.07,0.06-0.15,0.12-0.22,0.18c0.01,0.01,0.09,0.1,0.09,0.1c0.05,0.05,0.31,0.34,0.37,0.67c0,0,0.02,0.11,0.02,0.16
		c0.66,0.78,1.43,1.73,1.98,2.67c0.59,1,0.85,1.83,0.85,1.83s-0.31,0.1-0.72,0.01c0.15,0.4,0.22,0.75,0.19,1.02
		c-0.32,0.01-0.73-0.03-1.16-0.26c0.03,0.13,0.05,0.27,0.07,0.41c0.59,0.38,1.02,0.73,1.25,0.89c-1.88,0.88-4.61,0.48-4.67,0.47
		c-0.16-0.02-0.3-0.04-0.42-0.06c0,0-0.08-0.02-0.09-0.02c0,0,0.67,1.6,0.79,1.86c1.2,0.55,2.31,0.91,4.03,0.62
		c0,0,0.29-0.03,1.02-0.27c0.75-0.25,2.16-1.08,3.24-2.09c1.35-1.26,2.16-2.59,2.43-3.11c2.08-4.07,2.43-10.12,2.43-12.56
		c0-0.8,0-1.23,0-1.27c-0.01-0.82-0.06-2.05-0.09-2.67c-0.73,0.64-1.64,1.3-4.49,2.87l-0.5,0.29l-0.02-0.59
		c0-0.05-0.03-5-2.55-11.24C66.21,23.73,65.81,24.26,65.42,24.78"/>
</g>
<g>
	<defs>
		<rect id="SVGID_7_" x="-867.75" y="-131.05" width="1405.17" height="993.56"/>
	</defs>
	<clipPath id="SVGID_8_">
		<use xlink:href="#SVGID_7_"  style="overflow:visible;"/>
	</clipPath>
	<path class="st3" d="M55.07,54.73c0.05-0.96,0.21-2.28,0.4-3.21c-0.05,0.04-0.15,0.12-0.2,0.15c-0.04,0.03-0.12,0.08-0.15,0.1
		c-0.01,0-0.01,0-0.01,0.01c0,0-0.01,0-0.01-0.01c-0.02-0.01-0.06-0.07-0.07-0.08c-0.21,0.5-1.32,3.22-1.33,3.24
		C54.01,54.67,54.48,54.49,55.07,54.73"/>
</g>
<g>
	<defs>
		<rect id="SVGID_9_" x="-867.75" y="-131.05" width="1405.17" height="993.56"/>
	</defs>
	<clipPath id="SVGID_10_">
		<use xlink:href="#SVGID_9_"  style="overflow:visible;"/>
	</clipPath>
	<path class="st4" d="M59.49,55.45c0.04-0.85-0.36-3.35-0.53-4.37l0,0c-0.06-0.02-0.12-0.04-0.18-0.07
		c-0.05,0.14-0.1,0.28-0.17,0.42c-0.12,0.26-0.32,0.53-0.36,0.53c-0.03-0.01-0.55-0.36-0.88-1.04c-0.33,0.68-0.84,1.02-0.88,1.03
		c-0.04,0-0.23-0.27-0.36-0.53c-0.07-0.15-0.13-0.29-0.18-0.44c-0.01,0.01-0.01,0.02-0.02,0.03c-0.16,1.05-0.54,3.59-0.5,4.44
		c-1.13-0.74-1.81,0-1.58,0.52c0.02,0.05,0.05,0.09,0.08,0.12c0.14,0.18,0.31,0.28,0.56,0.3c0.36,0.02,0.84,0.06,1.39,0.32
		c0.5,0.23,1.04,0.62,1.58,1.3c0.55-0.68,1.08-1.07,1.58-1.3c0.55-0.26,1.03-0.29,1.39-0.32c0.25-0.02,0.42-0.13,0.56-0.3
		c0.03-0.04,0.05-0.08,0.08-0.12C61.3,55.45,60.62,54.71,59.49,55.45"/>
</g>
<g>
	<defs>
		<rect id="SVGID_11_" x="-867.75" y="-131.05" width="1405.17" height="993.56"/>
	</defs>
	<clipPath id="SVGID_12_">
		<use xlink:href="#SVGID_11_"  style="overflow:visible;"/>
	</clipPath>
	<path class="st5" d="M42.8,48.34c0.28,0.51,1.02,1.89,2.37,3.15c1.02,0.96,2.21,1.65,3.53,2.07c0.08,0.03,0.23,0.08,0.31,0.1
		c1.52,0.48,3.18,0.38,4.81-0.43l0.02-0.05c0.11-0.3,0.77-1.85,0.77-1.85c-0.03,0.01-0.05,0.01-0.08,0.02
		c-0.29,0.05-0.59,0.1-0.89,0.13c-0.18,0.02-2.77,0.42-4.66-0.47c0.28-0.19,0.85-0.67,1.63-1.12c0.01-0.08,0.03-0.16,0.04-0.24
		c-0.43,0.23-0.84,0.27-1.16,0.26c-0.03-0.27,0.05-0.62,0.2-1.02c-0.41,0.09-0.72-0.01-0.72-0.01s0.27-0.83,0.85-1.83
		c0.46-0.78,1.07-1.57,1.64-2.26c-0.04-0.08-0.06-0.16-0.06-0.26c0-0.11,0.02-0.2,0.03-0.27c0.06-0.35,0.34-0.64,0.37-0.68
		c0.02-0.02,0.1-0.11,0.11-0.12c-0.08-0.07-0.15-0.13-0.22-0.18c-0.08,0.08-0.14,0.12-0.19,0.14c-0.22,0.1-0.35,0.14-0.47,0.14
		c-0.24,0.01-0.38-0.04-0.46-0.16l-0.01-0.03c-0.18-0.05-0.3-0.15-0.34-0.3c-0.01-0.03-0.01-0.06-0.01-0.09
		c-0.13,0.05-0.23,0.06-0.34-0.05c-0.17-0.15,0.06-0.87,0.86-1.62c0.55-0.53,1.08-0.83,1.56-1.05c0.37-0.16,0.59,0.16,0.41,0.38
		c-0.22,0.26-0.39,0.73-0.17,1.21c0.23-0.08,0.32-0.11,0.35-0.13c0.09-0.04,0.2-0.07,0.31-0.22c0.01-0.01,0.03-0.04,0.04-0.08
		l-0.33,0.04c0.17-0.42-0.09-1.44,0.08-2.1c-0.05,0.03-0.16,0.11-0.23,0.13c-0.12-0.6-0.1-1.56-0.05-2.02
		c-0.01-0.13-0.2-0.35-0.45-0.6c-0.18,0.34-0.46,0.69-0.89,1.26c-0.38,0.5-1.07,0.95-1.43,2.57c0,0,0,0.01,0,0.01
		c-0.02,0.06-0.03,0.13-0.05,0.19c-0.02,0.07-0.04,0.14-0.07,0.21c-0.02,0.05-0.03,0.09-0.05,0.13c-0.03,0.07-0.05,0.14-0.09,0.21
		c-0.23,0.51-0.22,0.8-0.22,0.8v-0.01c0.02,1.01-0.02,3.12-0.25,4.29c-0.21,1.03-0.55,1.55-0.55,1.55l-0.05-0.05
		c-0.09,0.35-0.24,0.96-0.62,1.45c0,0-0.32-0.69-0.91-5.93c-0.65-5.76-0.97-11.78-0.97-11.78l0,0c-0.06-1.06,0.15-2.32,0.45-3.22
		c0.5-1.47,1.44-2.86,2-3.44c0.15-0.16,0.33-0.29,0.54-0.35c0,0,0.13-0.03,0.19-0.04c-0.41-0.54-0.82-1.09-1.22-1.62
		c-2.54,6.27-2.57,11.25-2.57,11.3l-0.03,0.59l-0.5-0.29c-2.85-1.57-3.76-2.24-4.49-2.87c-0.03,0.62-0.09,2.66-0.09,2.66
		c0,0.04,0,0.48,0,1.28C40.37,38.23,40.81,44.22,42.8,48.34"/>
</g>
<g>
	<defs>
		<rect id="SVGID_13_" x="-867.75" y="-131.05" width="1405.17" height="993.56"/>
	</defs>
	<clipPath id="SVGID_14_">
		<use xlink:href="#SVGID_13_"  style="overflow:visible;"/>
	</clipPath>
	<path class="st6" d="M61.19,30.53c0.26,0.33-0.06,0.85-0.28,1.2C61.01,31.24,61.07,30.86,61.19,30.53 M54.31,27.91
		c0.23-0.82,0.69-1.28,0.85-1.76C54.33,26.73,54.16,27.63,54.31,27.91 M59.5,34.6c0.5-0.61,0.76-1.32,0.54-2.04
		C59.6,33.25,59.59,33.95,59.5,34.6 M61.04,29.14c-0.35,0.08-0.22,1.47-0.23,1.46C60.8,30.59,61.34,29.66,61.04,29.14 M54.09,31.56
		c-0.19,0.82,0.62,1.6,0.63,1.61C54.72,33.18,54.72,32.21,54.09,31.56 M54.08,32.89c-0.03,0.15,0.09,0.6,0.25,0.86
		c0.28,0.47,0.5,0.69,0.72,0.91C54.7,34.13,54.42,33.15,54.08,32.89 M60.77,27.03c-0.06,0.42,0.43,1.37,0.45,1.45
		C61.23,28.41,61.5,27.61,60.77,27.03 M53.33,28.98c-0.06-0.4,0.44-0.77,0.26-1.42C53.09,28.12,53.19,28.65,53.33,28.98
		 M54.67,30.03c-0.01,0.35-0.01,0.67-0.09,1.04c-0.23-0.06-0.34-0.21-0.51-0.36c0.14,0.46,0.71,1,0.8,1.13
		C54.95,31.22,54.98,30.45,54.67,30.03 M57.58,22.15c0.15,0.15,0.64,0.36,0.91,0.61C58.46,22.34,58.09,22.12,57.58,22.15
		 M59.06,25.58c0-0.31-0.1-0.85-0.81-0.96C58.21,24.99,58.83,25.21,59.06,25.58 M56.09,21.92c0,0,0.06,0.1,0.03,0.27
		c-0.02,0.17-0.1,0.33-0.35,0.39c-0.26,0.06-0.54-0.1-0.55-0.38c0-0.07,0.02-0.17,0.05-0.23c-0.09,0.01-0.09,0.07-0.18,0.18
		c-0.05,0.06-0.14,0.06-0.26,0.14c0-0.16,0.18-0.42,0.38-0.51c0.3-0.13,1.32-0.18,2.05,0.2c-0.25-0.05-0.48-0.03-0.72-0.05
		C56.25,21.91,56.09,21.92,56.09,21.92 M55.96,21.92c-0.03-0.02-0.26-0.02-0.29,0.03c-0.03,0.05,0.14,0.12,0.19,0.14
		c0.03,0.01,0.08-0.01,0.1-0.05C56,21.99,55.99,21.94,55.96,21.92 M56.97,22.14c0.23,0.28,0.47,0.52,0.86,0.49
		C57.55,22.29,57.17,22.17,56.97,22.14 M60.78,32.19c-0.32,0.44-0.42,1.42-0.52,1.75C60.38,33.83,60.97,32.43,60.78,32.19
		 M58.84,23.49c-0.02-0.09-0.25-0.42-0.74-0.52c0.13,0.13,0.22,0.35,0.26,0.43c-0.1,0.05-0.35,0.08-0.44,0.09
		C58.1,23.62,58.43,23.65,58.84,23.49 M58.78,26.58c-0.33,0.36-0.02,1.06,0.17,1.7C59.12,27.97,59.33,26.92,58.78,26.58 M60.53,28.2
		c-0.19,0.87-0.57,1.2-0.57,1.2c0,0-0.3-0.24-0.56-0.58c-0.02,0.7,0.59,1.38,0.58,1.38C59.97,30.19,60.71,29.61,60.53,28.2
		 M59.6,25.19c-0.07,0.39,0.56,0.99,0.56,0.99C60.16,26.19,60.24,25.43,59.6,25.19 M58.28,24.25c0.16,0.16,0.68,0.29,0.97,0.56
		C59.22,24.36,58.76,24.09,58.28,24.25 M67.08,29.16c-0.14,1.47-0.25,1.77-0.4,2.03c-0.12-0.09-0.23-0.39-0.23-0.39
		c-0.04,0.27,0.02,0.67,0.23,0.89C66.98,31.3,67.18,30.49,67.08,29.16 M53.61,31.5c-0.11-0.69-0.07-1.16-0.41-1.77
		C53.09,30.46,53.53,31.39,53.61,31.5 M64.51,33.09c0,0-0.23-0.56,0.3-2.23c-0.77,1.71-0.67,2.17-0.5,2.75
		c0.33-0.25,0.46-0.42,0.53-0.8C64.72,33,64.51,33.09,64.51,33.09 M64,31.64c0,0-0.18-0.38,0.29-1.83
		c-0.86,1.39-0.49,2.35-0.49,2.35s0.45-0.24,0.57-0.76C64.24,31.57,64,31.64,64,31.64 M67.75,32.59c0,0,0.37-0.62,0.18-1.65
		c-0.05,0.97-0.26,1.34-0.26,1.34s-0.13-0.09-0.16-0.16C67.49,32.42,67.75,32.59,67.75,32.59 M66.98,31.61
		c-0.02,0.34,0.26,0.55,0.26,0.55s0.45-0.69,0.27-1.87c-0.09,1.11-0.32,1.49-0.32,1.49S67.01,31.69,66.98,31.61 M66.81,28.18
		c-0.22,1.64-0.46,2.02-0.64,2.3c-0.12-0.1-0.24-0.51-0.24-0.51c-0.06,0.3-0.01,0.76,0.22,1.01C66.49,30.56,66.86,29.67,66.81,28.18
		 M60.31,37.81c0,0-0.01-0.26-0.09-0.35c-0.07,0.32-0.49,0.99-0.4,1.78c0.19-0.7,0.73-0.84,0.87-1.49c0.12,0.08,0.22,0.11,0.34,0.12
		c-0.07-0.26-0.25-0.52-0.32-1.06C60.66,36.99,60.59,37.52,60.31,37.81 M66.41,27.57c-0.21,1.36-0.57,1.93-0.76,2.2
		c-0.15-0.45-0.11-0.89-0.11-0.89c-0.21,0.64-0.15,1.17,0.07,1.44C65.97,29.93,66.48,28.7,66.41,27.57 M65.1,28.83
		c-0.1-0.46-0.05-1.15-0.05-1.15c-0.27,0.62-0.23,1.46-0.04,1.75c0.39-0.36,0.93-1.42,0.96-2.56C65.64,28.21,65.31,28.58,65.1,28.83
		 M58.32,31.45c0,0,0.63-0.59,0.69-1.79c-0.35,0.59-0.74,0.93-0.74,0.93c0,0-0.34-0.23-0.62-0.57
		C57.65,30.79,58.33,31.45,58.32,31.45 M48.92,29.77c-0.19-0.27-0.55-0.84-0.76-2.2c-0.07,1.13,0.45,2.36,0.81,2.75
		c0.21-0.27,0.28-0.8,0.07-1.44C49.03,28.88,49.07,29.32,48.92,29.77 M50.06,33.09c0,0-0.21-0.09-0.34-0.29
		c0.07,0.39,0.2,0.56,0.53,0.8c0.17-0.58,0.27-1.04-0.5-2.75C50.29,32.54,50.06,33.09,50.06,33.09 M49.47,28.83
		c-0.21-0.25-0.54-0.62-0.88-1.96c0.04,1.14,0.58,2.2,0.97,2.56c0.19-0.29,0.22-1.13-0.04-1.75C49.52,27.68,49.58,28.37,49.47,28.83
		 M54.44,22.27c-0.04,0.03-0.08,0.17,0.08,0.17c0.13,0.01,0.16-0.14,0.16-0.14S54.5,22.23,54.44,22.27 M47.89,31.19
		c-0.15-0.26-0.26-0.56-0.4-2.03c-0.1,1.33,0.1,2.14,0.39,2.53c0.21-0.22,0.27-0.62,0.23-0.89C48.11,30.79,48.01,31.1,47.89,31.19
		 M46.91,32.28c0,0-0.22-0.36-0.26-1.34c-0.19,1.04,0.18,1.65,0.18,1.65s0.25-0.18,0.25-0.48C47.04,32.19,46.91,32.28,46.91,32.28
		 M47.39,31.78c0,0-0.23-0.38-0.32-1.49c-0.18,1.19,0.27,1.87,0.27,1.87s0.28-0.21,0.26-0.55C47.57,31.69,47.39,31.78,47.39,31.78
		 M48.4,30.48c-0.17-0.28-0.42-0.66-0.63-2.3c-0.05,1.49,0.32,2.38,0.65,2.8c0.23-0.25,0.28-0.71,0.22-1.01
		C48.63,29.97,48.52,30.37,48.4,30.48 M54.64,39.19c0.1-0.78-0.33-1.46-0.4-1.78c-0.09,0.1-0.09,0.35-0.09,0.35
		c-0.28-0.3-0.35-0.82-0.41-1c-0.06,0.54-0.25,0.8-0.32,1.06c0.12-0.01,0.23-0.05,0.34-0.12C53.9,38.35,54.44,38.49,54.64,39.19
		 M50.58,31.64c0,0-0.24-0.07-0.37-0.25c0.12,0.52,0.57,0.76,0.57,0.76s0.38-0.97-0.49-2.35C50.76,31.26,50.58,31.64,50.58,31.64
		 M58.3,35.68c0.15-0.34,0.52-0.96,0.44-1.69C58.42,34.26,58.27,35.24,58.3,35.68 M58.25,37.9c0.15-0.36,0.47-0.72,0.46-1.88
		C58.37,36.37,58.22,37.46,58.25,37.9 M58.42,32.45c-0.14,0.49-0.36,0.81-0.72,1.18c-0.15-0.14-0.31-0.31-0.52-0.73
		c-0.08,0.81,0.38,1.29,0.65,1.46C58,34.23,58.55,33.46,58.42,32.45 M57.57,38.35c0.18-0.47,0.17-1.05-0.03-1.3
		C57.38,37.55,57.37,37.99,57.57,38.35 M57.05,36.95c0.18-0.53,0.14-1.18-0.09-1.47C56.8,36.03,56.81,36.53,57.05,36.95
		 M72.46,48.68c-1.11,2.18-2.49,3.54-4.38,4.74c-2.76,1.75-5.63,1.33-6.57,0.79c0,0,0.08,0.18,0.1,0.24
		c0.03,0.07,0.07,0.17,0.09,0.23c0.37,1,0.12,2.03-1.23,2.18c-0.35,0.04-0.75,0.06-1.22,0.28c-0.33,0.16-0.69,0.4-1.09,0.82
		c-0.17,0.18-0.52,0.62-0.69,0.97c-0.17-0.35-0.52-0.8-0.69-0.97c-0.4-0.41-0.77-0.66-1.09-0.82c-0.47-0.22-0.86-0.23-1.22-0.28
		c-1.35-0.15-1.59-1.19-1.23-2.19c0.02-0.05,0.06-0.16,0.09-0.22l0.1-0.25c-0.68,0.4-2.38,0.7-4.35,0.17
		c-0.05-0.01-0.15-0.04-0.2-0.05c-1.59-0.42-2.99-1.21-4.18-2.33c-1.44-1.35-2.22-2.81-2.52-3.36c-2.63-5.43-2.25-13.48-2.27-14.34
		c-0.09-9.3,1.97-14.51,3.74-17.03c-0.53-0.7-0.86-1.13-0.88-1.15c-0.18-0.18-0.48-0.46-1.11-0.54c-0.17-1.22-0.63-2.67-0.63-2.67
		s1.22,0.88,2.35,1.37c-0.08,0.61,0.08,0.99,0.23,1.21c0.02,0.03,0.28,0.37,0.7,0.93c0.78-0.97,1.61-1.68,2.93-2.44
		c0.31-0.18,0.65-0.35,1.01-0.51c-0.02-0.5,0.15-0.96,0.47-1.3c0.02-0.28,0.26-0.64,0.55-0.75h0c0.3-0.08,0.75,0.06,0.97,0.27
		c0.49,0.07,0.97,0.33,1.31,0.72c1.08-0.23,2.3-0.4,3.71-0.49c0.17-0.68,0.61-1.18,1.15-1.45c0.14-0.3,0.55-0.6,0.9-0.61h0h0
		c0.35,0.02,0.76,0.32,0.9,0.61c0.55,0.27,0.99,0.77,1.15,1.45c1.41,0.09,2.63,0.26,3.71,0.49c0.35-0.39,0.82-0.65,1.32-0.72
		c0.22-0.21,0.67-0.35,0.97-0.27c0.29,0.11,0.53,0.47,0.55,0.75c0.33,0.34,0.5,0.8,0.47,1.3c0.36,0.16,0.7,0.34,1.02,0.51
		c1.31,0.76,2.22,1.58,2.98,2.48c0.47-0.62,0.75-1,0.77-1.03c0.16-0.22,0.31-0.6,0.23-1.21c1.13-0.49,2.35-1.37,2.35-1.37
		s-0.45,1.45-0.63,2.67c-0.63,0.09-0.93,0.37-1.11,0.54c-0.03,0.03-0.4,0.51-1,1.31c1.76,2.54,3.79,7.71,3.7,16.95
		C74.73,35.04,75.08,43.25,72.46,48.68 M71.62,19.47c-1.05,0.24-1.8,0.23-2.21,0.22c-0.28,0.61-0.51,1.17-0.49,2.2
		c-0.42-0.13-0.71-0.3-0.94-0.52c-0.33,0.44-0.68,0.9-1.03,1.36c2.3,5.49,2.65,10.08,2.71,11.43c3.74-2.13,4.27-2.74,4.45-3.01
		C73.84,26.33,73.16,22.62,71.62,19.47 M66.53,33.73c-0.06,0.54-0.06,0.99,0.07,1.49c0.24-0.33,0.4-0.65,0.57-1.23
		c0,0.47,0.13,0.99,0.23,1.2c0.32-0.49,0.5-2.47,0.5-2.47s0.01,0.05,0.17,0.11c0.17-0.71,0.08-2.15-0.06-2.84
		c-0.25-1.2-0.69-2.65-2.06-4.38c-0.71-0.89-1.31-0.49-1.91,0.21c-0.96,1.12-1.17,1.62-2.33,1.84c-0.12,0.02-0.03,0.08,0.2,0.08
		c1.39-0.03,1.83-1.01,2.24-1.5c0.28-0.33,0.63-0.62,0.93-0.44c0.11,0.07,0.49,0.54,0.1,1.7c0-0.26-0.09-0.49-0.15-0.55
		c-0.18,0.77-0.42,1.39-0.71,1.91c-0.04-0.13-0.07-0.25-0.09-0.41c-0.14,0.94-0.93,1.91-1.04,3.25c-0.08-0.14-0.16-0.24-0.16-0.58
		c-0.6,1.17-1.21,3.27-0.83,4.32c-0.02-1.07,0.6-2.61,0.92-3.1c-0.41,1.38-0.88,3.08-0.47,4.1c0.03-0.88,0.5-2.3,0.84-2.9
		c-0.56,2.26-0.8,3.41-0.17,4.28c-0.11-0.85,0.21-2.13,0.65-3.18c-0.29,1.76-0.71,3.3,0.06,4.08c-0.11-1.15,0.3-2.69,0.52-3.23
		c-0.25,1.66-0.47,3.28,0.01,4.11c0.01-0.27,0.04-0.57,0.08-0.9c0.19-1.4,0.47-2.26,0.47-2.26s-0.16,1.19-0.25,2.64
		c-0.09,1.41,0.15,2.07,0.31,2.35c0.14-1.92,0.35-3.58,0.59-4.35c0,0-0.21,1.8-0.34,4.55c-0.21,4.19,0.32,5.51,0.48,5.89
		c0,0-0.03-0.08-0.05-0.58c-0.01-0.43-0.02-0.4,0.03-0.88c0.01-0.14-0.33-0.87-0.28-1.85c0.13-2.75,0.47-5.45,0.76-6.71
		c-0.03,0.5-0.51,6.4-0.48,7.16c0.04,0.79,0.25,1.14,0.25,1.26c-0.04,1.54,0.1,2.17,0.35,2.75c0,0,0.15-0.55,0.26-1.24
		c-0.02,0.04-0.07,0.12-0.15,0.14c-0.18-0.5-0.28-1.38-0.15-2.28c0.02-0.16-0.2-0.37-0.19-1.09c0.04-1.82,0.54-5.35,0.76-6.39
		c0.02,0.14-0.47,5.95-0.48,6.33c-0.01,0.76,0.18,0.99,0.17,1.13c-0.05,0.55-0.03,1.57,0.05,1.82c0.07-0.22,0.11-0.64,0.11-0.64
		s0.46-3.55,0.79-7.58c0.16-1.99,0.37-4.47,0.43-5.57c-0.02-0.02-0.04-0.04-0.04-0.04s-0.18,2.11-0.71,2.86
		c-0.14-0.14-0.31-0.93-0.3-1.2c-0.12,0.42-0.6,0.98-0.6,0.98s-0.17-0.42-0.15-1.11c-0.16,0.25-0.3,0.44-0.55,0.58
		c-0.1-0.24-0.22-0.52-0.2-1.21c-0.09,0.13-0.24,0.31-0.49,0.46c-0.06-0.16-0.42-0.76,0.22-2.96c-0.26,2.04-0.1,2.27-0.05,2.44
		c0.13-0.06,0.25-0.17,0.33-0.24c0.03-0.37,0.09-0.83,0.19-1.43c-0.09,1.62,0.03,2.13,0.15,2.45
		C66.04,34.73,66.25,34.43,66.53,33.73 M61.37,36.94c0-0.02,0-0.04,0.01-0.06c0,0,0.01-0.01,0.01-0.01c0.01,0,0.02,0,0.02,0
		c0.03,0,0.07,0.02,0.14,0.07c0.04,0.02,0.09,0.06,0.15,0.09c-0.09-0.19-0.1-0.47-0.13-0.79c-0.02-0.32-0.04-0.69-0.14-1.01
		c0,0,0,0.01-0.01,0.01c0-0.01-0.01-0.02-0.01-0.03c-0.05,0.16-0.17,0.31-0.29,0.46c-0.17,0.22-0.34,0.45-0.39,0.75l-0.01,0.06
		l-0.05-0.04c-0.06-0.05-0.13-0.13-0.18-0.21c-0.02-0.02-0.03-0.05-0.05-0.08v0c0-0.01-0.01-0.01-0.01-0.02
		c-0.13,0.48-0.94,1.5-1.13,1.72l0,0c-0.03,0.04-0.34,0.5-0.46,1.65c-0.11,1.08,0,1.75,0,1.75l0.29-0.31c0,0,0.01,0.3-0.02,0.65
		c-0.03,0.27-0.12,0.48-0.12,0.48s0.57,0.1,1.01-0.44l0.08,0.21c0.07,0.21,0.13,0.46-0.04,0.58c-0.03,0.02-0.3,0.26-0.27,0.5
		c0.01,0.08,0.06,0.16,0.16,0.23l0.01,0.01v0.01c0.01,0.13,0.11,0.2,0.18,0.24c-0.02-0.11-0.01-0.18,0.01-0.23
		c0.06-0.15,0.17-0.2,0.25-0.2c0.07,0,0.12,0.01,0.12,0.01l0.02,0l0,0.02c0,0.01,0.06,0.65,0.12,0.92c0.05,0.24,0.11,0.55,0.15,0.89
		c0.01,0.08,0.02,0.15,0.02,0.23c0.03,0.23,0.16,0.25,0.27,0.26c0.06,0.01,0.21,0,0.28-0.01l0.01,0l-0.02,0.01
		c-0.17,0.05-0.16,0.12-0.16,0.14c0.02,0.1,0.08,0.22,0.02,0.43l0.02,0.03c0.26-0.14,0.26-0.38,0.23-0.59l0-0.02l0.02-0.01
		c0.2-0.12,0.15-0.51-0.13-1.11c-0.13-0.28-0.19-0.75-0.1-0.8c0-0.01,0.01-0.01,0.01-0.01c0.05-0.01,0.1,0,0.23,0.19
		c0.09,0.14,0.19,0.25,0.3,0.4c0.11,0.14,0.19,0.27,0.18,0.38c0,0.04-0.01,0.08-0.03,0.09c-0.02,0.02-0.04,0.02-0.09,0.03
		c-0.06,0-0.13-0.01-0.18-0.01c0.07,0.07,0.3,0.34,0.38,0.25c0.18-0.21,0.02,0.13,0.33,0.16c0.2,0.01,0.35-0.13,0.36-0.37
		c0-0.09-0.01-0.15-0.03-0.22c-0.04-0.23-0.22-0.46-0.31-0.56l-0.07-0.08c-0.53-0.58-0.48-0.71-0.45-0.76
		c0.05-0.09,0.1-0.12,0.24-0.12c0.2,0,0.43,0.03,0.44,0.03c0.21,0.04,0.56,0.09,0.55,0.21c0,0.02-0.02,0.05-0.05,0.06
		c-0.07,0.03-0.19,0.07-0.21,0.04c0.02,0.03,0.1,0.09,0.2,0.14c0.09,0.04,0.45,0.14,0.56-0.02l0.04-0.08c0.07,0,0.24-0.03,0.28-0.15
		c0.03-0.11-0.11-0.27-0.27-0.35c-0.12-0.06-0.49-0.21-0.78-0.29c-0.12-0.04-0.27-0.06-0.38-0.1l-0.63-0.17
		c-0.02,0-0.35-0.11-0.47-0.17c-0.06-0.03-0.11-0.05-0.14-0.06c-0.11-0.06-0.19-0.12-0.27-0.23c-0.07-0.1-0.14-0.36-0.21-0.64
		c0.08,0.04,0.27,0.17,0.5,0.21c-0.02-0.1-0.04-0.41-0.02-0.57c0.1-1.05,0.12-1.65,0.12-1.65s0.18,0.19,0.21,0.22
		c0.03-0.18-0.03-0.62-0.06-1.06C61.55,37.86,61.46,37.36,61.37,36.94 M62.12,41.92l0.49,0.13c0.07,0.02,0.15,0.04,0.24,0.06
		c0.08-0.24,0.13-0.48,0.12-0.72c-0.01-0.27,0.61,0.3,1.03,0.72c0.17,0.18,0.21,0.1,0.11-0.04c-0.41-0.57-1.24-1.1-1.47-1.25
		c-0.39-0.25-0.59-0.19-0.46,0.03C62.33,41.1,62.29,41.5,62.12,41.92 M62.66,46c0.45,0.53,1.15,1.53,1.42,1.8
		c0.58,0.58,0.83,0.65,1.28,0.67c-0.14-0.4-0.3-0.77-0.98-1.8c-0.35-0.53-0.94-1.3-1.4-1.9c-0.01,0.03-0.02,0.05-0.04,0.07
		c-0.04,0.07-0.1,0.14-0.17,0.19c-0.1,0.07-0.23,0.1-0.36,0.09c-0.13-0.01-0.24-0.06-0.31-0.15c-0.08,0.01-0.15-0.01-0.23-0.06
		c0.03,0.22-0.02,0.39-0.12,0.51c0,0.14-0.03,0.41-0.24,0.62c0.02,0.03,0.03,0.05,0.03,0.05c0.15,0.27,0.09,0.41,0.01,0.5
		c-0.06,0.08-0.81,0.9-0.97,1.05c-0.2,0.18-0.41-0.03-0.41-0.03l-0.12-0.1c0,0-0.19,0.19-0.34,0.34c0.01,0.01,0.03,0.03,0.04,0.04v0
		c0.24,0.22,0.53,0.38,0.83,0.51c0.31,0.13,0.89,0.34,1.5,0.59c0,0,0,0,0,0c-0.13-0.32-0.32-0.81-0.48-1.4
		c0.17,0.24,0.65,1.07,0.95,1.6h0c0.05,0.02,0.47,0.23,0.64,0.31c0.12,0.06,0.52,0.27,0.61,0.33c-0.03-0.26-0.09-0.46-0.09-0.46
		s-0.37-0.37-0.63-0.71c-0.52-0.71-0.85-1.44-1.01-1.94c0.58,0.84,0.73,1.08,0.96,1.37c0.73,0.94,1.52,1.35,1.82,1.36
		c-0.1-0.52-0.3-0.64-0.3-0.64s-0.37-0.3-0.77-0.82C63.44,47.55,63.04,46.88,62.66,46 M60.75,51.08c1.05,0.13,3.28,0.1,4.09-0.21
		c-0.3-0.25-1.58-1.06-3.53-1.84c-0.4-0.18-0.92-0.36-1.28-0.61c-0.22-0.16-0.37-0.27-0.58-0.47c-0.64-0.59-2.33-2.35-2.63-2.68
		l-1.12,1.04c0,0,2.97,2.9,3.73,3.31c0.96,0.52,3.7,1.14,3.7,1.14s-2.1-0.16-3.7-0.8c-0.96-0.39-4-3.39-4-3.39l-0.74,0.68
		c0.38,0.42,1.19,1.33,2.52,2.41C58.12,50.4,59.24,50.89,60.75,51.08 M58.15,50.74c-0.19-0.09-0.38-0.2-0.56-0.32h0l0.17,0.34
		c0.12,0.26,0.28,0.46,0.41,0.6c0.01-0.03,0.03-0.05,0.04-0.08c0.06-0.13,0.12-0.27,0.17-0.43C58.32,50.82,58.22,50.78,58.15,50.74
		 M52.75,46.68c-0.16,0.49-0.49,1.23-1.01,1.93c-0.25,0.35-0.63,0.71-0.63,0.71s-0.04,0.12-0.07,0.3c0.07-0.04,0.14-0.08,0.22-0.11
		c0.34-0.19,0.73-0.36,1.1-0.51c0.32-0.54,0.77-1.29,0.93-1.51c-0.15,0.54-0.33,0.99-0.48,1.33c0.5-0.2,0.94-0.36,1.15-0.46
		c0.35-0.16,0.51-0.29,0.65-0.4c0.03-0.02,0.08-0.06,0.14-0.13c0.01,0.01-0.36-0.36-0.36-0.36l-0.12,0.1c0,0-0.21,0.2-0.41,0.03
		c-0.16-0.15-0.91-0.97-0.97-1.05c-0.07-0.09-0.16-0.23,0.02-0.5c0,0,0.01-0.01,0.01-0.01c-0.23-0.21-0.27-0.5-0.26-0.64
		c-0.11-0.12-0.15-0.28-0.12-0.51c-0.07,0.05-0.15,0.07-0.22,0.06c-0.08,0.08-0.18,0.13-0.31,0.15c-0.02,0-0.03,0-0.05,0
		c-0.13,0-0.24-0.04-0.33-0.1c-0.42,0.55-0.89,1.17-1.18,1.61c-0.68,1.03-0.84,1.41-0.98,1.8c0.45-0.03,0.7-0.09,1.28-0.67
		c0.27-0.27,0.97-1.27,1.42-1.8c-0.38,0.88-0.78,1.55-1.12,1.99c-0.4,0.52-0.77,0.82-0.77,0.82s-0.19,0.12-0.3,0.64
		c0.3-0.01,1.08-0.42,1.82-1.36C52.01,47.76,52.16,47.52,52.75,46.68 M52.02,43.66l-0.07,0.08c-0.09,0.09-0.27,0.32-0.31,0.56
		c-0.01,0.07-0.03,0.13-0.03,0.22c0.01,0.25,0.16,0.38,0.36,0.37c0.31-0.04,0.15-0.37,0.33-0.16c0.07,0.09,0.31-0.19,0.38-0.25
		c-0.06,0.01-0.13,0.02-0.18,0.01c-0.04,0-0.07-0.01-0.09-0.03c-0.02-0.02-0.04-0.05-0.04-0.09c0-0.11,0.07-0.24,0.19-0.38
		c0.12-0.15,0.21-0.26,0.3-0.4c0.14-0.2,0.19-0.2,0.23-0.19h0.01l0.01,0.01c0.08,0.06,0.03,0.52-0.1,0.8
		c-0.28,0.6-0.33,0.99-0.13,1.11l0.02,0.01l0,0.02c-0.03,0.21-0.03,0.45,0.23,0.59l0.02-0.03c-0.06-0.21-0.01-0.33,0.02-0.43
		c0-0.02,0.02-0.09-0.15-0.14l-0.02-0.01l0.01,0c0.07,0.01,0.22,0.02,0.28,0.01c0.12-0.02,0.25-0.04,0.27-0.26
		c0.01-0.08,0.01-0.15,0.02-0.23c0.04-0.34,0.1-0.65,0.15-0.89c0.06-0.27,0.12-0.91,0.12-0.91l0-0.02l0.01,0
		c0,0,0.05-0.02,0.12-0.01c0.08,0.01,0.19,0.05,0.25,0.2c0.02,0.04,0.03,0.11,0.01,0.23c0.07-0.04,0.17-0.11,0.18-0.24v-0.01
		l0.01-0.01c0.1-0.07,0.15-0.15,0.16-0.23c0.04-0.24-0.24-0.48-0.26-0.5c-0.17-0.13-0.11-0.37-0.04-0.58l0.1-0.25
		c0.09,0.1,0.19,0.2,0.32,0.28c0.38,0.27,0.76,0.2,0.76,0.2s-0.09-0.21-0.12-0.48c-0.04-0.35-0.02-0.65-0.02-0.65l0.29,0.31
		c0,0,0.17-0.57,0.06-1.66c-0.13-1.26-0.39-1.75-0.45-1.92c-0.09-0.28-0.25-0.56-0.25-0.56s-0.03,0.15-0.23,0.33
		c-0.24-0.3-0.67-0.9-0.78-1.31c-0.06,0.12-0.16,0.22-0.24,0.3l-0.05,0.04l-0.01-0.06c-0.05-0.3-0.22-0.53-0.39-0.75
		c-0.12-0.15-0.23-0.3-0.29-0.46c-0.1,0.32-0.12,0.69-0.14,1.01c-0.02,0.32-0.04,0.6-0.12,0.79c0.06-0.03,0.11-0.07,0.15-0.09
		c0.07-0.05,0.11-0.07,0.14-0.07l0.02,0.01l0.01,0.01c0.02,0.02,0.02,0.04,0.01,0.05c-0.1,0.43-0.18,0.92-0.21,1.22
		c-0.04,0.44,0,0.82,0.03,1c0.03-0.03,0.33-0.19,0.33-0.19s-0.2,0.63-0.09,1.67c0.02,0.17,0,0.48-0.02,0.57
		c0.2-0.03,0.37-0.13,0.46-0.18c-0.08,0.28-0.14,0.53-0.21,0.63c-0.08,0.11-0.16,0.17-0.27,0.23c-0.03,0.01-0.08,0.04-0.14,0.06
		c-0.12,0.06-0.45,0.16-0.47,0.17l-0.63,0.17c-0.11,0.03-0.24,0.06-0.36,0.09c-0.23,0.05-0.68,0.24-0.81,0.31
		c-0.15,0.08-0.3,0.23-0.27,0.35c0.04,0.12,0.21,0.15,0.28,0.15l0.04,0.08c0.11,0.17,0.47,0.07,0.56,0.02
		c0.1-0.05,0.18-0.11,0.2-0.14c-0.02,0.03-0.14-0.01-0.21-0.04c-0.03-0.01-0.05-0.04-0.05-0.06c-0.01-0.12,0.34-0.17,0.55-0.21
		c0.01,0,0.24-0.03,0.44-0.03c0.14,0,0.19,0.03,0.24,0.12C52.51,42.95,52.55,43.08,52.02,43.66 M52.28,40.84
		c0.14-0.22-0.06-0.28-0.46-0.03c-0.23,0.14-1.05,0.68-1.47,1.25c-0.1,0.14-0.07,0.21,0.11,0.04c0.41-0.42,1.04-0.99,1.02-0.72
		c-0.01,0.24,0.04,0.49,0.12,0.72c0.07-0.02,0.13-0.03,0.19-0.05l0.54-0.14C52.16,41.49,52.12,41.09,52.28,40.84 M51.45,32.34
		c0.32,0.49,0.94,2.03,0.92,3.1c0.38-1.05-0.24-3.15-0.83-4.32c0,0.34-0.08,0.44-0.16,0.58c-0.11-1.34-0.9-2.31-1.04-3.25
		c-0.03,0.16-0.05,0.28-0.09,0.41c-0.29-0.52-0.53-1.14-0.72-1.91C49.49,27,49.4,27.23,49.4,27.5c-0.39-1.16-0.02-1.63,0.1-1.7
		c0.3-0.19,0.65,0.11,0.93,0.44c0.42,0.49,0.85,1.48,2.24,1.5c0.23,0,0.32-0.06,0.2-0.08c-1.16-0.23-1.37-0.72-2.33-1.84
		c-0.6-0.7-1.2-1.1-1.9-0.21c-1.38,1.73-1.82,3.18-2.07,4.38c-0.14,0.68-0.24,2.13-0.07,2.84c0.16-0.06,0.17-0.11,0.17-0.11
		s0.18,1.97,0.5,2.47c0.09-0.21,0.22-0.73,0.22-1.2c0.18,0.58,0.34,0.9,0.57,1.23c0.13-0.5,0.13-0.95,0.07-1.49
		c0.28,0.7,0.49,1,0.64,1.12c0.12-0.32,0.24-0.82,0.14-2.45c0.11,0.6,0.17,1.06,0.2,1.43c0.08,0.07,0.21,0.18,0.33,0.24
		c0.05-0.17,0.2-0.4-0.05-2.44c0.64,2.21,0.29,2.8,0.22,2.96c-0.25-0.16-0.4-0.34-0.48-0.46c0.01,0.69-0.11,0.96-0.21,1.21
		c-0.24-0.14-0.38-0.33-0.54-0.58c0.02,0.69-0.15,1.11-0.15,1.11s-0.48-0.56-0.6-0.98c0.01,0.26-0.16,1.05-0.3,1.2
		c-0.53-0.74-0.71-2.86-0.71-2.86s-0.02,0.01-0.04,0.04c0.06,1.09,0.27,3.58,0.43,5.57c0.33,4.03,0.79,7.58,0.79,7.58
		s0.04,0.42,0.11,0.64c0.07-0.25,0.09-1.27,0.05-1.82c-0.01-0.14,0.18-0.37,0.17-1.13c-0.01-0.38-0.5-6.19-0.48-6.33
		c0.22,1.03,0.71,4.56,0.75,6.39c0.02,0.73-0.21,0.93-0.19,1.09c0.12,0.9,0.03,1.78-0.16,2.28c-0.07-0.02-0.12-0.1-0.14-0.14
		c0.12,0.69,0.26,1.24,0.26,1.24c0.25-0.58,0.4-1.21,0.36-2.75c0-0.12,0.21-0.47,0.25-1.26c0.04-0.75-0.45-6.65-0.48-7.16
		c0.29,1.26,0.63,3.96,0.76,6.71c0.05,0.98-0.3,1.71-0.28,1.85c0.05,0.49,0.04,0.46,0.03,0.88c-0.02,0.51-0.05,0.58-0.05,0.58
		c0.16-0.39,0.68-1.71,0.48-5.89c-0.14-2.75-0.34-4.55-0.34-4.55c0.24,0.77,0.45,2.43,0.59,4.35c0.16-0.28,0.39-0.93,0.31-2.35
		c-0.09-1.45-0.25-2.64-0.25-2.64s0.28,0.86,0.47,2.26c0.04,0.34,0.07,0.63,0.08,0.9c0.47-0.84,0.26-2.45,0.01-4.11
		c0.23,0.54,0.64,2.08,0.53,3.23c0.77-0.77,0.35-2.31,0.06-4.08c0.44,1.05,0.77,2.33,0.66,3.18c0.63-0.87,0.39-2.02-0.17-4.28
		c0.34,0.6,0.81,2.02,0.84,2.9C52.34,35.41,51.86,33.71,51.45,32.34 M66.65,21.41c-2.76-2.72-6.7-2.91-7.73-2.83
		c-0.24,0.02-0.52,0.21-0.21,0.61c-0.22,0.1-1.06,0.03-1.38-0.27c-0.32,0.3-1.16,0.37-1.38,0.27c0.31-0.4,0.03-0.59-0.21-0.61
		c-1.04-0.08-5.19,0.33-7.7,2.77c1.38,1.83,4.27,5.64,4.33,5.72c0.05,0.07,0.2,0.17,0.37,0.17c0.02,0,0.05,0,0.07,0
		c0.15-0.01,0.29-0.11,0.44-0.28c0.3-0.33,0.45-0.51,0.74-0.81c0.57-0.58,1.1-1.02,1.19-1.1c0.24-0.22,0.32-0.4,0.32-0.58
		c-0.02-0.21-0.18-0.29-0.28-0.42c0,0.02-0.04,0.05-0.05,0.07c-0.09-0.07-0.2-0.39-0.2-0.39l-0.06,0.15c0,0-0.21-0.51-0.55-0.46
		c-0.46,0.06-0.76-0.14-0.8-0.15c-0.03-0.01-0.05,0.15-0.04,0.33c-0.01,0-0.01-0.01-0.02-0.01c-0.32-0.27-0.41-0.96,0.2-1.41
		c0.38-0.28,0.45-0.27,0.73-0.4c0.12-0.06,0.22-0.18,0.25-0.21c0.2-0.24,0.59-0.37,0.81-0.43c0.28-0.08,0.95-0.17,1.62-0.13
		c0.38,0.02,0.73,0.11,0.98,0.21c0.2,0.08,0.77,0.5,1.09,0.92c0.21,0.27,0.57,1.05,0.77,1.54c0.42,1.03,0.37,0.92,0.66,1.6
		c0.33,0.78,0.52,1.21,0.84,1.65c0.11,0.15,0.23,0.21,0.44,0.22c0.16,0.01,0.32-0.02,0.45-0.11c0.13-0.08,0.15-0.12,0.19-0.18
		C63.5,25.45,65.3,23.19,66.65,21.41 M59.05,37.78c0-0.01,0.37-0.35,0.5-1.5c0.07,0.09,0.2,0.17,0.24,0.33
		c0.23-0.28,0.69-1.82,0.74-2.35c0.16,0.07,0.02,0.03,0.19,0.12c0.13-0.23,0.39-1.1,0.51-2.32c0.06,0.02,0.16,0.02,0.2,0.07
		c0.08-0.56,0.16-1.45,0.19-2.07c0.02-0.54,0.01-1.64-0.22-2.28c-0.23-0.63-0.34-0.97-0.71-1.55c0,0-0.13,0.06-0.2,0.15
		c-0.1-0.31-0.38-1.05-0.52-1.32c-0.35-0.68-0.51-1.12-0.88-1.35c0.17,0.01,0.23,0.05,0.44,0.04c-0.24-0.22-0.33-0.38-0.6-0.58
		c0.09-0.06,0.24-0.06,0.49-0.01c-0.36-0.33-0.48-0.82-1.4-1.17c0.16-0.03,0.29,0.03,0.51,0.02c-0.12-0.18-0.4-0.48-0.86-0.62
		c-0.94-0.19-2.24-0.22-2.86,0.5c-0.04,0.05-0.21,0.09-0.35,0.14c-0.1,0.04-0.15,0.07-0.17,0.09c-0.11,0.08-0.13,0.18,0.08,0.47
		c-0.27-0.04-0.33-0.29-0.38-0.27c-0.1,0.06-0.18,0.14-0.28,0.29c-0.09,0.13-0.17,0.41-0.15,0.53c0.03,0.02,0.25,0.13,0.3-0.14
		c0.02-0.09,0.43-0.13,0.57-0.13c0.21,0,0.4,0.05,0.66,0.04c-0.09,0.03-0.38,0.12-0.49,0.15c-0.12,0.03-0.13,0.16-0.02,0.17
		c0.12,0.01,0.17-0.04,0.29-0.07c0.05,0.03,0,0.16,0.04,0.24c0.76-0.18,0.82,0.64,1.63,0.48c-0.38-0.3-0.71-0.8-1.01-0.95
		c0.8,0.12,1.23,0.84,2.1,0.88c-0.03-0.08-0.03-0.08-0.1-0.23c0.29,0,0.51,0.23,0.59,0.22c-0.11,0.12-0.36,0.22-0.69,0.26
		c0.06,0.11,0.38,0.13,0.49,0.15c-0.18,0.16-0.38,0.23-0.76,0.16c-0.13,0.12-0.3,0.39-0.86,0.73c0.01-0.14,0.01-0.14,0.03-0.27
		c-0.37,0.22-0.62,0.61-0.89,0.71c0.08-0.14,0.15-0.38,0.21-0.5c-0.97,0.88-1.9,1.73-2.25,2.37c-0.39,0.71-0.52,1.45-0.47,2.66
		c0.04,0.65,0.32,2.49,0.36,2.85c0.08-0.03,0.14-0.07,0.2-0.09c0.24,1.35,0.94,3.24,1.3,3.86c0.07-0.15,0.11-0.21,0.21-0.29
		c0.06,0.36,0.25,0.77,0.55,1.03c-0.01-0.24,0.1-0.39,0.12-0.47c0.08,0.26,0.03,1.07,0.5,1.52c-0.03-0.22,0.06-0.41,0.12-0.71
		c0.08,0.26,0.1,0.59,0.22,0.85c0.15,0.31,0.33,0.62,0.5,0.7c-0.02-0.64,0.08-0.61,0.1-0.87c0.01,0.06,0.25,0.29,0.37,1.09
		c0.47-0.36,0.66-1.56,0.66-1.56s0.13,0.12,0.24,0.45c0.41-0.43,0.54-1,0.66-1.43C59.07,37.34,59.08,37.64,59.05,37.78 M59.52,44.09
		c0.57-0.01,0.72,0,0.94-0.04c-0.01-0.07-0.03-0.13-0.04-0.18c-0.01-0.04-0.01-0.09-0.02-0.14c0,0-0.01,0-0.01,0.01
		c-0.2,0.04-0.57,0.16-1.08,0.07c-0.24-0.05-0.25-0.06-0.44-0.11c-0.17-0.05-0.45,0.23-0.66,0.46c-0.18,0.19-0.42,0.47-0.53,0.58
		c-0.02,0.02-0.02,0.04,0,0.06c0.19,0.18,2.54,2.32,2.69,2.46c0.04,0.03,0.06,0.04,0.11-0.01c0.11-0.11,0.26-0.27,0.41-0.42
		c0,0-2.32-2.18-2.35-2.22c-0.04-0.04-0.04-0.08-0.03-0.1c0.02-0.02,0.12-0.12,0.14-0.14c0.02-0.02,0.07-0.02,0.1,0.02
		c0.04,0.04,0.76,0.71,0.76,0.71l1,0.89l0.63,0.56c0.09-0.09,0.08-0.07,0.1-0.1c0.09-0.1,0.07-0.17-0.25-0.48
		c-0.09-0.09-1.63-1.62-1.63-1.62C59.23,44.15,59.34,44.09,59.52,44.09 M55.91,44.58c-0.04,0.04-2.36,2.22-2.36,2.22
		c0.15,0.15,0.31,0.32,0.41,0.42c0.05,0.05,0.07,0.04,0.11,0.01c0.15-0.13,2.49-2.28,2.69-2.45c0.02-0.02,0.02-0.04,0.01-0.06
		c-0.11-0.11-0.35-0.39-0.53-0.58c-0.21-0.23-0.49-0.51-0.66-0.46c-0.19,0.06-0.2,0.06-0.44,0.11c-0.51,0.09-0.88-0.02-1.08-0.07
		c-0.02,0-0.03-0.01-0.05-0.02c0,0.06-0.01,0.11-0.02,0.17c-0.01,0.05-0.02,0.1-0.03,0.16c0.25,0.05,0.38,0.04,0.98,0.04
		c0.18,0,0.3,0.06,0.14,0.24c0,0-1.54,1.54-1.62,1.62c-0.32,0.3-0.34,0.38-0.25,0.48c0.02,0.03,0.01,0.01,0.1,0.1l0.63-0.56l1-0.89
		c0,0,0.73-0.68,0.76-0.71c0.03-0.04,0.09-0.04,0.11-0.01c0.02,0.02,0.12,0.12,0.14,0.14C55.95,44.5,55.94,44.55,55.91,44.58
		 M56.13,39.1c0,0,0-0.14-0.09-0.32c-0.04-0.1-0.2-0.21-0.27-0.3c-0.06-0.08-0.07-0.12-0.07-0.12c-0.02,0.09,0.02,0.3,0.05,0.38
		c0.03,0.1,0.09,0.2,0.2,0.26C56.07,39.09,56.13,39.1,56.13,39.1 M56.11,43.56c0,0,0.17,0.17,0.2,0.2c0.04-0.24,0.15-1.03,0.11-1.11
		C56.15,43.16,56.11,43.51,56.11,43.56 M55.18,43.51c0.09-0.03,0.31-0.13,0.43-0.16c0.03-0.01,0.08-0.02,0.09-0.02
		c0.07-0.24,0.18-0.61,0.26-0.78C55.88,42.53,55.29,43.34,55.18,43.51 M56.9,44.36c-0.01-0.32-0.03-0.66-0.05-0.81
		c-0.1,0.14-0.17,0.35-0.21,0.55C56.67,44.12,56.88,44.34,56.9,44.36 M57.06,42.26c0,0-0.06-0.4-0.36-0.54
		C56.71,42.02,57.06,42.26,57.06,42.26 M57.29,41.6c0,0,0-0.01,0-0.01C57.3,41.58,57.3,41.59,57.29,41.6c0,0,0.05-0.11,0.22-0.23
		c0.11-0.08,0.77-0.47,0.89-0.65c0.13-0.17,0.18-0.41,0.18-0.41s-0.12,0.19-0.38,0.34c-0.22,0.13-0.74,0.45-0.83,0.61
		c-0.05,0.08-0.07,0.15-0.07,0.2c0-0.05-0.01-0.1-0.04-0.15c-0.16-0.33-0.63-0.47-0.92-0.8c-0.19-0.21-0.19-0.3-0.19-0.3
		c-0.01,0.22,0.04,0.39,0.13,0.51c0.08,0.11,0.32,0.32,0.63,0.52C57.23,41.44,57.29,41.6,57.29,41.6 M56.99,40.41
		c0-0.52-0.57-0.58-0.7-1.1C56.22,40.04,56.72,40.05,56.99,40.41 M57.25,42.48c0,0,0.07-0.03,0.24-0.13
		c0.15-0.09,0.27-0.19,0.34-0.33c0.08-0.15,0.06-0.28,0.05-0.36c0,0-0.04,0.14-0.23,0.31c-0.08,0.08-0.2,0.19-0.26,0.27
		C57.3,42.37,57.25,42.48,57.25,42.48 M57.75,42.79c0.05,0.31,0.09,1.04,0.11,1.28l0,0c0.08-0.08,0.17-0.18,0.26-0.26
		C58.1,43.69,58,43.11,57.75,42.79 M57.28,44.69c0.01-0.02,0.19-0.23,0.28-0.32c0.01-0.01,0.01-0.01,0.02-0.02
		c-0.06-0.4-0.15-0.9-0.28-1.09C57.27,43.45,57.27,44.16,57.28,44.69 M57.29,44.91c0,0.17,0.01,0.31,0.01,0.38
		c0.01-0.02,0.18-0.2,0.18-0.2S57.33,44.96,57.29,44.91 M57.41,45.53c0.33,0.34,0.76,0.8,1.05,1.08c0.19-0.18,0.31-0.3,0.31-0.3
		l-1.12-1.03C57.59,45.33,57.51,45.42,57.41,45.53 M58.74,46.87c0.24,0.24,0.51,0.51,0.73,0.73c0.13-0.14,0.23-0.25,0.32-0.35
		l-0.74-0.68C59.04,46.57,58.93,46.69,58.74,46.87 M58.95,43.4c-0.12-0.16-0.43-0.57-0.7-0.81c0.18,0.43,0.26,0.71,0.29,0.81h0
		c0.01-0.01,0.03-0.02,0.04-0.03c0.04-0.02,0.09-0.03,0.14-0.03c0.04,0,0.09,0.02,0.15,0.03C58.89,43.38,58.93,43.39,58.95,43.4
		 M58.68,39.16c-0.15,0.23-0.27,0.37-0.45,0.53c0.06-0.17,0.08-0.36,0.08-0.36c-0.09,0.18-0.3,0.43-0.43,0.57
		c-0.34,0.33-0.4,0.66-0.4,0.66s0.09-0.12,0.49-0.36C58.39,39.95,58.55,39.56,58.68,39.16 M53.44,34.62c0,0.41,0.29,0.97,0.67,1.2
		C53.88,35.19,53.7,34.99,53.44,34.62 M66.85,21.14c0.1-0.12,0.19-0.25,0.28-0.37c-1.26-1.11-3.13-2.24-5.18-2.69
		c-1.39-0.3-2.5-0.33-3.19-0.32c-0.57,0.01-0.94,0.23-0.94,0.59c-0.35-0.07-0.45-0.51-0.5-0.6c-0.03,0.19-0.21,0.55-0.49,0.6
		c0-0.36-0.37-0.58-0.94-0.59c-0.7-0.01-1.8,0.02-3.19,0.32c-2.09,0.45-3.9,1.48-5.16,2.61c0.09,0.12,0.19,0.25,0.28,0.37
		c1.13-1.06,2.64-1.91,4.25-2.38c1.33-0.39,2.97-0.53,3.72-0.5c0.67,0.03,0.77,0.41,0.69,0.62c0.3,0.03,0.75-0.23,0.84-0.41
		c0.07,0.13,0.48,0.43,0.85,0.41c-0.08-0.21,0.02-0.59,0.69-0.62c0.75-0.03,2.39,0.11,3.72,0.5C64.15,19.15,65.72,20.1,66.85,21.14
		 M67.61,19.78c0.14,0.49,0.29,1.04,0.71,1.37c0.06,0.05,0.12,0.09,0.19,0.12l0.01,0.01c-0.01-0.94,0.31-1.45,0.55-2c0,0,0,0,0,0
		c0.35,0.05,0.81,0.18,1.75,0.01c-0.89-0.6-0.69-1.27-1.35-2c-0.07-0.08-0.15-0.16-0.24-0.24c-0.24-0.17-0.41-0.23-0.54-0.23
		c-0.16-0.01-0.25,0.08-0.3,0.13c-0.09,0.1-1.01,1.09-1.62,1.77C67.3,18.7,67.45,19.2,67.61,19.78 M68.21,16.49
		c-0.62-0.61-1.6-1.29-2.78-1.8c-3.08-1.35-6.99-1.36-8.11-1.36v0c0,0-0.01,0-0.01,0c-1.12,0-5.03,0.01-8.11,1.36
		c-1.18,0.52-2.16,1.19-2.78,1.8c0,0,1.4,1.57,1.76,1.99c0.19,0.22,0.25,0.41,0.14,0.74c2.14-1.44,4.57-2.15,8.91-2.18l0.2,0
		c4.26,0.04,6.77,0.76,8.89,2.18c-0.11-0.33-0.05-0.52,0.14-0.74C66.82,18.06,68.21,16.49,68.21,16.49 M46.27,16.95
		C46.27,16.95,46.27,16.95,46.27,16.95c-0.09-0.1-0.31-0.29-0.84,0.09c-0.95,0.83-0.65,1.58-1.63,2.24
		c0.35,0.06,0.63,0.09,0.87,0.09c0.16,0,0.3-0.01,0.42-0.02c0.18-0.02,0.33-0.05,0.46-0.07h0c0.25,0.55,0.56,1.06,0.55,2
		c1.15-0.61,0.68-2.57,1.75-2.55C47.24,18.04,46.37,17.06,46.27,16.95 M47.01,20.91c0.84,1.12,1.48,1.97,1.6,2.14
		c0.29,0.4,1.3,1.61,1.3,1.46c-0.01-0.09-0.62-0.95-1.01-1.48c-0.57-0.77-1.16-1.57-1.74-2.34C47.1,20.77,47.06,20.84,47.01,20.91
		 M51.31,28.35c0,0.79,0.15,1.38,0.41,2.35C51.74,29.67,51.55,28.63,51.31,28.35 M50.78,27.45c-0.05,0.37-0.05,0.83,0.04,1.17
		c0.06,0.24,0.16,0.46,0.25,0.67C51.1,28.58,50.92,27.81,50.78,27.45 M52.75,34.4c0.13-0.44,0.28-3.24-0.76-4.44
		C52.26,31.03,52.6,32.3,52.75,34.4 M49.62,50.89c0.8,0.31,3.04,0.34,4.08,0.21c1.34-0.17,2.36-0.57,3.22-1.18
		c-0.22-0.19-0.5-0.44-0.78-0.71c-0.45,0.36-0.85,0.65-1.1,0.75c-1.6,0.65-3.7,0.8-3.7,0.8s2.74-0.62,3.7-1.14
		c0.18-0.1,0.49-0.34,0.86-0.65c-0.35-0.34-0.7-0.68-0.96-0.94c-0.17,0.16-0.31,0.26-0.5,0.4c-0.35,0.25-0.87,0.44-1.28,0.61
		C51.2,49.82,49.92,50.64,49.62,50.89 M56.32,50.75c0,0,0.05,0.16,0.1,0.29c0.01,0.03,0.13,0.28,0.14,0.31
		c0.13-0.14,0.28-0.34,0.4-0.58l0.28-0.58c0,0-0.01-0.01-0.01-0.01c-0.02,0.02-0.17,0.13-0.26,0.18c-0.12,0.08-0.24,0.16-0.37,0.23
		c-0.05,0.03-0.23,0.13-0.27,0.15C56.34,50.74,56.33,50.75,56.32,50.75 M61.77,34.4c0.15-2.09,0.49-3.36,0.76-4.44
		C61.49,31.16,61.64,33.96,61.77,34.4 M62.02,29.73c0.33-0.99,0.05-1.49-0.14-1.59C61.87,28.6,62,28.81,62.02,29.73 M62.86,30.73
		c0.26-0.97,0.41-1.55,0.41-2.35C63.03,28.66,62.83,29.71,62.86,30.73 M63.51,29.33c0.08-0.21,0.19-0.43,0.25-0.67
		c0.08-0.35,0.09-0.8,0.04-1.17C63.65,27.84,63.48,28.62,63.51,29.33 M66.15,22.99c0.12-0.17,0.7-0.94,1.49-1.99
		c-0.06-0.07-0.11-0.14-0.15-0.21c-0.54,0.72-1.09,1.46-1.62,2.17c-0.39,0.53-1.01,1.39-1.01,1.48
		C64.85,24.6,65.86,23.39,66.15,22.99 M70.68,17.8c-0.09,0.12-0.28,0.37-0.28,0.37c0.24,0.44,0.51,0.9,1.2,1.26
		C71.32,18.87,71.02,18.32,70.68,17.8 M70.04,17.41c0.02,0.03,0.11,0.19,0.13,0.23c1.6-2.12,3.06-4.07,3.06-4.07
		s-0.62,0.44-1.51,0.85c0.09,0.48-0.21,1.08-0.33,1.23C71.34,15.71,70.82,16.4,70.04,17.41 M49.46,11.86L49.46,11.86
		c-0.14,0.08-0.27,0.27-0.27,0.48c-0.32,0.33-0.5,0.78-0.32,1.32c-1.68,0.69-3.17,1.75-4.28,3.14c0.08,0.1,0.16,0.21,0.24,0.32
		c1.19-1.53,2.78-2.62,4.7-3.34c-0.15-0.23-0.37-0.73,0.19-1.27l0,0c0.83,0.1,1.03,0.6,1.09,0.86c1.5-0.41,3.26-0.65,5.24-0.72
		c0.07-1.36,1.03-1.69,1.03-1.69s0.02-0.26,0.23-0.34c0,0,0.01,0,0.01,0c0.21,0.09,0.23,0.35,0.23,0.35s0.97,0.33,1.04,1.69
		c1.98,0.07,3.75,0.32,5.24,0.72c0.05-0.26,0.26-0.76,1.09-0.86h0c0.56,0.55,0.35,1.05,0.19,1.27c1.92,0.72,3.56,1.85,4.75,3.38
		c0.09-0.11,0.17-0.22,0.25-0.33c-1.11-1.38-2.67-2.49-4.34-3.17c0.18-0.54,0-1-0.32-1.32c0-0.22-0.13-0.41-0.27-0.48c0,0,0,0,0,0
		c-0.16-0.02-0.4,0.05-0.56,0.22c-0.48,0.07-0.95,0.32-1.21,0.83c-1.24-0.3-2.63-0.5-4.41-0.59c-0.04-0.82-0.52-1.33-1.1-1.61
		c-0.12-0.29-0.37-0.45-0.58-0.5c-0.21,0.05-0.46,0.21-0.58,0.5c-0.58,0.29-1.06,0.8-1.1,1.61c-1.78,0.09-3.18,0.29-4.41,0.59
		c-0.26-0.51-0.73-0.76-1.21-0.83C49.85,11.91,49.62,11.84,49.46,11.86 M44.5,17.57c0.05-0.09,0.1-0.16,0.14-0.21
		c-0.72-0.95-1.21-1.59-1.26-1.64c-0.12-0.15-0.42-0.75-0.33-1.23c-0.89-0.42-1.51-0.85-1.51-0.85S42.94,15.5,44.5,17.57
		 M43.01,19.46c0.14-0.08,0.59-0.37,0.88-0.76c0.14-0.2,0.25-0.39,0.34-0.57c-0.01-0.02-0.3-0.39-0.3-0.39
		C43.59,18.29,43.29,18.86,43.01,19.46 M40.5,31.12c0.18,0.27,0.72,0.88,4.46,3.01c0.05-1.36,0.41-5.97,2.73-11.49
		c-0.33-0.44-0.66-0.88-0.98-1.3c-0.24,0.25-0.55,0.43-1,0.56c0.02-1.03-0.21-1.6-0.49-2.2c-0.41,0.01-1.12,0.03-2.23-0.21
		C41.52,22.64,40.78,26.3,40.5,31.12 M53.82,53.23l0.02-0.05c0.11-0.3,0.77-1.85,0.77-1.85c-0.03,0.01-0.05,0.01-0.08,0.02
		c-0.29,0.05-0.59,0.1-0.89,0.13c-0.17,0.02-2.77,0.42-4.66-0.47c0.28-0.2,0.85-0.67,1.62-1.13c0.01-0.08,0.03-0.16,0.04-0.24
		c-0.43,0.23-0.84,0.27-1.16,0.26c-0.03-0.27,0.05-0.62,0.2-1.02c-0.41,0.09-0.72-0.01-0.72-0.01s0.27-0.83,0.86-1.83
		c0.46-0.78,1.07-1.57,1.64-2.26c-0.04-0.08-0.06-0.17-0.06-0.26c0-0.11,0.02-0.2,0.03-0.27c0.06-0.35,0.34-0.64,0.37-0.68
		c0.02-0.02,0.1-0.11,0.11-0.12c-0.08-0.07-0.15-0.13-0.22-0.18c-0.08,0.08-0.14,0.12-0.19,0.14c-0.22,0.1-0.35,0.13-0.46,0.14
		c-0.24,0.01-0.38-0.04-0.46-0.16l-0.02-0.03c-0.18-0.05-0.3-0.15-0.34-0.29c-0.01-0.03-0.01-0.06-0.01-0.09
		c-0.13,0.05-0.22,0.05-0.34-0.05c-0.17-0.14,0.06-0.87,0.86-1.62c0.56-0.53,1.08-0.83,1.56-1.04c0.37-0.17,0.59,0.16,0.41,0.38
		c-0.22,0.26-0.39,0.73-0.17,1.21c0.23-0.08,0.32-0.11,0.35-0.13c0.09-0.03,0.2-0.07,0.31-0.22c0.01-0.02,0.02-0.04,0.04-0.08
		l-0.33,0.04c0.17-0.42-0.09-1.44,0.08-2.1c-0.04,0.03-0.16,0.11-0.23,0.13c-0.12-0.6-0.1-1.56-0.06-2.02
		c-0.01-0.13-0.19-0.35-0.44-0.6c-0.18,0.33-0.46,0.69-0.89,1.26c-0.38,0.5-1.07,0.95-1.43,2.57c0,0,0,0.01,0,0.01
		c-0.02,0.06-0.03,0.13-0.05,0.19v0c-0.02,0.07-0.04,0.14-0.07,0.21c-0.02,0.04-0.03,0.09-0.05,0.13c-0.03,0.07-0.06,0.14-0.09,0.21
		c-0.23,0.51-0.22,0.8-0.22,0.8l0-0.01c0.03,1.01-0.02,3.11-0.25,4.29c-0.2,1.03-0.55,1.55-0.55,1.55l-0.05-0.05
		c-0.09,0.35-0.25,0.96-0.62,1.45c0,0-0.32-0.69-0.91-5.93c-0.64-5.77-0.97-11.78-0.97-11.78h0c-0.06-1.06,0.15-2.32,0.45-3.22
		c0.5-1.46,1.44-2.86,2-3.44c0.15-0.16,0.33-0.29,0.54-0.35c0,0,0.13-0.03,0.19-0.04c-0.41-0.54-0.82-1.09-1.22-1.62
		c-2.54,6.27-2.57,11.25-2.57,11.3l-0.03,0.59l-0.5-0.29c-2.85-1.57-3.76-2.24-4.49-2.87c-0.03,0.62-0.09,2.66-0.09,2.66
		c0,0.04,0,0.48,0,1.28c0,2.44,0.44,8.44,2.43,12.56c0.28,0.51,1.02,1.89,2.37,3.15c1.02,0.96,2.21,1.64,3.53,2.07
		c0.08,0.02,0.23,0.08,0.31,0.1C50.53,54.14,52.19,54.04,53.82,53.23 M53.7,54.93c0.3-0.25,0.77-0.44,1.37-0.19
		c0.05-0.96,0.21-2.28,0.4-3.21c-0.05,0.04-0.15,0.12-0.2,0.15c-0.04,0.03-0.12,0.08-0.15,0.1c-0.01,0-0.01,0-0.01,0
		c0,0-0.01,0-0.01-0.01c-0.02-0.01-0.06-0.07-0.07-0.08C54.82,52.19,53.71,54.91,53.7,54.93 M59.49,55.45
		c0.04-0.85-0.36-3.35-0.54-4.37v0c-0.06-0.02-0.12-0.04-0.18-0.07c-0.05,0.14-0.1,0.28-0.17,0.42c-0.12,0.26-0.32,0.53-0.36,0.53
		c-0.03,0-0.55-0.35-0.88-1.04c-0.33,0.68-0.84,1.02-0.88,1.03c-0.04,0-0.23-0.27-0.36-0.53c-0.07-0.15-0.13-0.29-0.18-0.44
		c-0.01,0.01-0.01,0.02-0.02,0.03c-0.16,1.05-0.54,3.59-0.5,4.44c-1.13-0.75-1.81,0-1.58,0.52c0.02,0.05,0.05,0.09,0.08,0.12
		c0.14,0.18,0.31,0.28,0.56,0.3c0.36,0.02,0.84,0.06,1.39,0.32c0.5,0.23,1.04,0.62,1.58,1.31c0.55-0.68,1.08-1.07,1.58-1.31
		c0.55-0.26,1.03-0.29,1.39-0.32c0.25-0.02,0.42-0.13,0.56-0.3c0.03-0.03,0.05-0.08,0.08-0.12C61.3,55.45,60.62,54.71,59.49,55.45
		 M61.22,54.93c-0.01-0.02-1.19-2.92-1.32-3.23c0,0,0,0,0,0.01c-0.01,0.02-0.03,0.05-0.05,0.06c-0.01,0.01-0.01,0.01-0.01,0.01
		c0,0-0.01,0-0.02-0.01c-0.06-0.03-0.23-0.13-0.43-0.32c0.22,0.83,0.41,2.18,0.46,3.29C60.44,54.49,60.92,54.67,61.22,54.93
		 M74.25,34.55c-0.01-0.82-0.06-2.05-0.09-2.67c-0.73,0.64-1.64,1.3-4.49,2.87l-0.5,0.29l-0.03-0.59c0-0.05-0.03-5-2.54-11.24
		c-0.39,0.52-0.79,1.04-1.18,1.57c0.01,0,0.02,0,0.02,0.01c0.03,0.01,0.07,0.02,0.1,0.03c0.19,0.07,0.36,0.19,0.5,0.34
		c0.56,0.58,1.47,1.99,2,3.44c0.29,0.91,0.51,2.16,0.45,3.22v0c0,0-0.33,6.02-0.97,11.78c-0.59,5.24-0.91,5.93-0.91,5.93
		c-0.38-0.48-0.53-1.09-0.62-1.45l-0.06,0.05c0,0-0.34-0.52-0.55-1.55c-0.23-1.17-0.27-3.27-0.25-4.29l0,0.01c0,0,0.01-0.3-0.22-0.8
		c-0.11-0.24-0.19-0.48-0.25-0.73c0,0-0.01-0.01-0.01-0.01c-0.36-1.62-1.05-2.07-1.43-2.57c-0.48-0.63-0.77-1-0.94-1.37
		c-0.28,0.27-0.5,0.54-0.51,0.69c0.1,0.97,0.18,1.66,0.04,2.16c-0.06-0.03-0.15-0.13-0.2-0.17c0.06,0.64-0.24,1.39-0.05,1.98
		l-0.38-0.05c0.02,0.04,0.03,0.08,0.04,0.09c0.05,0.07,0.1,0.11,0.19,0.16c0.02,0.01,0.1,0.05,0.13,0.06
		c0.04,0.02,0.13,0.05,0.39,0.14c0.22-0.49,0.05-0.95-0.17-1.21c-0.18-0.22,0.04-0.54,0.41-0.38c0.48,0.22,1.01,0.52,1.56,1.05
		c0.79,0.75,1.03,1.48,0.86,1.62c-0.13,0.11-0.23,0.09-0.38,0.03c0,0.03-0.01,0.06-0.01,0.09c-0.05,0.14-0.17,0.25-0.34,0.29
		l-0.02,0.03c-0.09,0.12-0.22,0.16-0.46,0.16c-0.2-0.01-0.43-0.12-0.46-0.14c-0.04-0.02-0.09-0.05-0.16-0.11
		c-0.07,0.06-0.15,0.12-0.22,0.18c0.01,0.01,0.09,0.1,0.09,0.1c0.05,0.05,0.31,0.33,0.37,0.67c0,0,0.02,0.11,0.02,0.16
		c0.66,0.78,1.43,1.73,1.98,2.67c0.58,1,0.85,1.83,0.85,1.83s-0.31,0.1-0.72,0.01c0.15,0.4,0.22,0.75,0.19,1.02
		c-0.32,0.01-0.73-0.03-1.16-0.26c0.03,0.14,0.05,0.27,0.07,0.41c0.59,0.38,1.02,0.73,1.25,0.9c-1.88,0.88-4.61,0.48-4.67,0.47
		c-0.16-0.02-0.3-0.04-0.42-0.06c0,0-0.08-0.02-0.09-0.02c0,0,0.67,1.6,0.79,1.86c1.2,0.55,2.31,0.91,4.03,0.62
		c0,0,0.29-0.03,1.02-0.28c0.75-0.25,2.16-1.08,3.24-2.09c1.35-1.26,2.16-2.59,2.43-3.11c2.08-4.07,2.43-10.12,2.43-12.56
		C74.25,35.02,74.25,34.59,74.25,34.55 M59.26,32.88c0.01-0.01,0.84-0.8,0.81-1.81c-0.24,0.68-0.81,0.96-0.81,0.96
		c0,0-0.32-0.2-0.46-0.64C58.69,32.41,59.27,32.88,59.26,32.88 M57.57,26.28c-0.5,0.54-0.19,0.99-0.19,0.99
		C57.38,27.26,57.99,26.61,57.57,26.28 M57.39,28.13c-0.56,0.83,0,1.71,0,1.7C57.38,29.82,57.77,28.67,57.39,28.13 M56.06,26.92
		c-0.82,0.62-0.43,1.19-0.29,1.51C55.94,27.83,56.01,27.67,56.06,26.92 M56.26,34.52c-0.11-0.03-0.6-0.48-0.74-0.77
		c0.08,0.46,0.7,1.36,1.01,1.55c0.1-0.17,0.47-0.89,0.15-2.06C56.53,33.94,56.38,34.29,56.26,34.52 M55.65,28.8
		c-0.55,0.69,0.3,1.54,0.3,1.56C55.94,30.35,56.01,29.05,55.65,28.8 M56.54,32.44c0.14-0.31,0.54-0.89,0.33-1.86
		c-0.07,0.73-0.54,1.06-0.54,1.06c0,0-0.27-0.15-0.47-0.59C55.93,31.94,56.26,32.2,56.54,32.44 M56.11,37.04
		c-0.08-0.26-0.22-1.15-0.56-1.53C55.41,36.15,55.84,36.77,56.11,37.04 M66.35,15.73c-0.25-0.07-0.5-0.14-0.59-0.26
		c0.11-0.09,0.26,0.03,0.34,0.1c0.06-0.05,0.08-0.08,0.15-0.14c-0.26-0.21-0.66-0.09-0.75,0.13c0.08,0.04,0.19,0.08,0.23,0.13
		c-0.09,0.03-0.24,0.11-0.31,0.16C65.81,15.82,66.18,15.91,66.35,15.73 M65.66,16.07c-0.29,0.13-0.34,0.21-0.48,0.52
		c-0.16,0.38-0.3,0.75-0.49,1.09c0.11,0.05,0.26-0.05,0.37-0.11c0.49-0.3,0.84-1.13,1.04-1.63C66.1,15.92,65.81,16,65.66,16.07
		 M64.78,16.38c-0.08,0.27-0.28,0.44-0.41,0.6c-0.69-0.27-2.2-0.65-3.04-0.73c-0.23,0.25-0.56,0.58-0.92,0.66
		c-0.52-0.06-0.85-0.2-1.21-0.35c0.2,0.01,0.26,0.01,0.4,0.01c0.51-0.02,0.97-0.18,1.3-0.38c-0.73-0.11-0.9-0.31-0.55-0.77
		c0.16-0.21,0.43-0.59,0.81-0.49c0.3,0.08,0.38,0.5,0.34,0.83c0.85,0.11,1.93,0.39,2.76,0.68c0.05-0.24-0.1-0.35-0.2-0.53
		c0.13-0.13,0.31-0.29,0.46-0.38C64.74,15.65,64.86,16.11,64.78,16.38 M60.78,15.3c-0.01,0-0.15,0.08-0.22,0.23
		c0.07,0.1,0.19,0.14,0.39,0.17c0.03,0,0.08,0.01,0.11,0.01C61.14,15.5,60.95,15.24,60.78,15.3 M61.91,16.5
		c-0.16,0.08-0.34,0.19-0.46,0.26c0.13,0.12,0.22,0.22,0.35,0.35c0.18-0.1,0.27-0.15,0.47-0.25C62.14,16.73,62.05,16.64,61.91,16.5
		 M58.7,13.91c-0.15-0.11-0.26-0.2-0.42-0.31c-0.14,0.1-0.3,0.23-0.41,0.31c0.14,0.11,0.25,0.19,0.4,0.3
		C58.44,14.1,58.52,14.04,58.7,13.91 M51.72,17.02c0.17,0.07,0.29,0.13,0.47,0.21c0.13-0.15,0.18-0.23,0.33-0.39
		c-0.18-0.08-0.3-0.14-0.49-0.21C51.92,16.75,51.8,16.91,51.72,17.02 M59.36,15.93c-2.01-0.11-5.94,0.1-7.87,0.63
		c0,0-0.21-0.5-0.38-0.68c-0.51-0.55-0.73,0.05-0.73,0.12c0.65,0.04,0.76,0.37,0.76,0.37c-0.15,0.28-0.27,0.37-0.62,0.62
		c-0.12,0.08-0.53,0.34-1.1,0.38c-1.22,0.06-0.88-1.21-0.15-1.72c-0.1,0.12-0.53,0.78-0.26,1.12c0.31,0.38,1.43,0.07,1.7-0.27
		c-0.15-0.14-0.42-0.18-0.82-0.15c0.02-0.2,0.11-0.71,0.69-1.21c0.21,0.05,0.8,0.37,1.01,0.87c1.78-0.48,5.03-0.61,5.18-0.62
		c-0.04-0.31-0.15-1.47-0.15-1.54c-0.02-0.19,0.11-0.28,0.23-0.36c0.14,0.24,0.26,0.34,0.56,0.46c-0.12,0.14-0.23,0.2-0.36,0.31
		c0.02,0.23,0.04,0.66,0.05,0.83c0.29-0.12,0.69-0.3,1.19-0.41c0.17-0.04,0.4-0.07,0.53-0.05c0.17,0.02,0.38,0.11,0.47,0.2
		c0.08,0.08,0.19,0.21,0.19,0.37C59.49,15.48,59.43,15.73,59.36,15.93 M58.94,15.17c-0.25-0.41-1.18-0.04-1.77,0.21
		c0.34-0.01,0.63-0.02,1-0.01c0.15,0,0.53,0.01,0.79,0.02C58.99,15.31,59,15.26,58.94,15.17 M50.56,17.35
		c-0.12-0.04-0.22-0.07-0.36-0.11c-0.09,0.13-0.19,0.31-0.25,0.42c0.18,0.06,0.31,0.1,0.5,0.16c0.08-0.12,0.12-0.19,0.18-0.29
		c0.11,0.04,0.22,0.07,0.35,0.11c0.11-0.17,0.15-0.24,0.27-0.42c-0.19-0.06-0.32-0.11-0.52-0.16
		C50.68,17.15,50.62,17.25,50.56,17.35"/>
</g>
<g>
	<defs>
		<rect id="SVGID_15_" x="-867.75" y="-131.05" width="1405.17" height="993.56"/>
	</defs>
	<clipPath id="SVGID_16_">
		<use xlink:href="#SVGID_15_"  style="overflow:visible;"/>
	</clipPath>
	<path class="st7" d="M15.79,77.87h1.78c0.74,0,1.27,0.26,1.56,0.88c0.23,0.49,0.26,1.65,0.26,1.83c0,1.24-0.11,1.95-0.35,2.34
		c-0.31,0.5-0.9,0.75-1.91,0.75h-1.33V77.87z M16.53,83.03h0.7c1.03,0,1.41-0.39,1.41-1.74v-1.18c0-1.17-0.36-1.61-1.13-1.61h-0.97
		V83.03z"/>
</g>
<g>
	<defs>
		<rect id="SVGID_17_" x="-867.75" y="-131.05" width="1405.17" height="993.56"/>
	</defs>
	<clipPath id="SVGID_18_">
		<use xlink:href="#SVGID_17_"  style="overflow:visible;"/>
	</clipPath>
	<polygon class="st8" points="20.68,83.67 20.68,77.87 23.68,77.87 23.68,78.51 21.42,78.51 21.42,80.38 23.52,80.38 23.52,81.02 
		21.42,81.02 21.42,83.03 23.72,83.03 23.72,83.67 	"/>
</g>
<g>
	<defs>
		<rect id="SVGID_19_" x="-867.75" y="-131.05" width="1405.17" height="993.56"/>
	</defs>
	<clipPath id="SVGID_20_">
		<use xlink:href="#SVGID_19_"  style="overflow:visible;"/>
	</clipPath>
	<path class="st9" d="M24.8,83.67v-5.8h1.72c0.78,0,1.62,0.29,1.62,1.66c0,1.32-1.03,1.59-1.62,1.59h-0.97v2.56H24.8z M25.54,80.47
		h0.81c0.31,0,1.03-0.08,1.03-0.99c0-0.88-0.66-0.97-0.82-0.97h-1.02V80.47z"/>
</g>
<g>
	<defs>
		<rect id="SVGID_21_" x="-867.75" y="-131.05" width="1405.17" height="993.56"/>
	</defs>
	<clipPath id="SVGID_22_">
		<use xlink:href="#SVGID_21_"  style="overflow:visible;"/>
	</clipPath>
	<path class="st10" d="M30.08,77.87h0.94l1.89,5.8h-0.83l-0.42-1.38h-2.24l-0.43,1.38h-0.75L30.08,77.87z M30.53,78.55h-0.02
		l-0.91,3.09h1.86L30.53,78.55z"/>
</g>
<g>
	<defs>
		<rect id="SVGID_23_" x="-867.75" y="-131.05" width="1405.17" height="993.56"/>
	</defs>
	<clipPath id="SVGID_24_">
		<use xlink:href="#SVGID_23_"  style="overflow:visible;"/>
	</clipPath>
	<path class="st11" d="M34.41,81v2.67h-0.74v-5.8h2c1.03,0,1.39,0.72,1.39,1.45c0,0.68-0.38,1.21-1.06,1.33v0.02
		c0.67,0.11,0.91,0.33,0.95,1.5c0.01,0.25,0.09,1.16,0.2,1.52h-0.77c-0.21-0.4-0.16-1.16-0.23-1.93C36.1,81.04,35.53,81,35.28,81
		H34.41z M34.41,80.36h1.11c0.53,0,0.79-0.46,0.79-0.96c0-0.42-0.21-0.88-0.78-0.88h-1.12V80.36z"/>
</g>
<g>
	<defs>
		<rect id="SVGID_25_" x="-867.75" y="-131.05" width="1405.17" height="993.56"/>
	</defs>
	<clipPath id="SVGID_26_">
		<use xlink:href="#SVGID_25_"  style="overflow:visible;"/>
	</clipPath>
	<polygon class="st12" points="41.41,77.87 41.41,78.51 39.89,78.51 39.89,83.67 39.15,83.67 39.15,78.51 37.62,78.51 37.62,77.87 	
		"/>
</g>
<g>
	<defs>
		<rect id="SVGID_27_" x="-867.75" y="-131.05" width="1405.17" height="993.56"/>
	</defs>
	<clipPath id="SVGID_28_">
		<use xlink:href="#SVGID_27_"  style="overflow:visible;"/>
	</clipPath>
	<polygon class="st13" points="42.88,83.67 42.18,83.67 42.18,77.87 43.38,77.87 44.85,82.74 44.86,82.74 46.34,77.87 47.56,77.87 
		47.56,83.67 46.82,83.67 46.82,78.51 46.81,78.51 45.18,83.67 44.48,83.67 42.89,78.51 42.88,78.51 	"/>
</g>
<g>
	<defs>
		<rect id="SVGID_29_" x="-867.75" y="-131.05" width="1405.17" height="993.56"/>
	</defs>
	<clipPath id="SVGID_30_">
		<use xlink:href="#SVGID_29_"  style="overflow:visible;"/>
	</clipPath>
	<polygon class="st14" points="48.87,83.67 48.87,77.87 51.86,77.87 51.86,78.51 49.61,78.51 49.61,80.38 51.7,80.38 51.7,81.02 
		49.61,81.02 49.61,83.03 51.91,83.03 51.91,83.67 	"/>
</g>
<g>
	<defs>
		<rect id="SVGID_31_" x="-867.75" y="-131.05" width="1405.17" height="993.56"/>
	</defs>
	<clipPath id="SVGID_32_">
		<use xlink:href="#SVGID_31_"  style="overflow:visible;"/>
	</clipPath>
	<polygon class="st15" points="56.91,77.87 56.91,83.67 55.9,83.67 53.61,78.64 53.59,78.64 53.59,83.67 52.93,83.67 52.93,77.87 
		53.98,77.87 56.24,82.84 56.25,82.84 56.25,77.87 	"/>
</g>
<g>
	<defs>
		<rect id="SVGID_33_" x="-867.75" y="-131.05" width="1405.17" height="993.56"/>
	</defs>
	<clipPath id="SVGID_34_">
		<use xlink:href="#SVGID_33_"  style="overflow:visible;"/>
	</clipPath>
	<polygon class="st16" points="61.51,77.87 61.51,78.51 59.98,78.51 59.98,83.67 59.25,83.67 59.25,78.51 57.72,78.51 57.72,77.87 	
		"/>
</g>
<g>
	<defs>
		<rect id="SVGID_35_" x="-867.75" y="-131.05" width="1405.17" height="993.56"/>
	</defs>
	<clipPath id="SVGID_36_">
		<use xlink:href="#SVGID_35_"  style="overflow:visible;"/>
	</clipPath>
	<path class="st17" d="M64.04,81.55v-1.91c0-1.16,0.59-1.9,1.82-1.9s1.83,0.74,1.83,1.9v1.91c0,1.61-0.6,2.24-1.83,2.24
		S64.04,83.16,64.04,81.55 M66.93,81.58v-1.96c0-1.22-0.84-1.26-1.07-1.26c-0.23,0-1.07,0.04-1.07,1.26v1.96
		c0,1.27,0.37,1.59,1.07,1.59C66.56,83.17,66.93,82.85,66.93,81.58"/>
</g>
<g>
	<defs>
		<rect id="SVGID_37_" x="-867.75" y="-131.05" width="1405.17" height="993.56"/>
	</defs>
	<clipPath id="SVGID_38_">
		<use xlink:href="#SVGID_37_"  style="overflow:visible;"/>
	</clipPath>
	<polygon class="st18" points="68.92,83.67 68.92,77.87 71.79,77.87 71.79,78.51 69.65,78.51 69.65,80.38 71.68,80.38 71.68,81.02 
		69.65,81.02 69.65,83.67 	"/>
</g>
<g>
	<defs>
		<rect id="SVGID_39_" x="-867.75" y="-131.05" width="1405.17" height="993.56"/>
	</defs>
	<clipPath id="SVGID_40_">
		<use xlink:href="#SVGID_39_"  style="overflow:visible;"/>
	</clipPath>
	<polygon class="st19" points="74.37,83.67 74.37,77.87 75.11,77.87 75.11,80.38 77.15,80.38 77.15,77.87 77.89,77.87 77.89,83.67 
		77.15,83.67 77.15,81.02 75.11,81.02 75.11,83.67 	"/>
</g>
<g>
	<defs>
		<rect id="SVGID_41_" x="-867.75" y="-131.05" width="1405.17" height="993.56"/>
	</defs>
	<clipPath id="SVGID_42_">
		<use xlink:href="#SVGID_41_"  style="overflow:visible;"/>
	</clipPath>
	<polygon class="st20" points="79.24,83.67 79.24,77.87 82.23,77.87 82.23,78.51 79.98,78.51 79.98,80.38 82.07,80.38 82.07,81.02 
		79.98,81.02 79.98,83.03 82.28,83.03 82.28,83.67 	"/>
</g>
<g>
	<defs>
		<rect id="SVGID_43_" x="-867.75" y="-131.05" width="1405.17" height="993.56"/>
	</defs>
	<clipPath id="SVGID_44_">
		<use xlink:href="#SVGID_43_"  style="overflow:visible;"/>
	</clipPath>
	<path class="st21" d="M84.57,77.87h0.94l1.89,5.8h-0.83l-0.42-1.38h-2.24l-0.43,1.38h-0.75L84.57,77.87z M85.02,78.55H85
		l-0.91,3.09h1.86L85.02,78.55z"/>
</g>
<g>
	<defs>
		<rect id="SVGID_45_" x="-867.75" y="-131.05" width="1405.17" height="993.56"/>
	</defs>
	<clipPath id="SVGID_46_">
		<use xlink:href="#SVGID_45_"  style="overflow:visible;"/>
	</clipPath>
	<polygon class="st22" points="88.17,83.67 88.17,77.87 88.91,77.87 88.91,83.03 91.04,83.03 91.04,83.67 	"/>
</g>
<g>
	<defs>
		<rect id="SVGID_47_" x="-867.75" y="-131.05" width="1405.17" height="993.56"/>
	</defs>
	<clipPath id="SVGID_48_">
		<use xlink:href="#SVGID_47_"  style="overflow:visible;"/>
	</clipPath>
	<polygon class="st23" points="94.52,77.87 94.52,78.51 92.99,78.51 92.99,83.67 92.25,83.67 92.25,78.51 90.72,78.51 90.72,77.87 	
		"/>
</g>
<g>
	<defs>
		<rect id="SVGID_49_" x="-867.75" y="-131.05" width="1405.17" height="993.56"/>
	</defs>
	<clipPath id="SVGID_50_">
		<use xlink:href="#SVGID_49_"  style="overflow:visible;"/>
	</clipPath>
	<polygon class="st24" points="95.33,83.67 95.33,77.87 96.07,77.87 96.07,80.38 98.1,80.38 98.1,77.87 98.84,77.87 98.84,83.67 
		98.1,83.67 98.1,81.02 96.07,81.02 96.07,83.67 	"/>
</g>
<g>
	<defs>
		<rect id="SVGID_51_" x="-867.75" y="-131.05" width="1405.17" height="993.56"/>
	</defs>
	<clipPath id="SVGID_52_">
		<use xlink:href="#SVGID_51_"  style="overflow:visible;"/>
	</clipPath>
	<path class="st25" d="M17.08,66.34c0.13,0,0.24-0.05,0.33-0.14c0.09-0.09,0.14-0.2,0.14-0.33c0-0.13-0.05-0.24-0.14-0.33
		c-0.09-0.09-0.2-0.14-0.33-0.14c-0.13,0-0.24,0.05-0.33,0.14c-0.09,0.09-0.14,0.2-0.14,0.33c0,0.13,0.05,0.24,0.14,0.33
		C16.84,66.3,16.95,66.34,17.08,66.34"/>
</g>
<g>
	<defs>
		<rect id="SVGID_53_" x="-867.75" y="-131.05" width="1405.17" height="993.56"/>
	</defs>
	<clipPath id="SVGID_54_">
		<use xlink:href="#SVGID_53_"  style="overflow:visible;"/>
	</clipPath>
	<path class="st26" d="M18.61,66.34c0.13,0,0.24-0.05,0.33-0.14c0.09-0.09,0.14-0.2,0.14-0.33c0-0.13-0.05-0.24-0.14-0.33
		c-0.09-0.09-0.2-0.14-0.33-0.14c-0.13,0-0.24,0.05-0.33,0.14c-0.09,0.09-0.14,0.2-0.14,0.33c0,0.13,0.05,0.24,0.14,0.33
		C18.38,66.3,18.49,66.34,18.61,66.34"/>
</g>
<g>
	<defs>
		<rect id="SVGID_55_" x="-867.75" y="-131.05" width="1405.17" height="993.56"/>
	</defs>
	<clipPath id="SVGID_56_">
		<use xlink:href="#SVGID_55_"  style="overflow:visible;"/>
	</clipPath>
	<path class="st27" d="M59.51,64.75v6.48H58.9h-2.45H54h-2.45c-0.01,0-0.01,0-0.01,0v0h-0.61v-3.93l-0.38,0.01
		c-0.65,0.03-1.23,0.12-1.73,0.27s-0.94,0.33-1.33,0.55c-0.38,0.22-0.7,0.46-0.97,0.73c-0.27,0.27-0.49,0.54-0.66,0.81v-1.35h-0.71
		v2.91h-0.82h-2.45h-2.45h-2.45h-2.45H34.3c-0.1,0-0.18-0.01-0.25-0.04c-0.07-0.02-0.13-0.06-0.18-0.1
		c-0.05-0.03-0.09-0.07-0.12-0.13c-0.04-0.06-0.07-0.15-0.11-0.29c-0.04-0.13-0.07-0.3-0.1-0.52c-0.03-0.21-0.06-0.49-0.08-0.84
		c-0.1-1.4-0.75-2.1-1.95-2.1c-0.29,0-0.56,0.05-0.8,0.14c-0.24,0.1-0.45,0.21-0.63,0.33l0.44,0.56c0.34-0.22,0.66-0.33,0.98-0.33
		c0.14,0,0.27,0.02,0.41,0.04c0.14,0.03,0.26,0.09,0.38,0.18c0.12,0.1,0.22,0.24,0.3,0.43c0.08,0.19,0.14,0.45,0.16,0.79
		c0.03,0.46,0.07,0.84,0.12,1.14c0.05,0.3,0.12,0.53,0.21,0.71h-3.57h-2.45h-2.45h-2.45h-2.45h-0.45c-0.11,0-0.16-0.06-0.16-0.19
		v-4.01c-0.23,0.06-0.53,0.17-0.9,0.32c-0.37,0.15-0.74,0.35-1.1,0.61c-0.36,0.25-0.67,0.56-0.93,0.93c-0.26,0.37-0.39,0.8-0.39,1.3
		c0,0.19,0.03,0.39,0.08,0.59c0.06,0.2,0.16,0.39,0.31,0.57c0.16,0.18,0.38,0.33,0.66,0.46c0.29,0.13,0.66,0.21,1.12,0.23l0.05-0.71
		c-0.53-0.05-0.91-0.15-1.16-0.31c-0.24-0.16-0.37-0.44-0.37-0.84c0-0.29,0.07-0.55,0.21-0.77c0.14-0.23,0.3-0.43,0.49-0.6
		c0.19-0.17,0.4-0.32,0.62-0.44c0.22-0.12,0.41-0.22,0.58-0.31l0.01,2.98c0,0.29,0.07,0.51,0.21,0.67c0.14,0.16,0.33,0.23,0.56,0.23
		h0.54h2.45h2.45h2.45h2.45h5.02h2.45h2.45h2.45h2.45h7.21v0c0,0,0.01,0,0.01,0H54h2.45h2.45h1.32v-7.18H59.51z M50.22,71.22h-4.33
		c0.05-0.19,0.16-0.45,0.31-0.78c0.15-0.33,0.39-0.66,0.72-0.99c0.33-0.33,0.76-0.63,1.29-0.89c0.53-0.26,1.2-0.43,2.01-0.5V71.22z"
		/>
</g>
<g>
	<defs>
		<rect id="SVGID_57_" x="-867.75" y="-131.05" width="1405.17" height="993.56"/>
	</defs>
	<clipPath id="SVGID_58_">
		<use xlink:href="#SVGID_57_"  style="overflow:visible;"/>
	</clipPath>
	<rect x="61.31" y="64.79" class="st28" width="0.71" height="7.14"/>
</g>
<g>
	<defs>
		<rect id="SVGID_59_" x="-867.75" y="-131.05" width="1405.17" height="993.56"/>
	</defs>
	<clipPath id="SVGID_60_">
		<use xlink:href="#SVGID_59_"  style="overflow:visible;"/>
	</clipPath>
	<path class="st29" d="M68.44,71.93h-0.75c-0.24,0-0.5-0.03-0.8-0.1c-0.3-0.06-0.57-0.17-0.83-0.31c-0.26-0.15-0.48-0.34-0.65-0.58
		c-0.18-0.24-0.27-0.54-0.27-0.89c0-0.33,0.06-0.62,0.19-0.89c0.13-0.27,0.29-0.51,0.49-0.72c0.2-0.21,0.42-0.4,0.67-0.57
		c0.25-0.16,0.5-0.3,0.74-0.41c0.24-0.11,0.47-0.2,0.69-0.27c0.21-0.07,0.38-0.12,0.51-0.14V71.93z M67.73,71.2v-3.16
		c-0.16,0.07-0.35,0.17-0.57,0.29c-0.22,0.12-0.42,0.26-0.61,0.43c-0.19,0.17-0.35,0.36-0.49,0.58c-0.14,0.22-0.2,0.46-0.2,0.74
		c0,0.21,0.06,0.39,0.18,0.53c0.12,0.15,0.27,0.26,0.45,0.35c0.18,0.09,0.38,0.15,0.59,0.19c0.21,0.04,0.4,0.06,0.58,0.06H67.73z
		 M67,65.88c0,0.13-0.05,0.24-0.14,0.33c-0.09,0.09-0.2,0.14-0.33,0.14c-0.13,0-0.24-0.05-0.33-0.14c-0.09-0.09-0.14-0.2-0.14-0.33
		c0-0.13,0.05-0.24,0.14-0.33c0.09-0.09,0.2-0.14,0.33-0.14c0.13,0,0.24,0.05,0.33,0.14C66.95,65.64,67,65.75,67,65.88 M68.53,65.88
		c0,0.13-0.05,0.24-0.14,0.33c-0.09,0.09-0.2,0.14-0.33,0.14c-0.13,0-0.24-0.05-0.33-0.14c-0.09-0.09-0.14-0.2-0.14-0.33
		c0-0.13,0.05-0.24,0.14-0.33c0.09-0.09,0.2-0.14,0.33-0.14c0.13,0,0.24,0.05,0.33,0.14C68.49,65.64,68.53,65.75,68.53,65.88"/>
</g>
<g>
	<defs>
		<rect id="SVGID_61_" x="-867.75" y="-131.05" width="1405.17" height="993.56"/>
	</defs>
	<clipPath id="SVGID_62_">
		<use xlink:href="#SVGID_61_"  style="overflow:visible;"/>
	</clipPath>
	<path class="st30" d="M91.49,71.22h-1.36h-2.45h-2.45h0h-2.01h-2.45h-2.45h-2.45h-2.45h-2.45h0h-0.61v-3.48h-0.71v4.5
		c0,0.25-0.01,0.48-0.03,0.71c-0.02,0.23-0.07,0.43-0.14,0.61c-0.08,0.18-0.19,0.32-0.35,0.43c-0.15,0.11-0.36,0.16-0.63,0.16v0.71
		c0.42,0,0.75-0.08,0.99-0.24c0.25-0.16,0.43-0.37,0.56-0.62c0.13-0.25,0.21-0.54,0.25-0.84c0.04-0.31,0.06-0.61,0.06-0.91v-0.31
		h0.61h0h2.45h2.45h2.45h2.45h2.45h2.01h0h2.45h2.45h2.07v-4.19h-0.71V71.22z"/>
</g>
<g>
	<defs>
		<rect id="SVGID_63_" x="-867.75" y="-131.05" width="1405.17" height="993.56"/>
	</defs>
	<clipPath id="SVGID_64_">
		<use xlink:href="#SVGID_63_"  style="overflow:visible;"/>
	</clipPath>
	<path class="st31" d="M91.57,66.62c-0.14-0.08-0.2-0.2-0.2-0.38c0-0.12,0.04-0.2,0.11-0.25c0.07-0.05,0.17-0.07,0.29-0.07
		c0.18,0,0.38,0.05,0.59,0.14l0.14-0.34c-0.25-0.1-0.49-0.15-0.73-0.15c-0.18,0-0.35,0.05-0.5,0.15c-0.15,0.1-0.23,0.28-0.23,0.52
		c0,0.11,0.02,0.22,0.05,0.32c0.04,0.1,0.07,0.16,0.11,0.18h-0.59v0.35h1.82v-0.35h-0.34C91.88,66.73,91.71,66.7,91.57,66.62"/>
</g>
<g>
	<defs>
		<rect id="SVGID_65_" x="-867.75" y="-131.05" width="1405.17" height="993.56"/>
	</defs>
	<clipPath id="SVGID_66_">
		<use xlink:href="#SVGID_65_"  style="overflow:visible;"/>
	</clipPath>
	<rect x="93.3" y="64.79" class="st32" width="0.71" height="7.14"/>
</g>
<g>
	<defs>
		<rect id="SVGID_67_" x="-867.75" y="-131.05" width="1405.17" height="993.56"/>
	</defs>
	<clipPath id="SVGID_68_">
		<use xlink:href="#SVGID_67_"  style="overflow:visible;"/>
	</clipPath>
	<path class="st33" d="M94.94,67.88c0.18-0.15,0.41-0.3,0.69-0.44c0.28-0.14,0.62-0.2,1.01-0.2c0.36,0,0.68,0.08,0.95,0.22
		c0.27,0.15,0.5,0.35,0.68,0.59c0.18,0.25,0.31,0.52,0.4,0.84c0.09,0.31,0.13,0.63,0.13,0.96c0,0.25-0.02,0.48-0.06,0.71
		c-0.04,0.23-0.09,0.43-0.15,0.61c-0.06,0.18-0.12,0.34-0.18,0.47c-0.06,0.13-0.11,0.23-0.15,0.29h-3.37v-0.71h2.93
		c0.06-0.14,0.11-0.32,0.18-0.54c0.06-0.23,0.1-0.5,0.1-0.83c0-0.25-0.03-0.5-0.1-0.73c-0.07-0.23-0.16-0.43-0.29-0.61
		c-0.12-0.17-0.28-0.31-0.46-0.41c-0.19-0.11-0.39-0.16-0.62-0.16c-0.19,0-0.39,0.03-0.59,0.1c-0.2,0.07-0.43,0.19-0.68,0.37
		L94.94,67.88z"/>
</g>
</svg>
