<?xml version="1.0" encoding="utf-8"?>
<!-- Generator: Adobe Illustrator 24.1.2, SVG Export Plug-In . SVG Version: 6.00 Build 0)  -->
<svg version="1.1" id="Layer_1" xmlns="http://www.w3.org/2000/svg" xmlns:xlink="http://www.w3.org/1999/xlink" x="0px" y="0px"
	 viewBox="0 0 595.7 195.1" style="enable-background:new 0 0 595.7 195.1;" xml:space="preserve">
<style type="text/css">
	.st0{fill:url(#SVGID_1_);}
	.st1{fill:url(#SVGID_2_);}
	.st2{fill:url(#SVGID_3_);}
	.st3{fill:#1B1B1E;}
</style>
<g>
	<linearGradient id="SVGID_1_" gradientUnits="userSpaceOnUse" x1="49.628" y1="74.4297" x2="24.0685" y2="118.7001">
		<stop  offset="0" style="stop-color:#DD2576"/>
		<stop  offset="1" style="stop-color:#9D227E"/>
	</linearGradient>
	<polygon class="st0" points="57.7,108.6 38.5,119.7 19.3,108.6 19.3,86.5 19.3,86.5 13,82.8 13,112.3 38.5,127 64.1,112.3 
		64.1,82.8 25.6,60.5 19.3,64.2 57.7,86.5 	"/>
	<linearGradient id="SVGID_2_" gradientUnits="userSpaceOnUse" x1="33.4672" y1="80.0228" x2="20.8515" y2="101.8739">
		<stop  offset="0" style="stop-color:#DD2576"/>
		<stop  offset="1" style="stop-color:#9D227E"/>
	</linearGradient>
	<polygon class="st1" points="12.7,75.3 44.7,94 44.7,101.1 38.5,104.7 32.3,101.1 32.3,94 25.9,90.3 25.9,104.8 38.5,112.1 
		51.1,104.8 51.1,90.3 31.9,79.2 31.9,79.2 25.6,75.5 25.6,75.5 19,71.7 19,71.7 12.6,68 6.4,71.6 12.7,75.3 	"/>
	<linearGradient id="SVGID_3_" gradientUnits="userSpaceOnUse" x1="57.7629" y1="64.1904" x2="19.2543" y2="130.8894">
		<stop  offset="0" style="stop-color:#DD2576"/>
		<stop  offset="1" style="stop-color:#9D227E"/>
	</linearGradient>
	<polygon class="st2" points="38.5,53.1 32.1,56.8 38.5,60.4 38.5,60.4 70.6,79 70.6,116.1 38.5,134.7 6.4,116.1 6.4,79 6.4,79 
		0,75.3 0,119.8 38.5,142 77,119.8 77,75.3 	"/>
</g>
<g>
	<rect x="240" y="53.5" class="st3" width="12.9" height="75.9"/>
	<path class="st3" d="M364.9,89.2c1.1-1.1,2.5-1.8,4-2.2c1.5-0.4,3-0.6,4.5-0.6c2.9,0,5.2,0.7,6.9,2c1.8,1.4,2.7,3.9,2.7,7.5v33.5
		h12.8V93.7c0-3.9-0.5-7.1-1.5-9.6c-1-2.5-2.4-4.4-4-5.9c-1.6-1.4-3.5-2.5-5.6-3.1c-2.1-0.6-4.2-0.9-6.4-0.9c-3.6,0-6.7,0.6-9.4,1.9
		c-2.7,1.3-4.9,3-6.6,5.2l-1.3,1.6V53.5h-12.9v75.9h12.9v-28.9c0-2.8,0.4-5.1,1-6.9C362.9,91.8,363.8,90.3,364.9,89.2z"/>
	<path class="st3" d="M439.9,85.3l2.8-10.9c-14.9-3.6-30.3,2-33,3.1v51.9h12.9V85.5l0.6-0.1C430.9,84.2,437.8,85,439.9,85.3z"/>
	<path class="st3" d="M549.9,94.6c0-3.8-0.6-7-1.8-9.5c-1.2-2.5-2.8-4.6-4.8-6.2c-2-1.6-4.5-2.8-7.3-3.5c-2.8-0.7-6-1.1-9.4-1.1
		c-3.5,0-6.8,0.3-9.8,0.8c-2.8,0.5-5.4,1.1-7.6,1.6l1.9,11.5c1.6-0.6,3.5-1.1,5.7-1.5c2.6-0.6,5.6-0.8,8.8-0.8
		c3.5,0,6.2,0.5,8.2,1.5c2.1,1,3.2,2.9,3.2,5.6V97h-10.4c-3.2,0-6.1,0.3-8.7,0.9c-2.6,0.6-4.8,1.6-6.6,2.9c-1.8,1.3-3.2,3.1-4.2,5.2
		c-1,2.1-1.5,4.8-1.5,7.9c0,5.6,1.5,9.8,4.6,12.6c2.3,2.1,5.1,3.4,8.4,3.9l0.2,0l0.2,0.2c2.1,0.3,18.1,2.1,31.1-2.3V94.6z
		 M537,119.1l-0.6,0.1c-1.9,0.4-3.8,0.7-5.8,0.8c-0.8,0-1.5,0-2.2,0c-1,0-1.9,0-2.6-0.1c-0.5,0-1,0-1.5-0.1l0,0
		c-1.8-0.2-3.2-0.7-4.2-1.6c-1.2-1.1-1.8-2.8-1.8-5.1c0-2.3,0.6-4,1.8-5.1c1.2-1.1,3.2-1.7,6.2-1.7H537V119.1z"/>
	<path class="st3" d="M494.5,98.5c0-8.1-1.9-14.2-5.7-18.2c-3.8-4-9.6-6-17.2-6c-4.5,0-8.4,0.7-11.5,2.2c-3.1,1.5-5.6,3.5-7.5,6
		c-1.9,2.6-3.3,5.6-4.2,9.1c-0.9,3.5-1.3,7.3-1.3,11.3c0,9.6,2.3,16.7,6.7,21.1c4.5,4.5,11.5,6.7,20.8,6.7c3,0,6.3-0.3,9.6-0.8
		c3.1-0.5,5.9-1.2,8.4-2.2l-2-12.1c-0.7,0.3-1.6,0.6-2.6,0.9c-1.3,0.4-2.8,0.7-4.2,1c-1.5,0.3-3,0.5-4.6,0.7
		c-1.6,0.2-3.1,0.3-4.5,0.3c-4.9,0-8.5-1-10.8-2.9c-2.3-2-3.5-4.4-3.5-7.3v-1.3h33c0.4-1.4,0.7-2.8,0.8-4.4
		C494.5,100.9,494.5,99.5,494.5,98.5z M482.3,96.8h-21.7v-1.3c0-3.4,0.9-5.9,2.8-7.6c1.8-1.7,4.5-2.6,7.9-2.6c3.6,0,6.3,0.9,8.2,2.7
		c1.9,1.8,2.9,4.3,2.9,7.5V96.8z"/>
	<path class="st3" d="M308.7,126.3c1.8,1.5,4,2.7,6.5,3.3c2.5,0.7,5.3,1,8.3,1c4.9,0,9.3-0.7,13-2.1l-2-12.1c-1.3,0.5-2.8,1-4.5,1.3
		c-2.1,0.4-4.3,0.7-6.6,0.7c-2.3,0-4.2-0.6-5.5-1.8c-1.4-1.2-2.1-3.3-2.1-6.3V87.8h18.8V75.6h-18.8V61.3h-12.9v49
		c0,3.9,0.5,7.3,1.6,9.8C305.4,122.7,306.9,124.7,308.7,126.3z"/>
	<path class="st3" d="M100.5,126.6c1.4,1.4,3.2,2.4,5.1,3c2,0.6,4.2,1,6.5,1c1.5,0,2.8-0.1,4-0.3c0.9-0.1,1.8-0.3,2.5-0.6l-1.9-11.7
		c-0.3,0.1-0.7,0.2-1,0.2c-0.7,0.1-1.3,0.2-1.8,0.2c-1.6,0-2.7-0.6-3.5-1.9c-0.7-1.2-1.1-3.2-1.1-6.2V53.5H95.8v59.9
		c0,3.1,0.4,5.7,1.3,7.9C97.9,123.4,99.1,125.2,100.5,126.6z"/>
	<path class="st3" d="M589.3,117.8c-2.1,0.4-4.3,0.7-6.6,0.7c-2.3,0-4.2-0.6-5.5-1.8c-1.4-1.2-2.1-3.3-2.1-6.3V87.8h18.8V75.6H575
		V61.3h-12.9v49c0,3.9,0.5,7.3,1.6,9.8c1,2.6,2.5,4.6,4.3,6.2c1.8,1.5,4,2.7,6.5,3.3c2.5,0.7,5.3,1,8.3,1c4.9,0,9.3-0.7,13-2.1
		l-2-12.1C592.5,117,591,117.4,589.3,117.8z"/>
	<path class="st3" d="M151.5,74.3c-8.4,0-14.9,2.5-19.2,7.5c-4.4,5-6.6,12-6.6,20.7c0,9.2,2.1,16.3,6.2,21.1
		c4.1,4.7,10.7,7.2,19.6,7.2c8.4,0,14.8-2.5,19.1-7.5c4.3-5,6.5-12,6.5-20.7c0-9.1-2.1-16.2-6.2-21
		C166.8,76.7,160.3,74.3,151.5,74.3z M163.6,109c-0.3,2-0.9,3.7-1.8,5.1c-0.9,1.4-2.2,2.6-3.9,3.4c-1.6,0.8-3.8,1.2-6.4,1.2
		s-4.7-0.4-6.4-1.2c-1.7-0.8-3-1.9-3.9-3.3c-0.9-1.4-1.6-3.1-1.9-5.1c-0.3-1.9-0.5-4.1-0.5-6.5c0-2.4,0.2-4.6,0.5-6.5
		c0.3-2,1-3.7,1.9-5.1c1-1.4,2.3-2.6,3.9-3.3c1.6-0.8,3.8-1.2,6.4-1.2c2.6,0,4.7,0.4,6.4,1.2c1.7,0.8,3,1.9,3.9,3.4
		c0.9,1.4,1.5,3.1,1.8,5.1c0.3,1.9,0.5,4.1,0.5,6.5C164.1,104.9,163.9,107.1,163.6,109z"/>
	<polygon class="st3" points="292.1,75.6 276,75.6 255.7,101.1 278.2,129.4 294.3,129.4 271.8,101.1 	"/>
	<path class="st3" d="M213.7,74.3c-4.4,0-8.3,0.7-11.6,2.1c-3.3,1.4-6.1,3.3-8.4,5.8c-2.2,2.5-4,5.5-5.1,9
		c-1.1,3.5-1.7,7.4-1.7,11.6c0,4.5,0.7,8.6,2,12.1c1.3,3.5,3.2,6.4,5.6,8.7c2.4,2.3,5.3,4.2,8.6,5.4c3.3,1.2,7.1,1.8,11.2,1.8
		c2.8,0,5.4-0.2,7.8-0.7c2.2-0.4,4.4-0.9,6.5-1.5l-2-12c-1.7,0.6-3.5,1-5.2,1.4c-2.1,0.5-4.3,0.7-6.4,0.7c-5.2,0-9.1-1.5-11.4-4.3
		c-2.3-2.8-3.5-7-3.5-12.4c0-5.1,1.1-9,3.3-11.5c2.2-2.6,5.8-3.9,10.7-3.9c2.6,0,5,0.3,7.1,0.9c1.7,0.5,3.2,1,4.6,1.5l2-12.1
		c-1.6-0.6-3.5-1.1-5.7-1.6C219.5,74.6,216.7,74.3,213.7,74.3z"/>
</g>
</svg>
