<svg xmlns="http://www.w3.org/2000/svg" xmlns:xlink="http://www.w3.org/1999/xlink" viewBox="0 0 215.98 77.81"><defs><style>.cls-1,.cls-12,.cls-8{fill:none;}.cls-2{clip-path:url(#clip-path);}.cls-3{fill:#fff;}.cls-4{fill:#e73337;}.cls-5{fill:#13100d;}.cls-6{clip-path:url(#clip-path-2);}.cls-7{fill:url(#linear-gradient);}.cls-8{stroke:#1d1d1b;stroke-width:0.17px;}.cls-12,.cls-8{stroke-miterlimit:10;}.cls-9{clip-path:url(#clip-path-3);}.cls-10{fill:url(#linear-gradient-2);}.cls-11{fill:#1d1d1b;}.cls-12{stroke:#231f20;stroke-width:0.74px;}</style><clipPath id="clip-path" transform="translate(0 -12.05)"><rect class="cls-1" x="116.26" width="112.03" height="101.94"/></clipPath><clipPath id="clip-path-2" transform="translate(0 -12.05)"><path class="cls-1" d="M.84,32.4H.21A33.27,33.27,0,0,0,0,36.11,32.85,32.85,0,0,0,18.15,65.46a34.55,34.55,0,0,0,5-3.08A32,32,0,0,1,17.49,59a28.17,28.17,0,0,1-7.88-8.07A27.39,27.39,0,0,1,5.36,38.39l-.08-1,1-.19a31.75,31.75,0,0,0,8.87-3.05,20.19,20.19,0,0,1-3.5-3.48l-.4-.49A25.8,25.8,0,0,1,.84,32.4"/></clipPath><linearGradient id="linear-gradient" x1="-520.28" y1="820.53" x2="-519.66" y2="820.53" gradientTransform="matrix(0, 56.72, 56.72, 0, -46532.43, 29528.34)" gradientUnits="userSpaceOnUse"><stop offset="0" stop-color="#77cae3"/><stop offset="0.21" stop-color="#7ba2cb"/><stop offset="0.45" stop-color="#7f7ab4"/><stop offset="0.67" stop-color="#825ea3"/><stop offset="0.86" stop-color="#844c99"/><stop offset="1" stop-color="#854695"/></linearGradient><clipPath id="clip-path-3" transform="translate(0 -12.05)"><path class="cls-1" d="M14.1,28.71a16.37,16.37,0,0,0,4,3.71h0l.6.36A32.64,32.64,0,0,0,30,37.17l1,.19-.09,1A27.26,27.26,0,0,1,26.7,50.88a28.09,28.09,0,0,1-5.93,6.61,33.24,33.24,0,0,0,3.69,2.1l1.26.61A32.6,32.6,0,0,0,36.31,36.11a33.27,33.27,0,0,0-.21-3.72h-.63a27.61,27.61,0,0,1-17.32-6.48,33.22,33.22,0,0,1-4,2.79"/></clipPath><linearGradient id="linear-gradient-2" x1="-520.28" y1="820.38" x2="-519.66" y2="820.38" gradientTransform="matrix(0, 56.72, 56.72, 0, -46510.37, 29528.42)" xlink:href="#linear-gradient"/></defs><g id="Layer_2" data-name="Layer 2"><g id="Layer_1-2" data-name="Layer 1"><g class="cls-2"><path class="cls-3" d="M188.21,52.92a11.94,11.94,0,0,1-4.61,5,7.5,7.5,0,0,1-6.91.83s.08.19.1.25.07.18.1.24c.39,1.05.12,2.13-1.3,2.3a3.62,3.62,0,0,0-1.28.29,3.88,3.88,0,0,0-1.15.86,5.09,5.09,0,0,0-.73,1h0a4.72,4.72,0,0,0-.73-1,3.85,3.85,0,0,0-1.14-.86,3.66,3.66,0,0,0-1.29-.29c-1.42-.17-1.68-1.25-1.29-2.3l.09-.24.1-.25a6.69,6.69,0,0,1-4.58.17l-.2,0a10.1,10.1,0,0,1-4.4-2.45,13.56,13.56,0,0,1-2.65-3.54C153.57,47.16,154,38.69,154,37.78c-.09-9.78,2.08-15.27,3.94-17.92-.56-.74-.9-1.18-.93-1.21a1.88,1.88,0,0,0-1.17-.57,20.59,20.59,0,0,0-.66-2.81,15.07,15.07,0,0,0,2.48,1.44,1.7,1.7,0,0,0,.24,1.28l.74,1a10,10,0,0,1,3.07-2.57c.33-.19.69-.37,1.07-.55a1.84,1.84,0,0,1,.5-1.36,1,1,0,0,1,.57-.79h0a1.22,1.22,0,0,1,1,.28,2.26,2.26,0,0,1,1.38.75,26.83,26.83,0,0,1,3.91-.51,2.25,2.25,0,0,1,1.21-1.52,1.28,1.28,0,0,1,.95-.65h0a1.28,1.28,0,0,1,1,.65,2.22,2.22,0,0,1,1.21,1.52,26.5,26.5,0,0,1,3.9.51,2.31,2.31,0,0,1,1.39-.75,1.22,1.22,0,0,1,1-.28,1,1,0,0,1,.58.79,1.84,1.84,0,0,1,.5,1.36c.38.18.74.36,1.07.55a11.61,11.61,0,0,1,3.14,2.6l.81-1.08a1.72,1.72,0,0,0,.24-1.27,16.11,16.11,0,0,0,2.47-1.44,20.69,20.69,0,0,0-.66,2.8,1.87,1.87,0,0,0-1.16.57s-.42.54-1.05,1.38c1.85,2.67,4,8.11,3.89,17.83,0,.78.38,9.42-2.38,15.13m-6.11-28.7a11.53,11.53,0,0,0-8.14-3c-.25,0-.54.22-.22.64a1.9,1.9,0,0,1-1.45-.28,1.93,1.93,0,0,1-1.46.28c.32-.42,0-.62-.22-.64-1.09-.08-5.46.35-8.1,2.92,1.46,1.92,4.49,5.94,4.55,6a.56.56,0,0,0,.4.17h.07a.72.72,0,0,0,.47-.29c.31-.34.47-.53.78-.85.59-.61,1.16-1.07,1.25-1.16a.89.89,0,0,0,.35-.61c0-.22-.19-.31-.3-.44l-.06.07a1.35,1.35,0,0,1-.2-.41l-.06.16s-.23-.54-.58-.49a1.41,1.41,0,0,1-.84-.16s-.05.16,0,.34h0a1,1,0,0,1,.2-1.48,3.27,3.27,0,0,1,.77-.43.76.76,0,0,0,.26-.22,1.77,1.77,0,0,1,.85-.45,6.21,6.21,0,0,1,1.7-.14,3.28,3.28,0,0,1,1,.22,4,4,0,0,1,1.14,1,9.73,9.73,0,0,1,.81,1.62c.44,1.08.39,1,.69,1.68a8.15,8.15,0,0,0,.88,1.74.5.5,0,0,0,.46.23.78.78,0,0,0,.47-.11.45.45,0,0,0,.2-.19c1-1.48,2.92-3.85,4.34-5.73" transform="translate(0 -12.05)"/><path class="cls-4" d="M175,56.1l-.05.06h0a1.68,1.68,0,0,1-.45-.33,19.46,19.46,0,0,1,.49,3.46,1.34,1.34,0,0,1,1.44.2s-1.25-3.07-1.39-3.4h0" transform="translate(0 -12.05)"/><path class="cls-4" d="M180.8,27.77h0l.1,0a1.35,1.35,0,0,1,.52.36,11.69,11.69,0,0,1,2.1,3.61,10.14,10.14,0,0,1,.48,3.4h0s-.34,6.34-1,12.4c-.62,5.52-1,6.24-1,6.24a4.19,4.19,0,0,1-.65-1.52l-.06.05a5.05,5.05,0,0,1-.58-1.64,27.2,27.2,0,0,1-.26-4.51h0a1.94,1.94,0,0,0-.23-.85,4.1,4.1,0,0,1-.26-.77h0a5.11,5.11,0,0,0-1.5-2.7,9.41,9.41,0,0,1-1-1.44c-.29.28-.53.56-.53.72a7.27,7.27,0,0,1,0,2.27,1.84,1.84,0,0,1-.22-.17c.07.68-.25,1.46,0,2.08l-.41,0,.05.09a.59.59,0,0,0,.2.18l.13.06.41.14a1.19,1.19,0,0,0-.17-1.27c-.19-.23,0-.57.43-.4a5.73,5.73,0,0,1,1.64,1.1c.84.8,1.09,1.56.91,1.71s-.24.09-.41,0a.28.28,0,0,1,0,.09.48.48,0,0,1-.36.31l0,0a.51.51,0,0,1-.48.16,1.32,1.32,0,0,1-.49-.14,2,2,0,0,1-.17-.12l-.23.19.09.1a1.58,1.58,0,0,1,.39.71,1.3,1.3,0,0,1,0,.17,20.65,20.65,0,0,1,2.08,2.81,11.14,11.14,0,0,1,.91,1.92,1.52,1.52,0,0,1-.76,0,2.61,2.61,0,0,1,.2,1.07,2.28,2.28,0,0,1-1.22-.26c0,.13,0,.28.07.42.61.4,1.07.77,1.31.94a10.11,10.11,0,0,1-4.91.5l-.44-.06-.09,0s.71,1.68.84,2a6.56,6.56,0,0,0,4.23.66,5.73,5.73,0,0,0,1.08-.29,11.27,11.27,0,0,0,3.41-2.2,13.23,13.23,0,0,0,2.55-3.28c2.19-4.28,2.56-10.64,2.56-13.21V38.06c0-.87-.06-2.16-.1-2.81a24.64,24.64,0,0,1-4.72,3l-.53.3,0-.62a35.35,35.35,0,0,0-2.67-11.83l-1.25,1.65" transform="translate(0 -12.05)"/><path class="cls-4" d="M169.92,59.29a27.13,27.13,0,0,1,.41-3.38l-.2.15-.16.11h0l-.07-.08-1.39,3.41a1.33,1.33,0,0,1,1.44-.2" transform="translate(0 -12.05)"/><path class="cls-4" d="M174.57,60.05a34.54,34.54,0,0,0-.57-4.6h0l-.18-.07c-.06.14-.12.29-.19.44a1.72,1.72,0,0,1-.37.56,2.71,2.71,0,0,1-.93-1.1,2.75,2.75,0,0,1-.92,1.08,1.54,1.54,0,0,1-.38-.56c-.07-.15-.13-.3-.19-.46l0,0a39.59,39.59,0,0,0-.52,4.68c-1.19-.79-1.91,0-1.67.54l.08.13a.77.77,0,0,0,.59.31,4,4,0,0,1,1.47.34,4.56,4.56,0,0,1,1.66,1.37,4.58,4.58,0,0,1,1.67-1.37,3.91,3.91,0,0,1,1.46-.34.84.84,0,0,0,.59-.31.57.57,0,0,0,.08-.13c.25-.55-.47-1.33-1.66-.54" transform="translate(0 -12.05)"/><path class="cls-4" d="M157,52.56a12.69,12.69,0,0,0,2.49,3.32,9.51,9.51,0,0,0,3.72,2.17l.32.11a6.6,6.6,0,0,0,5.06-.46v0c.12-.32.81-1.95.81-1.95h-.08c-.31.06-.63.1-.94.13a9.85,9.85,0,0,1-4.9-.49,19.46,19.46,0,0,1,1.71-1.18c0-.08,0-.17,0-.25a2.38,2.38,0,0,1-1.22.27,2.48,2.48,0,0,1,.21-1.07,1.66,1.66,0,0,1-.76,0,10.26,10.26,0,0,1,.9-1.92,18.47,18.47,0,0,1,1.72-2.38.64.64,0,0,1-.06-.28,1.84,1.84,0,0,1,0-.28,1.58,1.58,0,0,1,.39-.71l.12-.13a2,2,0,0,0-.24-.19.72.72,0,0,1-.19.15,1.28,1.28,0,0,1-.49.14c-.25,0-.4,0-.48-.16l0,0a.5.5,0,0,1-.36-.31.34.34,0,0,1,0-.1.3.3,0,0,1-.36-.05c-.18-.15.06-.91.9-1.7A5.58,5.58,0,0,1,167,44.06c.4-.17.63.17.44.4a1.2,1.2,0,0,0-.18,1.28,2.38,2.38,0,0,0,.37-.14.55.55,0,0,0,.33-.23.19.19,0,0,0,0-.08l-.35,0c.18-.44-.09-1.51.09-2.21a1.38,1.38,0,0,1-.24.14,8.61,8.61,0,0,1-.06-2.13,1.61,1.61,0,0,0-.47-.63,11.3,11.3,0,0,1-.94,1.33,5.11,5.11,0,0,0-1.5,2.69v0a1.94,1.94,0,0,1-.05.2.86.86,0,0,1-.07.21.78.78,0,0,1-.05.14l-.09.22a2.14,2.14,0,0,0-.23.85h0a26.16,26.16,0,0,1-.26,4.51,5.05,5.05,0,0,1-.58,1.64l0,0a4.23,4.23,0,0,1-.66,1.52s-.34-.72-1-6.24c-.68-6.06-1-12.4-1-12.4h0a9.55,9.55,0,0,1,.48-3.38,10.86,10.86,0,0,1,2.1-3.62,1.26,1.26,0,0,1,.57-.37l.2,0h0L162.53,26a35.35,35.35,0,0,0-2.7,11.9l0,.62-.53-.3a25,25,0,0,1-4.72-3c0,.66-.1,2.8-.1,2.8v1.34c0,2.58.46,8.88,2.56,13.22" transform="translate(0 -12.05)"/><path class="cls-5" d="M176.35,33.81c.27.35-.06.89-.29,1.27a9.79,9.79,0,0,1,.29-1.27m-7.23-2.74a13.57,13.57,0,0,1,.89-1.85,1.83,1.83,0,0,0-.89,1.85m5.46,7a2.32,2.32,0,0,0,.57-2.15,4.84,4.84,0,0,0-.57,2.15m1.61-5.74c-.36.08-.23,1.54-.24,1.54s.57-1,.24-1.54m-7.31,2.55a2.09,2.09,0,0,0,.67,1.69,2.68,2.68,0,0,0-.67-1.69m0,1.39a1.79,1.79,0,0,0,.26.91,4.61,4.61,0,0,0,.76,1c-.37-.56-.66-1.59-1-1.87m7-6.16a4.55,4.55,0,0,0,.47,1.52,1.42,1.42,0,0,0-.47-1.52m-7.84,2c-.06-.43.46-.82.28-1.5a1.36,1.36,0,0,0-.28,1.5m1.41,1.1a5.32,5.32,0,0,1-.09,1.1,1.27,1.27,0,0,1-.54-.38,4.3,4.3,0,0,0,.85,1.19,2.93,2.93,0,0,0-.22-1.91M172.56,25c.16.16.67.38,1,.64,0-.43-.42-.67-1-.64m1.56,3.61a.94.94,0,0,0-.85-1c-.05.39.61.62.85,1M171,24.76a.47.47,0,0,1,0,.28.48.48,0,0,1-.95,0,.64.64,0,0,1,0-.24c-.09,0-.1.08-.19.19s-.14.06-.27.15a.75.75,0,0,1,.4-.54,3.2,3.2,0,0,1,2.16.22,5,5,0,0,0-.76-.05,4.35,4.35,0,0,0-.48,0m-.14,0s-.27,0-.3,0,.15.13.2.15a.1.1,0,0,0,.11-.06c0-.05,0-.1,0-.12m1.07.23a1,1,0,0,0,.91.52,1.54,1.54,0,0,0-.91-.52m4,10.57a6.56,6.56,0,0,0-.54,1.84c.13-.11.75-1.58.54-1.84m-2-9.15a1.06,1.06,0,0,0-.78-.55,1.71,1.71,0,0,1,.28.46,2.15,2.15,0,0,1-.47.09,1,1,0,0,0,1,0m-.07,3.25c-.35.38,0,1.12.18,1.79.18-.33.4-1.43-.18-1.79m1.84,1.71a2.41,2.41,0,0,1-.6,1.26,4.83,4.83,0,0,1-.59-.61,2.64,2.64,0,0,0,.61,1.45,2.26,2.26,0,0,0,.58-2.1m-1-3.17c-.07.42.59,1.05.59,1.05a1,1,0,0,0-.59-1.05m-1.38-1c.17.18.72.31,1,.59a.74.74,0,0,0-1-.59m9.26,5.17a5.28,5.28,0,0,1-.42,2.13,1.16,1.16,0,0,1-.24-.41,1.16,1.16,0,0,0,.24.93,4.13,4.13,0,0,0,.42-2.65m-14.18,2.46A4.87,4.87,0,0,0,168,33a3.41,3.41,0,0,0,.43,1.86m11.47,1.67s-.24-.58.31-2.34c-.81,1.79-.7,2.28-.52,2.89a1.15,1.15,0,0,0,.56-.84.85.85,0,0,1-.35.29M179.31,35s-.2-.4.3-1.94a2.94,2.94,0,0,0-.51,2.48,1.27,1.27,0,0,0,.6-.8.91.91,0,0,1-.39.26m3.95,1a2.64,2.64,0,0,0,.19-1.74,3.31,3.31,0,0,1-.28,1.41.65.65,0,0,1-.17-.17.64.64,0,0,0,.26.5m-.81-1a.72.72,0,0,0,.27.58,3,3,0,0,0,.29-2,4.07,4.07,0,0,1-.34,1.56s-.19-.09-.22-.17m-.18-3.62a5.11,5.11,0,0,1-.67,2.42,1.49,1.49,0,0,1-.25-.53,1.35,1.35,0,0,0,.23,1.06,4.43,4.43,0,0,0,.69-2.95m-6.84,10.14a.73.73,0,0,0-.09-.37,4.29,4.29,0,0,0-.42,1.87c.2-.73.77-.89.92-1.57a.72.72,0,0,0,.35.13,5.93,5.93,0,0,1-.33-1.11,2.42,2.42,0,0,1-.43,1m6.42-10.78a5.09,5.09,0,0,1-.8,2.32,2.9,2.9,0,0,1-.12-.94A1.72,1.72,0,0,0,181,33.6a4.76,4.76,0,0,0,.84-2.9M180.47,32a5,5,0,0,1-.05-1.21,2.44,2.44,0,0,0,0,1.84,4.28,4.28,0,0,0,1-2.69,4.28,4.28,0,0,1-.92,2.06m-7.13,2.76a2.86,2.86,0,0,0,.72-1.89,4.45,4.45,0,0,1-.78,1,3.28,3.28,0,0,1-.65-.6,2.54,2.54,0,0,0,.71,1.51M163.44,33a5.36,5.36,0,0,1-.8-2.32,4.76,4.76,0,0,0,.85,2.9,1.69,1.69,0,0,0,.07-1.52,2.61,2.61,0,0,1-.12.94m1.21,3.49a.85.85,0,0,1-.35-.29,1.17,1.17,0,0,0,.55.84c.19-.61.29-1.1-.52-2.89.56,1.76.32,2.34.32,2.34M164,32a4.28,4.28,0,0,1-.92-2.06,4.34,4.34,0,0,0,1,2.69,2.43,2.43,0,0,0,0-1.84A5,5,0,0,1,164,32m5.22-6.9s-.09.17.08.18.17-.15.17-.15-.18-.07-.25,0m-6.89,9.38a5.28,5.28,0,0,1-.42-2.13,4.21,4.21,0,0,0,.41,2.65,1.17,1.17,0,0,0,.25-.93,1.16,1.16,0,0,1-.24.41m-1,1.15a3.31,3.31,0,0,1-.28-1.41,2.64,2.64,0,0,0,.19,1.74.64.64,0,0,0,.26-.5.65.65,0,0,1-.17.17m.5-.53a4.07,4.07,0,0,1-.34-1.56,3,3,0,0,0,.29,2,.75.75,0,0,0,.27-.58c0,.08-.22.17-.22.17m1.06-1.37a5.32,5.32,0,0,1-.66-2.42,4.43,4.43,0,0,0,.69,2.95,1.35,1.35,0,0,0,.23-1.06,1.56,1.56,0,0,1-.26.53m6.57,9.17a4.44,4.44,0,0,0-.42-1.87.73.73,0,0,0-.09.37,2.42,2.42,0,0,1-.43-1,5.14,5.14,0,0,1-.34,1.11.75.75,0,0,0,.36-.13c.15.68.72.84.92,1.57M165.19,35a.86.86,0,0,1-.39-.26,1.27,1.27,0,0,0,.6.8,3,3,0,0,0-.52-2.48c.5,1.54.31,1.94.31,1.94m8.12,4.24a3.34,3.34,0,0,0,.46-1.78,3,3,0,0,0-.46,1.78m0,2.34a3.45,3.45,0,0,0,.48-2,3.4,3.4,0,0,0-.48,2m.18-5.73a2.67,2.67,0,0,1-.76,1.24,2.42,2.42,0,0,1-.54-.77,1.6,1.6,0,0,0,.68,1.54,2.56,2.56,0,0,0,.62-2m-.9,6.21a1.59,1.59,0,0,0,0-1.37,1.74,1.74,0,0,0,0,1.37M172,40.58a1.9,1.9,0,0,0-.1-1.55,2,2,0,0,0,.1,1.55m16.21,12.34a11.94,11.94,0,0,1-4.61,5,7.5,7.5,0,0,1-6.91.83s.08.19.1.25.08.18.1.24c.39,1.05.13,2.13-1.3,2.3a3.62,3.62,0,0,0-1.28.29,4,4,0,0,0-1.15.85,5.09,5.09,0,0,0-.73,1h0a5.52,5.52,0,0,0-.72-1,4.14,4.14,0,0,0-1.15-.85,3.66,3.66,0,0,0-1.29-.29c-1.42-.17-1.68-1.25-1.29-2.3l.09-.24.1-.25a6.69,6.69,0,0,1-4.58.17l-.2,0a10.1,10.1,0,0,1-4.4-2.45,13.56,13.56,0,0,1-2.65-3.54C153.58,47.16,154,38.69,154,37.79c-.09-9.79,2.08-15.28,3.94-17.93-.56-.74-.9-1.18-.93-1.21a1.88,1.88,0,0,0-1.17-.57,20.59,20.59,0,0,0-.66-2.81,15.07,15.07,0,0,0,2.48,1.44,1.75,1.75,0,0,0,.24,1.28l.74,1a10,10,0,0,1,3.07-2.57c.34-.19.69-.37,1.07-.55a1.84,1.84,0,0,1,.5-1.36,1,1,0,0,1,.58-.79h0a1.22,1.22,0,0,1,1,.28,2.26,2.26,0,0,1,1.38.75,26.83,26.83,0,0,1,3.91-.51,2.25,2.25,0,0,1,1.21-1.52,1.28,1.28,0,0,1,.95-.65h0a1.28,1.28,0,0,1,1,.65,2.25,2.25,0,0,1,1.21,1.52,26.5,26.5,0,0,1,3.9.51,2.31,2.31,0,0,1,1.39-.75,1.22,1.22,0,0,1,1-.28h0a1,1,0,0,1,.58.79,1.84,1.84,0,0,1,.5,1.36c.38.18.73.36,1.06.55A11.51,11.51,0,0,1,186.05,19l.81-1.09a1.72,1.72,0,0,0,.24-1.27,16.11,16.11,0,0,0,2.47-1.44,22.53,22.53,0,0,0-.66,2.8,1.87,1.87,0,0,0-1.16.57s-.42.54-1.05,1.38c1.85,2.67,4,8.11,3.89,17.83,0,.78.38,9.42-2.38,15.13m-.88-30.73a9,9,0,0,1-2.32.23,4.68,4.68,0,0,0-.52,2.32,2.3,2.3,0,0,1-1-.56l-1.09,1.44a36.36,36.36,0,0,1,2.85,12c3.93-2.25,4.5-2.88,4.69-3.17-.29-5.08-1-9-2.63-12.29m-5.35,15a3.88,3.88,0,0,0,.07,1.56,4.09,4.09,0,0,0,.6-1.29,3.69,3.69,0,0,0,.24,1.26,10.34,10.34,0,0,0,.52-2.6s0,.05.19.12a9.66,9.66,0,0,0-.07-3,10.37,10.37,0,0,0-2.17-4.61c-.75-.94-1.38-.51-2,.22-1,1.18-1.23,1.7-2.45,1.93-.12,0,0,.09.2.09a2.89,2.89,0,0,0,2.37-1.58c.29-.34.66-.65,1-.46.12.07.52.57.11,1.79a1.19,1.19,0,0,0-.15-.59,7.9,7.9,0,0,1-.76,2,3.19,3.19,0,0,1-.09-.43c-.14,1-1,2-1.09,3.43a1,1,0,0,1-.17-.62c-.63,1.23-1.27,3.44-.87,4.55a7.4,7.4,0,0,1,1-3.26c-.43,1.45-.93,3.24-.5,4.32a8.5,8.5,0,0,1,.88-3.06c-.59,2.38-.84,3.59-.17,4.51a7.48,7.48,0,0,1,.68-3.35c-.3,1.86-.75,3.48.07,4.29a8.78,8.78,0,0,1,.55-3.4c-.26,1.75-.49,3.45,0,4.33a8.87,8.87,0,0,1,.09-1,15.16,15.16,0,0,1,.49-2.38s-.17,1.25-.26,2.77a4.47,4.47,0,0,0,.33,2.47,25.55,25.55,0,0,1,.61-4.58s-.21,1.9-.36,4.79c-.21,4.41.34,5.8.5,6.2a2.92,2.92,0,0,1-.05-.61,5,5,0,0,1,0-.93,6.62,6.62,0,0,1-.3-1.94,49,49,0,0,1,.8-7.07c0,.53-.54,6.74-.5,7.53a5.38,5.38,0,0,0,.26,1.33,6.33,6.33,0,0,0,.37,2.89s.16-.58.28-1.31a.31.31,0,0,1-.15.15,5.54,5.54,0,0,1-.16-2.4,3.89,3.89,0,0,1-.2-1.15,55,55,0,0,1,.79-6.72c0,.14-.5,6.26-.5,6.65a4.11,4.11,0,0,0,.18,1.19,8.69,8.69,0,0,0,.05,1.91,4.5,4.5,0,0,0,.11-.67s.48-3.73.83-8c.17-2.09.39-4.7.46-5.86l-.05,0a8.65,8.65,0,0,1-.75,3,3.15,3.15,0,0,1-.32-1.25,3.56,3.56,0,0,1-.63,1,3.28,3.28,0,0,1-.15-1.17,1.68,1.68,0,0,1-.57.61,2.5,2.5,0,0,1-.22-1.27,1.84,1.84,0,0,1-.51.49c-.07-.17-.44-.8.23-3.12-.27,2.15-.1,2.39-.05,2.57a2,2,0,0,0,.35-.25,13.21,13.21,0,0,1,.2-1.51,6.28,6.28,0,0,0,.15,2.57,2.89,2.89,0,0,0,.68-1.17m-5.44,3.37a.07.07,0,0,1,0-.06h0a.31.31,0,0,1,.15.07l.16.09a2.53,2.53,0,0,1-.13-.83,4.45,4.45,0,0,0-.15-1.07v0a1.66,1.66,0,0,1-.3.48,1.71,1.71,0,0,0-.41.79v.06l0,0a2.15,2.15,0,0,1-.19-.22.35.35,0,0,0-.05-.08h0v0a7.57,7.57,0,0,1-1.19,1.81h0a3.74,3.74,0,0,0-.48,1.74,7.41,7.41,0,0,0,0,1.84l.31-.33a5.58,5.58,0,0,1,0,.69,2.21,2.21,0,0,1-.12.51,1.21,1.21,0,0,0,1.07-.47l.08.23c.07.22.13.47,0,.61s-.32.27-.28.52a.34.34,0,0,0,.17.25h0a.32.32,0,0,0,.18.25.44.44,0,0,1,0-.24.31.31,0,0,1,.27-.21h.14s.07.68.13,1,.12.58.16.94a1.94,1.94,0,0,0,0,.24.29.29,0,0,0,.29.28,1.55,1.55,0,0,0,.3,0h0c-.18,0-.17.12-.16.15a.78.78,0,0,1,0,.45l0,0a.54.54,0,0,0,.24-.62v0h0c.2-.12.15-.54-.15-1.17-.13-.3-.19-.79-.1-.84h0c.05,0,.11,0,.25.21a5.15,5.15,0,0,0,.32.41.71.71,0,0,1,.19.41.11.11,0,0,1-.12.12h-.2c.07.07.32.35.4.27s0,.13.35.17a.36.36,0,0,0,.37-.4.85.85,0,0,0,0-.23,1.26,1.26,0,0,0-.32-.58l-.07-.08c-.56-.61-.51-.75-.47-.8s.1-.13.24-.13a2.82,2.82,0,0,1,.47,0c.22,0,.59.1.58.22s0,0-.06.06-.2.08-.22,0a.59.59,0,0,0,.21.15c.09,0,.47.15.59,0l0-.08c.07,0,.25,0,.29-.16s-.12-.28-.28-.36a5.58,5.58,0,0,0-.82-.31l-.4-.1-.67-.18a4.94,4.94,0,0,1-.5-.17l-.14-.07a.9.9,0,0,1-.28-.24,3.21,3.21,0,0,1-.22-.67,1.47,1.47,0,0,0,.52.21,3.65,3.65,0,0,1,0-.6c.11-1.1.13-1.73.13-1.73l.22.23a6.35,6.35,0,0,0-.07-1.11,8.49,8.49,0,0,0-.22-1.29m.8,5.25.52.13a.84.84,0,0,0,.24.06,2,2,0,0,0,.13-.75c0-.29.64.32,1.08.76.18.18.21.1.11,0a6.18,6.18,0,0,0-1.55-1.32c-.41-.26-.62-.19-.48,0a1.29,1.29,0,0,1,0,1.13m.57,4.29c.46.56,1.2,1.61,1.49,1.89.61.61.87.68,1.34.71a7.84,7.84,0,0,0-1-1.9c-.36-.56-1-1.36-1.47-2a.25.25,0,0,0,0,.07.49.49,0,0,1-.18.2.56.56,0,0,1-.38.1,1.56,1.56,0,0,0-.56-.21.67.67,0,0,1-.13.53.93.93,0,0,1-.25.65l0,0c.16.29.09.43,0,.52s-.85.95-1,1.11a.32.32,0,0,1-.42,0l-.13-.11-.36.37,0,0h0a2.91,2.91,0,0,0,.88.53c.32.14.93.36,1.57.62h0a14.69,14.69,0,0,1-.51-1.47c.18.25.69,1.12,1,1.68h0l.68.32c.12.06.55.29.64.35a3.64,3.64,0,0,0-.1-.48,7.07,7.07,0,0,1-1.72-2.79c.61.88.77,1.13,1,1.44a3.51,3.51,0,0,0,1.91,1.43c-.11-.55-.31-.67-.31-.67a5.69,5.69,0,0,1-.81-.87,9.72,9.72,0,0,1-1.18-2.09m-2,5.34a12.89,12.89,0,0,0,4.3-.22,17.23,17.23,0,0,0-3.71-1.94,6.92,6.92,0,0,1-1.34-.65,5.31,5.31,0,0,1-.62-.49c-.67-.62-2.45-2.47-2.77-2.82l-1.18,1.09a44.47,44.47,0,0,0,3.92,3.48,23.25,23.25,0,0,0,3.89,1.2,15.17,15.17,0,0,1-3.89-.84c-1-.41-4.22-3.57-4.22-3.57l-.77.72a22,22,0,0,0,2.65,2.53,7,7,0,0,0,3.74,1.51m-2.73-.35c-.2-.1-.4-.22-.59-.34h0l.17.36a2.55,2.55,0,0,0,.43.63l.05-.09.18-.45-.24-.11m-5.69-4.28a7.85,7.85,0,0,1-1.06,2,7,7,0,0,1-.66.75,2.56,2.56,0,0,0-.07.32l.23-.11a10.28,10.28,0,0,1,1.16-.54c.33-.57.81-1.35,1-1.59a10.34,10.34,0,0,1-.5,1.4c.53-.21,1-.38,1.21-.48a2.93,2.93,0,0,0,.68-.42l.15-.13-.38-.38-.12.1s-.23.21-.43,0-1-1-1-1.1-.17-.25,0-.53a0,0,0,0,0,0,0,.88.88,0,0,1-.27-.67.64.64,0,0,1-.13-.53A.53.53,0,0,1,167,49a.56.56,0,0,1-.32.15h-.05a.61.61,0,0,1-.35-.11c-.44.58-.93,1.23-1.24,1.7a8,8,0,0,0-1,1.9c.47,0,.73-.1,1.34-.71.29-.29,1-1.34,1.5-1.9a10.49,10.49,0,0,1-1.18,2.1,5.07,5.07,0,0,1-.82.86s-.2.13-.31.68a3.51,3.51,0,0,0,1.91-1.43c.24-.32.4-.56,1-1.45m-.76-3.17-.07.08a1.27,1.27,0,0,0-.33.58,1.64,1.64,0,0,0,0,.23c0,.26.16.41.38.4s.15-.39.34-.17.33-.2.39-.27h-.19a.11.11,0,0,1-.12-.12.65.65,0,0,1,.19-.41c.12-.15.22-.27.32-.41s.19-.21.24-.21h0c.08.06,0,.54-.11.84-.29.63-.34,1-.14,1.17h0v0a.54.54,0,0,0,.24.62l0,0a.72.72,0,0,1,0-.45s0-.1-.16-.15h0a1.51,1.51,0,0,0,.3,0,.29.29,0,0,0,.29-.28c0-.08,0-.16,0-.24,0-.36.11-.69.16-.94s.13-1,.13-1h.14a.31.31,0,0,1,.27.21.47.47,0,0,1,0,.24.29.29,0,0,0,.19-.25h0a.34.34,0,0,0,.17-.25c0-.25-.25-.5-.28-.52s-.11-.39,0-.61l.1-.27a1.21,1.21,0,0,0,.34.29,1.16,1.16,0,0,0,.81.22,2,2,0,0,1-.13-.51c0-.37,0-.69,0-.69l.3.33a5,5,0,0,0,.07-1.74,6.72,6.72,0,0,0-.48-2,3.13,3.13,0,0,0-.26-.59.67.67,0,0,1-.24.34,4.71,4.71,0,0,1-.82-1.37,1.42,1.42,0,0,1-.25.32l-.05,0V40a1.71,1.71,0,0,0-.41-.79,1.91,1.91,0,0,1-.3-.48,4.84,4.84,0,0,0-.15,1.06,2.64,2.64,0,0,1-.13.84l.16-.1a.35.35,0,0,1,.15-.07h0s0,0,0,0a12,12,0,0,0-.22,1.29,4,4,0,0,0,0,1.05s.34-.2.34-.2a5.05,5.05,0,0,0-.1,1.76,2.77,2.77,0,0,1,0,.6,1.3,1.3,0,0,0,.48-.18,3.07,3.07,0,0,1-.22.66.8.8,0,0,1-.28.24l-.15.07a5,5,0,0,1-.49.17l-.67.18-.37.09a4.77,4.77,0,0,0-.85.32c-.16.08-.32.25-.28.36s.22.16.29.16l0,.08c.12.18.5.07.59,0a.59.59,0,0,0,.21-.15s-.15,0-.22,0-.06,0-.06-.06.35-.18.58-.22a2.82,2.82,0,0,1,.47,0,.23.23,0,0,1,.25.13s.08.19-.48.8m.27-3c.15-.23-.07-.3-.48,0A6.18,6.18,0,0,0,165,46c-.1.14-.07.22.12,0,.43-.44,1.09-1.05,1.08-.76a2,2,0,0,0,.12.76l.2-.05.57-.15a1.31,1.31,0,0,1-.06-1.12m-.87-9a7.4,7.4,0,0,1,1,3.26c.4-1.11-.25-3.32-.87-4.55a1,1,0,0,1-.17.62c-.12-1.41-.95-2.44-1.09-3.43a3.07,3.07,0,0,1-.1.43,7.91,7.91,0,0,1-.75-2,1.19,1.19,0,0,0-.15.59c-.41-1.22,0-1.72.1-1.79.31-.19.69.12,1,.46.44.52.9,1.55,2.36,1.58.24,0,.33-.06.21-.09-1.22-.23-1.43-.75-2.45-1.93-.63-.73-1.26-1.16-2-.22A10.19,10.19,0,0,0,161,33.25a9.08,9.08,0,0,0-.07,3c.17-.07.18-.12.18-.12a10.45,10.45,0,0,0,.53,2.6,3.72,3.72,0,0,0,.23-1.26,4.09,4.09,0,0,0,.61,1.29,3.88,3.88,0,0,0,.07-1.56,3.05,3.05,0,0,0,.67,1.17,6.18,6.18,0,0,0,.16-2.57c.11.63.17,1.12.2,1.51a1.66,1.66,0,0,0,.35.25c0-.18.21-.42-.06-2.57.68,2.32.31,3,.24,3.12a1.59,1.59,0,0,1-.51-.49,2.62,2.62,0,0,1-.22,1.27,1.6,1.6,0,0,1-.57-.61,3.28,3.28,0,0,1-.15,1.17,3.75,3.75,0,0,1-.64-1,3.15,3.15,0,0,1-.31,1.25,8.73,8.73,0,0,1-.76-3l0,0c.06,1.16.29,3.77.46,5.86.34,4.25.83,8,.83,8a4.5,4.5,0,0,0,.11.67,8.69,8.69,0,0,0,.05-1.91,4.11,4.11,0,0,0,.18-1.19c0-.39-.53-6.51-.51-6.65a52.87,52.87,0,0,1,.8,6.72,3.89,3.89,0,0,1-.2,1.15,5.54,5.54,0,0,1-.16,2.4.27.27,0,0,1-.15-.15c.12.73.27,1.31.27,1.31a6.15,6.15,0,0,0,.38-2.89,6,6,0,0,0,.26-1.33c0-.79-.48-7-.51-7.53a47.35,47.35,0,0,1,.81,7.07,6.62,6.62,0,0,1-.3,1.94,4.24,4.24,0,0,1,0,.93,2.08,2.08,0,0,1,0,.61c.17-.4.72-1.79.5-6.2-.14-2.89-.36-4.79-.36-4.79a24.44,24.44,0,0,1,.62,4.58,4.47,4.47,0,0,0,.33-2.47C164.18,41.28,164,40,164,40a15.16,15.16,0,0,1,.49,2.38,8.87,8.87,0,0,1,.09,1c.5-.88.26-2.58,0-4.33a8.76,8.76,0,0,1,.56,3.4c.81-.81.37-2.43.06-4.29a7.37,7.37,0,0,1,.69,3.35c.66-.92.42-2.13-.18-4.51a8.51,8.51,0,0,1,.89,3.06c.43-1.08-.07-2.87-.5-4.32m16-11.5a11.53,11.53,0,0,0-8.14-3c-.25,0-.54.22-.22.64a1.9,1.9,0,0,1-1.45-.28,1.94,1.94,0,0,1-1.46.28c.32-.42,0-.62-.22-.64-1.09-.08-5.46.35-8.1,2.92,1.46,1.92,4.49,5.94,4.56,6a.51.51,0,0,0,.39.17h.07a.68.68,0,0,0,.47-.29c.31-.34.47-.53.78-.85.59-.61,1.16-1.07,1.25-1.16a.83.83,0,0,0,.34-.61c0-.22-.19-.31-.29-.44l-.06.08a1.6,1.6,0,0,1-.21-.42l-.05.16s-.23-.54-.58-.49a1.41,1.41,0,0,1-.84-.16s-.05.16,0,.35h0a1,1,0,0,1,.21-1.48,3.11,3.11,0,0,1,.77-.43.76.76,0,0,0,.26-.22,1.77,1.77,0,0,1,.85-.45,6.21,6.21,0,0,1,1.7-.14,3.28,3.28,0,0,1,1,.22,4,4,0,0,1,1.14,1,10.57,10.57,0,0,1,.81,1.62c.44,1.08.39,1,.69,1.68a8.15,8.15,0,0,0,.88,1.74.51.51,0,0,0,.46.23.78.78,0,0,0,.47-.11.4.4,0,0,0,.2-.19c1-1.48,2.92-3.85,4.34-5.73m-8,17.23a2.75,2.75,0,0,0,.53-1.58c.07.1.21.18.25.36a8.71,8.71,0,0,0,.78-2.48c.17.07,0,0,.2.13a7.79,7.79,0,0,0,.54-2.44c.06,0,.16,0,.21.07.08-.58.17-1.52.19-2.18a7.45,7.45,0,0,0-.23-2.39,7.56,7.56,0,0,0-.74-1.64.73.73,0,0,0-.21.16c-.11-.32-.4-1.1-.54-1.38-.37-.72-.55-1.18-.93-1.42a2.92,2.92,0,0,0,.46,0,6,6,0,0,0-.62-.61c.09-.07.25-.06.51,0-.37-.35-.5-.87-1.47-1.24.17,0,.31,0,.54,0a1.67,1.67,0,0,0-.91-.65c-1-.19-2.36-.22-3,.53,0,.06-.22.09-.37.15a.84.84,0,0,0-.19.09c-.11.08-.13.2.09.5-.28,0-.35-.31-.4-.28a.85.85,0,0,0-.3.3,1.1,1.1,0,0,0-.15.56.19.19,0,0,0,.31-.14c0-.1.45-.14.6-.14s.42,0,.69,0c-.09,0-.4.12-.51.16s-.14.16,0,.17.18,0,.3-.07,0,.17,0,.25c.8-.18.86.68,1.71.51-.4-.32-.74-.84-1.06-1,.84.13,1.3.89,2.21.93a1.34,1.34,0,0,0-.11-.25c.31,0,.53.24.62.24a1.33,1.33,0,0,1-.72.27c.06.11.4.14.51.16a.8.8,0,0,1-.8.16,3.75,3.75,0,0,1-.91.77,2.66,2.66,0,0,1,0-.28c-.39.23-.65.64-.94.75.08-.14.16-.39.22-.52a13.31,13.31,0,0,0-2.37,2.49,5,5,0,0,0-.49,2.8c0,.68.33,2.62.38,3l.21-.09a16.4,16.4,0,0,0,1.37,4.06.59.59,0,0,1,.22-.3,1.83,1.83,0,0,0,.58,1.08,1,1,0,0,1,.13-.49c.08.27,0,1.13.52,1.6a2.62,2.62,0,0,1,.13-.75,6.26,6.26,0,0,0,.23.9,1.78,1.78,0,0,0,.52.73,3,3,0,0,1,.11-.92,2.72,2.72,0,0,1,.39,1.15c.5-.38.69-1.63.69-1.63a1.06,1.06,0,0,1,.25.47,3.37,3.37,0,0,0,.69-1.5,2.32,2.32,0,0,1,0,.78m.5,6.64a6.64,6.64,0,0,0,1,0c0-.07,0-.14,0-.19s0-.09,0-.14h0a2.43,2.43,0,0,1-1.13.07,3.3,3.3,0,0,1-.47-.11c-.17-.06-.46.24-.69.48s-.44.49-.55.61a0,0,0,0,0,0,.06l2.83,2.58s.06,0,.11,0l.44-.44-2.48-2.33s-.05-.09,0-.11l.15-.15a.07.07,0,0,1,.1,0l.81.76,1,.93.66.59a.92.92,0,0,1,.11-.11c.1-.11.07-.18-.27-.5l-1.71-1.71c-.16-.19,0-.25.15-.25m-3.8.52-2.48,2.33.43.44c.05,0,.07,0,.12,0l2.82-2.58s0,0,0-.06-.37-.4-.56-.61-.51-.53-.69-.48a3.48,3.48,0,0,1-.46.11,2.48,2.48,0,0,1-1.14-.07h-.06c0,.06,0,.11,0,.17a1.24,1.24,0,0,1,0,.16,5.7,5.7,0,0,0,1,0c.19,0,.31.06.15.25L168.21,50c-.34.32-.36.4-.26.5l.11.11.66-.59,1.05-.93.8-.75a.07.07,0,0,1,.11,0l.14.15s0,.07,0,.11m.23-5.77a.73.73,0,0,0-.08-.33,2.8,2.8,0,0,0-.29-.32.35.35,0,0,1-.08-.12,1.1,1.1,0,0,0,0,.4.52.52,0,0,0,.22.28.55.55,0,0,0,.18.09m0,4.69.21.21a6.32,6.32,0,0,0,.12-1.17,3,3,0,0,0-.33,1m-1-.06c.09,0,.33-.14.45-.17l.09,0a7.56,7.56,0,0,1,.28-.81,6.18,6.18,0,0,0-.82,1m1.82.9c0-.33,0-.69,0-.85a1.49,1.49,0,0,0-.22.58s.24.25.27.27m.16-2.2a.79.79,0,0,0-.38-.57,1,1,0,0,0,.38.57m.25-.71h0a.73.73,0,0,1,.22-.24,6.07,6.07,0,0,0,.94-.69,1.42,1.42,0,0,0,.19-.43,1.16,1.16,0,0,1-.4.36,3.57,3.57,0,0,0-.87.64.56.56,0,0,0-.08.21.34.34,0,0,0,0-.16c-.17-.35-.67-.49-1-.84s-.2-.32-.2-.32a.85.85,0,0,0,.13.54,3.2,3.2,0,0,0,.67.55,1.09,1.09,0,0,1,.41.38m-.33-1.25c0-.55-.6-.61-.74-1.15-.07.76.47.77.74,1.15m.28,2.19a1.53,1.53,0,0,0,.25-.14.79.79,0,0,0,.36-.34.56.56,0,0,0,.06-.38.85.85,0,0,1-.24.33,3.57,3.57,0,0,0-.27.28,1.07,1.07,0,0,0-.16.25m.53.32c0,.33.1,1.1.11,1.34h0l.27-.28a2.6,2.6,0,0,0-.38-1.06m-.49,2a3.86,3.86,0,0,1,.29-.34h0a3.3,3.3,0,0,0-.29-1.15c0,.2,0,.94,0,1.5m0,.23c0,.18,0,.32,0,.39l.19-.2-.2-.19m.13.65c.34.36.8.84,1.1,1.14l.32-.31-1.18-1.09-.24.26M173.77,51l.77.76.33-.36-.77-.72-.33.32m.23-3.66a6,6,0,0,0-.73-.85,7.3,7.3,0,0,1,.31.85h0l0,0a.41.41,0,0,1,.16,0l.16,0,.06,0m-.28-4.46a2.21,2.21,0,0,1-.48.56,1.39,1.39,0,0,0,.08-.38,2.69,2.69,0,0,1-.45.6,1.41,1.41,0,0,0-.42.69A2.1,2.1,0,0,1,173,44a1.79,1.79,0,0,0,.75-1.09m-5.52-4.78a1.63,1.63,0,0,0,.71,1.26,4.37,4.37,0,0,0-.71-1.26m14.11-14.18c.11-.13.2-.26.3-.39a12.61,12.61,0,0,0-5.46-2.83,14.91,14.91,0,0,0-3.35-.33c-.61,0-1,.24-1,.62-.38-.07-.48-.55-.53-.63,0,.2-.22.58-.51.63,0-.38-.39-.61-1-.62a15,15,0,0,0-3.36.33A12.15,12.15,0,0,0,162,23.47l.29.39a11.16,11.16,0,0,1,4.47-2.5,14.13,14.13,0,0,1,3.92-.52c.71,0,.81.43.73.65a1.15,1.15,0,0,0,.88-.43,1.18,1.18,0,0,0,.89.43c-.08-.22,0-.62.73-.65a14.13,14.13,0,0,1,3.92.52,11.73,11.73,0,0,1,4.49,2.58m.8-1.44a2.77,2.77,0,0,0,.74,1.45l.2.13h0a4.3,4.3,0,0,1,.58-2.1h0a4.58,4.58,0,0,0,1.84,0c-.93-.63-.73-1.33-1.42-2.1a3.13,3.13,0,0,0-.26-.25,1,1,0,0,0-.56-.24.4.4,0,0,0-.33.14c-.08.1-1.06,1.14-1.69,1.86.57,0,.72.51.89,1.11m.64-3.45a10.23,10.23,0,0,0-2.93-1.9,22.86,22.86,0,0,0-8.53-1.43h0a22.86,22.86,0,0,0-8.53,1.43,10.23,10.23,0,0,0-2.93,1.9s1.47,1.65,1.85,2.09a.71.71,0,0,1,.15.78c2.25-1.51,4.81-2.26,9.38-2.29h.2c4.49,0,7.12.8,9.35,2.29a.71.71,0,0,1,.15-.78c.38-.44,1.85-2.09,1.85-2.09m-23.09.48h0c-.09-.1-.32-.31-.88.1-1,.87-.68,1.66-1.72,2.35a4.87,4.87,0,0,0,.92.09l.44,0,.48-.08h0a4.38,4.38,0,0,1,.58,2.11c1.21-.65.72-2.71,1.84-2.69l-1.65-1.86m.78,4.17L163.13,26c.31.42,1.37,1.7,1.36,1.53a13.86,13.86,0,0,0-1.06-1.56l-1.84-2.46-.15.24M166,31.52a8.92,8.92,0,0,0,.43,2.47,5,5,0,0,0-.43-2.47m-.55-.94a3.62,3.62,0,0,0,0,1.23,5,5,0,0,0,.26.71,5.21,5.21,0,0,0-.29-1.94m2.07,7.31c.14-.46.3-3.41-.8-4.68a24.55,24.55,0,0,1,.8,4.68m-3.3,17.35a12.89,12.89,0,0,0,4.3.22,7.13,7.13,0,0,0,3.39-1.24c-.24-.2-.53-.46-.83-.75a5.78,5.78,0,0,1-1.15.8,15.29,15.29,0,0,1-3.9.84,23,23,0,0,0,3.89-1.2,6.72,6.72,0,0,0,.9-.68c-.37-.36-.74-.72-1-1a4.25,4.25,0,0,1-.53.42,7.21,7.21,0,0,1-1.34.65,17.14,17.14,0,0,0-3.72,1.94m7-.14a2.61,2.61,0,0,0,.11.3s.13.29.15.32a3,3,0,0,0,.43-.62l.29-.6h0l-.27.19a4,4,0,0,1-.38.24l-.29.16,0,0M177,37.89a23.77,23.77,0,0,1,.8-4.68c-1.1,1.27-.94,4.22-.8,4.68m.26-4.91c.35-1,.06-1.57-.15-1.67,0,.48.13.7.15,1.67m.89,1.05a9.25,9.25,0,0,0,.42-2.47,4.85,4.85,0,0,0-.42,2.47m.68-1.47a5,5,0,0,0,.26-.71,3.38,3.38,0,0,0,0-1.23,5.18,5.18,0,0,0-.3,1.94m2.78-6.68,1.56-2.09a1.77,1.77,0,0,1-.16-.22l-1.7,2.29a13.86,13.86,0,0,0-1.06,1.56,8.84,8.84,0,0,0,1.36-1.54m4.77-5.46c-.1.12-.3.39-.3.39a2.77,2.77,0,0,0,1.26,1.33,19.31,19.31,0,0,0-1-1.72m-.68-.4.14.23L189,16a10.84,10.84,0,0,1-1.59.89,2,2,0,0,1-.35,1.29L185.67,20M164,14.17h0a.61.61,0,0,0-.28.51,1.28,1.28,0,0,0-.33,1.39,11.23,11.23,0,0,0-4.51,3.31c.09.1.17.22.26.33a11,11,0,0,1,4.94-3.51,1,1,0,0,1,.2-1.34h0a1.18,1.18,0,0,1,1.14.91A24.27,24.27,0,0,1,171,15a1.86,1.86,0,0,1,1.09-1.78.45.45,0,0,1,.23-.37h0a.45.45,0,0,1,.23.37A1.86,1.86,0,0,1,173.61,15a24.19,24.19,0,0,1,5.52.76,1.17,1.17,0,0,1,1.14-.91h0a1,1,0,0,1,.2,1.34,11.29,11.29,0,0,1,5,3.56c.09-.12.17-.24.26-.35a11.57,11.57,0,0,0-4.57-3.34,1.3,1.3,0,0,0-.33-1.39.59.59,0,0,0-.28-.51h0a.78.78,0,0,0-.59.23,1.67,1.67,0,0,0-1.28.88,25.49,25.49,0,0,0-4.64-.62A1.94,1.94,0,0,0,172.9,13a.9.9,0,0,0-.61-.52.86.86,0,0,0-.61.52,1.93,1.93,0,0,0-1.16,1.7,25.61,25.61,0,0,0-4.65.62,1.64,1.64,0,0,0-1.27-.88.78.78,0,0,0-.59-.23m-5.21,6a1.72,1.72,0,0,1,.14-.22c-.76-1-1.28-1.67-1.33-1.73a2,2,0,0,1-.34-1.29,11.4,11.4,0,0,1-1.59-.9l3.12,4.14m-1.57,2a3.41,3.41,0,0,0,.92-.81,5,5,0,0,0,.36-.6l-.32-.41a19.69,19.69,0,0,0-1,1.82m-2.64,12.27c.19.28.75.92,4.69,3.16a36.16,36.16,0,0,1,2.87-12.09l-1-1.37a2.26,2.26,0,0,1-1.05.6,4.59,4.59,0,0,0-.51-2.32,9.22,9.22,0,0,1-2.35-.22c-1.55,3.31-2.33,7.17-2.62,12.24m14,23.27,0-.05c.11-.32.8-1.95.8-1.95h-.08c-.31.06-.63.1-.94.14a10,10,0,0,1-4.9-.5,19.46,19.46,0,0,1,1.71-1.18c0-.09,0-.17,0-.25a2.4,2.4,0,0,1-1.22.27,2.48,2.48,0,0,1,.21-1.07,1.68,1.68,0,0,1-.76,0,10.26,10.26,0,0,1,.9-1.92,18.47,18.47,0,0,1,1.72-2.38.88.88,0,0,1-.06-.28,1.84,1.84,0,0,1,0-.28,1.58,1.58,0,0,1,.39-.71l.12-.13-.23-.19a.93.93,0,0,1-.2.15,1.28,1.28,0,0,1-.49.14c-.25,0-.4,0-.48-.16l0,0a.48.48,0,0,1-.36-.31.34.34,0,0,1,0-.1.32.32,0,0,1-.37-.05c-.17-.15.07-.91.91-1.71a5.73,5.73,0,0,1,1.64-1.1c.4-.17.63.17.44.4a1.2,1.2,0,0,0-.18,1.28,2.38,2.38,0,0,0,.37-.14.58.58,0,0,0,.33-.23.19.19,0,0,0,0-.08l-.35,0c.18-.44-.09-1.51.09-2.21a1.38,1.38,0,0,1-.24.14,8.61,8.61,0,0,1-.06-2.13,1.61,1.61,0,0,0-.47-.63,12.66,12.66,0,0,1-.94,1.33,5.11,5.11,0,0,0-1.5,2.69v0l-.06.2h0a1.72,1.72,0,0,1-.07.21.78.78,0,0,1-.05.14,2,2,0,0,1-.09.22,2.14,2.14,0,0,0-.23.85h0a26.16,26.16,0,0,1-.26,4.51,5.05,5.05,0,0,1-.58,1.64l-.06,0a4,4,0,0,1-.65,1.52s-.34-.72-1-6.24c-.68-6.06-1-12.4-1-12.4h0a9.78,9.78,0,0,1,.48-3.38,10.86,10.86,0,0,1,2.1-3.62,1.26,1.26,0,0,1,.57-.37l.19,0h0q-.66-.86-1.29-1.71a35.35,35.35,0,0,0-2.7,11.9l0,.62-.53-.3a25,25,0,0,1-4.72-3c0,.66-.1,2.8-.1,2.8v1.35c0,2.57.46,8.87,2.56,13.21a12.94,12.94,0,0,0,2.49,3.32,9.58,9.58,0,0,0,3.72,2.17l.32.11a6.64,6.64,0,0,0,5.06-.45m-.12,1.78a1.33,1.33,0,0,1,1.44-.2,27.13,27.13,0,0,1,.41-3.38l-.2.15-.16.11h0a.5.5,0,0,1-.07-.08l-1.39,3.41m6.09.56a36.18,36.18,0,0,0-.56-4.6h0l-.19-.06c-.05.14-.11.29-.18.44a1.86,1.86,0,0,1-.37.56,2.71,2.71,0,0,1-.93-1.1,2.65,2.65,0,0,1-.93,1.08,1.91,1.91,0,0,1-.37-.56c-.07-.15-.13-.31-.19-.46l0,0a39.59,39.59,0,0,0-.52,4.68c-1.19-.79-1.91,0-1.67.54l.08.13a.77.77,0,0,0,.59.31,4,4,0,0,1,1.47.34,4.56,4.56,0,0,1,1.66,1.37,4.58,4.58,0,0,1,1.67-1.37,3.91,3.91,0,0,1,1.46-.34.82.82,0,0,0,.59-.31.41.41,0,0,0,.08-.13c.25-.55-.47-1.33-1.66-.54m1.82-.56s-1.25-3.07-1.39-3.4h0a.17.17,0,0,1-.06.06h0a2,2,0,0,1-.45-.33,19.46,19.46,0,0,1,.49,3.46,1.34,1.34,0,0,1,1.44.2M190.1,38.05c0-.86-.07-2.15-.1-2.8a24.64,24.64,0,0,1-4.72,3l-.53.3,0-.62a35.35,35.35,0,0,0-2.67-11.83l-1.25,1.65h0l.1,0a1.35,1.35,0,0,1,.52.36,11.88,11.88,0,0,1,2.11,3.61,10.68,10.68,0,0,1,.47,3.4h0s-.34,6.34-1,12.4c-.62,5.52-1,6.24-1,6.24a4.19,4.19,0,0,1-.65-1.52l-.06.05a5.05,5.05,0,0,1-.58-1.64,26.16,26.16,0,0,1-.26-4.51h0a1.91,1.91,0,0,0-.23-.84,4.1,4.1,0,0,1-.26-.77v0a5.11,5.11,0,0,0-1.5-2.69,9.41,9.41,0,0,1-1-1.44,1.78,1.78,0,0,0-.54.72,6.76,6.76,0,0,1,.05,2.27,1.84,1.84,0,0,1-.22-.17c.07.68-.25,1.46-.05,2.08l-.4-.06a.43.43,0,0,0,.05.1.7.7,0,0,0,.2.18l.13.06.41.14a1.21,1.21,0,0,0-.17-1.27c-.19-.23,0-.57.43-.4a5.9,5.9,0,0,1,1.65,1.1c.83.8,1.08,1.56.9,1.71s-.24.09-.41,0a.28.28,0,0,1,0,.09.48.48,0,0,1-.36.31l0,0a.51.51,0,0,1-.48.16,1.32,1.32,0,0,1-.49-.14,1.1,1.1,0,0,1-.17-.12l-.23.19.09.1a1.58,1.58,0,0,1,.39.71,1.3,1.3,0,0,1,0,.17,21.58,21.58,0,0,1,2.09,2.81,10.93,10.93,0,0,1,.89,1.92,1.48,1.48,0,0,1-.75,0,2.61,2.61,0,0,1,.2,1.07,2.21,2.21,0,0,1-1.22-.27c0,.14,0,.29.07.43.61.4,1.07.77,1.31,1a10.19,10.19,0,0,1-4.91.49l-.44-.06-.09,0s.71,1.68.84,2a6.56,6.56,0,0,0,4.23.66,5.73,5.73,0,0,0,1.08-.29,11.27,11.27,0,0,0,3.41-2.2,13.23,13.23,0,0,0,2.55-3.28c2.19-4.28,2.56-10.64,2.56-13.21V38.05m-15.78-1.76a2.88,2.88,0,0,0,.86-1.91,1.86,1.86,0,0,1-.86,1,1.32,1.32,0,0,1-.48-.67,1.81,1.81,0,0,0,.48,1.57m-1.77-6.95a.84.84,0,0,0-.2,1s.64-.69.2-1m-.19,1.95a1.74,1.74,0,0,0,0,1.79s.41-1.22,0-1.79M171,30a1.08,1.08,0,0,0-.3,1.59A5.92,5.92,0,0,0,171,30m.2,8a2.88,2.88,0,0,1-.78-.81,3.62,3.62,0,0,0,1.06,1.63,2.77,2.77,0,0,0,.15-2.17,4,4,0,0,1-.43,1.35m-.63-6c-.58.72.31,1.62.31,1.63s.07-1.36-.31-1.63m.93,3.83a2.71,2.71,0,0,0,.35-2,1.58,1.58,0,0,1-.57,1.11,1.38,1.38,0,0,1-.49-.62,1.8,1.8,0,0,0,.71,1.47M171,40.67a4.43,4.43,0,0,0-.59-1.61,1.91,1.91,0,0,0,.59,1.61m10.77-22.42a1.28,1.28,0,0,1-.61-.28c.11-.09.27,0,.35.1l.16-.14a.55.55,0,0,0-.8.14.89.89,0,0,1,.24.13,2,2,0,0,0-.32.17c.42,0,.8.07,1-.12m-.72.35c-.31.14-.36.22-.5.55s-.32.79-.52,1.15c.12.05.28-.05.39-.12a3.7,3.7,0,0,0,1.09-1.71,1.73,1.73,0,0,0-.46.13m-.92.33a2,2,0,0,1-.43.63,16.29,16.29,0,0,0-3.2-.77,2.18,2.18,0,0,1-1,.7,4.43,4.43,0,0,1-1.28-.37h.42a2.91,2.91,0,0,0,1.37-.4c-.76-.12-.94-.33-.57-.81.17-.22.44-.62.85-.52s.4.53.36.87a15.76,15.76,0,0,1,2.9.72c.06-.25-.1-.38-.21-.56a4.42,4.42,0,0,1,.48-.4.93.93,0,0,1,.27.9m-4.22-1.14a.56.56,0,0,0-.22.24c.06.11.2.15.4.18h.11c.1-.22-.1-.49-.29-.43m1.2,1.27c-.17.08-.36.2-.49.27.14.13.23.23.37.37l.5-.26c-.14-.14-.23-.24-.38-.38m-3.38-2.72c-.16-.12-.27-.21-.44-.32-.15.09-.32.24-.43.32l.42.32c.17-.13.25-.19.45-.32M166.4,19.6l.5.22c.13-.16.19-.24.34-.41l-.51-.22a5,5,0,0,0-.33.41m8-1.14a33.74,33.74,0,0,0-8.28.66,3.61,3.61,0,0,0-.39-.72c-.55-.58-.77.05-.77.12.68,0,.8.39.8.39a1.64,1.64,0,0,1-.66.65A2.37,2.37,0,0,1,164,20c-1.28.06-.93-1.27-.15-1.81-.1.12-.56.81-.28,1.17s1.5.07,1.79-.28a1.12,1.12,0,0,0-.87-.16,1.92,1.92,0,0,1,.73-1.27,1.82,1.82,0,0,1,1.07.92,33.26,33.26,0,0,1,5.45-.65c0-.33-.15-1.55-.16-1.62s.12-.29.25-.38a.91.91,0,0,0,.59.48,2.9,2.9,0,0,1-.38.33c0,.24,0,.69.05.86a7.26,7.26,0,0,1,1.24-.43,1.94,1.94,0,0,1,.57-.05,1,1,0,0,1,.49.21.55.55,0,0,1,.2.39,2,2,0,0,1-.13.78m-.44-.8c-.26-.43-1.24,0-1.86.21.36,0,.66,0,1.05,0H174a.2.2,0,0,0,0-.22M165.18,20l-.38-.12c-.1.14-.2.33-.27.45l.53.16c.07-.12.12-.2.19-.3l.37.11.28-.44c-.19-.06-.33-.11-.54-.16a3,3,0,0,0-.18.3" transform="translate(0 -12.05)"/><path class="cls-5" d="M128.58,83.63h1.88a1.63,1.63,0,0,1,1.64.93,6.19,6.19,0,0,1,.27,1.93A5.14,5.14,0,0,1,132,89c-.33.53-.95.79-2,.79h-1.41Zm.78,5.43h.74c1.08,0,1.48-.4,1.48-1.83V86c0-1.24-.38-1.69-1.2-1.69h-1Z" transform="translate(0 -12.05)"/><polygon class="cls-5" points="133.73 77.69 133.73 71.58 136.88 71.58 136.88 72.26 134.51 72.26 134.51 74.22 136.71 74.22 136.71 74.9 134.51 74.9 134.51 77.01 136.93 77.01 136.93 77.69 133.73 77.69"/><path class="cls-5" d="M138.07,89.74V83.63h1.81a1.53,1.53,0,0,1,1.7,1.74,1.59,1.59,0,0,1-1.71,1.68h-1v2.69Zm.77-3.37h.86a1,1,0,0,0,1.08-1c0-.93-.69-1-.86-1h-1.08Z" transform="translate(0 -12.05)"/><path class="cls-5" d="M143.62,83.63h1l2,6.11h-.87l-.44-1.46h-2.36l-.45,1.46h-.79Zm.48.72h0l-1,3.26h2Z" transform="translate(0 -12.05)"/><path class="cls-5" d="M148.18,86.93v2.81h-.78V83.63h2.11A1.38,1.38,0,0,1,151,85.15a1.33,1.33,0,0,1-1.12,1.4v0c.71.11,1,.34,1,1.57a9.27,9.27,0,0,0,.21,1.6h-.81a7.06,7.06,0,0,1-.24-2,.8.8,0,0,0-.92-.78Zm0-.68h1.17c.55,0,.82-.48.82-1a.83.83,0,0,0-.82-.93h-1.17Z" transform="translate(0 -12.05)"/><polygon class="cls-5" points="155.55 71.58 155.55 72.26 153.94 72.26 153.94 77.69 153.16 77.69 153.16 72.26 151.55 72.26 151.55 71.58 155.55 71.58"/><polygon class="cls-5" points="157.09 77.69 156.36 77.69 156.36 71.58 157.62 71.58 159.16 76.71 159.17 76.71 160.73 71.58 162.02 71.58 162.02 77.69 161.24 77.69 161.24 72.26 161.22 72.26 159.51 77.69 158.78 77.69 157.1 72.26 157.09 72.26 157.09 77.69"/><polygon class="cls-5" points="163.4 77.69 163.4 71.58 166.54 71.58 166.54 72.26 164.18 72.26 164.18 74.22 166.37 74.22 166.37 74.9 164.18 74.9 164.18 77.01 166.59 77.01 166.59 77.69 163.4 77.69"/><polygon class="cls-5" points="171.86 71.58 171.86 77.69 170.79 77.69 168.38 72.39 168.36 72.39 168.36 77.69 167.67 77.69 167.67 71.58 168.77 71.58 171.14 76.81 171.16 76.81 171.16 71.58 171.86 71.58"/><polygon class="cls-5" points="176.7 71.58 176.7 72.26 175.09 72.26 175.09 77.69 174.31 77.69 174.31 72.26 172.7 72.26 172.7 71.58 176.7 71.58"/><path class="cls-5" d="M179.35,87.51v-2a1.92,1.92,0,1,1,3.84,0v2c0,1.69-.62,2.36-1.92,2.36s-1.92-.67-1.92-2.36m3.05,0V85.48c0-1.28-.88-1.32-1.13-1.32s-1.12,0-1.12,1.32v2.06c0,1.34.39,1.67,1.12,1.67s1.13-.33,1.13-1.67" transform="translate(0 -12.05)"/><polygon class="cls-5" points="184.49 77.69 184.49 71.58 187.51 71.58 187.51 72.26 185.27 72.26 185.27 74.22 187.4 74.22 187.4 74.9 185.27 74.9 185.27 77.69 184.49 77.69"/><polygon class="cls-5" points="190.23 77.69 190.23 71.58 191.01 71.58 191.01 74.22 193.15 74.22 193.15 71.58 193.93 71.58 193.93 77.69 193.15 77.69 193.15 74.9 191.01 74.9 191.01 77.69 190.23 77.69"/><polygon class="cls-5" points="195.35 77.69 195.35 71.58 198.5 71.58 198.5 72.26 196.13 72.26 196.13 74.22 198.33 74.22 198.33 74.9 196.13 74.9 196.13 77.01 198.55 77.01 198.55 77.69 195.35 77.69"/><path class="cls-5" d="M201,83.63h1l2,6.11h-.88l-.44-1.46h-2.36l-.45,1.46H199Zm.47.72h0l-1,3.26h1.95Z" transform="translate(0 -12.05)"/><polygon class="cls-5" points="204.75 77.69 204.75 71.58 205.53 71.58 205.53 77.01 207.77 77.01 207.77 77.69 204.75 77.69"/><polygon class="cls-5" points="211.42 71.58 211.42 72.26 209.81 72.26 209.81 77.69 209.04 77.69 209.04 72.26 207.43 72.26 207.43 71.58 211.42 71.58"/><polygon class="cls-5" points="212.28 77.69 212.28 71.58 213.06 71.58 213.06 74.22 215.2 74.22 215.2 71.58 215.98 71.58 215.98 77.69 215.2 77.69 215.2 74.9 213.06 74.9 213.06 77.69 212.28 77.69"/><path class="cls-5" d="M129.94,71.5a.48.48,0,0,0,.34-.14.47.47,0,0,0,.15-.35.46.46,0,0,0-.15-.34.48.48,0,0,0-.34-.14.5.5,0,0,0-.35.14.49.49,0,0,0-.14.34.48.48,0,0,0,.49.49" transform="translate(0 -12.05)"/><path class="cls-5" d="M131.56,71.5a.48.48,0,0,0,.34-.14A.46.46,0,0,0,132,71a.45.45,0,0,0-.14-.34.48.48,0,0,0-.34-.14.5.5,0,0,0-.35.14.49.49,0,0,0-.14.34.48.48,0,0,0,.49.49" transform="translate(0 -12.05)"/><path class="cls-5" d="M174.59,69.83v6.81h-9V72.5l-.4,0a7.49,7.49,0,0,0-1.83.28,6.11,6.11,0,0,0-1.39.58,4.91,4.91,0,0,0-1,.76,5.15,5.15,0,0,0-.69.85V73.58h-.75v3.06H148.06a.68.68,0,0,1-.26,0,.44.44,0,0,1-.19-.1.47.47,0,0,1-.14-.14,1.81,1.81,0,0,1-.11-.3,4.08,4.08,0,0,1-.1-.54c0-.23-.06-.52-.08-.88-.11-1.47-.79-2.21-2.05-2.21a2.34,2.34,0,0,0-.85.15,3.41,3.41,0,0,0-.66.35l.46.59a1.91,1.91,0,0,1,1-.34,2,2,0,0,1,.43,0,.87.87,0,0,1,.4.19,1.13,1.13,0,0,1,.32.45,3,3,0,0,1,.17.83q0,.74.12,1.2a3.23,3.23,0,0,0,.22.75H132.24c-.11,0-.17-.07-.17-.2V72.22a9.24,9.24,0,0,0-.94.33,5.47,5.47,0,0,0-1.15.64,4,4,0,0,0-1,1,2.27,2.27,0,0,0-.42,1.37,2.7,2.7,0,0,0,.08.62,1.48,1.48,0,0,0,.33.6,2,2,0,0,0,.7.48,3.29,3.29,0,0,0,1.18.25l.06-.75a2.73,2.73,0,0,1-1.22-.32,1,1,0,0,1-.39-.88,1.59,1.59,0,0,1,.22-.82,2.65,2.65,0,0,1,.52-.63,3.2,3.2,0,0,1,.65-.46c.23-.13.43-.24.6-.32l0,3.13a1,1,0,0,0,.22.7.78.78,0,0,0,.59.25h43.2V69.83Zm-9.78,6.81h-4.55a8.63,8.63,0,0,1,.32-.82,3.65,3.65,0,0,1,.76-1,4.94,4.94,0,0,1,1.35-.94,6.1,6.1,0,0,1,2.12-.52Z" transform="translate(0 -12.05)"/><rect class="cls-5" x="176.48" y="57.82" width="0.75" height="7.52"/><path class="cls-5" d="M184,77.38h-.78a4.46,4.46,0,0,1-.84-.09,3.26,3.26,0,0,1-.87-.33,2.14,2.14,0,0,1-.69-.61,1.54,1.54,0,0,1-.28-.94,2.23,2.23,0,0,1,.2-.94,3,3,0,0,1,.51-.76,4,4,0,0,1,.71-.59,6.92,6.92,0,0,1,.78-.44,5.67,5.67,0,0,1,.73-.28,3,3,0,0,1,.53-.15Zm-.74-.77V73.29l-.6.3A4.18,4.18,0,0,0,182,74a2.71,2.71,0,0,0-.51.61,1.38,1.38,0,0,0-.22.77.83.83,0,0,0,.19.56,1.33,1.33,0,0,0,.47.37,2.16,2.16,0,0,0,.62.21,4.55,4.55,0,0,0,.61,0Zm-.77-5.6a.47.47,0,0,1-.15.35.49.49,0,0,1-.34.14.48.48,0,0,1-.34-.14.47.47,0,0,1-.15-.35.46.46,0,0,1,.15-.34.48.48,0,0,1,.34-.14.49.49,0,0,1,.34.14.46.46,0,0,1,.15.34m1.61,0a.46.46,0,0,1-.14.35.49.49,0,0,1-.34.14.48.48,0,0,1-.49-.49.49.49,0,0,1,.14-.34.5.5,0,0,1,.35-.14.49.49,0,0,1,.34.14.45.45,0,0,1,.14.34" transform="translate(0 -12.05)"/><path class="cls-5" d="M208.24,76.64H186V73h-.74v4.73q0,.39,0,.75a2.07,2.07,0,0,1-.15.64,1.13,1.13,0,0,1-.36.45,1.17,1.17,0,0,1-.66.17v.74a1.9,1.9,0,0,0,1.05-.25,1.58,1.58,0,0,0,.58-.65,2.79,2.79,0,0,0,.26-.89,7.72,7.72,0,0,0,0-1v-.32h23V73h-.75Z" transform="translate(0 -12.05)"/><path class="cls-5" d="M208.33,71.79a.43.43,0,0,1-.22-.4.29.29,0,0,1,.12-.26.66.66,0,0,1,.3-.07,1.44,1.44,0,0,1,.61.15l.15-.37a2.15,2.15,0,0,0-.77-.15,1,1,0,0,0-.54.15.62.62,0,0,0-.24.55,1,1,0,0,0,.06.34.49.49,0,0,0,.11.19h-.61v.37h1.92v-.37h-.36a1,1,0,0,1-.53-.13" transform="translate(0 -12.05)"/><rect class="cls-5" x="210.15" y="57.82" width="0.75" height="7.52"/><path class="cls-5" d="M211.87,73.12a3.44,3.44,0,0,1,.72-.46,2.49,2.49,0,0,1,1.07-.21,2,2,0,0,1,1,.23,2.36,2.36,0,0,1,.71.62,2.71,2.71,0,0,1,.42.89,3.77,3.77,0,0,1,.14,1,4.28,4.28,0,0,1-.22,1.39,3.51,3.51,0,0,1-.19.5,3.09,3.09,0,0,1-.15.31h-3.55v-.75h3.08a5.36,5.36,0,0,0,.19-.57,3.62,3.62,0,0,0,.1-.88,2.74,2.74,0,0,0-.11-.76,2.1,2.1,0,0,0-.3-.64,1.48,1.48,0,0,0-.49-.44,1.42,1.42,0,0,0-.65-.16,2,2,0,0,0-.62.11,2.85,2.85,0,0,0-.71.39Z" transform="translate(0 -12.05)"/></g><g class="cls-6"><rect class="cls-7" y="18.09" width="23.1" height="35.31"/></g><path class="cls-8" d="M18.19,36.06l-.05,0h0l-.66.36a35.78,35.78,0,0,1-8.8,3.41,24.38,24.38,0,0,0,3.56,9.36,25.09,25.09,0,0,0,5.93,6.4l.06,0a25.23,25.23,0,0,0,5.88-6.36,24.38,24.38,0,0,0,3.55-9.35A36.38,36.38,0,0,1,18.19,36.06Z" transform="translate(0 -12.05)"/><g class="cls-9"><rect class="cls-10" x="14.1" y="13.87" width="22.21" height="34.28"/></g><path class="cls-11" d="M31.84,56.38c.11-.2.3-.21.58-.05l2.31,1.26a.35.35,0,0,1,.12.54A17.78,17.78,0,0,0,33.41,61a9.53,9.53,0,0,0-.69,3.6,6.6,6.6,0,0,0,.6,3,5.1,5.1,0,0,0,1.58,1.89,6.15,6.15,0,0,0,2.09,1,8.59,8.59,0,0,0,2.22.3,6.76,6.76,0,0,0,4.4-1.39,5.43,5.43,0,0,0,1.72-4.48V52.69a.37.37,0,0,1,.42-.42h2.68a.37.37,0,0,1,.42.42v7a2.43,2.43,0,0,0,1,2.13,4.71,4.71,0,0,0,2.75.71h.17a1.88,1.88,0,0,1,1.25.36,1.5,1.5,0,0,1,.42,1.19c0,.73-.13,1.2-.4,1.41a2,2,0,0,1-1.27.31H52.2a4.22,4.22,0,0,1-3.35-1.34V65a8.91,8.91,0,0,1-2.54,6.75c-1.69,1.62-4.12,2.43-7.31,2.43a12.67,12.67,0,0,1-4.08-.61,8.38,8.38,0,0,1-3.1-1.78,7.92,7.92,0,0,1-2-2.87A10,10,0,0,1,29.11,65a14.12,14.12,0,0,1,.82-4.75,16.09,16.09,0,0,1,1.91-3.83M39,51.22a.37.37,0,0,1-.42-.42v-3a.37.37,0,0,1,.42-.42h2.85a.37.37,0,0,1,.42.42v3a.37.37,0,0,1-.42.42Z" transform="translate(0 -12.05)"/><path class="cls-11" d="M52.83,65.8a1.44,1.44,0,0,1-1.13-.35,2,2,0,0,1-.3-1.24,2.28,2.28,0,0,1,.27-1.36,1.56,1.56,0,0,1,1.16-.32h4.6a2,2,0,0,1,1.26.34,1.47,1.47,0,0,1,.42,1.21,1.8,1.8,0,0,1-.4,1.39,2,2,0,0,1-1.28.33Z" transform="translate(0 -12.05)"/><path class="cls-11" d="M70.09,66.09a9.77,9.77,0,0,1-3.48-.56,6.21,6.21,0,0,1-2.56-1.78,3.82,3.82,0,0,1-2.26,1.7,10.59,10.59,0,0,1-2.55.35H57.43a1.48,1.48,0,0,1-1.67-1.67c0-.7.13-1.14.4-1.32a2.21,2.21,0,0,1,1.27-.28h2.1a2.51,2.51,0,0,0,.92-.18,2.27,2.27,0,0,0,.84-.63,3.53,3.53,0,0,0,.61-1.18,6.21,6.21,0,0,0,.23-1.82,7.67,7.67,0,0,1-.05-.82v-.85c0-3.22.72-5.54,2.14-7a7.89,7.89,0,0,1,5.87-2.16A7.87,7.87,0,0,1,76,50.07c1.43,1.44,2.14,3.76,2.14,7a13,13,0,0,1-.57,4.1A7.36,7.36,0,0,1,75.93,64a6.28,6.28,0,0,1-2.51,1.61,10,10,0,0,1-3.33.52m0-14.91a3.86,3.86,0,0,0-3.42,1.55,7.54,7.54,0,0,0-1.07,4.32,7.21,7.21,0,0,0,1.07,4.39,4,4,0,0,0,3.42,1.39,4,4,0,0,0,3.41-1.39,7.21,7.21,0,0,0,1.07-4.39,7.54,7.54,0,0,0-1.07-4.32,3.85,3.85,0,0,0-3.41-1.55" transform="translate(0 -12.05)"/><path class="cls-11" d="M78,33.5a3.53,3.53,0,0,1,1.16-2.05,2.93,2.93,0,0,1,1.94-.71,6.16,6.16,0,0,1,1.93.33c.67.22,1.35.48,2,.75s1.36.54,2,.76a6.15,6.15,0,0,0,1.92.33,1.26,1.26,0,0,0,1-.31,1.73,1.73,0,0,0,.27-1.11.37.37,0,0,1,.42-.42h.92a.37.37,0,0,1,.42.42,3.81,3.81,0,0,1-.78,2.6,2.68,2.68,0,0,1-2.11.88,7.36,7.36,0,0,1-2.2-.34c-.74-.22-1.45-.47-2.14-.73s-1.35-.51-2-.73a5.12,5.12,0,0,0-1.72-.34,1.54,1.54,0,0,0-.79.23,1.58,1.58,0,0,0-.59.94.39.39,0,0,1-.54.3L78.3,34a.42.42,0,0,1-.3-.54m8.84,31.88a.37.37,0,0,1-.42.42H83.74c-.28,0-.41-.14-.41-.42V37.73c0-.28.13-.42.41-.42h2.68a.37.37,0,0,1,.42.42Z" transform="translate(0 -12.05)"/><path class="cls-11" d="M50.35,69.64a.12.12,0,0,1,.12-.09h.62a.12.12,0,0,1,.12.09l2.22,6.29c0,.06,0,.09-.07.09H52.7a.12.12,0,0,1-.13-.09l-.49-1.41H49.46L49,75.93a.12.12,0,0,1-.12.09h-.67q-.09,0-.06-.09Zm1.45,4.1-1-2.94h0l-1,2.94Z" transform="translate(0 -12.05)"/><path class="cls-11" d="M60.11,69.64c0-.06,0-.09.1-.09h.62a.16.16,0,0,1,.15.09L62.91,74h0l1.89-4.37a.16.16,0,0,1,.16-.09h.62a.08.08,0,0,1,.09.09v6.29a.08.08,0,0,1-.09.09H65c-.07,0-.1,0-.1-.09V71.42h0L63.27,75a.18.18,0,0,1-.17.11h-.38a.18.18,0,0,1-.18-.11l-1.61-3.57h0v4.51a.08.08,0,0,1-.09.09h-.6c-.07,0-.1,0-.1-.09Z" transform="translate(0 -12.05)"/><path class="cls-11" d="M66.93,69.64c0-.06,0-.09.1-.09h3.89c.07,0,.1,0,.1.09v.6c0,.07,0,.1-.1.1H67.84a.05.05,0,0,0-.06.06v1.9a.05.05,0,0,0,.06.06h2.62a.08.08,0,0,1,.09.09v.6c0,.07,0,.1-.09.1H67.84s-.06,0-.06,0v2s0,0,.06,0h3.08a.09.09,0,0,1,.1.1v.6c0,.06,0,.09-.1.09H67c-.07,0-.1,0-.1-.09Z" transform="translate(0 -12.05)"/><path class="cls-11" d="M72.73,69.64c0-.06,0-.09.1-.09h.61a.18.18,0,0,1,.16.09l2.93,4.86h0V69.64a.08.08,0,0,1,.09-.09h.6c.07,0,.1,0,.1.09v6.29c0,.06,0,.09-.1.09h-.61a.17.17,0,0,1-.16-.09l-2.94-4.84h0v4.84a.08.08,0,0,1-.09.09h-.6c-.07,0-.1,0-.1-.09Z" transform="translate(0 -12.05)"/><path class="cls-11" d="M56.42,69.64a.12.12,0,0,1,.12-.09h.62a.12.12,0,0,1,.12.09l2.22,6.29c0,.06,0,.09-.07.09h-.67a.12.12,0,0,1-.12-.09l-.49-1.41H55.53L55,75.93a.12.12,0,0,1-.12.09h-.67q-.09,0-.06-.09Zm1.45,4.1-1-2.94h0l-1,2.94Z" transform="translate(0 -12.05)"/><line class="cls-12" x1="109.4" y1="5.51" x2="109.4" y2="72.33"/></g></g></svg>