<svg id="Layer_1" data-name="Layer 1" xmlns="http://www.w3.org/2000/svg" xmlns:xlink="http://www.w3.org/1999/xlink" viewBox="0 0 426.43 595.28"><defs><style>.cls-1{fill:none;}.cls-2{clip-path:url(#clip-path);}.cls-3{fill:#005a67;}.cls-4{clip-path:url(#clip-path-2);}.cls-5{fill:#4d949d;}</style><clipPath id="clip-path"><rect class="cls-1" x="1.45" y="0.13" width="841.89" height="595.28"/></clipPath><clipPath id="clip-path-2"><rect class="cls-1" x="1.45" y="0.13" width="841.89" height="594.28"/></clipPath></defs><rect class="cls-1" x="1.45" y="0.13" width="841.89" height="595.28"/><g class="cls-2"><path class="cls-3" d="M98.57,296.77c0-154.65,117.3-281.89,267.78-297.64H-5.56V595.41H378.36c-156.2-10-279.79-139.9-279.79-298.64"/></g><g class="cls-4"><path class="cls-5" d="M1.44-.13V594.41H343.88C186.4,569.24,63,398.09,76.31,258.16A299.18,299.18,0,0,1,83.89,214C109.43,111.64,184.46,40.61,241-.13Z"/><path class="cls-3" d="M1.44,253.62V594.41H343.88C201.51,564.26,63,398.09,76.31,258.16A299.18,299.18,0,0,1,83.89,214L56.46,227.17l-34,16.33Z"/><path class="cls-5" d="M1.44,253.62V594.41H178.31c-31.71-25.08-66.78-61.5-92-112C42.38,394.61,50,279.15,56.46,227.17Z"/><path class="cls-3" d="M1.45,177.52V421.27C56.46,227.17,158.61,85.53,280.67-.87L248-13.57C94.86,94.67,1.45,177.52,1.45,177.52"/><path class="cls-3" d="M1.44-.13V95C42.23,37.8,106.1,11.49,147.63-.13Z"/></g><rect class="cls-1" x="1.45" y="0.13" width="841.89" height="595.28"/><polygon class="cls-3" points="244.59 0.13 1.44 0.13 1.44 196.73 51.06 180.3 244.59 0.13"/><path class="cls-5" d="M147.63-.13S60.78,32.1,1.44,95v82.57L241-.13Z"/><rect class="cls-1" x="1.45" y="0.13" width="841.89" height="595.28"/><rect class="cls-1" x="1.45" y="0.13" width="841.89" height="595.28"/><rect class="cls-1" x="1.45" y="0.13" width="841.89" height="595.28"/><rect class="cls-1" x="1.45" y="0.13" width="841.89" height="595.28"/><rect class="cls-1" x="1.45" y="0.13" width="841.89" height="595.28"/><rect class="cls-1" x="1.45" y="0.13" width="841.89" height="595.28"/><rect class="cls-1" x="1.45" y="0.13" width="841.89" height="595.28"/><rect class="cls-1" x="1.45" y="0.13" width="841.89" height="595.28"/><rect class="cls-1" x="1.45" y="0.13" width="841.89" height="595.28"/></svg>