<svg xmlns="http://www.w3.org/2000/svg" width="214" height="214" viewBox="0 0 214 214">
  <g id="Group_112483" data-name="Group 112483" transform="translate(-11376 -6600)">
    <g id="Rectangle_34230" data-name="Rectangle 34230" transform="translate(11377 6601)" fill="#f8fafb" stroke="#caced2" stroke-width="1" stroke-dasharray="2">
      <rect width="212" height="212" stroke="none"/>
      <rect x="-0.5" y="-0.5" width="213" height="213" fill="none"/>
    </g>
    <g id="Group_112482" data-name="Group 112482">
      <g id="Group_112481" data-name="Group 112481" transform="translate(11899.2 -3301)">
        <path id="Path_100776" data-name="Path 100776" d="M-403.511,9994.09h3.647s10.785-.94,10.785-11.521a11.963,11.963,0,0,0-12.415-11.962A16.758,16.758,0,0,0-416.64,9961a16.758,16.758,0,0,0-16.726,15.77,8.988,8.988,0,0,0-10.835,8.8c0,9.13,9.586,8.524,9.586,8.524h4.778" transform="translate(0)" fill="none" stroke="#caced2" stroke-linecap="round" stroke-miterlimit="10" stroke-width="2"/>
        <line id="Line_25" data-name="Line 25" y2="25.213" transform="translate(-416.38 9982.787)" fill="none" stroke="#caced2" stroke-linecap="round" stroke-linejoin="round" stroke-width="2"/>
        <path id="Path_100777" data-name="Path 100777" d="M-408.3,9990.878l-7.948-7.949-7.948,7.949" transform="translate(-0.129 -0.141)" fill="none" stroke="#caced2" stroke-linecap="round" stroke-linejoin="round" stroke-width="2"/>
      </g>
      <text id="Upload_Logo_Here_" data-name="Upload Logo Here " transform="translate(11483 6748)" fill="#caced2" font-size="20" font-family="OpenSans, Open Sans"><tspan x="-86.89" y="0">Upload Logo Here </tspan></text>
    </g>
  </g>
</svg>
