<?xml version="1.0" encoding="utf-8"?>
<!-- Generator: Adobe Illustrator 25.0.0, SVG Export Plug-In . SVG Version: 6.00 Build 0)  -->
<svg version="1.1" id="Layer_1" xmlns="http://www.w3.org/2000/svg" xmlns:xlink="http://www.w3.org/1999/xlink" x="0px" y="0px"
	 viewBox="0 0 335.67 214" style="enable-background:new 0 0 335.67 214;" xml:space="preserve">
<style type="text/css">
	.st0{clip-path:url(#SVGID_2_);fill:url(#SVGID_3_);}
	.st1{fill:none;stroke:#000000;stroke-width:0.5;stroke-miterlimit:10;}
	.st2{clip-path:url(#SVGID_5_);fill:url(#SVGID_6_);}
</style>
<g>
	<g>
		<defs>
			<path id="SVGID_1_" d="M31.56,50.99c-0.63,0-1.26-0.01-1.89-0.03c-0.43,3.74-0.64,7.5-0.64,11.23c0,37.47,20.94,71.22,54.76,88.5
				c5.3-2.71,10.28-5.82,14.92-9.28c-5.7-2.78-11.63-6.21-16.92-10.35c-9.56-6.5-17.56-14.69-23.77-24.35
				c-7.26-11.29-11.69-24.31-12.8-37.66l-0.26-3.11l3.07-0.56c9.17-1.68,18.14-4.78,26.76-9.21c-3.79-2.92-7.34-6.44-10.56-10.5
				l-1.19-1.49C52.88,48.67,42.28,50.99,31.56,50.99"/>
		</defs>
		<clipPath id="SVGID_2_">
			<use xlink:href="#SVGID_1_"  style="overflow:visible;"/>
		</clipPath>
		
			<linearGradient id="SVGID_3_" gradientUnits="userSpaceOnUse" x1="-214.0926" y1="583.0031" x2="-212.236" y2="583.0031" gradientTransform="matrix(0 56.7245 56.7245 0 -33006.6641 12181.3115)">
			<stop  offset="0" style="stop-color:#77CAE3"/>
			<stop  offset="6.268382e-03" style="stop-color:#77C9E2"/>
			<stop  offset="0.2102" style="stop-color:#7CA8D1"/>
			<stop  offset="0.4055" style="stop-color:#8089BD"/>
			<stop  offset="0.5872" style="stop-color:#836EAC"/>
			<stop  offset="0.7524" style="stop-color:#8559A0"/>
			<stop  offset="0.8954" style="stop-color:#854B98"/>
			<stop  offset="1" style="stop-color:#854695"/>
		</linearGradient>
		<rect x="29.03" y="44.19" class="st0" width="69.67" height="106.5"/>
	</g>
	<g>
		<path class="st1" d="M83.88,62.02l-0.12,0.08l-0.08-0.05l-1.98,1.08c-8.54,4.67-17.44,8.12-26.54,10.31
			c1.57,10,5.23,19.66,10.73,28.21c4.8,7.46,10.81,13.95,17.9,19.32l0.18-0.14c7.01-5.35,12.97-11.8,17.72-19.18
			c5.5-8.54,9.16-18.2,10.73-28.21C102.58,71.09,93.02,67.26,83.88,62.02z"/>
	</g>
	<g>
		<defs>
			<path id="SVGID_4_" d="M71.55,39.85c3.36,4.23,7.4,8.15,12.22,11.2l0.02-0.01l1.8,1.11c10.78,6.63,22.2,11.08,33.96,13.24
				l3.07,0.56l-0.26,3.11c-1.11,13.35-5.54,26.37-12.8,37.66c-4.88,7.6-10.89,14.27-17.88,19.94c3.31,2.21,7.03,4.33,11.12,6.33
				l3.8,1.85c20.16-18.54,31.94-44.55,31.94-72.65c0-3.73-0.22-7.49-0.64-11.23c-0.64,0.02-1.27,0.03-1.89,0.03
				c-18.31,0-36.31-6.75-52.22-19.55C79.83,34.62,75.74,37.43,71.55,39.85"/>
		</defs>
		<clipPath id="SVGID_5_">
			<use xlink:href="#SVGID_4_"  style="overflow:visible;"/>
		</clipPath>
		
			<linearGradient id="SVGID_6_" gradientUnits="userSpaceOnUse" x1="-214.0926" y1="583.338" x2="-212.236" y2="583.338" gradientTransform="matrix(0 56.7246 56.7246 0 -32984.5664 12181.3418)">
			<stop  offset="0" style="stop-color:#77CAE3"/>
			<stop  offset="6.268382e-03" style="stop-color:#77C9E2"/>
			<stop  offset="0.2102" style="stop-color:#7CA8D1"/>
			<stop  offset="0.4055" style="stop-color:#8089BD"/>
			<stop  offset="0.5872" style="stop-color:#836EAC"/>
			<stop  offset="0.7524" style="stop-color:#8559A0"/>
			<stop  offset="0.8954" style="stop-color:#854B98"/>
			<stop  offset="1" style="stop-color:#854695"/>
		</linearGradient>
		<rect x="71.55" y="31.43" class="st2" width="67" height="103.41"/>
	</g>
	<path d="M125.05,123.3c0.34-0.59,0.93-0.63,1.77-0.13l6.95,3.79c0.67,0.42,0.8,0.97,0.38,1.64c-1.52,2.36-2.97,5.27-4.36,8.72
		c-1.39,3.46-2.08,7.08-2.08,10.87c0,3.62,0.61,6.64,1.83,9.03c1.22,2.4,2.8,4.3,4.74,5.69c1.94,1.39,4.04,2.38,6.32,2.97
		c2.27,0.59,4.51,0.88,6.7,0.88c5.39,0,9.81-1.39,13.27-4.17c3.45-2.78,5.18-7.29,5.18-13.52v-36.9c0-0.84,0.42-1.26,1.26-1.26h8.09
		c0.84,0,1.26,0.42,1.26,1.26v21.1c0,2.86,1.03,5.01,3.1,6.44c2.06,1.43,4.82,2.15,8.28,2.15h0.51c1.68,0,2.95,0.36,3.79,1.07
		c0.84,0.72,1.26,1.92,1.26,3.6c0,2.19-0.4,3.6-1.2,4.23c-0.8,0.63-2.08,0.95-3.85,0.95h-1.77c-4.38,0-7.75-1.35-10.11-4.04v1.51
		c0,8.68-2.55,15.46-7.64,20.35c-5.1,4.88-12.45,7.33-22.05,7.33c-4.55,0-8.66-0.61-12.32-1.83c-3.66-1.22-6.78-3.01-9.35-5.37
		c-2.57-2.36-4.57-5.25-6-8.66c-1.44-3.41-2.15-7.35-2.15-11.82c0-4.97,0.82-9.75,2.46-14.34
		C120.95,130.27,122.87,126.42,125.05,123.3 M146.66,107.76c-0.84,0-1.26-0.42-1.26-1.26v-9.22c0-0.84,0.42-1.26,1.26-1.26h8.59
		c0.84,0,1.26,0.42,1.26,1.26v9.22c0,0.84-0.42,1.26-1.26,1.26H146.66z"/>
	<path d="M188.36,151.73c-1.68,0-2.82-0.36-3.41-1.07c-0.59-0.72-0.88-1.96-0.88-3.73c0-2.11,0.27-3.48,0.82-4.11
		c0.55-0.63,1.71-0.95,3.48-0.95h13.9c1.69,0,2.95,0.34,3.79,1.01c0.84,0.68,1.26,1.9,1.26,3.67c0,2.11-0.4,3.5-1.2,4.17
		c-0.8,0.68-2.09,1.01-3.86,1.01H188.36z"/>
	<path d="M240.42,152.62c-3.96,0-7.46-0.57-10.49-1.7c-3.03-1.14-5.6-2.93-7.71-5.37c-1.77,2.7-4.04,4.4-6.82,5.12
		c-2.78,0.72-5.35,1.07-7.71,1.07h-5.43c-3.37,0-5.05-1.68-5.05-5.06c0-2.11,0.4-3.43,1.2-3.98c0.8-0.55,2.08-0.82,3.85-0.82h6.32
		c0.92,0,1.85-0.19,2.78-0.57c0.93-0.38,1.77-1.01,2.53-1.9c0.76-0.88,1.37-2.06,1.83-3.54c0.46-1.47,0.7-3.3,0.7-5.5
		c-0.09-0.84-0.13-1.66-0.13-2.46v-2.59c0-9.69,2.15-16.7,6.45-21.04c4.29-4.34,10.19-6.51,17.69-6.51c7.5,0,13.39,2.17,17.69,6.51
		c4.3,4.34,6.44,11.35,6.44,21.04c0,4.8-0.57,8.93-1.7,12.38c-1.14,3.46-2.74,6.28-4.8,8.47c-2.06,2.19-4.59,3.81-7.58,4.87
		C247.48,152.09,244.13,152.62,240.42,152.62 M240.42,107.63c-4.72,0-8.15,1.56-10.3,4.68c-2.15,3.12-3.22,7.45-3.22,13.02
		c0,6.07,1.07,10.49,3.22,13.27c2.15,2.78,5.58,4.17,10.3,4.17c4.72,0,8.15-1.39,10.3-4.17c2.15-2.78,3.22-7.2,3.22-13.27
		c0-5.56-1.07-9.9-3.22-13.02C248.57,109.19,245.14,107.63,240.42,107.63"/>
	<path d="M264.31,54.31c0.59-2.69,1.75-4.76,3.48-6.19c1.73-1.43,3.69-2.15,5.88-2.15c1.85,0,3.79,0.34,5.81,1.01
		c2.02,0.68,4.06,1.43,6.13,2.27c2.06,0.84,4.11,1.6,6.13,2.27c2.02,0.68,3.96,1.01,5.81,1.01c1.43,0,2.42-0.32,2.97-0.95
		c0.55-0.63,0.82-1.75,0.82-3.35c0-0.84,0.42-1.26,1.26-1.26h2.78c0.84,0,1.26,0.42,1.26,1.26c0,3.46-0.78,6.07-2.34,7.84
		c-1.56,1.77-3.69,2.65-6.38,2.65c-2.19,0-4.4-0.34-6.63-1.01c-2.23-0.67-4.38-1.41-6.44-2.21c-2.06-0.8-4.06-1.54-6-2.21
		c-1.94-0.67-3.66-1.01-5.18-1.01c-0.84,0-1.64,0.23-2.4,0.7c-0.76,0.46-1.35,1.41-1.77,2.84c-0.25,0.84-0.8,1.14-1.64,0.89
		l-2.65-0.76C264.43,55.7,264.14,55.15,264.31,54.31 M290.97,150.47c0,0.84-0.42,1.26-1.26,1.26h-8.09c-0.84,0-1.26-0.42-1.26-1.26
		v-83.4c0-0.84,0.42-1.26,1.26-1.26h8.09c0.84,0,1.26,0.42,1.26,1.26V150.47z"/>
	<path d="M180.9,163.32c0.06-0.19,0.17-0.29,0.35-0.29h1.87c0.19,0,0.32,0.1,0.37,0.29l6.69,18.96c0.06,0.19-0.01,0.29-0.2,0.29
		h-2.01c-0.19,0-0.32-0.1-0.37-0.29l-1.49-4.25h-7.9l-1.49,4.25c-0.08,0.19-0.2,0.29-0.38,0.29h-2.01c-0.19,0-0.26-0.1-0.2-0.29
		L180.9,163.32z M185.27,175.67l-3.07-8.87h-0.06l-3.1,8.87H185.27z"/>
	<path d="M210.34,163.32c0-0.19,0.09-0.29,0.29-0.29h1.87c0.23,0,0.38,0.09,0.46,0.29l5.83,13.15h0.09l5.71-13.15
		c0.08-0.19,0.23-0.29,0.46-0.29h1.87c0.19,0,0.29,0.09,0.29,0.29v18.96c0,0.19-0.1,0.29-0.29,0.29h-1.81
		c-0.19,0-0.29-0.09-0.29-0.29v-13.59h-0.09l-4.85,10.74c-0.1,0.23-0.27,0.35-0.52,0.35h-1.15c-0.27,0-0.45-0.12-0.55-0.35
		l-4.85-10.74h-0.09v13.59c0,0.19-0.1,0.29-0.29,0.29h-1.81c-0.19,0-0.29-0.09-0.29-0.29V163.32z"/>
	<path d="M230.91,163.32c0-0.19,0.09-0.29,0.29-0.29h11.75c0.19,0,0.29,0.09,0.29,0.29v1.81c0,0.19-0.1,0.29-0.29,0.29h-9.3
		c-0.12,0-0.17,0.06-0.17,0.17v5.74c0,0.12,0.06,0.17,0.17,0.17h7.9c0.19,0,0.29,0.1,0.29,0.29v1.81c0,0.19-0.1,0.29-0.29,0.29h-7.9
		c-0.12,0-0.17,0.06-0.17,0.17v5.94c0,0.12,0.06,0.17,0.17,0.17h9.3c0.19,0,0.29,0.1,0.29,0.29v1.81c0,0.19-0.1,0.29-0.29,0.29
		H231.2c-0.19,0-0.29-0.09-0.29-0.29V163.32z"/>
	<path d="M248.4,163.32c0-0.19,0.09-0.29,0.29-0.29h1.84c0.23,0,0.39,0.09,0.49,0.29l8.85,14.65h0.11v-14.65
		c0-0.19,0.1-0.29,0.29-0.29h1.81c0.19,0,0.29,0.09,0.29,0.29v18.96c0,0.19-0.1,0.29-0.29,0.29h-1.84c-0.23,0-0.39-0.09-0.49-0.29
		l-8.87-14.59h-0.09v14.59c0,0.19-0.1,0.29-0.29,0.29h-1.81c-0.19,0-0.29-0.09-0.29-0.29V163.32z"/>
	<path d="M199.21,163.32c0.06-0.19,0.17-0.29,0.35-0.29h1.87c0.19,0,0.32,0.1,0.37,0.29l6.69,18.96c0.06,0.19-0.01,0.29-0.2,0.29
		h-2.01c-0.19,0-0.32-0.1-0.37-0.29l-1.49-4.25h-7.9l-1.49,4.25c-0.08,0.19-0.2,0.29-0.38,0.29h-2.01c-0.19,0-0.26-0.1-0.2-0.29
		L199.21,163.32z M203.58,175.67l-3.07-8.87h-0.06l-3.1,8.87H203.58z"/>
</g>
</svg>
