<?xml version="1.0" encoding="utf-8"?>
<!-- Generator: Adobe Illustrator 23.1.1, SVG Export Plug-In . SVG Version: 6.00 Build 0)  -->
<svg version="1.1" xmlns="http://www.w3.org/2000/svg" xmlns:xlink="http://www.w3.org/1999/xlink" x="0px" y="0px"
	 viewBox="0 0 229.48 105.58" style="enable-background:new 0 0 229.48 105.58;" xml:space="preserve">
<style type="text/css">
	.st0{opacity:0;fill:#5CB947;}
	.st1{fill:#FFFFFF;}
	.st2{fill:#EA0029;}
</style>
<g id="CLEAR_SPACE">
</g>
<g id="ARTWORK">
	<g>
		<rect class="st0" width="229.48" height="105.58"/>
		<g>
			<path class="st1" d="M210.69,52.67c0.12-12.8-2.69-19.97-5.13-23.49c0.83-1.1,1.35-1.77,1.38-1.81c0.25-0.25,0.67-0.63,1.54-0.75
				c0.24-1.69,0.87-3.7,0.87-3.7s-1.69,1.22-3.26,1.9c0.12,0.85-0.1,1.37-0.31,1.68c-0.03,0.04-0.42,0.57-1.07,1.43
				c-1.05-1.24-2.32-2.38-4.13-3.43c-0.44-0.25-0.9-0.49-1.41-0.71c0.03-0.69-0.21-1.34-0.66-1.8c-0.02-0.4-0.35-0.9-0.76-1.04l0,0
				c-0.42-0.11-1.04,0.08-1.35,0.38c-0.68,0.1-1.34,0.45-1.82,0.99c-1.49-0.32-3.19-0.55-5.13-0.67c-0.23-0.95-0.84-1.63-1.6-2.01
				c-0.2-0.41-0.77-0.82-1.25-0.85l0,0h0c0,0,0,0,0,0s0,0,0,0c-0.49,0.03-1.06,0.44-1.25,0.85c-0.76,0.37-1.37,1.06-1.6,2.01
				c-1.95,0.12-3.64,0.36-5.14,0.67c-0.48-0.54-1.14-0.9-1.82-0.99c-0.31-0.29-0.93-0.49-1.35-0.38l0,0
				c-0.4,0.15-0.73,0.65-0.75,1.04c-0.46,0.46-0.69,1.11-0.66,1.8c-0.5,0.23-0.97,0.47-1.41,0.71c-1.82,1.05-2.97,2.03-4.05,3.39
				c-0.59-0.78-0.94-1.25-0.97-1.29c-0.21-0.31-0.43-0.83-0.31-1.68c-1.57-0.68-3.26-1.9-3.26-1.9s0.63,2,0.87,3.69
				c0.87,0.12,1.29,0.51,1.54,0.75c0.03,0.03,0.48,0.62,1.22,1.6c-2.45,3.49-5.3,10.72-5.18,23.61c0.01,1.19-0.5,12.35,3.14,19.88
				c0.41,0.76,1.5,2.79,3.49,4.65c1.65,1.56,3.6,2.65,5.8,3.23c0.07,0.02,0.2,0.05,0.27,0.07c2.73,0.74,5.09,0.32,6.04-0.23
				l-0.14,0.34c-0.04,0.09-0.09,0.23-0.12,0.3c-0.51,1.38-0.17,2.82,1.7,3.03c0.49,0.05,1.05,0.08,1.69,0.38
				c0.45,0.21,0.96,0.56,1.51,1.13c0.23,0.24,0.72,0.86,0.96,1.35l0,0l0,0v0c0.24-0.48,0.72-1.11,0.96-1.35
				c0.56-0.58,1.06-0.92,1.52-1.13c0.65-0.3,1.2-0.32,1.69-0.38c1.87-0.21,2.22-1.64,1.71-3.03c-0.03-0.08-0.09-0.22-0.12-0.31
				c-0.04-0.08-0.14-0.34-0.14-0.34c1.3,0.75,5.28,1.34,9.11-1.09c2.62-1.66,4.53-3.54,6.07-6.57
				C211.19,65.08,210.71,53.7,210.69,52.67z M193.79,42.35c-0.05,0.07-0.09,0.14-0.27,0.25c-0.19,0.12-0.4,0.16-0.62,0.15
				c-0.29-0.02-0.46-0.1-0.6-0.31c-0.43-0.61-0.71-1.21-1.16-2.29c-0.4-0.95-0.33-0.79-0.91-2.22c-0.28-0.68-0.78-1.75-1.06-2.13
				c-0.44-0.58-1.23-1.16-1.51-1.28c-0.35-0.14-0.84-0.26-1.36-0.29c-0.93-0.05-1.85,0.08-2.24,0.18c-0.31,0.08-0.85,0.27-1.12,0.6
				c-0.04,0.05-0.17,0.21-0.34,0.29c-0.4,0.19-0.5,0.18-1.02,0.56c-0.84,0.62-0.71,1.58-0.27,1.95c0.01,0.01,0.02,0.01,0.02,0.01
				c-0.01-0.25,0.01-0.46,0.05-0.45c0.05,0.02,0.46,0.29,1.1,0.2c0.47-0.06,0.76,0.65,0.76,0.65l0.08-0.21c0,0,0.15,0.45,0.28,0.55
				c0.02-0.03,0.06-0.08,0.07-0.1c0.14,0.18,0.37,0.29,0.39,0.58c-0.01,0.26-0.12,0.5-0.45,0.81c-0.12,0.12-0.87,0.72-1.65,1.53
				c-0.41,0.42-0.61,0.67-1.03,1.12c-0.21,0.23-0.41,0.37-0.62,0.38c-0.03,0-0.06,0-0.09,0c-0.24,0-0.44-0.13-0.52-0.23
				c-0.08-0.11-4.08-5.39-6-7.93c3.47-3.39,9.23-3.95,10.67-3.84c0.34,0.03,0.72,0.29,0.29,0.84c0.31,0.14,1.48,0.04,1.92-0.37
				c0.44,0.41,1.6,0.51,1.91,0.37c-0.42-0.55-0.04-0.82,0.29-0.84c1.42-0.1,6.89,0.15,10.72,3.93
				C197.63,37.28,195.14,40.41,193.79,42.35z"/>
			<g>
				<path class="st2" d="M209.92,49.17c-1.07,0.87-2.08,1.74-5.42,3.66l-0.87,0.47l0.01-0.62c0-0.07,0.24-8.53-3.87-15.82
					c-0.26,0.35-1.12,1.45-2.01,2.58c0.52-0.06,1.06,0.08,1.54,0.55c0.85,0.83,2.24,2.84,3.04,4.92c0.44,1.3,0.78,3.09,0.69,4.61
					l0,0c0,0-0.5,8.61-1.48,16.86c-0.89,7.5-1.39,8.48-1.39,8.48c-0.57-0.69-0.81-1.57-0.95-2.07l-0.08,0.07
					c0,0-0.52-0.75-0.84-2.22c-0.36-1.68-0.42-4.69-0.38-6.14l0,0.01c0,0,0.02-0.42-0.33-1.15c-0.17-0.34-0.29-0.68-0.38-1.05
					c0-0.01,0-0.01-0.01-0.02c-0.54-2.3-1.59-2.95-2.17-3.67c-0.7-0.86-1.21-1.76-1.52-2.5c-0.02,0.02-0.03,0.03-0.06,0.05
					c-0.38,0.37-0.67,0.74-0.68,0.95c0.13,1.35,0.25,2.3,0.05,2.99c-0.08-0.04-0.21-0.18-0.28-0.23c0.09,0.89-0.33,1.92-0.06,2.74
					l-0.53-0.07c0.02,0.06,0.04,0.11,0.06,0.13c0.07,0.1,0.14,0.16,0.27,0.23c0.02,0.01,0.13,0.06,0.17,0.08
					c0.05,0.02,0.18,0.07,0.54,0.19c0.3-0.67,0.07-1.31-0.23-1.68c-0.25-0.3,0.05-0.75,0.57-0.52c0.67,0.29,1.4,0.72,2.17,1.45
					c1.1,1.04,1.42,2.05,1.19,2.25c-0.18,0.15-0.32,0.12-0.54,0.04c0,0.04-0.01,0.08-0.02,0.12c-0.06,0.2-0.23,0.34-0.47,0.41
					l-0.02,0.04c-0.12,0.16-0.31,0.22-0.64,0.22c-0.28-0.01-0.6-0.17-0.64-0.19c-0.06-0.03-0.13-0.07-0.22-0.16
					c-0.06,0.05-0.13,0.1-0.2,0.16c0.87,1.17,2.54,3.11,3.73,5.23c0.85,1.52,1.25,2.79,1.25,2.79s-0.46,0.15-1.05,0.01
					c0.21,0.61,0.32,1.14,0.28,1.55c-0.46,0.02-1.06-0.04-1.69-0.39c0.02,0.1,0.04,0.2,0.05,0.3c0.54,0.38,1.13,0.83,1.39,1.01
					c-2.61,1.23-6.4,0.66-6.47,0.65c-0.18-0.02-0.34-0.05-0.49-0.07c-0.03,0.07-0.06,0.15-0.09,0.24c0.26,0.61,0.85,2.02,0.98,2.3
					c1.66,0.76,3.2,1.26,5.58,0.86c0,0,0.4-0.04,1.42-0.38c1.04-0.35,2.99-1.49,4.49-2.9c1.87-1.75,3-3.59,3.37-4.31
					c2.89-5.64,3.37-14.02,3.37-17.41c0-1.11,0-1.71,0-1.76C210.02,51.89,209.96,50.03,209.92,49.17z"/>
				<path class="st2" d="M181.74,78.85c0.11-0.31,0.64-1.56,0.9-2.2c-0.04-0.11-0.07-0.22-0.1-0.33c-0.36,0.06-0.72,0.11-1.09,0.15
					c-0.24,0.02-3.84,0.58-6.45-0.65c0.32-0.22,0.91-0.71,1.72-1.23c0.01-0.05,0.02-0.11,0.03-0.16c-0.63,0.35-1.23,0.41-1.69,0.39
					c-0.04-0.41,0.07-0.95,0.28-1.55c-0.59,0.13-1.05-0.01-1.05-0.01s0.39-1.27,1.25-2.79c0.79-1.42,1.91-2.85,2.86-4.04
					c0.1-0.47,0.46-0.86,0.5-0.9c0.02-0.03,0.14-0.15,0.16-0.17c-0.11-0.09-0.21-0.18-0.31-0.25c-0.11,0.11-0.19,0.17-0.26,0.2
					c-0.3,0.14-0.48,0.19-0.64,0.19c-0.33,0.01-0.52-0.05-0.64-0.22l-0.02-0.04c-0.25-0.07-0.41-0.21-0.47-0.41
					c-0.01-0.04-0.02-0.08-0.02-0.12c-0.18,0.06-0.31,0.07-0.48-0.07c-0.23-0.2,0.09-1.21,1.19-2.25c0.77-0.73,1.5-1.15,2.17-1.45
					c0.52-0.23,0.82,0.22,0.57,0.52c-0.3,0.37-0.54,1.01-0.23,1.68c0.32-0.11,0.44-0.16,0.49-0.18c0.12-0.05,0.27-0.09,0.43-0.3
					c0.02-0.02,0.03-0.06,0.05-0.11l-0.46,0.05c0.23-0.58-0.13-1.99,0.11-2.9c-0.06,0.04-0.22,0.15-0.31,0.18
					c-0.17-0.83-0.14-2.15-0.08-2.8c-0.01-0.17-0.25-0.46-0.57-0.79c-0.26,0.66-0.71,1.46-1.46,2.39c-0.58,0.72-1.63,1.37-2.17,3.67
					c0,0.01,0,0.01-0.01,0.02c-0.09,0.37-0.22,0.71-0.38,1.05c-0.35,0.73-0.33,1.15-0.33,1.15l0-0.01c0.04,1.45-0.03,4.46-0.38,6.14
					c-0.31,1.47-0.84,2.22-0.84,2.22l-0.08-0.07c-0.13,0.5-0.37,1.38-0.95,2.07c0,0-0.49-0.98-1.39-8.48
					c-0.98-8.25-1.48-16.86-1.48-16.86l0,0c-0.09-1.52,0.25-3.3,0.69-4.61c0.8-2.08,2.19-4.09,3.04-4.92
					c0.53-0.52,1.12-0.64,1.7-0.53c-0.16-0.21-0.34-0.45-0.34-0.45c-0.57-0.75-1.22-1.58-1.78-2.32c-4.03,7.1-3.93,15.57-3.93,15.64
					l0.01,0.9l-0.71-0.38c-3.17-1.8-4.55-2.89-5.58-3.74c-0.04,0.86-0.13,3.78-0.13,3.78c0,0.05,0,0.66,0,1.77
					c0,3.38,0.61,11.7,3.37,17.41c0.38,0.71,1.42,2.62,3.28,4.37c1.41,1.33,3.06,2.28,4.89,2.87c0.11,0.03,0.32,0.11,0.42,0.14
					c2.11,0.67,4.41,0.53,6.66-0.6L181.74,78.85z"/>
				<path class="st2" d="M183.46,80.99c0.05-1,0.21-2.48,0.43-3.8c-0.33,0.32-0.6,0.47-0.63,0.47c-0.05,0-0.11-0.06-0.17-0.14
					c-0.63,1.54-1.52,3.71-1.52,3.73C181.98,80.91,182.64,80.65,183.46,80.99z"/>
				<path class="st2" d="M189.58,81.99c0.05-1.05-0.38-3.87-0.64-5.47c-0.03-0.04-0.06-0.09-0.09-0.13
					c-0.05-0.07-0.1-0.14-0.15-0.22c-0.09,0.32-0.21,0.66-0.36,1c-0.18,0.39-0.46,0.81-0.52,0.8c-0.05-0.01-0.8-0.54-1.29-1.59
					c-0.48,1.03-1.23,1.56-1.28,1.56c-0.05,0.01-0.34-0.41-0.52-0.8c-0.08-0.18-0.15-0.36-0.21-0.54c-0.25,1.69-0.62,4.39-0.57,5.39
					c-1.57-1.03-2.52,0-2.19,0.72c0.03,0.06,0.07,0.12,0.11,0.17c0.19,0.25,0.43,0.38,0.78,0.41c0.5,0.03,1.17,0.09,1.93,0.44
					c0.69,0.32,1.44,0.86,2.2,1.81c0.76-0.95,1.5-1.48,2.19-1.81c0.76-0.35,1.42-0.41,1.93-0.44c0.34-0.03,0.58-0.18,0.78-0.41
					c0.04-0.05,0.07-0.11,0.11-0.17C192.1,81.99,191.15,80.96,189.58,81.99z"/>
				<path class="st2" d="M190.14,77.67c-0.02,0-0.24-0.12-0.52-0.38c0.22,1.16,0.41,2.61,0.47,3.7c0.82-0.34,1.47-0.09,1.89,0.27
					c-0.01-0.02-0.96-2.45-1.53-3.93C190.31,77.52,190.17,77.67,190.14,77.67z"/>
			</g>
			<g>
				<path d="M184.2,46.4L184.2,46.4C184.2,46.4,184.2,46.4,184.2,46.4"/>
			</g>
			<g>
				<polyline points="183.33,46.77 183.33,46.77 183.33,46.77 				"/>
			</g>
			<path d="M197.48,50.93c-0.11,0.56-0.31,0.79-0.81,1.15c-0.26-0.83-0.42-1.49,0.76-3.94c-0.8,2.4-0.46,3.19-0.46,3.19
				S197.29,51.2,197.48,50.93z M196.18,49.25c0,0-0.28-0.54,0.44-2.62c-1.32,1.98-0.74,3.37-0.74,3.37s0.69-0.34,0.87-1.09
				C196.55,49.16,196.18,49.25,196.18,49.25z M200.89,45.71c-0.21,2.1-0.39,2.53-0.61,2.9c-0.18-0.13-0.34-0.56-0.34-0.56
				c-0.07,0.38,0.02,0.96,0.35,1.27C200.73,48.77,201.04,47.61,200.89,45.71z M200.48,44.3c-0.33,2.35-0.71,2.89-0.97,3.29
				c-0.19-0.14-0.36-0.72-0.36-0.72c-0.09,0.42-0.02,1.08,0.33,1.44C199.99,47.72,200.55,46.44,200.48,44.3z M198.71,46.58
				c-0.22-0.64-0.17-1.27-0.17-1.27c-0.32,0.92-0.22,1.67,0.1,2.06c0.54-0.56,1.33-2.31,1.22-3.94
				C199.54,45.38,198.99,46.2,198.71,46.58z M197.87,45.24c-0.16-0.66-0.07-1.65-0.07-1.65c-0.41,0.89-0.35,2.09-0.06,2.5
				c0.6-0.51,1.42-2.03,1.47-3.66C198.69,44.35,198.19,44.88,197.87,45.24z M200.73,49.21c-0.03,0.49,0.39,0.79,0.39,0.79
				s0.69-0.98,0.42-2.68c-0.14,1.58-0.49,2.13-0.49,2.13S200.77,49.33,200.73,49.21z M201.53,49.94c-0.01,0.43,0.37,0.69,0.37,0.69
				s0.57-0.88,0.28-2.37c-0.07,1.4-0.4,1.92-0.4,1.92S201.57,50.04,201.53,49.94z M172.86,48.67c-0.22-0.37-0.39-0.8-0.61-2.9
				c-0.15,1.9,0.16,3.07,0.6,3.61c0.33-0.31,0.42-0.89,0.35-1.27C173.2,48.12,173.04,48.55,172.86,48.67z M173.63,47.66
				c-0.26-0.4-0.63-0.94-0.97-3.29c-0.08,2.14,0.48,3.41,1,4.01c0.35-0.36,0.42-1.02,0.33-1.44
				C173.99,46.94,173.82,47.52,173.63,47.66z M174.43,46.65c-0.29-0.38-0.84-1.2-1.16-3.15c-0.1,1.63,0.68,3.38,1.22,3.94
				c0.33-0.38,0.42-1.14,0.1-2.06C174.6,45.38,174.65,46,174.43,46.65z M175.27,45.31c-0.32-0.36-0.82-0.89-1.33-2.8
				c0.06,1.63,0.88,3.14,1.47,3.66c0.29-0.41,0.34-1.62-0.07-2.51C175.35,43.66,175.43,44.65,175.27,45.31z M172.09,49.53
				c0,0-0.35-0.55-0.49-2.13c-0.27,1.7,0.42,2.68,0.42,2.68s0.43-0.3,0.39-0.79C172.37,49.4,172.09,49.53,172.09,49.53z
				 M171.37,50.24c0,0-0.33-0.52-0.4-1.92c-0.29,1.49,0.27,2.37,0.27,2.37s0.39-0.26,0.38-0.69
				C171.57,50.11,171.37,50.24,171.37,50.24z M176.17,51.4c0,0-0.32-0.13-0.51-0.41c0.11,0.56,0.31,0.79,0.81,1.15
				c0.26-0.83,0.42-1.49-0.76-3.94C176.52,50.61,176.17,51.4,176.17,51.4z M176.96,49.32c0,0-0.37-0.1-0.57-0.35
				c0.18,0.75,0.87,1.09,0.87,1.09s0.58-1.38-0.74-3.37C177.23,48.78,176.96,49.32,176.96,49.32z M182.85,59.45
				c0.13-1.08-0.46-2.02-0.55-2.46c-0.12,0.13-0.12,0.49-0.12,0.49c-0.39-0.41-0.48-1.14-0.57-1.39c-0.09,0.74-0.35,1.11-0.44,1.47
				c0.16-0.02,0.31-0.06,0.47-0.17C181.84,58.28,182.59,58.48,182.85,59.45z M190.72,57.54c0,0-0.01-0.36-0.12-0.49
				c-0.09,0.44-0.68,1.38-0.55,2.46c0.27-0.97,1.01-1.17,1.21-2.07c0.16,0.11,0.31,0.15,0.47,0.17c-0.09-0.36-0.36-0.72-0.44-1.46
				C191.2,56.4,191.11,57.13,190.72,57.54z M184.9,56.47c-0.11-0.37-0.31-1.59-0.78-2.12C183.94,55.24,184.52,56.09,184.9,56.47z
				 M187.87,57.66c0.21-0.51,0.65-1,0.64-2.61C188.03,55.54,187.82,57.05,187.87,57.66z M186.92,58.28
				c0.25-0.65,0.23-1.46-0.04-1.81C186.66,57.17,186.65,57.79,186.92,58.28z M186.2,56.35c0.24-0.74,0.19-1.64-0.13-2.03
				C185.86,55.07,185.87,55.76,186.2,56.35z M191.37,49.74c-0.45,0.6-0.57,1.97-0.71,2.43C190.82,52.02,191.63,50.08,191.37,49.74z
				 M191.41,47.55c-0.01-0.02,0.74-1.31,0.32-2.02C191.24,45.63,191.42,47.55,191.41,47.55z M189.26,50.7
				c0-0.01,1.16-1.12,1.12-2.52c-0.33,0.94-1.12,1.33-1.12,1.33c0,0-0.44-0.27-0.64-0.88C188.47,50.05,189.27,50.71,189.26,50.7z
				 M191.55,49.1c0.31-0.49,0.74-1.2,0.39-1.66C191.77,47.9,191.69,48.43,191.55,49.1z M187.93,54.58c0.2-0.47,0.72-1.34,0.61-2.35
				C188.09,52.61,187.89,53.98,187.93,54.58z M189.6,53.09c0.69-0.85,1.05-1.83,0.75-2.83C189.74,51.22,189.72,52.19,189.6,53.09z
				 M188.11,50.11c-0.19,0.68-0.49,1.12-0.99,1.63c-0.21-0.2-0.42-0.43-0.71-1.01c-0.11,1.12,0.53,1.78,0.9,2.03
				C187.52,52.57,188.28,51.5,188.11,50.11z M185.1,52.97c-0.14-0.04-0.82-0.67-1.03-1.07c0.1,0.64,0.98,1.89,1.39,2.14
				c0.14-0.23,0.65-1.24,0.2-2.85C185.47,52.17,185.28,52.66,185.1,52.97z M181.04,45.3c-0.09-0.56,0.6-1.07,0.37-1.97
				C180.72,44.11,180.85,44.84,181.04,45.3z M182.43,51.91c0.39,0.65,0.69,0.95,1,1.26c-0.48-0.73-0.87-2.09-1.35-2.46
				C182.04,50.92,182.21,51.54,182.43,51.91z M182.1,48.88c-0.26,1.13,0.87,2.22,0.87,2.24C182.97,51.13,182.97,49.77,182.1,48.88z
				 M182.9,46.75c-0.02,0.48-0.01,0.92-0.12,1.45c-0.32-0.08-0.47-0.3-0.71-0.5c0.19,0.64,0.99,1.38,1.11,1.57
				C183.29,48.4,183.33,47.34,182.9,46.75z M182.4,43.82c0.31-1.13,0.95-1.78,1.17-2.44C182.44,42.19,182.2,43.42,182.4,43.82z
				 M181.43,48.8c-0.15-0.96-0.09-1.61-0.56-2.46C180.71,47.36,181.32,48.65,181.43,48.8z M184.26,45.05
				c-0.77,0.95,0.41,2.14,0.41,2.16C184.66,47.19,184.76,45.4,184.26,45.05z M184.83,42.45c-1.13,0.85-0.6,1.65-0.39,2.09
				C184.66,43.7,184.76,43.48,184.83,42.45z M185.49,50.09c0.2-0.43,0.74-1.23,0.46-2.58c-0.1,1.01-0.75,1.46-0.74,1.46
				c0,0-0.37-0.2-0.65-0.81C184.64,49.4,185.11,49.75,185.49,50.09z M191.27,42.59c-0.08,0.64,0.66,2.09,0.69,2.21
				C191.97,44.69,192.38,43.48,191.27,42.59z M189.73,40.05c-0.1,0.55,0.78,1.37,0.78,1.38C190.51,41.43,190.63,40.38,189.73,40.05z
				 M191.02,44.22c-0.26,1.2-0.78,1.66-0.78,1.66c0,0-0.42-0.34-0.77-0.8c-0.02,0.97,0.81,1.92,0.8,1.91
				C190.25,46.98,191.28,46.17,191.02,44.22z M188.6,41.97c-0.46,0.49-0.03,1.47,0.23,2.36C189.07,43.9,189.36,42.44,188.6,41.97z
				 M188.99,40.59c-0.01-0.43-0.14-1.19-1.12-1.33C187.81,39.76,188.67,40.08,188.99,40.59z M187.91,38.75
				c0.22,0.23,0.95,0.4,1.35,0.77C189.2,38.9,188.57,38.52,187.91,38.75z M186.93,41.55c-0.69,0.75-0.27,1.38-0.27,1.37
				C186.66,42.91,187.5,42.01,186.93,41.55z M187.96,48.72c0,0,0.88-0.81,0.95-2.49c-0.49,0.83-1.03,1.29-1.03,1.29
				c0,0-0.47-0.32-0.85-0.79C187.04,47.8,187.97,48.73,187.96,48.72z M186.67,44.11c-0.78,1.16,0,2.37,0,2.36
				C186.66,46.47,187.2,44.86,186.67,44.11z M186.94,35.83c0.21,0.21,0.89,0.5,1.26,0.85C188.15,36.1,187.64,35.79,186.94,35.83z
				 M187.29,36.5c-0.4-0.47-0.93-0.64-1.2-0.68C186.41,36.21,186.74,36.54,187.29,36.5z M188.69,37.68
				c-0.03-0.13-0.35-0.58-1.03-0.72c0.19,0.17,0.3,0.49,0.37,0.6c-0.13,0.07-0.49,0.11-0.61,0.13
				C187.66,37.87,188.12,37.91,188.69,37.68z M182.58,36c-0.06,0.04-0.12,0.23,0.1,0.24c0.19,0.01,0.22-0.2,0.22-0.2
				S182.67,35.94,182.58,36z M188.49,24.42c-0.21-0.16-0.36-0.27-0.58-0.43c-0.2,0.13-0.42,0.32-0.57,0.44
				c0.2,0.15,0.34,0.26,0.56,0.42C188.13,24.68,188.24,24.6,188.49,24.42z M184.87,35.51c0,0,0.08,0.14,0.04,0.37
				c-0.03,0.23-0.14,0.45-0.48,0.54c-0.37,0.09-0.75-0.14-0.76-0.53c0-0.1,0.02-0.23,0.07-0.32c-0.12,0.01-0.13,0.1-0.25,0.25
				c-0.07,0.09-0.19,0.08-0.36,0.19c0-0.22,0.25-0.58,0.53-0.7c0.41-0.18,1.83-0.25,2.84,0.28c-0.35-0.06-0.66-0.04-1-0.06
				C185.09,35.5,184.87,35.51,184.87,35.51z M184.69,35.51c-0.04-0.03-0.36-0.02-0.4,0.04c-0.04,0.06,0.19,0.17,0.27,0.19
				c0.05,0.02,0.11-0.01,0.14-0.07C184.74,35.61,184.73,35.54,184.69,35.51z M189.4,27.21c-2.79-0.15-8.23,0.14-10.9,0.87
				c0,0-0.28-0.69-0.52-0.95c-0.71-0.76-1,0.06-1.01,0.16c0.9,0.05,1.05,0.51,1.05,0.51c-0.21,0.39-0.37,0.52-0.87,0.86
				c-0.16,0.11-0.73,0.47-1.53,0.53c-1.69,0.08-1.23-1.67-0.21-2.39c-0.13,0.16-0.73,1.08-0.36,1.55c0.42,0.53,1.97,0.1,2.35-0.38
				c-0.21-0.2-0.59-0.25-1.14-0.2c0.03-0.28,0.15-0.99,0.96-1.68c0.29,0.07,1.11,0.51,1.4,1.21c2.46-0.66,6.97-0.85,7.18-0.86
				c-0.05-0.43-0.2-2.04-0.21-2.13c-0.02-0.27,0.15-0.38,0.32-0.49c0.19,0.33,0.36,0.48,0.78,0.63c-0.16,0.19-0.31,0.28-0.5,0.42
				c0.03,0.32,0.05,0.91,0.06,1.15c0.4-0.17,0.96-0.41,1.64-0.57c0.24-0.06,0.55-0.09,0.74-0.07c0.24,0.03,0.52,0.15,0.65,0.28
				c0.12,0.11,0.26,0.29,0.27,0.52C189.59,26.58,189.5,26.93,189.4,27.21z M188.83,26.16c-0.35-0.57-1.64-0.06-2.46,0.28
				c0.48-0.01,0.88-0.02,1.39-0.01c0.2,0,0.74,0.01,1.1,0.02C188.88,26.35,188.9,26.28,188.83,26.16z M177.21,29.17
				c-0.16-0.05-0.31-0.1-0.5-0.15c-0.13,0.18-0.26,0.43-0.35,0.58c0.24,0.08,0.43,0.14,0.69,0.22c0.1-0.16,0.17-0.27,0.25-0.4
				c0.16,0.05,0.3,0.1,0.49,0.15c0.15-0.23,0.21-0.34,0.38-0.58c-0.27-0.08-0.44-0.14-0.71-0.22
				C177.37,28.9,177.29,29.04,177.21,29.17z M197.79,27.1c0.55-0.05,1.06,0.09,1.3-0.17c-0.34-0.1-0.69-0.19-0.81-0.36
				c0.15-0.12,0.36,0.04,0.47,0.13c0.08-0.07,0.12-0.11,0.21-0.19c-0.36-0.29-0.92-0.12-1.04,0.18c0.1,0.05,0.26,0.11,0.31,0.18
				C198.1,26.91,197.88,27.03,197.79,27.1z M197.47,28.12c-0.22,0.52-0.42,1.04-0.68,1.52c0.15,0.06,0.36-0.07,0.51-0.16
				c0.68-0.42,1.18-1.57,1.44-2.26c0.01-0.02-0.4,0.08-0.61,0.18C197.73,27.58,197.66,27.69,197.47,28.12z M192.31,28.37
				c0.17,0.17,0.3,0.3,0.48,0.48c0.26-0.14,0.37-0.21,0.65-0.35c-0.19-0.18-0.3-0.31-0.5-0.49
				C192.72,28.11,192.47,28.27,192.31,28.37z M196.92,27.83c-0.11,0.38-0.39,0.61-0.56,0.84c-0.95-0.37-3.05-0.9-4.21-1.02
				c-0.31,0.34-0.78,0.8-1.27,0.92c-0.72-0.09-1.18-0.28-1.68-0.49c0.28,0.02,0.36,0.02,0.56,0.01c0.71-0.02,1.34-0.24,1.8-0.53
				c-1.01-0.15-1.24-0.43-0.76-1.07c0.22-0.29,0.59-0.82,1.12-0.68c0.42,0.11,0.52,0.7,0.47,1.15c1.18,0.14,2.68,0.55,3.82,0.94
				c0.08-0.33-0.13-0.49-0.27-0.73c0.17-0.18,0.43-0.39,0.63-0.53C196.86,26.82,197.03,27.47,196.92,27.83z M191.37,26.33
				c-0.02,0-0.2,0.11-0.3,0.32c0.09,0.14,0.27,0.2,0.54,0.23c0.04,0.01,0.1,0.01,0.14,0.01C191.88,26.61,191.61,26.25,191.37,26.33z
				 M178.82,28.72c0.23,0.1,0.4,0.18,0.65,0.29c0.18-0.21,0.26-0.31,0.46-0.54c-0.25-0.11-0.42-0.19-0.68-0.29
				C179.1,28.34,178.93,28.57,178.82,28.72z M207.55,72.6c-1.54,3.03-3.45,4.91-6.07,6.57c-3.83,2.43-7.81,1.85-9.11,1.09
				c0,0,0.1,0.25,0.14,0.34c0.04,0.09,0.1,0.23,0.12,0.31c0.51,1.38,0.17,2.81-1.71,3.03c-0.49,0.05-1.04,0.08-1.69,0.38
				c-0.45,0.21-0.96,0.56-1.52,1.13c-0.23,0.24-0.72,0.86-0.96,1.35v0l0,0l0,0c-0.24-0.48-0.72-1.11-0.96-1.35
				c-0.55-0.58-1.06-0.92-1.51-1.13c-0.65-0.3-1.2-0.32-1.69-0.38c-1.87-0.21-2.21-1.65-1.7-3.03c0.03-0.08,0.08-0.22,0.12-0.3
				l0.14-0.34c-0.95,0.55-3.3,0.98-6.04,0.23c-0.07-0.02-0.2-0.05-0.27-0.07c-2.2-0.58-4.15-1.67-5.8-3.23
				c-1.99-1.87-3.08-3.89-3.49-4.65c-3.64-7.52-3.13-18.68-3.14-19.88c-0.12-12.88,2.73-20.11,5.18-23.61
				c-0.74-0.97-1.19-1.56-1.22-1.6c-0.25-0.25-0.67-0.63-1.54-0.75c-0.24-1.69-0.87-3.69-0.87-3.69s1.69,1.21,3.26,1.9
				c-0.12,0.85,0.1,1.37,0.31,1.68c0.03,0.04,0.38,0.51,0.97,1.29c1.08-1.35,2.24-2.34,4.05-3.39c0.44-0.25,0.9-0.49,1.41-0.71
				c-0.03-0.69,0.2-1.34,0.66-1.8c0.02-0.4,0.35-0.89,0.75-1.04l0,0c0.42-0.11,1.04,0.08,1.35,0.38c0.69,0.1,1.34,0.45,1.82,0.99
				c1.49-0.32,3.19-0.55,5.14-0.67c0.23-0.95,0.84-1.63,1.6-2.01c0.2-0.41,0.77-0.82,1.25-0.85c0,0,0,0,0,0s0,0,0,0h0
				c0.49,0.03,1.06,0.44,1.25,0.85c0.76,0.37,1.37,1.06,1.6,2.01c1.95,0.12,3.64,0.36,5.13,0.67c0.48-0.54,1.14-0.9,1.82-0.99
				c0.31-0.29,0.93-0.49,1.35-0.38l0,0c0.4,0.15,0.74,0.65,0.76,1.04c0.45,0.46,0.69,1.11,0.66,1.8c0.5,0.23,0.97,0.47,1.41,0.71
				c1.82,1.05,3.08,2.19,4.13,3.43c0.65-0.86,1.04-1.38,1.07-1.43c0.21-0.31,0.43-0.83,0.31-1.68c1.57-0.68,3.26-1.9,3.26-1.9
				s-0.63,2-0.87,3.7c-0.87,0.12-1.29,0.51-1.54,0.75c-0.04,0.04-0.55,0.71-1.38,1.81c2.44,3.52,5.25,10.69,5.13,23.49
				C210.71,53.7,211.19,65.08,207.55,72.6z M206.41,32.14c-1.54,0.33-2.51,0.31-3.09,0.29c-0.39,0.84-0.71,1.62-0.68,3.05
				c-0.63-0.19-0.95-0.38-1.29-0.72c-0.44,0.59-0.69,0.91-1.15,1.52c4.05,7.22,4.04,13.88,4.12,15.76c3.15-1.79,5.14-3.48,5.54-3.81
				C209.48,41.55,208.45,36.5,206.41,32.14z M199.99,52.26c-0.1,0.77-0.1,1.42,0.1,2.13c0.37-0.48,0.61-0.92,0.88-1.76
				c0,0.67,0.2,1.41,0.34,1.71c0.48-0.7,0.76-3.53,0.76-3.53s0.02,0.07,0.26,0.16c0.26-1.01,0.12-3.08-0.1-4.06
				c-0.38-1.72-1.05-3.8-3.15-6.27c-1.08-1.27-1.99-0.7-2.9,0.3c-1.47,1.6-1.79,2.31-3.55,2.63c-0.02,0-0.02,0-0.01,0
				c-0.18,0.03-0.04,0.12,0.3,0.11c2.12-0.04,2.79-1.44,3.42-2.14c0.42-0.47,0.96-0.89,1.42-0.62c0.17,0.1,0.75,0.77,0.15,2.43
				c0-0.38-0.14-0.71-0.22-0.79c-0.28,1.1-0.65,1.98-1.09,2.73c-0.06-0.18-0.1-0.35-0.13-0.59c-0.21,1.34-1.41,2.74-1.58,4.65
				c-0.12-0.21-0.23-0.34-0.24-0.84c-0.91,1.67-1.85,4.68-1.26,6.18c-0.03-1.53,0.92-3.73,1.4-4.43c-0.62,1.96-1.35,4.4-0.72,5.87
				c0.04-1.25,0.76-3.3,1.28-4.15c-0.86,3.23-1.21,4.88-0.26,6.13c-0.17-1.21,0.33-3.05,1-4.55c-0.45,2.52-1.08,4.72,0.1,5.83
				c-0.17-1.65,0.46-3.85,0.8-4.62c-0.39,2.44-0.72,4.79,0.06,5.96c0-0.84,0.15-1.71,0.32-2.53c0.21-1.07,0.52-2.09,0.52-2.09
				s-0.25,1.7-0.38,3.78c-0.02,0.35-0.03,0.7-0.02,1.04c0.01,0.42,0.04,0.85,0.13,1.27c0.07,0.36,0.17,0.73,0.37,1.04
				c0.21-2.75,0.53-5.12,0.9-6.23c0,0-0.31,2.57-0.52,6.51c-0.01,0.14-0.01,0.28-0.02,0.42c-0.26,5.66,0.51,7.47,0.75,8.02
				c0,0-0.05-0.11-0.07-0.83c-0.02-0.61-0.02-0.57,0.05-1.26c0.02-0.2-0.5-1.24-0.43-2.64c0.04-0.84,0.1-1.68,0.17-2.49
				c0.06-0.75,0.13-1.47,0.21-2.17c0.09-0.63,0.15-1.24,0.24-1.89c0.12-0.91,0.3-1.82,0.47-2.73c0.13-0.72,0.06-0.09,0.05,0.09
				c-0.07,0.81-0.21,2.6-0.36,4.43c-0.1,1.37-0.4,4.08-0.34,5.39c0.06,1.14,0.38,1.63,0.38,1.81c-0.06,2.21,0.16,3.1,0.54,3.93
				c0,0,0.23-0.79,0.4-1.78c-0.04,0.06-0.11,0.16-0.22,0.2c-0.28-0.72-0.42-1.97-0.24-3.27c0.03-0.23-0.31-0.52-0.28-1.56
				c0.04-1.63,0.26-3.25,0.46-4.86c0.07-0.54,0.14-1.06,0.22-1.56c0.05-0.32,0.1-0.64,0.15-0.96c0.07-0.51,0.16-1.02,0.27-1.53
				c0.02-0.08,0.03-0.16,0.05-0.23c0,0.01-0.01,0.37-0.05,0.87c-0.18,2.18-0.67,7.74-0.68,8.19c-0.02,1.09,0.28,1.42,0.26,1.62
				c-0.07,0.79-0.04,2.24,0.07,2.6c0.1-0.32,0.17-0.92,0.17-0.92s0.31-2.26,0.67-5.47c0.05-0.5,0.11-0.99,0.16-1.48
				c0.05-0.46,0.1-0.94,0.15-1.43c0.05-0.57,0.11-1.14,0.16-1.72c0.02-0.25,0.04-0.49,0.07-0.74c0.13-1.51,0.29-3.22,0.41-4.72
				c0,0,0.2-2.45,0.25-3.19c-0.07-0.05-0.12-0.09-0.12-0.09s-0.28,3.02-1.08,4.09c-0.22-0.2-0.48-1.33-0.46-1.71
				c-0.18,0.6-0.91,1.41-0.91,1.41s-0.25-0.6-0.22-1.59c-0.25,0.36-0.46,0.63-0.83,0.83c-0.15-0.34-0.33-0.73-0.31-1.67
				c-0.13,0.17-0.35,0.39-0.68,0.59c-0.1-0.23-0.64-1.09,0.34-4.24c-0.39,2.92-0.16,3.26-0.08,3.49c0.16-0.07,0.33-0.19,0.45-0.29
				c0.04-0.53,0.13-1.21,0.3-2.08c-0.14,2.32,0.04,3.05,0.22,3.5C199.25,53.7,199.57,53.27,199.99,52.26z M192.87,53.25
				c0.23-3,0.75-4.81,1.16-6.36C192.44,48.62,192.67,52.63,192.87,53.25z M193.17,46.71c0.5-1.51,0.08-2.27-0.21-2.43
				C192.95,44.98,193.13,45.3,193.17,46.71z M194.46,47.96c0.39-1.38,0.62-2.22,0.62-3.36C194.71,45,194.41,46.49,194.46,47.96z
				 M195.83,44.99c0.12-0.5,0.14-1.15,0.05-1.68c-0.22,0.51-0.49,1.62-0.43,2.64C195.58,45.65,195.74,45.33,195.83,44.99z
				 M192.19,56.33c0-0.03,0-0.05,0.02-0.08c0,0,0.01-0.01,0.02-0.01c0.01-0.01,0.03-0.01,0.03-0.01c0.04,0,0.1,0.03,0.2,0.09
				c0.05,0.04,0.12,0.08,0.21,0.12c-0.12-0.26-0.14-0.66-0.17-1.1c-0.03-0.45-0.04-0.92-0.18-1.37c0,0.01-0.03-0.04-0.03-0.06
				c-0.08,0.22-0.23,0.43-0.39,0.64c-0.23,0.3-0.47,0.62-0.54,1.04l-0.01,0.08l-0.06-0.06c0.12,0.11-0.33-0.4-0.34-0.41
				c-0.18,0.66-1.3,2.08-1.57,2.38v0c-0.04,0.05-0.47,0.69-0.64,2.29c-0.16,1.51,0,2.43,0,2.43l0.4-0.43c0,0,0.02,0.42-0.03,0.9
				c-0.04,0.38-0.16,0.67-0.16,0.67s0.79,0.13,1.4-0.61l0.11,0.29c0.1,0.29,0.18,0.63-0.05,0.81c-0.04,0.03-0.42,0.36-0.37,0.69
				c0.02,0.12,0.08,0.22,0.22,0.32l0.01,0.01l0,0.02c0.01,0.18,0.15,0.28,0.24,0.33c-0.03-0.15-0.01-0.25,0.01-0.31
				c0.08-0.21,0.23-0.27,0.35-0.28c0.09-0.01,0.18,0.02,0.18,0.02s0.1,0.92,0.18,1.29c0.07,0.33,0.16,0.76,0.21,1.23
				c0.01,0.11,0.02,0.21,0.03,0.32c0.04,0.31,0.22,0.34,0.38,0.37c0.09,0.01,0.3,0,0.39-0.01l0.02,0.01l-0.02,0.01
				c-0.24,0.07-0.22,0.16-0.21,0.19c0.03,0.14,0.11,0.31,0.02,0.6l0.04,0.03c0.36-0.2,0.36-0.53,0.32-0.82l0-0.02l0.02-0.01
				c0.27-0.16,0.21-0.71-0.18-1.54c-0.18-0.39-0.26-1.04-0.14-1.1c0.01,0,0.02-0.01,0.02-0.01c0.06-0.01,0.14,0,0.32,0.27
				c0.13,0.19,0.26,0.35,0.42,0.55c0.16,0.19,0.26,0.37,0.26,0.53c0,0.06-0.02,0.1-0.05,0.13c-0.03,0.02-0.06,0.03-0.12,0.04
				c-0.08,0.01-0.18-0.01-0.25-0.02c0.09,0.09,0.42,0.47,0.52,0.35c0.25-0.29,0.02,0.18,0.46,0.22c0.28,0.01,0.48-0.17,0.5-0.52
				c0-0.12-0.02-0.2-0.04-0.3c-0.06-0.32-0.31-0.64-0.43-0.77l-0.1-0.1c-0.73-0.8-0.67-0.98-0.62-1.06
				c0.07-0.13,0.14-0.16,0.33-0.17c0.29-0.01,0.6,0.04,0.61,0.04c0.3,0.06,0.78,0.13,0.77,0.29c0,0.03-0.04,0.07-0.08,0.09
				c-0.1,0.04-0.27,0.1-0.3,0.06c0.03,0.04,0.13,0.12,0.28,0.19c0.12,0.06,0.62,0.2,0.78-0.04l0.05-0.11c0.09,0,0.33-0.04,0.38-0.21
				c0.05-0.16-0.16-0.38-0.37-0.48c-0.17-0.09-0.67-0.29-1.08-0.41c-0.16-0.05-0.37-0.09-0.52-0.13l-0.88-0.23
				c-0.02-0.01-0.48-0.15-0.65-0.23c-0.09-0.04-0.15-0.07-0.19-0.09c-0.15-0.08-0.26-0.17-0.37-0.32c-0.1-0.13-0.19-0.49-0.3-0.88
				c0.11,0.06,0.37,0.24,0.7,0.29c-0.03-0.13-0.05-0.56-0.03-0.79c0.14-1.45,0.17-2.28,0.17-2.28s0.25,0.26,0.29,0.3
				c0.05-0.25-0.04-0.86-0.09-1.46c0-0.01,0-0.01,0-0.01C192.44,57.59,192.32,56.91,192.19,56.33z M193.23,63.24l0.68,0.18
				c0.1,0.03,0.21,0.06,0.33,0.08c0.12-0.32,0.17-0.66,0.16-0.99c-0.02-0.38,0.85,0.42,1.42,1c0.24,0.24,0.29,0.14,0.15-0.05
				c-0.57-0.79-1.71-1.54-2.03-1.73c-0.55-0.34-0.82-0.26-0.64,0.04C193.52,62.1,193.47,62.66,193.23,63.24z M194.25,68.88
				c0.65,0.81,1.67,2.33,2.07,2.74c0.85,0.88,1.21,0.98,1.86,1.02c-0.21-0.61-0.43-1.19-1.42-2.76c-0.52-0.83-1.39-2.16-2.29-3.16
				c0,0.15-0.01,0.3-0.06,0.45c-0.02,0.03-0.03,0.07-0.05,0.1c-0.06,0.1-0.14,0.19-0.23,0.26c-0.14,0.1-0.32,0.14-0.5,0.13
				c-0.18-0.02-0.33-0.09-0.43-0.2c-0.1,0.01-0.21-0.02-0.31-0.08c0.04,0.31-0.02,0.54-0.16,0.7c0,0.19-0.04,0.57-0.34,0.86
				c0.03,0.04,0.05,0.07,0.05,0.07c0.21,0.38,0.12,0.57,0.02,0.69c-0.09,0.11-1.12,1.25-1.35,1.45c-0.27,0.25-0.56-0.03-0.56-0.03
				l-0.17-0.14c0,0-0.26,0.26-0.47,0.47c0.02,0.02,0.04,0.04,0.05,0.05c0,0,0,0,0,0c0.33,0.3,0.74,0.53,1.15,0.71
				c0.37,0.16,1.46,0.56,2.2,0.87c-0.17-0.54-0.38-1.16-0.59-1.77c0.19,0.26,0.72,1.19,1.17,2.02c-0.03-0.01,0.06,0.03,0.03,0.01
				c0.59,0.27,1.37,0.66,1.96,1.02c-0.05-0.21-0.09-0.34-0.09-0.34s-0.54-0.56-0.91-1.09c-0.75-1.08-1.23-2.2-1.47-2.95
				c0.85,1.28,1.06,1.64,1.4,2.09c1.07,1.44,2.21,2.06,2.65,2.07c-0.15-0.8-0.44-0.98-0.44-0.98s-0.53-0.44-1.09-1.21
				c0.13,0.18,0.26,0.36-0.03-0.04c-0.22-0.3-0.13-0.18-0.02-0.03C195.38,71.22,194.79,70.21,194.25,68.88z M191.33,75.93
				c1.45,0.18,4.55,0.14,5.66-0.29c-0.42-0.34-2.19-1.47-4.89-2.56c-0.56-0.24-1.28-0.5-1.77-0.85c-0.3-0.21-0.51-0.38-0.8-0.65
				c-0.89-0.82-3.23-3.26-3.65-3.71l-1.56,1.43c0,0,4.12,4.02,5.16,4.59c1.33,0.72,5.13,1.58,5.13,1.58s-2.91-0.22-5.13-1.12
				c-1.33-0.54-5.55-4.7-5.55-4.7l-1.02,0.94c0.52,0.58,1.65,1.85,3.49,3.34C187.68,74.98,189.23,75.67,191.33,75.93z M186.86,75
				c0.01,0.79,0.65,1.59,0.81,1.72c0,0,0.24-0.3,0.36-1.07C187.49,75.42,187.11,75.18,186.86,75z M179.82,69.92
				c-0.24,0.75-0.72,1.87-1.47,2.95c-0.37,0.53-0.92,1.08-0.92,1.08s-0.03,0.1-0.06,0.25l-0.11,0.06l0.62-0.34
				c0.1-0.05,0.2-0.1,0.3-0.15c0.4-0.22,0.86-0.42,1.3-0.62c0.44-0.79,0.96-1.74,1.13-1.98c-0.05,0.2-0.15,0.73-0.63,1.78l0.34-0.13
				c0.7-0.28,1.31-0.49,1.6-0.63c0.49-0.22,0.71-0.41,0.9-0.55c0.04-0.03,0.11-0.09,0.2-0.18c0.01,0.01-0.5-0.5-0.5-0.5l-0.17,0.14
				c0,0-0.29,0.28-0.56,0.03c-0.23-0.21-1.26-1.35-1.35-1.45c-0.1-0.12-0.22-0.32,0.02-0.69c0,0,0.01-0.01,0.01-0.02
				c-0.32-0.29-0.37-0.69-0.36-0.89c-0.15-0.16-0.2-0.39-0.17-0.7c-0.1,0.06-0.21,0.09-0.31,0.08c-0.11,0.11-0.25,0.19-0.43,0.2
				c-0.03,0-0.05,0-0.06,0c-0.18,0-0.34-0.04-0.46-0.15c-0.14-0.12-0.14-0.11-0.25-0.32c-0.01-0.01-0.01-0.03-0.02-0.04
				c-0.59,0.62-1.15,1.42-1.94,2.69c-0.99,1.57-1.22,2.14-1.43,2.75c0.65-0.04,1.01-0.14,1.86-1.02c0.39-0.41,1.42-1.93,2.07-2.74
				c-0.55,1.34-1.14,2.36-1.64,3.04c-0.58,0.79-1.16,1.27-1.16,1.27s-0.25,0.15-0.4,0.95c0.44-0.01,1.58-0.63,2.65-2.07
				C178.76,71.56,178.98,71.2,179.82,69.92z M179.23,65.65c-0.31,0.33-0.56,0.7-0.56,1.18c0.01,0.34,0.21,0.53,0.49,0.52
				c0.44-0.05,0.21-0.51,0.46-0.22c0.1,0.12,0.43-0.26,0.52-0.35c-0.19,0.03-0.46,0.06-0.41-0.21c0.03-0.21,0.19-0.38,0.31-0.53
				c0.12-0.14,0.47-0.82,0.71-0.73c0.11,0.08,0.04,0.71-0.14,1.1c-0.39,0.83-0.46,1.38-0.18,1.54l0.02,0.01l0,0.02
				c-0.04,0.29-0.04,0.62,0.32,0.82l0.03-0.03c-0.09-0.29-0.01-0.46,0.02-0.6c0-0.03,0.02-0.12-0.21-0.19l-0.02-0.01l0.02-0.01
				c0.09,0.01,0.3,0.02,0.39,0.01c0.16-0.03,0.34-0.05,0.38-0.37c0.01-0.11,0.02-0.21,0.03-0.32c0.05-0.47,0.14-0.9,0.21-1.23
				c0.08-0.38,0.18-1.29,0.18-1.29s0.09-0.03,0.18-0.02c0.11,0.01,0.27,0.06,0.35,0.28c0.02,0.06,0.04,0.16,0.01,0.31
				c0.09-0.04,0.23-0.14,0.24-0.33l0-0.02l0.01-0.01c0.14-0.1,0.21-0.21,0.22-0.32c0.05-0.33-0.33-0.66-0.37-0.69
				c-0.23-0.18-0.15-0.52-0.05-0.81l0.13-0.35c0.12,0.14,0.27,0.28,0.45,0.38c0.53,0.37,1.06,0.29,1.06,0.29s-0.12-0.29-0.16-0.67
				c-0.05-0.48-0.04-0.9-0.04-0.9l0.4,0.43c0,0,0.24-0.8,0.08-2.3c-0.18-1.74-0.55-2.42-0.62-2.67c-0.12-0.39-0.35-0.78-0.35-0.78
				s-0.03,0.21-0.32,0.45c-0.34-0.42-0.93-1.25-1.08-1.81c-0.09,0.16-0.22,0.31-0.33,0.41l-0.06,0.06l-0.01-0.08
				c-0.07-0.42-0.3-0.73-0.54-1.04c-0.16-0.21-0.32-0.42-0.39-0.64c-0.14,0.45-0.17,0.95-0.19,1.4c-0.03,0.44-0.05,0.84-0.17,1.1
				c0.08-0.05,0.15-0.09,0.21-0.12c0.1-0.06,0.15-0.1,0.19-0.09l0.03,0.01l0.01,0.01c0.02,0.02,0.02,0.05,0.02,0.07
				c-0.13,0.59-0.25,1.28-0.29,1.69c-0.05,0.61,0,1.14,0.04,1.39c0.04-0.04,0.45-0.26,0.45-0.26s-0.27,0.87-0.13,2.32
				c0.02,0.23,0,0.66-0.03,0.79c0.28-0.04,0.51-0.17,0.64-0.25c-0.11,0.38-0.2,0.74-0.29,0.87c-0.36,0.49-1.12,0.62-1.68,0.76
				c-0.69,0.18-1.38,0.33-2.02,0.65c-0.21,0.11-0.42,0.32-0.37,0.48c0.05,0.17,0.29,0.21,0.38,0.21l0.05,0.11
				c0.16,0.23,0.66,0.09,0.78,0.04c0.14-0.07,0.25-0.15,0.27-0.19c-0.03,0.04-0.19-0.02-0.29-0.06c-0.04-0.02-0.07-0.06-0.07-0.09
				c-0.03-0.29,1.2-0.33,1.38-0.33c0.19,0,0.26,0.04,0.33,0.17C179.9,64.67,179.96,64.85,179.23,65.65z M179.59,61.73
				c0.19-0.3-0.09-0.38-0.64-0.04c-0.32,0.2-1.46,0.94-2.03,1.73c-0.14,0.19-0.09,0.3,0.15,0.05c0.57-0.58,1.44-1.37,1.42-0.99
				c-0.01,0.33,0.04,0.67,0.17,1c0.09-0.02,0.18-0.04,0.26-0.06l0.75-0.2C179.43,62.64,179.37,62.08,179.59,61.73z M178.35,50.34
				c0.49,0.7,1.43,2.9,1.4,4.43c0.58-1.51-0.36-4.51-1.26-6.18c-0.01,0.49-0.12,0.63-0.24,0.84c-0.17-1.92-1.37-3.31-1.58-4.66
				c-0.04,0.23-0.08,0.4-0.13,0.59c-0.44-0.75-0.81-1.63-1.09-2.74c-0.08,0.09-0.22,0.41-0.22,0.79c-0.6-1.66-0.02-2.33,0.15-2.43
				c0.46-0.26,1,0.16,1.42,0.62c0.63,0.71,1.3,2.11,3.42,2.14c0.35,0.01,0.48-0.08,0.3-0.11c0.02,0,0.01,0-0.01,0
				c-1.76-0.32-2.08-1.03-3.54-2.63c-0.91-0.99-1.82-1.57-2.91-0.3c-2.1,2.47-2.77,4.56-3.15,6.27c-0.21,0.97-0.36,3.05-0.1,4.06
				c0.25-0.09,0.26-0.16,0.26-0.16s0.28,2.82,0.76,3.53c0.14-0.3,0.34-1.04,0.34-1.71c0.27,0.83,0.51,1.28,0.88,1.76
				c0.19-0.71,0.2-1.36,0.1-2.13c0.43,1.01,0.75,1.44,0.98,1.6c0.18-0.45,0.36-1.18,0.22-3.5c0.17,0.88,0.26,1.55,0.3,2.08
				c0.12,0.1,0.28,0.22,0.45,0.29c0.08-0.24,0.31-0.57-0.08-3.49c0.98,3.16,0.43,4.02,0.34,4.24c-0.33-0.19-0.55-0.42-0.68-0.59
				c0.02,0.94-0.16,1.33-0.31,1.67c-0.37-0.2-0.58-0.47-0.83-0.83c0.03,0.99-0.22,1.59-0.22,1.59s-0.74-0.81-0.92-1.41
				c0.02,0.38-0.24,1.51-0.46,1.71c-0.81-1.06-1.08-4.09-1.08-4.09s-0.05,0.04-0.12,0.09c0.04,0.74,0.14,1.88,0.25,3.17
				c0,0,0,0.01,0,0.01c0.13,1.51,0.28,3.21,0.41,4.72c0.32,3.62,0.72,7.24,1.2,10.85c0,0,0.06,0.6,0.17,0.92
				c0.11-0.36,0.14-1.81,0.07-2.6c-0.02-0.2,0.28-0.53,0.26-1.62c-0.01-0.44-0.51-6.01-0.68-8.19c-0.02-0.27-0.05-0.86-0.05-0.86
				c0.02,0.07,0.03,0.15,0.05,0.23c0.17,0.82,0.3,1.66,0.42,2.49c0.07,0.49,0.15,1.02,0.22,1.56c0.22,1.61,0.42,3.24,0.46,4.86
				c0.03,1.04-0.32,1.33-0.28,1.56c0.18,1.29,0.04,2.55-0.24,3.27c-0.11-0.04-0.18-0.14-0.22-0.2c0.18,0.99,0.4,1.78,0.4,1.78
				c0.38-0.83,0.6-1.72,0.54-3.93c-0.01-0.17,0.32-0.67,0.38-1.81c0.02-0.34-0.04-1.4-0.14-2.73c-0.17-2.37-0.37-4.73-0.56-7.09
				c-0.01-0.11-0.03-0.39-0.03-0.41c0.03,0.1,0.05,0.21,0.08,0.33c0.67,3.04,0.93,6.2,1.09,9.28c0.07,1.4-0.45,2.44-0.43,2.64
				c0.07,0.7,0.07,0.65,0.05,1.26c-0.02,0.73-0.07,0.83-0.07,0.83c0.24-0.54,1-2.35,0.74-8.02c-0.01-0.14-0.01-0.28-0.02-0.42
				c-0.21-3.94-0.52-6.51-0.52-6.51c0.37,1.1,0.68,3.48,0.9,6.23c0.03-0.04,0.05-0.09,0.08-0.14c0.39-1.05,0.46-2.1,0.39-3.21
				c-0.13-2.07-0.38-3.77-0.38-3.77c0,0,0.05,0.15,0.05,0.17c0.07,0.23,0.26,0.84,0.46,1.91c0.15,0.73,0.25,1.48,0.31,2.22
				c0.01,0.11,0.01,0.21,0.02,0.31l0,0c0.79-1.17,0.45-3.52,0.06-5.96c0.35,0.78,0.97,2.97,0.8,4.62c1.18-1.11,0.54-3.31,0.09-5.83
				c0.67,1.5,1.16,3.34,1,4.55c0.96-1.25,0.6-2.89-0.26-6.12c0.52,0.85,1.24,2.9,1.28,4.15C179.69,54.75,178.97,52.31,178.35,50.34z
				 M188.97,57.5c0-0.01,0.51-0.48,0.69-2.07c0.1,0.12,0.28,0.24,0.33,0.46c0.32-0.39,0.96-2.53,1.03-3.26
				c0.21,0.09,0.02,0.04,0.27,0.17c0.17-0.31,0.54-1.53,0.7-3.21c0.08,0.02,0.22,0.02,0.27,0.09c0.11-0.77,0.22-2.01,0.26-2.87
				c0.03-0.74,0.01-2.28-0.31-3.16c-0.32-0.88-0.46-1.35-0.97-2.15c0,0-0.18,0.09-0.27,0.21c-0.14-0.43-0.53-1.45-0.72-1.83
				c-0.48-0.94-0.71-1.55-1.21-1.87c0.23,0.01,0.32,0.06,0.6,0.05c-0.33-0.31-0.45-0.52-0.82-0.8c0.12-0.08,0.33-0.07,0.68-0.01
				c-0.5-0.45-0.66-1.14-1.94-1.63c0.23-0.04,0.4,0.04,0.71,0.03c-0.16-0.25-0.55-0.66-1.19-0.85c-1.31-0.26-3.12-0.3-3.96,0.7
				c-0.06,0.07-0.29,0.12-0.49,0.19c-0.14,0.05-0.2,0.1-0.24,0.12c-0.15,0.11-0.17,0.26,0.11,0.65c-0.37-0.05-0.46-0.4-0.53-0.37
				c-0.13,0.09-0.25,0.2-0.39,0.4c-0.12,0.18-0.23,0.57-0.2,0.74c0.04,0.04,0.35,0.17,0.41-0.19c0.02-0.12,0.59-0.18,0.79-0.18
				c0.29,0,0.55,0.07,0.91,0.05c-0.13,0.05-0.53,0.16-0.68,0.21c-0.16,0.05-0.18,0.22-0.02,0.23c0.16,0.02,0.24-0.05,0.4-0.09
				c0.07,0.04,0,0.22,0.06,0.33c1.05-0.24,1.13,0.89,2.26,0.67c-0.53-0.41-0.98-1.1-1.39-1.31c1.11,0.17,1.71,1.17,2.91,1.22
				c-0.04-0.12-0.04-0.12-0.15-0.32c0.41,0,0.7,0.31,0.82,0.3c-0.15,0.17-0.5,0.3-0.96,0.36c0.08,0.15,0.53,0.18,0.68,0.21
				c-0.24,0.22-0.52,0.32-1.06,0.22c-0.18,0.16-0.42,0.54-1.2,1.01c0.01-0.19,0.01-0.19,0.04-0.37c-0.52,0.3-0.85,0.84-1.24,0.99
				c0.11-0.19,0.21-0.52,0.29-0.69c-1.35,1.22-2.64,2.4-3.13,3.28c-0.54,0.99-0.71,2.01-0.64,3.69c0.05,0.9,0.44,3.45,0.5,3.95
				c0.11-0.04,0.19-0.09,0.28-0.12c0.32,1.87,1.29,4.5,1.8,5.35c0.09-0.21,0.15-0.29,0.3-0.4c0.08,0.5,0.34,1.07,0.76,1.43
				c-0.01-0.34,0.13-0.53,0.17-0.65c0.11,0.36,0.05,1.49,0.69,2.11c-0.04-0.31,0.07-0.57,0.16-0.99c0.11,0.36,0.13,0.81,0.31,1.18
				c0.2,0.43,0.46,0.85,0.69,0.96c-0.03-0.89,0.11-0.84,0.14-1.21c0.01,0.08,0.35,0.39,0.51,1.52c0.66-0.5,0.91-2.16,0.91-2.16
				c0,0,0.19,0.17,0.33,0.62c0.57-0.6,0.75-1.38,0.92-1.98C189,56.89,189.02,57.29,188.97,57.5z M189.63,66.24
				c0.79-0.01,1,0,1.3-0.05c-0.02-0.09-0.04-0.18-0.05-0.25c-0.01-0.06-0.02-0.12-0.02-0.19c-0.01,0-0.01,0-0.02,0.01
				c-0.27,0.06-0.79,0.22-1.49,0.1c-0.34-0.07-0.35-0.08-0.61-0.15c-0.24-0.07-0.62,0.32-0.91,0.64c-0.25,0.27-0.58,0.65-0.73,0.8
				c-0.03,0.03-0.02,0.06,0.01,0.08c0.27,0.24,3.52,3.22,3.72,3.4c0.05,0.05,0.09,0.05,0.15-0.01c0.15-0.15,0.36-0.38,0.57-0.59
				c0,0-3.21-3.02-3.27-3.07c-0.05-0.05-0.05-0.11-0.03-0.14c0.02-0.03,0.16-0.17,0.19-0.2c0.02-0.03,0.1-0.03,0.15,0.02
				c0.05,0.05,1.05,0.99,1.05,0.99l1.38,1.23l0.87,0.77c0.12-0.13,0.11-0.1,0.14-0.14c0.13-0.14,0.1-0.24-0.34-0.67
				c-0.12-0.12-2.25-2.25-2.25-2.25C189.21,66.33,189.37,66.24,189.63,66.24z M184.62,66.92c-0.05,0.05-3.26,3.07-3.26,3.07
				c0.21,0.21,0.42,0.44,0.57,0.59c0.06,0.06,0.1,0.06,0.15,0.01c0.2-0.18,3.45-3.16,3.72-3.4c0.03-0.03,0.03-0.05,0.01-0.08
				c-0.15-0.16-0.48-0.54-0.73-0.8c-0.29-0.31-0.67-0.71-0.91-0.64c-0.26,0.08-0.28,0.08-0.61,0.15c-0.7,0.12-1.22-0.03-1.49-0.1
				c-0.02-0.01-0.05-0.01-0.07-0.02c-0.01,0.08-0.02,0.16-0.03,0.23c-0.01,0.07-0.03,0.14-0.04,0.22c0.34,0.07,0.52,0.05,1.35,0.06
				c0.25,0,0.41,0.08,0.19,0.33c0,0-2.13,2.12-2.25,2.25c-0.45,0.42-0.47,0.52-0.35,0.66c0.04,0.04,0.02,0.01,0.14,0.14l0.87-0.77
				l1.39-1.23c0,0,1.01-0.94,1.05-0.99c0.04-0.05,0.12-0.05,0.15-0.02c0.02,0.03,0.16,0.17,0.19,0.2
				C184.67,66.81,184.66,66.87,184.62,66.92z M184.93,59.33c0,0,0-0.19-0.12-0.44c-0.07-0.13-0.28-0.29-0.38-0.42
				c-0.09-0.11-0.1-0.16-0.1-0.16c-0.03,0.12,0.03,0.41,0.06,0.53c0.04,0.13,0.13,0.27,0.28,0.37
				C184.84,59.31,184.93,59.33,184.93,59.33z M184.9,65.51c0,0,0.24,0.23,0.28,0.28c0.05-0.33,0.21-1.43,0.15-1.54
				C184.96,64.95,184.9,65.44,184.9,65.51z M183.6,65.43c0.12-0.04,0.43-0.18,0.6-0.22c0.04-0.01,0.1-0.02,0.12-0.03l0,0
				c0.09-0.33,0.25-0.84,0.36-1.08C184.58,64.08,183.77,65.21,183.6,65.43z M185.99,66.62c-0.01-0.44-0.04-0.92-0.06-1.12
				c-0.14,0.2-0.23,0.49-0.29,0.76C185.68,66.29,185.96,66.58,185.99,66.62z M186.21,63.71c0,0-0.08-0.56-0.5-0.74
				C185.73,63.37,186.21,63.71,186.21,63.71z M186.54,62.78c0,0,0-0.01,0-0.01C186.54,62.77,186.54,62.78,186.54,62.78
				c0,0,0.07-0.15,0.3-0.32c0.15-0.11,1.06-0.66,1.24-0.9c0.17-0.24,0.25-0.57,0.25-0.57s-0.16,0.26-0.53,0.47
				c-0.3,0.18-1.02,0.62-1.15,0.84c-0.06,0.11-0.09,0.2-0.1,0.28c-0.01-0.06-0.02-0.13-0.06-0.21c-0.22-0.46-0.88-0.65-1.28-1.1
				c-0.26-0.3-0.27-0.42-0.27-0.42c-0.01,0.31,0.05,0.54,0.17,0.71c0.11,0.15,0.44,0.44,0.88,0.72
				C186.45,62.57,186.54,62.78,186.54,62.78z M186.11,61.14c0-0.72-0.79-0.81-0.97-1.52C185.05,60.62,185.75,60.64,186.11,61.14z
				 M186.48,64.01c0,0,0.1-0.04,0.33-0.18c0.21-0.12,0.38-0.26,0.48-0.45c0.11-0.21,0.09-0.38,0.07-0.5c0,0-0.05,0.19-0.31,0.43
				c-0.12,0.1-0.27,0.26-0.36,0.37C186.55,63.86,186.48,64.01,186.48,64.01z M187.17,64.44c0.07,0.43,0.13,1.44,0.14,1.77
				c0,0,0,0,0,0c0.12-0.12,0.24-0.24,0.36-0.37C187.66,65.69,187.52,64.89,187.17,64.44z M186.52,67.07
				c0.02-0.02,0.26-0.31,0.39-0.44c0.01-0.01,0.02-0.01,0.02-0.02c-0.08-0.55-0.21-1.25-0.39-1.51
				C186.51,65.36,186.51,66.33,186.52,67.07z M186.53,67.37c0,0.24,0.01,0.43,0.01,0.52c0.02-0.02,0.25-0.27,0.25-0.27
				S186.59,67.45,186.53,67.37z M186.7,68.23c0.45,0.47,1.06,1.11,1.46,1.5c0.26-0.25,0.42-0.41,0.42-0.41l-1.56-1.43
				C186.95,67.96,186.84,68.08,186.7,68.23z M188.54,70.1c0.34,0.33,0.71,0.71,1.01,1.01c0.18-0.19,0.32-0.35,0.44-0.48l-1.02-0.94
				C188.96,69.68,188.8,69.84,188.54,70.1z M188.84,65.28c-0.16-0.22-0.59-0.79-0.97-1.12c0.25,0.6,0.37,0.98,0.41,1.13l0,0
				c0.02-0.01,0.04-0.03,0.06-0.04c0.06-0.03,0.13-0.04,0.2-0.04c0.06,0,0.13,0.02,0.21,0.04
				C188.75,65.25,188.81,65.27,188.84,65.28z M188.46,59.41c-0.2,0.32-0.37,0.51-0.62,0.73c0.08-0.24,0.11-0.5,0.11-0.5
				c-0.12,0.25-0.41,0.6-0.6,0.79c-0.46,0.46-0.55,0.91-0.55,0.91s0.12-0.17,0.69-0.5C188.06,60.5,188.28,59.97,188.46,59.41z
				 M181.19,53.11c0,0.56,0.4,1.35,0.93,1.66C181.81,53.91,181.56,53.63,181.19,53.11z M192.9,42.75c0.22,0.01,0.44-0.03,0.62-0.15
				c0.18-0.11,0.21-0.18,0.27-0.25c1.34-1.95,3.84-5.08,5.71-7.54c-3.82-3.77-9.29-4.03-10.72-3.93c-0.34,0.03-0.72,0.29-0.29,0.84
				c-0.31,0.14-1.48,0.04-1.91-0.37c-0.44,0.41-1.61,0.51-1.92,0.37c0.42-0.55,0.04-0.82-0.29-0.84c-1.44-0.1-7.19,0.45-10.67,3.84
				c1.92,2.53,5.92,7.82,6,7.93c0.08,0.1,0.27,0.23,0.52,0.23c0.03,0,0.06,0,0.09,0c0.21-0.01,0.41-0.15,0.62-0.38
				c0.41-0.45,0.62-0.71,1.03-1.12c0.79-0.8,1.53-1.41,1.65-1.53c0.33-0.31,0.44-0.55,0.45-0.81c-0.02-0.29-0.25-0.4-0.39-0.58
				c-0.01,0.03-0.05,0.07-0.07,0.1c-0.13-0.1-0.28-0.55-0.28-0.55l-0.08,0.21c0,0-0.29-0.71-0.76-0.65c-0.64,0.09-1.05-0.19-1.1-0.2
				c-0.04-0.01-0.07,0.21-0.05,0.45c-0.01,0-0.02,0-0.02-0.01c-0.44-0.37-0.57-1.33,0.27-1.95c0.52-0.38,0.62-0.37,1.02-0.56
				c0.17-0.08,0.3-0.24,0.34-0.29c0.27-0.33,0.81-0.51,1.12-0.6c0.39-0.1,1.32-0.23,2.24-0.18c0.52,0.03,1.01,0.15,1.36,0.29
				c0.27,0.11,1.07,0.7,1.51,1.28c0.29,0.38,0.79,1.45,1.06,2.13c0.58,1.43,0.51,1.27,0.91,2.22c0.45,1.08,0.73,1.68,1.16,2.29
				C192.45,42.65,192.61,42.73,192.9,42.75z M199.79,34.43c0.13-0.17,0.26-0.34,0.39-0.51c-1.75-1.54-4.34-3.11-7.19-3.72
				c-1.92-0.42-3.46-0.45-4.42-0.44c-0.79,0.01-1.3,0.32-1.3,0.81c-0.49-0.09-0.63-0.71-0.69-0.83c-0.05,0.26-0.29,0.76-0.69,0.83
				c0-0.49-0.51-0.8-1.3-0.81c-0.97-0.01-2.5,0.02-4.43,0.44c-2.9,0.63-5.4,2.05-7.14,3.62c0.13,0.17,0.26,0.34,0.39,0.51
				c1.57-1.47,3.66-2.64,5.89-3.29c1.85-0.54,4.12-0.73,5.16-0.69c0.93,0.04,1.06,0.57,0.95,0.86c0.42,0.04,1.04-0.32,1.17-0.56
				c0.1,0.18,0.66,0.6,1.17,0.56c-0.11-0.29,0.02-0.82,0.95-0.86c1.04-0.05,3.32,0.15,5.16,0.69
				C196.04,31.67,198.22,32.99,199.79,34.43z M200.83,32.54c0.2,0.68,0.41,1.44,0.98,1.9c0.08,0.06,0.17,0.12,0.26,0.17l0.01,0.01
				c-0.01-1.3,0.43-2.01,0.77-2.77c0,0,0,0,0,0c0,0,0-0.01,0-0.01c0.48,0.07,1.12,0.25,2.42,0.02c-1.23-0.83-0.96-1.76-1.88-2.77
				c-0.1-0.11-0.21-0.22-0.34-0.33c-0.33-0.23-0.57-0.31-0.74-0.32c-0.23-0.01-0.36,0.11-0.42,0.18c-0.12,0.13-1.4,1.51-2.24,2.45
				C200.41,31.05,200.61,31.75,200.83,32.54z M201.67,27.99c-0.86-0.85-2.22-1.79-3.86-2.5c-4.27-1.87-9.69-1.88-11.24-1.88
				c0,0,0,0,0,0c0,0,0,0-0.01,0c-1.55,0-6.97,0.01-11.24,1.88c-1.63,0.72-3,1.66-3.86,2.5c0,0,1.93,2.17,2.43,2.75
				c0.26,0.31,0.35,0.57,0.2,1.03c2.97-1.99,6.34-2.98,12.35-3.02l0.27,0c5.91,0.06,9.38,1.05,12.32,3.03
				c-0.15-0.46-0.07-0.72,0.2-1.03C199.74,30.16,201.67,27.99,201.67,27.99z M171.26,28.62C171.26,28.62,171.26,28.62,171.26,28.62
				c-0.12-0.14-0.43-0.4-1.17,0.13c-1.32,1.15-0.9,2.19-2.26,3.1c0.49,0.09,0.88,0.12,1.21,0.12c0.22,0,0.41-0.01,0.58-0.03
				c0.25-0.03,0.45-0.07,0.63-0.1c0,0,0,0,0,0c0.34,0.77,0.78,1.46,0.77,2.77c1.59-0.84,0.94-3.57,2.42-3.54
				C172.61,30.14,171.4,28.78,171.26,28.62z M172.29,34.11c1.17,1.55,2.05,2.73,2.22,2.97c0.41,0.56,1.81,2.24,1.79,2.02
				c-0.01-0.13-0.86-1.32-1.4-2.05c-0.79-1.06-1.61-2.17-2.41-3.24C172.42,33.92,172.35,34.02,172.29,34.11z M178.07,44.67
				c0,1.14,0.23,1.97,0.62,3.36C178.73,46.56,178.42,45.07,178.07,44.67z M177.26,43.38c-0.08,0.52-0.07,1.18,0.05,1.68
				c0.09,0.34,0.25,0.66,0.38,0.96C177.75,45,177.48,43.9,177.26,43.38z M180.27,53.32c0.2-0.62,0.43-4.63-1.16-6.36
				C179.52,48.51,180.04,50.33,180.27,53.32z M175.9,75.66c1.12,0.43,4.21,0.47,5.66,0.29c1.85-0.23,3.27-0.79,4.46-1.63
				c-0.31-0.27-0.69-0.61-1.08-0.99c-0.62,0.5-1.18,0.9-1.53,1.04c-2.21,0.89-5.13,1.12-5.13,1.12s3.8-0.86,5.13-1.58
				c0.25-0.13,0.68-0.47,1.19-0.9c-0.49-0.47-0.97-0.95-1.33-1.31c-0.24,0.22-0.44,0.36-0.7,0.55c-0.49,0.35-1.21,0.61-1.77,0.85
				C178.09,74.19,176.32,75.32,175.9,75.66z M184.96,75.66c0.11,0.36,0.31,0.83,0.45,1.06c0,0,0.71-0.58,0.93-1.91
				c-0.14,0.11-0.36,0.29-0.55,0.41C185.46,75.41,185.17,75.56,184.96,75.66z M198.82,36.99c0.17-0.23,0.97-1.31,2.06-2.75
				c-0.08-0.09-0.16-0.2-0.21-0.29c-0.75,1-1.51,2.02-2.24,3.01c-0.54,0.74-1.39,1.93-1.4,2.05
				C197.01,39.23,198.41,37.55,198.82,36.99z M205.1,29.8c-0.12,0.16-0.39,0.52-0.39,0.52c0.34,0.61,0.7,1.25,1.66,1.75
				C205.98,31.29,205.56,30.53,205.1,29.8z M204.21,29.27c0.03,0.05,0.15,0.26,0.18,0.31c2.21-2.94,4.24-5.63,4.24-5.63
				s-0.86,0.61-2.09,1.18c0.12,0.66-0.29,1.5-0.46,1.7C206.01,26.91,205.28,27.86,204.21,29.27z M168.94,28.42
				c0.11,0.14,0.21,0.29,0.33,0.44c1.65-2.12,3.85-3.62,6.51-4.62c-0.21-0.31-0.51-1.01,0.27-1.77c0,0,0,0,0,0
				c1.15,0.14,1.44,0.84,1.51,1.2c2.07-0.56,4.52-0.9,7.27-1c0.1-1.89,1.44-2.35,1.44-2.35s0.02-0.36,0.31-0.48c0,0,0.01,0,0.01,0
				c0.29,0.12,0.31,0.48,0.31,0.48s1.34,0.46,1.44,2.35c2.74,0.1,5.19,0.44,7.27,1c0.07-0.36,0.36-1.05,1.51-1.2c0,0,0,0,0,0
				c0.78,0.76,0.48,1.45,0.27,1.77c2.66,1,4.93,2.57,6.58,4.68c0.12-0.16,0.23-0.31,0.34-0.45c-1.54-1.91-3.7-3.45-6.01-4.4
				c0.25-0.75,0-1.38-0.44-1.83c0-0.3-0.18-0.57-0.37-0.67c0,0,0,0,0,0c-0.22-0.03-0.55,0.07-0.78,0.31
				c-0.67,0.1-1.32,0.44-1.68,1.15c-1.71-0.41-3.64-0.69-6.11-0.82c-0.06-1.13-0.72-1.84-1.53-2.24c-0.17-0.4-0.51-0.62-0.8-0.69
				c-0.29,0.07-0.64,0.29-0.8,0.69c-0.81,0.4-1.47,1.1-1.53,2.24c-2.47,0.13-4.4,0.4-6.11,0.82c-0.36-0.71-1.01-1.05-1.68-1.15
				c-0.22-0.23-0.55-0.34-0.78-0.31h0c-0.19,0.1-0.37,0.37-0.37,0.67c-0.44,0.45-0.69,1.08-0.44,1.83
				C172.54,25.03,170.48,26.5,168.94,28.42z M168.81,29.48c0.07-0.12,0.13-0.22,0.19-0.29c-1-1.32-1.68-2.2-1.75-2.28
				c-0.16-0.2-0.58-1.03-0.46-1.7c-1.24-0.57-2.09-1.18-2.09-1.18S166.65,26.61,168.81,29.48z M166.74,32.1
				c0.19-0.11,0.82-0.51,1.22-1.06c0.2-0.28,0.35-0.55,0.47-0.8c-0.02-0.02-0.42-0.54-0.42-0.54
				C167.55,30.48,167.13,31.28,166.74,32.1z M163.27,48.23c0.4,0.33,2.39,2.02,5.54,3.81c0.07-1.88,0.13-8.65,4.17-15.87
				c-0.46-0.61-0.67-0.88-1.11-1.47c-0.33,0.35-0.76,0.59-1.38,0.78c0.03-1.43-0.29-2.22-0.68-3.05c-0.57,0.02-1.55,0.04-3.09-0.29
				C164.68,36.5,163.65,41.55,163.27,48.23z M181.72,78.91l0.03-0.06c0.11-0.31,0.64-1.56,0.9-2.2c-0.04-0.11-0.07-0.22-0.1-0.33
				c-0.36,0.06-0.72,0.11-1.09,0.15c-0.24,0.02-3.84,0.58-6.45-0.65c0.32-0.22,0.91-0.71,1.72-1.23c0.01-0.05,0.02-0.11,0.03-0.16
				c-0.63,0.35-1.23,0.41-1.69,0.39c-0.04-0.41,0.07-0.95,0.28-1.55c-0.59,0.13-1.05-0.01-1.05-0.01s0.39-1.27,1.25-2.79
				c0.79-1.42,1.91-2.85,2.86-4.04c0.1-0.47,0.46-0.86,0.5-0.9c0.02-0.03,0.14-0.15,0.16-0.17c-0.11-0.09-0.21-0.18-0.31-0.25
				c-0.11,0.11-0.19,0.17-0.26,0.2c-0.3,0.14-0.48,0.19-0.64,0.19c-0.33,0.01-0.52-0.05-0.64-0.22l-0.02-0.04
				c-0.25-0.07-0.41-0.21-0.47-0.41c-0.01-0.04-0.02-0.08-0.02-0.12c-0.18,0.06-0.31,0.07-0.48-0.07c-0.23-0.2,0.09-1.21,1.19-2.25
				c0.77-0.73,1.5-1.15,2.17-1.45c0.52-0.23,0.82,0.22,0.57,0.52c-0.3,0.37-0.54,1.01-0.23,1.68c0.32-0.11,0.44-0.16,0.49-0.18
				c0.12-0.05,0.27-0.09,0.43-0.3c0.02-0.02,0.03-0.06,0.05-0.11l-0.46,0.05c0.23-0.58-0.13-1.99,0.11-2.9
				c-0.06,0.04-0.22,0.15-0.31,0.18c-0.17-0.83-0.14-2.15-0.08-2.8c-0.01-0.17-0.25-0.46-0.57-0.79c-0.26,0.66-0.71,1.46-1.46,2.39
				c-0.58,0.72-1.63,1.37-2.17,3.67c0,0.01,0,0.01-0.01,0.02c-0.09,0.37-0.22,0.71-0.38,1.05c-0.35,0.73-0.33,1.15-0.33,1.15l0-0.01
				c0.04,1.45-0.03,4.46-0.38,6.14c-0.31,1.47-0.84,2.22-0.84,2.22l-0.08-0.07c-0.13,0.5-0.37,1.38-0.95,2.07
				c0,0-0.49-0.98-1.39-8.48c-0.98-8.25-1.48-16.86-1.48-16.86l0,0c-0.09-1.52,0.25-3.3,0.69-4.61c0.8-2.08,2.19-4.09,3.04-4.92
				c0.53-0.52,1.12-0.64,1.7-0.53c-0.16-0.21-0.34-0.45-0.34-0.45c-0.57-0.75-1.22-1.58-1.78-2.32c-4.03,7.1-3.93,15.57-3.93,15.64
				l0.01,0.9l-0.71-0.38c-3.17-1.8-4.55-2.89-5.58-3.74c-0.04,0.86-0.13,3.78-0.13,3.78c0,0.05,0,0.66,0,1.77
				c0,3.38,0.61,11.7,3.37,17.41c0.38,0.71,1.42,2.62,3.28,4.37c1.41,1.33,3.06,2.28,4.89,2.87c0.11,0.03,0.32,0.11,0.42,0.14
				C177.17,80.17,179.46,80.04,181.72,78.91z M181.56,81.26c0.42-0.35,1.07-0.61,1.89-0.27c0.05-1,0.21-2.48,0.43-3.8
				c-0.33,0.32-0.6,0.47-0.63,0.47c-0.05,0-0.11-0.06-0.17-0.14C182.46,79.07,181.57,81.24,181.56,81.26z M189.58,81.99
				c0.05-1.05-0.38-3.87-0.64-5.47c-0.03-0.04-0.06-0.09-0.09-0.13c-0.05-0.07-0.1-0.14-0.15-0.22c-0.09,0.32-0.21,0.66-0.36,1
				c-0.18,0.39-0.46,0.81-0.52,0.8c-0.05-0.01-0.8-0.54-1.29-1.59c-0.48,1.03-1.23,1.56-1.28,1.56c-0.05,0.01-0.34-0.41-0.52-0.8
				c-0.08-0.18-0.15-0.36-0.21-0.54c-0.25,1.69-0.62,4.39-0.57,5.39c-1.57-1.03-2.52,0-2.19,0.72c0.03,0.06,0.07,0.12,0.11,0.17
				c0.19,0.25,0.43,0.38,0.78,0.41c0.5,0.03,1.17,0.09,1.93,0.44c0.69,0.32,1.44,0.86,2.2,1.81c0.76-0.95,1.5-1.48,2.19-1.81
				c0.76-0.35,1.42-0.41,1.93-0.44c0.34-0.03,0.58-0.18,0.78-0.41c0.04-0.05,0.07-0.11,0.11-0.17
				C192.1,81.99,191.15,80.96,189.58,81.99z M191.98,81.26c-0.01-0.02-0.96-2.45-1.53-3.93c-0.14,0.19-0.28,0.34-0.31,0.34
				c-0.02,0-0.24-0.12-0.52-0.38c0.22,1.16,0.41,2.61,0.47,3.7C190.9,80.65,191.56,80.91,191.98,81.26z M210.04,53.02
				c-0.02-1.14-0.08-3-0.12-3.85c-1.07,0.87-2.08,1.74-5.42,3.66l-0.87,0.47l0.01-0.62c0-0.07,0.24-8.53-3.87-15.82
				c-0.26,0.35-1.12,1.45-2.01,2.58c0.52-0.06,1.06,0.08,1.54,0.55c0.85,0.83,2.24,2.84,3.04,4.92c0.44,1.3,0.78,3.09,0.69,4.61l0,0
				c0,0-0.5,8.61-1.48,16.86c-0.89,7.5-1.39,8.48-1.39,8.48c-0.57-0.69-0.81-1.57-0.95-2.07l-0.08,0.07c0,0-0.52-0.75-0.84-2.22
				c-0.36-1.68-0.42-4.69-0.38-6.14l0,0.01c0,0,0.02-0.42-0.33-1.15c-0.17-0.34-0.29-0.68-0.38-1.05c0-0.01,0-0.01-0.01-0.02
				c-0.54-2.3-1.59-2.95-2.17-3.67c-0.7-0.86-1.21-1.76-1.52-2.5c-0.02,0.02-0.03,0.03-0.06,0.05c-0.38,0.37-0.67,0.74-0.68,0.95
				c0.13,1.35,0.25,2.3,0.05,2.99c-0.08-0.04-0.21-0.18-0.28-0.23c0.09,0.89-0.33,1.92-0.06,2.74l-0.53-0.07
				c0.02,0.06,0.04,0.11,0.06,0.13c0.07,0.1,0.14,0.16,0.27,0.23c0.02,0.01,0.13,0.06,0.17,0.08c0.05,0.02,0.18,0.07,0.54,0.19
				c0.3-0.67,0.07-1.31-0.23-1.68c-0.25-0.3,0.05-0.75,0.57-0.52c0.67,0.29,1.4,0.72,2.17,1.45c1.1,1.04,1.42,2.05,1.19,2.25
				c-0.18,0.15-0.32,0.12-0.54,0.04c0,0.04-0.01,0.08-0.02,0.12c-0.06,0.2-0.23,0.34-0.47,0.41l-0.02,0.04
				c-0.12,0.16-0.31,0.22-0.64,0.22c-0.28-0.01-0.6-0.17-0.64-0.19c-0.06-0.03-0.13-0.07-0.22-0.16c-0.06,0.05-0.13,0.1-0.2,0.16
				c0.87,1.17,2.54,3.11,3.73,5.23c0.85,1.52,1.25,2.79,1.25,2.79s-0.46,0.15-1.05,0.01c0.21,0.61,0.32,1.14,0.28,1.55
				c-0.46,0.02-1.06-0.04-1.69-0.39c0.02,0.1,0.04,0.2,0.05,0.3c0.54,0.38,1.13,0.83,1.39,1.01c-2.61,1.23-6.4,0.66-6.47,0.65
				c-0.18-0.02-0.34-0.05-0.49-0.07c-0.03,0.07-0.06,0.15-0.09,0.24c0.26,0.61,0.85,2.02,0.98,2.3c1.66,0.76,3.2,1.26,5.58,0.86
				c0,0,0.4-0.04,1.42-0.38c1.04-0.35,2.99-1.49,4.49-2.9c1.87-1.75,3-3.59,3.37-4.31c2.89-5.64,3.37-14.02,3.37-17.41
				C210.04,53.67,210.04,53.08,210.04,53.02z"/>
		</g>
		<g>
			<g>
				<path d="M18.73,58.61h2.89c1.2,0,2.05,0.43,2.52,1.43c0.38,0.79,0.42,2.67,0.42,2.96c0,2-0.18,3.16-0.57,3.78
					c-0.51,0.81-1.46,1.21-3.09,1.21h-2.16V58.61z M19.93,66.95h1.13c1.66,0,2.28-0.62,2.28-2.81v-1.9c0-1.9-0.59-2.6-1.83-2.6
					h-1.57V66.95z"/>
				<path d="M26.65,67.99v-9.39h4.84v1.04h-3.64v3.02h3.38v1.04h-3.38v3.25h3.72v1.04H26.65z"/>
				<path d="M33.3,67.99v-9.39h2.78c1.26,0,2.61,0.47,2.61,2.68c0,2.13-1.66,2.57-2.63,2.57H34.5v4.13H33.3z M34.5,62.82h1.31
					c0.49,0,1.66-0.13,1.66-1.6c0-1.43-1.07-1.57-1.33-1.57H34.5V62.82z"/>
				<path d="M41.85,58.61h1.52l3.05,9.39h-1.34l-0.68-2.24h-3.63l-0.7,2.24h-1.21L41.85,58.61z M42.58,59.71h-0.03l-1.47,5h3
					L42.58,59.71z"/>
				<path d="M48.84,63.68v4.32h-1.2v-9.39h3.24c1.66,0,2.25,1.17,2.25,2.34c0,1.1-0.61,1.95-1.72,2.14v0.03
					c1.08,0.17,1.47,0.53,1.53,2.42c0.01,0.4,0.14,1.87,0.33,2.46h-1.25c-0.34-0.65-0.26-1.87-0.36-3.12
					c-0.09-1.14-1.01-1.2-1.42-1.2H48.84z M48.84,62.64h1.79c0.86,0,1.27-0.74,1.27-1.56c0-0.68-0.34-1.43-1.26-1.43h-1.81V62.64z"
					/>
				<path d="M60.17,58.61v1.04H57.7v8.35h-1.2v-8.35h-2.47v-1.04H60.17z"/>
				<path d="M62.53,67.99h-1.12v-9.39h1.94l2.37,7.88h0.03l2.39-7.88h1.98v9.39h-1.2v-8.35h-0.03l-2.63,8.35h-1.13l-2.57-8.35h-0.03
					V67.99z"/>
				<path d="M72.23,67.99v-9.39h4.84v1.04h-3.64v3.02h3.38v1.04h-3.38v3.25h3.72v1.04H72.23z"/>
				<path d="M85.23,58.61v9.39h-1.64l-3.71-8.14h-0.03v8.14h-1.07v-9.39h1.69l3.65,8.03h0.03v-8.03H85.23z"/>
				<path d="M92.67,58.61v1.04H90.2v8.35H89v-8.35h-2.47v-1.04H92.67z"/>
				<path d="M96.75,64.56v-3.08c0-1.87,0.96-3.07,2.95-3.07c1.99,0,2.95,1.2,2.95,3.07v3.08c0,2.6-0.96,3.63-2.95,3.63
					C97.71,68.19,96.75,67.16,96.75,64.56z M101.43,64.61v-3.17c0-1.96-1.35-2.03-1.73-2.03s-1.73,0.07-1.73,2.03v3.17
					c0,2.05,0.6,2.57,1.73,2.57S101.43,66.67,101.43,64.61z"/>
				<path d="M104.64,67.99v-9.39h4.65v1.04h-3.46v3.02h3.28v1.04h-3.28v4.29H104.64z"/>
				<path d="M113.46,67.99v-9.39h1.2v4.06h3.29v-4.06h1.2v9.39h-1.2V63.7h-3.29v4.29H113.46z"/>
				<path d="M121.33,67.99v-9.39h4.84v1.04h-3.64v3.02h3.38v1.04h-3.38v3.25h3.72v1.04H121.33z"/>
				<path d="M129.95,58.61h1.52l3.05,9.39h-1.34l-0.68-2.24h-3.63l-0.7,2.24h-1.21L129.95,58.61z M130.68,59.71h-0.03l-1.47,5h3
					L130.68,59.71z"/>
				<path d="M135.77,67.99v-9.39h1.2v8.35h3.45v1.04H135.77z"/>
				<path d="M146.03,58.61v1.04h-2.47v8.35h-1.2v-8.35h-2.47v-1.04H146.03z"/>
				<path d="M147.34,67.99v-9.39h1.2v4.06h3.29v-4.06h1.2v9.39h-1.2V63.7h-3.29v4.29H147.34z"/>
			</g>
			<g>
				<g>
					<path d="M23.3,39.97c0.21,0,0.38-0.07,0.53-0.22s0.22-0.32,0.22-0.53c0-0.21-0.07-0.38-0.22-0.53s-0.32-0.22-0.53-0.22
						c-0.21,0-0.38,0.07-0.53,0.22s-0.22,0.32-0.22,0.53c0,0.21,0.07,0.38,0.22,0.53S23.1,39.97,23.3,39.97z"/>
					<path d="M20.82,39.97c0.21,0,0.38-0.07,0.53-0.22c0.15-0.15,0.22-0.32,0.22-0.53c0-0.21-0.07-0.38-0.22-0.53
						c-0.15-0.15-0.32-0.22-0.53-0.22c-0.21,0-0.38,0.07-0.53,0.22s-0.22,0.32-0.22,0.53c0,0.21,0.07,0.38,0.22,0.53
						S20.61,39.97,20.82,39.97z"/>
					<path d="M89.43,37.39v10.47h-0.99h-3.96h0h-3.96h-3.96c-0.01,0-0.01,0-0.02,0v0h-0.99v-6.36l-0.62,0.02
						c-1.06,0.04-1.99,0.19-2.8,0.43s-1.53,0.54-2.15,0.89c-0.62,0.35-1.14,0.75-1.57,1.18s-0.79,0.87-1.07,1.31v-2.18H66.2v4.71
						h-1.32h-3.96h-3.96H53h-3.96h-0.37c-0.16,0-0.3-0.02-0.41-0.06c-0.11-0.04-0.21-0.09-0.3-0.16c-0.07-0.04-0.14-0.11-0.2-0.21
						c-0.06-0.09-0.12-0.25-0.18-0.46c-0.06-0.21-0.11-0.49-0.15-0.84c-0.04-0.34-0.09-0.79-0.13-1.35
						c-0.16-2.26-1.21-3.39-3.15-3.39c-0.47,0-0.9,0.08-1.3,0.23c-0.4,0.15-0.73,0.33-1.01,0.54l0.7,0.9
						c0.54-0.35,1.07-0.53,1.58-0.53c0.22,0,0.44,0.02,0.66,0.07s0.42,0.14,0.62,0.3c0.19,0.15,0.35,0.38,0.48,0.69
						c0.13,0.31,0.22,0.73,0.26,1.28c0.04,0.75,0.11,1.36,0.19,1.84s0.19,0.86,0.34,1.16h-5.76h0h-3.96H33h-3.96h-3.96h-0.73
						c-0.18,0-0.26-0.1-0.26-0.31v-6.49c-0.37,0.1-0.85,0.27-1.45,0.52c-0.6,0.24-1.19,0.57-1.77,0.98
						c-0.58,0.41-1.08,0.91-1.51,1.51c-0.43,0.59-0.64,1.29-0.64,2.1c0,0.31,0.04,0.63,0.13,0.96c0.09,0.33,0.26,0.64,0.51,0.92
						c0.25,0.29,0.61,0.53,1.07,0.74c0.46,0.21,1.07,0.33,1.81,0.37l0.09-1.14c-0.85-0.07-1.47-0.24-1.87-0.49
						c-0.4-0.26-0.59-0.71-0.59-1.35c0-0.47,0.11-0.89,0.33-1.25c0.22-0.37,0.49-0.69,0.8-0.97c0.31-0.28,0.64-0.52,1-0.71
						c0.36-0.2,0.67-0.36,0.93-0.5l0.02,4.82c0,0.47,0.12,0.83,0.34,1.08c0.23,0.25,0.53,0.37,0.91,0.37h0.88h3.96H33h3.96h3.96h0
						h8.12H53h3.96h3.96h3.96h11.66v0c0.01,0,0.01,0,0.02,0h3.96h3.96h0h3.96h2.13V37.39H89.43z M74.41,47.87h-7
						c0.09-0.31,0.25-0.73,0.5-1.27c0.24-0.54,0.63-1.07,1.16-1.61c0.53-0.54,1.22-1.02,2.08-1.44c0.86-0.42,1.95-0.7,3.26-0.81
						V47.87z"/>
				</g>
				<path d="M92.34,37.46h1.14v11.55h-1.14V37.46z"/>
				<path d="M103.86,49.01h-1.21c-0.38,0-0.81-0.05-1.29-0.15s-0.92-0.27-1.34-0.51c-0.42-0.23-0.77-0.55-1.06-0.93
					c-0.29-0.39-0.43-0.87-0.43-1.44c0-0.53,0.1-1.01,0.31-1.44c0.21-0.43,0.47-0.82,0.79-1.17c0.32-0.34,0.68-0.65,1.09-0.91
					c0.4-0.26,0.8-0.49,1.2-0.67c0.4-0.18,0.77-0.33,1.11-0.44c0.34-0.11,0.62-0.19,0.83-0.23V49.01z M102.72,47.82v-5.1
					c-0.26,0.12-0.57,0.27-0.92,0.46c-0.35,0.19-0.68,0.42-0.99,0.69c-0.31,0.27-0.57,0.58-0.79,0.93
					c-0.22,0.35-0.33,0.75-0.33,1.19c0,0.34,0.09,0.62,0.29,0.86c0.19,0.23,0.43,0.42,0.73,0.57c0.29,0.15,0.61,0.25,0.95,0.31
					c0.34,0.06,0.65,0.09,0.95,0.09H102.72z M101.53,39.22c0,0.21-0.07,0.38-0.22,0.53c-0.15,0.15-0.32,0.22-0.53,0.22
					s-0.38-0.07-0.53-0.22s-0.22-0.32-0.22-0.53c0-0.21,0.07-0.38,0.22-0.53s0.32-0.22,0.53-0.22s0.38,0.07,0.53,0.22
					C101.46,38.84,101.53,39.01,101.53,39.22z M104.02,39.22c0,0.21-0.07,0.38-0.22,0.53s-0.32,0.22-0.53,0.22
					c-0.21,0-0.38-0.07-0.53-0.22s-0.22-0.32-0.22-0.53c0-0.21,0.07-0.38,0.22-0.53s0.32-0.22,0.53-0.22c0.21,0,0.38,0.07,0.53,0.22
					S104.02,39.01,104.02,39.22z"/>
				<g>
					<path d="M141.28,40.42c-0.22-0.13-0.33-0.33-0.33-0.61c0-0.19,0.06-0.33,0.18-0.4s0.27-0.11,0.46-0.11
						c0.29,0,0.61,0.07,0.95,0.22l0.22-0.56c-0.4-0.16-0.79-0.25-1.19-0.25c-0.29,0-0.57,0.08-0.81,0.25s-0.37,0.45-0.37,0.85
						c0,0.18,0.03,0.35,0.09,0.51s0.12,0.26,0.18,0.29h-0.95v0.57h2.95v-0.57h-0.55C141.77,40.61,141.5,40.54,141.28,40.42z"/>
					<path d="M141.14,47.87h-2.2h-3.96h-3.96h0h-3.25h-3.96h-3.96h-3.96h-3.96h-3.96h0h-0.99v-5.63h-1.14v7.28
						c0,0.4-0.01,0.78-0.04,1.14c-0.03,0.37-0.11,0.69-0.23,0.98c-0.12,0.29-0.31,0.52-0.56,0.69c-0.25,0.18-0.59,0.26-1.01,0.26
						v1.14c0.67,0,1.21-0.13,1.61-0.38c0.4-0.26,0.7-0.59,0.9-1c0.21-0.41,0.34-0.87,0.4-1.36c0.06-0.5,0.09-0.99,0.09-1.47v-0.51
						h0.99h0h3.96h3.96h3.96h3.96h3.96h3.25h0h3.96h3.96h3.34v-6.78h-1.14V47.87z"/>
				</g>
				<path d="M144.07,37.46h1.14v11.55h-1.14V37.46z"/>
				<path d="M146.71,42.45c0.29-0.25,0.67-0.48,1.12-0.7c0.45-0.22,1-0.33,1.63-0.33c0.59,0,1.1,0.12,1.54,0.36
					c0.44,0.24,0.8,0.56,1.09,0.96c0.29,0.4,0.5,0.85,0.65,1.35c0.14,0.51,0.22,1.02,0.22,1.55c0,0.4-0.03,0.78-0.1,1.14
					c-0.06,0.37-0.14,0.7-0.24,0.99c-0.09,0.29-0.19,0.55-0.29,0.76c-0.1,0.21-0.18,0.37-0.24,0.47h-5.45v-1.14h4.73
					c0.09-0.22,0.18-0.51,0.29-0.88c0.1-0.37,0.15-0.81,0.15-1.34c0-0.41-0.05-0.8-0.17-1.18c-0.11-0.37-0.26-0.7-0.46-0.98
					s-0.45-0.5-0.75-0.67c-0.3-0.17-0.63-0.25-1-0.25c-0.31,0-0.62,0.05-0.95,0.17c-0.32,0.11-0.69,0.31-1.1,0.6L146.71,42.45z"/>
			</g>
		</g>
	</g>
</g>
</svg>
