<?xml version="1.0" standalone="no"?>
<!DOCTYPE svg PUBLIC "-//W3C//DTD SVG 1.1//EN" "http://www.w3.org/Graphics/SVG/1.1/DTD/svg11.dtd" >
<svg xmlns="http://www.w3.org/2000/svg" xmlns:xlink="http://www.w3.org/1999/xlink" version="1.1">
<metadata>
Created by FontForge 20200427 at Mon Dec 22 23:32:21 2014
 By www
(URW)++,Copyright 2006 by (URW)++ Design &#38; Development
</metadata>
<defs>
<font id="CorporateSW07-Bold" horiz-adv-x="500" >
  <font-face 
    font-family="CorporateSW07-Bold"
    font-weight="700"
    font-stretch="normal"
    units-per-em="1000"
    panose-1="2 2 8 0 0 0 0 0 0 0"
    ascent="800"
    descent="-200"
    x-height="475"
    cap-height="667"
    bbox="-169 -296 1014 1120"
    underline-thickness="50"
    underline-position="-125"
    unicode-range="U+0020-FB04"
  />
<missing-glyph horiz-adv-x="250" 
 />
    <glyph glyph-name="uniFB00" unicode="ff" horiz-adv-x="623" 
d="M374 505q0 48 6 76.5t20 49.5q38 56 121 56q29 0 53.5 -5t55.5 -17v-99q-30 9 -46 12t-35 3q-16 0 -26 -4t-16 -14.5t-8 -29t-2 -46.5v-12h113v-96h-113v-379h-123v379h-172v-379h-123v379h-63v96h63v30q0 48 6 76.5t20 49.5q38 56 121 56q29 0 53 -5t56 -17v-99
q-16 4 -27 7t-19.5 5t-16.5 2.5t-18 0.5q-16 0 -26 -4t-16 -13.5t-8 -27t-2 -44.5v-17h172v30z" />
    <glyph glyph-name="uniFB01" unicode="fi" horiz-adv-x="564" 
d="M315 475v-96h-113v-379h-123v379h-63v96h63v30q0 48 6 76.5t20 49.5q38 56 121 56q29 0 53.5 -5t55.5 -17v-99q-30 9 -46 12t-35 3q-16 0 -26 -4t-16 -14.5t-8 -29t-2 -46.5v-12h113zM496 475v-475h-123v475h123zM437 680q32 0 50.5 -19.5t18.5 -51.5q0 -33 -19.5 -52.5
t-51.5 -19.5t-52 19t-20 51q0 33 20.5 53t53.5 20z" />
    <glyph glyph-name="uniFB02" unicode="fl" horiz-adv-x="564" 
d="M315 475v-96h-113v-379h-123v379h-63v96h63v30q0 48 6 76.5t20 49.5q38 56 121 56q29 0 53.5 -5t55.5 -17v-99q-30 9 -46 12t-35 3q-16 0 -26 -4t-16 -14.5t-8 -29t-2 -46.5v-12h113zM496 671v-671h-123v671h123z" />
    <glyph glyph-name="uniFB03" unicode="ffi" horiz-adv-x="859" 
d="M374 505q0 48 6 76.5t20 49.5q38 56 121 56q29 0 53.5 -5t55.5 -17v-99q-30 9 -46 12t-35 3q-16 0 -26 -4t-16 -14.5t-8 -29t-2 -46.5v-12h113v-96h-113v-379h-123v379h-172v-379h-123v379h-63v96h63v30q0 48 6 76.5t20 49.5q38 56 121 56q29 0 53 -5t56 -17v-99
q-16 4 -27 7t-19.5 5t-16.5 2.5t-18 0.5q-16 0 -26 -4t-16 -13.5t-8 -27t-2 -44.5v-17h172v30zM791 475v-475h-123v475h123zM731 680q32 0 51 -19.5t19 -51.5t-20 -52t-52 -20t-51.5 19t-19.5 51q0 33 20 53t53 20z" />
    <glyph glyph-name="uniFB04" unicode="ffl" horiz-adv-x="859" 
d="M374 505q0 48 6 76.5t20 49.5q38 56 121 56q29 0 53.5 -5t55.5 -17v-99q-30 9 -46 12t-35 3q-16 0 -26 -4t-16 -14.5t-8 -29t-2 -46.5v-12h113v-96h-113v-379h-123v379h-172v-379h-123v379h-63v96h63v30q0 48 6 76.5t20 49.5q38 56 121 56q29 0 53 -5t56 -17v-99
q-16 4 -27 7t-19.5 5t-16.5 2.5t-18 0.5q-16 0 -26 -4t-16 -13.5t-8 -27t-2 -44.5v-17h172v30zM791 671v-671h-123v671h123z" />
    <glyph glyph-name=".notdef" horiz-adv-x="250" 
 />
    <glyph glyph-name=".null" horiz-adv-x="0" 
 />
    <glyph glyph-name="nonmarkingreturn" horiz-adv-x="333" 
 />
    <glyph glyph-name="space" unicode=" " horiz-adv-x="250" 
 />
    <glyph glyph-name="exclam" unicode="!" horiz-adv-x="252" 
d="M192 650l-14 -429h-106l-12 429h132zM127 146q30 0 52.5 -23t22.5 -54q0 -32 -22 -54t-54 -22t-54.5 22t-22.5 53q0 32 23 55t55 23z" />
    <glyph glyph-name="quotedbl" unicode="&#x22;" 
d="M130 399l-23 268h120l-23 -268h-74zM295 399l-23 268h120l-23 -268h-74z" />
    <glyph glyph-name="numbersign" unicode="#" horiz-adv-x="600" 
d="M553 199h-118l-31 -199h-97l32 199h-122l-31 -199h-97l31 199h-114l13 83h115l18 116h-114l13 83h114l30 186h96l-29 -186h121l29 186h98l-30 -186h117l-13 -83h-117l-18 -116h117zM249 398l-19 -116h121l19 116h-121z" />
    <glyph glyph-name="dollar" unicode="$" horiz-adv-x="570" 
d="M316 400q26 -8 45 -14.5t33 -12t25 -11t22 -11.5q95 -54 95 -160q0 -43 -15.5 -78.5t-44 -62t-69.5 -42.5t-91 -20v-89h-61v89q-47 5 -81.5 17t-60.5 33q-38 29 -58 73.5t-20 97.5v13h120q2 -57 25.5 -86.5t74.5 -40.5v195q-28 9 -47.5 16t-34 12.5t-24.5 10.5t-19 10
q-79 48 -79 147q0 83 53.5 133t150.5 60v75h61v-77q45 -5 82 -22t62.5 -44t39 -61.5t12.5 -74.5h-118q-4 39 -23 61.5t-55 32.5v-169zM255 570q-82 -16 -82 -74q0 -29 17.5 -45.5t64.5 -30.5v150zM316 93q45 5 70 27.5t25 58.5q0 21 -10 38.5t-27 28.5q-9 5 -20.5 10
t-37.5 14v-177z" />
    <glyph glyph-name="percent" unicode="%" horiz-adv-x="713" 
d="M598 667l-387 -667h-98l387 667h98zM539 317q30 0 56 -12.5t44.5 -34t29.5 -51t11 -63.5t-11 -63.5t-30 -51t-45 -34t-56 -12.5q-29 0 -54.5 12.5t-44.5 34t-29.5 51t-10.5 63.5t11 63.5t29.5 51t44 34t55.5 12.5zM540 249q-29 0 -46 -24.5t-17 -68.5q0 -43 16.5 -68
t45.5 -25t46 25.5t17 67.5t-17 67.5t-45 25.5zM173 672q29 0 55 -12.5t45 -34.5t30 -51.5t11 -62.5q0 -34 -11 -63.5t-30 -51t-45 -34t-56 -12.5q-29 0 -54.5 12.5t-44.5 34t-30 51t-11 63.5t11 63t30 51t44.5 34.5t55.5 12.5zM174 604q-29 0 -46.5 -25.5t-17.5 -67.5
t17 -67.5t46 -25.5q28 0 45.5 25.5t17.5 67.5t-17.5 67.5t-44.5 25.5z" />
    <glyph glyph-name="ampersand" unicode="&#x26;" horiz-adv-x="580" 
d="M524 333v-35q0 -62 -12 -104t-41 -80l86 -114h-127l-28 44q-33 -30 -68.5 -42.5t-87.5 -12.5q-49 0 -89 14t-69 39.5t-45 61t-16 78.5q0 42 16 76.5t54 70.5l20 18t30 28q-21 27 -34.5 46.5t-21 35t-10 29t-2.5 30.5q0 30 12 56t34 44.5t52 29t65 10.5q34 0 62.5 -10.5
t49 -29t32 -44.5t11.5 -57q0 -22 -5 -41.5t-16.5 -38t-30 -38.5t-46.5 -43l110 -150q6 11 9.5 20.5t6 19.5t3 22.5t0.5 30.5v19t-1 17h97zM236 426q61 51 61 92q0 20 -15.5 34t-37.5 14q-23 0 -38.5 -14.5t-15.5 -35.5q0 -9 2 -18t7 -19t14 -22.5t23 -30.5zM214 287
q-42 -36 -58.5 -60.5t-16.5 -52.5q0 -40 29 -63t80 -23q58 0 92 33z" />
    <glyph glyph-name="quotesingle" unicode="'" horiz-adv-x="250" 
d="M88 399l-23 268h120l-23 -268h-74z" />
    <glyph glyph-name="parenleft" unicode="(" horiz-adv-x="306" 
d="M273 672q-51 -77 -78 -187t-27 -244q0 -139 26.5 -250.5t78.5 -190.5h-93q-60 83 -90.5 193t-30.5 243q0 131 30.5 242t90.5 194h93z" />
    <glyph glyph-name="parenright" unicode=")" horiz-adv-x="306" 
d="M32 -200q52 79 78.5 188t26.5 243q0 139 -27 251t-78 190h93q60 -82 90.5 -192.5t30.5 -242.5q0 -131 -30.5 -241.5t-90.5 -195.5h-93z" />
    <glyph glyph-name="asterisk" unicode="*" 
d="M223 650h54v-118l113 36l16 -51l-112 -37l69 -96l-43 -32l-70 96l-69 -96l-44 32l69 96l-112 37l16 51l113 -36v118z" />
    <glyph glyph-name="plus" unicode="+" horiz-adv-x="570" 
d="M523 380v-94h-189v-196h-97v196h-189v94h189v196h97v-196h189z" />
    <glyph glyph-name="comma" unicode="," horiz-adv-x="251" 
d="M23 -227q19 26 35 55.5t27.5 60t18.5 59.5t7 55q-73 9 -73 68q0 32 22.5 53.5t55.5 21.5q38 0 60 -28.5t22 -78.5q0 -29 -6 -58.5t-19.5 -61t-34.5 -67.5t-51 -79h-64z" />
    <glyph glyph-name="hyphen" unicode="-" horiz-adv-x="261" 
d="M261 297v-89h-261v89h261z" />
    <glyph glyph-name="period" unicode="." horiz-adv-x="251" 
d="M127 146q30 0 52.5 -23t22.5 -54q0 -32 -22 -54t-54 -22t-54.5 22t-22.5 53q0 32 23 55t55 23z" />
    <glyph glyph-name="slash" unicode="/" horiz-adv-x="557" 
d="M443 667h93l-422 -861h-93z" />
    <glyph glyph-name="zero" unicode="0" horiz-adv-x="570" 
d="M285 666q56 0 100 -23t75 -66.5t47 -106.5t16 -142t-16 -142t-47 -106.5t-75 -66.5t-99 -23q-57 0 -101 23t-74.5 67t-46.5 108t-16 145q0 77 16.5 139t47 105t74.5 66t99 23zM285 563q-45 0 -70 -39q-20 -32 -31 -82.5t-11 -110.5q0 -65 10.5 -115t31.5 -84
q25 -39 71 -39q45 0 70 39q20 33 31 83t11 113q0 62 -11 113t-31 83q-25 39 -71 39z" />
    <glyph glyph-name="one" unicode="1" horiz-adv-x="570" 
d="M165 535q67 2 104.5 30t49.5 88h85v-653h-125v467h-114v68z" />
    <glyph glyph-name="two" unicode="2" horiz-adv-x="570" 
d="M85 467q0 46 14 82.5t41 62.5t65 40t86 14q45 0 82.5 -12.5t63.5 -35.5t40.5 -55.5t14.5 -71.5q0 -23 -4.5 -43t-16 -43t-31.5 -50.5t-50 -64.5q-17 -21 -36 -43.5t-39.5 -46t-41 -45.5t-38.5 -41h261v-114h-422v100q92 106 142 164t60 69q49 59 69 94t20 61
q0 30 -22.5 49.5t-57.5 19.5q-41 0 -66 -23.5t-30 -66.5h-104z" />
    <glyph glyph-name="three" unicode="3" horiz-adv-x="570" 
d="M83 477q3 90 58.5 139.5t153.5 49.5q89 0 141.5 -47t52.5 -127q0 -54 -25.5 -89.5t-80.5 -56.5q115 -32 115 -153q0 -45 -16 -82.5t-45 -64.5t-70 -41.5t-91 -14.5q-107 0 -166 54t-59 151h112q1 -47 30 -72.5t80 -25.5q48 0 75 25.5t27 70.5q0 35 -20.5 58t-56.5 30
q-38 6 -103 6v101q8 -1 14 -1h10q145 0 145 94q0 35 -23 56.5t-60 21.5q-80 0 -92 -82h-106z" />
    <glyph glyph-name="four" unicode="4" horiz-adv-x="570" 
d="M537 234v-99h-114v-143h-126v143h-269v99l249 419h143v-419h117zM304 517l-160 -283h160v283z" />
    <glyph glyph-name="five" unicode="5" horiz-adv-x="570" 
d="M466 650l-7 -111h-230l-26 -126q26 15 49 21.5t52 6.5q45 0 82.5 -15.5t64.5 -43.5t42 -67.5t15 -86.5q0 -52 -17 -96t-47.5 -75.5t-72.5 -49t-92 -17.5q-96 0 -154 52t-64 143h117q14 -86 96 -86q48 0 75.5 33t27.5 91q0 54 -26 86t-70 32q-29 0 -53 -12.5t-48 -40.5
l-106 16l65 346h327z" />
    <glyph glyph-name="six" unicode="6" horiz-adv-x="570" 
d="M428 660q-35 -43 -59 -74t-42 -55.5t-32 -44t-27 -40.5q24 3 43 3q45 0 82.5 -16t64 -44.5t41 -69.5t14.5 -90q0 -52 -16.5 -96t-46.5 -75.5t-71 -49.5t-90 -18q-51 0 -93.5 17.5t-73 49.5t-47.5 76.5t-17 98.5q0 59 20.5 118t63.5 125q14 21 25 36.5t26.5 34t38.5 45
t61 69.5h135zM285 353q-47 0 -74.5 -34.5t-27.5 -93.5q0 -58 28 -93.5t73 -35.5q48 0 76 35t28 94q0 58 -28 93t-75 35z" />
    <glyph glyph-name="seven" unicode="7" horiz-adv-x="570" 
d="M534 650v-95l-308 -555h-137l295 531h-292v119h442z" />
    <glyph glyph-name="eight" unicode="8" horiz-adv-x="570" 
d="M143 343q-38 24 -55.5 55t-17.5 76q0 41 16.5 76t45.5 61t68 40.5t85 14.5t85.5 -14.5t68.5 -40.5t45.5 -61t16.5 -76q0 -86 -73 -131q86 -49 86 -147q0 -44 -17.5 -82t-48 -65.5t-72.5 -43t-91 -15.5t-91 15.5t-72.5 43t-47.5 65.5t-17 82q0 97 86 147zM287 566
q-42 0 -67 -24t-25 -64q0 -39 25 -63t66 -24t66 24.5t25 62.5t-25.5 63t-64.5 25zM286 291q-47 0 -75.5 -28t-28.5 -73t29 -72.5t74 -27.5q46 0 75 28t29 72q0 45 -29 73t-74 28z" />
    <glyph glyph-name="nine" unicode="9" horiz-adv-x="570" 
d="M141 -10q33 41 57.5 72t43 56.5t33 46.5t27.5 42q-11 -2 -23.5 -3t-19.5 -1q-44 0 -81 16t-63.5 45.5t-41.5 70t-15 88.5q0 53 17 97.5t47 77t71.5 50.5t91.5 18t92 -18t72 -50.5t47 -77t17 -98.5q0 -116 -85 -246q-14 -21 -26.5 -37.5t-28.5 -36t-38.5 -46t-58.5 -66.5
h-135zM287 560q-48 0 -76 -35.5t-28 -95.5q0 -59 28 -94.5t74 -35.5q47 0 75 35.5t28 95.5q0 58 -28 94t-73 36z" />
    <glyph glyph-name="colon" unicode=":" horiz-adv-x="251" 
d="M127 146q30 0 52.5 -23t22.5 -54q0 -32 -22 -54t-54 -22t-54.5 22t-22.5 53q0 32 23 55t55 23zM127 477q30 0 52.5 -23t22.5 -54q0 -32 -22 -54t-54 -22t-54.5 22t-22.5 54q0 31 23 54t55 23z" />
    <glyph glyph-name="semicolon" unicode=";" horiz-adv-x="251" 
d="M119 477q30 0 52.5 -23t22.5 -54q0 -32 -22 -54t-54 -22t-54.5 22t-22.5 54q0 31 23 54t55 23zM23 -227q19 26 35 55.5t27.5 60t18.5 59.5t7 55q-73 9 -73 68q0 32 22.5 53.5t55.5 21.5q38 0 60 -28.5t22 -78.5q0 -29 -6 -58.5t-19.5 -61t-34.5 -67.5t-51 -79h-64z" />
    <glyph glyph-name="less" unicode="&#x3c;" 
d="M466 488l-303 -148l303 -149v-122l-433 219v104l433 219v-123z" />
    <glyph glyph-name="equal" unicode="=" horiz-adv-x="570" 
d="M523 464v-94h-475v94h475zM523 297v-94h-475v94h475z" />
    <glyph glyph-name="greater" unicode="&#x3e;" 
d="M33 191l303 149l-303 149v121l433 -219v-104l-433 -218v122z" />
    <glyph glyph-name="question" unicode="?" horiz-adv-x="417" 
d="M215 146q15 0 28.5 -6.5t24 -17t17 -24.5t6.5 -29q0 -32 -22.5 -54t-54.5 -22t-54 21.5t-22 53.5t22.5 55t54.5 23zM156 217q0 43 1.5 68.5t8 44.5t19.5 36t36 43q18 19 29 31.5t16.5 22.5t7.5 18.5t2 19.5q0 26 -15.5 40.5t-41.5 14.5q-33 0 -51 -21t-20 -60h-97
q2 51 10.5 80.5t30.5 52.5q51 55 143 55q81 0 125.5 -40t44.5 -112q0 -21 -3 -37t-12 -32.5t-24.5 -36.5t-40.5 -47q-18 -20 -29 -33.5t-17 -24t-7.5 -20t-1.5 -22.5v-18v-14v-9h-114z" />
    <glyph glyph-name="at" unicode="@" horiz-adv-x="733" 
d="M562 493l-38 -194q-7 -35 -7 -46q0 -17 7 -28.5t18 -11.5q15 0 30.5 15t28 39t20 54.5t7.5 61.5q0 49 -17.5 90t-50 70.5t-77 45.5t-98.5 16q-117 0 -192 -78q-38 -40 -58.5 -91.5t-20.5 -109.5q0 -57 19.5 -107t55.5 -86q37 -37 87 -54t122 -17q47 0 87.5 7.5t89.5 24.5
l19 -76q-90 -31 -198 -31q-165 0 -260 89q-51 47 -78 112t-27 139q0 75 26.5 140t74 112t112 74t139.5 27q69 0 128 -22t101.5 -62t66.5 -94.5t24 -118.5q0 -47 -13.5 -90.5t-36.5 -76.5t-53 -53t-63 -20q-27 0 -47 16.5t-30 47.5q-46 -64 -119 -64q-33 0 -60 12t-46.5 33
t-30.5 50.5t-11 64.5q0 40 14 76.5t38 64.5t56 44t68 16q32 0 57.5 -13t41.5 -39l8 41h86zM383 418q-19 0 -36 -9t-29.5 -25t-20 -36.5t-7.5 -44.5q0 -35 19.5 -57t51.5 -22q18 0 33.5 9t27 24.5t18 36.5t6.5 46q0 37 -16.5 57.5t-46.5 20.5z" />
    <glyph glyph-name="A" unicode="A" horiz-adv-x="602" 
d="M365 667l227 -667h-133l-41 139h-235l-42 -139h-131l225 667h130zM300 520l-85 -272h171z" />
    <glyph glyph-name="B" unicode="B" horiz-adv-x="588" 
d="M259 667q59 0 94 -3.5t62 -13.5q48 -16 76 -56.5t28 -94.5q0 -56 -26.5 -89.5t-83.5 -51.5q146 -33 146 -166q0 -62 -33.5 -109.5t-90.5 -65.5q-17 -5 -33 -8.5t-37 -5.5t-50.5 -2.5t-72.5 -0.5h-158v667h179zM261 398q35 0 55.5 2.5t35.5 8.5q19 8 30.5 27.5t11.5 44.5
q0 23 -11 42.5t-30 27.5q-15 7 -36.5 9.5t-62.5 2.5h-48v-165h55zM264 104q27 0 45 0.5t31 2t22.5 4t17.5 6.5q44 20 44 83q0 64 -50 85q-18 7 -40 9.5t-67 2.5h-61v-193h58z" />
    <glyph glyph-name="C" unicode="C" horiz-adv-x="599" 
d="M454 450q-10 58 -41.5 88.5t-82.5 30.5q-37 0 -67 -16.5t-51 -47.5t-32 -75t-11 -98t11.5 -97.5t32.5 -74t51 -47t67 -16.5q116 0 128 150h114q-6 -130 -65.5 -195t-171.5 -65q-60 0 -111 19.5t-91 56.5q-98 93 -98 268q0 185 106 280q38 34 86 51.5t102 17.5
q107 0 167.5 -59.5t67.5 -170.5h-111z" />
    <glyph glyph-name="D" unicode="D" horiz-adv-x="646" 
d="M243 667q75 0 123.5 -8t84.5 -26q75 -38 117 -117t42 -182q0 -48 -10 -93t-29 -83.5t-45 -68.5t-59 -48q-22 -12 -43 -20t-48 -12.5t-64 -6.5t-89 -2h-143v667h163zM267 109q55 0 85.5 6.5t54.5 24.5q35 26 53.5 77t18.5 118q0 68 -19.5 116.5t-56.5 74.5
q-14 10 -27.5 16.5t-32 10t-44 4.5t-63.5 1h-28v-449h59z" />
    <glyph glyph-name="E" unicode="E" horiz-adv-x="537" 
d="M473 400v-109h-265v-182h302v-109h-430v667h419v-109h-291v-158h265z" />
    <glyph glyph-name="F" unicode="F" horiz-adv-x="518" 
d="M473 400v-109h-265v-291h-128v667h419v-109h-291v-158h265z" />
    <glyph glyph-name="G" unicode="G" horiz-adv-x="641" 
d="M588 344v-277q-114 -80 -244 -80q-71 0 -128 24t-97 69t-61.5 109t-21.5 144q0 78 21.5 142t60.5 109.5t94 70.5t122 25q63 0 116 -23.5t85 -66.5q21 -29 31 -60t12 -78h-110q-18 117 -131 117q-79 0 -123.5 -62.5t-44.5 -174.5t45.5 -173t128.5 -61q35 0 72.5 12
t66.5 32v107h-133v95h239z" />
    <glyph glyph-name="H" unicode="H" horiz-adv-x="681" 
d="M473 401v266h128v-667h-128v295h-265v-295h-128v667h128v-266h265z" />
    <glyph glyph-name="I" unicode="I" horiz-adv-x="288" 
d="M80 0v667h128v-667h-128z" />
    <glyph glyph-name="J" unicode="J" horiz-adv-x="335" 
d="M258 667v-531q0 -46 -1 -76.5t-3.5 -51t-7.5 -34.5t-12 -28q-23 -42 -71 -61t-129 -19h-15t-23 1v107h15h7q35 -2 63.5 6.5t37.5 23.5q4 6 6 13t3 20.5t1.5 36t0.5 59.5v534h128z" />
    <glyph glyph-name="K" unicode="K" horiz-adv-x="623" 
d="M602 667l-249 -309l265 -358h-163l-245 354l244 313h148zM208 667v-667h-128v667h128z" />
    <glyph glyph-name="L" unicode="L" horiz-adv-x="515" 
d="M211 667v-558h289v-109h-420v667h131z" />
    <glyph glyph-name="M" unicode="M" horiz-adv-x="806" 
d="M259 667l144 -530l146 530h177v-667h-116v520l-142 -520h-132l-140 520v-520h-116v667h179z" />
    <glyph glyph-name="N" unicode="N" horiz-adv-x="689" 
d="M217 667l270 -470v470h122v-667h-129l-278 470v-470h-122v667h137z" />
    <glyph glyph-name="O" unicode="O" horiz-adv-x="673" 
d="M337 680q60 0 112 -20.5t92 -59.5q48 -46 72.5 -113.5t24.5 -152.5q0 -86 -24.5 -153.5t-72.5 -113.5q-39 -38 -92 -59t-111 -21q-60 0 -113 21t-93 59q-96 93 -96 272q0 81 25 148.5t71 112.5q41 39 93.5 59.5t111.5 20.5zM337 570q-38 0 -68 -14.5t-50 -41.5
q-23 -32 -36.5 -79t-13.5 -98q0 -114 44.5 -177t123.5 -63q38 0 68 14.5t50 41.5q24 33 37 79.5t13 101.5q0 54 -13 101t-37 79q-20 27 -50 41.5t-68 14.5z" />
    <glyph glyph-name="P" unicode="P" horiz-adv-x="565" 
d="M236 667q37 0 65 -1t50 -3.5t40 -6t35 -9.5q57 -20 90 -70.5t33 -121.5t-35 -123t-95 -69q-14 -4 -30 -6.5t-36 -4t-45.5 -2.5t-59.5 -1h-40v-249h-128v667h156zM249 358q28 0 46 0.5t30.5 1.5t21.5 3.5t18 5.5q26 9 39.5 32t13.5 55q0 63 -45 86q-9 4 -19.5 7.5t-24 5
t-31.5 2.5t-43 1h-47v-200h41z" />
    <glyph glyph-name="Q" unicode="Q" horiz-adv-x="693" 
d="M742 0h-148l-55 64q-83 -77 -202 -77q-59 0 -112 21t-93 59q-48 46 -72 113.5t-24 153.5q0 85 24 152.5t72 113.5q40 38 93 59t112 21q68 0 123.5 -25t95 -70t61 -108.5t21.5 -141.5q0 -51 -8 -92.5t-26 -85.5zM337 570q-38 0 -68 -14.5t-50 -41.5q-23 -32 -36.5 -79
t-13.5 -98q0 -114 44.5 -177t123.5 -63q38 0 68 14.5t50 41.5q24 33 37 79.5t13 101.5q0 54 -13 101t-37 79q-20 27 -50 41.5t-68 14.5z" />
    <glyph glyph-name="R" unicode="R" horiz-adv-x="590" 
d="M246 667q44 0 76 -1.5t55.5 -5t42 -10t35.5 -15.5q45 -24 70 -69.5t25 -103.5q0 -65 -30 -112t-88 -73l153 -277h-149l-136 255h-92v-255h-128v667h166zM254 364q24 0 40.5 0.5t28.5 1.5t21.5 3.5t18.5 5.5q26 11 41 33.5t15 54.5q0 53 -42 78q-10 6 -19.5 9t-23.5 5
t-35 2.5t-54 0.5h-37v-194h46z" />
    <glyph glyph-name="S" unicode="S" horiz-adv-x="565" 
d="M388 471q-4 47 -32.5 72.5t-76.5 25.5q-42 0 -69.5 -20.5t-27.5 -51.5t34 -51q7 -4 12.5 -6.5t15.5 -7t28.5 -12t52.5 -20.5q44 -18 71 -29.5t43.5 -20.5t26.5 -17t21 -20q43 -46 43 -120q0 -47 -16.5 -85t-47.5 -65t-75 -41.5t-99 -14.5q-123 0 -189 61t-71 179h124
q12 -129 137 -129q48 0 77 19.5t29 51.5q0 40 -46 64q-6 4 -11 6.5t-16 7t-31 13t-57 23.5q-29 12 -51 22.5t-38.5 20.5t-29 19.5t-21.5 19.5q-44 50 -44 119q0 43 16.5 79t46.5 62t72 40.5t92 14.5q64 0 115.5 -24t81.5 -69q16 -24 23.5 -50t9.5 -66h-123z" />
    <glyph glyph-name="T" unicode="T" horiz-adv-x="503" 
d="M492 667v-109h-176v-558h-128v558h-176v109h480z" />
    <glyph glyph-name="U" unicode="U" horiz-adv-x="675" 
d="M201 667v-383q0 -25 0.5 -42.5t2 -30.5t3.5 -22.5t6 -19.5q14 -35 45.5 -53t78.5 -18q109 0 130 92q4 16 5 35t1 59v383h128v-385q0 -36 -1 -61.5t-4 -44.5t-8 -34t-13 -31q-29 -59 -91 -91.5t-147 -32.5t-147 32.5t-91 91.5q-8 16 -13 31t-8 34t-4 44.5t-1 61.5v385h128
z" />
    <glyph glyph-name="V" unicode="V" horiz-adv-x="609" 
d="M144 667l160 -521l161 521h134l-230 -667h-134l-228 667h137z" />
    <glyph glyph-name="W" unicode="W" horiz-adv-x="868" 
d="M129 667l127 -521l124 521h110l124 -521l129 521h117l-172 -667h-145l-110 434l-108 -434h-145l-171 667h120z" />
    <glyph glyph-name="X" unicode="X" horiz-adv-x="584" 
d="M173 667l120 -207l123 207h146l-195 -320l207 -347h-146l-135 231l-137 -231h-146l208 347l-191 320h146z" />
    <glyph glyph-name="Y" unicode="Y" horiz-adv-x="562" 
d="M143 667l140 -266l138 266h141l-217 -404v-263h-128v263l-217 404h143z" />
    <glyph glyph-name="Z" unicode="Z" horiz-adv-x="501" 
d="M482 667v-90l-307 -468h297v-109h-449v100l305 460h-275v107h429z" />
    <glyph glyph-name="bracketleft" unicode="[" horiz-adv-x="306" 
d="M275 667v-97h-95v-666h95v-98h-200v861h200z" />
    <glyph glyph-name="backslash" unicode="\" horiz-adv-x="557" 
d="M443 -194l-422 861h92l423 -861h-93z" />
    <glyph glyph-name="bracketright" unicode="]" horiz-adv-x="306" 
d="M31 -194v97h95v666h-95v98h200v-861h-200z" />
    <glyph glyph-name="asciicircum" unicode="^" 
d="M7 338l162 332h162l162 -332h-129l-114 234l-114 -234h-129z" />
    <glyph glyph-name="underscore" unicode="_" 
d="M500 -48v-111h-500v111h500z" />
    <glyph glyph-name="grave" unicode="`" 
d="M248 536l-186 163h152l127 -163h-93z" />
    <glyph glyph-name="a" unicode="a" horiz-adv-x="512" 
d="M57 333q5 41 17.5 65.5t38.5 44.5q27 20 66 31t85 11q62 0 104 -18.5t59 -52.5q11 -21 15 -46.5t4 -70.5v-191q0 -43 3.5 -65t12.5 -41h-112q-4 14 -5 24t-1 30q-39 -64 -131 -64q-81 0 -127 36t-46 99q0 49 28 85.5t80 56.5q16 6 28 10t29.5 8t45.5 9t76 14v8
q0 38 -17 55t-55 17q-71 0 -81 -55h-117zM327 226q-30 -4 -52 -7.5t-37 -7t-25.5 -8t-18.5 -10.5q-28 -20 -28 -52q0 -25 20 -41t52 -16q29 0 50 12t30 34q5 11 7 27t2 42v27z" />
    <glyph glyph-name="b" unicode="b" horiz-adv-x="549" 
d="M191 671v-256q29 38 59 54t72 16t77 -18.5t60.5 -51t40 -77.5t14.5 -99q0 -55 -15 -101t-42.5 -79t-65.5 -51t-84 -18q-89 0 -127 74q-2 -24 -3.5 -36.5t-5.5 -27.5h-106q1 11 1.5 18.5t1 19.5t0.5 31.5v55.5v546h123zM293 382q-49 0 -75.5 -38.5t-26.5 -107.5
q0 -67 26 -105t71 -38q48 0 74 39t26 108q0 68 -25 105t-70 37z" />
    <glyph glyph-name="c" unicode="c" horiz-adv-x="497" 
d="M339 318q-10 71 -77 71q-48 0 -75.5 -40.5t-27.5 -111.5q0 -73 26.5 -112t75.5 -39q73 0 83 83h119q-5 -78 -58 -130t-144 -52q-51 0 -93 18t-72 51t-46.5 79t-16.5 102q0 57 16.5 103t46.5 79t72.5 51t94.5 18q105 0 160 -71q16 -20 24 -42t13 -57h-121z" />
    <glyph glyph-name="d" unicode="d" horiz-adv-x="548" 
d="M479 150q0 -60 2 -92.5t7 -57.5h-115q-2 15 -3 23t-1 19v11t1 13q-23 -41 -55 -58.5t-80 -17.5q-45 0 -82 17.5t-64 49.5t-41.5 77t-14.5 99q0 55 15 101t41.5 79.5t63 52.5t80.5 19q42 0 69.5 -14t53.5 -48v248h123v-521zM261 382q-48 0 -75.5 -39.5t-27.5 -109.5
q0 -65 26.5 -102.5t71.5 -37.5q48 0 75 38t27 107t-25.5 106.5t-71.5 37.5z" />
    <glyph glyph-name="e" unicode="e" horiz-adv-x="515" 
d="M156 208q3 -60 32.5 -91t82.5 -31q35 0 57 12.5t35 40.5l109 -5q-16 -69 -70.5 -108t-133.5 -39q-54 0 -97.5 17t-74 49t-47 77t-16.5 102q0 58 16.5 105t47 80.5t73 52t94.5 18.5q102 0 159.5 -68t57.5 -188v-24h-325zM357 298q-15 95 -94 95q-80 0 -104 -95h198z" />
    <glyph glyph-name="f" unicode="f" horiz-adv-x="328" 
d="M315 475v-96h-113v-379h-123v379h-63v96h63v30q0 48 6 76.5t20 49.5q38 56 121 56q29 0 53.5 -5t55.5 -17v-99q-30 9 -46 12t-35 3q-16 0 -26 -4t-16 -14.5t-8 -29t-2 -46.5v-12h113z" />
    <glyph glyph-name="g" unicode="g" horiz-adv-x="530" 
d="M512 387h-97q12 -17 18.5 -40t6.5 -45q0 -42 -19.5 -72.5t-55.5 -46.5q-12 -5 -21 -8t-22 -5.5t-35 -4.5t-61 -6q-21 -2 -33.5 -9.5t-12.5 -18.5q0 -7 2.5 -11t12.5 -7t31 -5.5t58 -6.5q62 -6 95 -13t55 -19q28 -16 43.5 -45t15.5 -66q0 -76 -61.5 -117.5t-174.5 -41.5
q-111 0 -174 37t-63 103q0 41 22.5 67.5t73.5 43.5q-29 11 -41 24t-12 33q0 24 18.5 41t65.5 35q-42 21 -61.5 53.5t-19.5 81.5q0 38 14 69t40 52.5t62.5 33.5t81.5 12q21 0 42 -3t49 -10l157 3v-88zM256 392q-38 0 -61 -19.5t-23 -53.5q0 -32 22 -51t60 -19t60.5 19
t22.5 51t-23 52.5t-58 20.5zM242 9q-54 0 -85.5 -16t-31.5 -44q0 -29 35 -45t98 -16q57 0 87 15t30 44t-35 45.5t-98 16.5z" />
    <glyph glyph-name="h" unicode="h" horiz-adv-x="555" 
d="M192 671v-248q56 62 137 62q45 0 82.5 -19t56.5 -51q7 -11 11 -23t6.5 -27.5t3.5 -37.5t1 -53v-274h-123v247q0 36 -2.5 56t-10.5 34q-10 19 -27.5 29.5t-40.5 10.5q-26 0 -48.5 -14.5t-33.5 -37.5q-6 -14 -9 -33.5t-3 -48.5v-243h-123v671h123z" />
    <glyph glyph-name="i" unicode="i" horiz-adv-x="261" 
d="M192 475v-475h-123v475h123zM132 680q32 0 51 -19.5t19 -51.5t-20 -52t-52 -20t-51.5 19t-19.5 51q0 33 20 53t53 20z" />
    <glyph glyph-name="j" unicode="j" horiz-adv-x="272" 
d="M206 475v-407q0 -38 -1 -63.5t-4.5 -44.5t-9.5 -33.5t-16 -29.5q-27 -42 -72 -61.5t-117 -19.5h-11t-15 1v105h15q83 0 100 44q3 7 4.5 12t2.5 14.5t1 26.5v48v408h123zM147 680q32 0 50.5 -19.5t18.5 -51.5q0 -33 -19.5 -52.5t-51.5 -19.5t-52 19t-20 51q0 33 20.5 53
t53.5 20z" />
    <glyph glyph-name="k" unicode="k" horiz-adv-x="536" 
d="M516 475l-178 -220l194 -255h-165l-173 253l174 222h148zM192 671v-671h-123v671h123z" />
    <glyph glyph-name="l" unicode="l" horiz-adv-x="261" 
d="M192 671v-671h-123v671h123z" />
    <glyph glyph-name="m" unicode="m" horiz-adv-x="835" 
d="M175 475q10 -25 10 -46v-8v-9q28 38 62.5 55.5t82.5 17.5q49 0 82 -18.5t55 -58.5q32 41 68 59t86 18q49 0 83 -18t50 -53q6 -12 9 -21.5t4.5 -23.5t2 -35.5t0.5 -56.5v-277h-123v274q0 32 -2.5 48t-10.5 27q-9 14 -26 21t-38 7q-89 0 -89 -108v-269h-123v264
q0 38 -2 54.5t-9 27.5q-8 14 -25.5 22.5t-39.5 8.5q-31 0 -53.5 -14.5t-30.5 -40.5q-4 -11 -5 -22.5t-1 -35.5v-264h-123v363q0 25 -0.5 41.5t-2 28.5t-4 21.5t-6.5 20.5h119z" />
    <glyph glyph-name="n" unicode="n" horiz-adv-x="548" 
d="M173 475q10 -21 10 -61q53 71 141 71q45 0 81 -18.5t55 -50.5q7 -12 11 -23.5t6.5 -27t3.5 -37.5t1 -54v-274h-123v247q0 37 -2.5 57.5t-9.5 33.5q-19 39 -65 39q-26 0 -47.5 -14t-31.5 -37q-7 -14 -9 -31.5t-2 -51.5v-243h-123v305q0 43 -0.5 68.5t-2 42t-4.5 29
t-8 30.5h119z" />
    <glyph glyph-name="o" unicode="o" horiz-adv-x="536" 
d="M268 488q51 0 94 -18.5t74 -52t48.5 -79.5t17.5 -101q0 -54 -17.5 -100t-48.5 -79.5t-74 -52t-94 -18.5q-52 0 -95.5 18.5t-74.5 52t-48 80.5t-17 103q0 54 17.5 99t49 78t74.5 51.5t94 18.5zM267 389q-49 0 -78.5 -41t-29.5 -109q0 -71 29 -112t80 -41q49 0 78.5 41
t29.5 110t-29.5 110.5t-79.5 41.5z" />
    <glyph glyph-name="p" unicode="p" horiz-adv-x="548" 
d="M69 324q0 61 -2 93.5t-7 57.5h115q4 -9 5.5 -21t2.5 -35q26 35 56.5 50.5t74.5 15.5q45 0 82 -17.5t63.5 -50t41 -77.5t14.5 -99q0 -55 -14.5 -101t-41 -79.5t-62.5 -52t-79 -18.5q-40 0 -69 14.5t-57 46.5v-248h-123v521zM292 382q-48 0 -75 -39t-27 -108q0 -66 27 -104
t74 -38t73 38.5t26 107.5q0 33 -8.5 62.5t-23.5 50.5q-22 30 -66 30z" />
    <glyph glyph-name="q" unicode="q" horiz-adv-x="548" 
d="M356 50q-26 -33 -52.5 -46.5t-65.5 -13.5q-45 0 -83 18t-65 50.5t-42 77.5t-15 99q0 55 15 101t42 79t64.5 51.5t82.5 18.5q87 0 128 -66q1 19 2.5 33t5.5 23h115q-3 -13 -4.5 -26.5t-2.5 -31t-1.5 -40.5t-0.5 -53v-521h-123v247zM258 382q-46 0 -73 -39t-27 -105
t27.5 -105.5t74.5 -39.5q48 0 73 37.5t25 106.5q0 67 -26.5 106t-73.5 39z" />
    <glyph glyph-name="r" unicode="r" horiz-adv-x="377" 
d="M179 475q4 -15 6 -35.5t2 -38.5v-11t-1 -14q29 58 61 83.5t76 25.5q10 0 16 -1t21 -5v-125q-33 23 -74 23q-49 0 -72 -37.5t-23 -118.5v-221h-123v329v37t-1 47v17.5t-1 14t-2 13.5t-2 17h117z" />
    <glyph glyph-name="s" unicode="s" horiz-adv-x="485" 
d="M320 331q-9 66 -77 66q-28 0 -46.5 -14t-18.5 -36q0 -12 3 -19t14.5 -14t34.5 -14.5t63 -19.5q55 -16 81.5 -29t41.5 -31q26 -34 26 -80q0 -73 -50 -113t-143 -40q-211 0 -211 172h116q3 -42 24 -60.5t66 -18.5q36 0 55.5 13t19.5 38q0 14 -7 22t-26 16q-5 2 -9.5 3.5
l-13.5 4.5t-27 8.5t-50 15.5q-36 11 -61 23t-40.5 28t-22 36t-6.5 46q0 35 13.5 63.5t38.5 49t60 31.5t78 11q87 0 137.5 -41.5t55.5 -116.5h-119z" />
    <glyph glyph-name="t" unicode="t" horiz-adv-x="357" 
d="M318 475v-96h-99l-3 -183v-17.5t-1 -14.5q0 -36 11.5 -51t38.5 -15q32 0 70 16v-102q-29 -11 -54.5 -16.5t-54.5 -5.5q-40 0 -70.5 15.5t-47.5 44.5q-11 17 -15 39t-4 58l1 47l7 185h-74v96h78l3 137h119l-2 -137h97z" />
    <glyph glyph-name="u" unicode="u" horiz-adv-x="555" 
d="M188 475v-270q0 -59 18 -81q23 -26 63 -26q27 0 48.5 12t32.5 34q13 26 13 77v254h123v-328v-61t1.5 -36t3.5 -24t7 -26h-116q-4 8 -6.5 23t-3.5 32q-28 -35 -58.5 -50t-74.5 -15q-49 0 -88.5 20.5t-60.5 55.5q-25 41 -25 132v277h123z" />
    <glyph glyph-name="v" unicode="v" horiz-adv-x="501" 
d="M141 475l110 -341l110 341h128l-172 -478h-137l-169 478h130z" />
    <glyph glyph-name="w" unicode="w" horiz-adv-x="749" 
d="M137 475l88 -335l99 335h99l98 -335l90 335h123l-142 -478h-132l-89 285l-87 -285h-132l-139 478h124z" />
    <glyph glyph-name="x" unicode="x" horiz-adv-x="501" 
d="M172 475l78 -133l81 133h146l-151 -222l174 -253h-150l-100 157l-100 -157h-149l175 253l-151 222h147z" />
    <glyph glyph-name="y" unicode="y" horiz-adv-x="499" 
d="M146 475l106 -362l110 362h128l-161 -462q-12 -33 -18.5 -52t-12 -31t-10.5 -20.5t-13 -21.5q-29 -48 -75.5 -68.5t-125.5 -20.5h-18t-28 1v107q39 -1 65.5 1.5t43.5 10.5t28 22t19 37l-168 497h130z" />
    <glyph glyph-name="z" unicode="z" horiz-adv-x="424" 
d="M396 475v-93l-228 -280h232v-102h-377v95l225 278h-200v102h348z" />
    <glyph glyph-name="braceleft" unicode="{" horiz-adv-x="306" 
d="M207 368q0 -28 -2.5 -47.5t-9.5 -34.5t-19 -26.5t-30 -23.5q18 -12 30 -23.5t19 -26t9.5 -34t2.5 -47.5v-126q0 -35 1.5 -46.5t7.5 -19.5q7 -9 22.5 -13t44.5 -4h20v-95q-7 0 -11.5 -0.5t-9.5 -0.5h-11h-15q-61 0 -93.5 15t-48.5 50q-8 16 -11 37t-3 53v155
q0 42 -12.5 61.5t-42.5 25.5v78q31 7 43 26t12 61v155q0 42 5 66t19 42q18 26 49 37t83 11h18t29 -2v-95q-7 1 -12.5 1h-7.5q-32 0 -48.5 -5.5t-22.5 -18.5q-3 -8 -4 -18t-1 -42v-125z" />
    <glyph glyph-name="bar" unicode="|" 
d="M311 667v-834h-123v834h123z" />
    <glyph glyph-name="braceright" unicode="}" horiz-adv-x="306" 
d="M99 105q0 27 2.5 46.5t9.5 34.5t19 26.5t30 23.5q-18 12 -30 23.5t-19 26.5t-9.5 34.5t-2.5 47.5v125q0 18 -0.5 29t-1 18t-2.5 11t-5 8q-12 18 -67 18h-7.5t-12.5 -1v95q19 1 29 1.5t18 0.5q60 0 93 -15.5t49 -50.5q8 -16 11 -36t3 -54v-155q0 -42 12 -61t43 -26v-78
q-30 -6 -42.5 -25.5t-12.5 -61.5v-155q0 -42 -5 -65.5t-19 -42.5q-19 -26 -48.5 -36.5t-83.5 -10.5h-26.5t-20.5 1v95h20q34 0 49.5 5t21.5 18q2 4 3 8t1.5 10t0.5 15.5v26.5v126z" />
    <glyph glyph-name="asciitilde" unicode="~" horiz-adv-x="667" 
d="M90 241l8 16q9 21 16.5 36t15 26t15.5 19t18 16q33 23 77 23q19 0 42 -6t62 -20q21 -8 35 -13t23.5 -7.5t16 -3.5t13.5 -1q25 0 40.5 11t33.5 42l70 -41q-11 -23 -20 -39t-17.5 -28t-17.5 -21t-20 -16q-38 -27 -83 -27q-15 0 -35.5 5.5t-64.5 21.5q-25 9 -39 14t-22.5 7
t-14.5 2.5t-15 0.5q-12 0 -25.5 -7t-21.5 -18q-5 -7 -9.5 -13.5t-12.5 -23.5z" />
    <glyph glyph-name="uni00A0" unicode="&#xa0;" horiz-adv-x="250" 
 />
    <glyph glyph-name="exclamdown" unicode="&#xa1;" horiz-adv-x="252" 
d="M60 -182l14 429h105l13 -429h-132zM126 477q31 0 53.5 -23t22.5 -54q0 -33 -22 -54.5t-55 -21.5q-32 0 -54 22t-22 54q0 15 6.5 29t17 24.5t24.5 17t29 6.5z" />
    <glyph glyph-name="cent" unicode="&#xa2;" horiz-adv-x="570" 
d="M326 203q23 7 37.5 27.5t17.5 50.5h119q-1 -35 -15 -66t-37 -55t-54.5 -39.5t-67.5 -18.5v-91h-61v92q-94 16 -144.5 79t-50.5 164q0 106 51.5 171t146.5 79v73h61v-74q72 -9 116 -52t55 -115h-124q-4 26 -17 43.5t-33 23.5v-292zM268 494q-72 -34 -72 -150
q0 -117 72 -141v291z" />
    <glyph glyph-name="sterling" unicode="&#xa3;" horiz-adv-x="570" 
d="M431 392v-88h-172q-9 -68 -25 -115.5t-44 -90.5q32 9 58 13.5t51 4.5h10t13.5 -1t21.5 -2t33 -3q6 -1 12 -1h9q24 0 33 17.5t11 67.5h98q1 -8 1 -14.5v-9.5q0 -83 -35 -130t-98 -47q-12 0 -30 1.5t-39 3.5q-19 2 -40.5 3.5t-42 3t-38.5 2.5t-29 1q-37 0 -74 -4t-85 -14
q67 72 102 313h-80v89h97l1 6l11 57q9 51 27 96t39 70q47 56 139 56q84 0 126 -42t49 -133h-107q-9 70 -65 70q-20 0 -34 -7.5t-24 -26.5t-18 -51.5t-15 -83.5l-2 -11h155z" />
    <glyph glyph-name="currency" unicode="&#xa4;" horiz-adv-x="667" 
d="M126 238q-45 66 -45 138q0 38 11 70.5t34 67.5l-103 103l67 67l103 -103q35 23 69 34t72 11t70 -10.5t67 -33.5l103 101l66 -67l-101 -101q26 -39 36 -70t10 -69q0 -39 -10 -70.5t-34 -66.5l102 -103l-66 -67l-102 102q-68 -46 -142 -46q-36 0 -69 10.5t-72 34.5
l-101 -101l-67 67zM335 515q-30 0 -55.5 -11t-44.5 -30t-30 -44.5t-11 -54.5t11 -54.5t30 -44t44 -29.5t54 -11t54.5 10.5t44 29.5t29.5 44.5t11 54.5t-10.5 54.5t-29.5 44.5t-44 30t-53 11z" />
    <glyph glyph-name="yen" unicode="&#xa5;" horiz-adv-x="570" 
d="M529 447v-77h-125l-35 -67h160v-77h-181v-226h-128v226h-180v77h159l-34 67h-125v77h86l-112 220h143l128 -267l128 267h142l-112 -220h86z" />
    <glyph glyph-name="brokenbar" unicode="&#xa6;" 
d="M311 667v-345h-123v345h123zM311 153v-320h-123v320h123z" />
    <glyph glyph-name="section" unicode="&#xa7;" 
d="M340 479q-7 47 -28 68t-60 21q-31 0 -51 -15t-20 -38q0 -10 5.5 -20.5t13.5 -17.5q6 -5 10.5 -8.5t14.5 -9t28.5 -15.5t53.5 -28q26 -13 44 -23t31 -18t22 -14.5t16 -13.5q39 -39 39 -94q0 -86 -87 -136q35 -26 50.5 -55t15.5 -70q0 -75 -49 -115.5t-140 -40.5
q-66 0 -113 22.5t-70 66.5q-9 17 -15.5 45t-6.5 50v8h100q8 -51 31.5 -72.5t71.5 -21.5q38 0 58.5 15.5t20.5 44.5q0 18 -9 30.5t-32 26.5q-6 3 -10 5.5t-13.5 7.5t-27.5 14l-50 25q-28 14 -57.5 34t-46.5 37q-18 19 -28.5 44.5t-10.5 51.5q0 38 20 69.5t65 65.5
q-31 28 -43.5 52.5t-12.5 57.5q0 32 13.5 59.5t37.5 48t57 32t71 11.5q53 0 94.5 -20t64.5 -56q14 -22 19.5 -47.5t7.5 -63.5h-95zM207 356q-31 -22 -43.5 -39t-12.5 -39q0 -15 4.5 -27t19.5 -24t42.5 -27.5t73.5 -38.5q34 23 47 40.5t13 38.5q0 20 -10.5 34.5t-35.5 28.5
q-29 17 -53 30t-45 23z" />
    <glyph glyph-name="dieresis" unicode="&#xa8;" 
d="M162 684q27 0 47 -20t20 -48q0 -27 -20.5 -47.5t-47.5 -20.5q-28 0 -48 20t-20 48q0 29 20 48.5t49 19.5zM339 684q28 0 48 -20t20 -48q0 -27 -20.5 -47.5t-48.5 -20.5t-47.5 20t-19.5 48q0 29 19.5 48.5t48.5 19.5z" />
    <glyph glyph-name="copyright" unicode="&#xa9;" horiz-adv-x="750" 
d="M469 406q-12 70 -77 70q-47 0 -74 -36.5t-27 -101.5q0 -63 27.5 -100t74.5 -37q73 0 78 89h75q0 -73 -41 -116t-112 -43q-43 0 -78 14.5t-59.5 41.5t-38 65t-13.5 85t13.5 85.5t37.5 66t58.5 42.5t76.5 15q70 0 110.5 -37t41.5 -103h-73zM379 680q70 0 132.5 -27.5
t109 -74.5t73.5 -110t27 -134q0 -72 -27 -135t-74 -110.5t-110 -74.5t-135 -27q-71 0 -134 27.5t-110 74.5t-74.5 110t-27.5 134q0 73 27.5 136t74.5 110t111 74t137 27zM379 624q-61 0 -113.5 -22.5t-91.5 -62t-61 -92.5t-22 -114q0 -60 22.5 -113t61 -92t90 -62t110.5 -23
t111 22.5t90.5 62t60.5 92.5t22 113t-22 113t-60 92.5t-89 62.5t-109 23z" />
    <glyph glyph-name="ordfeminine" unicode="&#xaa;" 
d="M123 575q3 48 37 74t95 26q74 0 101 -41q4 -7 7 -12.5t4 -13t1.5 -18.5t0.5 -29v-113q0 -26 2 -39t9 -25h-73q-2 8 -3 14t-2 15q-25 -34 -81 -34q-51 0 -79 21.5t-28 59.5q0 53 54 81l15 7.5t18.5 6.5t29.5 7t49 11l13 3v4q0 34 -44 34q-45 0 -51 -39h-75zM293 524
q-29 -6 -48.5 -12t-30.5 -12t-15.5 -13t-4.5 -17q0 -14 12 -23t31 -9q17 0 31 7t19 19q3 6 4.5 15t1.5 25v20zM386 326v-52h-278v52h278z" />
    <glyph glyph-name="guillemotleft" unicode="&#xab;" horiz-adv-x="489" 
d="M325 0l-109 232l109 246h104l-90 -246l90 -232h-104zM136 0l-109 232l109 246h104l-90 -246l90 -232h-104z" />
    <glyph glyph-name="logicalnot" unicode="&#xac;" 
d="M343 152h-310v115h433v-267h-123v152z" />
    <glyph glyph-name="uni00AD" unicode="&#xad;" horiz-adv-x="261" 
d="M261 297v-89h-261v89h261z" />
    <glyph glyph-name="registered" unicode="&#xae;" horiz-adv-x="750" 
d="M344 531q27 0 47 -1t34.5 -3t26 -5.5t22.5 -9.5q29 -15 44.5 -42.5t15.5 -62.5q0 -79 -72 -111l96 -165h-98l-84 151h-54v-151h-84v400h106zM349 351q29 0 42 1t24 6q16 5 25 18.5t9 31.5q0 30 -25 44q-6 3 -12 5t-14.5 3t-21.5 1.5t-33 0.5h-21v-111h27zM379 680
q70 0 132.5 -27.5t109 -74.5t73.5 -110t27 -134q0 -72 -27 -135t-74 -110.5t-110 -74.5t-135 -27q-71 0 -134 27.5t-110 74.5t-74.5 110t-27.5 134q0 73 27.5 136t74.5 110t111 74t137 27zM379 624q-61 0 -113.5 -22.5t-91.5 -62t-61 -92.5t-22 -114q0 -60 22.5 -113t61 -92
t90 -62t110.5 -23t111 22.5t90.5 62t60.5 92.5t22 113t-22 113t-60 92.5t-89 62.5t-109 23z" />
    <glyph glyph-name="macron" unicode="&#xaf;" 
d="M395 652v-73h-289v73h289z" />
    <glyph glyph-name="degree" unicode="&#xb0;" 
d="M250 680q31 0 59 -12t48.5 -32t32.5 -47.5t12 -58.5t-12 -58.5t-32.5 -47.5t-48.5 -32t-59 -12q-32 0 -60 12t-48.5 32.5t-32.5 48t-12 59.5q0 30 12 57t33 47.5t49 32t59 11.5zM250 608q-16 0 -30.5 -6.5t-25 -17t-17 -24.5t-6.5 -29q0 -33 23 -56t56 -23q32 0 55 23
t23 55t-23 55t-55 23z" />
    <glyph glyph-name="plusminus" unicode="&#xb1;" horiz-adv-x="570" 
d="M523 402v-94h-189v-161h-97v161h-189v94h189v197h97v-197h189zM523 94v-94h-475v94h475z" />
    <glyph glyph-name="uni00B2" unicode="&#xb2;" horiz-adv-x="370" 
d="M59 538q-1 57 34 89.5t95 32.5q57 0 91.5 -29t34.5 -77q0 -14 -2.5 -26t-9.5 -25.5t-19.5 -30t-31.5 -39.5q-20 -23 -45.5 -51t-47.5 -50h159v-72h-265v63q8 8 35 38q45 49 73.5 81.5t44 53.5t21.5 33.5t6 23.5q0 16 -13.5 27.5t-33.5 11.5q-25 0 -40.5 -14.5
t-17.5 -39.5h-68z" />
    <glyph glyph-name="uni00B3" unicode="&#xb3;" horiz-adv-x="370" 
d="M58 550q2 54 36.5 84.5t96.5 30.5q56 0 89 -28.5t33 -76.5q0 -61 -61 -85q67 -20 67 -91q0 -54 -38.5 -87.5t-101.5 -33.5q-68 0 -105 32t-36 92h73q0 -56 66 -56q29 0 45.5 14t16.5 39q0 20 -12.5 33t-33.5 17q-23 4 -66 4v63h17q88 0 88 53q0 19 -13.5 31t-36.5 12
q-47 0 -55 -47h-69z" />
    <glyph glyph-name="acute" unicode="&#xb4;" 
d="M297 699h152l-186 -163h-93z" />
    <glyph glyph-name="uni00B5" unicode="&#xb5;" 
d="M28 480h123v-256q0 -49 7 -73.5t27 -42.5q29 -26 67 -26q46 0 73 37q14 19 19.5 42.5t5.5 66.5v252h123v-480h-123v59q-19 -37 -42.5 -53t-58.5 -16q-32 0 -55 14.5t-43 47.5v-225h-123v653z" />
    <glyph glyph-name="paragraph" unicode="&#xb6;" horiz-adv-x="657" 
d="M218 321q-5 -1 -8 -1h-5q-39 0 -72 12.5t-56.5 35t-36.5 54t-13 69.5q0 51 22.5 91t64.5 60q23 12 61 18.5t82 6.5h327v-95h-72v-665h-104v665h-85v-665h-105v414z" />
    <glyph glyph-name="periodcentered" unicode="&#xb7;" horiz-adv-x="251" 
d="M127 328q15 0 28.5 -6.5t24 -17t16.5 -24.5t6 -29q0 -32 -22 -54t-54 -22t-54.5 22t-22.5 53q0 32 23 55t55 23z" />
    <glyph glyph-name="cedilla" unicode="&#xb8;" 
d="M268 0l-14 -45q91 -19 91 -93q0 -21 -8 -39.5t-22 -32t-33 -21.5t-41 -8q-43 0 -86 29v48q23 -11 37 -15.5t28 -4.5q23 0 36.5 14.5t13.5 37.5q0 25 -17 41t-44 16q-8 0 -14 -1t-17 -4l24 78h66z" />
    <glyph glyph-name="uni00B9" unicode="&#xb9;" horiz-adv-x="370" 
d="M76 582q43 0 65.5 17t30.5 53h57v-392h-82v277h-71v45z" />
    <glyph glyph-name="ordmasculine" unicode="&#xba;" 
d="M250 676q31 0 57.5 -11t45.5 -31t30 -47.5t11 -59.5q0 -33 -10.5 -60.5t-30 -47.5t-46.5 -31t-59 -11q-31 0 -57 11.5t-45 31.5t-30 47.5t-11 59.5t11 59.5t30 47.5t45.5 31t58.5 11zM250 615q-29 0 -47 -25t-18 -63t18 -63.5t46 -25.5q29 0 47 24.5t18 64.5
q0 39 -18 63.5t-46 24.5zM389 326v-52h-278v52h278z" />
    <glyph glyph-name="guillemotright" unicode="&#xbb;" horiz-adv-x="489" 
d="M164 478l109 -232l-109 -246h-104l90 246l-90 232h104zM353 478l109 -232l-109 -246h-104l90 246l-90 232h104z" />
    <glyph glyph-name="onequarter" unicode="&#xbc;" horiz-adv-x="876" 
d="M76 582q43 0 65.5 17t30.5 53h57v-392h-82v277h-71v45zM675 650l-375 -650h-98l375 650h98zM850 143v-63h-71v-85h-82v85h-167v61l155 251h92v-249h73zM701 302l-94 -159h94v159z" />
    <glyph glyph-name="onehalf" unicode="&#xbd;" horiz-adv-x="876" 
d="M76 582q43 0 65.5 17t30.5 53h57v-392h-82v277h-71v45zM675 650l-375 -650h-98l375 650h98zM566 278q-1 57 34 89.5t95 32.5q57 0 91.5 -29t34.5 -77q0 -14 -2.5 -26t-9.5 -25.5t-19.5 -30t-31.5 -39.5q-20 -23 -45.5 -51t-47.5 -50h159v-72h-265v63q57 62 88 96.5
t37 42.5q31 35 43 55t12 35q0 17 -13.5 28.5t-33.5 11.5q-25 0 -40 -14t-18 -40h-68z" />
    <glyph glyph-name="threequarters" unicode="&#xbe;" horiz-adv-x="876" 
d="M58 550q2 54 36.5 84.5t96.5 30.5q56 0 89 -28.5t33 -76.5q0 -61 -61 -85q67 -20 67 -91q0 -54 -38.5 -87.5t-101.5 -33.5q-68 0 -105 32t-36 92h73q0 -56 66 -56q29 0 45.5 14t16.5 39q0 20 -12.5 33t-33.5 17q-23 4 -66 4v63h17q88 0 88 53q0 19 -13.5 31t-36.5 12
q-47 0 -55 -47h-69zM675 650l-376 -650h-98l376 650h98zM849 143v-63h-71v-85h-82v85h-167v61l155 251h92v-249h73zM700 302l-94 -159h94v159z" />
    <glyph glyph-name="questiondown" unicode="&#xbf;" horiz-adv-x="417" 
d="M222 477q31 0 53.5 -22.5t22.5 -54.5q0 -33 -22 -54.5t-55 -21.5q-31 0 -53.5 22t-22.5 54q0 15 6.5 29t17 24.5t24.5 17t29 6.5zM280 252q0 -43 -1.5 -68.5t-7.5 -44.5t-19 -36.5t-36 -42.5q-18 -20 -29 -33t-17 -23t-8 -18.5t-2 -19.5q0 -24 16 -39t43 -15q66 0 69 81
h97q-2 -51 -10.5 -80.5t-30.5 -52.5q-50 -55 -143 -55q-80 0 -125 40.5t-45 111.5q0 21 3 37t12 32.5t24.5 36t40.5 47.5q20 22 31 35.5t16.5 25.5t7 25.5t1.5 34.5v12v9h113z" />
    <glyph glyph-name="Agrave" unicode="&#xc0;" horiz-adv-x="602" 
d="M365 667l227 -667h-133l-41 139h-235l-42 -139h-131l225 667h130zM300 520l-85 -272h171zM271 716l-203 163h151l166 -163h-114z" />
    <glyph glyph-name="Aacute" unicode="&#xc1;" horiz-adv-x="602" 
d="M365 667l227 -667h-133l-41 139h-235l-42 -139h-131l225 667h130zM300 520l-85 -272h171zM381 879h152l-203 -163h-115z" />
    <glyph glyph-name="Acircumflex" unicode="&#xc2;" horiz-adv-x="602" 
d="M365 667l227 -667h-133l-41 139h-235l-42 -139h-131l225 667h130zM300 520l-85 -272h171zM251 868h99l138 -141h-117l-70 78l-70 -78h-117z" />
    <glyph glyph-name="Atilde" unicode="&#xc3;" horiz-adv-x="602" 
d="M365 667l227 -667h-133l-41 139h-235l-42 -139h-131l225 667h130zM300 520l-85 -272h171zM132 747q31 106 99 106q25 0 74 -16q16 -5 26.5 -8t17.5 -4.5t12 -2t11 -0.5q15 0 27.5 9t25.5 31l51 -13q-11 -51 -38 -81t-62 -30q-26 0 -74 15q-17 6 -28 9t-18 5t-12 2.5
t-10 0.5q-29 0 -45 -37z" />
    <glyph glyph-name="Adieresis" unicode="&#xc4;" horiz-adv-x="602" 
d="M365 667l227 -667h-133l-41 139h-235l-42 -139h-131l225 667h130zM300 520l-85 -272h171zM209 871q30 0 51 -21.5t21 -52.5t-21 -52t-52 -21t-52.5 21.5t-21.5 51.5q0 31 21.5 52.5t53.5 21.5zM395 871q30 0 51 -21.5t21 -52.5q0 -32 -20.5 -52.5t-52.5 -20.5
q-31 0 -52.5 21.5t-21.5 51.5q0 31 22 52.5t53 21.5z" />
    <glyph glyph-name="Aring" unicode="&#xc5;" horiz-adv-x="602" 
d="M365 667l227 -667h-133l-41 139h-235l-42 -139h-131l225 667h130zM300 520l-85 -272h171zM302 905q20 0 37.5 -8t31 -21.5t21.5 -31.5t8 -38q0 -21 -8 -39t-21.5 -31.5t-31.5 -21.5t-38 -8t-38 8t-31.5 21.5t-21.5 31.5t-8 38q0 21 7.5 39t21 31.5t32 21.5t39.5 8z
M301 854q-21 0 -34.5 -13.5t-13.5 -35.5q0 -20 14 -34t34 -14t34 14t14 35q0 20 -14 34t-34 14z" />
    <glyph glyph-name="AE" unicode="&#xc6;" horiz-adv-x="916" 
d="M880 667v-109h-282v-160h257v-109h-257v-180h291v-109h-421v138h-238l-81 -138h-138l398 667h471zM468 550l-174 -303h174v303z" />
    <glyph glyph-name="Ccedilla" unicode="&#xc7;" horiz-adv-x="599" 
d="M334 -52q106 -21 106 -108q0 -25 -9.5 -46.5t-26 -37.5t-38.5 -25t-48 -9q-50 0 -99 34v56q25 -13 42.5 -18.5t34.5 -5.5q25 0 41 17t16 44q0 30 -19.5 48t-52.5 18q-12 0 -17.5 -0.5t-17.5 -4.5l25 82q-25 7 -42 13.5t-30 12.5t-23 13t-22 16q-118 97 -118 286
q0 90 27 160.5t79 116.5q38 33 88 51.5t103 18.5q65 0 117 -27t81 -75q15 -26 23.5 -56t10.5 -72h-111q-9 58 -41 88.5t-83 30.5q-37 0 -66.5 -16.5t-50.5 -47.5t-32.5 -75t-11.5 -98t11.5 -97.5t32.5 -74t51 -47t68 -16.5q115 0 127 150h115q-5 -124 -62 -189.5t-166 -70.5
z" />
    <glyph glyph-name="Egrave" unicode="&#xc8;" horiz-adv-x="537" 
d="M473 400v-109h-265v-182h303v-109h-431v667h420v-109h-292v-158h265zM271 716l-203 163h152l166 -163h-115z" />
    <glyph glyph-name="Eacute" unicode="&#xc9;" horiz-adv-x="537" 
d="M473 400v-109h-265v-182h302v-109h-430v667h419v-109h-291v-158h265zM359 879h152l-203 -163h-115z" />
    <glyph glyph-name="Ecircumflex" unicode="&#xca;" horiz-adv-x="537" 
d="M473 400v-109h-265v-182h302v-109h-430v667h419v-109h-291v-158h265zM240 868h100l137 -141h-116l-71 78l-69 -78h-118z" />
    <glyph glyph-name="Edieresis" unicode="&#xcb;" horiz-adv-x="537" 
d="M473 400v-109h-265v-182h302v-109h-430v667h419v-109h-291v-158h265zM198 871q30 0 51 -21.5t21 -52.5q0 -32 -20.5 -52.5t-52.5 -20.5q-31 0 -52.5 21.5t-21.5 51.5q0 31 22 52.5t53 21.5zM384 871q29 0 51 -22t22 -52t-21.5 -51.5t-52.5 -21.5t-52 21t-21 52
q0 32 21 53t53 21z" />
    <glyph glyph-name="Igrave" unicode="&#xcc;" horiz-adv-x="288" 
d="M80 0v667h128v-667h-128zM114 716l-173 163h142l139 -163h-108z" />
    <glyph glyph-name="Iacute" unicode="&#xcd;" horiz-adv-x="288" 
d="M80 0v667h128v-667h-128zM206 879h142l-173 -163h-108z" />
    <glyph glyph-name="Icircumflex" unicode="&#xce;" horiz-adv-x="288" 
d="M80 0v667h128v-667h-128zM94 868h99l115 -141h-114l-50 81l-50 -81h-114z" />
    <glyph glyph-name="Idieresis" unicode="&#xcf;" horiz-adv-x="288" 
d="M80 0v667h128v-667h-128zM57 866q29 0 49 -20.5t20 -49.5t-20.5 -49.5t-49.5 -20.5t-49.5 20.5t-20.5 49.5t20.5 49.5t50.5 20.5zM234 866q28 0 48.5 -20.5t20.5 -49.5t-20.5 -49.5t-49.5 -20.5t-49.5 20.5t-20.5 49.5q0 30 20.5 50t50.5 20z" />
    <glyph glyph-name="Eth" unicode="&#xd0;" horiz-adv-x="646" 
d="M243 667q75 0 123.5 -8t85.5 -26q74 -38 116.5 -117.5t42.5 -181.5q0 -48 -10 -93t-29 -83t-45 -68.5t-59 -48.5q-22 -12 -43 -20t-48.5 -12.5t-64 -6.5t-89.5 -2h-143v297h-60v100h60v270h163zM267 109q28 0 49 1.5t37.5 5t29.5 9.5t25 15q34 25 53 77t19 118
t-19.5 115.5t-56.5 75.5q-14 10 -27.5 16.5t-32 10t-44 4.5t-64.5 1h-28v-161h134v-100h-134v-188h59z" />
    <glyph glyph-name="Ntilde" unicode="&#xd1;" horiz-adv-x="689" 
d="M217 667l270 -470v470h122v-667h-129l-278 470v-470h-122v667h137zM182 747q31 106 99 106q26 0 75 -16q16 -5 26 -8t17 -4.5t12 -2t11 -0.5q16 0 28 9t26 31l51 -13q-11 -51 -38 -81t-62 -30q-26 0 -74 15q-18 6 -29 9t-18 5t-11.5 2.5t-9.5 0.5q-29 0 -45 -37z" />
    <glyph glyph-name="Ograve" unicode="&#xd2;" horiz-adv-x="673" 
d="M337 680q70 0 125.5 -24t94.5 -68.5t60 -108.5t21 -144q0 -82 -21 -146.5t-60 -109.5t-95.5 -68.5t-127.5 -23.5q-46 0 -89 12.5t-77 35.5q-66 44 -99 119.5t-33 179.5q0 103 34 179.5t98 118.5q72 48 169 48zM337 570q-81 0 -124.5 -61.5t-43.5 -174.5q0 -112 44 -174.5
t122 -62.5q82 0 126 61.5t44 176.5q0 112 -44 173.5t-124 61.5zM318 716l-203 163h152l166 -163h-115z" />
    <glyph glyph-name="Oacute" unicode="&#xd3;" horiz-adv-x="673" 
d="M337 680q70 0 125.5 -24t94.5 -68.5t60 -108.5t21 -144q0 -82 -21 -146.5t-60 -109.5t-95.5 -68.5t-127.5 -23.5q-46 0 -89 12.5t-77 35.5q-66 44 -99 119.5t-33 179.5q0 103 34 179.5t98 118.5q72 48 169 48zM337 570q-81 0 -124.5 -61.5t-43.5 -174.5q0 -112 44 -174.5
t122 -62.5q82 0 126 61.5t44 176.5q0 112 -44 173.5t-124 61.5zM408 879h152l-203 -163h-115z" />
    <glyph glyph-name="Ocircumflex" unicode="&#xd4;" horiz-adv-x="673" 
d="M337 680q70 0 125.5 -24t94.5 -68.5t60 -108.5t21 -144q0 -82 -21 -146.5t-60 -109.5t-95.5 -68.5t-127.5 -23.5q-46 0 -89 12.5t-77 35.5q-66 44 -99 119.5t-33 179.5q0 103 34 179.5t98 118.5q72 48 169 48zM337 570q-81 0 -124.5 -61.5t-43.5 -174.5q0 -112 44 -174.5
t122 -62.5q82 0 126 61.5t44 176.5q0 112 -44 173.5t-124 61.5zM287 868h99l138 -141h-116l-71 78l-69 -78h-118z" />
    <glyph glyph-name="Otilde" unicode="&#xd5;" horiz-adv-x="673" 
d="M337 680q70 0 125.5 -24t94.5 -68.5t60 -108.5t21 -144q0 -82 -21 -146.5t-60 -109.5t-95.5 -68.5t-127.5 -23.5q-46 0 -89 12.5t-77 35.5q-66 44 -99 119.5t-33 179.5q0 103 34 179.5t98 118.5q72 48 169 48zM337 570q-81 0 -124.5 -61.5t-43.5 -174.5q0 -112 44 -174.5
t122 -62.5q82 0 126 61.5t44 176.5q0 112 -44 173.5t-124 61.5zM171 747q31 106 99 106q26 0 75 -16q16 -5 26 -8t17 -4.5t12 -2t11 -0.5q16 0 28 9t26 31l51 -13q-11 -51 -38 -81t-62 -30q-26 0 -74 15q-18 6 -29 9t-18 5t-11.5 2.5t-9.5 0.5q-29 0 -45 -37z" />
    <glyph glyph-name="Odieresis" unicode="&#xd6;" horiz-adv-x="673" 
d="M337 680q70 0 125.5 -24t94.5 -68.5t60 -108.5t21 -144q0 -82 -21 -146.5t-60 -109.5t-95.5 -68.5t-127.5 -23.5q-46 0 -89 12.5t-77 35.5q-66 44 -99 119.5t-33 179.5q0 103 34 179.5t98 118.5q72 48 169 48zM337 570q-81 0 -124.5 -61.5t-43.5 -174.5q0 -112 44 -174.5
t122 -62.5q82 0 126 61.5t44 176.5q0 112 -44 173.5t-124 61.5zM245 871q30 0 51 -21.5t21 -52.5q0 -32 -20.5 -52.5t-52.5 -20.5q-31 0 -52.5 21.5t-21.5 51.5q0 31 22 52.5t53 21.5zM431 871q30 0 51 -21.5t21 -52.5q0 -32 -20.5 -52.5t-52.5 -20.5q-31 0 -52.5 21.5
t-21.5 51.5q0 31 22 52.5t53 21.5z" />
    <glyph glyph-name="multiply" unicode="&#xd7;" horiz-adv-x="570" 
d="M496 190l-67 -66l-142 141l-146 -146l-68 68l147 146l-142 142l66 66l142 -141l143 142l67 -68l-143 -142z" />
    <glyph glyph-name="Oslash" unicode="&#xd8;" horiz-adv-x="673" 
d="M567 670h90l-81 -101l6 -12l19 -34q16 -28 26 -79t10 -105q0 -82 -20.5 -147t-59.5 -110.5t-94.5 -69.5t-125.5 -24q-29 0 -53.5 3t-47 10t-45 18.5t-46.5 27.5l-42 -50h-90l82 103l-7 13q-15 29 -25.5 54t-16.5 49.5t-8.5 51.5t-2.5 60q0 81 21 146t60 110.5t94.5 70
t124.5 24.5q120 0 190 -61zM442 528q-12 12 -23 20.5t-23 13t-26 6.5t-32 2q-101 0 -143 -98q-5 -12 -10 -30t-9 -39t-6 -41.5t-2 -36.5q0 -38 4.5 -65t15.5 -52zM225 139q19 -20 47.5 -31t62.5 -11q80 0 124.5 65t44.5 182q0 18 -1 33t-3 29.5t-6 29t-10 31.5z" />
    <glyph glyph-name="Ugrave" unicode="&#xd9;" horiz-adv-x="675" 
d="M201 667v-383q0 -25 0.5 -42.5t2 -30.5t3.5 -22.5t6 -19.5q14 -35 45.5 -53t78.5 -18q109 0 130 92q4 16 5 35t1 59v383h128v-385q0 -36 -1 -61.5t-4 -44.5t-8 -34t-13 -31q-29 -59 -91 -91.5t-147 -32.5t-147 32.5t-91 91.5q-8 16 -13 31t-8 34t-4 44.5t-1 61.5v385h128
zM321 716l-203 163h152l166 -163h-115z" />
    <glyph glyph-name="Uacute" unicode="&#xda;" horiz-adv-x="675" 
d="M201 667v-383q0 -25 0.5 -42.5t2 -30.5t3.5 -22.5t6 -19.5q14 -35 45.5 -53t78.5 -18q109 0 130 92q4 16 5 35t1 59v383h128v-385q0 -36 -1 -61.5t-4 -44.5t-8 -34t-13 -31q-29 -59 -91 -91.5t-147 -32.5t-147 32.5t-91 91.5q-8 16 -13 31t-8 34t-4 44.5t-1 61.5v385h128
zM405 879h151l-203 -163h-115z" />
    <glyph glyph-name="Ucircumflex" unicode="&#xdb;" horiz-adv-x="675" 
d="M201 667v-383q0 -25 0.5 -42.5t2 -30.5t3.5 -22.5t6 -19.5q14 -35 45.5 -53t78.5 -18q109 0 130 92q4 16 5 35t1 59v383h128v-385q0 -36 -1 -61.5t-4 -44.5t-8 -34t-13 -31q-29 -59 -91 -91.5t-147 -32.5t-147 32.5t-91 91.5q-8 16 -13 31t-8 34t-4 44.5t-1 61.5v385h128
zM287 868h99l138 -141h-116l-71 78l-70 -78h-117z" />
    <glyph glyph-name="Udieresis" unicode="&#xdc;" horiz-adv-x="675" 
d="M201 667v-383q0 -25 0.5 -42.5t2 -30.5t3.5 -22.5t6 -19.5q14 -35 45.5 -53t78.5 -18q109 0 130 92q4 16 5 35t1 59v383h128v-385q0 -36 -1 -61.5t-4 -44.5t-8 -34t-13 -31q-29 -59 -91 -91.5t-147 -32.5t-147 32.5t-91 91.5q-8 16 -13 31t-8 34t-4 44.5t-1 61.5v385h128
zM245 871q30 0 51 -21.5t21 -52.5q0 -32 -20.5 -52.5t-52.5 -20.5q-31 0 -52.5 21.5t-21.5 51.5q0 31 22 52.5t53 21.5zM431 871q30 0 51 -21.5t21 -52.5q0 -32 -20.5 -52.5t-52.5 -20.5q-31 0 -52.5 21.5t-21.5 51.5q0 31 22 52.5t53 21.5z" />
    <glyph glyph-name="Yacute" unicode="&#xdd;" horiz-adv-x="562" 
d="M143 667l139 -266l139 266h141l-217 -404v-263h-128v263l-217 404h143zM350 879h152l-203 -163h-115z" />
    <glyph glyph-name="Thorn" unicode="&#xde;" horiz-adv-x="565" 
d="M208 667v-78h28q37 0 65 -1t50 -3.5t40 -6t35 -9.5q58 -20 90.5 -70.5t32.5 -121.5t-35 -123t-95 -69q-14 -4 -30 -6.5t-36 -4t-45.5 -2.5t-59.5 -1h-40v-171h-128v667h128zM249 280q28 0 46 0.5t30.5 1.5t21.5 3.5t18 5.5q26 9 39.5 32t13.5 55q0 63 -45 86
q-19 9 -44 12.5t-74 3.5h-47v-200h41z" />
    <glyph glyph-name="germandbls" unicode="&#xdf;" horiz-adv-x="544" 
d="M57 418q0 43 1 70.5t4 46.5t8 32t14 28q25 39 72 61t107 22q44 0 80.5 -12t62.5 -34t40.5 -53t14.5 -68q0 -97 -93 -132q35 -10 56.5 -21.5t39.5 -30.5q23 -24 35 -59t12 -77q0 -43 -13.5 -79t-37 -62.5t-55.5 -41.5t-70 -15q-44 0 -80 21v107q34 -20 61 -20
q33 0 51 21.5t18 61.5q0 63 -37.5 98.5t-103.5 35.5h-14v106h21q38 -1 63 21t25 56q0 35 -21.5 56.5t-56.5 21.5q-56 0 -73 -47q-3 -7 -4.5 -14.5t-2 -18t-1 -26.5t-0.5 -41v-432h-123v418z" />
    <glyph glyph-name="agrave" unicode="&#xe0;" horiz-adv-x="512" 
d="M57 333q5 41 17.5 65.5t38.5 44.5q27 20 66 31t85 11q62 0 104 -18.5t59 -52.5q11 -21 15 -46.5t4 -70.5v-191q0 -43 3.5 -65t12.5 -41h-112q-4 14 -5 24t-1 30q-39 -64 -131 -64q-81 0 -127 36t-46 99q0 49 28 85.5t80 56.5q16 6 28 10t29.5 8t45.5 9t76 14v8
q0 38 -17 55t-55 17q-71 0 -81 -55h-117zM327 226q-30 -4 -52 -7.5t-37 -7t-25.5 -8t-18.5 -10.5q-28 -20 -28 -52q0 -25 20 -41t52 -16q29 0 50 12t30 34q5 11 7 27t2 42v27zM247 536l-186 163h152l127 -163h-93z" />
    <glyph glyph-name="aacute" unicode="&#xe1;" horiz-adv-x="512" 
d="M57 333q5 41 17.5 65.5t38.5 44.5q27 20 66 31t85 11q62 0 104 -18.5t59 -52.5q11 -21 15 -46.5t4 -70.5v-191q0 -43 3.5 -65t12.5 -41h-112q-4 14 -5 24t-1 30q-39 -64 -131 -64q-81 0 -127 36t-46 99q0 49 28 85.5t80 56.5q16 6 28 10t29.5 8t45.5 9t76 14v8
q0 38 -17 55t-55 17q-71 0 -81 -55h-117zM327 226q-30 -4 -52 -7.5t-37 -7t-25.5 -8t-18.5 -10.5q-28 -20 -28 -52q0 -25 20 -41t52 -16q29 0 50 12t30 34q5 11 7 27t2 42v27zM301 699h152l-186 -163h-93z" />
    <glyph glyph-name="acircumflex" unicode="&#xe2;" horiz-adv-x="512" 
d="M57 333q5 41 17.5 65.5t38.5 44.5q27 20 66 31t85 11q62 0 104 -18.5t59 -52.5q11 -21 15 -46.5t4 -70.5v-191q0 -43 3.5 -65t12.5 -41h-112q-4 14 -5 24t-1 30q-39 -64 -131 -64q-81 0 -127 36t-46 99q0 49 28 85.5t80 56.5q16 6 28 10t29.5 8t45.5 9t76 14v8
q0 38 -17 55t-55 17q-71 0 -81 -55h-117zM327 226q-30 -4 -52 -7.5t-37 -7t-25.5 -8t-18.5 -10.5q-28 -20 -28 -52q0 -25 20 -41t52 -16q29 0 50 12t30 34q5 11 7 27t2 42v27zM210 693h99l121 -152h-111l-60 86l-58 -86h-112z" />
    <glyph glyph-name="atilde" unicode="&#xe3;" horiz-adv-x="512" 
d="M57 333q5 41 17.5 65.5t38.5 44.5q27 20 66 31t85 11q62 0 104 -18.5t59 -52.5q11 -21 15 -46.5t4 -70.5v-191q0 -43 3.5 -65t12.5 -41h-112q-4 14 -5 24t-1 30q-39 -64 -131 -64q-81 0 -127 36t-46 99q0 49 28 85.5t80 56.5q16 6 28 10t29.5 8t45.5 9t76 14v8
q0 38 -17 55t-55 17q-71 0 -81 -55h-117zM327 226q-30 -4 -52 -7.5t-37 -7t-25.5 -8t-18.5 -10.5q-28 -20 -28 -52q0 -25 20 -41t52 -16q29 0 50 12t30 34q5 11 7 27t2 42v27zM104 567q28 106 89 106q12 0 27.5 -3.5t39.5 -11.5q28 -11 39 -13.5t21 -2.5q25 0 48 40l46 -13
q-11 -52 -34.5 -81.5t-55.5 -29.5q-10 0 -28 4t-39 12q-15 5 -24.5 8.5t-16 5t-10.5 2t-9 0.5q-28 0 -41 -37z" />
    <glyph glyph-name="adieresis" unicode="&#xe4;" horiz-adv-x="512" 
d="M57 333q5 41 17.5 65.5t38.5 44.5q27 20 66 31t85 11q62 0 104 -18.5t59 -52.5q11 -21 15 -46.5t4 -70.5v-191q0 -43 3.5 -65t12.5 -41h-112q-4 14 -5 24t-1 30q-39 -64 -131 -64q-81 0 -127 36t-46 99q0 49 28 85.5t80 56.5q16 6 28 10t29.5 8t45.5 9t76 14v8
q0 38 -17 55t-55 17q-71 0 -81 -55h-117zM327 226q-30 -4 -52 -7.5t-37 -7t-25.5 -8t-18.5 -10.5q-28 -20 -28 -52q0 -25 20 -41t52 -16q29 0 50 12t30 34q5 11 7 27t2 42v27zM170 684q28 0 48 -20t20 -48q0 -27 -20.5 -47.5t-47.5 -20.5q-28 0 -48 20t-20 48
q0 29 19.5 48.5t48.5 19.5zM348 684q28 0 47.5 -19.5t19.5 -48.5q0 -28 -20 -48t-48 -20q-27 0 -47.5 20.5t-20.5 47.5q0 29 20 48.5t49 19.5z" />
    <glyph glyph-name="aring" unicode="&#xe5;" horiz-adv-x="512" 
d="M57 333q5 41 17.5 65.5t38.5 44.5q27 20 66 31t85 11q62 0 104 -18.5t59 -52.5q11 -21 15 -46.5t4 -70.5v-191q0 -43 3.5 -65t12.5 -41h-112q-4 14 -5 24t-1 30q-39 -64 -131 -64q-81 0 -127 36t-46 99q0 49 28 85.5t80 56.5q16 6 28 10t29.5 8t45.5 9t76 14v8
q0 38 -17 55t-55 17q-71 0 -81 -55h-117zM327 226q-30 -4 -52 -7.5t-37 -7t-25.5 -8t-18.5 -10.5q-28 -20 -28 -52q0 -25 20 -41t52 -16q29 0 50 12t30 34q5 11 7 27t2 42v27zM261 722q20 0 38 -8t31.5 -21.5t21 -31.5t7.5 -38q0 -42 -28.5 -71t-70.5 -29q-20 0 -38 8
t-31.5 21.5t-21.5 31.5t-8 38q0 21 8 39t21.5 31.5t31.5 21.5t39 8zM261 671q-21 0 -35 -13.5t-14 -35.5q0 -20 14 -34t34 -14q21 0 34.5 14t13.5 35q0 20 -13.5 34t-33.5 14z" />
    <glyph glyph-name="ae" unicode="&#xe6;" horiz-adv-x="817" 
d="M449 208q1 -59 33.5 -91.5t90.5 -32.5q35 0 56.5 13t35.5 42l109 -4q-14 -69 -67.5 -108.5t-131.5 -39.5q-135 0 -194 99q-20 -51 -60 -75t-106 -24q-81 0 -127.5 37t-46.5 100q0 80 73 125t210 48v23q0 38 -15.5 54t-51.5 16q-67 0 -80 -67h-120q8 81 60 123t146 42
q55 0 89 -13.5t63 -46.5q35 32 69.5 46t79.5 14q51 0 91.5 -18.5t69 -53t44 -84t15.5 -110.5v-14h-335zM654 296q-16 97 -95 97q-42 0 -68.5 -24.5t-35.5 -72.5h199zM314 209h-6q-67 0 -104 -20t-37 -55q0 -26 17 -39.5t48 -13.5q92 0 92 121v7h-10z" />
    <glyph glyph-name="ccedilla" unicode="&#xe7;" horiz-adv-x="497" 
d="M264 -45q91 -19 91 -93q0 -21 -8 -39.5t-22 -32t-33 -21.5t-41 -8q-43 0 -86 29v48q22 -11 36.5 -15.5t28.5 -4.5q23 0 36.5 14.5t13.5 37.5q0 26 -17 41.5t-44 15.5q-8 0 -14 -1t-17 -3l20 68q-85 24 -130 86.5t-45 159.5q0 57 16.5 103.5t46.5 79t72.5 50.5t94.5 18
q105 0 159 -71q17 -21 24.5 -43t12.5 -57h-120q-10 73 -77 73q-48 0 -75.5 -40.5t-27.5 -112.5q0 -73 26.5 -112.5t75.5 -39.5q73 0 83 84h119q-3 -40 -18.5 -73.5t-40.5 -57.5t-59 -37.5t-73 -14.5z" />
    <glyph glyph-name="egrave" unicode="&#xe8;" horiz-adv-x="515" 
d="M156 208q3 -60 32.5 -91t82.5 -31q35 0 57 12.5t35 40.5l109 -5q-16 -69 -70.5 -108t-133.5 -39q-54 0 -97.5 17t-74 49t-47 77t-16.5 102q0 58 16.5 105t47 80.5t73 52t94.5 18.5q102 0 159.5 -68t57.5 -188v-24h-325zM357 298q-15 95 -94 95q-80 0 -104 -95h198z
M255 536l-186 163h152l127 -163h-93z" />
    <glyph glyph-name="eacute" unicode="&#xe9;" horiz-adv-x="515" 
d="M156 208q3 -60 32.5 -91t82.5 -31q35 0 57 12.5t35 40.5l109 -5q-16 -69 -70.5 -108t-133.5 -39q-54 0 -97.5 17t-74 49t-47 77t-16.5 102q0 58 16.5 105t47 80.5t73 52t94.5 18.5q102 0 159.5 -68t57.5 -188v-24h-325zM357 298q-15 95 -94 95q-80 0 -104 -95h198z
M308 699h152l-187 -163h-92z" />
    <glyph glyph-name="ecircumflex" unicode="&#xea;" horiz-adv-x="515" 
d="M156 208q3 -60 32.5 -91t82.5 -31q35 0 57 12.5t35 40.5l109 -5q-16 -69 -70.5 -108t-133.5 -39q-54 0 -97.5 17t-74 49t-47 77t-16.5 102q0 58 16.5 105t47 80.5t73 52t94.5 18.5q102 0 159.5 -68t57.5 -188v-24h-325zM357 298q-15 95 -94 95q-80 0 -104 -95h198z
M218 693h99l121 -152h-111l-60 86l-58 -86h-112z" />
    <glyph glyph-name="edieresis" unicode="&#xeb;" horiz-adv-x="515" 
d="M156 208q3 -60 32.5 -91t82.5 -31q35 0 57 12.5t35 40.5l109 -5q-16 -69 -70.5 -108t-133.5 -39q-54 0 -97.5 17t-74 49t-47 77t-16.5 102q0 58 16.5 105t47 80.5t73 52t94.5 18.5q102 0 159.5 -68t57.5 -188v-24h-325zM357 298q-15 95 -94 95q-80 0 -104 -95h198z
M179 684q28 0 47.5 -19.5t19.5 -48.5q0 -28 -20 -48t-48 -20q-27 0 -47.5 20.5t-20.5 47.5q0 29 20 48.5t49 19.5zM357 684q27 0 47 -20t20 -48q0 -27 -20 -47.5t-48 -20.5t-48 20t-20 48q0 29 20 48.5t49 19.5z" />
    <glyph glyph-name="igrave" unicode="&#xec;" horiz-adv-x="261" 
d="M192 475v-475h-123v475h123zM113 536l-156 163h142l100 -163h-86z" />
    <glyph glyph-name="iacute" unicode="&#xed;" horiz-adv-x="261" 
d="M192 475v-475h-123v475h123zM163 699h141l-156 -163h-86z" />
    <glyph glyph-name="icircumflex" unicode="&#xee;" horiz-adv-x="261" 
d="M192 475v-475h-123v475h123zM81 693h99l100 -152h-106l-43 89l-42 -89h-107z" />
    <glyph glyph-name="idieresis" unicode="&#xef;" horiz-adv-x="261" 
d="M192 475v-475h-123v475h123zM49 681q27 0 45.5 -18.5t18.5 -46.5q0 -26 -19 -45.5t-46 -19.5q-26 0 -45.5 19.5t-19.5 45.5q0 28 18.5 46.5t47.5 18.5zM213 681q27 0 45.5 -18.5t18.5 -46.5q0 -27 -19 -46t-46 -19q-26 0 -45.5 19.5t-19.5 45.5q0 27 19 46t47 19z" />
    <glyph glyph-name="eth" unicode="&#xf0;" horiz-adv-x="536" 
d="M350 673l41 -48l-72 -41q35 -35 62 -67.5t59 -76.5q62 -85 62 -197q0 -58 -16 -105.5t-46 -81t-72.5 -51.5t-94.5 -18q-53 0 -97.5 18t-76 51t-49 78.5t-17.5 100.5q0 52 16.5 96.5t45 77t67.5 51t84 18.5q21 0 33.5 -4t31.5 -17q-9 15 -16.5 26.5t-15 21t-16 19
t-19.5 21.5l-67 -39l-39 50l65 38l-46 46l60 40q10 -8 17 -13.5t13 -10.5t12 -10.5t15 -13.5zM269 388q-50 0 -80 -41.5t-30 -110.5q0 -68 30 -109.5t78 -41.5q49 0 79 41.5t30 109.5t-29.5 110t-77.5 42z" />
    <glyph glyph-name="ntilde" unicode="&#xf1;" horiz-adv-x="548" 
d="M173 475q10 -21 10 -61q53 71 141 71q45 0 81 -18.5t55 -50.5q7 -12 11 -23.5t6.5 -27t3.5 -37.5t1 -54v-274h-123v247q0 37 -2.5 57.5t-9.5 33.5q-19 39 -65 39q-26 0 -47.5 -14t-31.5 -37q-7 -14 -9 -31.5t-2 -51.5v-243h-123v305q0 43 -0.5 68.5t-2 42t-4.5 29
t-8 30.5h119zM110 567q28 106 89 106q12 0 27.5 -3.5t39.5 -11.5q28 -11 39 -13.5t20 -2.5q14 0 25 9t24 31l46 -13q-11 -52 -34.5 -81.5t-55.5 -29.5q-11 0 -29 4t-38 12q-15 5 -24.5 8.5t-16 5t-11 2t-9.5 0.5q-27 0 -41 -37z" />
    <glyph glyph-name="ograve" unicode="&#xf2;" horiz-adv-x="536" 
d="M268 488q51 0 94 -18.5t74 -52t48.5 -79.5t17.5 -101q0 -54 -17.5 -100t-48.5 -79.5t-74 -52t-94 -18.5q-52 0 -95.5 18.5t-74.5 52t-48 80.5t-17 103q0 54 17.5 99t49 78t74.5 51.5t94 18.5zM267 389q-49 0 -78.5 -41t-29.5 -109q0 -71 29 -112t80 -41q49 0 78.5 41
t29.5 110t-29.5 110.5t-79.5 41.5zM257 536l-186 163h151l128 -163h-93z" />
    <glyph glyph-name="oacute" unicode="&#xf3;" horiz-adv-x="536" 
d="M268 488q51 0 94 -18.5t74 -52t48.5 -79.5t17.5 -101q0 -54 -17.5 -100t-48.5 -79.5t-74 -52t-94 -18.5q-52 0 -95.5 18.5t-74.5 52t-48 80.5t-17 103q0 54 17.5 99t49 78t74.5 51.5t94 18.5zM267 389q-49 0 -78.5 -41t-29.5 -109q0 -71 29 -112t80 -41q49 0 78.5 41
t29.5 110t-29.5 110.5t-79.5 41.5zM314 699h151l-186 -163h-93z" />
    <glyph glyph-name="ocircumflex" unicode="&#xf4;" horiz-adv-x="536" 
d="M268 488q51 0 94 -18.5t74 -52t48.5 -79.5t17.5 -101q0 -54 -17.5 -100t-48.5 -79.5t-74 -52t-94 -18.5q-52 0 -95.5 18.5t-74.5 52t-48 80.5t-17 103q0 54 17.5 99t49 78t74.5 51.5t94 18.5zM267 389q-49 0 -78.5 -41t-29.5 -109q0 -71 29 -112t80 -41q49 0 78.5 41
t29.5 110t-29.5 110.5t-79.5 41.5zM218 693h99l121 -152h-111l-59 86l-59 -86h-112z" />
    <glyph glyph-name="otilde" unicode="&#xf5;" horiz-adv-x="536" 
d="M268 488q51 0 94 -18.5t74 -52t48.5 -79.5t17.5 -101q0 -54 -17.5 -100t-48.5 -79.5t-74 -52t-94 -18.5q-52 0 -95.5 18.5t-74.5 52t-48 80.5t-17 103q0 54 17.5 99t49 78t74.5 51.5t94 18.5zM267 389q-49 0 -78.5 -41t-29.5 -109q0 -71 29 -112t80 -41q49 0 78.5 41
t29.5 110t-29.5 110.5t-79.5 41.5zM117 567q28 106 89 106q12 0 28 -3.5t39 -11.5q29 -11 39.5 -13.5t20.5 -2.5q27 0 48 40l46 -13q-10 -52 -33.5 -81.5t-55.5 -29.5q-11 0 -29 4t-39 12q-15 5 -24.5 8.5t-16 5t-10.5 2t-9 0.5q-27 0 -41 -37z" />
    <glyph glyph-name="odieresis" unicode="&#xf6;" horiz-adv-x="536" 
d="M268 488q51 0 94 -18.5t74 -52t48.5 -79.5t17.5 -101t-17.5 -101t-48.5 -79t-74 -51.5t-94 -18.5q-52 0 -95.5 18.5t-74.5 52t-48 80t-17 103.5q0 54 17.5 99t49 78t74.5 51.5t94 18.5zM267 389q-49 0 -78.5 -41t-29.5 -109q0 -71 29 -112t80 -41q49 0 78.5 41t29.5 110
t-29.5 110.5t-79.5 41.5zM180 684q27 0 47 -20t20 -48q0 -27 -20.5 -47.5t-47.5 -20.5q-28 0 -48 20t-20 48q0 29 20 48.5t49 19.5zM357 684q28 0 47.5 -19.5t19.5 -48.5q0 -28 -20 -48t-48 -20q-27 0 -47.5 20.5t-20.5 47.5q0 29 20 48.5t49 19.5z" />
    <glyph glyph-name="divide" unicode="&#xf7;" horiz-adv-x="570" 
d="M286 242q29 0 48 -20t19 -49q0 -30 -19 -49t-49 -19q-28 0 -48.5 20t-20.5 48t20.5 48.5t49.5 20.5zM286 562q29 0 48 -19.5t19 -49.5q0 -29 -19 -48.5t-49 -19.5q-28 0 -48.5 20t-20.5 48q0 29 20.5 49t49.5 20zM523 380v-94h-475v94h475z" />
    <glyph glyph-name="oslash" unicode="&#xf8;" horiz-adv-x="536" 
d="M73 87q-12 22 -19.5 40t-12 35.5t-6.5 35t-2 38.5q0 55 17.5 101.5t48.5 80t74.5 52t95.5 18.5q20 0 35 -2t31 -7.5t34.5 -15.5t44.5 -26l42 43h88l-86 -92q21 -30 32.5 -69.5t11.5 -82.5q0 -54 -17.5 -100t-48.5 -79t-74.5 -51.5t-94.5 -18.5q-42 0 -76.5 12t-73.5 41
l-42 -43h-84zM332 360q-21 30 -63 30q-51 0 -80.5 -41.5t-29.5 -111.5q0 -19 1 -30t6 -31zM196 115q21 -19 34.5 -24.5t35.5 -5.5q50 0 80 41t30 110q0 19 -2 32t-9 35z" />
    <glyph glyph-name="ugrave" unicode="&#xf9;" horiz-adv-x="555" 
d="M188 475v-270q0 -59 18 -81q23 -26 63 -26q27 0 48.5 12t32.5 34q13 26 13 77v254h123v-328v-61t1.5 -36t3.5 -24t7 -26h-116q-4 8 -6.5 23t-3.5 32q-28 -35 -58.5 -50t-74.5 -15q-49 0 -88.5 20.5t-60.5 55.5q-25 41 -25 132v277h123zM264 536l-186 163h152l127 -163
h-93z" />
    <glyph glyph-name="uacute" unicode="&#xfa;" horiz-adv-x="555" 
d="M188 475v-270q0 -59 18 -81q23 -26 63 -26q27 0 48.5 12t32.5 34q13 26 13 77v254h123v-328v-61t1.5 -36t3.5 -24t7 -26h-116q-4 8 -6.5 23t-3.5 32q-28 -35 -58.5 -50t-74.5 -15q-49 0 -88.5 20.5t-60.5 55.5q-25 41 -25 132v277h123zM322 699h151l-186 -163h-93z" />
    <glyph glyph-name="ucircumflex" unicode="&#xfb;" horiz-adv-x="555" 
d="M188 475v-270q0 -59 18 -81q23 -26 63 -26q27 0 48.5 12t32.5 34q13 26 13 77v254h123v-328v-61t1.5 -36t3.5 -24t7 -26h-116q-4 8 -6.5 23t-3.5 32q-28 -35 -58.5 -50t-74.5 -15q-49 0 -88.5 20.5t-60.5 55.5q-25 41 -25 132v277h123zM226 693h99l121 -152h-111l-60 86
l-58 -86h-112z" />
    <glyph glyph-name="udieresis" unicode="&#xfc;" horiz-adv-x="555" 
d="M188 475v-270q0 -59 18 -81q23 -26 63 -26q27 0 48.5 12t32.5 34q13 26 13 77v254h123v-328v-61t1.5 -36t3.5 -24t7 -26h-116q-4 8 -6.5 23t-3.5 32q-28 -35 -58.5 -50t-74.5 -15q-49 0 -88.5 20.5t-60.5 55.5q-25 41 -25 132v277h123zM187 684q27 0 47.5 -20t20.5 -48
q0 -27 -20.5 -47.5t-48.5 -20.5t-47.5 20t-19.5 48q0 29 19.5 48.5t48.5 19.5zM365 684q28 0 47.5 -20t19.5 -48q0 -27 -20 -47.5t-48 -20.5t-48 20t-20 48q0 29 20 48.5t49 19.5z" />
    <glyph glyph-name="yacute" unicode="&#xfd;" horiz-adv-x="499" 
d="M146 475l106 -362l110 362h128l-161 -462q-12 -33 -18.5 -52t-12 -31t-10.5 -20.5t-13 -21.5q-29 -48 -75.5 -68.5t-125.5 -20.5h-18t-28 1v107q39 -1 65.5 1.5t43.5 10.5t28 22t19 37l-168 497h130zM296 699h152l-186 -163h-93z" />
    <glyph glyph-name="thorn" unicode="&#xfe;" horiz-adv-x="548" 
d="M69 671h123v-252q23 35 52 50.5t71 15.5q44 0 81 -18t63.5 -50t41 -77t14.5 -99q0 -55 -14.5 -101t-41 -79.5t-62.5 -52t-79 -18.5q-40 0 -69.5 14.5t-56.5 46.5v-248h-123v868zM292 382q-48 0 -75 -39t-27 -108q0 -66 27 -104t74 -38t73 38.5t26 107.5q0 32 -8.5 62
t-23.5 51q-22 30 -66 30z" />
    <glyph glyph-name="ydieresis" unicode="&#xff;" horiz-adv-x="499" 
d="M146 475l106 -362l110 362h128l-161 -462q-12 -33 -18.5 -52t-12 -31t-10.5 -20.5t-13 -21.5q-29 -48 -75.5 -68.5t-125.5 -20.5h-18t-28 1v107q39 -1 65.5 1.5t43.5 10.5t28 22t19 37l-168 497h130zM165 684q28 0 47.5 -19.5t19.5 -48.5q0 -28 -20 -48t-48 -20
q-27 0 -47.5 20.5t-20.5 47.5q0 29 20 48.5t49 19.5zM343 684q27 0 47 -20t20 -48q0 -27 -20 -47.5t-48 -20.5t-48 20t-20 48q0 29 20 48.5t49 19.5z" />
    <glyph glyph-name="Amacron" unicode="&#x100;" horiz-adv-x="602" 
d="M365 667l227 -667h-133l-41 139h-235l-42 -139h-131l225 667h130zM300 520l-85 -272h171zM459 832v-75h-316v75h316z" />
    <glyph glyph-name="amacron" unicode="&#x101;" horiz-adv-x="512" 
d="M57 333q5 41 17.5 65.5t38.5 44.5q27 20 66 31t85 11q62 0 104 -18.5t59 -52.5q11 -21 15 -46.5t4 -70.5v-191q0 -43 3.5 -65t12.5 -41h-112q-4 14 -5 24t-1 30q-39 -64 -131 -64q-81 0 -127 36t-46 99q0 49 28 85.5t80 56.5q16 6 28 10t29.5 8t45.5 9t76 14v8
q0 38 -17 55t-55 17q-71 0 -81 -55h-117zM327 226q-30 -4 -52 -7.5t-37 -7t-25.5 -8t-18.5 -10.5q-28 -20 -28 -52q0 -25 20 -41t52 -16q29 0 50 12t30 34q5 11 7 27t2 42v27zM404 652v-73h-289v73h289z" />
    <glyph glyph-name="Abreve" unicode="&#x102;" horiz-adv-x="602" 
d="M365 667l227 -667h-133l-41 139h-235l-42 -139h-131l225 667h130zM300 520l-85 -272h171zM201 869q20 -38 43.5 -54t56.5 -16t56 16t44 54h47q-8 -66 -47 -104t-100 -38q-60 0 -99.5 38t-47.5 104h47z" />
    <glyph glyph-name="abreve" unicode="&#x103;" horiz-adv-x="512" 
d="M57 333q5 41 17.5 65.5t38.5 44.5q27 20 66 31t85 11q62 0 104 -18.5t59 -52.5q11 -21 15 -46.5t4 -70.5v-191q0 -43 3.5 -65t12.5 -41h-112q-4 14 -5 24t-1 30q-39 -64 -131 -64q-81 0 -127 36t-46 99q0 49 28 85.5t80 56.5q16 6 28 10t29.5 8t45.5 9t76 14v8
q0 38 -17 55t-55 17q-71 0 -81 -55h-117zM327 226q-30 -4 -52 -7.5t-37 -7t-25.5 -8t-18.5 -10.5q-28 -20 -28 -52q0 -25 20 -41t52 -16q29 0 50 12t30 34q5 11 7 27t2 42v27zM175 683q18 -37 38 -53t49 -16q26 0 44 15.5t37 53.5h51q-8 -69 -42 -106.5t-89 -37.5
q-58 0 -94.5 38t-44.5 106h51z" />
    <glyph glyph-name="Aogonek" unicode="&#x104;" horiz-adv-x="602" 
d="M591 0q-41 -29 -64 -57.5t-22 -49.5q1 -44 50 -44q23 0 48 11v-55q-20 -11 -35.5 -14.5t-37.5 -3.5q-51 0 -82 28t-31 73q0 37 20 61t72 51h-50l-41 139h-235l-42 -139h-131l225 667h130zM300 520l-85 -272h170z" />
    <glyph glyph-name="aogonek" unicode="&#x105;" horiz-adv-x="512" 
d="M446 106q0 -43 3.5 -65.5t12.5 -40.5q-15 -12 -31 -27t-31 -31q-13 -14 -18 -24.5t-5 -22.5q0 -19 12.5 -29.5t34.5 -10.5q20 0 47 11v-52q-17 -9 -32 -12.5t-35 -3.5q-50 0 -79 25.5t-29 70.5q0 35 20 59.5t66 46.5h-32q-4 14 -5 24t-1 30q-39 -64 -131 -64
q-81 0 -127 36t-46 99q0 49 28 85.5t80 56.5q16 6 28 10t29.5 8t45.5 9t76 14v8q0 38 -17 55t-55 17q-71 0 -81 -55h-117q5 41 17.5 65.5t38.5 44.5q27 20 66 31t85 11q62 0 104 -18.5t59 -52.5q11 -21 15 -46.5t4 -70.5v-191zM327 226q-30 -4 -52 -7.5t-37 -7t-25.5 -8
t-18.5 -10.5q-28 -20 -28 -52q0 -25 20 -41t52 -16q29 0 50 12t30 34q5 11 7 27t2 42v27z" />
    <glyph glyph-name="Cacute" unicode="&#x106;" horiz-adv-x="599" 
d="M454 450q-10 58 -41.5 88.5t-82.5 30.5q-37 0 -67 -16.5t-51 -47.5t-32 -75t-11 -98q0 -109 43.5 -171.5t118.5 -62.5q116 0 128 149h114q-6 -129 -65 -194.5t-170 -65.5q-60 0 -111.5 19.5t-91.5 57.5q-99 93 -99 268q0 91 27 161.5t79 116.5q38 33 88 51.5t103 18.5
q65 0 116.5 -27t80.5 -75q16 -26 24 -56t11 -72h-111zM396 879h151l-202 -163h-115z" />
    <glyph glyph-name="cacute" unicode="&#x107;" horiz-adv-x="497" 
d="M339 318q-10 71 -77 71q-48 0 -75.5 -40.5t-27.5 -111.5q0 -73 26.5 -112t75.5 -39q73 0 83 83h119q-5 -78 -58 -130t-144 -52q-51 0 -93 18t-72 51t-46.5 79t-16.5 102q0 57 16.5 103.5t46.5 79t72.5 50.5t94.5 18q105 0 160 -70q16 -21 24 -43t13 -57h-121zM304 699
h152l-186 -163h-93z" />
    <glyph glyph-name="Ccircumflex" unicode="&#x108;" horiz-adv-x="599" 
d="M454 450q-10 58 -41.5 88.5t-82.5 30.5q-37 0 -67 -16.5t-51 -47.5t-32 -75t-11 -98q0 -109 43.5 -171.5t118.5 -62.5q116 0 128 149h114q-6 -129 -65 -194.5t-170 -65.5q-60 0 -111.5 19.5t-91.5 57.5q-99 93 -99 268q0 91 27 161.5t79 116.5q38 33 88 51.5t103 18.5
q65 0 116.5 -27t80.5 -75q16 -26 24 -56t11 -72h-111zM282 868h99l138 -141h-117l-70 78l-70 -78h-117z" />
    <glyph glyph-name="Cdotaccent" unicode="&#x10a;" horiz-adv-x="599" 
d="M454 450q-10 58 -41.5 88.5t-82.5 30.5q-37 0 -67 -16.5t-51 -47.5t-32 -75t-11 -98q0 -109 43.5 -171.5t118.5 -62.5q116 0 128 149h114q-6 -129 -65 -194.5t-170 -65.5q-60 0 -111.5 19.5t-91.5 57.5q-99 93 -99 268q0 91 27 161.5t79 116.5q38 33 88 51.5t103 18.5
q65 0 116.5 -27t80.5 -75q16 -26 24 -56t11 -72h-111zM333 876q32 0 54.5 -22.5t22.5 -56.5q0 -33 -22.5 -56t-55.5 -23t-56.5 23.5t-23.5 55.5q0 33 23.5 56t57.5 23z" />
    <glyph glyph-name="cdotaccent" unicode="&#x10b;" horiz-adv-x="497" 
d="M339 318q-10 71 -77 71q-48 0 -75.5 -40.5t-27.5 -111.5q0 -73 26.5 -112t75.5 -39q73 0 83 83h119q-5 -78 -58 -130t-144 -52q-51 0 -93 18t-72 51t-46.5 79t-16.5 102q0 57 16.5 103.5t46.5 79t72.5 50.5t94.5 18q105 0 160 -70q16 -21 24 -43t13 -57h-121zM264 684
q27 0 47 -20t20 -48q0 -27 -20.5 -47.5t-47.5 -20.5q-28 0 -48 20t-20 48q0 29 20 48.5t49 19.5z" />
    <glyph glyph-name="Ccaron" unicode="&#x10c;" horiz-adv-x="599" 
d="M454 450q-10 58 -41.5 88.5t-82.5 30.5q-37 0 -67 -16.5t-51 -47.5t-32 -75t-11 -98q0 -109 43.5 -171.5t118.5 -62.5q116 0 128 149h114q-6 -129 -65 -194.5t-170 -65.5q-60 0 -111.5 19.5t-91.5 57.5q-99 93 -99 268q0 91 27 161.5t79 116.5q38 33 88 51.5t103 18.5
q65 0 116.5 -27t80.5 -75q16 -26 24 -56t11 -72h-111zM381 727h-99l-137 141h116l70 -78l70 78h118z" />
    <glyph glyph-name="ccaron" unicode="&#x10d;" horiz-adv-x="497" 
d="M339 318q-10 71 -77 71q-48 0 -75.5 -40.5t-27.5 -111.5q0 -73 26.5 -112t75.5 -39q73 0 83 83h119q-5 -78 -58 -130t-144 -52q-51 0 -93 18t-72 51t-46.5 79t-16.5 102q0 57 16.5 103.5t46.5 79t72.5 50.5t94.5 18q105 0 160 -70q16 -21 24 -43t13 -57h-121zM313 541
h-99l-121 152h111l59 -86l58 86h112z" />
    <glyph glyph-name="Dcaron" unicode="&#x10e;" horiz-adv-x="646" 
d="M243 667q75 0 123.5 -8t84.5 -26q75 -38 117 -117t42 -182q0 -48 -10 -93t-29 -83.5t-45 -68.5t-59 -48q-22 -12 -43 -20t-48 -12.5t-64 -6.5t-89 -2h-143v667h163zM267 109q55 0 85.5 6.5t54.5 24.5q35 26 53.5 77t18.5 118q0 68 -19.5 116.5t-56.5 74.5
q-14 10 -27.5 16.5t-32 10t-44 4.5t-63.5 1h-28v-449h59zM358 727h-99l-138 141h117l70 -78l70 78h118z" />
    <glyph glyph-name="dcaron" unicode="&#x10f;" horiz-adv-x="655" 
d="M479 150q0 -60 2 -92.5t7 -57.5h-115q-2 15 -3 23t-1 19v11t1 13q-23 -41 -55 -58.5t-80 -17.5q-45 0 -82 17.5t-64 49.5t-41.5 77t-14.5 99q0 55 15 101t41.5 79.5t63 52.5t80.5 19q42 0 69.5 -14t53.5 -48v248h123v-521zM261 382q-48 0 -75.5 -39.5t-27.5 -109.5
q0 -65 26.5 -102.5t71.5 -37.5q48 0 75 38t27 107t-25.5 106.5t-71.5 37.5zM549 437q21 26 34.5 57.5t14.5 57.5q-66 10 -66 62q0 28 20.5 47t49.5 19q33 0 53 -24.5t20 -65.5q0 -69 -69 -153h-57z" />
    <glyph glyph-name="Dcroat" unicode="&#x110;" horiz-adv-x="646" 
d="M243 667q75 0 123.5 -8t85.5 -26q74 -38 116.5 -117.5t42.5 -181.5q0 -48 -10 -93t-29 -83t-45 -68.5t-59 -48.5q-22 -12 -43 -20t-48.5 -12.5t-64 -6.5t-89.5 -2h-143v297h-60v100h60v270h163zM267 109q28 0 49 1.5t37.5 5t29.5 9.5t25 15q34 25 53 77t19 118
t-19.5 115.5t-56.5 75.5q-14 10 -27.5 16.5t-32 10t-44 4.5t-64.5 1h-28v-161h134v-100h-134v-188h59z" />
    <glyph glyph-name="dcroat" unicode="&#x111;" horiz-adv-x="548" 
d="M479 608h60v-80h-60v-378q0 -60 2 -92.5t7 -57.5h-115q-2 15 -3 23t-1 19v11t1 13q-23 -41 -55 -58.5t-80 -17.5q-45 0 -82 17.5t-64 49.5t-41.5 77t-14.5 99q0 66 22.5 122.5t61.5 87.5q23 18 55 28.5t64 10.5q73 0 120 -66v112h-120v80h120v63h123v-63zM261 383
q-48 0 -75.5 -40.5t-27.5 -109.5q0 -65 26.5 -102.5t71.5 -37.5q48 0 75 38t27 107q0 68 -26 106.5t-71 38.5z" />
    <glyph glyph-name="Emacron" unicode="&#x112;" horiz-adv-x="537" 
d="M473 400v-109h-265v-182h302v-109h-430v667h419v-109h-291v-158h265zM448 832v-75h-316v75h316z" />
    <glyph glyph-name="emacron" unicode="&#x113;" horiz-adv-x="515" 
d="M156 208q3 -60 32.5 -91t82.5 -31q35 0 57 12.5t35 40.5l109 -5q-16 -69 -70.5 -108t-133.5 -39q-54 0 -97.5 17t-74 49t-47 77t-16.5 102q0 58 16.5 105t47 80.5t73 52t94.5 18.5q102 0 159.5 -68t57.5 -188v-24h-325zM357 298q-15 95 -94 95q-80 0 -104 -95h198z
M412 652v-73h-289v73h289z" />
    <glyph glyph-name="Ebreve" unicode="&#x114;" horiz-adv-x="537" 
d="M473 400v-109h-265v-182h302v-109h-430v667h419v-109h-291v-158h265zM190 869q21 -38 44 -54t56 -16t56.5 16t43.5 54h47q-8 -66 -47 -104t-100 -38q-60 0 -99.5 38t-47.5 104h47z" />
    <glyph glyph-name="ebreve" unicode="&#x115;" horiz-adv-x="515" 
d="M156 208q3 -60 32.5 -91t82.5 -31q35 0 57 12.5t35 40.5l109 -5q-16 -69 -70.5 -108t-133.5 -39q-54 0 -97.5 17t-74 49t-47 77t-16.5 102q0 58 16.5 105t47 80.5t73 52t94.5 18.5q102 0 159.5 -68t57.5 -188v-24h-325zM357 298q-15 95 -94 95q-80 0 -104 -95h198z
M183 683q18 -37 38 -53t49 -16q26 0 44 15.5t37 53.5h51q-8 -69 -42 -106.5t-89 -37.5q-58 0 -94.5 38t-44.5 106h51z" />
    <glyph glyph-name="Edotaccent" unicode="&#x116;" horiz-adv-x="537" 
d="M473 400v-109h-265v-182h302v-109h-430v667h419v-109h-291v-158h265zM291 876q33 0 55.5 -23t22.5 -56t-23 -56t-56 -23q-32 0 -55.5 23.5t-23.5 55.5q0 34 23 56.5t57 22.5z" />
    <glyph glyph-name="edotaccent" unicode="&#x117;" horiz-adv-x="515" 
d="M156 208q3 -60 32.5 -91t82.5 -31q35 0 57 12.5t35 40.5l109 -5q-16 -69 -70.5 -108t-133.5 -39q-54 0 -97.5 17t-74 49t-47 77t-16.5 102q0 58 16.5 105t47 80.5t73 52t94.5 18.5q102 0 159.5 -68t57.5 -188v-24h-325zM357 298q-15 95 -94 95q-80 0 -104 -95h198z
M267 684q28 0 47.5 -19.5t19.5 -48.5q0 -28 -20 -48t-48 -20q-27 0 -47.5 20.5t-20.5 47.5q0 29 20 48.5t49 19.5z" />
    <glyph glyph-name="Eogonek" unicode="&#x118;" horiz-adv-x="537" 
d="M510 0q-16 -11 -32.5 -26.5t-32.5 -34.5q-22 -25 -22 -47q0 -20 13.5 -31.5t37.5 -11.5q22 0 48 11v-55q-20 -11 -36 -14.5t-37 -3.5q-50 0 -82 28t-32 73q0 70 94 112h-349v667h419v-109h-291v-158h265v-109h-265v-182h302v-109z" />
    <glyph glyph-name="eogonek" unicode="&#x119;" horiz-adv-x="515" 
d="M429 -186q-17 -9 -31.5 -12.5t-34.5 -3.5q-48 0 -78.5 25.5t-30.5 67.5q0 29 14.5 51t51.5 50q-17 -3 -28 -4t-26 -1q-53 0 -96 17.5t-73.5 49.5t-47 77t-16.5 101q0 58 16.5 105t47 80.5t73 52t94.5 18.5q120 0 178 -95q22 -35 30.5 -76t8.5 -109h-325q3 -60 32.5 -91
t83.5 -31q35 0 56.5 12.5t34.5 40.5l109 -5q-3 -14 -7 -24.5t-10 -21.5t-15 -23t-22 -28q-17 -20 -28 -32.5t-17.5 -22t-11 -17t-9.5 -16.5q-17 -31 -17 -49q0 -45 47 -45q20 0 47 11v-52zM357 298q-13 95 -94 95q-80 0 -104 -95h198z" />
    <glyph glyph-name="Ecaron" unicode="&#x11a;" horiz-adv-x="537" 
d="M473 400v-109h-265v-182h302v-109h-430v667h419v-109h-291v-158h265zM340 727h-99l-138 141h117l70 -78l70 78h117z" />
    <glyph glyph-name="ecaron" unicode="&#x11b;" horiz-adv-x="515" 
d="M156 208q3 -60 32.5 -91t82.5 -31q35 0 57 12.5t35 40.5l109 -5q-16 -69 -70.5 -108t-133.5 -39q-54 0 -97.5 17t-74 49t-47 77t-16.5 102q0 58 16.5 105t47 80.5t73 52t94.5 18.5q102 0 159.5 -68t57.5 -188v-24h-325zM357 298q-15 95 -94 95q-80 0 -104 -95h198z
M317 541h-99l-121 152h111l59 -86l59 86h112z" />
    <glyph glyph-name="Gcircumflex" unicode="&#x11c;" horiz-adv-x="641" 
d="M588 344v-277q-114 -80 -243 -80q-71 0 -128.5 24.5t-97.5 69.5t-61.5 109t-21.5 144q0 78 21.5 141.5t60.5 109t94 70.5t122 25q63 0 116 -23.5t85 -66.5q21 -29 31 -60t12 -78h-110q-18 117 -131 117q-79 0 -123.5 -62.5t-44.5 -174.5t45.5 -173t128.5 -61
q35 0 72.5 12t66.5 32v107h-133v95h239zM287 868h99l138 -141h-117l-70 78l-70 -78h-118z" />
    <glyph glyph-name="gcircumflex" unicode="&#x11d;" horiz-adv-x="530" 
d="M512 387h-97q12 -17 18.5 -40t6.5 -45q0 -42 -19.5 -72.5t-55.5 -46.5q-12 -5 -21 -8t-22 -5.5t-35 -4.5t-61 -6q-21 -2 -33.5 -9.5t-12.5 -18.5q0 -7 2.5 -11t12.5 -7t31 -5.5t58 -6.5q62 -6 95 -13t55 -19q28 -16 43.5 -45t15.5 -66q0 -76 -61.5 -117.5t-174.5 -41.5
q-111 0 -174 37t-63 103q0 41 22.5 67.5t73.5 43.5q-29 11 -41 24t-12 33q0 24 18.5 41t65.5 35q-42 21 -61.5 53.5t-19.5 81.5q0 38 14 69t40 52.5t62.5 33.5t81.5 12q21 0 42 -3t49 -10l157 3v-88zM256 392q-38 0 -61 -19.5t-23 -53.5q0 -32 22 -51t60 -19t60.5 19
t22.5 51t-23 52.5t-58 20.5zM242 9q-54 0 -85.5 -16t-31.5 -44q0 -29 35 -45t98 -16q57 0 87 15t30 44t-35 45.5t-98 16.5zM220 693h99l121 -152h-111l-60 86l-58 -86h-112z" />
    <glyph glyph-name="Gbreve" unicode="&#x11e;" horiz-adv-x="641" 
d="M588 344v-277q-114 -80 -243 -80q-71 0 -128.5 24.5t-97.5 69.5t-61.5 109t-21.5 144q0 78 21.5 141.5t60.5 109t94 70.5t122 25q63 0 116 -23.5t85 -66.5q21 -29 31 -60t12 -78h-110q-18 117 -131 117q-79 0 -123.5 -62.5t-44.5 -174.5t45.5 -173t128.5 -61
q35 0 72.5 12t66.5 32v107h-133v95h239zM238 869q20 -38 43.5 -54t56.5 -16t56 16t44 54h47q-8 -66 -47 -104t-100 -38q-60 0 -99.5 38t-47.5 104h47z" />
    <glyph glyph-name="gbreve" unicode="&#x11f;" horiz-adv-x="530" 
d="M512 387h-97q12 -17 18.5 -40t6.5 -45q0 -42 -19.5 -72.5t-55.5 -46.5q-12 -5 -21 -8t-22 -5.5t-35 -4.5t-61 -6q-21 -2 -33.5 -9.5t-12.5 -18.5q0 -7 2.5 -11t12.5 -7t31 -5.5t58 -6.5q62 -6 95 -13t55 -19q28 -16 43.5 -45t15.5 -66q0 -76 -61.5 -117.5t-174.5 -41.5
q-111 0 -174 37t-63 103q0 41 22.5 67.5t73.5 43.5q-29 11 -41 24t-12 33q0 24 18.5 41t65.5 35q-42 21 -61.5 53.5t-19.5 81.5q0 38 14 69t40 52.5t62.5 33.5t81.5 12q21 0 42 -3t49 -10l157 3v-88zM256 392q-38 0 -61 -19.5t-23 -53.5q0 -32 22 -51t60 -19t60.5 19
t22.5 51t-23 52.5t-58 20.5zM242 9q-54 0 -85.5 -16t-31.5 -44q0 -29 35 -45t98 -16q57 0 87 15t30 44t-35 45.5t-98 16.5zM185 683q18 -37 38 -53t49 -16q26 0 44 15.5t38 53.5h50q-8 -69 -42 -106.5t-89 -37.5q-58 0 -94.5 38t-44.5 106h51z" />
    <glyph glyph-name="Gdotaccent" unicode="&#x120;" horiz-adv-x="641" 
d="M588 344v-277q-114 -80 -243 -80q-71 0 -128.5 24.5t-97.5 69.5t-61.5 109t-21.5 144q0 78 21.5 141.5t60.5 109t94 70.5t122 25q63 0 116 -23.5t85 -66.5q21 -29 31 -60t12 -78h-110q-18 117 -131 117q-79 0 -123.5 -62.5t-44.5 -174.5t45.5 -173t128.5 -61
q35 0 72.5 12t66.5 32v107h-133v95h239zM339 876q32 0 55 -23t23 -56q0 -32 -23.5 -55.5t-55.5 -23.5q-33 0 -56 23t-23 56q0 34 22.5 56.5t57.5 22.5z" />
    <glyph glyph-name="gdotaccent" unicode="&#x121;" horiz-adv-x="530" 
d="M512 387h-97q12 -17 18.5 -40t6.5 -45q0 -42 -19.5 -72.5t-55.5 -46.5q-12 -5 -21 -8t-22 -5.5t-35 -4.5t-61 -6q-21 -2 -33.5 -9.5t-12.5 -18.5q0 -7 2.5 -11t12.5 -7t31 -5.5t58 -6.5q62 -6 95 -13t55 -19q28 -16 43.5 -45t15.5 -66q0 -76 -61.5 -117.5t-174.5 -41.5
q-111 0 -174 37t-63 103q0 41 22.5 67.5t73.5 43.5q-29 11 -41 24t-12 33q0 24 18.5 41t65.5 35q-42 21 -61.5 53.5t-19.5 81.5q0 38 14 69t40 52.5t62.5 33.5t81.5 12q21 0 42 -3t49 -10l157 3v-88zM256 392q-38 0 -61 -19.5t-23 -53.5q0 -32 22 -51t60 -19t60.5 19
t22.5 51t-23 52.5t-58 20.5zM242 9q-54 0 -85.5 -16t-31.5 -44q0 -29 35 -45t98 -16q57 0 87 15t30 44t-35 45.5t-98 16.5zM270 684q28 0 47.5 -19.5t19.5 -48.5q0 -28 -20 -48t-48 -20q-27 0 -47.5 20.5t-20.5 47.5q0 29 20 48.5t49 19.5z" />
    <glyph glyph-name="Gcommaaccent" unicode="&#x122;" horiz-adv-x="641" 
d="M588 344v-277q-114 -80 -243 -80q-71 0 -128.5 24.5t-97.5 69.5t-61.5 109t-21.5 144q0 78 21.5 141.5t60.5 109t94 70.5t122 25q63 0 116 -23.5t85 -66.5q21 -29 31 -60t12 -78h-110q-18 117 -131 117q-79 0 -123.5 -62.5t-44.5 -174.5t45.5 -173t128.5 -61
q35 0 72.5 12t66.5 32v107h-133v95h239zM283 -289q21 25 34 56t14 56q-64 7 -64 59q0 27 19.5 45.5t48.5 18.5q32 0 51 -23.5t19 -63.5q0 -35 -16 -70.5t-51 -77.5h-55z" />
    <glyph glyph-name="gcommaaccent" unicode="&#x123;" horiz-adv-x="530" 
d="M512 387h-97q12 -17 18.5 -40t6.5 -45q0 -42 -19.5 -72.5t-55.5 -46.5q-12 -5 -21 -8t-22 -5.5t-35 -4.5t-61 -6q-21 -2 -33.5 -9.5t-12.5 -18.5q0 -7 2.5 -11t12.5 -7t31 -5.5t58 -6.5q62 -6 95 -13t55 -19q28 -16 43.5 -45t15.5 -66q0 -76 -61.5 -117.5t-174.5 -41.5
q-111 0 -174 37t-63 103q0 41 22.5 67.5t73.5 43.5q-29 11 -41 24t-12 33q0 24 18.5 41t65.5 35q-42 21 -61.5 53.5t-19.5 81.5q0 38 14 69t40 52.5t62.5 33.5t81.5 12q21 0 42 -3t49 -10l157 3v-88zM256 392q-38 0 -61 -19.5t-23 -53.5q0 -32 22 -51t60 -19t60.5 19
t22.5 51t-23 52.5t-58 20.5zM242 9q-54 0 -85.5 -16t-31.5 -44q0 -29 35 -45t98 -16q57 0 87 15t30 44t-35 45.5t-98 16.5zM327 780q-21 -26 -34.5 -57.5t-14.5 -57.5q66 -9 66 -61q0 -28 -20.5 -47.5t-49.5 -19.5q-32 0 -52.5 25.5t-20.5 64.5q0 69 70 153h56z" />
    <glyph glyph-name="Hcircumflex" unicode="&#x124;" horiz-adv-x="681" 
d="M473 401v266h128v-667h-128v295h-265v-295h-128v667h128v-266h265zM291 868h99l138 -141h-117l-70 78l-70 -78h-118z" />
    <glyph glyph-name="Hbar" unicode="&#x126;" horiz-adv-x="681" 
d="M473 667h128v-87h60v-100h-60v-480h-128v295h-265v-295h-128v480h-60v100h60v87h128v-87h265v87zM208 480v-79h265v79h-265z" />
    <glyph glyph-name="hbar" unicode="&#x127;" horiz-adv-x="555" 
d="M192 671v-63h134v-80h-134v-105q55 62 137 62q45 0 82.5 -19t56.5 -51q7 -11 11 -23t6.5 -27.5t3.5 -37.5t1 -53v-274h-123v247q0 36 -2.5 56t-10.5 34q-10 19 -27.5 29.5t-40.5 10.5q-26 0 -48 -14.5t-33 -37.5q-7 -15 -10 -34t-3 -48v-243h-123v528h-60v80h60v63h123z
" />
    <glyph glyph-name="Imacron" unicode="&#x12a;" horiz-adv-x="288" 
d="M81 0v667h128v-667h-128zM276 832v-75h-263v75h263z" />
    <glyph glyph-name="imacron" unicode="&#x12b;" horiz-adv-x="261" 
d="M192 475v-475h-123v475h123zM249 652v-73h-236v73h236z" />
    <glyph glyph-name="ibreve" unicode="&#x12d;" horiz-adv-x="261" 
d="M191 475v-475h-123v475h123zM52 680q12 -35 30.5 -50.5t46.5 -15.5q56 0 79 66h51q-5 -68 -38 -104.5t-89 -36.5q-59 0 -94.5 38.5t-36.5 102.5h51z" />
    <glyph glyph-name="Iogonek" unicode="&#x12e;" horiz-adv-x="288" 
d="M80 0v667h128v-667q-28 -29 -43.5 -56.5t-15.5 -48.5q0 -47 42 -47q10 0 16.5 2t17.5 7v-52q-13 -10 -27 -14t-36 -4q-21 0 -39.5 8t-32 21.5t-21 32t-7.5 39.5q0 32 20 61.5t55 50.5h-57z" />
    <glyph glyph-name="iogonek" unicode="&#x12f;" horiz-adv-x="261" 
d="M192 0q-18 -23 -29 -39t-17 -28t-8.5 -21t-2.5 -18q0 -17 10.5 -27.5t26.5 -10.5q11 0 17.5 1.5t19.5 6.5v-50q-16 -9 -27.5 -12.5t-28.5 -3.5q-42 0 -70.5 27.5t-28.5 67.5q0 32 17.5 57.5t55.5 49.5h-58v475h123v-475zM133 680q31 0 50 -19.5t19 -51.5t-19.5 -52
t-51.5 -20q-33 0 -52.5 19t-19.5 51q0 33 20 53t54 20z" />
    <glyph glyph-name="Idotaccent" unicode="&#x130;" horiz-adv-x="288" 
d="M80 0v667h128v-667h-128zM145 876q33 0 55.5 -23t22.5 -56t-23 -56t-56 -23q-32 0 -55.5 23.5t-23.5 55.5q0 34 23 56.5t57 22.5z" />
    <glyph glyph-name="dotlessi" unicode="&#x131;" horiz-adv-x="261" 
d="M192 475v-475h-123v475h123z" />
    <glyph glyph-name="IJ" unicode="&#x132;" horiz-adv-x="603" 
d="M80 0v667h128v-667h-128zM527 667v-531q0 -47 -1 -77.5t-3.5 -50.5t-7.5 -34t-12 -28q-23 -42 -71 -61t-130 -19h-15t-23 1v107q54 0 79 4.5t38 17.5q6 6 9.5 12.5t5.5 20.5t2.5 38.5t0.5 65.5v534h128z" />
    <glyph glyph-name="ij" unicode="&#x133;" horiz-adv-x="528" 
d="M192 475v-475h-123v475h123zM132 680q32 0 51 -19.5t19 -51.5t-20 -52t-52 -20t-51.5 19t-19.5 51q0 33 20 53t53 20zM463 475v-407q0 -38 -1 -63.5t-4.5 -44.5t-9.5 -33.5t-16 -29.5q-27 -42 -72 -61.5t-117 -19.5h-11t-15 1v105h15q83 0 100 44q3 7 4.5 12t2.5 14.5
t1 26.5v48v408h123zM404 680q32 0 50.5 -19.5t18.5 -51.5q0 -33 -19.5 -52.5t-51.5 -19.5q-33 0 -52.5 19t-19.5 51q0 33 20 53t54 20z" />
    <glyph glyph-name="Kcommaaccent" unicode="&#x136;" horiz-adv-x="623" 
d="M602 667l-249 -309l265 -358h-163l-245 354l244 313h148zM208 667v-667h-128v667h128zM271 -289q21 25 34 56t14 56q-64 8 -64 59q0 27 19.5 45.5t48.5 18.5q32 0 51 -23.5t19 -63.5q0 -35 -16 -70.5t-51 -77.5h-55z" />
    <glyph glyph-name="kcommaaccent" unicode="&#x137;" horiz-adv-x="536" 
d="M516 475l-178 -220l194 -255h-165l-173 253l174 222h148zM192 671v-671h-123v671h123zM224 -296q21 25 35 57.5t14 57.5q-65 9 -65 61q0 29 20 48t49 19q32 0 52.5 -25t20.5 -65q0 -69 -69 -153h-57z" />
    <glyph glyph-name="kgreenlandic" unicode="&#x138;" horiz-adv-x="536" 
d="M516 475l-178 -220l194 -255h-165l-173 253l174 222h148zM192 475v-475h-123v475h123z" />
    <glyph glyph-name="Lacute" unicode="&#x139;" horiz-adv-x="515" 
d="M211 667v-558h290v-109h-421v667h131zM233 879h152l-203 -163h-115z" />
    <glyph glyph-name="lacute" unicode="&#x13a;" horiz-adv-x="261" 
d="M191 671v-671h-123v671h123zM195 879h142l-186 -163h-95z" />
    <glyph glyph-name="Lcommaaccent" unicode="&#x13b;" horiz-adv-x="515" 
d="M211 667v-558h289v-109h-420v667h131zM238 -289q20 25 33.5 56t13.5 56q-63 7 -63 59q0 27 19 45.5t48 18.5q32 0 51.5 -23.5t19.5 -63.5q0 -66 -67 -148h-55z" />
    <glyph glyph-name="lcommaaccent" unicode="&#x13c;" horiz-adv-x="260" 
d="M192 671v-671h-123v671h123zM73 -296q21 26 34.5 57.5t13.5 57.5q-65 9 -65 61q0 28 20 47.5t49 19.5q33 0 53 -24.5t20 -65.5q0 -36 -17 -73t-52 -80h-56z" />
    <glyph glyph-name="Lcaron" unicode="&#x13d;" horiz-adv-x="515" 
d="M211 667v-558h289v-109h-420v667h131zM321 445q20 25 33 56t14 56q-64 8 -64 59q0 27 19.5 45.5t48.5 18.5q32 0 51.5 -24t19.5 -63q0 -66 -68 -148h-54z" />
    <glyph glyph-name="lcaron" unicode="&#x13e;" horiz-adv-x="368" 
d="M192 671v-671h-123v671h123zM262 437q21 26 34.5 57.5t14.5 57.5q-65 10 -65 62q0 29 20 47.5t49 18.5q33 0 53 -24t20 -66q0 -69 -69 -153h-57z" />
    <glyph glyph-name="Ldot" unicode="&#x13f;" horiz-adv-x="515" 
d="M211 667v-558h289v-109h-420v667h131zM401 416q36 0 60.5 -25t24.5 -61t-24.5 -61t-61.5 -25q-18 0 -33.5 7t-27 18.5t-18.5 27t-7 33.5q0 37 25 61.5t62 24.5z" />
    <glyph glyph-name="ldot" unicode="&#x140;" horiz-adv-x="421" 
d="M192 671v-671h-123v671h123zM339 429q15 0 28.5 -6.5t24 -17t17 -24.5t6.5 -29q0 -32 -22.5 -54t-54.5 -22t-54 21.5t-22 53.5t23 55t54 23z" />
    <glyph glyph-name="Lslash" unicode="&#x141;" horiz-adv-x="515" 
d="M80 667h131v-242l155 118v-108l-155 -117v-209h289v-109h-420v248l-67 -53v107l67 53v312z" />
    <glyph glyph-name="lslash" unicode="&#x142;" horiz-adv-x="267" 
d="M72 671h123v-231l71 48v-91l-71 -49v-348h-123v289l-71 -50v91l71 51v290z" />
    <glyph glyph-name="Nacute" unicode="&#x143;" horiz-adv-x="689" 
d="M217 667l270 -470v470h122v-667h-129l-278 470v-470h-122v667h137zM412 879h152l-203 -163h-115z" />
    <glyph glyph-name="nacute" unicode="&#x144;" horiz-adv-x="548" 
d="M173 475q10 -21 10 -61q53 71 141 71q45 0 81 -18.5t55 -50.5q7 -12 11 -23.5t6.5 -27t3.5 -37.5t1 -54v-274h-123v247q0 37 -2.5 57.5t-9.5 33.5q-19 39 -65 39q-26 0 -47.5 -14t-31.5 -37q-7 -14 -9 -31.5t-2 -51.5v-243h-123v305q0 43 -0.5 68.5t-2 42t-4.5 29
t-8 30.5h119zM311 699h152l-186 -163h-93z" />
    <glyph glyph-name="Ncommaaccent" unicode="&#x145;" horiz-adv-x="689" 
d="M217 667l270 -470v470h122v-667h-129l-278 470v-470h-122v667h137zM280 -289q21 25 34 56t14 56q-64 7 -64 59q0 27 19.5 45.5t48.5 18.5q32 0 51 -23.5t19 -63.5q0 -35 -16 -70.5t-51 -77.5h-55z" />
    <glyph glyph-name="ncommaaccent" unicode="&#x146;" horiz-adv-x="548" 
d="M173 475q10 -21 10 -61q53 71 141 71q45 0 81 -18.5t55 -50.5q7 -12 11 -23.5t6.5 -27t3.5 -37.5t1 -54v-274h-123v247q0 37 -2.5 57.5t-9.5 33.5q-19 39 -65 39q-26 0 -47.5 -14t-31.5 -37q-7 -14 -9 -31.5t-2 -51.5v-243h-123v305q0 43 -0.5 68.5t-2 42t-4.5 29
t-8 30.5h119zM217 -296q21 26 34.5 57.5t14.5 57.5q-66 9 -66 61q0 28 20.5 47.5t49.5 19.5q32 0 52.5 -25t20.5 -65q0 -69 -70 -153h-56z" />
    <glyph glyph-name="Ncaron" unicode="&#x147;" horiz-adv-x="689" 
d="M217 667l270 -470v470h122v-667h-129l-278 470v-470h-122v667h137zM394 727h-99l-137 141h116l71 -78l69 78h118z" />
    <glyph glyph-name="ncaron" unicode="&#x148;" horiz-adv-x="548" 
d="M173 475q10 -21 10 -61q53 71 141 71q45 0 81 -18.5t55 -50.5q7 -12 11 -23.5t6.5 -27t3.5 -37.5t1 -54v-274h-123v247q0 37 -2.5 57.5t-9.5 33.5q-19 39 -65 39q-26 0 -47.5 -14t-31.5 -37q-7 -14 -9 -31.5t-2 -51.5v-243h-123v305q0 43 -0.5 68.5t-2 42t-4.5 29
t-8 30.5h119zM315 541h-100l-121 152h111l60 -86l58 86h112z" />
    <glyph glyph-name="napostrophe" unicode="&#x149;" horiz-adv-x="670" 
d="M44 437q21 26 34.5 57.5t13.5 57.5q-65 9 -65 61q0 28 20 47.5t49 19.5q33 0 53 -24.5t20 -65.5q0 -36 -17 -73t-52 -80h-56zM295 475q10 -21 10 -61q53 71 142 71q45 0 81 -18.5t55 -50.5q7 -12 11 -23.5t6.5 -27t3.5 -37.5t1 -54v-274h-123v247q0 37 -2.5 57.5
t-9.5 33.5q-19 39 -65 39q-26 0 -48 -14t-32 -37q-7 -14 -9 -31.5t-2 -51.5v-243h-123v305q0 43 -0.5 68.5t-2 42t-4.5 29t-8 30.5h119z" />
    <glyph glyph-name="Eng" unicode="&#x14a;" horiz-adv-x="699" 
d="M188 667q14 -34 14 -86q74 98 199 98q63 0 113 -25.5t76 -70.5q10 -17 16.5 -33.5t10 -38t4.5 -52t1 -75.5v-298q0 -46 -1 -76t-3.5 -51t-7.5 -35t-12 -28q-23 -42 -71.5 -61t-128.5 -19h-15t-23 1v107q54 0 78.5 4.5t37.5 17.5q6 6 9.5 13t5.5 21t2.5 38t0.5 65v263
q0 63 -5 100t-16 59q-33 65 -114 65q-45 0 -78.5 -22.5t-50.5 -64.5q-5 -12 -8 -25t-5 -30.5t-2.5 -41t-0.5 -56.5v-330h-128v427q0 61 -0.5 96t-2 58t-6 41t-11.5 45h122z" />
    <glyph glyph-name="eng" unicode="&#x14b;" horiz-adv-x="548" 
d="M173 475q10 -21 10 -61q53 71 141 71q45 0 81 -18.5t55 -50.5q7 -12 11 -23.5t6.5 -27t3.5 -37.5t1 -54v-206q0 -38 -1 -63.5t-4.5 -44.5t-9.5 -33.5t-16 -29.5q-27 -42 -72 -61.5t-117 -19.5h-11t-15 1v106q5 -1 9 -1h6q43 0 67 10.5t33 33.5q3 7 4.5 12t2.5 14.5
t1 26.5v48v180q0 37 -2.5 57.5t-9.5 33.5q-19 39 -65 39q-26 0 -47.5 -14t-31.5 -37q-7 -14 -9 -31.5t-2 -51.5v-243h-123v305q0 43 -0.5 69t-2 42.5t-4.5 29t-8 29.5h119z" />
    <glyph glyph-name="Omacron" unicode="&#x14c;" horiz-adv-x="673" 
d="M337 680q60 0 112 -20.5t92 -59.5q48 -46 72.5 -113.5t24.5 -152.5q0 -86 -24.5 -153.5t-72.5 -113.5q-39 -38 -92 -59t-111 -21q-60 0 -113 21t-93 59q-96 93 -96 272q0 81 25 148.5t71 112.5q41 39 93.5 59.5t111.5 20.5zM337 570q-38 0 -68 -14.5t-50 -41.5
q-23 -32 -36.5 -79t-13.5 -98q0 -114 44.5 -177t123.5 -63q38 0 68 14.5t50 41.5q24 33 37 79.5t13 101.5q0 54 -13 101t-37 79q-20 27 -50 41.5t-68 14.5zM495 832v-75h-316v75h316z" />
    <glyph glyph-name="omacron" unicode="&#x14d;" horiz-adv-x="536" 
d="M268 488q51 0 94 -18.5t74 -52t48.5 -79.5t17.5 -101q0 -54 -17.5 -100t-48.5 -79.5t-74 -52t-94 -18.5q-52 0 -95.5 18.5t-74.5 52t-48 80.5t-17 103q0 54 17.5 99t49 78t74.5 51.5t94 18.5zM267 389q-49 0 -78.5 -41t-29.5 -109q0 -71 29 -112t80 -41q49 0 78.5 41
t29.5 110t-29.5 110.5t-79.5 41.5zM412 652v-73h-289v73h289z" />
    <glyph glyph-name="Ohungarumlaut" unicode="&#x150;" horiz-adv-x="673" 
d="M337 680q70 0 125.5 -24t94.5 -68.5t60 -108.5t21 -144q0 -82 -21 -146.5t-60 -109.5t-95.5 -68.5t-127.5 -23.5q-46 0 -89 12.5t-77 35.5q-66 44 -99 119.5t-33 179.5q0 103 34 179.5t98 118.5q72 48 169 48zM337 570q-81 0 -124.5 -61.5t-43.5 -174.5q0 -112 44 -174.5
t122 -62.5q82 0 126 61.5t44 176.5q0 112 -44 173.5t-124 61.5zM335 879h140l-186 -163h-93zM518 879h140l-186 -163h-92z" />
    <glyph glyph-name="ohungarumlaut" unicode="&#x151;" horiz-adv-x="536" 
d="M268 488q51 0 94 -18.5t74 -52t48.5 -79.5t17.5 -101q0 -54 -17.5 -100t-48.5 -79.5t-74 -52t-94 -18.5q-52 0 -95.5 18.5t-74.5 52t-48 80.5t-17 103q0 54 17.5 99t49 78t74.5 51.5t94 18.5zM267 389q-49 0 -78.5 -41t-29.5 -109q0 -71 29 -112t80 -41q49 0 78.5 41
t29.5 110t-29.5 110.5t-79.5 41.5zM255 699h135l-158 -163h-82zM427 699h135l-158 -163h-82z" />
    <glyph glyph-name="OE" unicode="&#x152;" horiz-adv-x="963" 
d="M507 667h419v-109h-292v-158h266v-109h-266v-182h303v-109h-430v45q-17 -16 -35 -27t-38 -18t-43.5 -10t-52.5 -3q-119 0 -198 68q-52 45 -78 114.5t-26 163.5q0 81 20.5 145.5t59.5 109t95 68.5t127 24q55 0 96 -14t73 -44v45zM339 571q-80 0 -125 -62t-45 -173
q0 -115 43.5 -177.5t124.5 -62.5q80 0 125 63t45 175q0 55 -11.5 98.5t-33.5 74.5t-53 47.5t-70 16.5z" />
    <glyph glyph-name="oe" unicode="&#x153;" horiz-adv-x="858" 
d="M490 208q2 -60 33 -92t88 -32q74 0 95 55l109 -4q-16 -69 -69.5 -108.5t-132.5 -39.5q-110 0 -178 78q-36 -42 -74 -60.5t-89 -18.5q-53 0 -96.5 18.5t-75.5 52t-49.5 80t-17.5 102.5q0 55 17.5 101t48.5 79t74.5 51t96.5 18q57 0 96.5 -19.5t68.5 -61.5q38 44 77.5 62.5
t93.5 18.5q103 0 160.5 -68t57.5 -190v-22h-334zM701 294q-15 100 -100 100q-86 0 -106 -100h206zM268 390q-50 0 -79.5 -41t-29.5 -112q0 -69 30 -111t79 -42q24 0 44 11.5t34.5 32t22.5 48.5t8 62q0 68 -30 110t-79 42z" />
    <glyph glyph-name="Racute" unicode="&#x154;" horiz-adv-x="590" 
d="M246 667q44 0 76 -1.5t55.5 -5t42 -10t35.5 -15.5q45 -24 70 -69.5t25 -103.5q0 -65 -30 -112t-88 -73l153 -277h-149l-136 255h-92v-255h-128v667h166zM254 364q24 0 40.5 0.5t28.5 1.5t21.5 3.5t18.5 5.5q26 11 41 33.5t15 54.5q0 53 -42 78q-10 6 -19.5 9t-23.5 5
t-35 2.5t-54 0.5h-37v-194h46zM369 879h152l-203 -163h-115z" />
    <glyph glyph-name="racute" unicode="&#x155;" horiz-adv-x="377" 
d="M179 475q4 -15 6 -35.5t2 -38.5v-11t-1 -14q29 58 61 83.5t76 25.5q10 0 16 -1t21 -5v-125q-33 23 -74 23q-49 0 -72 -37.5t-23 -118.5v-221h-123v329v37t-1 47v17.5t-1 14t-2 13.5t-2 17h117zM258 699h151l-186 -163h-93z" />
    <glyph glyph-name="Rcommaaccent" unicode="&#x156;" horiz-adv-x="590" 
d="M246 667q44 0 76 -1.5t55.5 -5t42 -10t35.5 -15.5q45 -24 70 -69.5t25 -103.5q0 -65 -30 -112t-88 -73l153 -277h-149l-136 255h-92v-255h-128v667h166zM254 364q24 0 40.5 0.5t28.5 1.5t21.5 3.5t18.5 5.5q26 11 41 33.5t15 54.5q0 53 -42 78q-10 6 -19.5 9t-23.5 5
t-35 2.5t-54 0.5h-37v-194h46zM263 -289q20 25 33.5 56t13.5 56q-63 7 -63 59q0 28 19 46t48 18q32 0 51.5 -24t19.5 -63q0 -66 -67 -148h-55z" />
    <glyph glyph-name="rcommaaccent" unicode="&#x157;" horiz-adv-x="377" 
d="M180 475q4 -15 6 -35.5t2 -38.5v-11t-1 -14q29 58 60.5 83.5t75.5 25.5q10 0 16 -1t21 -5v-125q-33 23 -73 23q-49 0 -72 -37.5t-23 -118.5v-221h-123v329v37t-1 47q0 20 -1 31t-4 31h117zM77 -296q21 26 34.5 57.5t13.5 57.5q-65 9 -65 61q0 28 20 47.5t49 19.5
q33 0 53 -24.5t20 -65.5q0 -36 -17 -73t-52 -80h-56z" />
    <glyph glyph-name="Rcaron" unicode="&#x158;" horiz-adv-x="590" 
d="M246 667q44 0 76 -1.5t55.5 -5t42 -10t35.5 -15.5q45 -24 70 -69.5t25 -103.5q0 -65 -30 -112t-88 -73l153 -277h-149l-136 255h-92v-255h-128v667h166zM254 364q24 0 40.5 0.5t28.5 1.5t21.5 3.5t18.5 5.5q26 11 41 33.5t15 54.5q0 53 -42 78q-10 6 -19.5 9t-23.5 5
t-35 2.5t-54 0.5h-37v-194h46zM352 727h-99l-138 141h116l71 -78l69 78h118z" />
    <glyph glyph-name="rcaron" unicode="&#x159;" horiz-adv-x="377" 
d="M179 475q4 -15 6 -35.5t2 -38.5v-11t-1 -14q29 58 61 83.5t76 25.5q10 0 16 -1t21 -5v-125q-33 23 -74 23q-49 0 -72 -37.5t-23 -118.5v-221h-123v329v37t-1 47q0 20 -1 31t-4 31h117zM257 541h-99l-121 152h111l59 -86l59 86h112z" />
    <glyph glyph-name="Sacute" unicode="&#x15a;" horiz-adv-x="565" 
d="M388 471q-4 47 -32.5 72.5t-76.5 25.5q-42 0 -69.5 -20.5t-27.5 -51.5t34 -51q7 -4 12.5 -6.5t15.5 -7t28.5 -12t52.5 -20.5q44 -18 71 -29.5t43.5 -20.5t26.5 -17t21 -20q43 -46 43 -120q0 -47 -16.5 -85t-47.5 -65t-75 -41.5t-99 -14.5q-123 0 -189 61t-71 179h124
q12 -129 137 -129q48 0 77 19.5t29 51.5q0 40 -46 64q-6 4 -11 6.5t-16 7t-31 13t-57 23.5q-29 12 -51 22.5t-38.5 20.5t-29 19.5t-21.5 19.5q-44 50 -44 119q0 43 16.5 79t46.5 62t72 40.5t92 14.5q64 0 115.5 -24t81.5 -69q16 -24 23.5 -50t9.5 -66h-123zM352 879h151
l-203 -163h-115z" />
    <glyph glyph-name="sacute" unicode="&#x15b;" horiz-adv-x="485" 
d="M320 331q-9 66 -77 66q-28 0 -46.5 -14t-18.5 -36q0 -12 3 -19t14.5 -14t34.5 -14.5t63 -19.5q55 -16 81.5 -29t41.5 -31q26 -34 26 -80q0 -73 -50 -113t-143 -40q-211 0 -211 172h116q3 -42 24 -60.5t66 -18.5q36 0 55.5 13t19.5 38q0 14 -7 22t-26 16q-5 2 -9.5 3.5
l-13.5 4.5t-27 8.5t-50 15.5q-36 11 -61 23t-40.5 28t-22 36t-6.5 46q0 35 13.5 63.5t38.5 49t60 31.5t78 11q87 0 137.5 -41.5t55.5 -116.5h-119zM292 699h152l-186 -163h-93z" />
    <glyph glyph-name="Scircumflex" unicode="&#x15c;" horiz-adv-x="565" 
d="M388 471q-4 47 -32.5 72.5t-76.5 25.5q-42 0 -69.5 -20.5t-27.5 -51.5t34 -51q7 -4 12.5 -6.5t15.5 -7t28.5 -12t52.5 -20.5q44 -18 71 -29.5t43.5 -20.5t26.5 -17t21 -20q43 -46 43 -120q0 -47 -16.5 -85t-47.5 -65t-75 -41.5t-99 -14.5q-123 0 -189 61t-71 179h124
q12 -129 137 -129q48 0 77 19.5t29 51.5q0 40 -46 64q-6 4 -11 6.5t-16 7t-31 13t-57 23.5q-29 12 -51 22.5t-38.5 20.5t-29 19.5t-21.5 19.5q-44 50 -44 119q0 43 16.5 79t46.5 62t72 40.5t92 14.5q64 0 115.5 -24t81.5 -69q16 -24 23.5 -50t9.5 -66h-123zM236 868h99
l138 -141h-117l-70 78l-70 -78h-117z" />
    <glyph glyph-name="scircumflex" unicode="&#x15d;" horiz-adv-x="485" 
d="M320 331q-9 66 -77 66q-28 0 -46.5 -14t-18.5 -36q0 -12 3 -19t14.5 -14t34.5 -14.5t63 -19.5q55 -16 81.5 -29t41.5 -31q26 -34 26 -80q0 -73 -50 -113t-143 -40q-211 0 -211 172h116q3 -42 24 -60.5t66 -18.5q36 0 55.5 13t19.5 38q0 14 -7 22t-26 16q-5 2 -9.5 3.5
l-13.5 4.5t-27 8.5t-50 15.5q-36 11 -61 23t-40.5 28t-22 36t-6.5 46q0 35 13.5 63.5t38.5 49t60 31.5t78 11q87 0 137.5 -41.5t55.5 -116.5h-119zM198 693h99l121 -152h-111l-59 86l-59 -86h-112z" />
    <glyph glyph-name="Scedilla" unicode="&#x15e;" horiz-adv-x="565" 
d="M285 -51q106 -23 106 -109q0 -25 -9.5 -46.5t-26 -37.5t-38.5 -25t-48 -9q-50 0 -99 34v56q25 -13 42.5 -18.5t34.5 -5.5q25 0 41 17t16 44q0 30 -20 48.5t-52 18.5q-8 0 -15.5 -1t-19.5 -4l25 82q-91 17 -140.5 77.5t-49.5 156.5h124q12 -129 137 -129q48 0 77 19.5
t29 51.5q0 39 -46 64q-7 4 -12 6.5t-16 7t-31 13t-56 23.5q-59 25 -90.5 43.5t-49.5 38.5q-45 50 -45 119q0 43 17 79t47 62t72 40.5t92 14.5q64 0 115.5 -24t80.5 -69q17 -24 24.5 -50t9.5 -66h-123q-4 47 -32.5 72.5t-76.5 25.5q-42 0 -70 -21t-28 -51q0 -32 35 -51
q7 -4 12 -6.5t15 -7t29 -12t53 -20.5q44 -18 71 -29.5t43.5 -20.5t26.5 -17t21 -20q43 -46 43 -120q0 -66 -34 -115.5t-94 -72.5q-20 -8 -45.5 -12t-58.5 -6z" />
    <glyph glyph-name="scedilla" unicode="&#x15f;" horiz-adv-x="485" 
d="M244 -45q91 -19 91 -93q0 -21 -8 -39.5t-22 -32t-33 -21.5t-41 -8q-43 0 -86 29v48q22 -11 36.5 -15.5t28.5 -4.5q23 0 36.5 14.5t13.5 37.5q0 26 -17 41.5t-44 15.5q-9 0 -14.5 -1l-16.5 -3l21 68q-74 11 -113.5 55t-37.5 113h116q2 -23 6 -35.5t15 -22.5t30 -16t39 -6
q35 0 55 14t20 38q0 14 -7 22t-27 16q-5 2 -9.5 3.5l-13.5 4.5t-26.5 8.5t-49.5 15.5q-39 12 -61 22.5t-36 24.5q-34 34 -34 86q0 34 14 63t39 49t60.5 31.5t77.5 11.5q87 0 137 -41.5t55 -116.5h-118q-9 66 -77 66q-28 0 -47 -14.5t-19 -35.5q0 -22 20 -34q5 -3 10.5 -5.5
t15.5 -6t26.5 -8.5t43.5 -13q55 -16 81.5 -29t40.5 -31q27 -33 27 -80q0 -48 -24 -84t-67 -53q-17 -7 -39.5 -10.5t-57.5 -5.5z" />
    <glyph glyph-name="Scaron" unicode="&#x160;" horiz-adv-x="565" 
d="M388 471q-4 47 -32.5 72.5t-76.5 25.5q-42 0 -69.5 -20.5t-27.5 -51.5t34 -51q7 -4 12.5 -6.5t15.5 -7t28.5 -12t52.5 -20.5q44 -18 71 -29.5t43.5 -20.5t26.5 -17t21 -20q43 -46 43 -120q0 -47 -16.5 -85t-47.5 -65t-75 -41.5t-99 -14.5q-123 0 -189 61t-71 179h124
q12 -129 137 -129q48 0 77 19.5t29 51.5q0 40 -46 64q-6 4 -11 6.5t-16 7t-31 13t-57 23.5q-29 12 -51 22.5t-38.5 20.5t-29 19.5t-21.5 19.5q-44 50 -44 119q0 43 16.5 79t46.5 62t72 40.5t92 14.5q64 0 115.5 -24t81.5 -69q16 -24 23.5 -50t9.5 -66h-123zM332 727h-99
l-137 141h116l70 -78l70 78h118z" />
    <glyph glyph-name="scaron" unicode="&#x161;" horiz-adv-x="485" 
d="M320 331q-9 66 -77 66q-28 0 -46.5 -14t-18.5 -36q0 -12 3 -19t14.5 -14t34.5 -14.5t63 -19.5q55 -16 81.5 -29t41.5 -31q26 -34 26 -80q0 -73 -50 -113t-143 -40q-211 0 -211 172h116q3 -42 24 -60.5t66 -18.5q36 0 55.5 13t19.5 38q0 14 -7 22t-26 16q-5 2 -9.5 3.5
l-13.5 4.5t-27 8.5t-50 15.5q-36 11 -61 23t-40.5 28t-22 36t-6.5 46q0 35 13.5 63.5t38.5 49t60 31.5t78 11q87 0 137.5 -41.5t55.5 -116.5h-119zM298 541h-100l-121 152h111l60 -86l58 86h112z" />
    <glyph glyph-name="Tcommaaccent" unicode="&#x162;" horiz-adv-x="503" 
d="M492 667v-109h-176v-558h-128v558h-176v109h480zM197 -289q21 25 34 56t14 56q-64 8 -64 59q0 27 19.5 45.5t48.5 18.5q32 0 51 -23t19 -64q0 -35 -16 -70.5t-51 -77.5h-55z" />
    <glyph glyph-name="tcommaaccent" unicode="&#x163;" horiz-adv-x="357" 
d="M317 475v-96h-97l-4 -183v-19v-13q0 -38 10.5 -52t38.5 -14q32 0 71 16l-2 -102q-29 -11 -54 -16.5t-54 -5.5q-83 0 -118 61q-11 18 -14.5 38t-3.5 58v23t1 24l6 185h-74l2 96h76l4 137h119l-3 -137h96zM136 -296q22 26 35.5 57.5t13.5 57.5q-65 9 -65 61q0 28 20 47.5
t49 19.5q33 0 53 -24.5t20 -65.5q0 -71 -69 -153h-57z" />
    <glyph glyph-name="Tcaron" unicode="&#x164;" horiz-adv-x="503" 
d="M492 667v-109h-176v-558h-128v558h-176v109h480zM302 727h-99l-138 141h116l71 -78l69 78h118z" />
    <glyph glyph-name="tcaron" unicode="&#x165;" horiz-adv-x="392" 
d="M318 475v-96h-99l-3 -183v-17.5t-1 -14.5q0 -36 11.5 -51t38.5 -15q32 0 70 16v-102q-29 -11 -54.5 -16.5t-54.5 -5.5q-40 0 -70.5 15.5t-47.5 44.5q-11 17 -15 39t-4 58l1 47l7 185h-74v96h78l3 137h119l-2 -137h97zM286 528q22 26 35.5 57.5t13.5 57.5q-65 9 -65 61
q0 28 20 47.5t49 19.5q33 0 53 -24.5t20 -65.5q0 -71 -69 -153h-57z" />
    <glyph glyph-name="Tbar" unicode="&#x166;" horiz-adv-x="503" 
d="M492 667v-109h-176v-123h128v-100h-128v-335h-128v335h-128v100h128v123h-176v109h480z" />
    <glyph glyph-name="tbar" unicode="&#x167;" horiz-adv-x="357" 
d="M316 475v-96h-98v-60h91v-80h-93v-43l-1 -19l1 -13v-17q0 -49 48 -49q30 0 71 16l-2 -102q-29 -12 -54 -17t-54 -5q-83 0 -118 61q-11 18 -14.5 37.5t-3.5 58.5v26.5t1 20.5l1 45h-68v80h72l1 60h-73v96h77l4 137h119l-3 -137h96z" />
    <glyph glyph-name="utilde" unicode="&#x169;" horiz-adv-x="555" 
d="M188 475v-270q0 -59 18 -81q23 -26 63 -26q27 0 48.5 12t32.5 34q13 26 13 77v254h123v-328v-61t1.5 -36t3.5 -24t7 -26h-116q-4 8 -6.5 23t-3.5 32q-28 -35 -58.5 -50t-74.5 -15q-49 0 -88.5 20.5t-60.5 55.5q-25 41 -25 132v277h123zM120 567q28 106 89 106
q12 0 27.5 -3.5t39.5 -11.5q28 -11 39 -13.5t21 -2.5q25 0 48 40l46 -13q-11 -52 -34.5 -81.5t-54.5 -29.5q-11 0 -29 4t-39 12q-15 5 -24.5 8.5t-16 5t-10.5 2t-9 0.5q-28 0 -41 -37z" />
    <glyph glyph-name="Umacron" unicode="&#x16a;" horiz-adv-x="675" 
d="M201 667v-383q0 -25 0.5 -42.5t2 -30.5t3.5 -22.5t6 -19.5q14 -35 45.5 -53t78.5 -18q109 0 130 92q4 16 5 35t1 59v383h128v-385q0 -36 -1 -61.5t-4 -44.5t-8 -34t-13 -31q-29 -59 -91 -91.5t-147 -32.5t-147 32.5t-91 91.5q-8 16 -13 31t-8 34t-4 44.5t-1 61.5v385h128
zM495 832v-75h-316v75h316z" />
    <glyph glyph-name="umacron" unicode="&#x16b;" horiz-adv-x="555" 
d="M188 475v-270q0 -59 18 -81q23 -26 63 -26q27 0 48.5 12t32.5 34q13 26 13 77v254h123v-328v-61t1.5 -36t3.5 -24t7 -26h-116q-4 8 -6.5 23t-3.5 32q-28 -35 -58.5 -50t-74.5 -15q-49 0 -88.5 20.5t-60.5 55.5q-25 41 -25 132v277h123zM420 652v-73h-289v73h289z" />
    <glyph glyph-name="ubreve" unicode="&#x16d;" horiz-adv-x="555" 
d="M188 475v-270q0 -59 18 -81q23 -26 63 -26q27 0 48.5 12t32.5 34q13 26 13 77v254h123v-328v-61t1.5 -36t3.5 -24t7 -26h-116q-4 8 -6.5 23t-3.5 32q-28 -35 -58.5 -50t-74.5 -15q-49 0 -88.5 20.5t-60.5 55.5q-25 41 -25 132v277h123zM191 683q18 -37 38 -53t49 -16
q26 0 44 15.5t38 53.5h50q-8 -69 -42 -106.5t-89 -37.5q-58 0 -94.5 38t-44.5 106h51z" />
    <glyph glyph-name="Uring" unicode="&#x16e;" horiz-adv-x="675" 
d="M201 667v-383q0 -25 0.5 -42.5t2 -30.5t3.5 -22.5t6 -19.5q14 -35 45.5 -53t78.5 -18q109 0 130 92q4 16 5 35t1 59v383h128v-385q0 -36 -1 -61.5t-4 -44.5t-8 -34t-13 -31q-29 -59 -91 -91.5t-147 -32.5t-147 32.5t-91 91.5q-8 16 -13 31t-8 34t-4 44.5t-1 61.5v385h128
zM338 905q20 0 38 -8t31.5 -21.5t21 -31.5t7.5 -38q0 -21 -8 -39t-21.5 -31.5t-31.5 -21.5t-38 -8t-38 8t-31.5 21.5t-21.5 31.5t-8 38q0 21 7.5 39t21 31.5t32 21.5t39.5 8zM338 854q-22 0 -35.5 -13.5t-13.5 -35.5q0 -20 14 -34t34 -14t34 14t14 35q0 20 -13.5 34
t-33.5 14z" />
    <glyph glyph-name="uring" unicode="&#x16f;" horiz-adv-x="555" 
d="M188 475v-270q0 -59 18 -81q23 -26 63 -26q27 0 48.5 12t32.5 34q13 26 13 77v254h123v-328v-61t1.5 -36t3.5 -24t7 -26h-116q-4 8 -6.5 23t-3.5 32q-28 -35 -58.5 -50t-74.5 -15q-49 0 -88.5 20.5t-60.5 55.5q-25 41 -25 132v277h123zM276 722q20 0 38 -8t31.5 -21.5
t21 -31.5t7.5 -38q0 -42 -28.5 -71t-70.5 -29q-20 0 -38 8t-31.5 21.5t-21.5 31.5t-8 38q0 21 8 39t21.5 31.5t31.5 21.5t39 8zM276 671q-21 0 -35 -14t-14 -35q0 -20 14 -34t34 -14q21 0 34.5 14t13.5 35q0 20 -13.5 34t-33.5 14z" />
    <glyph glyph-name="Uhungarumlaut" unicode="&#x170;" horiz-adv-x="675" 
d="M201 667v-383q0 -25 0.5 -42.5t2 -30.5t3.5 -22.5t6 -19.5q14 -35 45.5 -53t78.5 -18q109 0 130 92q4 16 5 35t1 59v383h128v-385q0 -36 -1 -61.5t-4 -44.5t-8 -34t-13 -31q-29 -59 -91 -91.5t-147 -32.5t-147 32.5t-91 91.5q-8 16 -13 31t-8 34t-4 44.5t-1 61.5v385h128
zM331 879h141l-186 -163h-93zM515 879h140l-186 -163h-93z" />
    <glyph glyph-name="uhungarumlaut" unicode="&#x171;" horiz-adv-x="555" 
d="M188 475v-270q0 -59 18 -81q23 -26 63 -26q27 0 48.5 12t32.5 34q13 26 13 77v254h123v-328v-61t1.5 -36t3.5 -24t7 -26h-116q-4 8 -6.5 23t-3.5 32q-28 -35 -58.5 -50t-74.5 -15q-49 0 -88.5 20.5t-60.5 55.5q-25 41 -25 132v277h123zM263 699h135l-159 -163h-81z
M435 699h135l-159 -163h-81z" />
    <glyph glyph-name="Uogonek" unicode="&#x172;" horiz-adv-x="675" 
d="M528 -195q-20 -11 -35.5 -14.5t-37.5 -3.5q-50 0 -82 28t-32 73q0 31 18 55.5t60 52.5q-27 -5 -44 -7t-37 -2q-85 0 -147.5 32t-91.5 92q-8 16 -13 31t-8 34t-4 44.5t-1 61.5v385h128v-383q0 -25 0.5 -42.5t2 -30.5t3.5 -22.5t6 -19.5q14 -35 45.5 -53t78.5 -18
q109 0 130 92q4 16 5 35t1 59v383h128v-385q0 -32 -0.5 -54.5t-2.5 -39.5t-5.5 -30.5t-8.5 -27.5q-5 -13 -10.5 -24t-14 -23t-20.5 -26.5t-30 -34.5q-23 -25 -38 -44t-24.5 -34.5t-13.5 -28.5t-4 -25q0 -19 14 -30t37 -11t48 11v-55z" />
    <glyph glyph-name="uogonek" unicode="&#x173;" horiz-adv-x="555" 
d="M486 147v-61t1.5 -35.5t3.5 -24t7 -26.5q-48 -40 -66 -62.5t-18 -42.5q0 -40 46 -40q20 0 47 11v-52q-17 -9 -31.5 -12.5t-34.5 -3.5q-49 0 -78.5 25.5t-29.5 69.5q0 24 8 39.5t31 36.5q11 11 20.5 17t25.5 14h-36q-4 8 -6.5 23t-3.5 32q-28 -35 -58.5 -50t-74.5 -15
q-49 0 -88.5 20.5t-60.5 55.5q-25 41 -25 132v277h123v-270q0 -59 18 -81q23 -26 63 -26q27 0 48.5 12t32.5 34q13 26 13 77v254h123v-328z" />
    <glyph glyph-name="Wcircumflex" unicode="&#x174;" horiz-adv-x="868" 
d="M129 667l127 -521l124 521h110l124 -521l129 521h117l-172 -667h-145l-110 434l-108 -434h-145l-171 667h120zM385 868h99l137 -141h-116l-70 78l-70 -78h-118z" />
    <glyph glyph-name="Ycircumflex" unicode="&#x176;" horiz-adv-x="562" 
d="M143 667l140 -266l138 266h141l-217 -404v-263h-128v263l-217 404h143zM232 868h99l137 -141h-116l-71 78l-69 -78h-118z" />
    <glyph glyph-name="ycircumflex" unicode="&#x177;" horiz-adv-x="499" 
d="M146 475l106 -362l110 362h128l-161 -462q-12 -33 -18.5 -52t-12 -31t-10.5 -20.5t-13 -21.5q-29 -48 -75.5 -68.5t-125.5 -20.5h-18t-28 1v107q39 -1 65.5 1.5t43.5 10.5t28 22t19 37l-168 497h130zM203 693h100l121 -152h-111l-60 86l-58 -86h-112z" />
    <glyph glyph-name="Ydieresis" unicode="&#x178;" horiz-adv-x="562" 
d="M143 667l140 -266l138 266h141l-217 -404v-263h-128v263l-217 404h143zM189 871q29 0 51 -22t22 -52t-21.5 -51.5t-52.5 -21.5t-52 21t-21 52q0 32 21 53t53 21zM375 871q30 0 51.5 -22t21.5 -52q0 -31 -21.5 -52t-52.5 -21t-52 21t-21 52q0 32 21 53t53 21z" />
    <glyph glyph-name="Zacute" unicode="&#x179;" horiz-adv-x="501" 
d="M482 667v-90l-307 -468h297v-109h-449v100l305 460h-275v107h429zM338 879h152l-203 -163h-115z" />
    <glyph glyph-name="zacute" unicode="&#x17a;" horiz-adv-x="424" 
d="M396 475v-93l-228 -280h232v-102h-377v95l225 278h-200v102h348zM269 699h152l-186 -163h-93z" />
    <glyph glyph-name="Zdotaccent" unicode="&#x17b;" horiz-adv-x="501" 
d="M482 667v-90l-307 -468h297v-109h-449v100l305 460h-275v107h429zM271 876q33 0 55.5 -23t22.5 -56t-23 -56t-56 -23q-32 0 -55.5 23.5t-23.5 55.5q0 34 23 56.5t57 22.5z" />
    <glyph glyph-name="zdotaccent" unicode="&#x17c;" horiz-adv-x="424" 
d="M396 475v-93l-228 -280h232v-102h-377v95l225 278h-200v102h348zM223 684q28 0 47.5 -19.5t19.5 -48.5q0 -28 -20 -48t-48 -20q-27 0 -47.5 20.5t-20.5 47.5q0 29 20 48.5t49 19.5z" />
    <glyph glyph-name="Zcaron" unicode="&#x17d;" horiz-adv-x="501" 
d="M482 667v-90l-307 -468h297v-109h-449v100l305 460h-275v107h429zM319 727h-99l-138 141h117l70 -78l70 78h117z" />
    <glyph glyph-name="zcaron" unicode="&#x17e;" horiz-adv-x="424" 
d="M396 475v-93l-228 -280h232v-102h-377v95l225 278h-200v102h348zM273 541h-99l-121 152h111l59 -86l59 86h112z" />
    <glyph glyph-name="florin" unicode="&#x192;" horiz-adv-x="570" 
d="M511 475v-87h-127l-42 -237q-9 -52 -15 -84t-11.5 -53t-11 -34.5t-12.5 -27.5q-21 -41 -55 -62.5t-78 -21.5q-69 0 -143 46l17 95q69 -39 113 -39q22 0 34 13t20 45q1 4 4.5 19.5t7 34l7 37t5.5 27.5l43 242h-97v87h112l8 48q5 29 10 50.5t10.5 38.5t12 30t14.5 24
q20 26 50 40.5t67 14.5q57 0 115 -35l-16 -92q-32 14 -51 20t-33 6q-13 0 -22.5 -5t-17 -18t-13.5 -35.5t-12 -57.5l-5 -29h112z" />
    <glyph glyph-name="Ohorn" unicode="&#x1a0;" horiz-adv-x="673" 
d="M577 563l2 4q7 16 9.5 27.5t3.5 27.5q-63 7 -63 59q0 27 19 45.5t48 18.5q32 0 51.5 -24t19.5 -63q0 -66 -64 -145q17 -36 26 -84t9 -99q0 -77 -21.5 -140t-61.5 -108t-95.5 -70t-122.5 -25q-59 0 -112 21t-93 59q-48 46 -72 113.5t-24 153.5q0 85 24 152.5t72 113.5
q40 38 93 59t112 21q74 0 136 -31.5t103 -88.5zM337 570q-38 0 -68 -14.5t-50 -41.5q-23 -32 -36.5 -79t-13.5 -98q0 -114 44.5 -177t123.5 -63q38 0 68 14.5t50 41.5q24 33 37 79.5t13 101.5q0 54 -13 101t-37 79q-20 27 -50 41.5t-68 14.5z" />
    <glyph glyph-name="ohorn" unicode="&#x1a1;" horiz-adv-x="536" 
d="M456 394q8 19 11.5 32.5t4.5 30.5q-65 9 -65 60q0 29 20 48t49 19q33 0 53 -24.5t20 -65.5q0 -34 -17.5 -73t-49.5 -77q20 -49 20 -107q0 -55 -17.5 -101t-48.5 -79t-74.5 -51.5t-94.5 -18.5t-94 18.5t-74 51.5t-48.5 79t-17.5 101t17.5 101t48.5 79.5t74.5 52t94.5 18.5
q57 0 106 -24.5t82 -69.5zM267 389q-49 0 -78.5 -41t-29.5 -109q0 -71 29 -112t80 -41q49 0 78.5 41t29.5 110t-29.5 110.5t-79.5 41.5z" />
    <glyph glyph-name="Uhorn" unicode="&#x1af;" horiz-adv-x="675" 
d="M201 667v-383q0 -25 0.5 -42.5t2 -30.5t3.5 -22.5t6 -19.5q14 -35 45.5 -53t78.5 -18q109 0 130 92q4 16 5 35t1 59v383h128v-385q0 -36 -1 -61.5t-4 -44.5t-8 -34t-13 -31q-29 -59 -91 -91.5t-147 -32.5t-147 32.5t-91 91.5q-8 16 -13 31t-8 34t-4 44.5t-1 61.5v385h128
zM669 500q20 25 33.5 56t13.5 56q-63 7 -63 59q0 28 19 46t48 18q32 0 51.5 -24t19.5 -63q0 -66 -67 -148h-55z" />
    <glyph glyph-name="uhorn" unicode="&#x1b0;" horiz-adv-x="555" 
d="M188 475v-270q0 -59 18 -81q23 -26 63 -26q27 0 48.5 12t32.5 34q13 26 13 77v254h123v-328v-61t1.5 -36t3.5 -24t7 -26h-116q-4 8 -6.5 23t-3.5 32q-28 -35 -58.5 -50t-74.5 -15q-49 0 -88.5 20.5t-60.5 55.5q-25 41 -25 132v277h123zM523 315q21 26 34.5 57.5
t14.5 57.5q-66 9 -66 61q0 28 20.5 47.5t49.5 19.5q32 0 52 -24.5t20 -65.5q0 -36 -17 -73t-52 -80h-56z" />
    <glyph glyph-name="uni01CD" unicode="&#x1cd;" horiz-adv-x="602" 
d="M365 667l227 -667h-133l-41 139h-235l-42 -139h-131l225 667h130zM300 520l-85 -272h171zM351 727h-99l-138 141h116l71 -78l69 78h118z" />
    <glyph glyph-name="uni01CE" unicode="&#x1ce;" horiz-adv-x="512" 
d="M57 333q5 41 17.5 65.5t38.5 44.5q27 20 66 31t85 11q62 0 104 -18.5t59 -52.5q11 -21 15 -46.5t4 -70.5v-191q0 -43 3.5 -65t12.5 -41h-112q-4 14 -5 24t-1 30q-39 -64 -131 -64q-81 0 -127 36t-46 99q0 49 28 85.5t80 56.5q16 6 28 10t29.5 8t45.5 9t76 14v8
q0 38 -17 55t-55 17q-71 0 -81 -55h-117zM327 226q-30 -4 -52 -7.5t-37 -7t-25.5 -8t-18.5 -10.5q-28 -20 -28 -52q0 -25 20 -41t52 -16q29 0 50 12t30 34q5 11 7 27t2 42v27zM309 541h-99l-121 152h111l59 -86l59 86h112z" />
    <glyph glyph-name="uni01D3" unicode="&#x1d3;" horiz-adv-x="675" 
d="M201 667v-383q0 -25 0.5 -42.5t2 -30.5t3.5 -22.5t6 -19.5q14 -35 45.5 -53t78.5 -18q109 0 130 92q4 16 5 35t1 59v383h128v-385q0 -36 -1 -61.5t-4 -44.5t-8 -34t-13 -31q-29 -59 -91 -91.5t-147 -32.5t-147 32.5t-91 91.5q-8 16 -13 31t-8 34t-4 44.5t-1 61.5v385h128
zM387 727h-99l-138 141h116l71 -78l70 78h117z" />
    <glyph glyph-name="uni01D4" unicode="&#x1d4;" horiz-adv-x="555" 
d="M188 475v-270q0 -59 18 -81q23 -26 63 -26q27 0 48.5 12t32.5 34q13 26 13 77v254h123v-328v-61t1.5 -36t3.5 -24t7 -26h-116q-4 8 -6.5 23t-3.5 32q-28 -35 -58.5 -50t-74.5 -15q-49 0 -88.5 20.5t-60.5 55.5q-25 41 -25 132v277h123zM325 541h-99l-121 152h111l59 -86
l59 86h112z" />
    <glyph glyph-name="Gcaron" unicode="&#x1e6;" horiz-adv-x="641" 
d="M588 344v-277q-114 -80 -243 -80q-71 0 -128.5 24.5t-97.5 69.5t-61.5 109t-21.5 144q0 78 21.5 141.5t60.5 109t94 70.5t122 25q63 0 116 -23.5t85 -66.5q21 -29 31 -60t12 -78h-110q-18 117 -131 117q-79 0 -123.5 -62.5t-44.5 -174.5t45.5 -173t128.5 -61
q35 0 72.5 12t66.5 32v107h-133v95h239zM388 727h-99l-138 141h116l71 -78l69 78h118z" />
    <glyph glyph-name="gcaron" unicode="&#x1e7;" horiz-adv-x="530" 
d="M512 387h-97q12 -17 18.5 -40t6.5 -45q0 -42 -19.5 -72.5t-55.5 -46.5q-12 -5 -21 -8t-22 -5.5t-35 -4.5t-61 -6q-21 -2 -33.5 -9.5t-12.5 -18.5q0 -7 2.5 -11t12.5 -7t31 -5.5t58 -6.5q62 -6 95 -13t55 -19q28 -16 43.5 -45t15.5 -66q0 -76 -61.5 -117.5t-174.5 -41.5
q-111 0 -174 37t-63 103q0 41 22.5 67.5t73.5 43.5q-29 11 -41 24t-12 33q0 24 18.5 41t65.5 35q-42 21 -61.5 53.5t-19.5 81.5q0 38 14 69t40 52.5t62.5 33.5t81.5 12q21 0 42 -3t49 -10l157 3v-88zM256 392q-38 0 -61 -19.5t-23 -53.5q0 -32 22 -51t60 -19t60.5 19
t22.5 51t-23 52.5t-58 20.5zM242 9q-54 0 -85.5 -16t-31.5 -44q0 -29 35 -45t98 -16q57 0 87 15t30 44t-35 45.5t-98 16.5zM319 541h-99l-121 152h111l59 -86l59 86h112z" />
    <glyph glyph-name="uni01F4" unicode="&#x1f4;" horiz-adv-x="641" 
d="M588 344v-277q-114 -80 -243 -80q-71 0 -128.5 24.5t-97.5 69.5t-61.5 109t-21.5 144q0 78 21.5 141.5t60.5 109t94 70.5t122 25q63 0 116 -23.5t85 -66.5q21 -29 31 -60t12 -78h-110q-18 117 -131 117q-79 0 -123.5 -62.5t-44.5 -174.5t45.5 -173t128.5 -61
q35 0 72.5 12t66.5 32v107h-133v95h239zM392 879h152l-203 -163h-115z" />
    <glyph glyph-name="Scommaaccent" unicode="&#x218;" horiz-adv-x="565" 
d="M388 471q-4 47 -32.5 72.5t-76.5 25.5q-42 0 -69.5 -20.5t-27.5 -51.5t34 -51q7 -4 12.5 -6.5t15.5 -7t28.5 -12t52.5 -20.5q44 -18 71 -29.5t43.5 -20.5t26.5 -17t21 -20q43 -46 43 -120q0 -47 -16.5 -85t-47.5 -65t-75 -41.5t-99 -14.5q-123 0 -189 61t-71 179h124
q12 -129 137 -129q48 0 77 19.5t29 51.5q0 40 -46 64q-6 4 -11 6.5t-16 7t-31 13t-57 23.5q-29 12 -51 22.5t-38.5 20.5t-29 19.5t-21.5 19.5q-44 50 -44 119q0 43 16.5 79t46.5 62t72 40.5t92 14.5q64 0 115.5 -24t81.5 -69q16 -24 23.5 -50t9.5 -66h-123zM228 -289
q20 25 33.5 56t13.5 56q-63 7 -63 59q0 27 19 45.5t48 18.5q32 0 51.5 -23.5t19.5 -63.5q0 -66 -67 -148h-55z" />
    <glyph glyph-name="scommaaccent" unicode="&#x219;" horiz-adv-x="485" 
d="M320 331q-9 66 -77 66q-28 0 -46.5 -14t-18.5 -36q0 -12 3 -19t14.5 -14t34.5 -14.5t63 -19.5q55 -16 81.5 -29t41.5 -31q26 -34 26 -80q0 -73 -50 -113t-143 -40q-211 0 -211 172h116q3 -42 24 -60.5t66 -18.5q36 0 55.5 13t19.5 38q0 14 -7 22t-26 16q-5 2 -9.5 3.5
l-13.5 4.5t-27 8.5t-50 15.5q-36 11 -61 23t-40.5 28t-22 36t-6.5 46q0 35 13.5 63.5t38.5 49t60 31.5t78 11q87 0 137.5 -41.5t55.5 -116.5h-119zM189 -296q21 26 34.5 57.5t14.5 57.5q-66 9 -66 61q0 28 20.5 47.5t49.5 19.5q32 0 52.5 -25t20.5 -65q0 -69 -70 -153h-56z
" />
    <glyph glyph-name="afii57929" unicode="&#x2bc;" horiz-adv-x="207" 
d="M44 437q21 26 34.5 57.5t13.5 57.5q-65 9 -65 61q0 28 20 47.5t49 19.5q33 0 53 -24.5t20 -65.5q0 -36 -17 -73t-52 -80h-56z" />
    <glyph glyph-name="circumflex" unicode="&#x2c6;" 
d="M201 693h99l121 -152h-111l-59 86l-59 -86h-112z" />
    <glyph glyph-name="caron" unicode="&#x2c7;" 
d="M300 541h-99l-121 152h111l59 -86l59 86h112z" />
    <glyph glyph-name="uni02C9" unicode="&#x2c9;" 
d="M395 652v-73h-289v73h289z" />
    <glyph glyph-name="breve" unicode="&#x2d8;" 
d="M166 683q18 -37 38 -53t49 -16q26 0 44 15.5t38 53.5h50q-8 -69 -42 -106.5t-89 -37.5q-58 0 -94.5 38t-44.5 106h51z" />
    <glyph glyph-name="dotaccent" unicode="&#x2d9;" 
d="M251 684q27 0 47 -20t20 -48q0 -27 -20 -47.5t-48 -20.5t-48 20t-20 48q0 29 20 48.5t49 19.5z" />
    <glyph glyph-name="ring" unicode="&#x2da;" 
d="M251 722q20 0 38 -8t31.5 -21.5t21 -31.5t7.5 -38q0 -42 -28.5 -71t-70.5 -29q-20 0 -38 8t-31.5 21.5t-21.5 31.5t-8 38q0 21 8 39t21.5 31.5t31.5 21.5t39 8zM251 671q-21 0 -35 -14t-14 -35q0 -20 14 -34t34 -14q21 0 34.5 14t13.5 35q0 20 -13.5 34t-33.5 14z" />
    <glyph glyph-name="ogonek" unicode="&#x2db;" 
d="M408 0q-54 -36 -76.5 -60t-22.5 -45q0 -18 13 -29t34 -11q20 0 47 11v-52q-17 -9 -31.5 -12.5t-34.5 -3.5q-50 0 -79.5 26t-29.5 70q0 34 20.5 59t65.5 47h94z" />
    <glyph glyph-name="tilde" unicode="&#x2dc;" 
d="M95 567q28 106 89 106q12 0 27.5 -3.5t39.5 -11.5q28 -11 39 -13.5t21 -2.5q25 0 48 40l46 -13q-11 -52 -34.5 -81.5t-55.5 -29.5q-11 0 -29 4t-38 12q-15 5 -24.5 8.5t-16 5t-11 2t-9.5 0.5q-27 0 -40 -37z" />
    <glyph glyph-name="hungarumlaut" unicode="&#x2dd;" 
d="M231 699h135l-158 -163h-82zM403 699h135l-158 -163h-82z" />
    <glyph glyph-name="tonos" unicode="&#x384;" horiz-adv-x="253" 
d="M90 535l-23 172h120l-23 -172h-74z" />
    <glyph glyph-name="dieresistonos" unicode="&#x385;" 
d="M108 684q27 0 47 -20t20 -48q0 -27 -20.5 -47.5t-47.5 -20.5q-28 0 -48 20t-20 48q0 29 20 48.5t49 19.5zM394 684q27 0 47 -20t20 -48q0 -27 -20.5 -47.5t-47.5 -20.5q-28 0 -48 20t-20 48q0 29 20 48.5t49 19.5zM213 535l-23 172h120l-23 -172h-74z" />
    <glyph glyph-name="Alphatonos" unicode="&#x386;" horiz-adv-x="612" 
d="M375 667l227 -667h-133l-41 139h-235l-42 -139h-131l225 667h130zM310 520l-85 -272h171zM71 535l-23 172h120l-23 -172h-74z" />
    <glyph glyph-name="anoteleia" unicode="&#x387;" horiz-adv-x="251" 
d="M127 328q15 0 28.5 -6.5t24 -17t16.5 -24.5t6 -29q0 -32 -22 -54t-54 -22t-54.5 22t-22.5 53q0 32 23 55t55 23z" />
    <glyph glyph-name="Epsilontonos" unicode="&#x388;" horiz-adv-x="610" 
d="M546 400v-109h-265v-182h303v-109h-431v667h420v-109h-292v-158h265zM23 535l-23 172h120l-23 -172h-74z" />
    <glyph glyph-name="Etatonos" unicode="&#x389;" horiz-adv-x="755" 
d="M547 401v266h128v-667h-128v295h-266v-295h-128v667h128v-266h266zM23 535l-23 172h120l-23 -172h-74z" />
    <glyph glyph-name="Iotatonos" unicode="&#x38a;" horiz-adv-x="362" 
d="M154 0v667h128v-667h-128zM23 535l-23 172h120l-23 -172h-74z" />
    <glyph glyph-name="Omicrontonos" unicode="&#x38c;" horiz-adv-x="730" 
d="M393 680q60 0 112 -20.5t93 -59.5q48 -46 72 -113.5t24 -152.5q0 -86 -24 -153.5t-72 -113.5q-40 -38 -92.5 -59t-111.5 -21q-69 0 -125 25t-95 70.5t-60.5 110.5t-21.5 146t25 148.5t72 112.5q40 39 92.5 59.5t111.5 20.5zM393 570q-38 0 -68 -14.5t-50 -41.5
q-23 -32 -36.5 -79t-13.5 -98q0 -114 44.5 -177t124.5 -63q78 0 122.5 62.5t44.5 174.5q0 111 -44.5 173.5t-123.5 62.5zM23 535l-23 172h120l-23 -172h-74z" />
    <glyph glyph-name="Upsilontonos" unicode="&#x38e;" horiz-adv-x="679" 
d="M261 667l140 -266l138 266h141l-217 -404v-263h-128v263l-217 404h143zM10 535l-23 172h120l-23 -172h-74z" />
    <glyph glyph-name="Omegatonos" unicode="&#x38f;" horiz-adv-x="750" 
d="M23 535l-23 172h120l-23 -172h-74zM560 109h143v-109h-250v162l4 1l4 1q55 16 84 66t29 129q0 106 -45.5 160.5t-132.5 54.5t-132.5 -54.5t-45.5 -160.5q0 -163 117 -196l4 -1v-162h-251v109h144v17q-68 20 -106 84t-38 157q0 140 74 218q42 46 102 70.5t132 24.5
q82 0 148.5 -31.5t107.5 -90.5q51 -74 51 -191q0 -92 -38 -156.5t-105 -84.5v-17z" />
    <glyph glyph-name="iotadieresistonos" unicode="&#x390;" horiz-adv-x="287" 
d="M205 475v-475h-123v475h123zM2 684q27 0 47 -20t20 -48q0 -27 -20.5 -47.5t-47.5 -20.5q-28 0 -48 20t-20 48q0 29 20 48.5t49 19.5zM288 684q27 0 47 -20t20 -48q0 -27 -20.5 -47.5t-47.5 -20.5q-28 0 -48 20t-20 48q0 29 20 48.5t49 19.5zM107 535l-23 172h120
l-23 -172h-74z" />
    <glyph glyph-name="Alpha" unicode="&#x391;" horiz-adv-x="602" 
d="M365 667l227 -667h-133l-41 139h-235l-42 -139h-131l225 667h130zM300 520l-85 -272h171z" />
    <glyph glyph-name="Beta" unicode="&#x392;" horiz-adv-x="588" 
d="M259 667q59 0 94 -3.5t62 -13.5q48 -16 76 -56.5t28 -94.5q0 -56 -26.5 -89.5t-83.5 -51.5q146 -33 146 -166q0 -62 -33.5 -109.5t-90.5 -65.5q-17 -5 -33 -8.5t-37 -5.5t-50.5 -2.5t-72.5 -0.5h-158v667h179zM261 398q35 0 55.5 2.5t35.5 8.5q19 8 30.5 27.5t11.5 44.5
q0 23 -11 42.5t-30 27.5q-15 7 -36.5 9.5t-62.5 2.5h-48v-165h55zM264 104q27 0 45 0.5t31 2t22.5 4t17.5 6.5q44 20 44 83q0 64 -50 85q-18 7 -40 9.5t-67 2.5h-61v-193h58z" />
    <glyph glyph-name="Gamma" unicode="&#x393;" horiz-adv-x="515" 
d="M80 667h420v-109h-289v-558h-131v667z" />
    <glyph glyph-name="Delta" unicode="&#x394;" horiz-adv-x="602" 
d="M235 667h130l227 -667h-582zM300 520l-125 -411h251z" />
    <glyph glyph-name="Epsilon" unicode="&#x395;" horiz-adv-x="537" 
d="M473 400v-109h-265v-182h302v-109h-430v667h419v-109h-291v-158h265z" />
    <glyph glyph-name="Zeta" unicode="&#x396;" horiz-adv-x="501" 
d="M482 667v-90l-307 -468h297v-109h-449v100l305 460h-275v107h429z" />
    <glyph glyph-name="Eta" unicode="&#x397;" horiz-adv-x="681" 
d="M473 401v266h128v-667h-128v295h-265v-295h-128v667h128v-266h265z" />
    <glyph glyph-name="Theta" unicode="&#x398;" horiz-adv-x="673" 
d="M337 680q60 0 112 -20.5t92 -59.5q48 -46 72.5 -113.5t24.5 -152.5q0 -86 -24.5 -153.5t-72.5 -113.5q-39 -38 -92 -59t-111 -21q-60 0 -113 21t-93 59q-96 93 -96 272q0 81 25 148.5t71 112.5q41 39 93.5 59.5t111.5 20.5zM337 570q-38 0 -68 -14.5t-50 -41.5
q-23 -32 -36.5 -79t-13.5 -98q0 -114 44.5 -177t123.5 -63q38 0 68 14.5t50 41.5q24 33 37 79.5t13 101.5q0 54 -13 101t-37 79q-20 27 -50 41.5t-68 14.5zM447 386v-106h-220v106h220z" />
    <glyph glyph-name="Iota" unicode="&#x399;" horiz-adv-x="288" 
d="M80 0v667h128v-667h-128z" />
    <glyph glyph-name="Kappa" unicode="&#x39a;" horiz-adv-x="623" 
d="M602 667l-249 -309l265 -358h-163l-245 354l244 313h148zM208 667v-667h-128v667h128z" />
    <glyph glyph-name="Lambda" unicode="&#x39b;" horiz-adv-x="609" 
d="M465 0l-160 521l-160 -521h-135l231 667h134l227 -667h-137z" />
    <glyph glyph-name="Mu" unicode="&#x39c;" horiz-adv-x="806" 
d="M259 667l144 -530l146 530h177v-667h-116v520l-142 -520h-132l-140 520v-520h-116v667h179z" />
    <glyph glyph-name="Nu" unicode="&#x39d;" horiz-adv-x="689" 
d="M217 667l270 -470v470h122v-667h-129l-278 470v-470h-122v667h137z" />
    <glyph glyph-name="Xi" unicode="&#x39e;" horiz-adv-x="536" 
d="M64 400h408v-109h-408v109zM27 109h483v-109h-483v109zM38 667h461v-109h-461v109z" />
    <glyph glyph-name="Omicron" unicode="&#x39f;" horiz-adv-x="673" 
d="M337 680q60 0 112 -20.5t92 -59.5q48 -46 72.5 -113.5t24.5 -152.5q0 -86 -24.5 -153.5t-72.5 -113.5q-39 -38 -92 -59t-111 -21q-60 0 -113 21t-93 59q-96 93 -96 272q0 81 25 148.5t71 112.5q41 39 93.5 59.5t111.5 20.5zM337 570q-38 0 -68 -14.5t-50 -41.5
q-23 -32 -36.5 -79t-13.5 -98q0 -114 44.5 -177t123.5 -63q38 0 68 14.5t50 41.5q24 33 37 79.5t13 101.5q0 54 -13 101t-37 79q-20 27 -50 41.5t-68 14.5z" />
    <glyph glyph-name="Pi" unicode="&#x3a0;" horiz-adv-x="681" 
d="M208 0h-128v667h521v-667h-128v561h-265v-561z" />
    <glyph glyph-name="Rho" unicode="&#x3a1;" horiz-adv-x="565" 
d="M236 667q37 0 65 -1t50 -3.5t40 -6t35 -9.5q57 -20 90 -70.5t33 -121.5t-35 -123t-95 -69q-14 -4 -30 -6.5t-36 -4t-45.5 -2.5t-59.5 -1h-40v-249h-128v667h156zM249 358q28 0 46 0.5t30.5 1.5t21.5 3.5t18 5.5q26 9 39.5 32t13.5 55q0 63 -45 86q-9 4 -19.5 7.5t-24 5
t-31.5 2.5t-43 1h-47v-200h41z" />
    <glyph glyph-name="Sigma" unicode="&#x3a3;" horiz-adv-x="485" 
d="M43 577v90h429v-107h-260l172 -227l-205 -224h283v-109h-449v100l225 235z" />
    <glyph glyph-name="Tau" unicode="&#x3a4;" horiz-adv-x="503" 
d="M492 667v-109h-176v-558h-128v558h-176v109h480z" />
    <glyph glyph-name="Upsilon" unicode="&#x3a5;" horiz-adv-x="562" 
d="M143 667l140 -266l138 266h141l-217 -404v-263h-128v263l-217 404h143z" />
    <glyph glyph-name="Phi" unicode="&#x3a6;" horiz-adv-x="748" 
d="M310 495q-38 -5 -59.5 -14t-39.5 -26q-24 -23 -37.5 -58t-13.5 -75q0 -74 39.5 -116t113.5 -48v337h-3zM435 158q37 3 59.5 11t42.5 25q24 21 37.5 54.5t13.5 72.5q0 32 -9 62t-25 53t-49 39t-70 20v-337zM435 599q65 -4 117 -24.5t88 -56t55.5 -84t19.5 -107.5
q0 -60 -19.5 -108.5t-55.5 -83.5t-88 -56t-117 -25v-54h-122v54q-65 4 -117 25t-88 56t-55.5 83.5t-19.5 108.5q0 59 19.5 107.5t55.5 84t88 56t117 24.5v68h122v-68z" />
    <glyph glyph-name="Chi" unicode="&#x3a7;" horiz-adv-x="584" 
d="M173 667l120 -207l123 207h146l-195 -320l207 -347h-146l-135 231l-137 -231h-146l208 347l-191 320h146z" />
    <glyph glyph-name="Psi" unicode="&#x3a8;" horiz-adv-x="741" 
d="M432 245q80 8 111 52q8 10 13 21.5t8 26.5t4 36.5t1 51.5v234h125v-236q0 -28 -0.5 -47t-1.5 -33.5t-3.5 -26.5t-5.5 -24q-43 -150 -251 -163v-137h-123v137q-81 5 -133 28.5t-86 68.5q-13 18 -21 35t-13 39.5t-7 51.5t-2 71v236h125v-234q0 -30 1 -51.5t4 -36.5t8 -26.5
t13 -21.5q31 -44 111 -52v422h123v-422z" />
    <glyph glyph-name="Omega" unicode="&#x3a9;" horiz-adv-x="709" 
d="M519 109h143v-109h-250v162l4 1l4 1q55 16 84 66t29 129q0 106 -45.5 160.5t-132.5 54.5t-132.5 -54.5t-45.5 -160.5q0 -163 117 -196l4 -1v-162h-251v109h144v17q-68 20 -106 84t-38 157q0 140 74 218q42 46 102 70.5t132 24.5q82 0 148.5 -31.5t107.5 -90.5
q51 -74 51 -191q0 -92 -38 -156.5t-105 -84.5v-17z" />
    <glyph glyph-name="Iotadieresis" unicode="&#x3aa;" horiz-adv-x="288" 
d="M80 0v667h128v-667h-128zM57 866q29 0 49 -20.5t20 -49.5t-20.5 -49.5t-49.5 -20.5t-49.5 20.5t-20.5 49.5t20.5 49.5t50.5 20.5zM234 866q28 0 48.5 -20.5t20.5 -49.5t-20.5 -49.5t-49.5 -20.5t-49.5 20.5t-20.5 49.5q0 30 20.5 50t50.5 20z" />
    <glyph glyph-name="Upsilondieresis" unicode="&#x3ab;" horiz-adv-x="562" 
d="M143 667l140 -266l138 266h141l-217 -404v-263h-128v263l-217 404h143zM189 871q29 0 51 -22t22 -52t-21.5 -51.5t-52.5 -21.5t-52 21t-21 52q0 32 21 53t53 21zM375 871q30 0 51.5 -22t21.5 -52q0 -31 -21.5 -52t-52.5 -21t-52 21t-21 52q0 32 21 53t53 21z" />
    <glyph glyph-name="alphatonos" unicode="&#x3ac;" horiz-adv-x="564" 
d="M357 237q-24 82 -49.5 117t-61.5 35q-40 0 -63.5 -41t-23.5 -111q0 -69 24 -110.5t63 -41.5q47 0 79 67q5 9 8 15t6 14t7 20.5t11 35.5zM438 475h112l-80 -235l84 -240h-125l-27 101q-13 -26 -21 -39t-19 -26q-43 -49 -122 -49q-46 0 -84 18t-65.5 51t-42.5 79t-15 102
q0 57 15 103t42.5 79t66 51t85.5 18q61 0 98 -25.5t64 -85.5zM244 535l-22 172h120l-23 -172h-75z" />
    <glyph glyph-name="epsilontonos" unicode="&#x3ad;" horiz-adv-x="470" 
d="M197 535l-22 172h120l-23 -172h-75zM270 189h-31q-26 0 -37.5 -1.5t-20.5 -6.5q-23 -15 -23 -42q0 -25 19.5 -39.5t52.5 -14.5q76 0 87 77l119 -8q-3 -31 -18.5 -61.5t-39.5 -53.5q-28 -28 -64 -40t-88 -12q-93 0 -143 37t-50 105q0 95 104 110q-96 15 -96 106
q0 67 50.5 105t138.5 38t141 -43t61 -119l-116 -12l-5 14q-7 22 -12 31t-15 16t-22.5 11t-26.5 4q-31 0 -50 -15t-19 -40q0 -17 9 -29t24 -17q5 -2 8.5 -2.5t8 -1t11 -0.5h18.5h25v-96z" />
    <glyph glyph-name="etatonos" unicode="&#x3ae;" horiz-adv-x="548" 
d="M173 475q10 -21 10 -61q53 71 141 71q45 0 81 -18.5t55 -50.5q7 -12 11 -23.5t6.5 -27t3.5 -37.5t1 -54v-471h-123v444q0 37 -2.5 57.5t-9.5 33.5q-19 39 -65 39q-26 0 -47.5 -14t-31.5 -37q-7 -14 -9 -31.5t-2 -51.5v-243h-123v305q0 43 -0.5 68.5t-2 42t-4.5 29
t-8 30.5h119zM237 535l-23 172h120l-23 -172h-74z" />
    <glyph glyph-name="iotatonos" unicode="&#x3af;" horiz-adv-x="261" 
d="M192 475v-475h-123v475h123zM93 535l-22 172h120l-23 -172h-75z" />
    <glyph glyph-name="upsilondieresistonos" unicode="&#x3b0;" horiz-adv-x="551" 
d="M486 475v-293q0 -94 -54.5 -145t-155.5 -51t-155.5 51t-54.5 145v293h123v-292q0 -46 16 -66q11 -14 30.5 -23t40.5 -9q26 0 46.5 11.5t30.5 30.5t10 56v292h123zM134 684q27 0 47 -20t20 -48q0 -27 -20.5 -47.5t-47.5 -20.5q-28 0 -48 20t-20 48q0 29 20 48.5t49 19.5z
M420 684q27 0 47 -20t20 -48q0 -27 -20.5 -47.5t-47.5 -20.5q-28 0 -48 20t-20 48q0 29 20 48.5t49 19.5zM239 535l-23 172h120l-23 -172h-74z" />
    <glyph glyph-name="alpha" unicode="&#x3b1;" horiz-adv-x="564" 
d="M357 237q-24 82 -49.5 117t-61.5 35q-40 0 -63.5 -41t-23.5 -111q0 -69 24 -110.5t63 -41.5q47 0 79 67q5 9 8 15t6 14t7 20.5t11 35.5zM438 475h112l-80 -235l84 -240h-125l-27 101q-13 -26 -21 -39t-19 -26q-43 -49 -122 -49q-46 0 -84 18t-65.5 51t-42.5 79t-15 102
q0 57 15 103t42.5 79t66 51t85.5 18q61 0 98 -25.5t64 -85.5z" />
    <glyph glyph-name="beta" unicode="&#x3b2;" horiz-adv-x="552" 
d="M69 417q0 26 0.5 43t1 29t2.5 21.5t5 21.5q17 75 72 115.5t139 40.5q100 0 155 -49t55 -139q0 -55 -19 -90t-61 -55q45 -16 70.5 -56.5t25.5 -96.5q0 -45 -15 -84t-41 -67.5t-61.5 -44.5t-77.5 -16t-71 14t-57 47v-248h-123v614zM276 404h22q0 2 7 3t18 2q8 0 19.5 10.5
t19.5 24.5q5 10 8 24t3 28q0 43 -23 68t-63 25q-59 0 -81 -48q-8 -16 -11 -37t-3 -60v-192q0 -46 4.5 -70t18.5 -45q29 -44 80 -44q45 0 69.5 29.5t24.5 80.5q0 68 -46 93q-11 7 -26 9.5t-41 2.5v96z" />
    <glyph glyph-name="gamma" unicode="&#x3b3;" horiz-adv-x="488" 
d="M183 -197v197l-176 475h131l106 -330l107 330h130l-175 -475v-197h-123z" />
    <glyph glyph-name="delta" unicode="&#x3b4;" horiz-adv-x="536" 
d="M97 578v93h348v-102h-191l133 -111q32 -27 53.5 -51.5t35 -50t19.5 -54.5t6 -64q0 -55 -17.5 -101t-48.5 -79.5t-74 -52t-94 -18.5q-52 0 -95 18.5t-74 52t-48 80.5t-17 103q0 78 30.5 132.5t88.5 80.5q38 17 74 17zM267 389q-49 0 -78.5 -41t-29.5 -109q0 -71 28.5 -112
t79.5 -41q50 0 79 41t29 110q0 70 -29 111t-79 41z" />
    <glyph glyph-name="epsilon" unicode="&#x3b5;" horiz-adv-x="470" 
d="M270 189h-31q-26 0 -37.5 -1.5t-20.5 -6.5q-23 -15 -23 -42q0 -25 19.5 -39.5t52.5 -14.5q76 0 87 77l119 -8q-6 -36 -20 -64t-38 -51q-28 -28 -64 -40t-88 -12q-93 0 -143 37t-50 105q0 95 104 110q-96 15 -96 106q0 67 50.5 105t138.5 38t141 -43t61 -119l-116 -12
l-5 14q-7 22 -12 31t-15 16t-22.5 11t-26.5 4q-31 0 -50 -15t-19 -40q0 -17 9 -29t24 -17q5 -2 8.5 -2.5t8 -1t11 -0.5h18.5h25v-96z" />
    <glyph glyph-name="zeta" unicode="&#x3b6;" horiz-adv-x="415" 
d="M66 569v102h348v-93q-71 -51 -119.5 -94t-78.5 -83.5t-43.5 -80.5t-13.5 -85q0 -42 9 -71.5t28 -49.5q15 -17 35.5 -25.5t62.5 -17.5q23 -5 37.5 -8t24 -6t15.5 -7t13 -9q15 -11 22 -27t7 -41q0 -27 -15.5 -71.5t-44.5 -98.5h-119q27 53 41.5 90.5t14.5 54.5
q0 8 -1.5 12.5t-8 8t-20 7t-37.5 8.5q-46 10 -73.5 23.5t-51.5 38.5q-65 68 -65 183q0 47 12.5 88.5t40.5 82t72.5 82t108.5 87.5h-201z" />
    <glyph glyph-name="eta" unicode="&#x3b7;" horiz-adv-x="548" 
d="M173 475q10 -21 10 -61q53 71 141 71q45 0 81 -18.5t55 -50.5q7 -12 11 -23.5t6.5 -27t3.5 -37.5t1 -54v-471h-123v444q0 37 -2.5 57.5t-9.5 33.5q-19 39 -65 39q-26 0 -47.5 -14t-31.5 -37q-7 -14 -9 -31.5t-2 -51.5v-243h-123v305q0 43 -0.5 68.5t-2 42t-4.5 29
t-8 30.5h119z" />
    <glyph glyph-name="theta" unicode="&#x3b8;" horiz-adv-x="536" 
d="M375 383q-6 93 -35 149.5t-72 56.5q-44 0 -73 -56t-35 -150h215zM160 287q3 -45 12 -82.5t23.5 -63.5t32.5 -40.5t39 -14.5q43 0 72.5 55t34.5 146h-214zM267 687q51 0 94.5 -26t74.5 -72.5t48.5 -111t17.5 -140.5t-17.5 -140.5t-49 -111t-74 -73t-93.5 -26.5
q-43 0 -84.5 21.5t-71.5 59.5q-79 100 -79 275q0 75 17.5 138t49 109t74 72t93.5 26z" />
    <glyph glyph-name="iota" unicode="&#x3b9;" horiz-adv-x="261" 
d="M192 475v-475h-123v475h123z" />
    <glyph glyph-name="kappa" unicode="&#x3ba;" horiz-adv-x="536" 
d="M516 475l-178 -220l194 -255h-165l-173 253l174 222h148zM192 475v-475h-123v475h123z" />
    <glyph glyph-name="lambda" unicode="&#x3bb;" horiz-adv-x="488" 
d="M138 0h-131l180 484l-64 188h123l235 -672h-130l-107 319z" />
    <glyph glyph-name="mu" unicode="&#x3bc;" horiz-adv-x="555" 
d="M188 -197h-123v672h123v-270q0 -59 18 -81q23 -26 63 -26q27 0 48.5 12t32.5 34q13 26 13 77v254h123v-328v-61t1.5 -36t3.5 -24t7 -26h-116q-4 8 -6.5 23t-3.5 32q-28 -35 -58.5 -50t-75.5 -15q-25 0 -50 6v-193z" />
    <glyph glyph-name="nu" unicode="&#x3bd;" horiz-adv-x="501" 
d="M141 475l110 -341l110 341h128l-172 -478h-137l-169 478h130z" />
    <glyph glyph-name="xi" unicode="&#x3be;" horiz-adv-x="418" 
d="M395 574q-40 0 -75.5 -3t-51.5 -8q-63 -20 -63 -71q0 -27 33.5 -45.5t82.5 -18.5h6.5t8.5 1v-102h-26q-39 0 -63.5 -5t-41.5 -18q-43 -29 -43 -97q0 -32 6.5 -54.5t22 -39t41 -27.5t62.5 -18q23 -5 37.5 -8t24 -6t16 -7t13.5 -9q29 -22 29 -68q0 -29 -14.5 -71t-43.5 -94
h-119q28 53 41 86.5t13 53.5q0 8 -1.5 12.5t-8 8t-20 7t-38.5 8.5q-45 10 -72.5 23.5t-51.5 38.5q-61 64 -61 159q0 76 40 128q18 22 39.5 35t60.5 26q-86 27 -86 90q0 52 48 84h-93v102h348v-93z" />
    <glyph glyph-name="omicron" unicode="&#x3bf;" horiz-adv-x="536" 
d="M268 488q51 0 94 -18.5t74 -52t48.5 -79.5t17.5 -101q0 -54 -17.5 -100t-48.5 -79.5t-74 -52t-94 -18.5q-52 0 -95.5 18.5t-74.5 52t-48 80.5t-17 103q0 54 17.5 99t49 78t74.5 51.5t94 18.5zM267 389q-49 0 -78.5 -41t-29.5 -109q0 -71 29 -112t80 -41q49 0 78.5 41
t29.5 110t-29.5 110.5t-79.5 41.5z" />
    <glyph glyph-name="pi" unicode="&#x3c0;" horiz-adv-x="527" 
d="M197 0h-123v379h-67v96h324h123h67v-96h-67v-379h-123v379h-134v-379z" />
    <glyph glyph-name="rho" unicode="&#x3c1;" horiz-adv-x="530" 
d="M50 198q0 46 1 75t4.5 49.5t10 35t17.5 32.5q62 99 199 99q48 0 82.5 -12.5t60.5 -39.5q35 -35 53 -85t18 -110q0 -55 -14.5 -101.5t-41 -80t-62.5 -52t-79 -18.5q-40 0 -69 14.5t-57 46.5v-248h-123v395zM273 391q-48 0 -75 -40.5t-27 -111.5q0 -68 27 -107t74 -39
t73 40t26 111q0 68 -26.5 107.5t-71.5 39.5z" />
    <glyph glyph-name="sigma1" unicode="&#x3c2;" horiz-adv-x="480" 
d="M339 318q-10 71 -77 71q-48 0 -75.5 -40.5t-27.5 -111.5q0 -43 9 -72.5t28 -50.5q15 -16 36 -25t62 -17q23 -5 37.5 -8.5t24 -6.5t16 -6.5t13.5 -8.5q15 -12 21.5 -27.5t6.5 -40.5q0 -29 -15.5 -72t-44.5 -99h-119q28 53 42 90t14 55q0 8 -1.5 12.5t-8 8.5t-20 7t-37.5 8
q-46 10 -73.5 24t-51.5 39q-65 70 -65 186q0 58 16.5 105.5t46.5 80.5t72.5 51t95.5 18q104 0 159 -71q16 -20 24 -42t13 -57h-121z" />
    <glyph glyph-name="sigma" unicode="&#x3c3;" horiz-adv-x="543" 
d="M537 379h-31.5t-20 0.5t-15 1t-15.5 2.5q26 -31 36.5 -63.5t10.5 -80.5q0 -56 -17 -102t-48 -79.5t-74 -52t-95 -18.5q-51 0 -94.5 18.5t-74.5 52t-48.5 79.5t-17.5 100q0 56 17.5 102.5t49.5 79.5t76.5 51t98.5 18h17.5t15.5 -1l20 -2.5t33 -4.5t62.5 -4t113.5 -1v-96z
M268 389q-49 0 -79 -41.5t-30 -108.5q0 -70 29.5 -111.5t79.5 -41.5t79 41t29 110q0 70 -29 111t-79 41z" />
    <glyph glyph-name="tau" unicode="&#x3c4;" horiz-adv-x="411" 
d="M267 0h-123v379h-137v96h398v-96h-138v-379z" />
    <glyph glyph-name="upsilon" unicode="&#x3c5;" horiz-adv-x="551" 
d="M485 475v-293q0 -94 -54.5 -145t-155.5 -51t-155.5 51t-54.5 145v293h123v-292q0 -46 16 -66q11 -14 30.5 -23t40.5 -9q26 0 46.5 11.5t30.5 30.5t10 56v292h123z" />
    <glyph glyph-name="phi" unicode="&#x3c6;" horiz-adv-x="680" 
d="M400 -197h-120v183q-55 1 -100.5 20t-78 52t-50.5 79t-18 100q0 55 18 100.5t50.5 79t78 52.5t100.5 20v182h120v-182q55 -1 100.5 -20t78 -52.5t50.5 -79t18 -100.5q0 -54 -18 -100t-50.5 -79t-78 -52t-100.5 -20v-183zM400 85q54 1 87.5 42.5t33.5 109.5
q0 69 -33.5 110.5t-87.5 42.5v-305zM280 390q-54 -1 -87.5 -42.5t-33.5 -110.5q0 -68 33.5 -109.5t87.5 -42.5v305z" />
    <glyph glyph-name="chi" unicode="&#x3c7;" horiz-adv-x="447" 
d="M301 475h137l-148 -320l170 -352h-139l-98 228l-97 -228h-139l171 352l-147 320h137l76 -190z" />
    <glyph glyph-name="psi" unicode="&#x3c8;" horiz-adv-x="680" 
d="M280 -197v183h-9q-102 0 -156.5 50.5t-54.5 145.5v293h120v-292q0 -46 17 -66q11 -15 31 -23.5t42 -8.5h2q3 0 5 1h3v389h120v-389h3q2 -1 5 -1h2q26 0 47.5 11.5t32.5 30.5q10 22 10 56v292h120v-293q0 -95 -54.5 -145.5t-156.5 -50.5h-9v-183h-120z" />
    <glyph glyph-name="omega" unicode="&#x3c9;" horiz-adv-x="643" 
d="M208 383q-14 -13 -23.5 -26.5t-15 -31t-8 -39.5t-2.5 -52q0 -148 53 -148q50 0 50 93v104h119v-104q0 -93 50 -93q12 0 20 5t13 18q20 40 20 120q0 35 -4 65.5t-12 47.5q-4 11 -10.5 20t-20.5 23l51 92q20 -11 34 -21t24.5 -20.5t18.5 -23.5t16 -31q14 -31 21.5 -70.5
t7.5 -81.5q0 -55 -12.5 -100t-35 -76.5t-54.5 -48.5t-71 -17q-46 0 -72 18.5t-43 62.5l-2 -4l-1 -2q-28 -75 -113 -75q-39 0 -71 17t-54.5 48.5t-35 76t-12.5 99.5q0 67 18.5 122.5t50.5 88.5q11 11 21.5 19t30.5 20z" />
    <glyph glyph-name="iotadieresis" unicode="&#x3ca;" horiz-adv-x="261" 
d="M192 475v-475h-123v475h123zM49 681q27 0 45.5 -18.5t18.5 -46.5q0 -26 -19 -45.5t-46 -19.5q-26 0 -45.5 19.5t-19.5 45.5q0 28 18.5 46.5t47.5 18.5zM213 681q27 0 45.5 -18.5t18.5 -46.5q0 -27 -19 -46t-46 -19q-26 0 -45.5 19.5t-19.5 45.5q0 27 19 46t47 19z" />
    <glyph glyph-name="upsilondieresis" unicode="&#x3cb;" horiz-adv-x="551" 
d="M485 475v-293q0 -94 -54.5 -145t-155.5 -51t-155.5 51t-54.5 145v293h123v-292q0 -46 16 -66q11 -14 30.5 -23t40.5 -9q26 0 46.5 11.5t30.5 30.5t10 56v292h123zM187 684q27 0 47.5 -20t20.5 -48q0 -27 -20.5 -47.5t-48.5 -20.5t-47.5 20t-19.5 48q0 29 19.5 48.5
t48.5 19.5zM365 684q28 0 47.5 -20t19.5 -48q0 -27 -20 -47.5t-48 -20.5t-48 20t-20 48q0 29 20 48.5t49 19.5z" />
    <glyph glyph-name="omicrontonos" unicode="&#x3cc;" horiz-adv-x="536" 
d="M268 488q51 0 94 -18.5t74 -52t48.5 -79.5t17.5 -101q0 -54 -17.5 -100t-48.5 -79.5t-74 -52t-94 -18.5q-52 0 -95.5 18.5t-74.5 52t-48 80.5t-17 103q0 54 17.5 99t49 78t74.5 51.5t94 18.5zM267 389q-49 0 -78.5 -41t-29.5 -109q0 -71 29 -112t80 -41q49 0 78.5 41
t29.5 110t-29.5 110.5t-79.5 41.5zM230 535l-23 172h121l-23 -172h-75z" />
    <glyph glyph-name="upsilontonos" unicode="&#x3cd;" horiz-adv-x="551" 
d="M485 475v-293q0 -94 -54.5 -145t-155.5 -51t-155.5 51t-54.5 145v293h123v-292q0 -46 16 -66q11 -14 30.5 -23t40.5 -9q26 0 46.5 11.5t30.5 30.5t10 56v292h123zM238 535l-23 172h120l-23 -172h-74z" />
    <glyph glyph-name="omegatonos" unicode="&#x3ce;" horiz-adv-x="643" 
d="M284 535l-23 172h121l-23 -172h-75zM478 474q16 -7 28 -13.5t21.5 -14t17.5 -16.5t17 -22q23 -34 35.5 -82.5t12.5 -99.5q0 -110 -52 -178q-45 -61 -121 -61q-46 0 -72 18.5t-43 62.5l-2 -4l-1 -2q-28 -75 -113 -75q-40 0 -72 17t-54.5 49t-34.5 76.5t-12 100.5
q0 54 12 100.5t35 79.5q12 18 28 32.5t47 34.5l51 -92q-17 -17 -24.5 -28.5t-12.5 -29.5q-5 -17 -7.5 -44t-2.5 -53q0 -42 4.5 -70.5t15.5 -50.5q5 -13 13 -18t20 -5q50 0 50 93v104h119v-104q0 -93 50 -93q53 0 53 147q0 31 -2.5 54t-8.5 40.5t-16 30.5t-25 25z" />
    <glyph glyph-name="theta1" unicode="&#x3d1;" horiz-adv-x="583" 
d="M10 162v96h202v-96q0 -77 62 -77q72 0 101 114q9 34 13 74t3 102q-38 0 -64.5 1.5t-47 5t-37 10t-32.5 16.5q-75 45 -75 136q0 66 42 104.5t113 38.5q180 0 221 -216h62v-96h-53v-2v-10q0 -7 -0.5 -24t-2 -36.5t-3 -37t-2.5 -26.5q-20 -122 -81 -187.5t-155 -65.5
q-115 0 -162 72q-13 20 -17.5 41.5t-4.5 62.5h-82zM384 471q-18 117 -83 117q-21 0 -33 -12.5t-12 -35.5q0 -48 60 -63q13 -3 28.5 -4.5t39.5 -1.5z" />
    <glyph glyph-name="Upsilon1" unicode="&#x3d2;" horiz-adv-x="556" 
d="M214 0v138q0 87 -13.5 152t-42.5 124q-30 59 -70 101.5t-101 81.5l78 87q70 -33 126 -104.5t87 -168.5q31 97 87 168.5t126 104.5l78 -87q-62 -38 -101.5 -81t-69.5 -102q-29 -59 -42.5 -124t-13.5 -152v-138h-128z" />
    <glyph glyph-name="phi1" unicode="&#x3d5;" horiz-adv-x="680" 
d="M218 388q-29 -26 -44 -65.5t-15 -85.5q0 -68 33.5 -109.5t87.5 -42.5v403q19 1 33 1.5t23 0.5q66 0 119 -11t87 -32q50 -32 77.5 -87t27.5 -123q0 -54 -18 -100t-50.5 -79t-78 -52t-100.5 -20v-183h-120v183q-55 1 -100.5 20t-78 52.5t-50.5 79t-18 100.5q0 72 32.5 129
t92.5 90zM400 85q54 1 87.5 42.5t33.5 109.5q0 69 -33.5 110.5t-87.5 42.5v-305z" />
    <glyph glyph-name="afii10023" unicode="&#x401;" horiz-adv-x="537" 
d="M473 400v-109h-265v-182h302v-109h-430v667h419v-109h-291v-158h265zM198 871q30 0 51 -21.5t21 -52.5q0 -32 -20.5 -52.5t-52.5 -20.5q-31 0 -52.5 21.5t-21.5 51.5q0 31 22 52.5t53 21.5zM384 871q29 0 51 -22t22 -52t-21.5 -51.5t-52.5 -21.5t-52 21t-21 52
q0 32 21 53t53 21z" />
    <glyph glyph-name="afii10051" unicode="&#x402;" horiz-adv-x="623" 
d="M368 -77q5 -1 9 -1h6q62 0 86 23q4 4 8 10.5t7 13.5t5 14t1 11l-1 6v216q0 37 -2.5 55t-10.5 32q-25 45 -93 45q-37 0 -68.5 -13t-48.5 -35v-300h-128v558h-126v109h480v-109h-226v-144q29 20 72.5 31t90.5 11q91 0 139.5 -46.5t48.5 -134.5v-30v-245q0 -5 -1.5 -17
t-3 -25t-3.5 -24t-3 -14q-22 -51 -75.5 -77.5t-135.5 -26.5h-11t-16 1v106z" />
    <glyph glyph-name="afii10052" unicode="&#x403;" horiz-adv-x="515" 
d="M80 667h420v-109h-289v-558h-131v667zM352 868h140l-175 -141h-109z" />
    <glyph glyph-name="afii10053" unicode="&#x404;" horiz-adv-x="597" 
d="M368 386v-106h-196q10 -88 51 -135t107 -47q59 0 88 34t40 116l118 -18q-2 -30 -5.5 -52.5t-10 -41.5t-16.5 -35.5t-24 -33.5q-66 -80 -184 -80q-69 0 -124.5 24.5t-94.5 69.5t-60.5 108.5t-21.5 142.5q0 91 27 161t80 118q78 69 188 69q95 0 163 -54q17 -14 29.5 -28.5
t21.5 -32t14.5 -39.5t10.5 -51l-118 -15q-14 57 -42.5 83t-79.5 26q-65 0 -106 -48t-51 -135h196z" />
    <glyph glyph-name="afii10054" unicode="&#x405;" horiz-adv-x="565" 
d="M388 471q-4 47 -32.5 72.5t-76.5 25.5q-42 0 -69.5 -20.5t-27.5 -51.5t34 -51q7 -4 12.5 -6.5t15.5 -7t28.5 -12t52.5 -20.5q44 -18 71 -29.5t43.5 -20.5t26.5 -17t21 -20q43 -46 43 -120q0 -47 -16.5 -85t-47.5 -65t-75 -41.5t-99 -14.5q-123 0 -189 61t-71 179h124
q12 -129 137 -129q48 0 77 19.5t29 51.5q0 40 -46 64q-6 4 -11 6.5t-16 7t-31 13t-57 23.5q-29 12 -51 22.5t-38.5 20.5t-29 19.5t-21.5 19.5q-44 50 -44 119q0 43 16.5 79t46.5 62t72 40.5t92 14.5q64 0 115.5 -24t81.5 -69q16 -24 23.5 -50t9.5 -66h-123z" />
    <glyph glyph-name="afii10055" unicode="&#x406;" horiz-adv-x="288" 
d="M80 0v667h128v-667h-128z" />
    <glyph glyph-name="afii10056" unicode="&#x407;" horiz-adv-x="288" 
d="M80 0v667h128v-667h-128zM57 866q29 0 49 -20.5t20 -49.5t-20.5 -49.5t-49.5 -20.5t-49.5 20.5t-20.5 49.5t20.5 49.5t50.5 20.5zM234 866q28 0 48.5 -20.5t20.5 -49.5t-20.5 -49.5t-49.5 -20.5t-49.5 20.5t-20.5 49.5q0 30 20.5 50t50.5 20z" />
    <glyph glyph-name="afii10057" unicode="&#x408;" horiz-adv-x="335" 
d="M258 667v-531q0 -46 -1 -76.5t-3.5 -51t-7.5 -34.5t-12 -28q-23 -42 -71 -61t-129 -19h-15t-23 1v107h15h7q35 -2 63.5 6.5t37.5 23.5q4 6 6 13t3 20.5t1.5 36t0.5 59.5v534h128z" />
    <glyph glyph-name="afii10058" unicode="&#x409;" horiz-adv-x="926" 
d="M569 418h40q34 0 59.5 -1t45.5 -2.5t36 -4t30 -6.5q30 -9 54 -26.5t41 -42.5t26 -56t9 -66q0 -72 -32.5 -122.5t-90.5 -70.5q-17 -6 -35 -9.5t-40 -6t-50 -3.5t-65 -1h-156v561h-193l-23 -377q-3 -94 -54 -139.5t-156 -47.5v105h6q73 0 77 83l26 482h445v-249zM569 109
h47q25 0 43 1t31.5 2.5t24 4.5t19.5 8q45 23 45 86q0 32 -13.5 55t-39.5 32q-9 3 -17.5 5.5t-21 3.5t-31 1.5t-46.5 0.5h-41v-200z" />
    <glyph glyph-name="afii10059" unicode="&#x40a;" horiz-adv-x="958" 
d="M473 667h128v-260h40q34 0 59.5 -1t45.5 -2.5t36 -4t30 -6.5q60 -17 95 -67t35 -119t-32.5 -118.5t-90.5 -69.5q-17 -5 -35 -9t-40.5 -6t-50 -3t-64.5 -1h-156v301h-265v-301h-128v667h128v-260h265v260zM601 109h47q49 0 74.5 3.5t43.5 12.5q22 10 33.5 31.5t11.5 50.5
q0 31 -13.5 53t-39.5 31q-9 3 -18 5t-21.5 3t-30.5 1.5t-46 0.5h-41v-192z" />
    <glyph glyph-name="afii10060" unicode="&#x40b;" horiz-adv-x="711" 
d="M489 216q0 37 -2.5 55t-10.5 32q-25 45 -93 45q-37 0 -68.5 -13t-48.5 -35v-300h-128v558h-126v109h480v-109h-226v-144q29 20 72.5 31t90.5 11q91 0 139.5 -46.5t48.5 -134.5v-30v-245h-128v216z" />
    <glyph glyph-name="afii10061" unicode="&#x40c;" horiz-adv-x="623" 
d="M602 667l-249 -309l265 -358h-163l-245 354l244 313h148zM208 667v-667h-128v667h128zM410 868h141l-176 -141h-109z" />
    <glyph glyph-name="afii10062" unicode="&#x40e;" horiz-adv-x="559" 
d="M190 869q20 -38 43.5 -54t56.5 -16t56 16t44 54h47q-8 -66 -47 -104t-100 -38q-60 0 -99.5 38t-47.5 104h47zM424 667h141l-314 -667h-128l93 203l-213 464h143l135 -322z" />
    <glyph glyph-name="afii10145" unicode="&#x40f;" horiz-adv-x="681" 
d="M404 -100h-128v100h-196v667h128v-561h265v561h128v-667h-197v-100z" />
    <glyph glyph-name="afii10017" unicode="&#x410;" horiz-adv-x="602" 
d="M365 667l227 -667h-133l-41 139h-235l-42 -139h-131l225 667h130zM300 520l-85 -272h171z" />
    <glyph glyph-name="afii10018" unicode="&#x411;" horiz-adv-x="570" 
d="M208 418h40q34 0 59.5 -1t45.5 -2.5t36 -4t30 -6.5q60 -17 95 -68t35 -123t-32.5 -122.5t-90.5 -70.5q-17 -6 -35 -9.5t-40 -6t-50 -3.5t-65 -1h-156v667h397v-109h-269v-140zM208 109h47q50 0 75 3.5t44 12.5q44 23 44 86q0 32 -13.5 55t-38.5 32q-9 3 -18 5.5
t-21.5 3.5t-31 1.5t-46.5 0.5h-41v-200z" />
    <glyph glyph-name="afii10019" unicode="&#x412;" horiz-adv-x="588" 
d="M259 667q59 0 94 -3.5t62 -13.5q48 -16 76 -56.5t28 -94.5q0 -56 -26.5 -89.5t-83.5 -51.5q146 -33 146 -166q0 -62 -33.5 -109.5t-90.5 -65.5q-17 -5 -33 -8.5t-37 -5.5t-50.5 -2.5t-72.5 -0.5h-158v667h179zM261 398q35 0 55.5 2.5t35.5 8.5q19 8 30.5 27.5t11.5 44.5
q0 23 -11 42.5t-30 27.5q-15 7 -36.5 9.5t-62.5 2.5h-48v-165h55zM264 104q27 0 45 0.5t31 2t22.5 4t17.5 6.5q44 20 44 83q0 64 -50 85q-18 7 -40 9.5t-67 2.5h-61v-193h58z" />
    <glyph glyph-name="afii10020" unicode="&#x413;" horiz-adv-x="515" 
d="M80 667h420v-109h-289v-558h-131v667z" />
    <glyph glyph-name="afii10021" unicode="&#x414;" horiz-adv-x="675" 
d="M667 106v-206h-128v100h-408v-100h-128v206h37q39 0 57 19t21 63l25 479h446v-561h78zM461 561h-194l-23 -374q-3 -56 -14 -81h231v455z" />
    <glyph glyph-name="afii10022" unicode="&#x415;" horiz-adv-x="537" 
d="M473 400v-109h-265v-182h302v-109h-430v667h419v-109h-291v-158h265z" />
    <glyph glyph-name="afii10024" unicode="&#x416;" horiz-adv-x="885" 
d="M505 667v-266h38l188 266h147l-229 -319l246 -348h-163l-192 295h-35v-295h-125v295h-35l-192 -295h-163l246 348l-229 319h147l188 -266h38v266h125z" />
    <glyph glyph-name="afii10025" unicode="&#x417;" horiz-adv-x="558" 
d="M34 467q5 31 11 54.5t15 42.5t21.5 34t29.5 29q32 28 74 40.5t101 12.5q103 0 163 -42q35 -24 55 -63.5t20 -86.5q0 -61 -24.5 -102t-69.5 -53q94 -25 94 -145q0 -50 -16.5 -85t-51.5 -64q-34 -27 -75 -39.5t-98 -12.5q-72 0 -119 18t-80 58q-14 16 -23.5 32.5
t-16.5 35.5t-12.5 43t-9.5 56l119 17q6 -78 38 -113.5t95 -35.5q56 0 86.5 25.5t30.5 71.5q0 85 -103 85h-57v106h57q49 0 76 23t27 65q0 45 -30 70t-85 25t-85.5 -26.5t-45.5 -86.5z" />
    <glyph glyph-name="afii10026" unicode="&#x418;" horiz-adv-x="689" 
d="M80 667h122v-417l285 351v66h122v-667h-122v417l-285 -351v-66h-122v667z" />
    <glyph glyph-name="afii10027" unicode="&#x419;" horiz-adv-x="689" 
d="M245 869q20 -38 43.5 -54t56.5 -16t56 16t44 54h47q-8 -66 -47 -104t-100 -38q-60 0 -99.5 38t-47.5 104h47zM80 667h122v-417l285 351v66h122v-667h-122v417l-285 -351v-66h-122v667z" />
    <glyph glyph-name="afii10028" unicode="&#x41a;" horiz-adv-x="623" 
d="M602 667l-249 -309l265 -358h-163l-245 354l244 313h148zM208 667v-667h-128v667h128z" />
    <glyph glyph-name="afii10029" unicode="&#x41b;" horiz-adv-x="649" 
d="M15 103h7h4q68 0 72 82l26 482h446v-667h-128v561h-194l-23 -377q-3 -94 -54 -139.5t-156 -47.5v106z" />
    <glyph glyph-name="afii10030" unicode="&#x41c;" horiz-adv-x="806" 
d="M259 667l144 -530l146 530h177v-667h-116v520l-142 -520h-132l-140 520v-520h-116v667h179z" />
    <glyph glyph-name="afii10031" unicode="&#x41d;" horiz-adv-x="681" 
d="M473 401v266h128v-667h-128v295h-265v-295h-128v667h128v-266h265z" />
    <glyph glyph-name="afii10032" unicode="&#x41e;" horiz-adv-x="673" 
d="M337 680q60 0 112 -20.5t92 -59.5q48 -46 72.5 -113.5t24.5 -152.5q0 -86 -24.5 -153.5t-72.5 -113.5q-39 -38 -92 -59t-111 -21q-60 0 -113 21t-93 59q-96 93 -96 272q0 81 25 148.5t71 112.5q41 39 93.5 59.5t111.5 20.5zM337 570q-38 0 -68 -14.5t-50 -41.5
q-23 -32 -36.5 -79t-13.5 -98q0 -114 44.5 -177t123.5 -63q38 0 68 14.5t50 41.5q24 33 37 79.5t13 101.5q0 54 -13 101t-37 79q-20 27 -50 41.5t-68 14.5z" />
    <glyph glyph-name="afii10033" unicode="&#x41f;" horiz-adv-x="681" 
d="M208 0h-128v667h521v-667h-128v561h-265v-561z" />
    <glyph glyph-name="afii10034" unicode="&#x420;" horiz-adv-x="565" 
d="M236 667q37 0 65 -1t50 -3.5t40 -6t35 -9.5q57 -20 90 -70.5t33 -121.5t-35 -123t-95 -69q-14 -4 -30 -6.5t-36 -4t-45.5 -2.5t-59.5 -1h-40v-249h-128v667h156zM249 358q28 0 46 0.5t30.5 1.5t21.5 3.5t18 5.5q26 9 39.5 32t13.5 55q0 63 -45 86q-9 4 -19.5 7.5t-24 5
t-31.5 2.5t-43 1h-47v-200h41z" />
    <glyph glyph-name="afii10035" unicode="&#x421;" horiz-adv-x="599" 
d="M454 450q-10 58 -41.5 88.5t-82.5 30.5q-37 0 -67 -16.5t-51 -47.5t-32 -75t-11 -98t11.5 -97.5t32.5 -74t51 -47t67 -16.5q116 0 128 150h114q-6 -130 -65.5 -195t-171.5 -65q-60 0 -111 19.5t-91 56.5q-98 93 -98 268q0 185 106 280q38 34 86 51.5t102 17.5
q107 0 167.5 -59.5t67.5 -170.5h-111z" />
    <glyph glyph-name="afii10036" unicode="&#x422;" horiz-adv-x="503" 
d="M492 667v-109h-176v-558h-128v558h-176v109h480z" />
    <glyph glyph-name="afii10037" unicode="&#x423;" horiz-adv-x="559" 
d="M424 667h141l-314 -667h-128l93 203l-213 464h143l135 -322z" />
    <glyph glyph-name="afii10038" unicode="&#x424;" horiz-adv-x="748" 
d="M435 0h-122v54q-65 4 -117 25.5t-88 57.5t-55.5 86t-19.5 111t19.5 110.5t55.5 85.5t88 57.5t117 25.5v54h122v-54q65 -4 117 -25.5t88 -57.5t55.5 -85.5t19.5 -110.5t-19.5 -111t-55.5 -86t-88 -57.5t-117 -25.5v-54zM313 509q-72 -5 -112.5 -51.5t-40.5 -124.5
q0 -77 40.5 -123.5t112.5 -51.5v351zM435 158q75 7 114 52t39 123t-39 123.5t-114 52.5v-351z" />
    <glyph glyph-name="afii10039" unicode="&#x425;" horiz-adv-x="584" 
d="M173 667l120 -207l123 207h146l-195 -320l207 -347h-146l-135 231l-137 -231h-146l208 347l-191 320h146z" />
    <glyph glyph-name="afii10040" unicode="&#x426;" horiz-adv-x="687" 
d="M679 106v-206h-128v100h-471v667h128v-561h265v561h128v-561h78z" />
    <glyph glyph-name="afii10041" unicode="&#x427;" horiz-adv-x="619" 
d="M412 253q-29 -20 -72 -31t-91 -11q-57 0 -99 19.5t-64 54.5q-8 12 -12.5 24.5t-7.5 27.5t-4 35.5t-1 49.5v245h128v-216q0 -37 2.5 -55t10.5 -32q24 -45 93 -45q37 0 68.5 12.5t48.5 35.5v300h128v-667h-128v253z" />
    <glyph glyph-name="afii10042" unicode="&#x428;" horiz-adv-x="927" 
d="M719 106v561h128v-667h-767v667h128v-561h191v561h128v-561h192z" />
    <glyph glyph-name="afii10043" unicode="&#x429;" horiz-adv-x="933" 
d="M80 0v667h128v-561h191v561h128v-561h192v561h128v-561h78v-206h-128v100h-717z" />
    <glyph glyph-name="afii10044" unicode="&#x42a;" horiz-adv-x="677" 
d="M320 667v-249h40q34 0 59.5 -1t45.5 -2.5t36 -4t30 -6.5q30 -9 54 -26.5t41 -42.5t26 -56t9 -66q0 -72 -32.5 -122.5t-90.5 -70.5q-17 -6 -35 -9.5t-40 -6t-50 -3.5t-65 -1h-156v558h-189v109h317zM320 109h47q25 0 43 1t31.5 2.5t24 4.5t19.5 8q45 23 45 86
q0 32 -13.5 55t-39.5 32q-9 3 -17.5 5.5t-21 3.5t-31 1.5t-46.5 0.5h-41v-200z" />
    <glyph glyph-name="afii10045" unicode="&#x42b;" horiz-adv-x="831" 
d="M80 667h128v-249h40q34 0 59.5 -1t45.5 -2.5t36 -4t30 -6.5q30 -9 54 -26.5t41 -42.5t26 -56t9 -66q0 -72 -32.5 -122.5t-90.5 -70.5q-17 -6 -35 -9.5t-40 -6t-50 -3.5t-65 -1h-156v667zM208 109h47q25 0 43 1t31.5 2.5t24 4.5t19.5 8q45 23 45 86q0 32 -13.5 55
t-39.5 32q-9 3 -17.5 5.5t-21 3.5t-31 1.5t-46.5 0.5h-41v-200zM623 0v667h128v-667h-128z" />
    <glyph glyph-name="afii10046" unicode="&#x42c;" horiz-adv-x="565" 
d="M80 667h128v-249h40q34 0 59.5 -1t45.5 -2.5t36 -4t30 -6.5q30 -9 54 -26.5t41 -42.5t26 -56t9 -66q0 -72 -32.5 -122.5t-90.5 -70.5q-17 -6 -35 -9.5t-40 -6t-50 -3.5t-65 -1h-156v667zM208 109h47q25 0 43 1t31.5 2.5t24 4.5t19.5 8q45 23 45 86q0 32 -13.5 55
t-39.5 32q-9 3 -17.5 5.5t-21 3.5t-31 1.5t-46.5 0.5h-41v-200z" />
    <glyph glyph-name="afii10047" unicode="&#x42d;" horiz-adv-x="597" 
d="M434 386q-10 87 -51 135t-106 48q-51 0 -79.5 -26t-42.5 -83l-118 15q6 30 12.5 52t15 39.5t20.5 31.5t28 28q32 26 73.5 40t89.5 14q54 0 102 -17.5t86 -51.5q53 -48 80 -118t27 -161q0 -79 -21.5 -142.5t-60.5 -108.5t-94.5 -69.5t-124.5 -24.5q-119 0 -184 80
q-14 16 -23 31.5t-15.5 34.5t-10.5 42.5t-7 54.5l118 18q13 -150 127 -150q66 0 107 47t52 135h-196v106h196z" />
    <glyph glyph-name="afii10048" unicode="&#x42e;" horiz-adv-x="958" 
d="M325 401q8 53 23 94t41 73q41 54 101.5 83t131.5 29q68 0 123.5 -25t95 -70t61 -109t21.5 -142t-21.5 -142t-61 -109.5t-95 -70.5t-123.5 -25q-83 0 -150.5 39t-105.5 108q-18 32 -29 73t-15 88h-114v-295h-128v667h128v-266h117zM622 571q-39 0 -70 -16.5t-52.5 -47
t-33.5 -73.5t-12 -97q0 -114 44 -177t124 -63q37 0 67.5 14.5t50.5 41.5q24 33 37 80t13 101q0 53 -13.5 101t-36.5 80q-20 26 -51.5 41t-66.5 15z" />
    <glyph glyph-name="afii10049" unicode="&#x42f;" horiz-adv-x="599" 
d="M519 0h-128v255h-92l-136 -255h-149l153 277q-58 26 -88 73t-30 112q0 58 25 103.5t70 69.5q17 9 35.5 15.5t42 10t55.5 5t76 1.5h166v-667zM391 558h-37q-33 0 -54 -0.5t-35 -2.5t-23.5 -5t-19.5 -9q-42 -25 -42 -78q0 -32 15 -54.5t41 -33.5q9 -3 18.5 -5.5t21.5 -3.5
t28.5 -1.5t40.5 -0.5h46v194z" />
    <glyph glyph-name="afii10065" unicode="&#x430;" horiz-adv-x="512" 
d="M57 333q5 41 17.5 65.5t38.5 44.5q27 20 66 31t85 11q62 0 104 -18.5t59 -52.5q11 -21 15 -46.5t4 -70.5v-191q0 -43 3.5 -65t12.5 -41h-112q-4 14 -5 24t-1 30q-39 -64 -131 -64q-81 0 -127 36t-46 99q0 49 28 85.5t80 56.5q16 6 28 10t29.5 8t45.5 9t76 14v8
q0 38 -17 55t-55 17q-71 0 -81 -55h-117zM327 226q-30 -4 -52 -7.5t-37 -7t-25.5 -8t-18.5 -10.5q-28 -20 -28 -52q0 -25 20 -41t52 -16q29 0 50 12t30 34q5 11 7 27t2 42v27z" />
    <glyph glyph-name="afii10066" unicode="&#x431;" horiz-adv-x="537" 
d="M476 608q-21 -18 -40 -24.5t-52 -6.5q-11 0 -17.5 0.5t-22.5 3.5q-40 8 -61 8q-48 0 -76 -35t-43 -114q26 26 54.5 37t70.5 11q49 0 88.5 -17.5t67.5 -50t43.5 -78.5t15.5 -102t-17 -102.5t-48 -80t-74 -52t-95 -18.5q-62 0 -113 27.5t-83 77.5q-21 34 -30 73.5t-9 101.5
q0 235 78 340q32 43 70 62t91 19q7 0 13.5 -0.5t14.5 -1t21 -2.5t34 -5q11 -2 17.5 -2.5t17.5 -0.5q25 0 43 7t41 24v-99zM270 389q-49 0 -79 -41t-30 -109q0 -70 29.5 -111.5t79.5 -41.5t79 41t29 110q0 70 -29 111t-79 41z" />
    <glyph glyph-name="afii10067" unicode="&#x432;" horiz-adv-x="487" 
d="M69 475h222q36 0 59.5 -6t43.5 -20q47 -33 47 -96q0 -38 -16 -63t-53 -43q82 -30 82 -107q0 -29 -11.5 -56t-32.5 -47q-11 -11 -23.5 -18t-28 -11t-35.5 -6t-47 -2h-207v475zM192 92h63q77 0 77 53q0 52 -73 52h-67v-105zM192 287h56q70 0 70 49q0 14 -7 25t-18 16
q-7 3 -16.5 4.5t-26.5 1.5h-58v-96z" />
    <glyph glyph-name="afii10068" unicode="&#x433;" horiz-adv-x="384" 
d="M192 0h-123v475h309v-96h-186v-379z" />
    <glyph glyph-name="afii10069" unicode="&#x434;" horiz-adv-x="538" 
d="M469 475v-379h58v-196h-123v100h-274v-100h-123v196q39 -1 57.5 20t19.5 68l15 291h370zM346 96v283h-132l-15 -204q-2 -29 -6.5 -47t-12.5 -32h166z" />
    <glyph glyph-name="afii10070" unicode="&#x435;" horiz-adv-x="515" 
d="M156 208q3 -60 32.5 -91t82.5 -31q35 0 57 12.5t35 40.5l109 -5q-16 -69 -70.5 -108t-133.5 -39q-54 0 -97.5 17t-74 49t-47 77t-16.5 102q0 58 16.5 105t47 80.5t73 52t94.5 18.5q102 0 159.5 -68t57.5 -188v-24h-325zM357 298q-15 95 -94 95q-80 0 -104 -95h198z" />
    <glyph glyph-name="afii10072" unicode="&#x436;" horiz-adv-x="686" 
d="M283 202h-29l-119 -202h-142l166 252l-163 223h135l122 -177h30v177h119v-177h30l122 177h135l-163 -223l166 -252h-142l-119 202h-29v-202h-119v202z" />
    <glyph glyph-name="afii10073" unicode="&#x437;" horiz-adv-x="470" 
d="M225 285h18.5t11 0.5t8 1t8.5 2.5q15 5 24 17t9 29q0 25 -19 40t-50 15q-14 0 -26.5 -4t-22.5 -11t-15 -16t-12 -31l-5 -14l-115 12q11 80 62 121t139 41t138.5 -38t50.5 -105q0 -91 -96 -106q104 -15 104 -110q0 -68 -50 -105t-143 -37q-60 0 -100 16.5t-69 54.5
q-17 21 -26.5 43.5t-14.5 52.5l119 8q11 -77 87 -77q33 0 52.5 14.5t19.5 39.5q0 33 -29 44q-8 4 -18.5 5t-33.5 1h-31v96h25z" />
    <glyph glyph-name="afii10074" unicode="&#x438;" horiz-adv-x="562" 
d="M189 44v-44h-120v475h120v-260l187 216v44h120v-475h-120v260z" />
    <glyph glyph-name="afii10075" unicode="&#x439;" horiz-adv-x="562" 
d="M210 683q18 -37 38 -53t48 -16q27 0 45 15.5t37 53.5h51q-8 -69 -42 -106.5t-89 -37.5q-58 0 -94.5 38t-44.5 106h51zM189 44v-44h-120v475h120v-260l187 216v44h120v-475h-120v260z" />
    <glyph glyph-name="afii10076" unicode="&#x43a;" horiz-adv-x="536" 
d="M516 475l-178 -220l194 -255h-165l-173 253l174 222h148zM192 475v-475h-123v475h123z" />
    <glyph glyph-name="afii10077" unicode="&#x43b;" horiz-adv-x="545" 
d="M222 379l-15 -208q-3 -48 -15 -81.5t-35.5 -54t-58.5 -29.5t-85 -9v96h6h4q16 -1 31 6.5t24 21.5q6 10 8.5 22.5t4.5 36.5l16 295h369v-475h-123v379h-131z" />
    <glyph glyph-name="afii10078" unicode="&#x43c;" horiz-adv-x="702" 
d="M291 0l-109 365v-365h-113v475h181l102 -350l101 350h181v-475h-113v365l-109 -365h-121z" />
    <glyph glyph-name="afii10079" unicode="&#x43d;" horiz-adv-x="551" 
d="M192 202v-202h-123v475h123v-177h168v177h123v-475h-123v202h-168z" />
    <glyph glyph-name="afii10080" unicode="&#x43e;" horiz-adv-x="536" 
d="M268 488q51 0 94 -18.5t74 -52t48.5 -79.5t17.5 -101q0 -54 -17.5 -100t-48.5 -79.5t-74 -52t-94 -18.5q-52 0 -95.5 18.5t-74.5 52t-48 80.5t-17 103q0 54 17.5 99t49 78t74.5 51.5t94 18.5zM267 389q-49 0 -78.5 -41t-29.5 -109q0 -71 29 -112t80 -41q49 0 78.5 41
t29.5 110t-29.5 110.5t-79.5 41.5z" />
    <glyph glyph-name="afii10081" unicode="&#x43f;" horiz-adv-x="551" 
d="M192 379v-379h-123v475h414v-475h-123v379h-168z" />
    <glyph glyph-name="afii10082" unicode="&#x440;" horiz-adv-x="548" 
d="M69 324q0 61 -2 93.5t-7 57.5h115q4 -9 5.5 -21t2.5 -35q26 35 56.5 50.5t74.5 15.5q45 0 82 -17.5t63.5 -50t41 -77.5t14.5 -99q0 -55 -14.5 -101t-41 -79.5t-62.5 -52t-79 -18.5q-40 0 -69 14.5t-57 46.5v-248h-123v521zM292 382q-48 0 -75 -39t-27 -108q0 -66 27 -104
t74 -38t73 38.5t26 107.5q0 33 -8.5 62.5t-23.5 50.5q-22 30 -66 30z" />
    <glyph glyph-name="afii10083" unicode="&#x441;" horiz-adv-x="497" 
d="M339 318q-10 71 -77 71q-48 0 -75.5 -40.5t-27.5 -111.5q0 -73 26.5 -112t75.5 -39q73 0 83 83h119q-5 -78 -58 -130t-144 -52q-51 0 -93 18t-72 51t-46.5 79t-16.5 102q0 57 16.5 103t46.5 79t72.5 51t94.5 18q105 0 160 -71q16 -20 24 -42t13 -57h-121z" />
    <glyph glyph-name="afii10084" unicode="&#x442;" horiz-adv-x="411" 
d="M267 0h-123v379h-137v96h398v-96h-138v-379z" />
    <glyph glyph-name="afii10085" unicode="&#x443;" horiz-adv-x="499" 
d="M146 475l106 -362l110 362h128l-161 -462q-12 -33 -18.5 -52t-12 -31t-10.5 -20.5t-13 -21.5q-29 -48 -75.5 -68.5t-125.5 -20.5h-18t-28 1v107q39 -1 65.5 1.5t43.5 10.5t28 22t19 37l-168 497h130z" />
    <glyph glyph-name="afii10086" unicode="&#x444;" horiz-adv-x="720" 
d="M420 671v-222q20 22 40 30.5t52 8.5q82 0 128.5 -66t46.5 -184t-46.5 -184.5t-129.5 -66.5q-31 0 -50 8t-41 30v-222h-120v222q-22 -22 -41 -30t-50 -8q-83 0 -129.5 66.5t-46.5 184.5q0 58 12 104.5t34.5 78.5t54.5 49.5t73 17.5q32 0 52.5 -8.5t40.5 -30.5v222h120z
M485 389q-37 0 -52 -37q-8 -19 -10.5 -44t-2.5 -73q0 -46 2.5 -70t10.5 -42q15 -37 53 -37t56.5 37.5t18.5 115.5t-18.5 114t-57.5 36zM235 389q-39 0 -57.5 -36t-18.5 -114t18.5 -115.5t56.5 -37.5t53 37q8 18 10.5 42t2.5 70q0 86 -14.5 120t-50.5 34z" />
    <glyph glyph-name="afii10087" unicode="&#x445;" horiz-adv-x="501" 
d="M172 475l78 -133l81 133h146l-151 -222l174 -253h-150l-100 157l-100 -157h-149l175 253l-151 222h147z" />
    <glyph glyph-name="afii10088" unicode="&#x446;" horiz-adv-x="552" 
d="M541 96v-196h-123v100h-349v475h123v-379h168v379h123v-379h58z" />
    <glyph glyph-name="afii10089" unicode="&#x447;" horiz-adv-x="523" 
d="M332 170q-27 -19 -62.5 -29.5t-71.5 -10.5q-72 0 -111.5 42t-39.5 117v186h123v-152q0 -45 16.5 -65t54.5 -20q26 0 50 10t41 27v200h123v-475h-123v170z" />
    <glyph glyph-name="afii10090" unicode="&#x448;" horiz-adv-x="762" 
d="M570 475h123v-475h-624v475h123v-379h127v379h123v-379h128v379z" />
    <glyph glyph-name="afii10091" unicode="&#x449;" horiz-adv-x="763" 
d="M752 96v-196h-123v100h-560v475h123v-379h127v379h123v-379h128v379h123v-379h59z" />
    <glyph glyph-name="afii10092" unicode="&#x44a;" horiz-adv-x="525" 
d="M250 475v-165h79q46 0 76.5 -7t52.5 -23q26 -20 40 -51t14 -69q0 -36 -11.5 -65.5t-32.5 -50.5t-50.5 -32.5t-64.5 -11.5h-226v379h-127v96h250zM250 92h67q35 0 54 16.5t19 46.5q0 29 -19 45.5t-54 16.5h-67v-125z" />
    <glyph glyph-name="afii10093" unicode="&#x44b;" horiz-adv-x="693" 
d="M192 92h67q72 0 72 63q0 62 -72 62h-67v-125zM271 310q46 0 76.5 -7t52.5 -23q26 -20 40 -50.5t14 -68.5q0 -36 -11.5 -65.5t-32.5 -50.5t-50.5 -33t-64.5 -12h-226v475h123v-165h79zM624 475v-475h-123v475h123z" />
    <glyph glyph-name="afii10094" unicode="&#x44c;" horiz-adv-x="467" 
d="M192 92h67q72 0 72 63q0 62 -72 62h-67v-125zM271 310q46 0 76.5 -7t52.5 -23q26 -20 40 -50.5t14 -68.5q0 -36 -11.5 -65.5t-32.5 -50.5t-50.5 -33t-64.5 -12h-226v475h123v-165h79z" />
    <glyph glyph-name="afii10095" unicode="&#x44d;" horiz-adv-x="497" 
d="M336 285q-21 104 -99 104q-65 0 -77 -71l-118 12q11 75 62 116.5t132 41.5q52 0 94.5 -18t72.5 -50.5t46.5 -79t16.5 -103.5q0 -56 -16.5 -102t-46.5 -79t-72 -51t-93 -18q-52 0 -93 18t-68 53q-14 18 -23 40.5t-17 57.5l119 8q12 -79 82 -79q41 0 64.5 25t34.5 79h-134
v96h133z" />
    <glyph glyph-name="afii10096" unicode="&#x44e;" horiz-adv-x="773" 
d="M277 298q19 88 80 139t148 51q51 0 94.5 -18.5t74.5 -52t48.5 -79.5t17.5 -101t-17.5 -101t-48.5 -79t-74.5 -51.5t-94.5 -18.5q-47 0 -86.5 15.5t-70 43.5t-50 67.5t-25.5 88.5h-81v-202h-123v475h123v-177h85zM505 389q-48 0 -78 -41t-30 -109q0 -71 29 -112t80 -41
q49 0 78.5 41t29.5 110t-29.5 110.5t-79.5 41.5z" />
    <glyph glyph-name="afii10097" unicode="&#x44f;" 
d="M156 0h-123l104 177q-44 14 -67.5 50.5t-23.5 87.5q0 36 11.5 65.5t32.5 50.5t50.5 32.5t64.5 11.5h226v-475h-123v165h-61zM308 383h-67q-35 0 -54 -16.5t-19 -45.5q0 -30 19 -46.5t54 -16.5h67v125z" />
    <glyph glyph-name="afii10071" unicode="&#x451;" horiz-adv-x="515" 
d="M156 208q3 -60 32.5 -91t82.5 -31q35 0 57 12.5t35 40.5l109 -5q-16 -69 -70.5 -108t-133.5 -39q-54 0 -97.5 17t-74 49t-47 77t-16.5 102q0 58 16.5 105t47 80.5t73 52t94.5 18.5q102 0 159.5 -68t57.5 -188v-24h-325zM357 298q-15 95 -94 95q-80 0 -104 -95h198z
M179 684q28 0 47.5 -19.5t19.5 -48.5q0 -28 -20 -48t-48 -20q-27 0 -47.5 20.5t-20.5 47.5q0 29 20 48.5t49 19.5zM357 684q27 0 47 -20t20 -48q0 -27 -20 -47.5t-48 -20.5t-48 20t-20 48q0 29 20 48.5t49 19.5z" />
    <glyph glyph-name="afii10099" unicode="&#x452;" horiz-adv-x="555" 
d="M245 -64h15q53 0 79 16q11 8 19.5 23t8.5 28v244q0 36 -2.5 56t-10.5 34q-22 40 -68 40q-26 0 -48.5 -14.5t-33.5 -37.5q-6 -15 -9 -34t-3 -48v-243h-123v528h-60v80h60v63h123v-63h133v-80h-133v-105q53 62 136 62q46 0 83.5 -19t56.5 -51q7 -11 11 -23t6.5 -27.5
t3.5 -37.5t1 -53v-276q0 -82 -56 -125t-162 -43h-11.5t-15.5 1v105z" />
    <glyph glyph-name="afii10100" unicode="&#x453;" horiz-adv-x="384" 
d="M192 0h-123v475h309v-96h-186v-379zM259 693h149l-173 -152h-95z" />
    <glyph glyph-name="afii10101" unicode="&#x454;" horiz-adv-x="497" 
d="M296 285v-96h-134q11 -54 34.5 -79t64.5 -25q70 0 82 79l119 -8q-10 -44 -22.5 -70.5t-35.5 -46.5q-53 -52 -143 -52q-51 0 -93 18t-72 51t-46.5 79t-16.5 102q0 57 16.5 103.5t46.5 79t72.5 50.5t94.5 18q81 0 132 -41.5t62 -116.5l-118 -12q-12 71 -77 71
q-78 0 -99 -104h133z" />
    <glyph glyph-name="afii10102" unicode="&#x455;" horiz-adv-x="485" 
d="M320 331q-9 66 -77 66q-28 0 -46.5 -14t-18.5 -36q0 -12 3 -19t14.5 -14t34.5 -14.5t63 -19.5q55 -16 81.5 -29t41.5 -31q26 -34 26 -80q0 -73 -50 -113t-143 -40q-211 0 -211 172h116q3 -42 24 -60.5t66 -18.5q36 0 55.5 13t19.5 38q0 14 -7 22t-26 16q-5 2 -9.5 3.5
l-13.5 4.5t-27 8.5t-50 15.5q-36 11 -61 23t-40.5 28t-22 36t-6.5 46q0 35 13.5 63.5t38.5 49t60 31.5t78 11q87 0 137.5 -41.5t55.5 -116.5h-119z" />
    <glyph glyph-name="afii10103" unicode="&#x456;" horiz-adv-x="261" 
d="M192 475v-475h-123v475h123zM132 680q32 0 51 -19.5t19 -51.5t-20 -52t-52 -20t-51.5 19t-19.5 51q0 33 20 53t53 20z" />
    <glyph glyph-name="afii10104" unicode="&#x457;" horiz-adv-x="261" 
d="M192 475v-475h-123v475h123zM49 681q27 0 45.5 -18.5t18.5 -46.5q0 -26 -19 -45.5t-46 -19.5q-26 0 -45.5 19.5t-19.5 45.5q0 28 18.5 46.5t47.5 18.5zM213 681q27 0 45.5 -18.5t18.5 -46.5q0 -27 -19 -46t-46 -19q-26 0 -45.5 19.5t-19.5 45.5q0 27 19 46t47 19z" />
    <glyph glyph-name="afii10105" unicode="&#x458;" horiz-adv-x="272" 
d="M206 475v-407q0 -38 -1 -63.5t-4.5 -44.5t-9.5 -33.5t-16 -29.5q-27 -42 -72 -61.5t-117 -19.5h-11t-15 1v105h15q83 0 100 44q3 7 4.5 12t2.5 14.5t1 26.5v48v408h123zM147 680q32 0 50.5 -19.5t18.5 -51.5q0 -33 -19.5 -52.5t-51.5 -19.5t-52 19t-20 51q0 33 20.5 53
t53.5 20z" />
    <glyph glyph-name="afii10106" unicode="&#x459;" horiz-adv-x="751" 
d="M476 92h67q72 0 72 63q0 62 -72 62h-67v-125zM555 310q46 0 76.5 -7t52.5 -23q26 -20 40 -50.5t14 -68.5q0 -36 -11.5 -65.5t-32.5 -50.5t-50.5 -33t-64.5 -12h-226v379h-131l-15 -208q-3 -48 -15 -81.5t-35.5 -54t-58.5 -29.5t-85 -9v96h5h5q36 0 55 28q6 10 8.5 22.5
t4.5 36.5l16 295h369v-165h79z" />
    <glyph glyph-name="afii10107" unicode="&#x45a;" horiz-adv-x="757" 
d="M192 209v-209h-123v475h123v-170h167v170h123v-170h79q46 0 76.5 -7t51.5 -23q26 -19 40.5 -49t14.5 -68q0 -35 -11.5 -64t-32.5 -50t-50.5 -32.5t-64.5 -11.5h-226v209h-167zM482 92h67q35 0 54 15.5t19 43.5q0 27 -19 42.5t-54 15.5h-67v-117z" />
    <glyph glyph-name="afii10108" unicode="&#x45b;" horiz-adv-x="555" 
d="M325 608v-80h-133v-105q56 62 136 62q46 0 83.5 -19t56.5 -51q7 -11 11 -23t6.5 -27.5t3.5 -37.5t1 -53v-274h-123v247q0 36 -2.5 56t-10.5 34q-10 19 -28 29.5t-40 10.5q-26 0 -48.5 -14.5t-33.5 -37.5q-6 -15 -9 -34t-3 -48v-243h-123v528h-60v80h60v63h123v-63h133z
" />
    <glyph glyph-name="afii10109" unicode="&#x45c;" horiz-adv-x="536" 
d="M516 475l-178 -220l194 -255h-165l-173 253l174 222h148zM192 475v-475h-123v475h123zM328 693h150l-174 -152h-94z" />
    <glyph glyph-name="afii10110" unicode="&#x45e;" horiz-adv-x="499" 
d="M146 475l106 -362l110 362h128l-161 -462q-12 -33 -18.5 -52t-12 -31t-10.5 -20.5t-13 -21.5q-29 -48 -75.5 -68.5t-125.5 -20.5h-18t-28 1v107q39 -1 65.5 1.5t43.5 10.5t28 22t19 37l-168 497h130zM176 683q18 -37 38 -53t48 -16q27 0 45 15.5t37 53.5h51
q-8 -69 -42 -106.5t-89 -37.5q-58 0 -94.5 38t-44.5 106h51z" />
    <glyph glyph-name="afii10193" unicode="&#x45f;" horiz-adv-x="551" 
d="M69 0v475h123v-379h168v379h123v-475h-146v-100h-123v100h-145z" />
    <glyph glyph-name="afii10050" unicode="&#x490;" horiz-adv-x="515" 
d="M500 558h-289v-558h-131v667h289v82h131v-191z" />
    <glyph glyph-name="afii10098" unicode="&#x491;" horiz-adv-x="384" 
d="M378 379h-186v-379h-123v475h186v55h123v-151z" />
    <glyph glyph-name="uni04C0" unicode="&#x4c0;" horiz-adv-x="288" 
d="M80 0v667h128v-667h-128z" />
    <glyph glyph-name="Wdieresis" unicode="&#x1e84;" horiz-adv-x="868" 
d="M129 667l127 -521l124 521h110l124 -521l129 521h117l-172 -667h-145l-110 434l-108 -434h-145l-171 667h120zM342 871q30 0 51.5 -22t21.5 -52q0 -31 -21.5 -52t-52.5 -21t-52 21t-21 52q0 32 21.5 53t52.5 21zM528 871q30 0 51.5 -22t21.5 -52q0 -31 -21 -52t-53 -21
q-31 0 -52 21t-21 52t21.5 52.5t52.5 21.5z" />
    <glyph glyph-name="uni1EA0" unicode="&#x1ea0;" horiz-adv-x="602" 
d="M365 667l227 -667h-133l-41 139h-235l-42 -139h-131l225 667h130zM300 520l-85 -272h171zM302 -47q32 0 55 -23.5t23 -55.5q0 -33 -23 -56t-56 -23t-56 23t-23 56q0 34 23 56.5t57 22.5z" />
    <glyph glyph-name="uni1EA1" unicode="&#x1ea1;" horiz-adv-x="512" 
d="M57 333q5 41 17.5 65.5t38.5 44.5q27 20 66 31t85 11q62 0 104 -18.5t59 -52.5q11 -21 15 -46.5t4 -70.5v-191q0 -43 3.5 -65t12.5 -41h-112q-4 14 -5 24t-1 30q-39 -64 -131 -64q-81 0 -127 36t-46 99q0 49 28 85.5t80 56.5q16 6 28 10t29.5 8t45.5 9t76 14v8
q0 38 -17 55t-55 17q-71 0 -81 -55h-117zM327 226q-30 -4 -52 -7.5t-37 -7t-25.5 -8t-18.5 -10.5q-28 -20 -28 -52q0 -25 20 -41t52 -16q29 0 50 12t30 34q5 11 7 27t2 42v27zM216 -52q32 0 55 -23t23 -56q0 -34 -22.5 -56.5t-56.5 -22.5q-33 0 -56 23t-23 56t23.5 56
t56.5 23z" />
    <glyph glyph-name="uni1EA2" unicode="&#x1ea2;" horiz-adv-x="602" 
d="M365 667l227 -667h-133l-41 139h-235l-42 -139h-131l225 667h130zM300 520l-85 -272h171zM271 813q12 -3 19.5 -4t15.5 -1q32 0 52 18.5t20 47.5q0 27 -16 44.5t-41 17.5q-29 0 -77 -24v55q49 35 99 35q25 0 47.5 -9t39 -25t26 -38t9.5 -47q0 -48 -37 -78
q-20 -16 -41.5 -23t-62.5 -10v-48h-53v89z" />
    <glyph glyph-name="uni1EA3" unicode="&#x1ea3;" horiz-adv-x="512" 
d="M57 333q5 41 17.5 65.5t38.5 44.5q27 20 66 31t85 11q62 0 104 -18.5t59 -52.5q11 -21 15 -46.5t4 -70.5v-191q0 -43 3.5 -65t12.5 -41h-112q-4 14 -5 24t-1 30q-39 -64 -131 -64q-81 0 -127 36t-46 99q0 49 28 85.5t80 56.5q16 6 28 10t29.5 8t45.5 9t76 14v8
q0 38 -17 55t-55 17q-71 0 -81 -55h-117zM327 226q-30 -4 -52 -7.5t-37 -7t-25.5 -8t-18.5 -10.5q-28 -20 -28 -52q0 -25 20 -41t52 -16q29 0 50 12t30 34q5 11 7 27t2 42v27zM225 630q12 -3 19.5 -4t15.5 -1q32 0 52 18.5t20 47.5q0 27 -16 44.5t-41 17.5q-29 0 -77 -24v55
q49 35 99 35q25 0 47.5 -9t39 -25t26 -38t9.5 -47q0 -48 -37 -78q-20 -16 -41.5 -23t-62.5 -10v-48h-53v89z" />
    <glyph glyph-name="uni1EA4" unicode="&#x1ea4;" horiz-adv-x="602" 
d="M550 946h152l-203 -163h-66l55 -56h-117l-70 77l-70 -77h-117l137 141h99l59 -60zM365 667l227 -667h-133l-41 139h-235l-42 -139h-131l225 667h130zM300 520l-85 -272h171z" />
    <glyph glyph-name="uni1EA5" unicode="&#x1ea5;" horiz-adv-x="512" 
d="M461 760h151l-186 -163h-41l45 -56h-111l-60 86l-58 -86h-112l121 152h99l50 -63zM57 333q5 41 17.5 65.5t38.5 44.5q27 20 66 31t85 11q62 0 104 -18.5t59 -52.5q11 -21 15 -46.5t4 -70.5v-191q0 -43 3.5 -65t12.5 -41h-112q-4 14 -5 24t-1 30q-39 -64 -131 -64
q-81 0 -127 36t-46 99q0 49 28 85.5t80 56.5q16 6 28 10t29.5 8t45.5 9t76 14v8q0 38 -17 55t-55 17q-71 0 -81 -55h-117zM327 226q-30 -4 -52 -7.5t-37 -7t-25.5 -8t-18.5 -10.5q-28 -20 -28 -52q0 -25 20 -41t52 -16q29 0 50 12t30 34q5 11 7 27t2 42v27z" />
    <glyph glyph-name="uni1EA6" unicode="&#x1ea6;" horiz-adv-x="602" 
d="M110 793l-203 163h152l142 -140l50 52h99l138 -141h-117l-70 78l-70 -78h-117l64 66h-68zM365 667l227 -667h-133l-41 139h-235l-42 -139h-131l225 667h130zM300 520l-85 -272h171z" />
    <glyph glyph-name="uni1EA7" unicode="&#x1ea7;" horiz-adv-x="512" 
d="M106 620l-186 163h152l103 -133l34 43h99l122 -152h-111l-60 86l-58 -86h-112l62 79h-45zM57 333q5 41 17.5 65.5t38.5 44.5q27 20 66 31t85 11q62 0 104 -18.5t59 -52.5q11 -21 15 -46.5t4 -70.5v-191q0 -43 3.5 -65t12.5 -41h-112q-4 14 -5 24t-1 30q-39 -64 -131 -64
q-81 0 -127 36t-46 99q0 49 28 85.5t80 56.5q16 6 28 10t29.5 8t45.5 9t76 14v8q0 38 -17 55t-55 17q-71 0 -81 -55h-117zM327 226q-30 -4 -52 -7.5t-37 -7t-25.5 -8t-18.5 -10.5q-28 -20 -28 -52q0 -25 20 -41t52 -16q29 0 50 12t30 34q5 11 7 27t2 42v27z" />
    <glyph glyph-name="uni1EA8" unicode="&#x1ea8;" horiz-adv-x="602" 
d="M407 866q12 -3 19.5 -4t15.5 -1q32 0 52 18.5t20 47.5q0 27 -16 44.5t-41 17.5q-29 0 -77 -24v56q49 34 99 34q25 0 47.5 -9t39 -25t26 -37.5t9.5 -46.5q0 -49 -37 -79q-20 -16 -41.5 -23t-62.5 -10v-48h-21l49 -50h-117l-70 78l-70 -78h-117l137 141h99l57 -58v56z
M365 667l227 -667h-133l-41 139h-235l-42 -139h-131l225 667h130zM300 520l-85 -272h171z" />
    <glyph glyph-name="uni1EA9" unicode="&#x1ea9;" horiz-adv-x="512" 
d="M355 680q12 -3 19.5 -4t15.5 -1q32 0 52 18.5t20 48.5q0 26 -16 43.5t-41 17.5q-16 0 -34 -5.5t-44 -18.5v56q51 34 100 34q26 0 48 -9t38.5 -25t26 -37.5t9.5 -46.5q0 -49 -37 -79q-20 -16 -41.5 -22.5t-62.5 -9.5v-49h-18l40 -50h-112l-59 86l-59 -86h-112l121 152h99
l47 -57v44zM57 333q5 41 17.5 65.5t38.5 44.5q27 20 66 31t85 11q62 0 104 -18.5t59 -52.5q11 -21 15 -46.5t4 -70.5v-191q0 -43 3.5 -65t12.5 -41h-112q-4 14 -5 24t-1 30q-39 -64 -131 -64q-81 0 -127 36t-46 99q0 49 28 85.5t80 56.5q16 6 28 10t29.5 8t45.5 9t76 14v8
q0 38 -17 55t-55 17q-71 0 -81 -55h-117zM327 226q-30 -4 -52 -7.5t-37 -7t-25.5 -8t-18.5 -10.5q-28 -20 -28 -52q0 -25 20 -41t52 -16q29 0 50 12t30 34q5 11 7 27t2 42v27z" />
    <glyph glyph-name="uni1EAA" unicode="&#x1eaa;" horiz-adv-x="602" 
d="M365 667l227 -667h-133l-41 139h-235l-42 -139h-131l225 667h130zM300 520l-85 -272h171zM251 868h99l138 -141h-117l-70 78l-70 -78h-117zM129 906q30 106 98 106q26 0 75 -16q31 -10 43 -12.5t23 -2.5q30 0 54 40l51 -13q-11 -51 -38 -81t-62 -30q-12 0 -31 4t-43 12
q-17 5 -28 8.5t-18 5t-12 2t-10 0.5q-29 0 -45 -37z" />
    <glyph glyph-name="uni1EAB" unicode="&#x1eab;" horiz-adv-x="512" 
d="M57 333q5 41 17.5 65.5t38.5 44.5q27 20 66 31t85 11q62 0 104 -18.5t59 -52.5q11 -21 15 -46.5t4 -70.5v-191q0 -43 3.5 -65t12.5 -41h-112q-4 14 -5 24t-1 30q-39 -64 -131 -64q-81 0 -127 36t-46 99q0 49 28 85.5t80 56.5q16 6 28 10t29.5 8t45.5 9t76 14v8
q0 38 -17 55t-55 17q-71 0 -81 -55h-117zM327 226q-30 -4 -52 -7.5t-37 -7t-25.5 -8t-18.5 -10.5q-28 -20 -28 -52q0 -25 20 -41t52 -16q29 0 50 12t30 34q5 11 7 27t2 42v27zM210 693h99l121 -152h-111l-60 86l-58 -86h-112zM101 731q26 106 89 106q12 0 27.5 -3.5
t39.5 -11.5q28 -11 39 -13.5t20 -2.5q26 0 49 40l46 -13q-11 -52 -34.5 -81.5t-55.5 -29.5q-11 0 -29 4t-38 12q-15 5 -24.5 8.5t-16 5t-11 2t-9.5 0.5q-27 0 -41 -37z" />
    <glyph glyph-name="uni1EAC" unicode="&#x1eac;" horiz-adv-x="602" 
d="M365 667l227 -667h-133l-41 139h-235l-42 -139h-131l225 667h130zM300 520l-85 -272h171zM251 868h99l138 -141h-117l-70 78l-70 -78h-117zM302 -46q33 0 55.5 -23t22.5 -56q0 -32 -23.5 -55.5t-55.5 -23.5t-55.5 23.5t-23.5 55.5q0 35 22.5 57t57.5 22z" />
    <glyph glyph-name="uni1EAD" unicode="&#x1ead;" horiz-adv-x="512" 
d="M57 333q5 41 17.5 65.5t38.5 44.5q27 20 66 31t85 11q62 0 104 -18.5t59 -52.5q11 -21 15 -46.5t4 -70.5v-191q0 -43 3.5 -65t12.5 -41h-112q-4 14 -5 24t-1 30q-39 -64 -131 -64q-81 0 -127 36t-46 99q0 49 28 85.5t80 56.5q16 6 28 10t29.5 8t45.5 9t76 14v8
q0 38 -17 55t-55 17q-71 0 -81 -55h-117zM327 226q-30 -4 -52 -7.5t-37 -7t-25.5 -8t-18.5 -10.5q-28 -20 -28 -52q0 -25 20 -41t52 -16q29 0 50 12t30 34q5 11 7 27t2 42v27zM210 693h99l121 -152h-111l-60 86l-58 -86h-112zM257 -59q32 0 55 -23t23 -56q0 -32 -23.5 -55.5
t-55.5 -23.5q-33 0 -56 23t-23 56q0 35 22.5 57t57.5 22z" />
    <glyph glyph-name="uni1EAE" unicode="&#x1eae;" horiz-adv-x="602" 
d="M365 667l227 -667h-133l-41 139h-235l-42 -139h-131l225 667h130zM300 520l-85 -272h171zM201 869q20 -38 43.5 -54t56.5 -16t56 16t44 54h47q-8 -66 -47 -104t-100 -38q-60 0 -99.5 38t-47.5 104h47zM399 1011h151l-203 -163h-115z" />
    <glyph glyph-name="uni1EAF" unicode="&#x1eaf;" horiz-adv-x="512" 
d="M57 333q5 41 17.5 65.5t38.5 44.5q27 20 66 31t85 11q62 0 104 -18.5t59 -52.5q11 -21 15 -46.5t4 -70.5v-191q0 -43 3.5 -65t12.5 -41h-112q-4 14 -5 24t-1 30q-39 -64 -131 -64q-81 0 -127 36t-46 99q0 49 28 85.5t80 56.5q16 6 28 10t29.5 8t45.5 9t76 14v8
q0 38 -17 55t-55 17q-71 0 -81 -55h-117zM327 226q-30 -4 -52 -7.5t-37 -7t-25.5 -8t-18.5 -10.5q-28 -20 -28 -52q0 -25 20 -41t52 -16q29 0 50 12t30 34q5 11 7 27t2 42v27zM175 683q18 -37 38 -53t49 -16q26 0 44 15.5t37 53.5h51q-8 -69 -42 -106.5t-89 -37.5
q-58 0 -94.5 38t-44.5 106h51zM333 820h152l-186 -163h-93z" />
    <glyph glyph-name="uni1EB0" unicode="&#x1eb0;" horiz-adv-x="602" 
d="M365 667l227 -667h-133l-41 139h-235l-42 -139h-131l225 667h130zM300 520l-85 -272h171zM201 869q20 -38 43.5 -54t56.5 -16t56 16t44 54h47q-8 -66 -47 -104t-100 -38q-60 0 -99.5 38t-47.5 104h47zM244 846l-203 163h152l166 -163h-115z" />
    <glyph glyph-name="uni1EB1" unicode="&#x1eb1;" horiz-adv-x="512" 
d="M58 333q5 41 17.5 65.5t38.5 44.5q27 20 66 31t85 11q62 0 104 -18.5t59 -52.5q11 -21 15 -46.5t4 -70.5v-191q0 -43 3.5 -65t12.5 -41h-112q-4 14 -5 24t-1 30q-39 -64 -131 -64q-81 0 -127 36t-46 99q0 49 28 85.5t80 56.5q16 6 28 10t29.5 8t45.5 9t76 14v8
q0 38 -17 55t-55 17q-71 0 -81 -55h-117zM328 226q-30 -4 -52 -7.5t-37 -7t-25.5 -8t-18.5 -10.5q-28 -20 -28 -52q0 -25 20 -41t52 -16q29 0 50 12t30 34q5 11 7 27t2 42v27zM175 683q18 -37 38 -53t49 -16q26 0 44 15.5t38 53.5h50q-8 -69 -42 -106.5t-89 -37.5
q-58 0 -94.5 38t-44.5 106h51zM215 657l-186 163h152l127 -163h-93z" />
    <glyph glyph-name="uni1EB2" unicode="&#x1eb2;" horiz-adv-x="602" 
d="M365 667l227 -667h-133l-41 139h-235l-42 -139h-131l225 667h130zM300 520l-85 -272h171zM201 869q20 -38 43.5 -54t56.5 -16t56 16t44 54h47q-8 -66 -47 -104t-100 -38q-60 0 -99.5 38t-47.5 104h47zM277 931q12 -3 19.5 -4t15.5 -1q32 0 52 18.5t20 47.5q0 27 -16 44.5
t-41 17.5q-29 0 -77 -24v55q49 35 99 35q25 0 47.5 -9t39 -25t26 -38t9.5 -47q0 -48 -37 -78q-20 -16 -41.5 -23t-62.5 -10v-48h-53v89z" />
    <glyph glyph-name="uni1EB3" unicode="&#x1eb3;" horiz-adv-x="512" 
d="M57 333q5 41 17.5 65.5t38.5 44.5q27 20 66 31t85 11q62 0 104 -18.5t59 -52.5q11 -21 15 -46.5t4 -70.5v-191q0 -43 3.5 -65t12.5 -41h-112q-4 14 -5 24t-1 30q-39 -64 -131 -64q-81 0 -127 36t-46 99q0 49 28 85.5t80 56.5q16 6 28 10t29.5 8t45.5 9t76 14v8
q0 38 -17 55t-55 17q-71 0 -81 -55h-117zM327 226q-30 -4 -52 -7.5t-37 -7t-25.5 -8t-18.5 -10.5q-28 -20 -28 -52q0 -25 20 -41t52 -16q29 0 50 12t30 34q5 11 7 27t2 42v27zM175 683q18 -37 38 -53t49 -16q26 0 44 15.5t37 53.5h51q-8 -69 -42 -106.5t-89 -37.5
q-58 0 -94.5 38t-44.5 106h51zM236 747q12 -3 19.5 -4t15.5 -1q32 0 52 18.5t20 47.5q0 27 -16 44.5t-41 17.5q-29 0 -77 -24v55q49 35 99 35q25 0 47.5 -9t39 -25t26 -38t9.5 -47q0 -48 -37 -78q-20 -16 -41.5 -23t-62.5 -10v-48h-53v89z" />
    <glyph glyph-name="uni1EB4" unicode="&#x1eb4;" horiz-adv-x="602" 
d="M365 667l227 -667h-133l-41 139h-235l-42 -139h-131l225 667h130zM300 520l-85 -272h171zM201 869q20 -38 43.5 -54t56.5 -16t56 16t44 54h47q-8 -66 -47 -104t-100 -38q-60 0 -99.5 38t-47.5 104h47zM141 915q32 106 99 106q11 0 30 -4t44 -12q16 -5 26 -8t17 -4.5
t12 -2t12 -0.5q16 0 28 9t25 31l52 -13q-11 -51 -38 -81t-62 -30q-14 0 -31.5 3.5t-43.5 11.5q-17 6 -28 9t-18 5t-12 2.5t-9 0.5q-30 0 -46 -37z" />
    <glyph glyph-name="uni1EB5" unicode="&#x1eb5;" horiz-adv-x="512" 
d="M57 333q5 41 17.5 65.5t38.5 44.5q27 20 66 31t85 11q62 0 104 -18.5t59 -52.5q11 -21 15 -46.5t4 -70.5v-191q0 -43 3.5 -65t12.5 -41h-112q-4 14 -5 24t-1 30q-39 -64 -131 -64q-81 0 -127 36t-46 99q0 49 28 85.5t80 56.5q16 6 28 10t29.5 8t45.5 9t76 14v8
q0 38 -17 55t-55 17q-71 0 -81 -55h-117zM327 226q-30 -4 -52 -7.5t-37 -7t-25.5 -8t-18.5 -10.5q-28 -20 -28 -52q0 -25 20 -41t52 -16q29 0 50 12t30 34q5 11 7 27t2 42v27zM175 683q18 -37 38 -53t49 -16q26 0 44 15.5t37 53.5h51q-8 -69 -42 -106.5t-89 -37.5
q-58 0 -94.5 38t-44.5 106h51zM101 723q27 105 89 105q12 0 27.5 -3.5t39.5 -11.5q28 -11 39 -13.5t20 -2.5q26 0 49 40l46 -13q-11 -52 -34.5 -81.5t-55.5 -29.5q-10 0 -28.5 4t-38.5 12q-15 6 -24.5 9t-16 4.5t-11 2t-9.5 0.5q-27 0 -41 -37z" />
    <glyph glyph-name="uni1EB6" unicode="&#x1eb6;" horiz-adv-x="602" 
d="M365 667l227 -667h-133l-41 139h-235l-42 -139h-131l225 667h130zM300 520l-85 -272h171zM201 869q20 -38 43.5 -54t56.5 -16t56 16t44 54h47q-8 -66 -47 -104t-100 -38q-60 0 -99.5 38t-47.5 104h47zM302 -44q32 0 55 -23t23 -56t-23 -56t-56 -23t-56 23t-23 56
q0 34 23 56.5t57 22.5z" />
    <glyph glyph-name="uni1EB7" unicode="&#x1eb7;" horiz-adv-x="512" 
d="M57 333q5 41 17.5 65.5t38.5 44.5q27 20 66 31t85 11q62 0 104 -18.5t59 -52.5q11 -21 15 -46.5t4 -70.5v-191q0 -43 3.5 -65t12.5 -41h-112q-4 14 -5 24t-1 30q-39 -64 -131 -64q-81 0 -127 36t-46 99q0 49 28 85.5t80 56.5q16 6 28 10t29.5 8t45.5 9t76 14v8
q0 38 -17 55t-55 17q-71 0 -81 -55h-117zM327 226q-30 -4 -52 -7.5t-37 -7t-25.5 -8t-18.5 -10.5q-28 -20 -28 -52q0 -25 20 -41t52 -16q29 0 50 12t30 34q5 11 7 27t2 42v27zM175 683q18 -37 38 -53t49 -16q26 0 44 15.5t37 53.5h51q-8 -69 -42 -106.5t-89 -37.5
q-58 0 -94.5 38t-44.5 106h51zM257 -40q32 0 55 -23t23 -56q0 -32 -23.5 -55.5t-55.5 -23.5q-33 0 -56 23.5t-23 55.5q0 35 22.5 57t57.5 22z" />
    <glyph glyph-name="uni1EB8" unicode="&#x1eb8;" horiz-adv-x="537" 
d="M473 400v-109h-265v-182h302v-109h-430v667h419v-109h-291v-158h265zM281 -52q33 0 55 -22.5t22 -55.5q0 -34 -23 -57t-55 -23q-16 0 -30.5 6.5t-25.5 17.5t-17.5 25t-6.5 30q0 34 23 56.5t58 22.5z" />
    <glyph glyph-name="uni1EB9" unicode="&#x1eb9;" horiz-adv-x="515" 
d="M156 208q3 -60 32.5 -91t82.5 -31q35 0 57 12.5t35 40.5l109 -5q-16 -69 -70.5 -108t-133.5 -39q-54 0 -97.5 17t-74 49t-47 77t-16.5 102q0 58 16.5 105t47 80.5t73 52t94.5 18.5q102 0 159.5 -68t57.5 -188v-24h-325zM357 298q-15 95 -94 95q-80 0 -104 -95h198z
M258 -62q33 0 55.5 -22.5t22.5 -56.5q0 -32 -23 -55.5t-56 -23.5q-32 0 -55.5 23.5t-23.5 55.5q0 34 22.5 56.5t57.5 22.5z" />
    <glyph glyph-name="uni1EBA" unicode="&#x1eba;" horiz-adv-x="537" 
d="M473 400v-109h-265v-182h302v-109h-430v667h419v-109h-291v-158h265zM253 813q12 -3 19.5 -4t15.5 -1q32 0 52 18.5t20 47.5q0 27 -16 44.5t-41 17.5q-29 0 -77 -24v55q49 35 99 35q25 0 47.5 -9t39 -25t26 -38t9.5 -47q0 -48 -37 -78q-20 -16 -41.5 -23t-62.5 -10v-48
h-53v89z" />
    <glyph glyph-name="uni1EBB" unicode="&#x1ebb;" horiz-adv-x="515" 
d="M156 208q3 -60 32.5 -91t82.5 -31q35 0 57 12.5t35 40.5l109 -5q-16 -69 -70.5 -108t-133.5 -39q-54 0 -97.5 17t-74 49t-47 77t-16.5 102q0 58 16.5 105t47 80.5t73 52t94.5 18.5q102 0 159.5 -68t57.5 -188v-24h-325zM357 298q-15 95 -94 95q-80 0 -104 -95h198z
M238 630q12 -3 19.5 -4t15.5 -1q32 0 52 18.5t20 47.5q0 27 -16 44.5t-41 17.5q-29 0 -77 -24v55q49 35 99 35q25 0 47.5 -9t39 -25t26 -38t9.5 -47q0 -48 -37 -78q-20 -16 -41.5 -23t-62.5 -10v-48h-53v89z" />
    <glyph glyph-name="uni1EBC" unicode="&#x1ebc;" horiz-adv-x="537" 
d="M473 400v-109h-265v-182h302v-109h-430v667h419v-109h-291v-158h265zM96 747q31 106 99 106q25 0 74 -16q16 -5 26.5 -8t17.5 -4.5t12 -2t11 -0.5q16 0 28 9t25 31l52 -13q-11 -51 -38 -81t-62 -30q-26 0 -75 15q-17 6 -28 9t-18 5t-11.5 2.5t-9.5 0.5q-30 0 -46 -37z
" />
    <glyph glyph-name="uni1EBD" unicode="&#x1ebd;" horiz-adv-x="515" 
d="M156 208q3 -60 32.5 -91t82.5 -31q35 0 57 12.5t35 40.5l109 -5q-16 -69 -70.5 -108t-133.5 -39q-54 0 -97.5 17t-74 49t-47 77t-16.5 102q0 58 16.5 105t47 80.5t73 52t94.5 18.5q102 0 159.5 -68t57.5 -188v-24h-325zM357 298q-15 95 -94 95q-80 0 -104 -95h198z
M102 567q28 106 89 106q12 0 27.5 -3.5t39.5 -11.5q28 -11 39 -13.5t21 -2.5q25 0 48 40l46 -13q-11 -52 -34.5 -81.5t-55.5 -29.5q-10 0 -28 4t-39 12q-15 5 -24.5 8.5t-16 5t-10.5 2t-9 0.5q-28 0 -41 -37z" />
    <glyph glyph-name="uni1EBE" unicode="&#x1ebe;" horiz-adv-x="537" 
d="M537 942h151l-203 -163h-59l51 -52h-116l-71 77l-69 -77h-118l137 141h100l59 -61zM473 400v-109h-265v-182h302v-109h-430v667h419v-109h-291v-158h265z" />
    <glyph glyph-name="uni1EBF" unicode="&#x1ebf;" horiz-adv-x="515" 
d="M474 762h151l-186 -163h-48l47 -58h-111l-60 86l-58 -86h-112l121 152h99l52 -66zM156 208q3 -60 32.5 -91t82.5 -31q35 0 57 12.5t35 40.5l109 -5q-16 -69 -70.5 -108t-133.5 -39q-54 0 -97.5 17t-74 49t-47 77t-16.5 102q0 58 16.5 105t47 80.5t73 52t94.5 18.5
q102 0 159.5 -68t57.5 -188v-24h-325zM357 298q-15 95 -94 95q-80 0 -104 -95h198z" />
    <glyph glyph-name="uni1EC0" unicode="&#x1ec0;" horiz-adv-x="537" 
d="M100 785l-203 163h152l138 -135l53 55h99l138 -141h-116l-71 78l-70 -78h-117l57 58h-60zM473 400v-109h-265v-182h302v-109h-430v667h419v-109h-291v-158h265z" />
    <glyph glyph-name="uni1EC1" unicode="&#x1ec1;" horiz-adv-x="515" 
d="M104 604l-186 163h152l102 -132l46 58h99l121 -152h-111l-59 86l-59 -86h-112l50 63h-43zM157 208q3 -60 32.5 -91t82.5 -31q35 0 57 12.5t35 40.5l109 -5q-16 -69 -70.5 -108t-133.5 -39q-54 0 -97.5 17t-74 49t-47 77t-16.5 102q0 58 16.5 105.5t46.5 81t72.5 51.5
t95.5 18q102 0 159.5 -68t57.5 -188v-24h-325zM358 298q-15 95 -94 95q-82 0 -104 -95h198z" />
    <glyph glyph-name="uni1EC2" unicode="&#x1ec2;" horiz-adv-x="537" 
d="M400 860q12 -3 19.5 -4t15.5 -1q32 0 52 18.5t20 48.5q0 26 -16 43.5t-41 17.5q-16 0 -34.5 -5.5t-42.5 -18.5v56q49 34 99 34q26 0 48 -9t38.5 -25t26 -37.5t9.5 -46.5q0 -49 -37 -79q-20 -16 -41.5 -23t-62.5 -10v-48h-19l43 -44h-116l-71 78l-69 -78h-118l138 141h99
l60 -62v54zM473 400v-109h-265v-182h302v-109h-430v667h419v-109h-291v-158h265z" />
    <glyph glyph-name="uni1EC3" unicode="&#x1ec3;" horiz-adv-x="515" 
d="M359 687q12 -3 19.5 -4t15.5 -1q32 0 52 18.5t20 47.5q0 27 -15.5 44t-41.5 17q-18 0 -34.5 -5t-42.5 -18v55q49 34 99 34q26 0 48.5 -9t39 -25t25.5 -37.5t9 -46.5q0 -48 -37 -78q-20 -16 -41.5 -22.5t-62.5 -10.5v-48h-20l45 -57h-111l-59 86l-59 -86h-112l121 152h99
l43 -53v47zM156 208q3 -60 32.5 -91t82.5 -31q35 0 57 12.5t35 40.5l109 -5q-16 -69 -70.5 -108t-133.5 -39q-54 0 -97.5 17t-74 49t-47 77t-16.5 102q0 58 16.5 105t47 80.5t73 52t94.5 18.5q102 0 159.5 -68t57.5 -188v-24h-325zM357 298q-15 95 -94 95q-80 0 -104 -95
h198z" />
    <glyph glyph-name="uni1EC4" unicode="&#x1ec4;" horiz-adv-x="537" 
d="M473 400v-109h-265v-182h302v-109h-430v667h419v-109h-291v-158h265zM240 868h100l137 -141h-116l-71 78l-69 -78h-118zM120 899q31 106 99 106q14 0 31 -3.5t43 -11.5q31 -11 43.5 -13.5t23.5 -2.5q29 0 53 40l51 -13q-11 -51 -38 -81t-62 -30q-11 0 -31 4t-43 12
q-17 5 -28 8.5t-18 5t-11.5 2t-10.5 0.5q-29 0 -45 -37z" />
    <glyph glyph-name="uni1EC5" unicode="&#x1ec5;" horiz-adv-x="515" 
d="M156 208q3 -60 32.5 -91t82.5 -31q35 0 57 12.5t35 40.5l109 -5q-16 -69 -70.5 -108t-133.5 -39q-54 0 -97.5 17t-74 49t-47 77t-16.5 102q0 58 16.5 105t47 80.5t73 52t94.5 18.5q102 0 159.5 -68t57.5 -188v-24h-325zM357 298q-15 95 -94 95q-80 0 -104 -95h198z
M218 693h99l121 -152h-111l-60 86l-58 -86h-112zM116 735q5 20 9.5 32t11.5 25q12 22 30.5 35.5t37.5 13.5t67 -16q16 -5 25.5 -8.5t15.5 -5t10 -2t9 -0.5q25 0 48 40l46 -13q-11 -51 -34.5 -81t-54.5 -30q-11 0 -28 4t-40 12q-18 6 -28 9.5t-16 5t-9.5 2t-6.5 0.5
q-28 0 -41 -38z" />
    <glyph glyph-name="uni1EC6" unicode="&#x1ec6;" horiz-adv-x="537" 
d="M473 400v-109h-265v-182h302v-109h-430v667h419v-109h-291v-158h265zM240 868h100l137 -141h-116l-71 78l-69 -78h-118zM294 -42q34 0 56 -22.5t22 -55.5q0 -34 -23 -57t-56 -23q-32 0 -55.5 23.5t-23.5 55.5q0 34 23 56.5t57 22.5z" />
    <glyph glyph-name="uni1EC7" unicode="&#x1ec7;" horiz-adv-x="515" 
d="M156 208q3 -60 32.5 -91t82.5 -31q35 0 57 12.5t35 40.5l109 -5q-16 -69 -70.5 -108t-133.5 -39q-54 0 -97.5 17t-74 49t-47 77t-16.5 102q0 58 16.5 105t47 80.5t73 52t94.5 18.5q102 0 159.5 -68t57.5 -188v-24h-325zM357 298q-15 95 -94 95q-80 0 -104 -95h198z
M218 693h99l121 -152h-111l-60 86l-58 -86h-112zM258 -43q33 0 55.5 -23t22.5 -56t-23 -56t-56 -23q-32 0 -55.5 23.5t-23.5 55.5q0 34 23 56.5t57 22.5z" />
    <glyph glyph-name="uni1EC8" unicode="&#x1ec8;" horiz-adv-x="288" 
d="M80 0v667h128v-667h-128zM116 813q12 -3 19.5 -4t15.5 -1q32 0 52 18.5t20 47.5q0 27 -16 44.5t-41 17.5q-29 0 -77 -24v55q49 35 99 35q25 0 47.5 -9t39 -25t26 -38t9.5 -47q0 -48 -37 -78q-20 -16 -41.5 -23t-62.5 -10v-48h-53v89z" />
    <glyph glyph-name="uni1EC9" unicode="&#x1ec9;" horiz-adv-x="261" 
d="M192 475v-475h-123v475h123zM104 630q12 -3 19.5 -4t15.5 -1q32 0 52 18.5t20 47.5q0 27 -16 44.5t-41 17.5q-29 0 -77 -24v55q49 35 99 35q25 0 47.5 -9t39 -25t26 -38t9.5 -47q0 -48 -37 -78q-20 -16 -41.5 -23t-62.5 -10v-48h-53v89z" />
    <glyph glyph-name="uni1ECA" unicode="&#x1eca;" horiz-adv-x="288" 
d="M80 0v667h128v-667h-128zM142 -55q33 0 55.5 -23t22.5 -56t-23 -56t-56 -23q-32 0 -55.5 23.5t-23.5 55.5q0 34 23 56.5t57 22.5z" />
    <glyph glyph-name="uni1ECB" unicode="&#x1ecb;" horiz-adv-x="261" 
d="M192 475v-475h-123v475h123zM132 680q32 0 51 -19.5t19 -51.5t-20 -52t-52 -20t-51.5 19t-19.5 51q0 33 20 53t53 20zM131 -50q33 0 55.5 -22.5t22.5 -56.5q0 -33 -23 -56t-56 -23q-32 0 -55.5 23.5t-23.5 55.5q0 34 23 56.5t57 22.5z" />
    <glyph glyph-name="uni1ECC" unicode="&#x1ecc;" horiz-adv-x="673" 
d="M337 680q60 0 112 -20.5t92 -59.5q48 -46 72.5 -113.5t24.5 -152.5q0 -86 -24.5 -153.5t-72.5 -113.5q-39 -38 -92 -59t-111 -21q-60 0 -113 21t-93 59q-96 93 -96 272q0 81 25 148.5t71 112.5q41 39 93.5 59.5t111.5 20.5zM337 570q-38 0 -68 -14.5t-50 -41.5
q-23 -32 -36.5 -79t-13.5 -98q0 -114 44.5 -177t123.5 -63q38 0 68 14.5t50 41.5q24 33 37 79.5t13 101.5q0 54 -13 101t-37 79q-20 27 -50 41.5t-68 14.5zM338 -58q33 0 55.5 -23t22.5 -56q0 -32 -23 -55.5t-56 -23.5q-32 0 -55.5 23.5t-23.5 55.5q0 34 22.5 56.5
t57.5 22.5z" />
    <glyph glyph-name="uni1ECD" unicode="&#x1ecd;" horiz-adv-x="536" 
d="M268 488q51 0 94 -18.5t74 -52t48.5 -79.5t17.5 -101q0 -54 -17.5 -100t-48.5 -79.5t-74 -52t-94 -18.5q-52 0 -95.5 18.5t-74.5 52t-48 80.5t-17 103q0 54 17.5 99t49 78t74.5 51.5t94 18.5zM267 389q-49 0 -78.5 -41t-29.5 -109q0 -71 29 -112t80 -41q49 0 78.5 41
t29.5 110t-29.5 110.5t-79.5 41.5zM268 -47q33 0 55.5 -22.5t22.5 -56.5q0 -33 -22.5 -56t-56.5 -23q-32 0 -55.5 23.5t-23.5 55.5q0 33 23 56t57 23z" />
    <glyph glyph-name="uni1ECE" unicode="&#x1ece;" horiz-adv-x="673" 
d="M337 680q60 0 112 -20.5t92 -59.5q48 -46 72.5 -113.5t24.5 -152.5q0 -86 -24.5 -153.5t-72.5 -113.5q-39 -38 -92 -59t-111 -21q-60 0 -113 21t-93 59q-96 93 -96 272q0 81 25 148.5t71 112.5q41 39 93.5 59.5t111.5 20.5zM337 570q-38 0 -68 -14.5t-50 -41.5
q-23 -32 -36.5 -79t-13.5 -98q0 -114 44.5 -177t123.5 -63q38 0 68 14.5t50 41.5q24 33 37 79.5t13 101.5q0 54 -13 101t-37 79q-20 27 -50 41.5t-68 14.5zM304 813q12 -3 19.5 -4t15.5 -1q32 0 52 18.5t20 47.5q0 27 -16 44.5t-41 17.5q-29 0 -77 -24v55q49 35 99 35
q25 0 47.5 -9t39 -25t26 -38t9.5 -47q0 -48 -37 -78q-20 -16 -41.5 -23t-62.5 -10v-48h-53v89z" />
    <glyph glyph-name="uni1ECF" unicode="&#x1ecf;" horiz-adv-x="536" 
d="M268 488q51 0 94 -18.5t74 -52t48.5 -79.5t17.5 -101q0 -54 -17.5 -100t-48.5 -79.5t-74 -52t-94 -18.5q-52 0 -95.5 18.5t-74.5 52t-48 80.5t-17 103q0 54 17.5 99t49 78t74.5 51.5t94 18.5zM267 389q-49 0 -78.5 -41t-29.5 -109q0 -71 29 -112t80 -41q49 0 78.5 41
t29.5 110t-29.5 110.5t-79.5 41.5zM239 630q12 -3 19.5 -4t15.5 -1q32 0 52 18.5t20 47.5q0 27 -16 44.5t-41 17.5q-29 0 -77 -24v55q49 35 99 35q25 0 47.5 -9t39 -25t26 -38t9.5 -47q0 -48 -37 -78q-20 -16 -41.5 -23t-62.5 -10v-48h-53v89z" />
    <glyph glyph-name="uni1ED0" unicode="&#x1ed0;" horiz-adv-x="673" 
d="M583 938h152l-203 -163h-55l47 -48h-116l-71 77l-69 -77h-118l137 141h99l62 -63zM337 680q98 0 169 -48q65 -43 98.5 -119t33.5 -179q0 -104 -33.5 -180t-98.5 -119q-35 -23 -77.5 -35.5t-88.5 -12.5q-72 0 -128.5 23.5t-95.5 68.5t-59.5 109.5t-20.5 146.5
q0 103 34 179t98 118q72 48 169 48zM337 570q-81 0 -124.5 -61.5t-43.5 -174.5q0 -112 44 -174.5t122 -62.5q82 0 126 61.5t44 176.5q0 112 -44 173.5t-124 61.5z" />
    <glyph glyph-name="uni1ED1" unicode="&#x1ed1;" horiz-adv-x="536" 
d="M469 757h151l-186 -163h-38l42 -53h-111l-59 86l-59 -86h-112l121 152h99l51 -65zM268 488q51 0 94 -18.5t74 -52t48.5 -79.5t17.5 -101t-17.5 -101t-48.5 -79t-74 -51.5t-94 -18.5t-94 18.5t-74.5 51.5t-49 78t-17.5 99q0 56 17 103t48 80.5t74.5 52t95.5 18.5zM267 389
q-49 0 -78.5 -41t-29.5 -109q0 -71 29 -112t80 -41q49 0 78.5 41t29.5 110t-29.5 110.5t-79.5 41.5z" />
    <glyph glyph-name="uni1ED2" unicode="&#x1ed2;" horiz-adv-x="673" 
d="M156 785l-203 163h152l133 -131l49 51h99l138 -141h-117l-70 78l-70 -78h-117l56 58h-50zM337 680q70 0 125.5 -24t94.5 -69t60 -109t21 -144q0 -104 -33.5 -179.5t-98.5 -119.5q-34 -23 -77 -35.5t-89 -12.5q-72 0 -128.5 23.5t-95.5 68.5t-59.5 109.5t-20.5 146.5
q0 31 4 62.5t11.5 60.5t18 54.5t23.5 45.5q38 59 102 90.5t142 31.5zM337 570q-81 0 -124.5 -61.5t-43.5 -174.5q0 -112 43.5 -174.5t121.5 -62.5q83 0 127 61.5t44 176.5q0 112 -44 173.5t-124 61.5z" />
    <glyph glyph-name="uni1ED3" unicode="&#x1ed3;" horiz-adv-x="536" 
d="M105 609l-186 163h152l104 -133l43 54h99l121 -152h-111l-59 86l-59 -86h-112l54 68h-46zM268 488q51 0 94 -18.5t74 -52t48.5 -79.5t17.5 -101t-17.5 -101t-48.5 -79t-74 -51.5t-94 -18.5t-94 18.5t-74.5 51.5t-49 78t-17.5 99q0 56 17 103t48 80.5t74.5 52t95.5 18.5z
M268 389q-49 0 -79 -41t-30 -109q0 -70 29 -111.5t80 -41.5q49 0 78.5 41t29.5 110t-29.5 110.5t-78.5 41.5z" />
    <glyph glyph-name="uni1ED4" unicode="&#x1ed4;" horiz-adv-x="673" 
d="M439 866q12 -3 19.5 -4t15.5 -1q32 0 52 18.5t20 47.5q0 27 -16 44.5t-41 17.5q-29 0 -77 -24v56q49 34 99 34q25 0 47.5 -9t39 -25t26 -37.5t9.5 -46.5q0 -49 -37 -79q-20 -16 -41.5 -23t-62.5 -10v-48h-16l48 -50h-116l-71 78l-69 -78h-118l138 141h99l52 -53v51z
M337 680q98 0 169 -48q65 -43 98.5 -119t33.5 -179q0 -104 -33.5 -180t-98.5 -119q-35 -23 -77.5 -35.5t-88.5 -12.5q-72 0 -128.5 23.5t-95.5 68.5t-59.5 109.5t-20.5 146.5q0 103 34 179t98 118q72 48 169 48zM337 570q-81 0 -124.5 -61.5t-43.5 -174.5q0 -112 44 -174.5
t122 -62.5q82 0 126 61.5t44 176.5q0 112 -44 173.5t-124 61.5z" />
    <glyph glyph-name="uni1ED5" unicode="&#x1ed5;" horiz-adv-x="536" 
d="M372 683q12 -3 19.5 -4t15.5 -1q32 0 52 18.5t20 47.5q0 27 -16 44.5t-41 17.5q-29 0 -77 -24v56q49 34 99 34q25 0 47.5 -9t39 -25t26 -37.5t9.5 -46.5q0 -49 -37 -79q-20 -16 -41.5 -22.5t-62.5 -9.5v-49h-29l42 -53h-111l-59 86l-59 -86h-112l121 152h99l55 -68v58z
M268 488q51 0 94 -18.5t74 -52t48.5 -79.5t17.5 -101t-17.5 -101t-48.5 -79t-74 -51.5t-94 -18.5t-94 18.5t-74.5 51.5t-49 78t-17.5 99q0 56 17 103t48 80.5t74.5 52t95.5 18.5zM267 389q-49 0 -78.5 -41t-29.5 -109q0 -71 29 -112t80 -41q49 0 78.5 41t29.5 110
t-29.5 110.5t-79.5 41.5z" />
    <glyph glyph-name="uni1ED6" unicode="&#x1ed6;" horiz-adv-x="673" 
d="M337 680q70 0 125.5 -24t94.5 -68.5t60 -108.5t21 -144q0 -82 -21 -146.5t-60 -109.5t-95.5 -68.5t-127.5 -23.5q-46 0 -89 12.5t-77 35.5q-66 44 -99 119.5t-33 179.5q0 103 34 179.5t98 118.5q72 48 169 48zM337 570q-81 0 -124.5 -61.5t-43.5 -174.5q0 -112 44 -174.5
t122 -62.5q82 0 126 61.5t44 176.5q0 112 -44 173.5t-124 61.5zM287 868h99l138 -141h-116l-71 78l-69 -78h-118zM165 889q6 20 10.5 32t12.5 25q13 22 33.5 35.5t41.5 13.5q12 0 29.5 -4t45.5 -12q17 -5 28 -8.5t17.5 -5t11 -2t9.5 -0.5q30 0 54 40l51 -13
q-11 -50 -38 -80.5t-62 -30.5q-11 0 -29.5 4t-44.5 12q-20 6 -31.5 9.5t-18 5t-10.5 2t-8 0.5q-29 0 -45 -37z" />
    <glyph glyph-name="uni1ED7" unicode="&#x1ed7;" horiz-adv-x="536" 
d="M268 488q51 0 94 -18.5t74 -52t48.5 -79.5t17.5 -101q0 -54 -17.5 -100t-48.5 -79.5t-74 -52t-94 -18.5q-52 0 -95.5 18.5t-74.5 52t-48 80.5t-17 103q0 54 17.5 99t49 78t74.5 51.5t94 18.5zM267 389q-49 0 -78.5 -41t-29.5 -109q0 -71 29 -112t80 -41q49 0 78.5 41
t29.5 110t-29.5 110.5t-79.5 41.5zM218 693h99l121 -152h-111l-59 86l-59 -86h-112zM112 711q28 106 89 106q12 0 28 -3.5t39 -11.5q29 -11 39.5 -13.5t20.5 -2.5q27 0 48 40l46 -13q-10 -52 -33.5 -81.5t-55.5 -29.5q-11 0 -29 4t-39 12q-15 5 -24.5 8.5t-16 5t-10.5 2
t-9 0.5q-27 0 -41 -37z" />
    <glyph glyph-name="uni1ED8" unicode="&#x1ed8;" horiz-adv-x="673" 
d="M337 680q70 0 125.5 -24t94.5 -68.5t60 -108.5t21 -144q0 -82 -21 -146.5t-60 -109.5t-95.5 -68.5t-127.5 -23.5q-46 0 -89 12.5t-77 35.5q-66 44 -99 119.5t-33 179.5q0 103 34 179.5t98 118.5q72 48 169 48zM337 570q-81 0 -124.5 -61.5t-43.5 -174.5q0 -112 44 -174.5
t122 -62.5q82 0 126 61.5t44 176.5q0 112 -44 173.5t-124 61.5zM287 868h99l138 -141h-116l-71 78l-69 -78h-118zM338 -51q32 0 55 -23.5t23 -55.5q0 -33 -23 -56t-56 -23t-56 23t-23 56t23 56t57 23z" />
    <glyph glyph-name="uni1ED9" unicode="&#x1ed9;" horiz-adv-x="536" 
d="M268 488q51 0 94 -18.5t74 -52t48.5 -79.5t17.5 -101q0 -54 -17.5 -100t-48.5 -79.5t-74 -52t-94 -18.5q-52 0 -95.5 18.5t-74.5 52t-48 80.5t-17 103q0 54 17.5 99t49 78t74.5 51.5t94 18.5zM267 389q-49 0 -78.5 -41t-29.5 -109q0 -71 29 -112t80 -41q49 0 78.5 41
t29.5 110t-29.5 110.5t-79.5 41.5zM218 693h99l121 -152h-111l-59 86l-59 -86h-112zM268 -49q33 0 55.5 -23t22.5 -56q0 -34 -22.5 -56.5t-56.5 -22.5q-32 0 -55.5 23t-23.5 56t23.5 56t56.5 23z" />
    <glyph glyph-name="uni1EDA" unicode="&#x1eda;" horiz-adv-x="673" 
d="M577 563l2 4q7 16 9.5 27.5t3.5 27.5q-63 7 -63 59q0 27 19 45.5t48 18.5q32 0 51.5 -24t19.5 -63q0 -66 -64 -145q17 -36 26 -84t9 -99q0 -77 -21.5 -140t-61.5 -108t-95.5 -70t-122.5 -25q-59 0 -112 21t-93 59q-48 46 -72 113.5t-24 153.5q0 85 24 152.5t72 113.5
q40 38 93 59t112 21q74 0 136 -31.5t103 -88.5zM337 570q-38 0 -68 -14.5t-50 -41.5q-23 -32 -36.5 -79t-13.5 -98q0 -114 44.5 -177t123.5 -63q38 0 68 14.5t50 41.5q24 33 37 79.5t13 101.5q0 54 -13 101t-37 79q-20 27 -50 41.5t-68 14.5zM435 879h151l-203 -163h-115z
" />
    <glyph glyph-name="uni1EDB" unicode="&#x1edb;" horiz-adv-x="536" 
d="M456 394q8 19 11.5 32.5t4.5 30.5q-65 9 -65 60q0 29 20 48t49 19q33 0 53 -24.5t20 -65.5q0 -34 -17.5 -73t-49.5 -77q20 -49 20 -107q0 -55 -17.5 -101t-48.5 -79t-74.5 -51.5t-94.5 -18.5t-94 18.5t-74 51.5t-48.5 79t-17.5 101t17.5 101t48.5 79.5t74.5 52t94.5 18.5
q57 0 106 -24.5t82 -69.5zM267 389q-49 0 -78.5 -41t-29.5 -109q0 -71 29 -112t80 -41q49 0 78.5 41t29.5 110t-29.5 110.5t-79.5 41.5zM315 699h152l-186 -163h-93z" />
    <glyph glyph-name="uni1EDC" unicode="&#x1edc;" horiz-adv-x="673" 
d="M577 563l2 4q7 16 9.5 27.5t3.5 27.5q-63 7 -63 59q0 27 19 45.5t48 18.5q32 0 51.5 -24t19.5 -63q0 -66 -64 -145q17 -36 26 -84t9 -99q0 -77 -21.5 -140t-61.5 -108t-95.5 -70t-122.5 -25q-59 0 -112 21t-93 59q-48 46 -72 113.5t-24 153.5q0 85 24 152.5t72 113.5
q40 38 93 59t112 21q74 0 136 -31.5t103 -88.5zM337 570q-38 0 -68 -14.5t-50 -41.5q-23 -32 -36.5 -79t-13.5 -98q0 -114 44.5 -177t123.5 -63q38 0 68 14.5t50 41.5q24 33 37 79.5t13 101.5q0 54 -13 101t-37 79q-20 27 -50 41.5t-68 14.5zM305 716l-203 163h151l167 -163
h-115z" />
    <glyph glyph-name="uni1EDD" unicode="&#x1edd;" horiz-adv-x="536" 
d="M456 394q8 19 11.5 32.5t4.5 30.5q-65 9 -65 60q0 29 20 48t49 19q33 0 53 -24.5t20 -65.5q0 -34 -17.5 -73t-49.5 -77q20 -49 20 -107q0 -55 -17.5 -101t-48.5 -79t-74.5 -51.5t-94.5 -18.5t-94 18.5t-74 51.5t-48.5 79t-17.5 101t17.5 101t48.5 79.5t74.5 52t94.5 18.5
q57 0 106 -24.5t82 -69.5zM267 389q-49 0 -78.5 -41t-29.5 -109q0 -71 29 -112t80 -41q49 0 78.5 41t29.5 110t-29.5 110.5t-79.5 41.5zM266 536l-186 163h151l127 -163h-92z" />
    <glyph glyph-name="uni1EDE" unicode="&#x1ede;" horiz-adv-x="673" 
d="M577 563l2 4q7 16 9.5 27.5t3.5 27.5q-63 7 -63 59q0 27 19 45.5t48 18.5q32 0 51.5 -24t19.5 -63q0 -66 -64 -145q17 -36 26 -84t9 -99q0 -77 -21.5 -140t-61.5 -108t-95.5 -70t-122.5 -25q-59 0 -112 21t-93 59q-48 46 -72 113.5t-24 153.5q0 85 24 152.5t72 113.5
q40 38 93 59t112 21q74 0 136 -31.5t103 -88.5zM337 570q-38 0 -68 -14.5t-50 -41.5q-23 -32 -36.5 -79t-13.5 -98q0 -114 44.5 -177t123.5 -63q38 0 68 14.5t50 41.5q24 33 37 79.5t13 101.5q0 54 -13 101t-37 79q-20 27 -50 41.5t-68 14.5zM306 813q12 -3 19.5 -4t15.5 -1
q32 0 52 18.5t20 47.5q0 27 -16 44.5t-41 17.5q-30 0 -76 -24v55q23 17 48.5 26t49.5 9q25 0 47.5 -9t39 -25t26 -38t9.5 -47q0 -48 -37 -78q-20 -16 -41.5 -23t-62.5 -10v-48h-53v89z" />
    <glyph glyph-name="uni1EDF" unicode="&#x1edf;" horiz-adv-x="536" 
d="M456 394q8 19 11.5 32.5t4.5 30.5q-65 9 -65 60q0 29 20 48t49 19q33 0 53 -24.5t20 -65.5q0 -34 -17.5 -73t-49.5 -77q20 -49 20 -107q0 -55 -17.5 -101t-48.5 -79t-74.5 -51.5t-94.5 -18.5t-94 18.5t-74 51.5t-48.5 79t-17.5 101t17.5 101t48.5 79.5t74.5 52t94.5 18.5
q57 0 106 -24.5t82 -69.5zM267 389q-49 0 -78.5 -41t-29.5 -109q0 -71 29 -112t80 -41q49 0 78.5 41t29.5 110t-29.5 110.5t-79.5 41.5zM240 630q12 -3 19.5 -4t15.5 -1q32 0 52 18.5t20 47.5q0 27 -16 44.5t-41 17.5q-30 0 -76 -24v55q23 17 48.5 26t49.5 9q25 0 47.5 -9
t39 -25t26 -38t9.5 -47q0 -48 -37 -78q-20 -16 -41.5 -23t-62.5 -10v-48h-53v89z" />
    <glyph glyph-name="uni1EE0" unicode="&#x1ee0;" horiz-adv-x="673" 
d="M577 563l2 4q7 16 9.5 27.5t3.5 27.5q-63 7 -63 59q0 27 19 45.5t48 18.5q32 0 51.5 -24t19.5 -63q0 -66 -64 -145q17 -36 26 -84t9 -99q0 -77 -21.5 -140t-61.5 -108t-95.5 -70t-122.5 -25q-59 0 -112 21t-93 59q-48 46 -72 113.5t-24 153.5q0 85 24 152.5t72 113.5
q40 38 93 59t112 21q74 0 136 -31.5t103 -88.5zM337 570q-38 0 -68 -14.5t-50 -41.5q-23 -32 -36.5 -79t-13.5 -98q0 -114 44.5 -177t123.5 -63q38 0 68 14.5t50 41.5q24 33 37 79.5t13 101.5q0 54 -13 101t-37 79q-20 27 -50 41.5t-68 14.5zM165 747q30 106 98 106
q26 0 75 -16q16 -5 26 -8t17 -4.5t12 -2t11 -0.5q16 0 28.5 9t25.5 31l51 -13q-11 -51 -38 -81t-62 -30q-26 0 -74 15q-17 6 -28 9t-18 5t-12 2.5t-10 0.5q-29 0 -45 -37z" />
    <glyph glyph-name="uni1EE1" unicode="&#x1ee1;" horiz-adv-x="536" 
d="M456 394q8 19 11.5 32.5t4.5 30.5q-65 9 -65 60q0 29 20 48t49 19q33 0 53 -24.5t20 -65.5q0 -34 -17.5 -73t-49.5 -77q20 -49 20 -107q0 -55 -17.5 -101t-48.5 -79t-74.5 -51.5t-94.5 -18.5t-94 18.5t-74 51.5t-48.5 79t-17.5 101t17.5 101t48.5 79.5t74.5 52t94.5 18.5
q57 0 106 -24.5t82 -69.5zM267 389q-49 0 -78.5 -41t-29.5 -109q0 -71 29 -112t80 -41q49 0 78.5 41t29.5 110t-29.5 110.5t-79.5 41.5zM112 567q28 106 89 106q12 0 28 -3.5t39 -11.5q29 -11 39.5 -13.5t20.5 -2.5q27 0 48 40l46 -13q-10 -52 -33.5 -81.5t-55.5 -29.5
q-11 0 -29 4t-39 12q-15 5 -24.5 8.5t-16 5t-10.5 2t-9 0.5q-27 0 -41 -37z" />
    <glyph glyph-name="uni1EE2" unicode="&#x1ee2;" horiz-adv-x="673" 
d="M577 563l2 4q7 16 9.5 27.5t3.5 27.5q-63 7 -63 59q0 27 19 45.5t48 18.5q32 0 51.5 -24t19.5 -63q0 -66 -64 -145q17 -36 26 -84t9 -99q0 -77 -21.5 -140t-61.5 -108t-95.5 -70t-122.5 -25q-59 0 -112 21t-93 59q-48 46 -72 113.5t-24 153.5q0 85 24 152.5t72 113.5
q40 38 93 59t112 21q74 0 136 -31.5t103 -88.5zM337 570q-38 0 -68 -14.5t-50 -41.5q-23 -32 -36.5 -79t-13.5 -98q0 -114 44.5 -177t123.5 -63q38 0 68 14.5t50 41.5q24 33 37 79.5t13 101.5q0 54 -13 101t-37 79q-20 27 -50 41.5t-68 14.5zM338 -43q33 0 55.5 -23
t22.5 -56t-23 -56t-56 -23q-32 0 -55.5 23.5t-23.5 55.5q0 34 23 56.5t57 22.5z" />
    <glyph glyph-name="uni1EE3" unicode="&#x1ee3;" horiz-adv-x="536" 
d="M456 394q8 19 11.5 32.5t4.5 30.5q-65 9 -65 60q0 29 20 48t49 19q33 0 53 -24.5t20 -65.5q0 -34 -17.5 -73t-49.5 -77q20 -49 20 -107q0 -55 -17.5 -101t-48.5 -79t-74.5 -51.5t-94.5 -18.5t-94 18.5t-74 51.5t-48.5 79t-17.5 101t17.5 101t48.5 79.5t74.5 52t94.5 18.5
q57 0 106 -24.5t82 -69.5zM267 389q-49 0 -78.5 -41t-29.5 -109q0 -71 29 -112t80 -41q49 0 78.5 41t29.5 110t-29.5 110.5t-79.5 41.5zM268 -52q33 0 55.5 -22.5t22.5 -56.5q0 -33 -22.5 -56t-56.5 -23q-32 0 -55.5 23.5t-23.5 55.5q0 33 23 56t57 23z" />
    <glyph glyph-name="uni1EE4" unicode="&#x1ee4;" horiz-adv-x="675" 
d="M201 667v-383q0 -25 0.5 -42.5t2 -30.5t3.5 -22.5t6 -19.5q14 -35 45.5 -53t78.5 -18q109 0 130 92q4 16 5 35t1 59v383h128v-385q0 -36 -1 -61.5t-4 -44.5t-8 -34t-13 -31q-29 -59 -91 -91.5t-147 -32.5t-147 32.5t-91 91.5q-8 16 -13 31t-8 34t-4 44.5t-1 61.5v385h128
zM338 -62q33 0 55.5 -23t22.5 -56q0 -32 -23.5 -55.5t-55.5 -23.5t-55.5 23.5t-23.5 55.5q0 34 22.5 56.5t57.5 22.5z" />
    <glyph glyph-name="uni1EE5" unicode="&#x1ee5;" horiz-adv-x="555" 
d="M188 475v-270q0 -59 18 -81q23 -26 63 -26q27 0 48.5 12t32.5 34q13 26 13 77v254h123v-328v-61t1.5 -36t3.5 -24t7 -26h-116q-4 8 -6.5 23t-3.5 32q-28 -35 -58.5 -50t-74.5 -15q-49 0 -88.5 20.5t-60.5 55.5q-25 41 -25 132v277h123zM278 -66q33 0 55.5 -22.5
t22.5 -56.5q0 -33 -23 -56t-56 -23q-32 0 -55.5 23.5t-23.5 55.5q0 34 23 56.5t57 22.5z" />
    <glyph glyph-name="uni1EE6" unicode="&#x1ee6;" horiz-adv-x="675" 
d="M201 667v-383q0 -25 0.5 -42.5t2 -30.5t3.5 -22.5t6 -19.5q14 -35 45.5 -53t78.5 -18q109 0 130 92q4 16 5 35t1 59v383h128v-385q0 -36 -1 -61.5t-4 -44.5t-8 -34t-13 -31q-29 -59 -91 -91.5t-147 -32.5t-147 32.5t-91 91.5q-8 16 -13 31t-8 34t-4 44.5t-1 61.5v385h128
zM298 824q12 -3 19.5 -4t15.5 -1q32 0 52 18.5t20 47.5q0 27 -16 44.5t-41 17.5q-29 0 -77 -24v55q49 35 99 35q25 0 47.5 -9t39 -25t26 -38t9.5 -47q0 -48 -37 -78q-20 -16 -41.5 -23t-62.5 -10v-48h-53v89z" />
    <glyph glyph-name="uni1EE7" unicode="&#x1ee7;" horiz-adv-x="555" 
d="M188 475v-270q0 -59 18 -81q23 -26 63 -26q27 0 48.5 12t32.5 34q13 26 13 77v254h123v-328v-61t1.5 -36t3.5 -24t7 -26h-116q-4 8 -6.5 23t-3.5 32q-28 -35 -58.5 -50t-74.5 -15q-49 0 -88.5 20.5t-60.5 55.5q-25 41 -25 132v277h123zM239 647q12 -3 19.5 -4t15.5 -1
q32 0 52 18.5t20 47.5q0 27 -16 44.5t-41 17.5q-29 0 -77 -24v55q49 35 99 35q25 0 47.5 -9t39 -25t26 -38t9.5 -47q0 -48 -37 -78q-20 -16 -41.5 -23t-62.5 -10v-48h-53v89z" />
    <glyph glyph-name="uni1EE8" unicode="&#x1ee8;" horiz-adv-x="675" 
d="M201 667v-383q0 -25 0.5 -42.5t2 -30.5t3.5 -22.5t6 -19.5q14 -35 45.5 -53t78.5 -18q109 0 130 92q4 16 5 35t1 59v383h128v-385q0 -36 -1 -61.5t-4 -44.5t-8 -34t-13 -31q-29 -59 -91 -91.5t-147 -32.5t-147 32.5t-91 91.5q-8 16 -13 31t-8 34t-4 44.5t-1 61.5v385h128
zM669 500q20 25 33.5 56t13.5 56q-63 7 -63 59q0 28 19 46t48 18q32 0 51.5 -24t19.5 -63q0 -66 -67 -148h-55zM435 879h151l-203 -163h-115z" />
    <glyph glyph-name="uni1EE9" unicode="&#x1ee9;" horiz-adv-x="555" 
d="M188 475v-270q0 -59 18 -81q23 -26 63 -26q27 0 48.5 12t32.5 34q13 26 13 77v254h123v-328v-61t1.5 -36t3.5 -24t7 -26h-116q-4 8 -6.5 23t-3.5 32q-28 -35 -58.5 -50t-74.5 -15q-49 0 -88.5 20.5t-60.5 55.5q-25 41 -25 132v277h123zM523 315q21 26 34.5 57.5
t14.5 57.5q-66 9 -66 61q0 28 20.5 47.5t49.5 19.5q32 0 52 -24.5t20 -65.5q0 -36 -17 -73t-52 -80h-56zM325 699h151l-186 -163h-92z" />
    <glyph glyph-name="uni1EEA" unicode="&#x1eea;" horiz-adv-x="675" 
d="M201 667v-383q0 -25 0.5 -42.5t2 -30.5t3.5 -22.5t6 -19.5q14 -35 45.5 -53t78.5 -18q109 0 130 92q4 16 5 35t1 59v383h128v-385q0 -36 -1 -61.5t-4 -44.5t-8 -34t-13 -31q-29 -59 -91 -91.5t-147 -32.5t-147 32.5t-91 91.5q-8 16 -13 31t-8 34t-4 44.5t-1 61.5v385h128
zM669 500q20 25 33.5 56t13.5 56q-63 7 -63 59q0 28 19 46t48 18q32 0 51.5 -24t19.5 -63q0 -66 -67 -148h-55zM305 716l-203 163h151l167 -163h-115z" />
    <glyph glyph-name="uni1EEB" unicode="&#x1eeb;" horiz-adv-x="555" 
d="M188 475v-270q0 -59 18 -81q23 -26 63 -26q27 0 48.5 12t32.5 34q13 26 13 77v254h123v-328v-61t1.5 -36t3.5 -24t7 -26h-116q-4 8 -6.5 23t-3.5 32q-28 -35 -58.5 -50t-74.5 -15q-49 0 -88.5 20.5t-60.5 55.5q-25 41 -25 132v277h123zM523 315q21 26 34.5 57.5
t14.5 57.5q-66 9 -66 61q0 28 20.5 47.5t49.5 19.5q32 0 52 -24.5t20 -65.5q0 -36 -17 -73t-52 -80h-56zM275 536l-186 163h152l127 -163h-93z" />
    <glyph glyph-name="uni1EEC" unicode="&#x1eec;" horiz-adv-x="675" 
d="M201 667v-383q0 -25 0.5 -42.5t2 -30.5t3.5 -22.5t6 -19.5q14 -35 45.5 -53t78.5 -18q109 0 130 92q4 16 5 35t1 59v383h128v-385q0 -36 -1 -61.5t-4 -44.5t-8 -34t-13 -31q-29 -59 -91 -91.5t-147 -32.5t-147 32.5t-91 91.5q-8 16 -13 31t-8 34t-4 44.5t-1 61.5v385h128
zM669 500q20 25 33.5 56t13.5 56q-63 7 -63 59q0 28 19 46t48 18q32 0 51.5 -24t19.5 -63q0 -66 -67 -148h-55zM310 813q12 -3 19.5 -4t15.5 -1q32 0 52 18.5t20 47.5q0 27 -16 44.5t-41 17.5q-29 0 -77 -24v55q49 35 99 35q25 0 47.5 -9t39 -25t26 -38t9.5 -47
q0 -48 -37 -78q-20 -16 -41.5 -23t-62.5 -10v-48h-53v89z" />
    <glyph glyph-name="uni1EED" unicode="&#x1eed;" horiz-adv-x="555" 
d="M188 475v-270q0 -59 18 -81q23 -26 63 -26q27 0 48.5 12t32.5 34q13 26 13 77v254h123v-328v-61t1.5 -36t3.5 -24t7 -26h-116q-4 8 -6.5 23t-3.5 32q-28 -35 -58.5 -50t-74.5 -15q-49 0 -88.5 20.5t-60.5 55.5q-25 41 -25 132v277h123zM523 315q21 26 34.5 57.5
t14.5 57.5q-66 9 -66 61q0 28 20.5 47.5t49.5 19.5q32 0 52 -24.5t20 -65.5q0 -36 -17 -73t-52 -80h-56zM252 630q12 -3 19.5 -4t15.5 -1q32 0 52 18.5t20 47.5q0 27 -16 44.5t-41 17.5q-29 0 -77 -24v55q49 35 99 35q25 0 47.5 -9t39 -25t26 -38t9.5 -47q0 -48 -37 -78
q-20 -16 -41.5 -23t-62.5 -10v-48h-53v89z" />
    <glyph glyph-name="uni1EEE" unicode="&#x1eee;" horiz-adv-x="675" 
d="M201 667v-383q0 -25 0.5 -42.5t2 -30.5t3.5 -22.5t6 -19.5q14 -35 45.5 -53t78.5 -18q109 0 130 92q4 16 5 35t1 59v383h128v-385q0 -36 -1 -61.5t-4 -44.5t-8 -34t-13 -31q-29 -59 -91 -91.5t-147 -32.5t-147 32.5t-91 91.5q-8 16 -13 31t-8 34t-4 44.5t-1 61.5v385h128
zM669 500q20 25 33.5 56t13.5 56q-63 7 -63 59q0 28 19 46t48 18q32 0 51.5 -24t19.5 -63q0 -66 -67 -148h-55zM165 747q30 106 98 106q26 0 75 -16q16 -5 26 -8t17 -4.5t12 -2t11 -0.5q16 0 28.5 9t25.5 31l51 -13q-11 -51 -38 -81t-62 -30q-26 0 -74 15q-17 6 -28 9t-18 5
t-12 2.5t-10 0.5q-29 0 -45 -37z" />
    <glyph glyph-name="uni1EEF" unicode="&#x1eef;" horiz-adv-x="555" 
d="M188 475v-270q0 -59 18 -81q23 -26 63 -26q27 0 48.5 12t32.5 34q13 26 13 77v254h123v-328v-61t1.5 -36t3.5 -24t7 -26h-116q-4 8 -6.5 23t-3.5 32q-28 -35 -58.5 -50t-74.5 -15q-49 0 -88.5 20.5t-60.5 55.5q-25 41 -25 132v277h123zM523 315q21 26 34.5 57.5
t14.5 57.5q-66 9 -66 61q0 28 20.5 47.5t49.5 19.5q32 0 52 -24.5t20 -65.5q0 -36 -17 -73t-52 -80h-56zM122 567q28 106 89 106q12 0 27.5 -3.5t39.5 -11.5q28 -11 39 -13.5t21 -2.5q25 0 48 40l46 -13q-11 -52 -34.5 -81.5t-54.5 -29.5q-11 0 -29 4t-39 12
q-15 5 -24.5 8.5t-16 5t-10.5 2t-9 0.5q-28 0 -41 -37z" />
    </font>
</defs>
</svg>
